<svg width="24" height="24" viewBox="0 0 24 24" fill="none" xmlns="http://www.w3.org/2000/svg">
<path fill-rule="evenodd" clip-rule="evenodd" d="M12 4.49991C11.7239 4.49991 11.5 4.72377 11.5 4.99991V11.4999H5C4.72386 11.4999 4.5 11.7238 4.5 11.9999C4.5 12.2761 4.72386 12.4999 5 12.4999H11.5V18.9999C11.5 19.2761 11.7239 19.4999 12 19.4999C12.2761 19.4999 12.5 19.2761 12.5 18.9999V12.4999H19C19.2761 12.4999 19.5 12.2761 19.5 11.9999C19.5 11.7238 19.2761 11.4999 19 11.4999H12.5V4.99991C12.5 4.72377 12.2761 4.49991 12 4.49991Z" fill="currentcolor"/>
<path d="M11.5 11.4999V11.9999H12V11.4999H11.5ZM11.5 12.4999H12V11.9999H11.5V12.4999ZM12.5 12.4999V11.9999H12V12.4999H12.5ZM12.5 11.4999H12V11.9999H12.5V11.4999ZM12 4.99991V3.99991C11.4477 3.99991 11 4.44762 11 4.99991H12ZM12 11.4999V4.99991H11V11.4999H12ZM5 11.9999H11.5V10.9999H5V11.9999ZM5 11.9999V10.9999C4.44772 10.9999 4 11.4476 4 11.9999H5ZM5 11.9999H4C4 12.5522 4.44772 12.9999 5 12.9999V11.9999ZM11.5 11.9999H5V12.9999H11.5V11.9999ZM12 18.9999V12.4999H11V18.9999H12ZM12 18.9999H11C11 19.5522 11.4477 19.9999 12 19.9999V18.9999ZM12 18.9999V19.9999C12.5523 19.9999 13 19.5522 13 18.9999H12ZM12 12.4999V18.9999H13V12.4999H12ZM19 11.9999H12.5V12.9999H19V11.9999ZM19 11.9999V12.9999C19.5523 12.9999 20 12.5522 20 11.9999H19ZM19 11.9999H20C20 11.4476 19.5523 10.9999 19 10.9999V11.9999ZM12.5 11.9999H19V10.9999H12.5V11.9999ZM12 4.99991V11.4999H13V4.99991H12ZM12 4.99991H13C13 4.44762 12.5523 3.99991 12 3.99991V4.99991Z" fill="currentcolor"/>
</svg>
