<svg width="24" height="24" viewBox="0 0 24 24" fill="none" xmlns="http://www.w3.org/2000/svg">
<path fill-rule="evenodd" clip-rule="evenodd" d="M12 4.49991C11.7239 4.49991 11.5 4.72377 11.5 4.99991V11.4999H5C4.72386 11.4999 4.5 11.7238 4.5 11.9999C4.5 12.2761 4.72386 12.4999 5 12.4999H11.5V18.9999C11.5 19.2761 11.7239 19.4999 12 19.4999C12.2761 19.4999 12.5 19.2761 12.5 18.9999V12.4999H19C19.2761 12.4999 19.5 12.2761 19.5 11.9999C19.5 11.7238 19.2761 11.4999 19 11.4999H12.5V4.99991C12.5 4.72377 12.2761 4.49991 12 4.49991Z" fill="currentcolor"/>
</svg>
