<svg width="24" height="24" viewBox="0 0 24 24" fill="none" xmlns="http://www.w3.org/2000/svg">
<path d="M11.5 6.86667C11.5 6.66416 11.7239 6.5 12 6.5C12.2761 6.5 12.5 6.66416 12.5 6.86667V11.5H17.1333C17.3358 11.5 17.5 11.7239 17.5 12C17.5 12.2761 17.3358 12.5 17.1333 12.5H12.5V17.1333C12.5 17.3358 12.2761 17.5 12 17.5C11.7239 17.5 11.5 17.3358 11.5 17.1333V12.5H6.86667C6.66416 12.5 6.5 12.2761 6.5 12C6.5 11.7239 6.66416 11.5 6.86667 11.5H11.5V6.86667Z" fill="currentcolor"/>
<path fill-rule="evenodd" clip-rule="evenodd" d="M22 12C22 17.5226 17.523 22 12 22C6.47705 22 2 17.5226 2 12C2 6.47669 6.47669 2 12 2C17.5233 2 22 6.47669 22 12ZM20.9974 12C20.9974 7.03043 16.9696 3.00264 12 3.00264C7.03043 3.00264 3.00264 7.03043 3.00264 12C3.00264 16.9689 7.03081 20.9974 12 20.9974C16.9692 20.9974 20.9974 16.9689 20.9974 12Z" fill="currentcolor"/>
<path d="M11.5 6.86667C11.5 6.66416 11.7239 6.5 12 6.5C12.2761 6.5 12.5 6.66416 12.5 6.86667V11.5H17.1333C17.3358 11.5 17.5 11.7239 17.5 12C17.5 12.2761 17.3358 12.5 17.1333 12.5H12.5V17.1333C12.5 17.3358 12.2761 17.5 12 17.5C11.7239 17.5 11.5 17.3358 11.5 17.1333V12.5H6.86667C6.66416 12.5 6.5 12.2761 6.5 12C6.5 11.7239 6.66416 11.5 6.86667 11.5H11.5V6.86667Z" stroke="currentcolor"/>
<path fill-rule="evenodd" clip-rule="evenodd" d="M22 12C22 17.5226 17.523 22 12 22C6.47705 22 2 17.5226 2 12C2 6.47669 6.47669 2 12 2C17.5233 2 22 6.47669 22 12ZM20.9974 12C20.9974 7.03043 16.9696 3.00264 12 3.00264C7.03043 3.00264 3.00264 7.03043 3.00264 12C3.00264 16.9689 7.03081 20.9974 12 20.9974C16.9692 20.9974 20.9974 16.9689 20.9974 12Z" stroke="currentcolor"/>
</svg>
