<svg width="24" height="24" viewBox="0 0 24 24" fill="none" xmlns="http://www.w3.org/2000/svg">
<path fill-rule="evenodd" clip-rule="evenodd" d="M12 22C17.523 22 22 17.5226 22 12C22 6.47669 17.5233 2 12 2C6.47669 2 2 6.47669 2 12C2 17.5226 6.47705 22 12 22ZM12 3.00264C16.9696 3.00264 20.9974 7.03043 20.9974 12C20.9974 16.9689 16.9692 20.9974 12 20.9974C7.03081 20.9974 3.00264 16.9689 3.00264 12C3.00264 7.03043 7.03043 3.00264 12 3.00264ZM11.9639 13.5C11.6879 13.5 11.4639 13.276 11.4639 13V7C11.4639 6.724 11.6879 6.5 11.9639 6.5C12.2399 6.5 12.4639 6.724 12.4639 7V13C12.4639 13.276 12.2399 13.5 11.9639 13.5ZM11.2139 17.0321C11.2139 17.4461 11.5499 17.7661 11.9639 17.7661C12.3779 17.7661 12.7139 17.4141 12.7139 17.0001C12.7139 16.5861 12.3779 16.2501 11.9639 16.2501C11.5499 16.2501 11.2139 16.5861 11.2139 17.0001V17.0321Z" fill="currentcolor"/>
<path d="M21.5 12C21.5 17.2465 17.2468 21.5 12 21.5V22.5C17.7991 22.5 22.5 17.7987 22.5 12H21.5ZM12 2.5C17.2472 2.5 21.5 6.75283 21.5 12H22.5C22.5 6.20055 17.7995 1.5 12 1.5V2.5ZM2.5 12C2.5 6.75283 6.75283 2.5 12 2.5V1.5C6.20055 1.5 1.5 6.20055 1.5 12H2.5ZM12 21.5C6.7532 21.5 2.5 17.2465 2.5 12H1.5C1.5 17.7987 6.20089 22.5 12 22.5V21.5ZM21.4974 12C21.4974 6.75429 17.2457 2.50264 12 2.50264V3.50264C16.6934 3.50264 20.4974 7.30657 20.4974 12H21.4974ZM12 21.4974C17.2453 21.4974 21.4974 17.245 21.4974 12H20.4974C20.4974 16.6928 16.693 20.4974 12 20.4974V21.4974ZM2.50264 12C2.50264 17.245 6.75465 21.4974 12 21.4974V20.4974C7.30696 20.4974 3.50264 16.6928 3.50264 12H2.50264ZM12 2.50264C6.75429 2.50264 2.50264 6.75429 2.50264 12H3.50264C3.50264 7.30658 7.30658 3.50264 12 3.50264V2.50264ZM10.9639 13C10.9639 13.5521 11.4118 14 11.9639 14V13H10.9639ZM10.9639 7V13H11.9639V7H10.9639ZM11.9639 6C11.4118 6 10.9639 6.44786 10.9639 7H11.9639V6ZM12.9639 7C12.9639 6.44786 12.516 6 11.9639 6V7H12.9639ZM12.9639 13V7H11.9639V13H12.9639ZM11.9639 14C12.516 14 12.9639 13.5521 12.9639 13H11.9639V14ZM11.9639 17.2661C11.8118 17.2661 11.7139 17.156 11.7139 17.0321H10.7139C10.7139 17.7362 11.288 18.2661 11.9639 18.2661V17.2661ZM12.2139 17.0001C12.2139 17.1517 12.0882 17.2661 11.9639 17.2661V18.2661C12.6676 18.2661 13.2139 17.6765 13.2139 17.0001H12.2139ZM11.9639 16.7501C12.1018 16.7501 12.2139 16.8622 12.2139 17.0001H13.2139C13.2139 16.31 12.654 15.7501 11.9639 15.7501V16.7501ZM11.7139 17.0001C11.7139 16.8622 11.826 16.7501 11.9639 16.7501V15.7501C11.2738 15.7501 10.7139 16.31 10.7139 17.0001H11.7139ZM11.7139 17.0321V17.0001H10.7139V17.0321H11.7139Z" fill="currentcolor"/>
</svg>
