<svg width="24" height="24" viewBox="0 0 24 24" fill="none" xmlns="http://www.w3.org/2000/svg">
<path fill-rule="evenodd" clip-rule="evenodd" d="M12 22C17.523 22 22 17.5226 22 12C22 6.47669 17.5233 2 12 2C6.47669 2 2 6.47669 2 12C2 17.5226 6.47705 22 12 22ZM12 3.00264C16.9696 3.00264 20.9974 7.03043 20.9974 12C20.9974 16.9689 16.9692 20.9974 12 20.9974C7.03081 20.9974 3.00264 16.9689 3.00264 12C3.00264 7.03043 7.03043 3.00264 12 3.00264ZM11.9639 13.5C11.6879 13.5 11.4639 13.276 11.4639 13V7C11.4639 6.724 11.6879 6.5 11.9639 6.5C12.2399 6.5 12.4639 6.724 12.4639 7V13C12.4639 13.276 12.2399 13.5 11.9639 13.5ZM11.2139 17.0321C11.2139 17.4461 11.5499 17.7661 11.9639 17.7661C12.3779 17.7661 12.7139 17.4141 12.7139 17.0001C12.7139 16.5861 12.3779 16.2501 11.9639 16.2501C11.5499 16.2501 11.2139 16.5861 11.2139 17.0001V17.0321Z" fill="currentcolor"/>
</svg>
