<svg width="24" height="24" viewBox="0 0 24 24" fill="none" xmlns="http://www.w3.org/2000/svg">
<path fill-rule="evenodd" clip-rule="evenodd" d="M22.5 12C22.5 17.5226 18.023 22 12.5 22C6.97705 22 2.5 17.5226 2.5 12C2.5 6.47669 6.97669 2 12.5 2C18.0233 2 22.5 6.47669 22.5 12Z" fill="currentcolor"/>
<mask id="mask0_4403_322521" style="mask-type:luminance" maskUnits="userSpaceOnUse" x="11" y="6" width="3" height="12">
<path fill-rule="evenodd" clip-rule="evenodd" d="M11.9639 13C11.9639 13.276 12.1879 13.5 12.4639 13.5C12.7399 13.5 12.9639 13.276 12.9639 13V7C12.9639 6.724 12.7399 6.5 12.4639 6.5C12.1879 6.5 11.9639 6.724 11.9639 7V13ZM11.7139 17.0321C11.7139 17.4461 12.0499 17.7661 12.4639 17.7661C12.8779 17.7661 13.2139 17.4141 13.2139 17.0001C13.2139 16.5861 12.8779 16.2501 12.4639 16.2501C12.0499 16.2501 11.7139 16.5861 11.7139 17.0001V17.0321Z" fill="white"/>
</mask>
<g mask="url(#mask0_4403_322521)">
<rect width="24" height="24" transform="translate(0.5)" fill="white"/>
<rect x="0.5" width="24" height="24" fill="white"/>
</g>
</svg>
