<svg width="24" height="24" viewBox="0 0 24 24" fill="none" xmlns="http://www.w3.org/2000/svg">
<path fill-rule="evenodd" clip-rule="evenodd" d="M9 4C9 2.34315 10.3431 1 12 1C13.6569 1 15 2.34315 15 4C15 5.30622 14.1652 6.41746 13 6.82929V9H15V11H13V20.9381C16.6187 20.4869 19.4869 17.6187 19.9381 14H18V12H22V13C22 18.5228 17.5228 23 12 23C6.47715 23 2 18.5228 2 13V12H6V14H4.06189C4.51314 17.6187 7.38128 20.4869 11 20.9381V11H9V9H11V6.82929C9.83481 6.41746 9 5.30622 9 4ZM12 3C11.4477 3 11 3.44772 11 4C11 4.55228 11.4477 5 12 5C12.5523 5 13 4.55228 13 4C13 3.44772 12.5523 3 12 3Z" fill="currentcolor"/>
</svg>
