<svg width="28" height="28" viewBox="0 0 28 28" fill="none" xmlns="http://www.w3.org/2000/svg">
<circle cx="12" cy="16" r="12" fill="currentcolor"/>
<path fill-rule="evenodd" clip-rule="evenodd" d="M5.75006 23C5.75006 23.2761 5.97396 23.5 6.25012 23.5L17.7425 23.4986C18.0187 23.4986 18.2425 23.2747 18.2425 22.9986V14.5063C18.2425 14.3774 18.1346 14.271 18.0038 14.271H13.2615V9.56871C13.2615 9.4398 13.1536 9.33337 13.0229 9.33337H5.98869C5.85797 9.33337 5.75006 9.4398 5.75006 9.56871V23ZM12.4167 10.3572C12.4167 10.2528 12.3388 10.1667 12.2441 10.1667H6.75603C6.6613 10.1667 6.58338 10.2528 6.58338 10.3572V22.4762C6.58338 22.5806 6.6613 22.6667 6.75603 22.6667H12.2441C12.3388 22.6667 12.4167 22.5806 12.4167 22.4762V10.3572ZM11.5415 11C11.5643 11 11.5834 11.0161 11.5834 11.0352V11.7982C11.5834 11.8173 11.5643 11.8334 11.5415 11.8334H10.7919C10.7692 11.8334 10.7501 11.8173 10.7501 11.7982V11.0352C10.7501 11.0161 10.7692 11 10.7919 11H11.5415ZM11.5834 12.7019C11.5834 12.6828 11.5643 12.6667 11.5415 12.6667H10.7919C10.7692 12.6667 10.7501 12.6828 10.7501 12.7019V13.4649C10.7501 13.484 10.7692 13.5 10.7919 13.5H11.5415C11.5643 13.5 11.5834 13.484 11.5834 13.4649V12.7019ZM9.87483 11C9.89761 11 9.91672 11.0161 9.91672 11.0352V11.7982C9.91672 11.8173 9.89761 11.8334 9.87483 11.8334H9.12527C9.10249 11.8334 9.08338 11.8173 9.08338 11.7982V11.0352C9.08338 11.0161 9.10249 11 9.12527 11H9.87483ZM9.91672 12.7019C9.91672 12.6828 9.89761 12.6667 9.87483 12.6667H9.12527C9.10249 12.6667 9.08338 12.6828 9.08338 12.7019V13.4649C9.08338 13.484 9.10249 13.5 9.12527 13.5H9.87483C9.89761 13.5 9.91672 13.484 9.91672 13.4649V12.7019ZM8.20816 11C8.23094 11 8.25005 11.0161 8.25005 11.0352V11.7982C8.25005 11.8173 8.23094 11.8334 8.20816 11.8334H7.4586C7.43582 11.8334 7.41672 11.8173 7.41672 11.7982V11.0352C7.41672 11.0161 7.43582 11 7.4586 11H8.20816ZM8.25005 12.7019C8.25005 12.6828 8.23094 12.6667 8.20816 12.6667H7.4586C7.43582 12.6667 7.41672 12.6828 7.41672 12.7019V13.4649C7.41672 13.484 7.43582 13.5 7.4586 13.5H8.20816C8.23094 13.5 8.25005 13.484 8.25005 13.4649V12.7019ZM11.5415 14.3334C11.5643 14.3334 11.5834 14.3494 11.5834 14.3686V15.1315C11.5834 15.1507 11.5643 15.1667 11.5415 15.1667H10.7919C10.7692 15.1667 10.7501 15.1507 10.7501 15.1315V14.3686C10.7501 14.3494 10.7692 14.3334 10.7919 14.3334H11.5415ZM9.91672 14.3686C9.91672 14.3494 9.89761 14.3334 9.87483 14.3334H9.12527C9.10249 14.3334 9.08338 14.3494 9.08338 14.3686V15.1315C9.08338 15.1507 9.10249 15.1667 9.12527 15.1667H9.87483C9.89761 15.1667 9.91672 15.1507 9.91672 15.1315V14.3686ZM8.20816 14.3334C8.23094 14.3334 8.25005 14.3494 8.25005 14.3686V15.1315C8.25005 15.1507 8.23094 15.1667 8.20816 15.1667H7.4586C7.43582 15.1667 7.41672 15.1507 7.41672 15.1315V14.3686C7.41672 14.3494 7.43582 14.3334 7.4586 14.3334H8.20816ZM11.5834 16.0352C11.5834 16.0161 11.5643 16 11.5415 16H10.7919C10.7692 16 10.7501 16.0161 10.7501 16.0352V16.7982C10.7501 16.8173 10.7692 16.8334 10.7919 16.8334H11.5415C11.5643 16.8334 11.5834 16.8173 11.5834 16.7982V16.0352ZM9.87483 16C9.89761 16 9.91672 16.0161 9.91672 16.0352V16.7982C9.91672 16.8173 9.89761 16.8334 9.87483 16.8334H9.12527C9.10249 16.8334 9.08338 16.8173 9.08338 16.7982V16.0352C9.08338 16.0161 9.10249 16 9.12527 16H9.87483ZM8.25005 16.0352C8.25005 16.0161 8.23094 16 8.20816 16H7.4586C7.43582 16 7.41672 16.0161 7.41672 16.0352V16.7982C7.41672 16.8173 7.43582 16.8334 7.4586 16.8334H8.20816C8.23094 16.8334 8.25005 16.8173 8.25005 16.7982V16.0352ZM11.5415 17.6667C11.5643 17.6667 11.5834 17.6828 11.5834 17.7019V18.4649C11.5834 18.484 11.5643 18.5 11.5415 18.5H10.7919C10.7692 18.5 10.7501 18.484 10.7501 18.4649V17.7019C10.7501 17.6828 10.7692 17.6667 10.7919 17.6667H11.5415ZM9.91672 17.7019C9.91672 17.6828 9.89761 17.6667 9.87483 17.6667H9.12527C9.10249 17.6667 9.08338 17.6828 9.08338 17.7019V18.4649C9.08338 18.484 9.10249 18.5 9.12527 18.5H9.87483C9.89761 18.5 9.91672 18.484 9.91672 18.4649V17.7019ZM8.20816 17.6667C8.23094 17.6667 8.25005 17.6828 8.25005 17.7019V18.4649C8.25005 18.484 8.23094 18.5 8.20816 18.5H7.4586C7.43582 18.5 7.41672 18.484 7.41672 18.4649V17.7019C7.41672 17.6828 7.43582 17.6667 7.4586 17.6667H8.20816ZM11.5834 19.3686C11.5834 19.3494 11.5643 19.3334 11.5415 19.3334H10.7919C10.7692 19.3334 10.7501 19.3494 10.7501 19.3686V20.1315C10.7501 20.1507 10.7692 20.1667 10.7919 20.1667H11.5415C11.5643 20.1667 11.5834 20.1507 11.5834 20.1315V19.3686ZM9.87483 19.3334C9.89761 19.3334 9.91672 19.3494 9.91672 19.3686V20.1315C9.91672 20.1507 9.89761 20.1667 9.87483 20.1667H9.12527C9.10249 20.1667 9.08338 20.1507 9.08338 20.1315V19.3686C9.08338 19.3494 9.10249 19.3334 9.12527 19.3334H9.87483ZM8.25005 19.3686C8.25005 19.3494 8.23094 19.3334 8.20816 19.3334H7.4586C7.43582 19.3334 7.41672 19.3494 7.41672 19.3686V20.1315C7.41672 20.1507 7.43582 20.1667 7.4586 20.1667H8.20816C8.23094 20.1667 8.25005 20.1507 8.25005 20.1315V19.3686ZM11.5415 21C11.5643 21 11.5834 21.0161 11.5834 21.0352V21.7982C11.5834 21.8173 11.5643 21.8334 11.5415 21.8334H10.7919C10.7692 21.8334 10.7501 21.8173 10.7501 21.7982V21.0352C10.7501 21.0161 10.7692 21 10.7919 21H11.5415ZM9.91672 21.0352C9.91672 21.0161 9.89761 21 9.87483 21H9.12527C9.10249 21 9.08338 21.0161 9.08338 21.0352V21.7982C9.08338 21.8173 9.10249 21.8334 9.12527 21.8334H9.87483C9.89761 21.8334 9.91672 21.8173 9.91672 21.7982V21.0352ZM8.20816 21C8.23094 21 8.25005 21.0161 8.25005 21.0352V21.7982C8.25005 21.8173 8.23094 21.8334 8.20816 21.8334H7.4586C7.43582 21.8334 7.41672 21.8173 7.41672 21.7982V21.0352C7.41672 21.0161 7.43582 21 7.4586 21H8.20816ZM17.4167 15.3689C17.4167 15.2581 17.3611 15.1667 17.2934 15.1667H13.3734C13.3057 15.1667 13.2501 15.2581 13.2501 15.3689V22.4645C13.2501 22.5753 13.3057 22.6667 13.3734 22.6667H17.2934C17.3611 22.6667 17.4167 22.5753 17.4167 22.4645V15.3689ZM14.1253 16H14.8748C14.8976 16 14.9167 16.0161 14.9167 16.0352V16.7982C14.9167 16.8173 14.8976 16.8334 14.8748 16.8334H14.1253C14.1025 16.8334 14.0834 16.8173 14.0834 16.7982V16.0352C14.0834 16.0161 14.1025 16 14.1253 16ZM14.8748 17.6667H14.1253C14.1025 17.6667 14.0834 17.6828 14.0834 17.7019V18.4649C14.0834 18.484 14.1025 18.5 14.1253 18.5H14.8748C14.8976 18.5 14.9167 18.484 14.9167 18.4649V17.7019C14.9167 17.6828 14.8976 17.6667 14.8748 17.6667ZM15.7919 16H16.5415C16.5643 16 16.5834 16.0161 16.5834 16.0352V16.7982C16.5834 16.8173 16.5643 16.8334 16.5415 16.8334H15.7919C15.7692 16.8334 15.75 16.8173 15.75 16.7982V16.0352C15.75 16.0161 15.7692 16 15.7919 16ZM16.5415 17.6667H15.7919C15.7692 17.6667 15.75 17.6828 15.75 17.7019V18.4649C15.75 18.484 15.7692 18.5 15.7919 18.5H16.5415C16.5643 18.5 16.5834 18.484 16.5834 18.4649V17.7019C16.5834 17.6828 16.5643 17.6667 16.5415 17.6667ZM14.1253 19.3334H14.8748C14.8976 19.3334 14.9167 19.3494 14.9167 19.3686V20.1315C14.9167 20.1507 14.8976 20.1667 14.8748 20.1667H14.1253C14.1025 20.1667 14.0834 20.1507 14.0834 20.1315V19.3686C14.0834 19.3494 14.1025 19.3334 14.1253 19.3334ZM16.5415 19.3334H15.7919C15.7692 19.3334 15.75 19.3494 15.75 19.3686V20.1315C15.75 20.1507 15.7692 20.1667 15.7919 20.1667H16.5415C16.5643 20.1667 16.5834 20.1507 16.5834 20.1315V19.3686C16.5834 19.3494 16.5643 19.3334 16.5415 19.3334ZM14.1253 21H14.8748C14.8976 21 14.9167 21.0161 14.9167 21.0352V21.7982C14.9167 21.8173 14.8976 21.8334 14.8748 21.8334H14.1253C14.1025 21.8334 14.0834 21.8173 14.0834 21.7982V21.0352C14.0834 21.0161 14.1025 21 14.1253 21ZM16.5415 21H15.7919C15.7692 21 15.75 21.0161 15.75 21.0352V21.7982C15.75 21.8173 15.7692 21.8334 15.7919 21.8334H16.5415C16.5643 21.8334 16.5834 21.8173 16.5834 21.7982V21.0352C16.5834 21.0161 16.5643 21 16.5415 21Z" fill="currentcolor"/>
<mask id="mask0_1222_222108" style="mask-type:luminance" maskUnits="userSpaceOnUse" x="5" y="9" width="14" height="15">
<path fill-rule="evenodd" clip-rule="evenodd" d="M5.75006 23C5.75006 23.2761 5.97396 23.5 6.25012 23.5L17.7425 23.4986C18.0187 23.4986 18.2425 23.2747 18.2425 22.9986V14.5063C18.2425 14.3774 18.1346 14.271 18.0038 14.271H13.2615V9.56871C13.2615 9.4398 13.1536 9.33337 13.0229 9.33337H5.98869C5.85797 9.33337 5.75006 9.4398 5.75006 9.56871V23ZM12.4167 10.3572C12.4167 10.2528 12.3388 10.1667 12.2441 10.1667H6.75603C6.6613 10.1667 6.58338 10.2528 6.58338 10.3572V22.4762C6.58338 22.5806 6.6613 22.6667 6.75603 22.6667H12.2441C12.3388 22.6667 12.4167 22.5806 12.4167 22.4762V10.3572ZM11.5415 11C11.5643 11 11.5834 11.0161 11.5834 11.0352V11.7982C11.5834 11.8173 11.5643 11.8334 11.5415 11.8334H10.7919C10.7692 11.8334 10.7501 11.8173 10.7501 11.7982V11.0352C10.7501 11.0161 10.7692 11 10.7919 11H11.5415ZM11.5834 12.7019C11.5834 12.6828 11.5643 12.6667 11.5415 12.6667H10.7919C10.7692 12.6667 10.7501 12.6828 10.7501 12.7019V13.4649C10.7501 13.484 10.7692 13.5 10.7919 13.5H11.5415C11.5643 13.5 11.5834 13.484 11.5834 13.4649V12.7019ZM9.87483 11C9.89761 11 9.91672 11.0161 9.91672 11.0352V11.7982C9.91672 11.8173 9.89761 11.8334 9.87483 11.8334H9.12527C9.10249 11.8334 9.08338 11.8173 9.08338 11.7982V11.0352C9.08338 11.0161 9.10249 11 9.12527 11H9.87483ZM9.91672 12.7019C9.91672 12.6828 9.89761 12.6667 9.87483 12.6667H9.12527C9.10249 12.6667 9.08338 12.6828 9.08338 12.7019V13.4649C9.08338 13.484 9.10249 13.5 9.12527 13.5H9.87483C9.89761 13.5 9.91672 13.484 9.91672 13.4649V12.7019ZM8.20816 11C8.23094 11 8.25005 11.0161 8.25005 11.0352V11.7982C8.25005 11.8173 8.23094 11.8334 8.20816 11.8334H7.4586C7.43582 11.8334 7.41672 11.8173 7.41672 11.7982V11.0352C7.41672 11.0161 7.43582 11 7.4586 11H8.20816ZM8.25005 12.7019C8.25005 12.6828 8.23094 12.6667 8.20816 12.6667H7.4586C7.43582 12.6667 7.41672 12.6828 7.41672 12.7019V13.4649C7.41672 13.484 7.43582 13.5 7.4586 13.5H8.20816C8.23094 13.5 8.25005 13.484 8.25005 13.4649V12.7019ZM11.5415 14.3334C11.5643 14.3334 11.5834 14.3494 11.5834 14.3686V15.1315C11.5834 15.1507 11.5643 15.1667 11.5415 15.1667H10.7919C10.7692 15.1667 10.7501 15.1507 10.7501 15.1315V14.3686C10.7501 14.3494 10.7692 14.3334 10.7919 14.3334H11.5415ZM9.91672 14.3686C9.91672 14.3494 9.89761 14.3334 9.87483 14.3334H9.12527C9.10249 14.3334 9.08338 14.3494 9.08338 14.3686V15.1315C9.08338 15.1507 9.10249 15.1667 9.12527 15.1667H9.87483C9.89761 15.1667 9.91672 15.1507 9.91672 15.1315V14.3686ZM8.20816 14.3334C8.23094 14.3334 8.25005 14.3494 8.25005 14.3686V15.1315C8.25005 15.1507 8.23094 15.1667 8.20816 15.1667H7.4586C7.43582 15.1667 7.41672 15.1507 7.41672 15.1315V14.3686C7.41672 14.3494 7.43582 14.3334 7.4586 14.3334H8.20816ZM11.5834 16.0352C11.5834 16.0161 11.5643 16 11.5415 16H10.7919C10.7692 16 10.7501 16.0161 10.7501 16.0352V16.7982C10.7501 16.8173 10.7692 16.8334 10.7919 16.8334H11.5415C11.5643 16.8334 11.5834 16.8173 11.5834 16.7982V16.0352ZM9.87483 16C9.89761 16 9.91672 16.0161 9.91672 16.0352V16.7982C9.91672 16.8173 9.89761 16.8334 9.87483 16.8334H9.12527C9.10249 16.8334 9.08338 16.8173 9.08338 16.7982V16.0352C9.08338 16.0161 9.10249 16 9.12527 16H9.87483ZM8.25005 16.0352C8.25005 16.0161 8.23094 16 8.20816 16H7.4586C7.43582 16 7.41672 16.0161 7.41672 16.0352V16.7982C7.41672 16.8173 7.43582 16.8334 7.4586 16.8334H8.20816C8.23094 16.8334 8.25005 16.8173 8.25005 16.7982V16.0352ZM11.5415 17.6667C11.5643 17.6667 11.5834 17.6828 11.5834 17.7019V18.4649C11.5834 18.484 11.5643 18.5 11.5415 18.5H10.7919C10.7692 18.5 10.7501 18.484 10.7501 18.4649V17.7019C10.7501 17.6828 10.7692 17.6667 10.7919 17.6667H11.5415ZM9.91672 17.7019C9.91672 17.6828 9.89761 17.6667 9.87483 17.6667H9.12527C9.10249 17.6667 9.08338 17.6828 9.08338 17.7019V18.4649C9.08338 18.484 9.10249 18.5 9.12527 18.5H9.87483C9.89761 18.5 9.91672 18.484 9.91672 18.4649V17.7019ZM8.20816 17.6667C8.23094 17.6667 8.25005 17.6828 8.25005 17.7019V18.4649C8.25005 18.484 8.23094 18.5 8.20816 18.5H7.4586C7.43582 18.5 7.41672 18.484 7.41672 18.4649V17.7019C7.41672 17.6828 7.43582 17.6667 7.4586 17.6667H8.20816ZM11.5834 19.3686C11.5834 19.3494 11.5643 19.3334 11.5415 19.3334H10.7919C10.7692 19.3334 10.7501 19.3494 10.7501 19.3686V20.1315C10.7501 20.1507 10.7692 20.1667 10.7919 20.1667H11.5415C11.5643 20.1667 11.5834 20.1507 11.5834 20.1315V19.3686ZM9.87483 19.3334C9.89761 19.3334 9.91672 19.3494 9.91672 19.3686V20.1315C9.91672 20.1507 9.89761 20.1667 9.87483 20.1667H9.12527C9.10249 20.1667 9.08338 20.1507 9.08338 20.1315V19.3686C9.08338 19.3494 9.10249 19.3334 9.12527 19.3334H9.87483ZM8.25005 19.3686C8.25005 19.3494 8.23094 19.3334 8.20816 19.3334H7.4586C7.43582 19.3334 7.41672 19.3494 7.41672 19.3686V20.1315C7.41672 20.1507 7.43582 20.1667 7.4586 20.1667H8.20816C8.23094 20.1667 8.25005 20.1507 8.25005 20.1315V19.3686ZM11.5415 21C11.5643 21 11.5834 21.0161 11.5834 21.0352V21.7982C11.5834 21.8173 11.5643 21.8334 11.5415 21.8334H10.7919C10.7692 21.8334 10.7501 21.8173 10.7501 21.7982V21.0352C10.7501 21.0161 10.7692 21 10.7919 21H11.5415ZM9.91672 21.0352C9.91672 21.0161 9.89761 21 9.87483 21H9.12527C9.10249 21 9.08338 21.0161 9.08338 21.0352V21.7982C9.08338 21.8173 9.10249 21.8334 9.12527 21.8334H9.87483C9.89761 21.8334 9.91672 21.8173 9.91672 21.7982V21.0352ZM8.20816 21C8.23094 21 8.25005 21.0161 8.25005 21.0352V21.7982C8.25005 21.8173 8.23094 21.8334 8.20816 21.8334H7.4586C7.43582 21.8334 7.41672 21.8173 7.41672 21.7982V21.0352C7.41672 21.0161 7.43582 21 7.4586 21H8.20816ZM17.4167 15.3689C17.4167 15.2581 17.3611 15.1667 17.2934 15.1667H13.3734C13.3057 15.1667 13.2501 15.2581 13.2501 15.3689V22.4645C13.2501 22.5753 13.3057 22.6667 13.3734 22.6667H17.2934C17.3611 22.6667 17.4167 22.5753 17.4167 22.4645V15.3689ZM14.1253 16H14.8748C14.8976 16 14.9167 16.0161 14.9167 16.0352V16.7982C14.9167 16.8173 14.8976 16.8334 14.8748 16.8334H14.1253C14.1025 16.8334 14.0834 16.8173 14.0834 16.7982V16.0352C14.0834 16.0161 14.1025 16 14.1253 16ZM14.8748 17.6667H14.1253C14.1025 17.6667 14.0834 17.6828 14.0834 17.7019V18.4649C14.0834 18.484 14.1025 18.5 14.1253 18.5H14.8748C14.8976 18.5 14.9167 18.484 14.9167 18.4649V17.7019C14.9167 17.6828 14.8976 17.6667 14.8748 17.6667ZM15.7919 16H16.5415C16.5643 16 16.5834 16.0161 16.5834 16.0352V16.7982C16.5834 16.8173 16.5643 16.8334 16.5415 16.8334H15.7919C15.7692 16.8334 15.75 16.8173 15.75 16.7982V16.0352C15.75 16.0161 15.7692 16 15.7919 16ZM16.5415 17.6667H15.7919C15.7692 17.6667 15.75 17.6828 15.75 17.7019V18.4649C15.75 18.484 15.7692 18.5 15.7919 18.5H16.5415C16.5643 18.5 16.5834 18.484 16.5834 18.4649V17.7019C16.5834 17.6828 16.5643 17.6667 16.5415 17.6667ZM14.1253 19.3334H14.8748C14.8976 19.3334 14.9167 19.3494 14.9167 19.3686V20.1315C14.9167 20.1507 14.8976 20.1667 14.8748 20.1667H14.1253C14.1025 20.1667 14.0834 20.1507 14.0834 20.1315V19.3686C14.0834 19.3494 14.1025 19.3334 14.1253 19.3334ZM16.5415 19.3334H15.7919C15.7692 19.3334 15.75 19.3494 15.75 19.3686V20.1315C15.75 20.1507 15.7692 20.1667 15.7919 20.1667H16.5415C16.5643 20.1667 16.5834 20.1507 16.5834 20.1315V19.3686C16.5834 19.3494 16.5643 19.3334 16.5415 19.3334ZM14.1253 21H14.8748C14.8976 21 14.9167 21.0161 14.9167 21.0352V21.7982C14.9167 21.8173 14.8976 21.8334 14.8748 21.8334H14.1253C14.1025 21.8334 14.0834 21.8173 14.0834 21.7982V21.0352C14.0834 21.0161 14.1025 21 14.1253 21ZM16.5415 21H15.7919C15.7692 21 15.75 21.0161 15.75 21.0352V21.7982C15.75 21.8173 15.7692 21.8334 15.7919 21.8334H16.5415C16.5643 21.8334 16.5834 21.8173 16.5834 21.7982V21.0352C16.5834 21.0161 16.5643 21 16.5415 21Z" fill="white"/>
</mask>
<g mask="url(#mask0_1222_222108)">
<rect x="2" y="6" width="20" height="20" fill="white"/>
</g>
<circle cx="21" cy="7" r="7" fill="#52708A"/>
<path fill-rule="evenodd" clip-rule="evenodd" d="M25 5.58519H22.4146V3H19.5852V5.58519H17V8.41458H19.5852V11H22.4146V8.41458H25V5.58519Z" fill="white"/>
</svg>
