<svg width="24" height="24" viewBox="0 0 24 24" fill="none" xmlns="http://www.w3.org/2000/svg">
<circle cx="12" cy="12" r="12" fill="currentcolor"/>
<path fill-rule="evenodd" clip-rule="evenodd" d="M5.75006 19C5.75006 19.2761 5.97396 19.5 6.25012 19.5L17.7425 19.4986C18.0187 19.4986 18.2425 19.2747 18.2425 18.9986V10.5063C18.2425 10.3774 18.1346 10.271 18.0038 10.271H13.2615V5.56871C13.2615 5.4398 13.1536 5.33337 13.0229 5.33337H5.98869C5.85797 5.33337 5.75006 5.4398 5.75006 5.56871V19ZM12.4167 6.35723C12.4167 6.2528 12.3388 6.16671 12.2441 6.16671H6.75603C6.6613 6.16671 6.58338 6.2528 6.58338 6.35723V18.4762C6.58338 18.5806 6.6613 18.6667 6.75603 18.6667H12.2441C12.3388 18.6667 12.4167 18.5806 12.4167 18.4762V6.35723ZM11.5415 7.00004C11.5643 7.00004 11.5834 7.01609 11.5834 7.03523V7.79819C11.5834 7.81732 11.5643 7.83337 11.5415 7.83337H10.7919C10.7692 7.83337 10.7501 7.81732 10.7501 7.79819V7.03523C10.7501 7.01609 10.7692 7.00004 10.7919 7.00004H11.5415ZM11.5834 8.70189C11.5834 8.68276 11.5643 8.66671 11.5415 8.66671H10.7919C10.7692 8.66671 10.7501 8.68276 10.7501 8.70189V9.46486C10.7501 9.48399 10.7692 9.50004 10.7919 9.50004H11.5415C11.5643 9.50004 11.5834 9.48399 11.5834 9.46486V8.70189ZM9.87483 7.00004C9.89761 7.00004 9.91672 7.01609 9.91672 7.03523V7.79819C9.91672 7.81732 9.89761 7.83337 9.87483 7.83337H9.12527C9.10249 7.83337 9.08338 7.81732 9.08338 7.79819V7.03523C9.08338 7.01609 9.10249 7.00004 9.12527 7.00004H9.87483ZM9.91672 8.70189C9.91672 8.68276 9.89761 8.66671 9.87483 8.66671H9.12527C9.10249 8.66671 9.08338 8.68276 9.08338 8.70189V9.46486C9.08338 9.48399 9.10249 9.50004 9.12527 9.50004H9.87483C9.89761 9.50004 9.91672 9.48399 9.91672 9.46486V8.70189ZM8.20816 7.00004C8.23094 7.00004 8.25005 7.01609 8.25005 7.03523V7.79819C8.25005 7.81732 8.23094 7.83337 8.20816 7.83337H7.4586C7.43582 7.83337 7.41672 7.81732 7.41672 7.79819V7.03523C7.41672 7.01609 7.43582 7.00004 7.4586 7.00004H8.20816ZM8.25005 8.70189C8.25005 8.68276 8.23094 8.66671 8.20816 8.66671H7.4586C7.43582 8.66671 7.41672 8.68276 7.41672 8.70189V9.46486C7.41672 9.48399 7.43582 9.50004 7.4586 9.50004H8.20816C8.23094 9.50004 8.25005 9.48399 8.25005 9.46486V8.70189ZM11.5415 10.3334C11.5643 10.3334 11.5834 10.3494 11.5834 10.3686V11.1315C11.5834 11.1507 11.5643 11.1667 11.5415 11.1667H10.7919C10.7692 11.1667 10.7501 11.1507 10.7501 11.1315V10.3686C10.7501 10.3494 10.7692 10.3334 10.7919 10.3334H11.5415ZM9.91672 10.3686C9.91672 10.3494 9.89761 10.3334 9.87483 10.3334H9.12527C9.10249 10.3334 9.08338 10.3494 9.08338 10.3686V11.1315C9.08338 11.1507 9.10249 11.1667 9.12527 11.1667H9.87483C9.89761 11.1667 9.91672 11.1507 9.91672 11.1315V10.3686ZM8.20816 10.3334C8.23094 10.3334 8.25005 10.3494 8.25005 10.3686V11.1315C8.25005 11.1507 8.23094 11.1667 8.20816 11.1667H7.4586C7.43582 11.1667 7.41672 11.1507 7.41672 11.1315V10.3686C7.41672 10.3494 7.43582 10.3334 7.4586 10.3334H8.20816ZM11.5834 12.0352C11.5834 12.0161 11.5643 12 11.5415 12H10.7919C10.7692 12 10.7501 12.0161 10.7501 12.0352V12.7982C10.7501 12.8173 10.7692 12.8334 10.7919 12.8334H11.5415C11.5643 12.8334 11.5834 12.8173 11.5834 12.7982V12.0352ZM9.87483 12C9.89761 12 9.91672 12.0161 9.91672 12.0352V12.7982C9.91672 12.8173 9.89761 12.8334 9.87483 12.8334H9.12527C9.10249 12.8334 9.08338 12.8173 9.08338 12.7982V12.0352C9.08338 12.0161 9.10249 12 9.12527 12H9.87483ZM8.25005 12.0352C8.25005 12.0161 8.23094 12 8.20816 12H7.4586C7.43582 12 7.41672 12.0161 7.41672 12.0352V12.7982C7.41672 12.8173 7.43582 12.8334 7.4586 12.8334H8.20816C8.23094 12.8334 8.25005 12.8173 8.25005 12.7982V12.0352ZM11.5415 13.6667C11.5643 13.6667 11.5834 13.6828 11.5834 13.7019V14.4649C11.5834 14.484 11.5643 14.5 11.5415 14.5H10.7919C10.7692 14.5 10.7501 14.484 10.7501 14.4649V13.7019C10.7501 13.6828 10.7692 13.6667 10.7919 13.6667H11.5415ZM9.91672 13.7019C9.91672 13.6828 9.89761 13.6667 9.87483 13.6667H9.12527C9.10249 13.6667 9.08338 13.6828 9.08338 13.7019V14.4649C9.08338 14.484 9.10249 14.5 9.12527 14.5H9.87483C9.89761 14.5 9.91672 14.484 9.91672 14.4649V13.7019ZM8.20816 13.6667C8.23094 13.6667 8.25005 13.6828 8.25005 13.7019V14.4649C8.25005 14.484 8.23094 14.5 8.20816 14.5H7.4586C7.43582 14.5 7.41672 14.484 7.41672 14.4649V13.7019C7.41672 13.6828 7.43582 13.6667 7.4586 13.6667H8.20816ZM11.5834 15.3686C11.5834 15.3494 11.5643 15.3334 11.5415 15.3334H10.7919C10.7692 15.3334 10.7501 15.3494 10.7501 15.3686V16.1315C10.7501 16.1507 10.7692 16.1667 10.7919 16.1667H11.5415C11.5643 16.1667 11.5834 16.1507 11.5834 16.1315V15.3686ZM9.87483 15.3334C9.89761 15.3334 9.91672 15.3494 9.91672 15.3686V16.1315C9.91672 16.1507 9.89761 16.1667 9.87483 16.1667H9.12527C9.10249 16.1667 9.08338 16.1507 9.08338 16.1315V15.3686C9.08338 15.3494 9.10249 15.3334 9.12527 15.3334H9.87483ZM8.25005 15.3686C8.25005 15.3494 8.23094 15.3334 8.20816 15.3334H7.4586C7.43582 15.3334 7.41672 15.3494 7.41672 15.3686V16.1315C7.41672 16.1507 7.43582 16.1667 7.4586 16.1667H8.20816C8.23094 16.1667 8.25005 16.1507 8.25005 16.1315V15.3686ZM11.5415 17C11.5643 17 11.5834 17.0161 11.5834 17.0352V17.7982C11.5834 17.8173 11.5643 17.8334 11.5415 17.8334H10.7919C10.7692 17.8334 10.7501 17.8173 10.7501 17.7982V17.0352C10.7501 17.0161 10.7692 17 10.7919 17H11.5415ZM9.91672 17.0352C9.91672 17.0161 9.89761 17 9.87483 17H9.12527C9.10249 17 9.08338 17.0161 9.08338 17.0352V17.7982C9.08338 17.8173 9.10249 17.8334 9.12527 17.8334H9.87483C9.89761 17.8334 9.91672 17.8173 9.91672 17.7982V17.0352ZM8.20816 17C8.23094 17 8.25005 17.0161 8.25005 17.0352V17.7982C8.25005 17.8173 8.23094 17.8334 8.20816 17.8334H7.4586C7.43582 17.8334 7.41672 17.8173 7.41672 17.7982V17.0352C7.41672 17.0161 7.43582 17 7.4586 17H8.20816ZM17.4167 11.3689C17.4167 11.2581 17.3611 11.1667 17.2934 11.1667H13.3734C13.3057 11.1667 13.2501 11.2581 13.2501 11.3689V18.4645C13.2501 18.5753 13.3057 18.6667 13.3734 18.6667H17.2934C17.3611 18.6667 17.4167 18.5753 17.4167 18.4645V11.3689ZM14.1253 12H14.8748C14.8976 12 14.9167 12.0161 14.9167 12.0352V12.7982C14.9167 12.8173 14.8976 12.8334 14.8748 12.8334H14.1253C14.1025 12.8334 14.0834 12.8173 14.0834 12.7982V12.0352C14.0834 12.0161 14.1025 12 14.1253 12ZM14.8748 13.6667H14.1253C14.1025 13.6667 14.0834 13.6828 14.0834 13.7019V14.4649C14.0834 14.484 14.1025 14.5 14.1253 14.5H14.8748C14.8976 14.5 14.9167 14.484 14.9167 14.4649V13.7019C14.9167 13.6828 14.8976 13.6667 14.8748 13.6667ZM15.7919 12H16.5415C16.5643 12 16.5834 12.0161 16.5834 12.0352V12.7982C16.5834 12.8173 16.5643 12.8334 16.5415 12.8334H15.7919C15.7692 12.8334 15.75 12.8173 15.75 12.7982V12.0352C15.75 12.0161 15.7692 12 15.7919 12ZM16.5415 13.6667H15.7919C15.7692 13.6667 15.75 13.6828 15.75 13.7019V14.4649C15.75 14.484 15.7692 14.5 15.7919 14.5H16.5415C16.5643 14.5 16.5834 14.484 16.5834 14.4649V13.7019C16.5834 13.6828 16.5643 13.6667 16.5415 13.6667ZM14.1253 15.3334H14.8748C14.8976 15.3334 14.9167 15.3494 14.9167 15.3686V16.1315C14.9167 16.1507 14.8976 16.1667 14.8748 16.1667H14.1253C14.1025 16.1667 14.0834 16.1507 14.0834 16.1315V15.3686C14.0834 15.3494 14.1025 15.3334 14.1253 15.3334ZM16.5415 15.3334H15.7919C15.7692 15.3334 15.75 15.3494 15.75 15.3686V16.1315C15.75 16.1507 15.7692 16.1667 15.7919 16.1667H16.5415C16.5643 16.1667 16.5834 16.1507 16.5834 16.1315V15.3686C16.5834 15.3494 16.5643 15.3334 16.5415 15.3334ZM14.1253 17H14.8748C14.8976 17 14.9167 17.0161 14.9167 17.0352V17.7982C14.9167 17.8173 14.8976 17.8334 14.8748 17.8334H14.1253C14.1025 17.8334 14.0834 17.8173 14.0834 17.7982V17.0352C14.0834 17.0161 14.1025 17 14.1253 17ZM16.5415 17H15.7919C15.7692 17 15.75 17.0161 15.75 17.0352V17.7982C15.75 17.8173 15.7692 17.8334 15.7919 17.8334H16.5415C16.5643 17.8334 16.5834 17.8173 16.5834 17.7982V17.0352C16.5834 17.0161 16.5643 17 16.5415 17Z" fill="currentcolor"/>
<mask id="mask0_1222_222100" style="mask-type:luminance" maskUnits="userSpaceOnUse" x="5" y="5" width="14" height="15">
<path fill-rule="evenodd" clip-rule="evenodd" d="M5.75006 19C5.75006 19.2761 5.97396 19.5 6.25012 19.5L17.7425 19.4986C18.0187 19.4986 18.2425 19.2747 18.2425 18.9986V10.5063C18.2425 10.3774 18.1346 10.271 18.0038 10.271H13.2615V5.56871C13.2615 5.4398 13.1536 5.33337 13.0229 5.33337H5.98869C5.85797 5.33337 5.75006 5.4398 5.75006 5.56871V19ZM12.4167 6.35723C12.4167 6.2528 12.3388 6.16671 12.2441 6.16671H6.75603C6.6613 6.16671 6.58338 6.2528 6.58338 6.35723V18.4762C6.58338 18.5806 6.6613 18.6667 6.75603 18.6667H12.2441C12.3388 18.6667 12.4167 18.5806 12.4167 18.4762V6.35723ZM11.5415 7.00004C11.5643 7.00004 11.5834 7.01609 11.5834 7.03523V7.79819C11.5834 7.81732 11.5643 7.83337 11.5415 7.83337H10.7919C10.7692 7.83337 10.7501 7.81732 10.7501 7.79819V7.03523C10.7501 7.01609 10.7692 7.00004 10.7919 7.00004H11.5415ZM11.5834 8.70189C11.5834 8.68276 11.5643 8.66671 11.5415 8.66671H10.7919C10.7692 8.66671 10.7501 8.68276 10.7501 8.70189V9.46486C10.7501 9.48399 10.7692 9.50004 10.7919 9.50004H11.5415C11.5643 9.50004 11.5834 9.48399 11.5834 9.46486V8.70189ZM9.87483 7.00004C9.89761 7.00004 9.91672 7.01609 9.91672 7.03523V7.79819C9.91672 7.81732 9.89761 7.83337 9.87483 7.83337H9.12527C9.10249 7.83337 9.08338 7.81732 9.08338 7.79819V7.03523C9.08338 7.01609 9.10249 7.00004 9.12527 7.00004H9.87483ZM9.91672 8.70189C9.91672 8.68276 9.89761 8.66671 9.87483 8.66671H9.12527C9.10249 8.66671 9.08338 8.68276 9.08338 8.70189V9.46486C9.08338 9.48399 9.10249 9.50004 9.12527 9.50004H9.87483C9.89761 9.50004 9.91672 9.48399 9.91672 9.46486V8.70189ZM8.20816 7.00004C8.23094 7.00004 8.25005 7.01609 8.25005 7.03523V7.79819C8.25005 7.81732 8.23094 7.83337 8.20816 7.83337H7.4586C7.43582 7.83337 7.41672 7.81732 7.41672 7.79819V7.03523C7.41672 7.01609 7.43582 7.00004 7.4586 7.00004H8.20816ZM8.25005 8.70189C8.25005 8.68276 8.23094 8.66671 8.20816 8.66671H7.4586C7.43582 8.66671 7.41672 8.68276 7.41672 8.70189V9.46486C7.41672 9.48399 7.43582 9.50004 7.4586 9.50004H8.20816C8.23094 9.50004 8.25005 9.48399 8.25005 9.46486V8.70189ZM11.5415 10.3334C11.5643 10.3334 11.5834 10.3494 11.5834 10.3686V11.1315C11.5834 11.1507 11.5643 11.1667 11.5415 11.1667H10.7919C10.7692 11.1667 10.7501 11.1507 10.7501 11.1315V10.3686C10.7501 10.3494 10.7692 10.3334 10.7919 10.3334H11.5415ZM9.91672 10.3686C9.91672 10.3494 9.89761 10.3334 9.87483 10.3334H9.12527C9.10249 10.3334 9.08338 10.3494 9.08338 10.3686V11.1315C9.08338 11.1507 9.10249 11.1667 9.12527 11.1667H9.87483C9.89761 11.1667 9.91672 11.1507 9.91672 11.1315V10.3686ZM8.20816 10.3334C8.23094 10.3334 8.25005 10.3494 8.25005 10.3686V11.1315C8.25005 11.1507 8.23094 11.1667 8.20816 11.1667H7.4586C7.43582 11.1667 7.41672 11.1507 7.41672 11.1315V10.3686C7.41672 10.3494 7.43582 10.3334 7.4586 10.3334H8.20816ZM11.5834 12.0352C11.5834 12.0161 11.5643 12 11.5415 12H10.7919C10.7692 12 10.7501 12.0161 10.7501 12.0352V12.7982C10.7501 12.8173 10.7692 12.8334 10.7919 12.8334H11.5415C11.5643 12.8334 11.5834 12.8173 11.5834 12.7982V12.0352ZM9.87483 12C9.89761 12 9.91672 12.0161 9.91672 12.0352V12.7982C9.91672 12.8173 9.89761 12.8334 9.87483 12.8334H9.12527C9.10249 12.8334 9.08338 12.8173 9.08338 12.7982V12.0352C9.08338 12.0161 9.10249 12 9.12527 12H9.87483ZM8.25005 12.0352C8.25005 12.0161 8.23094 12 8.20816 12H7.4586C7.43582 12 7.41672 12.0161 7.41672 12.0352V12.7982C7.41672 12.8173 7.43582 12.8334 7.4586 12.8334H8.20816C8.23094 12.8334 8.25005 12.8173 8.25005 12.7982V12.0352ZM11.5415 13.6667C11.5643 13.6667 11.5834 13.6828 11.5834 13.7019V14.4649C11.5834 14.484 11.5643 14.5 11.5415 14.5H10.7919C10.7692 14.5 10.7501 14.484 10.7501 14.4649V13.7019C10.7501 13.6828 10.7692 13.6667 10.7919 13.6667H11.5415ZM9.91672 13.7019C9.91672 13.6828 9.89761 13.6667 9.87483 13.6667H9.12527C9.10249 13.6667 9.08338 13.6828 9.08338 13.7019V14.4649C9.08338 14.484 9.10249 14.5 9.12527 14.5H9.87483C9.89761 14.5 9.91672 14.484 9.91672 14.4649V13.7019ZM8.20816 13.6667C8.23094 13.6667 8.25005 13.6828 8.25005 13.7019V14.4649C8.25005 14.484 8.23094 14.5 8.20816 14.5H7.4586C7.43582 14.5 7.41672 14.484 7.41672 14.4649V13.7019C7.41672 13.6828 7.43582 13.6667 7.4586 13.6667H8.20816ZM11.5834 15.3686C11.5834 15.3494 11.5643 15.3334 11.5415 15.3334H10.7919C10.7692 15.3334 10.7501 15.3494 10.7501 15.3686V16.1315C10.7501 16.1507 10.7692 16.1667 10.7919 16.1667H11.5415C11.5643 16.1667 11.5834 16.1507 11.5834 16.1315V15.3686ZM9.87483 15.3334C9.89761 15.3334 9.91672 15.3494 9.91672 15.3686V16.1315C9.91672 16.1507 9.89761 16.1667 9.87483 16.1667H9.12527C9.10249 16.1667 9.08338 16.1507 9.08338 16.1315V15.3686C9.08338 15.3494 9.10249 15.3334 9.12527 15.3334H9.87483ZM8.25005 15.3686C8.25005 15.3494 8.23094 15.3334 8.20816 15.3334H7.4586C7.43582 15.3334 7.41672 15.3494 7.41672 15.3686V16.1315C7.41672 16.1507 7.43582 16.1667 7.4586 16.1667H8.20816C8.23094 16.1667 8.25005 16.1507 8.25005 16.1315V15.3686ZM11.5415 17C11.5643 17 11.5834 17.0161 11.5834 17.0352V17.7982C11.5834 17.8173 11.5643 17.8334 11.5415 17.8334H10.7919C10.7692 17.8334 10.7501 17.8173 10.7501 17.7982V17.0352C10.7501 17.0161 10.7692 17 10.7919 17H11.5415ZM9.91672 17.0352C9.91672 17.0161 9.89761 17 9.87483 17H9.12527C9.10249 17 9.08338 17.0161 9.08338 17.0352V17.7982C9.08338 17.8173 9.10249 17.8334 9.12527 17.8334H9.87483C9.89761 17.8334 9.91672 17.8173 9.91672 17.7982V17.0352ZM8.20816 17C8.23094 17 8.25005 17.0161 8.25005 17.0352V17.7982C8.25005 17.8173 8.23094 17.8334 8.20816 17.8334H7.4586C7.43582 17.8334 7.41672 17.8173 7.41672 17.7982V17.0352C7.41672 17.0161 7.43582 17 7.4586 17H8.20816ZM17.4167 11.3689C17.4167 11.2581 17.3611 11.1667 17.2934 11.1667H13.3734C13.3057 11.1667 13.2501 11.2581 13.2501 11.3689V18.4645C13.2501 18.5753 13.3057 18.6667 13.3734 18.6667H17.2934C17.3611 18.6667 17.4167 18.5753 17.4167 18.4645V11.3689ZM14.1253 12H14.8748C14.8976 12 14.9167 12.0161 14.9167 12.0352V12.7982C14.9167 12.8173 14.8976 12.8334 14.8748 12.8334H14.1253C14.1025 12.8334 14.0834 12.8173 14.0834 12.7982V12.0352C14.0834 12.0161 14.1025 12 14.1253 12ZM14.8748 13.6667H14.1253C14.1025 13.6667 14.0834 13.6828 14.0834 13.7019V14.4649C14.0834 14.484 14.1025 14.5 14.1253 14.5H14.8748C14.8976 14.5 14.9167 14.484 14.9167 14.4649V13.7019C14.9167 13.6828 14.8976 13.6667 14.8748 13.6667ZM15.7919 12H16.5415C16.5643 12 16.5834 12.0161 16.5834 12.0352V12.7982C16.5834 12.8173 16.5643 12.8334 16.5415 12.8334H15.7919C15.7692 12.8334 15.75 12.8173 15.75 12.7982V12.0352C15.75 12.0161 15.7692 12 15.7919 12ZM16.5415 13.6667H15.7919C15.7692 13.6667 15.75 13.6828 15.75 13.7019V14.4649C15.75 14.484 15.7692 14.5 15.7919 14.5H16.5415C16.5643 14.5 16.5834 14.484 16.5834 14.4649V13.7019C16.5834 13.6828 16.5643 13.6667 16.5415 13.6667ZM14.1253 15.3334H14.8748C14.8976 15.3334 14.9167 15.3494 14.9167 15.3686V16.1315C14.9167 16.1507 14.8976 16.1667 14.8748 16.1667H14.1253C14.1025 16.1667 14.0834 16.1507 14.0834 16.1315V15.3686C14.0834 15.3494 14.1025 15.3334 14.1253 15.3334ZM16.5415 15.3334H15.7919C15.7692 15.3334 15.75 15.3494 15.75 15.3686V16.1315C15.75 16.1507 15.7692 16.1667 15.7919 16.1667H16.5415C16.5643 16.1667 16.5834 16.1507 16.5834 16.1315V15.3686C16.5834 15.3494 16.5643 15.3334 16.5415 15.3334ZM14.1253 17H14.8748C14.8976 17 14.9167 17.0161 14.9167 17.0352V17.7982C14.9167 17.8173 14.8976 17.8334 14.8748 17.8334H14.1253C14.1025 17.8334 14.0834 17.8173 14.0834 17.7982V17.0352C14.0834 17.0161 14.1025 17 14.1253 17ZM16.5415 17H15.7919C15.7692 17 15.75 17.0161 15.75 17.0352V17.7982C15.75 17.8173 15.7692 17.8334 15.7919 17.8334H16.5415C16.5643 17.8334 16.5834 17.8173 16.5834 17.7982V17.0352C16.5834 17.0161 16.5643 17 16.5415 17Z" fill="white"/>
</mask>
<g mask="url(#mask0_1222_222100)">
<rect x="2" y="2" width="20" height="20" fill="white"/>
</g>
</svg>
