<svg width="24" height="24" viewBox="0 0 24 24" fill="none" xmlns="http://www.w3.org/2000/svg">
<circle cx="12" cy="12" r="12" fill="currentcolor"/>
<mask id="mask0_1222_222119" style="mask-type:luminance" maskUnits="userSpaceOnUse" x="3" y="6" width="18" height="13">
<path fill-rule="evenodd" clip-rule="evenodd" d="M17.2041 16.048C15.9991 16.9613 14.4041 17.2547 12.9208 17.2313C13.135 17.0172 13.915 16.968 14.2033 16.848C14.8225 16.5913 15.3908 16.2188 15.8725 15.753C17.0533 14.6122 17.6475 13.0413 17.6633 11.4147C17.95 11.4397 19.1316 11.5005 19.3283 11.7497C19.525 11.9997 19.2249 12.8047 19.1116 13.1547C18.7508 14.2663 18.1491 15.3313 17.2041 16.048ZM12.53 16.4147C12.0866 16.8605 12.1133 17.2072 11.6133 16.673C10.8758 15.8863 10.2408 14.9872 9.84578 13.9788C8.84578 11.4255 10.1883 8.93552 11.9716 7.10635C13.1366 8.27135 14.2125 9.75135 14.4191 11.4322C14.6466 13.2822 13.6775 15.0388 12.53 16.4147ZM6.72995 16.048C5.78828 15.3338 5.17828 14.2655 4.82245 13.1547C4.74995 12.9264 4.36745 11.9655 4.50495 11.7814C4.69162 11.5297 5.83078 11.4563 6.10495 11.423C6.11995 13.0322 6.70162 14.5922 7.88078 15.713C8.33995 16.1497 8.87578 16.4997 9.45495 16.7547C9.65495 16.843 10.895 17.0622 10.9791 17.2313C9.50578 17.2538 7.92328 16.9639 6.72995 16.048ZM6.95412 10.9647C7.00828 10.008 7.23578 9.06385 7.56328 8.16468C7.88662 8.27468 9.38078 8.73385 9.47162 9.07302C9.51995 9.25718 8.99412 10.1305 8.92078 10.3747C8.82078 10.7005 8.74495 11.0322 8.69745 11.3697C8.45912 13.073 9.07495 14.713 10.0541 16.0897C7.91328 15.303 6.81662 13.1713 6.95412 10.9647ZM16.205 8.16468C17.2808 10.9822 17.05 14.843 13.8208 16.1063C14.7258 14.8205 15.3691 13.278 15.2791 11.6813C15.2408 10.978 15.0533 10.2847 14.7766 9.63885C14.7475 9.57052 14.5 9.17718 14.5116 9.08718C14.5383 8.87302 14.7 8.83718 14.9725 8.69635C15.3708 8.49302 15.7825 8.31135 16.205 8.16468ZM20.0375 11.1063C19.3691 10.9055 18.7291 10.6972 18.03 10.608C17.5833 10.5505 17.7583 10.6413 17.5866 10.2563C17.4991 10.0597 17.5083 9.74635 17.4641 9.52968C17.3691 9.06885 17.2458 8.61385 17.0916 8.16885C16.8866 7.57385 16.8033 7.16052 16.0941 7.32218C15.7525 7.40052 15.4091 7.57385 15.09 7.71635C14.8958 7.80302 14.7058 7.89468 14.5166 7.99218C14.3491 8.07885 14.1841 8.16968 14.0216 8.26468L13.8483 8.01052C13.2533 7.55635 12.97 6.58135 12.2533 6.23385C11.68 5.95635 11.28 6.60218 10.9233 7.00218C10.6425 7.31635 10.3975 7.83385 10.0708 8.08552C10.0125 8.17302 9.95495 8.26052 9.89578 8.34802C9.72412 8.24468 9.54995 8.14635 9.37412 8.05218C9.17329 7.94635 8.97079 7.84802 8.76495 7.75385C8.27578 7.53052 7.38578 6.97552 6.94578 7.47302C6.55995 7.91052 6.41412 8.99885 6.30328 9.54135C6.25912 9.75885 6.26912 10.0747 6.18078 10.2713C6.00578 10.6613 6.16078 10.568 5.70245 10.6372C5.23412 10.708 4.76995 10.8163 4.31828 10.9605C3.62245 11.1822 3.60828 11.4955 3.71495 12.1422C3.85328 12.9663 4.10245 13.7805 4.47412 14.5314C5.34495 16.2938 6.87912 17.4322 8.79078 17.8513C10.1541 18.1497 11.5875 18.0447 12.9733 18.063C15.0866 18.0913 17.29 17.4813 18.6658 15.7847C19.2758 15.033 19.6975 14.1388 19.9708 13.2147C20.0791 12.8505 20.6258 11.3538 20.0375 11.1063Z" fill="white"/>
</mask>
<g mask="url(#mask0_1222_222119)">
<rect x="2" y="2" width="20" height="20" fill="white"/>
</g>
</svg>
