<svg width="24" height="24" viewBox="0 0 24 24" fill="none" xmlns="http://www.w3.org/2000/svg">
<path fill-rule="evenodd" clip-rule="evenodd" d="M20.3329 3C20.5085 3 20.6769 3.06348 20.7918 3.1812C20.8966 3.27984 20.967 3.40646 20.9909 3.54694C20.9969 3.58206 21 3.61805 21 3.65468V7.3586C21 7.55439 20.9108 7.7332 20.7737 7.84017C20.6739 7.92541 20.5546 7.97656 20.4285 7.99361C20.397 7.99787 20.3651 8 20.3329 8H20V19.3575C20 19.4509 19.9795 19.5398 19.9397 19.6246L19.8935 19.7081L19.8345 19.789C19.7379 19.8976 19.6125 19.9675 19.4746 19.9911L19.3691 20H4.63072C4.45193 20 4.28621 19.9247 4.15055 19.7714C4.07555 19.6789 4.0242 19.568 4.00666 19.4486L4 19.3575V8H3.66712C3.57056 8 3.4761 7.98082 3.39249 7.9453C3.33675 7.92162 3.28584 7.89068 3.24235 7.85333C3.11471 7.75323 3.03151 7.61247 3.00732 7.45494C3.00248 7.42343 3 7.39125 3 7.3586V3.65481C3 3.47165 3.07723 3.30463 3.19383 3.19545C3.29721 3.08998 3.42566 3.02826 3.56285 3.00779C3.59657 3.00276 3.63082 3.00022 3.66535 3.00013L3.66712 3H20.3329ZM5 8V19H19V8H5ZM19.3691 7H20V4H4V7H4.63072H19.3691ZM15.57 10.5816C15.2876 10.199 14.9296 10 14.5252 10H9.47475L9.32535 10.0093C8.98209 10.0526 8.67708 10.2469 8.42973 10.582C8.14607 10.9656 8 11.4441 8 11.9852L8.00873 12.2028L8.03795 12.4339C8.10022 12.8072 8.23007 13.1225 8.42439 13.3939C8.70737 13.7897 9.06788 14 9.47475 14H14.5252L14.6755 13.9902C15.0208 13.9445 15.3278 13.7402 15.5757 13.3938C15.8557 13.0027 16 12.5233 16 11.9852L15.9913 11.7677L15.967 11.5681C15.9062 11.1797 15.7728 10.8558 15.57 10.5816ZM14.5245 11H9.47548C9.33855 11 9.23751 11.0843 9.14295 11.2765C9.06886 11.4268 9.02598 11.5841 9.00881 11.7501L9 11.919L9.00514 12.1259C9.01837 12.3456 9.06272 12.53 9.14879 12.7104C9.22588 12.8721 9.30521 12.9604 9.40066 12.9893L9.47548 13H14.5245C14.6549 13 14.7548 12.9125 14.8514 12.7099C14.9284 12.5486 14.973 12.3819 14.9909 12.21L15 12.0365L14.9949 11.8304C14.982 11.6172 14.9396 11.444 14.8568 11.2759C14.7625 11.0843 14.6614 11 14.5245 11Z" fill="currentcolor"/>
<path fill-rule="evenodd" clip-rule="evenodd" d="M3.64848 2.5H20.3329C20.6198 2.5 20.9205 2.60194 21.142 2.82426C21.3175 2.99237 21.4412 3.2129 21.4838 3.46289C21.4945 3.52577 21.5 3.58988 21.5 3.65468V7.3586C21.5 7.6982 21.3482 8.02144 21.0902 8.22737C20.9173 8.37226 20.7124 8.45895 20.5 8.48849V19.3575C20.5 19.5268 20.4623 19.688 20.3923 19.8372L20.3852 19.8523L20.3158 19.9776L20.2243 20.1032L20.2081 20.1213C20.038 20.3125 19.8116 20.4407 19.559 20.4839L19.538 20.4875L19.3902 20.5H4.63072C4.29677 20.5 3.99847 20.354 3.77615 20.1028L3.76894 20.0947L3.76209 20.0862C3.63484 19.9292 3.54349 19.7359 3.51196 19.5212L3.50932 19.5032L3.5 19.3758V8.48858C3.39564 8.47424 3.29339 8.44645 3.19699 8.4055C3.10168 8.36501 3.00903 8.31032 2.92532 8.24006C2.70475 8.06373 2.55649 7.8133 2.51311 7.53083C2.5044 7.47412 2.5 7.41657 2.5 7.3586V3.65481C2.5 3.33779 2.63087 3.04188 2.84412 2.83801C3.0259 2.65582 3.25242 2.54857 3.48906 2.51326C3.54058 2.50557 3.59225 2.50133 3.64376 2.50035L3.64848 2.5ZM4.5 4.5V6.5H19.5V4.5H4.5ZM5.5 8.5V18.5H18.5V8.5H5.5ZM9.45921 9.5H14.5252C15.1172 9.5 15.6142 9.79957 15.9723 10.2846C16.2273 10.6297 16.389 11.0307 16.461 11.4908L16.4623 11.4992L16.49 11.7274L16.5 11.9751V11.9852C16.5 12.6146 16.3302 13.1988 15.9823 13.6847C15.674 14.1156 15.2543 14.418 14.7411 14.4859L14.7246 14.4881L14.5415 14.5H9.47475C8.87115 14.5 8.37187 14.1801 8.01765 13.6847C7.77563 13.3465 7.61858 12.9587 7.54477 12.5162L7.54314 12.5064L7.50999 12.2443L7.5 11.9952V11.9852C7.5 11.3526 7.67177 10.766 8.02769 10.2847C8.33906 9.86303 8.75766 9.57699 9.26274 9.51324L9.27847 9.51125L9.45921 9.5ZM8.69445 11.0555C8.6945 11.0554 8.6944 11.0555 8.69445 11.0555L8.71384 11.065C8.71379 11.0651 8.71388 11.0649 8.71384 11.065L8.69445 11.0555ZM8.50039 11.941L8.49968 11.9122L8.51015 11.7113L8.51146 11.6987C8.53423 11.4786 8.59221 11.263 8.69445 11.0555M8.50039 11.941C8.50045 11.9378 8.50009 11.9346 8.50015 11.9315C8.50043 11.9186 8.50124 11.9058 8.50172 11.8931C8.50388 11.8354 8.50809 11.7792 8.51428 11.7243C8.51523 11.7159 8.51622 11.7076 8.51726 11.6993C8.54696 11.4611 8.61445 11.2491 8.71384 11.065C8.74918 10.9996 8.78857 10.9376 8.83176 10.8792C9.01054 10.637 9.19718 10.5334 9.3745 10.5072M8.50039 11.941C8.50019 11.9525 8.50006 11.964 8.50002 11.9756L8.4996 11.9651L8 11.9852H8.5C8.5 11.982 8.50001 11.9788 8.50002 11.9756L8.50326 12.0563L8.50548 12.1456L8.50478 12.1401L8.00873 12.2028L8.5078 12.1828C8.51186 12.2405 8.51777 12.297 8.5257 12.3525L8.03795 12.4339L8.52855 12.3719C8.55772 12.564 8.61153 12.7454 8.69742 12.9254M9.42817 13.4983C9.39956 13.4963 9.37076 13.4922 9.34183 13.486L9.42817 13.4983ZM8.5327 12.3609L8.50747 12.1614L8.50326 12.0563L8.50039 11.941M15.2858 11.0648C15.3729 11.2272 15.4361 11.415 15.4717 11.6373L15.4925 11.808L15.4977 11.9384L15.4998 12.0203C15.4997 12.0216 15.4997 12.0228 15.4997 12.0241C15.4995 12.0371 15.4992 12.05 15.4988 12.0628C15.4983 12.0769 15.4978 12.091 15.4971 12.105L15.5003 12.0435L15.4998 12.0203C15.4999 12.0118 15.4999 12.0033 15.5 11.9947L15.5004 12.0052L16 11.9852H15.5C15.5 11.9883 15.5 11.9915 15.5 11.9947L15.4977 11.9384L15.495 11.8281L15.9913 11.7677L15.4932 11.7877C15.49 11.739 15.4855 11.6913 15.4796 11.6443L15.967 11.5681L15.4774 11.6276M9.59021 11.5C9.54668 11.5891 9.51954 11.684 9.5074 11.7901L9.50032 11.9259L9.50475 12.1041C9.51519 12.2643 9.54625 12.3823 9.60006 12.495C9.60082 12.4966 9.60169 12.4985 9.60243 12.5H14.3976C14.3984 12.4983 14.3993 12.4965 14.4001 12.4947C14.4494 12.3913 14.4792 12.284 14.4923 12.1699L14.4997 12.0295L14.4953 11.8523C14.4853 11.7003 14.4569 11.5965 14.4098 11.5H9.59021Z" fill="currentcolor"/>
</svg>
