<svg width="24" height="24" viewBox="0 0 24 24" fill="none" xmlns="http://www.w3.org/2000/svg">
<path fill-rule="evenodd" clip-rule="evenodd" d="M20.3329 3C20.5085 3 20.6769 3.06348 20.7918 3.1812C20.8966 3.27984 20.967 3.40646 20.9909 3.54694C20.9969 3.58206 21 3.61805 21 3.65468V7.3586C21 7.55439 20.9108 7.7332 20.7737 7.84017C20.6739 7.92541 20.5546 7.97656 20.4285 7.99361C20.397 7.99787 20.3651 8 20.3329 8H20V19.3575C20 19.4509 19.9795 19.5398 19.9397 19.6246L19.8935 19.7081L19.8345 19.789C19.7379 19.8976 19.6125 19.9675 19.4746 19.9911L19.3691 20H4.63072C4.45193 20 4.28621 19.9247 4.15055 19.7714C4.07555 19.6789 4.0242 19.568 4.00666 19.4486L4 19.3575V8H3.66712C3.57056 8 3.4761 7.98082 3.39249 7.9453C3.33675 7.92162 3.28584 7.89068 3.24235 7.85333C3.11471 7.75323 3.03151 7.61247 3.00732 7.45494C3.00248 7.42343 3 7.39125 3 7.3586V3.65481C3 3.47165 3.07723 3.30463 3.19383 3.19545C3.29721 3.08998 3.42566 3.02826 3.56285 3.00779C3.59657 3.00276 3.63082 3.00022 3.66535 3.00013L3.66712 3H20.3329ZM5 8V19H19V8H5ZM19.3691 7H20V4H4V7H4.63072H19.3691ZM15.57 10.4362C15.2876 10.1493 14.9296 10 14.5252 10H9.47475L9.32535 10.007C8.98209 10.0395 8.67708 10.1852 8.42973 10.4365C8.14607 10.7242 8 11.0831 8 11.4889L8.00873 11.6521L8.03795 11.8254C8.10022 12.1054 8.23007 12.3418 8.42439 12.5454C8.70737 12.8423 9.06788 13 9.47475 13H14.5252L14.6755 12.9926C15.0208 12.9584 15.3278 12.8052 15.5757 12.5453C15.8557 12.252 16 11.8925 16 11.4889L15.9913 11.3258L15.967 11.1761C15.9062 10.8848 15.7728 10.6418 15.57 10.4362ZM14.5252 11H9.47475C9.33778 11 9.23671 11.0421 9.14213 11.1382C9.06802 11.2134 9.02513 11.2921 9.00795 11.3751L8.99914 11.4595L9.00428 11.563C9.01752 11.6728 9.06188 11.765 9.14797 11.8552C9.22508 11.9361 9.30444 11.9802 9.39991 11.9946L9.47475 12H14.5252C14.6556 12 14.7556 11.9563 14.8523 11.8549C14.9292 11.7743 14.9739 11.6909 14.9917 11.605L15.0009 11.5183L14.9957 11.4152C14.9829 11.3086 14.9405 11.222 14.8576 11.1379C14.7633 11.0421 14.6622 11 14.5252 11Z" fill="currentcolor"/>
</svg>
