<svg width="24" height="24" viewBox="0 0 24 24" fill="none" xmlns="http://www.w3.org/2000/svg">
<path d="M3.00015 1.58578L9.00015 7.58579V4H11.0002V11H4.00015V9H7.58594L1.58594 3L3.00015 1.58578Z" fill="currentcolor"/>
<path d="M22.4144 3L16.4144 9L20.0002 9V11L13.0002 11V4H15.0002V7.58578L21.0002 1.58578L22.4144 3Z" fill="currentcolor"/>
<path d="M4.00015 13H11.0002V20H9.00015V16.4142L3.00015 22.4142L1.58594 21L7.58594 15H4.00015V13Z" fill="currentcolor"/>
<path d="M13.0002 13H20.0002V15H16.4144L22.4144 21L21.0002 22.4142L15.0002 16.4142V20H13.0002V13Z" fill="currentcolor"/>
</svg>
