<svg width="24" height="24" viewBox="0 0 24 24" fill="none" xmlns="http://www.w3.org/2000/svg">
<path fill-rule="evenodd" clip-rule="evenodd" d="M5.67054 12.5L11.817 18.6464C12.0122 18.8417 12.0122 19.1583 11.817 19.3536C11.6217 19.5488 11.3051 19.5488 11.1099 19.3536L4.37323 12.6169L4.36863 12.6123C4.19587 12.4396 4 12.2437 4 12C4 11.7563 4.19586 11.5604 4.36862 11.3877L4.37322 11.3831L11.1099 4.64645C11.3051 4.45118 11.6217 4.45118 11.817 4.64645C12.0122 4.84171 12.0122 5.15829 11.817 5.35355L5.67054 11.5H19.4468C19.7321 11.5 19.9634 11.7239 19.9634 12C19.9634 12.2761 19.7321 12.5 19.4468 12.5H5.67054Z" fill="currentcolor"/>
<path fill-rule="evenodd" clip-rule="evenodd" d="M10.7563 4.29289C11.1468 3.90237 11.78 3.90237 12.1705 4.29289C12.5611 4.68342 12.5611 5.31658 12.1705 5.70711L6.87764 11H19.4468C19.9927 11 20.4634 11.4324 20.4634 12C20.4634 12.5676 19.9927 13 19.4468 13H6.87764L12.1705 18.2929C12.5611 18.6834 12.5611 19.3166 12.1705 19.7071C11.78 20.0976 11.1468 20.0976 10.7563 19.7071L4.01968 12.9705L4.01965 12.9704L4.0151 12.9659C4.01191 12.9627 4.00865 12.9594 4.00533 12.9561C3.92494 12.8758 3.80586 12.7569 3.70963 12.6191C3.60616 12.471 3.5 12.2615 3.5 12C3.5 11.7385 3.60616 11.529 3.70962 11.3809C3.80585 11.2432 3.92493 11.1242 4.00531 11.0439C4.00864 11.0406 4.01189 11.0373 4.01508 11.0341C4.01509 11.0341 4.01509 11.0341 4.01509 11.0341L4.01967 11.0295L4.01968 11.0295L10.7563 4.29289Z" fill="currentcolor"/>
</svg>
