<svg width="24" height="24" viewBox="0 0 24 24" fill="none" xmlns="http://www.w3.org/2000/svg">
<path fill-rule="evenodd" clip-rule="evenodd" d="M5.67054 12.5L11.817 18.6464C12.0122 18.8417 12.0122 19.1583 11.817 19.3536C11.6217 19.5488 11.3051 19.5488 11.1099 19.3536L4.37323 12.6169L4.36863 12.6123C4.19587 12.4396 4 12.2437 4 12C4 11.7563 4.19586 11.5604 4.36862 11.3877L4.37322 11.3831L11.1099 4.64645C11.3051 4.45118 11.6217 4.45118 11.817 4.64645C12.0122 4.84171 12.0122 5.15829 11.817 5.35355L5.67054 11.5H19.4468C19.7321 11.5 19.9634 11.7239 19.9634 12C19.9634 12.2761 19.7321 12.5 19.4468 12.5H5.67054Z" fill="currentcolor"/>
</svg>
