<svg width="24" height="24" viewBox="0 0 24 24" fill="none" xmlns="http://www.w3.org/2000/svg">
<path fill-rule="evenodd" clip-rule="evenodd" d="M12.5 19.2928L18.6464 13.1464C18.8417 12.9511 19.1583 12.9511 19.3536 13.1464C19.5488 13.3417 19.5488 13.6582 19.3536 13.8535L12.6169 20.5901L12.6123 20.5947C12.4396 20.7675 12.2437 20.9634 12 20.9634C11.7563 20.9634 11.5604 20.7675 11.3877 20.5948L11.3831 20.5902L4.64645 13.8535C4.45118 13.6582 4.45118 13.3417 4.64645 13.1464C4.84171 12.9511 5.15829 12.9511 5.35355 13.1464L11.5 19.2928L11.5 5.51662C11.5 5.23127 11.7239 4.99995 12 4.99995C12.2761 4.99995 12.5 5.23127 12.5 5.51662L12.5 19.2928Z" fill="currentcolor"/>
<path fill-rule="evenodd" clip-rule="evenodd" d="M4.29289 14.2071C3.90237 13.8165 3.90237 13.1834 4.29289 12.7928C4.68342 12.4023 5.31658 12.4023 5.70711 12.7928L11 18.0857L11 5.51662C11 4.97071 11.4324 4.49995 12 4.49995C12.5676 4.49995 13 4.97071 13 5.51662L13 18.0857L18.2929 12.7928C18.6834 12.4023 19.3166 12.4023 19.7071 12.7928C20.0976 13.1834 20.0976 13.8165 19.7071 14.2071L12.9705 20.9437L12.9704 20.9437L12.9659 20.9483C12.9627 20.9515 12.9594 20.9547 12.9561 20.9581C12.8758 21.0384 12.7569 21.1575 12.6191 21.2538C12.471 21.3572 12.2615 21.4634 12 21.4634C11.7385 21.4634 11.529 21.3572 11.3809 21.2538C11.2432 21.1575 11.1242 21.0385 11.0439 20.9581C11.0406 20.9547 11.0373 20.9515 11.0341 20.9483C11.0341 20.9483 11.0341 20.9483 11.0341 20.9483L11.0295 20.9437L11.0295 20.9437L4.29289 14.2071Z" fill="currentcolor"/>
</svg>
