<svg width="24" height="24" viewBox="0 0 24 24" fill="none" xmlns="http://www.w3.org/2000/svg">
<path fill-rule="evenodd" clip-rule="evenodd" d="M18.3295 11.5L12.183 5.35355C11.9878 5.15829 11.9878 4.84171 12.183 4.64645C12.3783 4.45118 12.6949 4.45118 12.8901 4.64645L19.6268 11.3831L19.6314 11.3877C19.8041 11.5604 20 11.7563 20 12C20 12.2437 19.8041 12.4396 19.6314 12.6123L19.6268 12.6169L12.8901 19.3536C12.6949 19.5488 12.3783 19.5488 12.183 19.3536C11.9878 19.1583 11.9878 18.8417 12.183 18.6464L18.3295 12.5L4.55324 12.5C4.26789 12.5 4.03657 12.2761 4.03657 12C4.03657 11.7239 4.26789 11.5 4.55324 11.5L18.3295 11.5Z" fill="currentcolor"/>
</svg>
