<svg width="24" height="24" viewBox="0 0 24 24" fill="none" xmlns="http://www.w3.org/2000/svg">
<path fill-rule="evenodd" clip-rule="evenodd" d="M12.5 18.2928L18.6464 12.1464C18.8417 11.9511 19.1583 11.9511 19.3536 12.1464C19.5488 12.3417 19.5488 12.6582 19.3536 12.8535L12.6169 19.5901L12.6123 19.5947C12.4396 19.7675 12.2437 19.9634 12 19.9634C11.7563 19.9634 11.5604 19.7675 11.3877 19.5948L11.3831 19.5902L4.64645 12.8535C4.45118 12.6582 4.45118 12.3417 4.64645 12.1464C4.84171 11.9511 5.15829 11.9511 5.35355 12.1464L11.5 18.2928L11.5 4.51662C11.5 4.23127 11.7239 3.99995 12 3.99995C12.2761 3.99995 12.5 4.23127 12.5 4.51662L12.5 18.2928Z" fill="currentcolor"/>
</svg>
