<svg width="24" height="24" viewBox="0 0 24 24" fill="none" xmlns="http://www.w3.org/2000/svg">
<path fill-rule="evenodd" clip-rule="evenodd" d="M11.5 5.67054L5.35355 11.817C5.15829 12.0122 4.84171 12.0122 4.64645 11.817C4.45118 11.6217 4.45118 11.3051 4.64645 11.1099L11.3831 4.37323L11.3877 4.36863C11.5604 4.19587 11.7563 4 12 4C12.2437 4 12.4396 4.19586 12.6123 4.36862L12.6169 4.37322L19.3536 11.1099C19.5488 11.3051 19.5488 11.6217 19.3536 11.817C19.1583 12.0122 18.8417 12.0122 18.6464 11.817L12.5 5.67054L12.5 19.4468C12.5 19.7321 12.2761 19.9634 12 19.9634C11.7239 19.9634 11.5 19.7321 11.5 19.4468L11.5 5.67054Z" fill="currentcolor"/>
</svg>
