<svg width="24" height="24" viewBox="0 0 24 24" fill="none" xmlns="http://www.w3.org/2000/svg">
<path fill-rule="evenodd" clip-rule="evenodd" d="M17.3295 11.5L11.183 5.35355C10.9878 5.15829 10.9878 4.84171 11.183 4.64645C11.3783 4.45118 11.6949 4.45118 11.8901 4.64645L18.6268 11.3831L18.6314 11.3877C18.8041 11.5604 19 11.7563 19 12C19 12.2437 18.8041 12.4396 18.6314 12.6123L18.6268 12.6169L11.8901 19.3536C11.6949 19.5488 11.3783 19.5488 11.183 19.3536C10.9878 19.1583 10.9878 18.8417 11.183 18.6464L17.3295 12.5L3.55324 12.5C3.26789 12.5 3.03657 12.2761 3.03657 12C3.03657 11.7239 3.26789 11.5 3.55324 11.5L17.3295 11.5Z" fill="currentcolor"/>
<path fill-rule="evenodd" clip-rule="evenodd" d="M12.2437 19.7071C11.8532 20.0976 11.22 20.0976 10.8295 19.7071C10.4389 19.3166 10.4389 18.6834 10.8295 18.2929L16.1224 13L3.55324 13C3.00733 13 2.53657 12.5676 2.53657 12C2.53657 11.4324 3.00733 11 3.55324 11L16.1224 11L10.8295 5.70711C10.4389 5.31658 10.4389 4.68342 10.8295 4.29289C11.22 3.90237 11.8532 3.90237 12.2437 4.29289L18.9803 11.0295L18.9804 11.0296L18.9849 11.0341C18.9881 11.0373 18.9913 11.0406 18.9947 11.0439C19.0751 11.1242 19.1941 11.2431 19.2904 11.3809C19.3938 11.529 19.5 11.7385 19.5 12C19.5 12.2615 19.3938 12.471 19.2904 12.6191C19.1942 12.7568 19.0751 12.8758 18.9947 12.9561C18.9914 12.9594 18.9881 12.9627 18.9849 12.9659C18.9849 12.9659 18.9849 12.9659 18.9849 12.9659L18.9803 12.9705L18.9803 12.9705L12.2437 19.7071Z" fill="currentcolor"/>
</svg>
