<svg width="24" height="24" viewBox="0 0 24 24" fill="none" xmlns="http://www.w3.org/2000/svg">
<path fill-rule="evenodd" clip-rule="evenodd" d="M11.5 6.67054L5.35355 12.817C5.15829 13.0122 4.84171 13.0122 4.64645 12.817C4.45118 12.6217 4.45118 12.3051 4.64645 12.1099L11.3831 5.37323L11.3877 5.36863C11.5604 5.19587 11.7563 5 12 5C12.2437 5 12.4396 5.19586 12.6123 5.36862L12.6169 5.37322L19.3536 12.1099C19.5488 12.3051 19.5488 12.6217 19.3536 12.817C19.1583 13.0122 18.8417 13.0122 18.6464 12.817L12.5 6.67054L12.5 20.4468C12.5 20.7321 12.2761 20.9634 12 20.9634C11.7239 20.9634 11.5 20.7321 11.5 20.4468L11.5 6.67054Z" fill="currentcolor"/>
<path fill-rule="evenodd" clip-rule="evenodd" d="M19.7071 11.7563C20.0976 12.1468 20.0976 12.78 19.7071 13.1705C19.3166 13.5611 18.6834 13.5611 18.2929 13.1705L13 7.87764L13 20.4468C13 20.9927 12.5676 21.4634 12 21.4634C11.4324 21.4634 11 20.9927 11 20.4468L11 7.87764L5.70711 13.1705C5.31658 13.5611 4.68342 13.5611 4.29289 13.1705C3.90237 12.78 3.90237 12.1468 4.29289 11.7563L11.0295 5.01968L11.0296 5.01965L11.0341 5.0151C11.0373 5.01191 11.0406 5.00865 11.0439 5.00533C11.1242 4.92494 11.2431 4.80586 11.3809 4.70963C11.529 4.60616 11.7385 4.5 12 4.5C12.2615 4.5 12.471 4.60616 12.6191 4.70962C12.7568 4.80585 12.8758 4.92493 12.9561 5.00531C12.9594 5.00864 12.9627 5.01189 12.9659 5.01508C12.9659 5.01509 12.9659 5.01509 12.9659 5.01509L12.9705 5.01967L12.9705 5.01968L19.7071 11.7563Z" fill="currentcolor"/>
</svg>
