<svg width="24" height="24" viewBox="0 0 24 24" fill="none" xmlns="http://www.w3.org/2000/svg">
<path fill-rule="evenodd" clip-rule="evenodd" d="M19.3071 11.3032L18.5285 10.4311C18.3445 10.2251 18.0285 10.2073 17.8225 10.3912C17.6165 10.5751 17.5986 10.8912 17.7825 11.0971L19.4915 13.0111C19.694 13.2379 20.0504 13.233 20.2465 13.0007L21.8625 11.0867C22.0407 10.8757 22.0141 10.5602 21.8031 10.3821C21.5921 10.2039 21.2766 10.2306 21.0985 10.4416L20.3115 11.3737C20.1421 7.00173 16.739 3.35833 12.3036 3.02474C7.53386 2.66592 3.3797 6.27197 3.02545 11.0756C2.66913 15.8785 6.24542 20.0651 11.0146 20.4239C14.1417 20.6591 17.102 19.1823 18.8299 16.6155C18.9841 16.3865 18.9234 16.0758 18.6943 15.9216C18.4652 15.7673 18.1545 15.828 18.0003 16.0571C16.4709 18.3291 13.8539 19.6346 11.0896 19.4267C6.87251 19.1095 3.70709 15.4039 4.02273 11.1493C4.33646 6.89517 8.01187 3.70471 12.2286 4.02192C16.1132 4.31409 19.1048 7.48031 19.3071 11.3032Z" fill="currentcolor"/>
<path d="M15.002 9.16327L10.292 13.6543L8.99797 12.42C8.76967 12.2023 8.39952 12.2023 8.17122 12.42C7.94293 12.6377 7.94293 12.9907 8.17122 13.2084L9.87893 14.8367C10.1072 15.0544 10.4774 15.0544 10.7057 14.8367L15.8288 9.95161C16.0571 9.73392 16.0571 9.38096 15.8288 9.16327C15.6005 8.94558 15.2303 8.94558 15.002 9.16327Z" fill="currentcolor"/>
</svg>
