<svg width="24" height="24" viewBox="0 0 24 24" fill="none" xmlns="http://www.w3.org/2000/svg">
<path fill-rule="evenodd" clip-rule="evenodd" d="M19.3071 11.3032L18.5285 10.4311C18.3445 10.2251 18.0285 10.2073 17.8225 10.3912C17.6165 10.5751 17.5986 10.8912 17.7825 11.0971L19.4915 13.0111C19.694 13.2379 20.0504 13.233 20.2465 13.0007L21.8625 11.0867C22.0407 10.8757 22.0141 10.5602 21.8031 10.3821C21.5921 10.2039 21.2766 10.2306 21.0985 10.4416L20.3115 11.3737C20.1421 7.00173 16.739 3.35833 12.3036 3.02474C7.53386 2.66592 3.3797 6.27197 3.02545 11.0756C2.66913 15.8785 6.24542 20.0651 11.0146 20.4239C14.1417 20.6591 17.102 19.1823 18.8299 16.6155C18.9841 16.3865 18.9234 16.0758 18.6943 15.9216C18.4652 15.7673 18.1545 15.828 18.0003 16.0571C16.4709 18.3291 13.8539 19.6346 11.0896 19.4267C6.87251 19.1095 3.70709 15.4039 4.02273 11.1493C4.33646 6.89517 8.01187 3.70471 12.2286 4.02192C16.1132 4.31409 19.1048 7.48031 19.3071 11.3032Z" fill="currentcolor"/>
<path d="M8.14942 8.87088C7.95017 8.67163 7.9502 8.34861 8.14948 8.14939C8.34875 7.95018 8.67182 7.95021 8.87107 8.14945L15.3506 14.6291C15.5498 14.8284 15.5498 15.1514 15.3505 15.3506C15.1512 15.5498 14.8282 15.5498 14.6289 15.3505L8.14942 8.87088Z" fill="currentcolor"/>
<path d="M14.6289 8.14945C14.8282 7.95021 15.1512 7.95018 15.3505 8.14939C15.5498 8.34861 15.5498 8.67163 15.3506 8.87088L8.87107 15.3505C8.67182 15.5498 8.34875 15.5498 8.14948 15.3506C7.9502 15.1514 7.95017 14.8284 8.14942 14.6291L14.6289 8.14945Z" fill="currentcolor"/>
</svg>
