<svg width="24" height="24" viewBox="0 0 24 24" fill="none" xmlns="http://www.w3.org/2000/svg">
<path fill-rule="evenodd" clip-rule="evenodd" d="M19.3071 11.3032L18.5285 10.4311C18.3445 10.2251 18.0285 10.2073 17.8225 10.3912C17.6165 10.5751 17.5986 10.8912 17.7825 11.0971L19.4915 13.0111C19.694 13.2379 20.0504 13.233 20.2465 13.0007L21.8625 11.0867C22.0407 10.8757 22.0141 10.5602 21.8031 10.3821C21.5921 10.2039 21.2766 10.2306 21.0985 10.4416L20.3115 11.3737C20.1421 7.00173 16.739 3.35833 12.3036 3.02474C7.53386 2.66592 3.3797 6.27197 3.02545 11.0756C2.66913 15.8785 6.24542 20.0651 11.0146 20.4239C14.1417 20.6591 17.102 19.1823 18.8299 16.6155C18.9841 16.3865 18.9234 16.0758 18.6943 15.9216C18.4652 15.7673 18.1545 15.828 18.0003 16.0571C16.4709 18.3291 13.8539 19.6346 11.0896 19.4267C6.87251 19.1095 3.70709 15.4039 4.02273 11.1493C4.33646 6.89517 8.01187 3.70471 12.2286 4.02192C16.1132 4.31409 19.1048 7.48031 19.3071 11.3032Z" fill="currentcolor"/>
<path d="M19.3071 11.3032L19.1206 11.4697L19.5944 12.0002L19.5568 11.29L19.3071 11.3032ZM18.5285 10.4311L18.342 10.5976H18.342L18.5285 10.4311ZM17.7825 11.0971L17.5961 11.2637H17.5961L17.7825 11.0971ZM19.4915 13.0111L19.678 12.8446L19.4915 13.0111ZM20.2465 13.0007L20.0555 12.8394V12.8394L20.2465 13.0007ZM21.8625 11.0867L22.0536 11.248L21.8625 11.0867ZM21.8031 10.3821L21.6418 10.5731V10.5731L21.8031 10.3821ZM21.0985 10.4416L21.2895 10.6029L21.0985 10.4416ZM20.3115 11.3737L20.0617 11.3834L20.0866 12.0275L20.5025 11.535L20.3115 11.3737ZM12.3036 3.02474L12.2848 3.27404L12.2848 3.27404L12.3036 3.02474ZM3.02545 11.0756L3.27477 11.0941L3.27477 11.0939L3.02545 11.0756ZM11.0146 20.4239L10.9958 20.6732H10.9958L11.0146 20.4239ZM18.8299 16.6155L18.6225 16.4759H18.6225L18.8299 16.6155ZM18.0003 16.0571L17.7929 15.9175H17.7929L18.0003 16.0571ZM11.0896 19.4267L11.0708 19.676H11.0708L11.0896 19.4267ZM4.02273 11.1493L4.27204 11.1678L4.27205 11.1677L4.02273 11.1493ZM12.2286 4.02192L12.2098 4.27122L12.2098 4.27122L12.2286 4.02192ZM19.4936 11.1367L18.7149 10.2646L18.342 10.5976L19.1206 11.4697L19.4936 11.1367ZM18.7149 10.2646C18.4391 9.95564 17.9649 9.92881 17.656 10.2047L17.989 10.5777C18.092 10.4857 18.25 10.4946 18.342 10.5976L18.7149 10.2646ZM17.656 10.2047C17.347 10.4806 17.3202 10.9547 17.5961 11.2637L17.969 10.9306C17.8771 10.8276 17.886 10.6696 17.989 10.5777L17.656 10.2047ZM17.5961 11.2637L19.3051 13.1777L19.678 12.8446L17.969 10.9306L17.5961 11.2637ZM19.3051 13.1777C19.6088 13.5178 20.1433 13.5104 20.4376 13.162L20.0555 12.8394C19.9574 12.9556 19.7793 12.958 19.678 12.8446L19.3051 13.1777ZM20.4376 13.162L22.0536 11.248L21.6715 10.9254L20.0555 12.8394L20.4376 13.162ZM22.0536 11.248C22.3208 10.9315 22.2808 10.4583 21.9643 10.1911L21.6418 10.5731C21.7473 10.6622 21.7606 10.8199 21.6715 10.9254L22.0536 11.248ZM21.9643 10.1911C21.6478 9.92385 21.1747 9.9638 20.9074 10.2803L21.2895 10.6029C21.3785 10.4974 21.5363 10.484 21.6418 10.5731L21.9643 10.1911ZM20.9074 10.2803L20.1204 11.2124L20.5025 11.535L21.2895 10.6029L20.9074 10.2803ZM20.5613 11.364C20.3871 6.86805 16.8875 3.11879 12.3223 2.77544L12.2848 3.27404C16.5906 3.59788 19.8971 7.13542 20.0617 11.3834L20.5613 11.364ZM12.3224 2.77544C7.41305 2.40613 3.14042 6.11748 2.77613 11.0572L3.27477 11.0939C3.61899 6.42645 7.65467 2.92572 12.2848 3.27404L12.3224 2.77544ZM2.77614 11.0571C2.40973 15.9959 6.08734 20.304 10.9958 20.6732L11.0333 20.1746C6.40351 19.8263 2.92852 15.7612 3.27477 11.0941L2.77614 11.0571ZM10.9958 20.6732C14.2143 20.9152 17.2602 19.395 19.0373 16.7552L18.6225 16.4759C16.9439 18.9695 14.0692 20.4029 11.0333 20.1746L10.9958 20.6732ZM19.0373 16.7552C19.2686 16.4115 19.1775 15.9455 18.8339 15.7142L18.5547 16.1289C18.6692 16.206 18.6996 16.3614 18.6225 16.4759L19.0373 16.7552ZM18.8339 15.7142C18.4903 15.4829 18.0242 15.5739 17.7929 15.9175L18.2077 16.1967C18.2848 16.0822 18.4402 16.0518 18.5547 16.1289L18.8339 15.7142ZM17.7929 15.9175C16.3127 18.1164 13.7813 19.3784 11.1083 19.1774L11.0708 19.676C13.9265 19.8908 16.6291 18.5418 18.2077 16.1967L17.7929 15.9175ZM11.1083 19.1774C7.03076 18.8707 3.96647 15.2867 4.27204 11.1678L3.77341 11.1308C3.44771 15.521 6.71426 19.3483 11.0708 19.676L11.1083 19.1774ZM4.27205 11.1677C4.57576 7.04949 8.13283 3.96451 12.2098 4.27122L12.2473 3.77263C7.8909 3.4449 4.09716 6.74085 3.7734 11.1309L4.27205 11.1677ZM12.2098 4.27122C15.9658 4.55371 18.8616 7.61584 19.0575 11.3164L19.5568 11.29C19.348 7.34478 16.2605 4.07446 12.2473 3.77263L12.2098 4.27122Z" fill="currentcolor"/>
<path d="M15.002 9.16327L10.292 13.6543L8.99797 12.42C8.76967 12.2023 8.39952 12.2023 8.17122 12.42C7.94293 12.6377 7.94293 12.9907 8.17122 13.2084L9.87893 14.8367C10.1072 15.0544 10.4774 15.0544 10.7057 14.8367L15.8288 9.95161C16.0571 9.73392 16.0571 9.38096 15.8288 9.16327C15.6005 8.94558 15.2303 8.94558 15.002 9.16327Z" fill="currentcolor" stroke="currentcolor"/>
</svg>
