<svg width="24" height="24" viewBox="0 0 24 24" fill="none" xmlns="http://www.w3.org/2000/svg">
<path fill-rule="evenodd" clip-rule="evenodd" d="M6.80702 12.0656C8.03054 10.694 9.77846 9.8919 11.6582 9.8919C15.2481 9.8919 18.1582 12.802 18.1582 16.3919C18.1582 16.668 18.3821 16.8919 18.6582 16.8919C18.9343 16.8919 19.1582 16.668 19.1582 16.3919C19.1582 12.2498 15.8003 8.8919 11.6582 8.8919C9.48176 8.8919 7.45653 9.82514 6.04475 11.4179V8.56555C6.04475 8.28941 5.82089 8.06555 5.54475 8.06555C5.26861 8.06555 5.04475 8.28941 5.04475 8.56555V12.5656C5.04475 12.8417 5.26861 13.0656 5.54475 13.0656H9.54475C9.82089 13.0656 10.0447 12.8417 10.0447 12.5656C10.0447 12.2894 9.82089 12.0656 9.54475 12.0656H6.80702Z" fill="currentcolor"/>
<path d="M6.80702 12.0656V12.5656H5.69094L6.4339 11.7327L6.80702 12.0656ZM6.04475 11.4179L6.41892 11.7496L5.54475 12.7358V11.4179H6.04475ZM6.4339 11.7327C7.75111 10.2561 9.63417 9.3919 11.6582 9.3919V10.3919C9.92275 10.3919 8.30998 11.1319 7.18013 12.3984L6.4339 11.7327ZM11.6582 9.3919C15.5242 9.3919 18.6582 12.5259 18.6582 16.3919H17.6582C17.6582 13.0782 14.9719 10.3919 11.6582 10.3919V9.3919ZM18.6582 16.3919V17.3919C18.1059 17.3919 17.6582 16.9442 17.6582 16.3919H18.6582ZM18.6582 16.3919H19.6582C19.6582 16.9442 19.2105 17.3919 18.6582 17.3919V16.3919ZM18.6582 16.3919C18.6582 12.5259 15.5242 9.3919 11.6582 9.3919V8.3919C16.0765 8.3919 19.6582 11.9736 19.6582 16.3919H18.6582ZM11.6582 9.3919C9.62661 9.3919 7.737 10.2625 6.41892 11.7496L5.67058 11.0862C7.17606 9.38776 9.33692 8.3919 11.6582 8.3919V9.3919ZM5.54475 11.4179V8.56555H6.54475V11.4179H5.54475ZM5.54475 8.56555V7.56555C6.09703 7.56555 6.54475 8.01327 6.54475 8.56555H5.54475ZM5.54475 8.56555H4.54475C4.54475 8.01327 4.99246 7.56555 5.54475 7.56555V8.56555ZM5.54475 8.56555V12.5656H4.54475V8.56555H5.54475ZM5.54475 12.5656V13.5656C4.99246 13.5656 4.54475 13.1178 4.54475 12.5656H5.54475ZM5.54475 12.5656H9.54475V13.5656H5.54475V12.5656ZM9.54475 12.5656H10.5447C10.5447 13.1178 10.097 13.5656 9.54475 13.5656V12.5656ZM9.54475 12.5656V11.5656C10.097 11.5656 10.5447 12.0133 10.5447 12.5656H9.54475ZM9.54475 12.5656H6.80702V11.5656H9.54475V12.5656Z" fill="currentcolor"/>
</svg>
