<svg width="24" height="24" viewBox="0 0 24 24" fill="none" xmlns="http://www.w3.org/2000/svg">
<path fill-rule="evenodd" clip-rule="evenodd" d="M6.80702 12.0656C8.03054 10.694 9.77846 9.8919 11.6582 9.8919C15.2481 9.8919 18.1582 12.802 18.1582 16.3919C18.1582 16.668 18.3821 16.8919 18.6582 16.8919C18.9343 16.8919 19.1582 16.668 19.1582 16.3919C19.1582 12.2498 15.8003 8.8919 11.6582 8.8919C9.48176 8.8919 7.45653 9.82514 6.04475 11.4179V8.56555C6.04475 8.28941 5.82089 8.06555 5.54475 8.06555C5.26861 8.06555 5.04475 8.28941 5.04475 8.56555V12.5656C5.04475 12.8417 5.26861 13.0656 5.54475 13.0656H9.54475C9.82089 13.0656 10.0447 12.8417 10.0447 12.5656C10.0447 12.2894 9.82089 12.0656 9.54475 12.0656H6.80702Z" fill="currentcolor"/>
</svg>
