<svg width="24" height="24" viewBox="0 0 24 24" fill="none" xmlns="http://www.w3.org/2000/svg">
<path fill-rule="evenodd" clip-rule="evenodd" d="M17.5 10.064C17.5 6.90162 15.5263 4.73091 12.4854 4.51733V4C12.4854 3.72386 12.2616 3.5 11.9854 3.5C11.7093 3.5 11.4854 3.72386 11.4854 4V4.51731C8.45207 4.73051 6.50001 6.89652 6.50001 10.064V11.906C6.50001 13.9956 6.13913 15.7207 5.54104 17.1045C5.33459 17.5822 5.11489 17.9821 4.89721 18.3068C4.77142 18.4945 4.67825 18.6115 4.63305 18.6604C4.33678 18.9805 4.56382 19.5 5.00001 19.5H9.56798C9.62655 19.6677 9.72678 19.8464 9.88317 20.0211C10.3011 20.4877 10.9987 20.75 12 20.75C13.0151 20.75 13.7165 20.4876 14.1306 20.0183C14.2833 19.8452 14.3806 19.6677 14.4368 19.5H19C19.4362 19.5 19.6632 18.9805 19.367 18.6604C19.3218 18.6115 19.2286 18.4945 19.1028 18.3068C18.8851 17.9821 18.6654 17.5822 18.459 17.1045C17.8609 15.7207 17.5 13.9956 17.5 11.906V10.064ZM17.541 17.5012C17.7089 17.8897 17.8783 18.2221 18.0395 18.5H5.96053C6.12176 18.2221 6.29109 17.8897 6.45898 17.5012C7.1109 15.9929 7.50001 14.1328 7.50001 11.906V10.064C7.50001 7.27233 9.22635 5.5 11.985 5.5C14.7517 5.5 16.5 7.27967 16.5 10.064V11.906C16.5 14.1328 16.8891 15.9929 17.541 17.5012ZM12 19.75C12.4021 19.75 12.7112 19.7039 12.9432 19.625H11.0696C11.3004 19.7041 11.6055 19.75 12 19.75Z" fill="currentcolor"/>
<path d="M12.4854 4.51733H11.9854V4.98344L12.4504 5.0161L12.4854 4.51733ZM11.4854 4.51731L11.5205 5.01608L11.9854 4.9834V4.51731H11.4854ZM5.54104 17.1045L6.00001 17.3029L5.54104 17.1045ZM4.89721 18.3068L4.48191 18.0284L4.48191 18.0284L4.89721 18.3068ZM4.63305 18.6604L5.00001 19L5.00001 19L4.63305 18.6604ZM9.56798 19.5L10.04 19.3351L9.92296 19H9.56798V19.5ZM9.88317 20.0211L9.5107 20.3546L9.88317 20.0211ZM14.1306 20.0183L14.5055 20.3491H14.5055L14.1306 20.0183ZM14.4368 19.5V19H14.0771L13.9627 19.3411L14.4368 19.5ZM19.367 18.6604L19 19L19 19L19.367 18.6604ZM19.1028 18.3068L18.6875 18.5853L18.6875 18.5853L19.1028 18.3068ZM18.459 17.1045L18 17.3029L18.459 17.1045ZM18.0395 18.5V19H18.9077L18.472 18.2491L18.0395 18.5ZM17.541 17.5012L18 17.3029L17.541 17.5012ZM5.96053 18.5L5.52806 18.2491L5.09234 19H5.96053V18.5ZM6.45898 17.5012L6.91795 17.6996H6.91795L6.45898 17.5012ZM12.9432 19.625L13.1042 20.0984L12.9432 19.125V19.625ZM11.0696 19.625V19.125L10.9075 20.098L11.0696 19.625ZM12.4504 5.0161C13.8567 5.11487 14.9849 5.66178 15.7624 6.52048C16.541 7.38034 17 8.58833 17 10.064H18C18 8.37729 17.4721 6.91874 16.5037 5.84925C15.5342 4.7786 14.155 4.13336 12.5204 4.01856L12.4504 5.0161ZM11.9854 4V4.51733H12.9854V4H11.9854ZM11.9854 4H12.9854C12.9854 3.44772 12.5377 3 11.9854 3V4ZM11.9854 4V3C11.4331 3 10.9854 3.44772 10.9854 4H11.9854ZM11.9854 4.51731V4H10.9854V4.51731H11.9854ZM7.00001 10.064C7.00001 8.58416 7.45456 7.37588 8.22695 6.51717C8.99799 5.65997 10.1182 5.11463 11.5205 5.01608L11.4504 4.01854C9.81924 4.13318 8.44679 4.77744 7.48347 5.84842C6.5215 6.91789 6.00001 8.37636 6.00001 10.064H7.00001ZM7.00001 11.906V10.064H6.00001V11.906H7.00001ZM6.00001 17.3029C6.62922 15.847 7.00001 14.0528 7.00001 11.906H6.00001C6.00001 13.9384 5.64903 15.5943 5.08208 16.9061L6.00001 17.3029ZM5.31251 18.5853C5.54896 18.2326 5.78282 17.8054 6.00001 17.3029L5.08208 16.9061C4.88635 17.359 4.68083 17.7317 4.48191 18.0284L5.31251 18.5853ZM5.00001 19C5.07056 18.9238 5.18028 18.7825 5.31251 18.5853L4.48191 18.0284C4.36256 18.2064 4.28593 18.2993 4.26609 18.3208L5.00001 19ZM5.00001 19L4.26609 18.3208C3.67354 18.961 4.12763 20 5.00001 20V19ZM9.56798 19H5.00001V20H9.56798V19ZM9.09595 19.6649C9.17681 19.8964 9.31146 20.1322 9.5107 20.3546L10.2556 19.6875C10.1421 19.5607 10.0763 19.439 10.04 19.3351L9.09595 19.6649ZM9.5107 20.3546C10.0596 20.9675 10.9215 21.25 12 21.25V20.25C11.0759 20.25 10.5426 20.008 10.2556 19.6875L9.5107 20.3546ZM12 21.25C13.0894 21.25 13.9588 20.9688 14.5055 20.3491L13.7556 19.6875C13.4742 20.0065 12.9407 20.25 12 20.25V21.25ZM14.5055 20.3491C14.7013 20.1272 14.8329 19.8915 14.9109 19.6589L13.9627 19.3411C13.9283 19.4439 13.8652 19.5633 13.7556 19.6875L14.5055 20.3491ZM19 19H14.4368V20H19V19ZM19 19V20C19.8724 20 20.3265 18.961 19.7339 18.3208L19 19ZM18.6875 18.5853C18.8197 18.7825 18.9295 18.9238 19 19L19.7339 18.3208C19.7141 18.2993 19.6375 18.2064 19.5181 18.0284L18.6875 18.5853ZM18 17.3029C18.2172 17.8054 18.4511 18.2326 18.6875 18.5853L19.5181 18.0284C19.3192 17.7317 19.1137 17.359 18.9179 16.9061L18 17.3029ZM17 11.906C17 14.0528 17.3708 15.847 18 17.3029L18.9179 16.9061C18.351 15.5943 18 13.9384 18 11.906H17ZM17 10.064V11.906H18V10.064H17ZM18.472 18.2491C18.3212 17.9893 18.1606 17.6745 18 17.3029L17.0821 17.6996C17.2572 18.1049 17.4353 18.455 17.607 18.7509L18.472 18.2491ZM5.96053 19H18.0395V18H5.96053V19ZM6.00001 17.3029C5.83941 17.6745 5.6788 17.9893 5.52806 18.2491L6.393 18.7509C6.56471 18.455 6.74278 18.1049 6.91795 17.6996L6.00001 17.3029ZM7.00001 11.906C7.00001 14.0748 6.6211 15.8658 6.00001 17.3029L6.91795 17.6996C7.6007 16.1199 8.00001 14.1909 8.00001 11.906H7.00001ZM7.00001 10.064V11.906H8.00001V10.064H7.00001ZM11.985 5C10.4963 5 9.23753 5.48069 8.35096 6.38511C7.4655 7.28838 7.00001 8.56446 7.00001 10.064H8.00001C8.00001 8.77187 8.39769 7.76595 9.06507 7.08514C9.73133 6.40548 10.7151 6 11.985 6V5ZM17 10.064C17 8.56608 16.5278 7.28997 15.6358 6.38658C14.7432 5.48247 13.4778 5 11.985 5V6C13.259 6 14.2511 6.40737 14.9242 7.08917C15.5981 7.7717 16 8.77759 16 10.064H17ZM17 11.906V10.064H16V11.906H17ZM18 17.3029C17.3789 15.8658 17 14.0748 17 11.906H16C16 14.1909 16.3993 16.1199 17.0821 17.6996L18 17.3029ZM12.7821 19.1516C12.6185 19.2073 12.368 19.25 12 19.25V20.25C12.4362 20.25 12.8039 20.2005 13.1042 20.0984L12.7821 19.1516ZM11.0696 20.125H12.9432V19.125H11.0696V20.125ZM12 19.25C11.6404 19.25 11.3941 19.2077 11.2317 19.152L10.9075 20.098C11.2066 20.2005 11.5705 20.25 12 20.25V19.25Z" fill="currentcolor"/>
</svg>
