<svg width="24" height="24" viewBox="0 0 24 24" fill="none" xmlns="http://www.w3.org/2000/svg">
<path fill-rule="evenodd" clip-rule="evenodd" d="M17.5 10.064C17.5 6.90162 15.5263 4.73091 12.4854 4.51733V4C12.4854 3.72386 12.2616 3.5 11.9854 3.5C11.7093 3.5 11.4854 3.72386 11.4854 4V4.51731C8.45207 4.73051 6.50001 6.89652 6.50001 10.064V11.906C6.50001 13.9956 6.13913 15.7207 5.54104 17.1045C5.33459 17.5822 5.11489 17.9821 4.89721 18.3068C4.77142 18.4945 4.67825 18.6115 4.63305 18.6604C4.33678 18.9805 4.56382 19.5 5.00001 19.5H9.56798C9.62655 19.6677 9.72678 19.8464 9.88317 20.0211C10.3011 20.4877 10.9987 20.75 12 20.75C13.0151 20.75 13.7165 20.4876 14.1306 20.0183C14.2833 19.8452 14.3806 19.6677 14.4368 19.5H19C19.4362 19.5 19.6632 18.9805 19.367 18.6604C19.3218 18.6115 19.2286 18.4945 19.1028 18.3068C18.8851 17.9821 18.6654 17.5822 18.459 17.1045C17.8609 15.7207 17.5 13.9956 17.5 11.906V10.064ZM17.541 17.5012C17.7089 17.8897 17.8783 18.2221 18.0395 18.5H5.96053C6.12176 18.2221 6.29109 17.8897 6.45898 17.5012C7.1109 15.9929 7.50001 14.1328 7.50001 11.906V10.064C7.50001 7.27233 9.22635 5.5 11.985 5.5C14.7517 5.5 16.5 7.27967 16.5 10.064V11.906C16.5 14.1328 16.8891 15.9929 17.541 17.5012ZM12 19.75C12.4021 19.75 12.7112 19.7039 12.9432 19.625H11.0696C11.3004 19.7041 11.6055 19.75 12 19.75Z" fill="currentcolor"/>
</svg>
