<svg width="24" height="24" viewBox="0 0 24 24" fill="none" xmlns="http://www.w3.org/2000/svg">
<path fill-rule="evenodd" clip-rule="evenodd" d="M12.8889 4.07079C12.8313 4.00431 12.7789 3.96728 12.765 3.96064C12.5122 3.83907 12.4064 3.53679 12.5287 3.28548C12.651 3.03416 12.9551 2.92899 13.2079 3.05056C13.3381 3.11314 13.5015 3.22849 13.6599 3.41152C14.1505 3.97853 14.2369 4.80575 13.7395 5.82972C13.4133 6.50174 13.4544 6.89731 13.6736 7.15104C13.7309 7.21741 13.7832 7.25434 13.7968 7.26091C14.0496 7.3826 14.1552 7.68493 14.0328 7.93618C13.9104 8.18743 13.6062 8.29246 13.3535 8.17077C13.2235 8.10816 13.0602 7.99277 12.902 7.80971C12.412 7.24256 12.3261 6.41514 12.8236 5.39024C13.1495 4.71926 13.1083 4.32438 12.8889 4.07079ZM3 12.4357V9.55384C3 9.25275 3.22767 9.00867 3.50852 9.00867H17.3005C17.5813 9.00867 17.809 9.25275 17.809 9.55384V10.737C17.8449 10.7241 17.8829 10.715 17.9225 10.7103C17.9542 10.7066 18.0065 10.7016 18.0763 10.6968C18.4743 10.6695 18.9104 10.6817 19.3328 10.7637C20.6779 11.0247 21.3726 11.9399 20.7958 13.4506C20.3664 14.572 19.5024 15.3782 18.3503 15.9171C17.7745 16.1865 17.1627 16.372 16.5518 16.4903C16.391 16.5214 16.3097 16.5271 16.2546 16.5244C15.7503 17.1018 15.1355 17.6024 14.4285 18H16.9876C17.5534 18 17.9198 18.3147 17.8609 18.7937C17.8327 19.0225 17.7412 19.2128 17.5031 19.6246L17.4633 19.6943C17.4069 19.7935 17.3082 19.9667 17.2722 20.0275C16.8817 20.6851 16.484 21 15.7696 21H5.11404C4.48075 21 4.14902 20.6328 3.82492 19.9436C3.81599 19.9246 3.793 19.874 3.76578 19.8142C3.71839 19.7101 3.65818 19.5778 3.63705 19.5347C3.61676 19.4933 3.59416 19.4496 3.56421 19.3933C3.32993 18.9531 3.31298 18.9175 3.28918 18.7305C3.23255 18.2855 3.58436 18 4.097 18H6.44738C4.3352 16.8091 3 14.7019 3 12.4357ZM17.809 12.4357V11.6875C17.8814 11.7137 17.9609 11.7239 18.0426 11.7142C18.0582 11.7124 18.0939 11.709 18.1463 11.7054C18.4632 11.6837 18.8164 11.6935 19.1379 11.7559C19.9206 11.9078 20.1711 12.2378 19.8451 13.0914C19.52 13.9406 18.8493 14.5664 17.9172 15.0024C17.6505 15.1271 17.372 15.2317 17.088 15.3178C17.5547 14.4407 17.809 13.4599 17.809 12.4357ZM16.7919 10.099H4.01697V12.4357C4.01697 15.2861 6.68031 17.9184 10.3992 17.9184C14.2153 17.9184 16.7919 15.3603 16.7919 12.4357V10.099ZM4.48103 19.0773C4.51517 19.1325 4.54189 19.1769 4.56715 19.2212C4.59514 19.2703 4.66689 19.4059 4.71543 19.4976L4.71566 19.498L4.7157 19.4981L4.71577 19.4982C4.73796 19.5402 4.75525 19.5729 4.76119 19.5837C4.93193 19.8958 5.05291 20.011 5.11417 20.011H15.7697C16.0212 20.011 16.1438 19.9275 16.376 19.5914C16.4066 19.547 16.4953 19.4131 16.5526 19.3266L16.6017 19.2526C16.6681 19.1539 16.7193 19.0745 16.7576 19.011H4.44006L4.48103 19.0773ZM9.987 3.96064C10.0008 3.96728 10.0533 4.00431 10.1108 4.07079C10.3303 4.32438 10.3715 4.71926 10.0455 5.39024C9.54804 6.41514 9.634 7.24256 10.124 7.80971C10.2822 7.99277 10.4454 8.10816 10.5754 8.17077C10.8282 8.29246 11.1324 8.18743 11.2548 7.93618C11.3772 7.68493 11.2715 7.3826 11.0188 7.26091C11.0051 7.25434 10.9529 7.21741 10.8956 7.15104C10.6763 6.89731 10.6352 6.50174 10.9614 5.82972C11.4589 4.80575 11.3725 3.97853 10.8818 3.41152C10.7235 3.22849 10.56 3.11314 10.4299 3.05056C10.1771 2.92899 9.87298 3.03416 9.75068 3.28548C9.62837 3.53679 9.73418 3.83907 9.987 3.96064ZM7.3226 4.07079C7.26507 4.00431 7.2126 3.96728 7.19878 3.96064C6.94597 3.83907 6.84016 3.53679 6.96246 3.28548C7.08476 3.03416 7.38886 2.92899 7.64168 3.05056C7.7718 3.11314 7.93525 3.22849 8.09363 3.41152C8.58429 3.97853 8.67067 4.80575 8.17308 5.83003C7.84625 6.50219 7.88715 6.89766 8.10626 7.15126C8.16351 7.21751 8.21566 7.25437 8.22924 7.26091C8.482 7.3826 8.58766 7.68493 8.46523 7.93618C8.34281 8.18743 8.03866 8.29246 7.7859 8.17077C7.65595 8.1082 7.49279 7.99289 7.33473 7.80996C6.84461 7.24271 6.75901 6.41506 7.25731 5.39024C7.58328 4.71926 7.54204 4.32438 7.3226 4.07079Z" fill="currentcolor"/>
</svg>
