<svg width="24" height="24" viewBox="0 0 24 24" fill="none" xmlns="http://www.w3.org/2000/svg">
<path fill-rule="evenodd" clip-rule="evenodd" d="M12.8889 4.07079C12.8313 4.00431 12.7789 3.96728 12.765 3.96064C12.5122 3.83907 12.4064 3.53679 12.5287 3.28548C12.651 3.03416 12.9551 2.92899 13.2079 3.05056C13.3381 3.11314 13.5015 3.22849 13.6599 3.41152C14.1505 3.97853 14.2369 4.80575 13.7395 5.82972C13.4133 6.50174 13.4544 6.89731 13.6736 7.15104C13.7309 7.21741 13.7832 7.25434 13.7968 7.26091C14.0496 7.3826 14.1552 7.68493 14.0328 7.93618C13.9104 8.18743 13.6062 8.29246 13.3535 8.17077C13.2235 8.10816 13.0602 7.99277 12.902 7.80971C12.412 7.24256 12.3261 6.41514 12.8236 5.39024C13.1495 4.71926 13.1083 4.32438 12.8889 4.07079ZM3 12.4357V9.55384C3 9.25275 3.22767 9.00867 3.50852 9.00867H17.3005C17.5813 9.00867 17.809 9.25275 17.809 9.55384V10.737C17.8449 10.7241 17.8829 10.715 17.9225 10.7103C17.9542 10.7066 18.0065 10.7016 18.0763 10.6968C18.4743 10.6695 18.9104 10.6817 19.3328 10.7637C20.6779 11.0247 21.3726 11.9399 20.7958 13.4506C20.3664 14.572 19.5024 15.3782 18.3503 15.9171C17.7745 16.1865 17.1627 16.372 16.5518 16.4903C16.391 16.5214 16.3097 16.5271 16.2546 16.5244C15.7503 17.1018 15.1355 17.6024 14.4285 18H16.9876C17.5534 18 17.9198 18.3147 17.8609 18.7937C17.8327 19.0225 17.7412 19.2128 17.5031 19.6246L17.4633 19.6943C17.4069 19.7935 17.3082 19.9667 17.2722 20.0275C16.8817 20.6851 16.484 21 15.7696 21H5.11404C4.48075 21 4.14902 20.6328 3.82492 19.9436C3.81599 19.9246 3.793 19.874 3.76578 19.8142C3.71839 19.7101 3.65818 19.5778 3.63705 19.5347C3.61676 19.4933 3.59416 19.4496 3.56421 19.3933C3.32993 18.9531 3.31298 18.9175 3.28918 18.7305C3.23255 18.2855 3.58436 18 4.097 18H6.44738C4.3352 16.8091 3 14.7019 3 12.4357ZM17.809 12.4357V11.6875C17.8814 11.7137 17.9609 11.7239 18.0426 11.7142C18.0582 11.7124 18.0939 11.709 18.1463 11.7054C18.4632 11.6837 18.8164 11.6935 19.1379 11.7559C19.9206 11.9078 20.1711 12.2378 19.8451 13.0914C19.52 13.9406 18.8493 14.5664 17.9172 15.0024C17.6505 15.1271 17.372 15.2317 17.088 15.3178C17.5547 14.4407 17.809 13.4599 17.809 12.4357ZM16.7919 10.099H4.01697V12.4357C4.01697 15.2861 6.68031 17.9184 10.3992 17.9184C14.2153 17.9184 16.7919 15.3603 16.7919 12.4357V10.099ZM4.48103 19.0773C4.51517 19.1325 4.54189 19.1769 4.56715 19.2212C4.59514 19.2703 4.66689 19.4059 4.71543 19.4976L4.71566 19.498L4.7157 19.4981L4.71577 19.4982C4.73796 19.5402 4.75525 19.5729 4.76119 19.5837C4.93193 19.8958 5.05291 20.011 5.11417 20.011H15.7697C16.0212 20.011 16.1438 19.9275 16.376 19.5914C16.4066 19.547 16.4953 19.4131 16.5526 19.3266L16.6017 19.2526C16.6681 19.1539 16.7193 19.0745 16.7576 19.011H4.44006L4.48103 19.0773ZM9.987 3.96064C10.0008 3.96728 10.0533 4.00431 10.1108 4.07079C10.3303 4.32438 10.3715 4.71926 10.0455 5.39024C9.54804 6.41514 9.634 7.24256 10.124 7.80971C10.2822 7.99277 10.4454 8.10816 10.5754 8.17077C10.8282 8.29246 11.1324 8.18743 11.2548 7.93618C11.3772 7.68493 11.2715 7.3826 11.0188 7.26091C11.0051 7.25434 10.9529 7.21741 10.8956 7.15104C10.6763 6.89731 10.6352 6.50174 10.9614 5.82972C11.4589 4.80575 11.3725 3.97853 10.8818 3.41152C10.7235 3.22849 10.56 3.11314 10.4299 3.05056C10.1771 2.92899 9.87298 3.03416 9.75068 3.28548C9.62837 3.53679 9.73418 3.83907 9.987 3.96064ZM7.3226 4.07079C7.26507 4.00431 7.2126 3.96728 7.19878 3.96064C6.94597 3.83907 6.84016 3.53679 6.96246 3.28548C7.08476 3.03416 7.38886 2.92899 7.64168 3.05056C7.7718 3.11314 7.93525 3.22849 8.09363 3.41152C8.58429 3.97853 8.67067 4.80575 8.17308 5.83003C7.84625 6.50219 7.88715 6.89766 8.10626 7.15126C8.16351 7.21751 8.21566 7.25437 8.22924 7.26091C8.482 7.3826 8.58766 7.68493 8.46523 7.93618C8.34281 8.18743 8.03866 8.29246 7.7859 8.17077C7.65595 8.1082 7.49279 7.99289 7.33473 7.80996C6.84461 7.24271 6.75901 6.41506 7.25731 5.39024C7.58328 4.71926 7.54204 4.32438 7.3226 4.07079Z" fill="currentcolor"/>
<path d="M12.765 3.96064L12.9817 3.51003L12.9817 3.51003L12.765 3.96064ZM12.8889 4.07079L12.5108 4.39797L12.5108 4.39797L12.8889 4.07079ZM12.5287 3.28548L12.0791 3.06668L12.0791 3.06668L12.5287 3.28548ZM13.2079 3.05056L13.4246 2.59995L13.4246 2.59995L13.2079 3.05056ZM13.6599 3.41152L13.2818 3.7387L13.2818 3.7387L13.6599 3.41152ZM13.7395 5.82972L13.2897 5.61123L13.2897 5.61138L13.7395 5.82972ZM13.6736 7.15104L13.2952 7.47793L13.2952 7.47793L13.6736 7.15104ZM13.7968 7.26091L14.0137 6.8104L14.0137 6.8104L13.7968 7.26091ZM14.0328 7.93618L14.4823 8.1552L14.4823 8.1552L14.0328 7.93618ZM13.3535 8.17077L13.1366 8.62127L13.3535 8.17077ZM12.902 7.80971L12.5237 8.13659V8.1366L12.902 7.80971ZM12.8236 5.39024L12.3738 5.17176L12.3738 5.17191L12.8236 5.39024ZM17.809 10.737H17.309V11.4484L17.9783 11.2075L17.809 10.737ZM17.9225 10.7103L17.8639 10.2138H17.8639L17.9225 10.7103ZM18.0763 10.6968L18.1105 11.1956L18.0763 10.6968ZM19.3328 10.7637L19.2376 11.2545L19.3328 10.7637ZM20.7958 13.4506L21.2628 13.6294L21.2629 13.6289L20.7958 13.4506ZM18.3503 15.9171L18.1384 15.4642V15.4642L18.3503 15.9171ZM16.5518 16.4903L16.6468 16.9812V16.9812L16.5518 16.4903ZM16.2546 16.5244L16.2786 16.025L16.0371 16.0134L15.878 16.1955L16.2546 16.5244ZM14.4285 18L14.1834 17.5642L12.5192 18.5H14.4285V18ZM17.8609 18.7937L18.3571 18.8547V18.8547L17.8609 18.7937ZM17.5031 19.6246L17.0702 19.3743L17.0687 19.3769L17.5031 19.6246ZM17.4633 19.6943L17.029 19.4466L17.0288 19.4469L17.4633 19.6943ZM17.2722 20.0275L17.7021 20.2827L17.7021 20.2827L17.2722 20.0275ZM3.82492 19.9436L4.27739 19.7308L4.27739 19.7308L3.82492 19.9436ZM3.76578 19.8142L3.31069 20.0214L3.31069 20.0214L3.76578 19.8142ZM3.63705 19.5347L4.08599 19.3146H4.08599L3.63705 19.5347ZM3.56421 19.3933L4.0056 19.1584L4.0056 19.1584L3.56421 19.3933ZM3.28918 18.7305L2.79318 18.7936L2.79318 18.7936L3.28918 18.7305ZM6.44738 18V18.5H8.35223L6.69295 17.5645L6.44738 18ZM17.809 11.6875L17.9791 11.2173L17.309 10.9748V11.6875H17.809ZM18.0426 11.7142L18.1013 12.2107H18.1013L18.0426 11.7142ZM18.1463 11.7054L18.1804 12.2042H18.1804L18.1463 11.7054ZM19.1379 11.7559L19.0427 12.2467L19.1379 11.7559ZM19.8451 13.0914L20.3121 13.2702L20.3123 13.2697L19.8451 13.0914ZM17.9172 15.0024L18.1291 15.4553L17.9172 15.0024ZM17.088 15.3178L16.6466 15.083L16.0812 16.1455L17.233 15.7963L17.088 15.3178ZM4.01697 10.099V9.59902H3.51697V10.099H4.01697ZM16.7919 10.099H17.2919V9.59902H16.7919V10.099ZM4.56715 19.2212L5.00148 18.9735L5.00147 18.9735L4.56715 19.2212ZM4.48103 19.0773L4.0556 19.34L4.0559 19.3405L4.48103 19.0773ZM4.71543 19.4976L4.2735 19.7315L4.2737 19.7319L4.71543 19.4976ZM4.71566 19.498L5.15968 19.2681L5.1574 19.2638L4.71566 19.498ZM4.7157 19.4981L4.27168 19.7281L4.27442 19.7332L4.7157 19.4981ZM4.71577 19.4982L5.15771 19.2644L5.15705 19.2632L4.71577 19.4982ZM4.76119 19.5837L4.32252 19.8236L4.32253 19.8237L4.76119 19.5837ZM16.376 19.5914L15.9645 19.3072L15.9645 19.3072L16.376 19.5914ZM16.5526 19.3266L16.136 19.0501L16.1357 19.0505L16.5526 19.3266ZM16.6017 19.2526L16.1868 18.9735L16.1851 18.9762L16.6017 19.2526ZM16.7576 19.011L17.1859 19.2689L17.6422 18.511H16.7576V19.011ZM4.44006 19.011V18.511H3.5437L4.01463 19.2737L4.44006 19.011ZM10.1108 4.07079L9.73272 4.39797L9.73272 4.39797L10.1108 4.07079ZM9.987 3.96064L9.77032 4.41125L9.77032 4.41125L9.987 3.96064ZM10.0455 5.39024L9.59579 5.17176L9.59572 5.17191L10.0455 5.39024ZM10.124 7.80971L9.74566 8.13659L10.124 7.80971ZM10.5754 8.17077L10.7924 7.72026H10.7924L10.5754 8.17077ZM11.2548 7.93618L11.7043 8.1552L11.7043 8.1552L11.2548 7.93618ZM11.0188 7.26091L11.2357 6.8104L11.2357 6.8104L11.0188 7.26091ZM10.8956 7.15104L11.2739 6.82416L11.2739 6.82416L10.8956 7.15104ZM10.9614 5.82972L10.5117 5.61123L10.5116 5.61138L10.9614 5.82972ZM10.8818 3.41152L11.2599 3.08434V3.08434L10.8818 3.41152ZM10.4299 3.05056L10.2132 3.50117L10.4299 3.05056ZM9.75068 3.28548L10.2003 3.50427V3.50427L9.75068 3.28548ZM7.19878 3.96064L6.9821 4.41125L6.98211 4.41125L7.19878 3.96064ZM7.3226 4.07079L6.94451 4.39797L6.94451 4.39797L7.3226 4.07079ZM6.96246 3.28548L7.41205 3.50427V3.50427L6.96246 3.28548ZM7.64168 3.05056L7.42499 3.50117L7.64168 3.05056ZM8.09363 3.41152L8.47173 3.08434L8.47172 3.08434L8.09363 3.41152ZM8.17308 5.83003L8.62274 6.04867L8.62282 6.04851L8.17308 5.83003ZM8.10626 7.15126L7.72793 7.47816L7.72793 7.47816L8.10626 7.15126ZM8.22924 7.26091L8.44614 6.8104L8.44614 6.8104L8.22924 7.26091ZM8.46523 7.93618L8.91471 8.1552V8.1552L8.46523 7.93618ZM7.7859 8.17077L7.569 8.62127L7.569 8.62127L7.7859 8.17077ZM7.33473 7.80996L7.71307 7.48306H7.71307L7.33473 7.80996ZM7.25731 5.39024L7.70698 5.60888L7.70705 5.60873L7.25731 5.39024ZM12.5484 4.41125C12.5369 4.40575 12.528 4.4009 12.5225 4.39779C12.5167 4.39448 12.5119 4.39164 12.5086 4.38955C12.5019 4.38544 12.4973 4.38228 12.495 4.38062C12.4901 4.37724 12.4887 4.37592 12.4901 4.37708C12.4928 4.37936 12.5008 4.38646 12.5108 4.39797L13.2669 3.74361C13.2194 3.68865 13.1724 3.644 13.131 3.60947C13.1011 3.58449 13.0461 3.54098 12.9817 3.51003L12.5484 4.41125ZM12.0791 3.06668C11.8348 3.5687 12.0474 4.17037 12.5484 4.41125L12.9817 3.51003C12.977 3.50776 12.978 3.50487 12.9783 3.50427L12.0791 3.06668ZM13.4246 2.59995C12.9253 2.35986 12.3226 2.56633 12.0791 3.06668L12.9783 3.50427C12.979 3.50292 12.9793 3.50266 12.9795 3.5025C12.9799 3.50211 12.981 3.50134 12.9828 3.50072C12.9846 3.50011 12.9862 3.49995 12.9873 3.50001C12.9881 3.50005 12.9892 3.50018 12.9912 3.50117L13.4246 2.59995ZM14.038 3.08434C13.8374 2.8526 13.62 2.69389 13.4246 2.59995L12.9912 3.50117C13.0562 3.53238 13.1656 3.60438 13.2818 3.7387L14.038 3.08434ZM14.1892 6.0482C14.7447 4.90483 14.6984 3.84758 14.038 3.08434L13.2818 3.7387C13.6026 4.10947 13.7292 4.70667 13.2897 5.61123L14.1892 6.0482ZM14.0519 6.82416C14.026 6.79411 14.0005 6.7521 14.002 6.65446C14.0036 6.54021 14.0437 6.34806 14.1893 6.04805L13.2897 5.61138C12.9321 6.34811 12.8785 6.99551 13.2952 7.47793L14.0519 6.82416ZM14.0137 6.8104C14.0253 6.81595 14.0342 6.82086 14.0398 6.82398C14.0457 6.82732 14.0504 6.83019 14.0538 6.83229C14.0604 6.83642 14.0651 6.8396 14.0675 6.84128C14.0723 6.84468 14.0738 6.84602 14.0724 6.84489C14.0698 6.84267 14.0618 6.83562 14.0519 6.82416L13.2952 7.47793C13.3427 7.53283 13.3896 7.57743 13.4308 7.61191C13.4604 7.63672 13.5155 7.68037 13.5799 7.71141L14.0137 6.8104ZM14.4823 8.1552C14.7269 7.6533 14.5145 7.05152 14.0137 6.8104L13.5799 7.71141C13.5846 7.71368 13.5836 7.71657 13.5833 7.71717L14.4823 8.1552ZM13.1366 8.62127C13.6358 8.8616 14.2386 8.65543 14.4823 8.1552L13.5833 7.71717C13.5827 7.71852 13.5823 7.71878 13.5821 7.71894C13.5817 7.71933 13.5806 7.7201 13.5788 7.72071C13.5771 7.72133 13.5755 7.72148 13.5743 7.72142C13.5736 7.72139 13.5725 7.72126 13.5704 7.72026L13.1366 8.62127ZM12.5237 8.1366C12.724 8.36841 12.9413 8.52724 13.1366 8.62127L13.5704 7.72026C13.5056 7.68909 13.3964 7.61714 13.2804 7.48283L12.5237 8.1366ZM12.3738 5.17191C11.8185 6.31586 11.8641 7.37311 12.5237 8.13659L13.2804 7.48283C12.96 7.11201 12.8337 6.51443 13.2734 5.60858L12.3738 5.17191ZM12.5108 4.39797C12.5369 4.42813 12.5621 4.46994 12.5608 4.56698C12.5592 4.68071 12.5193 4.8723 12.3738 5.17176L13.2733 5.60873C13.6308 4.87274 13.6842 4.22583 13.2669 3.74361L12.5108 4.39797ZM2.5 9.55384V12.4357H3.5V9.55384H2.5ZM3.50852 8.50867C2.91933 8.50867 2.5 9.00995 2.5 9.55384H3.5C3.5 9.53022 3.50867 9.51572 3.51457 9.50939C3.51742 9.50634 3.51868 9.50615 3.51707 9.50688C3.51498 9.50783 3.51163 9.50867 3.50852 9.50867V8.50867ZM17.3005 8.50867H3.50852V9.50867H17.3005V8.50867ZM18.309 9.55384C18.309 9.00995 17.8897 8.50867 17.3005 8.50867V9.50867C17.2974 9.50867 17.294 9.50783 17.2919 9.50688C17.2903 9.50615 17.2916 9.50634 17.2944 9.50939C17.3003 9.51572 17.309 9.53022 17.309 9.55384H18.309ZM18.309 10.737V9.55384H17.309V10.737H18.309ZM17.8639 10.2138C17.7862 10.2229 17.7111 10.2408 17.6396 10.2666L17.9783 11.2075C17.9787 11.2073 17.9796 11.207 17.9812 11.2069L17.8639 10.2138ZM18.0422 10.198C17.9667 10.2031 17.9059 10.2088 17.8639 10.2138L17.9812 11.2069C18.0025 11.2043 18.0463 11.2 18.1105 11.1956L18.0422 10.198ZM19.4281 10.2728C18.9537 10.1808 18.4728 10.1685 18.0422 10.198L18.1105 11.1956C18.4758 11.1706 18.867 11.1826 19.2376 11.2545L19.4281 10.2728ZM21.2629 13.6289C21.586 12.7829 21.5875 12.0051 21.214 11.3816C20.8458 10.767 20.1826 10.4193 19.4281 10.2728L19.2376 11.2545C19.8282 11.3691 20.1848 11.6095 20.3561 11.8955C20.522 12.1725 20.5825 12.6076 20.3287 13.2722L21.2629 13.6289ZM18.5621 16.37C19.8032 15.7895 20.7769 14.8982 21.2628 13.6294L20.3289 13.2718C19.9559 14.2458 19.2016 14.9669 18.1384 15.4642L18.5621 16.37ZM16.6468 16.9812C17.2917 16.8563 17.9436 16.6594 18.5621 16.37L18.1384 15.4642C17.6054 15.7136 17.0338 15.8877 16.4567 15.9994L16.6468 16.9812ZM16.2305 17.0239C16.3448 17.0294 16.4718 17.0151 16.6468 16.9812L16.4567 15.9994C16.3103 16.0278 16.2747 16.0248 16.2786 16.025L16.2305 17.0239ZM14.6736 18.4358C15.429 18.011 16.0885 17.4746 16.6311 16.8534L15.878 16.1955C15.412 16.729 14.842 17.1939 14.1834 17.5642L14.6736 18.4358ZM16.9876 17.5H14.4285V18.5H16.9876V17.5ZM18.3571 18.8547C18.4053 18.4629 18.2763 18.0989 17.9917 17.8445C17.721 17.6024 17.3567 17.5 16.9876 17.5V18.5C17.1842 18.5 17.286 18.5549 17.3252 18.59C17.3435 18.6063 17.3529 18.6216 17.3584 18.6371C17.3642 18.6531 17.3707 18.6828 17.3646 18.7326L18.3571 18.8547ZM17.9359 19.8749C18.1697 19.4706 18.3149 19.198 18.3571 18.8547L17.3646 18.7326C17.3505 18.8471 17.3127 18.9551 17.0702 19.3743L17.9359 19.8749ZM17.8977 19.942L17.9374 19.8723L17.0687 19.3769L17.029 19.4466L17.8977 19.942ZM17.7021 20.2827C17.7412 20.2169 17.843 20.038 17.8978 19.9417L17.0288 19.4469C16.9707 19.549 16.8753 19.7165 16.8422 19.7722L17.7021 20.2827ZM15.7696 21.5C16.2065 21.5 16.5872 21.4017 16.9228 21.1743C17.2475 20.9543 17.4899 20.6402 17.7021 20.2827L16.8422 19.7722C16.664 20.0724 16.5123 20.2445 16.3619 20.3464C16.2225 20.4409 16.0471 20.5 15.7696 20.5V21.5ZM5.11404 21.5H15.7696V20.5H5.11404V21.5ZM3.37245 20.1563C3.54306 20.5191 3.74237 20.8589 4.02357 21.1059C4.32476 21.3705 4.68611 21.5 5.11404 21.5V20.5C4.90868 20.5 4.78752 20.4459 4.6835 20.3546C4.55948 20.2457 4.43088 20.0572 4.27739 19.7308L3.37245 20.1563ZM3.31069 20.0214C3.33688 20.0789 3.36179 20.1337 3.37245 20.1563L4.27739 19.7308C4.27018 19.7155 4.24911 19.6692 4.22087 19.6071L3.31069 20.0214ZM3.18811 19.7548C3.20512 19.7895 3.26092 19.912 3.31069 20.0214L4.22087 19.6071C4.17586 19.5082 4.11125 19.3661 4.08599 19.3146L3.18811 19.7548ZM3.12282 19.6282C3.15139 19.6819 3.17118 19.7203 3.18811 19.7548L4.08599 19.3146C4.06234 19.2664 4.03693 19.2173 4.0056 19.1584L3.12282 19.6282ZM2.79318 18.7936C2.80792 18.9094 2.82568 19.0144 2.88646 19.1598C2.93424 19.2741 3.01122 19.4185 3.12282 19.6282L4.0056 19.1584C3.88292 18.9279 3.83429 18.8344 3.80907 18.7741C3.79685 18.7449 3.79424 18.7385 3.78518 18.6674L2.79318 18.7936ZM4.097 17.5C3.75481 17.5 3.40974 17.5948 3.15013 17.8223C2.87542 18.063 2.74466 18.4124 2.79318 18.7936L3.78518 18.6674C3.78022 18.6284 3.78582 18.609 3.7884 18.602C3.7909 18.5952 3.79562 18.5863 3.8091 18.5745C3.8394 18.5479 3.92655 18.5 4.097 18.5V17.5ZM6.44738 17.5H4.097V18.5H6.44738V17.5ZM2.5 12.4357C2.5 14.904 3.95226 17.1672 6.20181 18.4355L6.69295 17.5645C4.71815 16.451 3.5 14.4998 3.5 12.4357H2.5ZM17.309 11.6875V12.4357H18.309V11.6875H17.309ZM17.9839 11.2177C17.9812 11.218 17.98 11.2176 17.9791 11.2173L17.6389 12.1577C17.7828 12.2097 17.9406 12.2297 18.1013 12.2107L17.9839 11.2177ZM18.1121 11.2065C18.0556 11.2104 18.0109 11.2145 17.9839 11.2177L18.1013 12.2107C18.1013 12.2107 18.1033 12.2105 18.1076 12.2101C18.1117 12.2097 18.1173 12.2091 18.1243 12.2085C18.1383 12.2073 18.1572 12.2058 18.1804 12.2042L18.1121 11.2065ZM19.2332 11.2651C18.8587 11.1924 18.4603 11.1827 18.1121 11.2065L18.1804 12.2042C18.4661 12.1846 18.7741 12.1946 19.0427 12.2467L19.2332 11.2651ZM20.3123 13.2697C20.4851 12.817 20.5802 12.3278 20.3407 11.9113C20.1035 11.4988 19.6437 11.3447 19.2332 11.2651L19.0427 12.2467C19.4148 12.319 19.4715 12.4058 19.4738 12.4098C19.4747 12.4114 19.4777 12.4168 19.4804 12.4302C19.4832 12.4446 19.486 12.4703 19.4833 12.511C19.4777 12.5963 19.4497 12.7253 19.378 12.913L20.3123 13.2697ZM18.1291 15.4553C19.1454 14.9799 19.929 14.2706 20.3121 13.2702L19.3782 12.9126C19.1109 13.6105 18.5532 14.1529 17.7054 14.5495L18.1291 15.4553ZM17.233 15.7963C17.5376 15.704 17.8387 15.5911 18.1291 15.4553L17.7054 14.5495C17.4624 14.6632 17.2064 14.7595 16.9429 14.8393L17.233 15.7963ZM17.309 12.4357C17.309 13.376 17.0757 14.2764 16.6466 15.083L17.5294 15.5527C18.0337 14.605 18.309 13.5437 18.309 12.4357H17.309ZM4.01697 10.599H16.7919V9.59902H4.01697V10.599ZM4.51697 12.4357V10.099H3.51697V12.4357H4.51697ZM10.3992 17.4184C6.90401 17.4184 4.51697 14.9603 4.51697 12.4357H3.51697C3.51697 15.6119 6.45661 18.4184 10.3992 18.4184V17.4184ZM16.2919 12.4357C16.2919 15.0341 13.992 17.4184 10.3992 17.4184V18.4184C14.4387 18.4184 17.2919 15.6864 17.2919 12.4357H16.2919ZM16.2919 10.099V12.4357H17.2919V10.099H16.2919ZM5.00147 18.9735C4.97221 18.9222 4.94213 18.8722 4.90616 18.8141L4.0559 19.3405C4.0882 19.3927 4.11157 19.4317 4.13283 19.4689L5.00147 18.9735ZM5.15737 19.2638C5.11152 19.1771 5.03453 19.0315 5.00148 18.9735L4.13282 19.4689C4.15574 19.5091 4.22227 19.6347 4.2735 19.7315L5.15737 19.2638ZM5.1574 19.2638L5.15717 19.2634L4.2737 19.7319L4.27393 19.7323L5.1574 19.2638ZM5.1597 19.2682L5.15966 19.2681L4.27166 19.728L4.27171 19.728L5.1597 19.2682ZM5.15705 19.2632L5.15699 19.263L4.27442 19.7332L4.27448 19.7333L5.15705 19.2632ZM5.19986 19.3438C5.19988 19.3438 5.1998 19.3437 5.19958 19.3433C5.19937 19.3429 5.19908 19.3423 5.1987 19.3416C5.19793 19.3402 5.19694 19.3384 5.1957 19.336C5.19321 19.3314 5.19004 19.3254 5.18622 19.3182C5.17856 19.3038 5.16886 19.2855 5.15771 19.2644L4.27382 19.7321C4.29463 19.7714 4.31441 19.8088 4.32252 19.8236L5.19986 19.3438ZM5.11417 19.511C5.18395 19.511 5.23842 19.5271 5.27225 19.5404C5.30644 19.554 5.32984 19.5687 5.34187 19.5771C5.3645 19.5927 5.3687 19.6008 5.35524 19.5854C5.32905 19.5554 5.27607 19.4831 5.19985 19.3438L4.32253 19.8237C4.41705 19.9965 4.50993 20.1378 4.60223 20.2434C4.64802 20.2958 4.70462 20.3521 4.7725 20.3991C4.83155 20.44 4.9518 20.511 5.11417 20.511V19.511ZM15.7697 19.511H5.11417V20.511H15.7697V19.511ZM15.9645 19.3072C15.9116 19.3839 15.8724 19.4351 15.8419 19.47C15.8118 19.5045 15.7974 19.5149 15.7961 19.5157C15.7959 19.5159 15.7981 19.5143 15.8024 19.5124C15.8067 19.5104 15.8105 19.5092 15.8126 19.5087C15.8159 19.5078 15.8061 19.511 15.7697 19.511V20.511C15.9603 20.511 16.1637 20.477 16.3641 20.3387C16.5359 20.2201 16.668 20.0484 16.7874 19.8755L15.9645 19.3072ZM16.1357 19.0505C16.0764 19.1401 15.9916 19.2681 15.9645 19.3072L16.7874 19.8755C16.8216 19.826 16.9142 19.6861 16.9694 19.6027L16.1357 19.0505ZM16.1851 18.9762L16.136 19.0501L16.9692 19.6031L17.0183 19.5291L16.1851 18.9762ZM16.3292 18.7531C16.2971 18.8065 16.251 18.8781 16.1868 18.9736L17.0165 19.5317C17.0852 19.4297 17.1416 19.3425 17.1859 19.2689L16.3292 18.7531ZM4.44006 19.511H16.7576V18.511H4.44006V19.511ZM4.90647 18.8146L4.8655 18.7483L4.01463 19.2737L4.0556 19.34L4.90647 18.8146ZM10.4889 3.74361C10.4413 3.68865 10.3943 3.64399 10.353 3.60947C10.3231 3.58449 10.2681 3.54098 10.2037 3.51002L9.77032 4.41125C9.7589 4.40575 9.75001 4.4009 9.7445 4.3978C9.73863 4.39449 9.73391 4.39164 9.73054 4.38955C9.7239 4.38544 9.7193 4.38229 9.71692 4.38062C9.71211 4.37724 9.71067 4.37593 9.71206 4.37708C9.71478 4.37936 9.72276 4.38646 9.73272 4.39797L10.4889 3.74361ZM10.4953 5.60873C10.8528 4.87274 10.9062 4.22583 10.4889 3.74361L9.73272 4.39797C9.75882 4.42813 9.78411 4.46994 9.78275 4.56698C9.78115 4.68071 9.74127 4.8723 9.59579 5.17176L10.4953 5.60873ZM10.5024 7.48283C10.182 7.11202 10.0556 6.51443 10.4953 5.60858L9.59572 5.17191C9.04045 6.31586 9.08603 7.37311 9.74566 8.13659L10.5024 7.48283ZM10.7924 7.72026C10.7276 7.68909 10.6184 7.61714 10.5024 7.48283L9.74566 8.13659C9.94594 8.36841 10.1633 8.52724 10.3585 8.62127L10.7924 7.72026ZM10.8053 7.71717C10.8046 7.71852 10.8043 7.71878 10.8041 7.71894C10.8036 7.71933 10.8026 7.7201 10.8008 7.72071C10.799 7.72133 10.7974 7.72148 10.7963 7.72142C10.7955 7.72139 10.7944 7.72126 10.7924 7.72026L10.3585 8.62127C10.8577 8.8616 11.4605 8.65543 11.7043 8.1552L10.8053 7.71717ZM10.8019 7.71141C10.8066 7.71368 10.8056 7.71657 10.8053 7.71717L11.7043 8.1552C11.9488 7.6533 11.7365 7.05152 11.2357 6.8104L10.8019 7.71141ZM10.5172 7.47793C10.5646 7.53283 10.6115 7.57743 10.6527 7.61191C10.6824 7.63672 10.7374 7.68037 10.8019 7.71141L11.2357 6.8104C11.2472 6.81595 11.2562 6.82086 11.2617 6.82398C11.2676 6.82732 11.2724 6.83019 11.2757 6.83229C11.2824 6.83642 11.287 6.8396 11.2894 6.84128C11.2943 6.84468 11.2957 6.84602 11.2944 6.84489C11.2917 6.84268 11.2838 6.83562 11.2739 6.82416L10.5172 7.47793ZM10.5116 5.61138C10.154 6.34811 10.1004 6.99551 10.5172 7.47793L11.2739 6.82416C11.2479 6.79411 11.2225 6.7521 11.2239 6.65446C11.2256 6.54021 11.2656 6.34806 11.4113 6.04805L10.5116 5.61138ZM10.5038 3.7387C10.8246 4.10947 10.9511 4.70667 10.5117 5.61123L11.4112 6.0482C11.9666 4.90483 11.9204 3.84758 11.2599 3.08434L10.5038 3.7387ZM10.2132 3.50117C10.2781 3.53238 10.3875 3.60438 10.5038 3.7387L11.2599 3.08434C11.0594 2.8526 10.8419 2.69389 10.6466 2.59995L10.2132 3.50117ZM10.2003 3.50427C10.2009 3.50292 10.2013 3.50266 10.2015 3.5025C10.2019 3.50211 10.203 3.50134 10.2048 3.50072C10.2065 3.50011 10.2081 3.49995 10.2093 3.50001C10.21 3.50005 10.2111 3.50018 10.2132 3.50117L10.6466 2.59995C10.1473 2.35986 9.54459 2.56633 9.30109 3.06668L10.2003 3.50427ZM10.2037 3.51003C10.199 3.50776 10.2 3.50487 10.2003 3.50427L9.30109 3.06668C9.05678 3.5687 9.2694 4.17037 9.77032 4.41125L10.2037 3.51003ZM6.98211 4.41125C6.97068 4.40575 6.96179 4.4009 6.95628 4.3978C6.95041 4.39449 6.94569 4.39164 6.94232 4.38955C6.93569 4.38544 6.93109 4.38229 6.92871 4.38062C6.9239 4.37724 6.92246 4.37593 6.92384 4.37708C6.92657 4.37936 6.93455 4.38646 6.94451 4.39797L7.70069 3.74361C7.65313 3.68865 7.60611 3.64399 7.56476 3.60947C7.53484 3.58449 7.47984 3.54098 7.41546 3.51002L6.98211 4.41125ZM6.51287 3.06668C6.26856 3.5687 6.48118 4.17037 6.9821 4.41125L7.41547 3.51003C7.41075 3.50776 7.41176 3.50487 7.41205 3.50427L6.51287 3.06668ZM7.85836 2.59995C7.35907 2.35986 6.75637 2.56633 6.51287 3.06668L7.41205 3.50427C7.4127 3.50292 7.41306 3.50266 7.41324 3.5025C7.4137 3.50211 7.41478 3.50134 7.41656 3.50072C7.41833 3.50011 7.41992 3.49995 7.42104 3.50001C7.42181 3.50005 7.42293 3.50018 7.42499 3.50117L7.85836 2.59995ZM8.47172 3.08434C8.27119 2.8526 8.0537 2.69389 7.85836 2.59995L7.42499 3.50117C7.48991 3.53238 7.5993 3.60438 7.71554 3.7387L8.47172 3.08434ZM8.62282 6.04851C9.1784 4.90487 9.13222 3.84761 8.47173 3.08434L7.71554 3.7387C8.03637 4.10945 8.16295 4.70663 7.72334 5.61154L8.62282 6.04851ZM8.4846 6.82436C8.45879 6.79449 8.43341 6.75269 8.43488 6.65515C8.43661 6.54097 8.47681 6.3488 8.62274 6.04867L7.72342 5.61138C7.36523 6.34804 7.31098 6.99561 7.72793 7.47816L8.4846 6.82436ZM8.44614 6.8104C8.45771 6.81597 8.46669 6.82089 8.47223 6.82402C8.47814 6.82736 8.48289 6.83023 8.48627 6.83233C8.49293 6.83647 8.49756 6.83965 8.49995 6.84133C8.5048 6.84474 8.50629 6.84609 8.50495 6.84497C8.50233 6.84278 8.49445 6.83577 8.4846 6.82436L7.72793 7.47816C7.77531 7.533 7.82214 7.57754 7.8633 7.61197C7.89288 7.63672 7.94787 7.68037 8.01234 7.71141L8.44614 6.8104ZM8.91471 8.1552C9.15927 7.6533 8.94695 7.05152 8.44614 6.8104L8.01234 7.71141C8.01705 7.71368 8.01604 7.71657 8.01575 7.71717L8.91471 8.1552ZM7.569 8.62127C8.06817 8.8616 8.67097 8.65543 8.91471 8.1552L8.01575 7.71717C8.01509 7.71852 8.01474 7.71878 8.01456 7.71894C8.0141 7.71933 8.01301 7.7201 8.01124 7.72071C8.00946 7.72133 8.00787 7.72148 8.00675 7.72142C8.00599 7.72139 8.00487 7.72126 8.0028 7.72026L7.569 8.62127ZM6.9564 8.13685C7.15658 8.36854 7.37378 8.52728 7.569 8.62127L8.0028 7.72026C7.93811 7.68912 7.829 7.61724 7.71307 7.48306L6.9564 8.13685ZM6.80765 5.1716C6.25148 6.31543 6.29648 7.3731 6.9564 8.13685L7.71307 7.48306C7.39274 7.11232 7.26654 6.51468 7.70697 5.60888L6.80765 5.1716ZM6.94451 4.39797C6.9706 4.42813 6.99589 4.46994 6.99453 4.56698C6.99294 4.68071 6.95305 4.8723 6.80757 5.17176L7.70705 5.60873C8.06459 4.87274 8.11798 4.22583 7.70069 3.74361L6.94451 4.39797Z" fill="currentcolor"/>
</svg>
