<svg width="24" height="24" viewBox="0 0 24 24" fill="none" xmlns="http://www.w3.org/2000/svg">
<path fill-rule="evenodd" clip-rule="evenodd" d="M4 21C3.72386 21 3.5 20.7761 3.5 20.5V2.2824C3.5 2.12771 3.6295 2 3.78635 2H14.2136C14.3705 2 14.5 2.12771 14.5 2.2824V7.99999H20.2559C20.4127 7.99999 20.5422 8.1277 20.5422 8.2824L20.5016 20.5017C20.5006 20.7771 20.2771 21 20.0016 21H4ZM12.2928 3.99999C12.4065 3.99999 12.5 4.1033 12.5 4.22863V18.7714C12.5 18.8967 12.4065 19 12.2928 19H5.7072C5.59353 19 5.50002 18.8967 5.50002 18.7714V4.22863C5.50002 4.1033 5.59353 3.99999 5.7072 3.99999H12.2928ZM11.5 5.08444C11.5 5.03852 11.4541 5 11.3995 5H9.60053C9.54586 5 9.5 5.03852 9.5 5.08444V6.91556C9.5 6.96148 9.54586 7 9.60053 7H11.3995C11.4541 7 11.5 6.96148 11.5 6.91556V5.08444ZM11.3995 8.5C11.4541 8.5 11.5 8.53852 11.5 8.58444V10.4156C11.5 10.4615 11.4541 10.5 11.3995 10.5H9.60053C9.54586 10.5 9.5 10.4615 9.5 10.4156V8.58444C9.5 8.53852 9.54586 8.5 9.60053 8.5H11.3995ZM8.50002 5.08444C8.50002 5.03851 8.45417 4.99999 8.3995 4.99999H6.60055C6.54588 4.99999 6.50002 5.03851 6.50002 5.08444V6.91555C6.50002 6.96148 6.54588 6.99999 6.60055 6.99999H8.3995C8.45417 6.99999 8.50002 6.96148 8.50002 6.91555V5.08444ZM8.39947 8.5C8.45414 8.5 8.5 8.53852 8.5 8.58444V10.4156C8.5 10.4615 8.45414 10.5 8.39947 10.5H6.60053C6.54586 10.5 6.5 10.4615 6.5 10.4156V8.58444C6.5 8.53852 6.54586 8.5 6.60053 8.5H8.39947ZM11.5 12.0844C11.5 12.0385 11.4541 12 11.3995 12H9.60053C9.54586 12 9.5 12.0385 9.5 12.0844V13.9156C9.5 13.9615 9.54586 14 9.60053 14H11.3995C11.4541 14 11.5 13.9615 11.5 13.9156V12.0844ZM8.39947 12C8.45414 12 8.5 12.0385 8.5 12.0844V13.9156C8.5 13.9615 8.45414 14 8.39947 14H6.60053C6.54586 14 6.5 13.9615 6.5 13.9156V12.0844C6.5 12.0385 6.54586 12 6.60053 12H8.39947ZM11.5 15.5844C11.5 15.5385 11.4541 15.5 11.3995 15.5H9.60053C9.54586 15.5 9.5 15.5385 9.5 15.5844V17.4156C9.5 17.4615 9.54586 17.5 9.60053 17.5H11.3995C11.4541 17.5 11.5 17.4615 11.5 17.4156V15.5844ZM8.39947 15.5C8.45414 15.5 8.5 15.5385 8.5 15.5844V17.4156C8.5 17.4615 8.45414 17.5 8.39947 17.5H6.60053C6.54586 17.5 6.5 17.4615 6.5 17.4156V15.5844C6.5 15.5385 6.54586 15.5 6.60053 15.5H8.39947ZM18.5 10.2427C18.5 10.1096 18.4332 9.99999 18.352 9.99999H14.648C14.5668 9.99999 14.5 10.1096 14.5 10.2427L14.5 18.7573C14.5 18.8903 14.5668 19 14.648 19H18.352C18.4332 19 18.5 18.8903 18.5 18.7573V10.2427ZM17.3995 12C17.4541 12 17.5 12.0385 17.5 12.0844V13.9156C17.5 13.9615 17.4541 14 17.3995 14H15.6005C15.5459 14 15.5 13.9615 15.5 13.9156V12.0844C15.5 12.0385 15.5459 12 15.6005 12H17.3995ZM17.5 15.5844C17.5 15.5385 17.4541 15.5 17.3995 15.5H15.6005C15.5459 15.5 15.5 15.5385 15.5 15.5844V17.4156C15.5 17.4615 15.5459 17.5 15.6005 17.5H17.3995C17.4541 17.5 17.5 17.4615 17.5 17.4156V15.5844Z" fill="currentcolor"/>
</svg>
