<svg width="24" height="24" viewBox="0 0 24 24" fill="none" xmlns="http://www.w3.org/2000/svg">
<path fill-rule="evenodd" clip-rule="evenodd" d="M4.50006 20.4999C4.50006 20.7761 4.72395 21 5.00012 20.9999L18.991 20.9983C19.2671 20.9982 19.491 20.7744 19.491 20.4983V10.2076C19.491 10.0529 19.3615 9.92515 19.2046 9.92515H13.5138V4.2824C13.5138 4.12771 13.3843 4 13.2275 4H4.78641C4.62956 4 4.50006 4.12771 4.50006 4.2824V20.4999ZM12.5001 5.22863C12.5001 5.10331 12.4066 5 12.2929 5H5.70724C5.59356 5 5.50006 5.10331 5.50006 5.22863V19.7714C5.50006 19.8967 5.59356 20 5.70724 20H12.2929C12.4066 20 12.5001 19.8967 12.5001 19.7714V5.22863ZM11.4498 6C11.4771 6 11.5001 6.01926 11.5001 6.04222V6.95778C11.5001 6.98074 11.4771 7 11.4498 7H10.5503C10.523 7 10.5001 6.98074 10.5001 6.95778V6.04222C10.5001 6.01926 10.523 6 10.5503 6H11.4498ZM11.5001 8.04222C11.5001 8.01926 11.4771 8 11.4498 8H10.5503C10.523 8 10.5001 8.01926 10.5001 8.04222V8.95778C10.5001 8.98074 10.523 9 10.5503 9H11.4498C11.4771 9 11.5001 8.98074 11.5001 8.95778V8.04222ZM9.4498 6C9.47713 6 9.50006 6.01926 9.50006 6.04222V6.95778C9.50006 6.98074 9.47713 7 9.4498 7H8.55032C8.52299 7 8.50006 6.98074 8.50006 6.95778V6.04222C8.50006 6.01926 8.52299 6 8.55032 6H9.4498ZM9.50006 8.04222C9.50006 8.01926 9.47713 8 9.4498 8H8.55032C8.52299 8 8.50006 8.01926 8.50006 8.04222V8.95778C8.50006 8.98074 8.52299 9 8.55032 9H9.4498C9.47713 9 9.50006 8.98074 9.50006 8.95778V8.04222ZM7.4498 6C7.47713 6 7.50006 6.01926 7.50006 6.04222V6.95778C7.50006 6.98074 7.47713 7 7.4498 7H6.55032C6.52299 7 6.50006 6.98074 6.50006 6.95778V6.04222C6.50006 6.01926 6.52299 6 6.55032 6H7.4498ZM7.50006 8.04222C7.50006 8.01926 7.47713 8 7.4498 8H6.55032C6.52299 8 6.50006 8.01926 6.50006 8.04222V8.95778C6.50006 8.98074 6.52299 9 6.55032 9H7.4498C7.47713 9 7.50006 8.98074 7.50006 8.95778V8.04222ZM11.4498 10C11.4771 10 11.5001 10.0193 11.5001 10.0422V10.9578C11.5001 10.9807 11.4771 11 11.4498 11H10.5503C10.523 11 10.5001 10.9807 10.5001 10.9578V10.0422C10.5001 10.0193 10.523 10 10.5503 10H11.4498ZM9.50006 10.0422C9.50006 10.0193 9.47713 10 9.4498 10H8.55032C8.52299 10 8.50006 10.0193 8.50006 10.0422V10.9578C8.50006 10.9807 8.52299 11 8.55032 11H9.4498C9.47713 11 9.50006 10.9807 9.50006 10.9578V10.0422ZM7.4498 10C7.47713 10 7.50006 10.0193 7.50006 10.0422V10.9578C7.50006 10.9807 7.47713 11 7.4498 11H6.55032C6.52299 11 6.50006 10.9807 6.50006 10.9578V10.0422C6.50006 10.0193 6.52299 10 6.55032 10H7.4498ZM11.5001 12.0422C11.5001 12.0193 11.4771 12 11.4498 12H10.5503C10.523 12 10.5001 12.0193 10.5001 12.0422V12.9578C10.5001 12.9807 10.523 13 10.5503 13H11.4498C11.4771 13 11.5001 12.9807 11.5001 12.9578V12.0422ZM9.4498 12C9.47713 12 9.50006 12.0193 9.50006 12.0422V12.9578C9.50006 12.9807 9.47713 13 9.4498 13H8.55032C8.52299 13 8.50006 12.9807 8.50006 12.9578V12.0422C8.50006 12.0193 8.52299 12 8.55032 12H9.4498ZM7.50006 12.0422C7.50006 12.0193 7.47713 12 7.4498 12H6.55032C6.52299 12 6.50006 12.0193 6.50006 12.0422V12.9578C6.50006 12.9807 6.52299 13 6.55032 13H7.4498C7.47713 13 7.50006 12.9807 7.50006 12.9578V12.0422ZM11.4498 14C11.4771 14 11.5001 14.0193 11.5001 14.0422V14.9578C11.5001 14.9807 11.4771 15 11.4498 15H10.5503C10.523 15 10.5001 14.9807 10.5001 14.9578V14.0422C10.5001 14.0193 10.523 14 10.5503 14H11.4498ZM9.50006 14.0422C9.50006 14.0193 9.47713 14 9.4498 14H8.55032C8.52299 14 8.50006 14.0193 8.50006 14.0422V14.9578C8.50006 14.9807 8.52299 15 8.55032 15H9.4498C9.47713 15 9.50006 14.9807 9.50006 14.9578V14.0422ZM7.4498 14C7.47713 14 7.50006 14.0193 7.50006 14.0422V14.9578C7.50006 14.9807 7.47713 15 7.4498 15H6.55032C6.52299 15 6.50006 14.9807 6.50006 14.9578V14.0422C6.50006 14.0193 6.52299 14 6.55032 14H7.4498ZM11.5001 16.0422C11.5001 16.0193 11.4771 16 11.4498 16H10.5503C10.523 16 10.5001 16.0193 10.5001 16.0422V16.9578C10.5001 16.9807 10.523 17 10.5503 17H11.4498C11.4771 17 11.5001 16.9807 11.5001 16.9578V16.0422ZM9.4498 16C9.47713 16 9.50006 16.0193 9.50006 16.0422V16.9578C9.50006 16.9807 9.47713 17 9.4498 17H8.55032C8.52299 17 8.50006 16.9807 8.50006 16.9578V16.0422C8.50006 16.0193 8.52299 16 8.55032 16H9.4498ZM7.50006 16.0422C7.50006 16.0193 7.47713 16 7.4498 16H6.55032C6.52299 16 6.50006 16.0193 6.50006 16.0422V16.9578C6.50006 16.9807 6.52299 17 6.55032 17H7.4498C7.47713 17 7.50006 16.9807 7.50006 16.9578V16.0422ZM11.4498 18C11.4771 18 11.5001 18.0193 11.5001 18.0422V18.9578C11.5001 18.9807 11.4771 19 11.4498 19H10.5503C10.523 19 10.5001 18.9807 10.5001 18.9578V18.0422C10.5001 18.0193 10.523 18 10.5503 18H11.4498ZM9.50006 18.0422C9.50006 18.0193 9.47713 18 9.4498 18H8.55032C8.52299 18 8.50006 18.0193 8.50006 18.0422V18.9578C8.50006 18.9807 8.52299 19 8.55032 19H9.4498C9.47713 19 9.50006 18.9807 9.50006 18.9578V18.0422ZM7.4498 18C7.47713 18 7.50006 18.0193 7.50006 18.0422V18.9578C7.50006 18.9807 7.47713 19 7.4498 19H6.55032C6.52299 19 6.50006 18.9807 6.50006 18.9578V18.0422C6.50006 18.0193 6.52299 18 6.55032 18H7.4498ZM18.5001 11.2427C18.5001 11.1096 18.4333 11 18.3521 11H13.648C13.5668 11 13.5001 11.1096 13.5001 11.2427V19.7573C13.5001 19.8904 13.5668 20 13.648 20H18.3521C18.4333 20 18.5001 19.8904 18.5001 19.7573V11.2427ZM14.5503 12H15.4498C15.4771 12 15.5001 12.0193 15.5001 12.0422V12.9578C15.5001 12.9807 15.4771 13 15.4498 13H14.5503C14.523 13 14.5001 12.9807 14.5001 12.9578V12.0422C14.5001 12.0193 14.523 12 14.5503 12ZM15.4498 14H14.5503C14.523 14 14.5001 14.0193 14.5001 14.0422V14.9578C14.5001 14.9807 14.523 15 14.5503 15H15.4498C15.4771 15 15.5001 14.9807 15.5001 14.9578V14.0422C15.5001 14.0193 15.4771 14 15.4498 14ZM16.5503 12H17.4498C17.4771 12 17.5001 12.0193 17.5001 12.0422V12.9578C17.5001 12.9807 17.4771 13 17.4498 13H16.5503C16.523 13 16.5001 12.9807 16.5001 12.9578V12.0422C16.5001 12.0193 16.523 12 16.5503 12ZM17.4498 14H16.5503C16.523 14 16.5001 14.0193 16.5001 14.0422V14.9578C16.5001 14.9807 16.523 15 16.5503 15H17.4498C17.4771 15 17.5001 14.9807 17.5001 14.9578V14.0422C17.5001 14.0193 17.4771 14 17.4498 14ZM14.5503 16H15.4498C15.4771 16 15.5001 16.0193 15.5001 16.0422V16.9578C15.5001 16.9807 15.4771 17 15.4498 17H14.5503C14.523 17 14.5001 16.9807 14.5001 16.9578V16.0422C14.5001 16.0193 14.523 16 14.5503 16ZM17.4498 16H16.5503C16.523 16 16.5001 16.0193 16.5001 16.0422V16.9578C16.5001 16.9807 16.523 17 16.5503 17H17.4498C17.4771 17 17.5001 16.9807 17.5001 16.9578V16.0422C17.5001 16.0193 17.4771 16 17.4498 16ZM14.5503 18H15.4498C15.4771 18 15.5001 18.0193 15.5001 18.0422V18.9578C15.5001 18.9807 15.4771 19 15.4498 19H14.5503C14.523 19 14.5001 18.9807 14.5001 18.9578V18.0422C14.5001 18.0193 14.523 18 14.5503 18ZM17.4498 18H16.5503C16.523 18 16.5001 18.0193 16.5001 18.0422V18.9578C16.5001 18.9807 16.523 19 16.5503 19H17.4498C17.4771 19 17.5001 18.9807 17.5001 18.9578V18.0422C17.5001 18.0193 17.4771 18 17.4498 18Z" fill="currentcolor"/>
</svg>
