<svg width="24" height="24" viewBox="0 0 24 24" fill="none" xmlns="http://www.w3.org/2000/svg">
<path d="M11 4H13.01V6H11V4Z" fill="currentcolor"/>
<path d="M7 6H9.01V8H7V6Z" fill="currentcolor"/>
<path d="M15 6H17.01V8H15V6Z" fill="currentcolor"/>
<path fill-rule="evenodd" clip-rule="evenodd" d="M2 11C2 5.47715 6.47715 1 12 1C17.5228 1 22 5.47715 22 11V12H2V11ZM4.06189 10H19.9381C19.446 6.05369 16.0796 3 12 3C7.92038 3 4.55399 6.05369 4.06189 10Z" fill="currentcolor"/>
<path d="M1 13H12.3028L15 14.7982L17.6972 13H23V15H18.3028L15 17.2019L11.6972 15H1V13Z" fill="currentcolor"/>
<path d="M2 16H12V18H4V20H20V18H18V16H22V22H2V16Z" fill="currentcolor"/>
</svg>
