<svg width="24" height="24" viewBox="0 0 24 24" fill="none" xmlns="http://www.w3.org/2000/svg">
<path d="M8.63945 11.8128C8.45349 11.6269 8.45352 11.3254 8.63951 11.1394C8.8255 10.9535 9.12703 10.9535 9.31299 11.1395L12 13.8266L14.687 11.1395C14.873 10.9535 15.1745 10.9535 15.3605 11.1394C15.5465 11.3254 15.5465 11.6269 15.3605 11.8128L12.6734 14.5L15.3605 17.1872C15.5465 17.3731 15.5465 17.6746 15.3605 17.8606C15.1745 18.0465 14.873 18.0465 14.687 17.8605L12 15.1734L9.31299 17.8605C9.12703 18.0465 8.8255 18.0465 8.63951 17.8606C8.45352 17.6746 8.45349 17.3731 8.63945 17.1872L11.3266 14.5L8.63945 11.8128Z" fill="currentcolor"/>
<path fill-rule="evenodd" clip-rule="evenodd" d="M7.4999 4C7.4999 3.72386 7.72376 3.5 7.9999 3.5C8.27604 3.5 8.4999 3.72386 8.4999 4V4.5H15.4999V4C15.4999 3.72386 15.7238 3.5 15.9999 3.5C16.276 3.5 16.4999 3.72386 16.4999 4V4.5H17.787C19.2851 4.5 20.5 5.71486 20.5 7.213V17.787C20.5 19.2851 19.2851 20.5 17.787 20.5H6.213C4.71486 20.5 3.5 19.2851 3.5 17.787V7.213C3.5 5.71486 4.71486 4.5 6.213 4.5H7.4999V4ZM15.4999 5.5V6C15.4999 6.27614 15.7238 6.5 15.9999 6.5C16.276 6.5 16.4999 6.27614 16.4999 6V5.5H17.787C18.7329 5.5 19.5 6.26714 19.5 7.213V8.5H4.5V7.213C4.5 6.26714 5.26714 5.5 6.213 5.5H7.4999V6C7.4999 6.27614 7.72376 6.5 7.9999 6.5C8.27604 6.5 8.4999 6.27614 8.4999 6V5.5H15.4999ZM4.5 9.5H19.5V17.787C19.5 18.7329 18.7329 19.5 17.787 19.5H6.213C5.26714 19.5 4.5 18.7329 4.5 17.787V9.5Z" fill="currentcolor"/>
<path d="M8.63945 11.8128C8.45349 11.6269 8.45352 11.3254 8.63951 11.1394C8.8255 10.9535 9.12703 10.9535 9.31299 11.1395L12 13.8266L14.687 11.1395C14.873 10.9535 15.1745 10.9535 15.3605 11.1394C15.5465 11.3254 15.5465 11.6269 15.3605 11.8128L12.6734 14.5L15.3605 17.1872C15.5465 17.3731 15.5465 17.6746 15.3605 17.8606C15.1745 18.0465 14.873 18.0465 14.687 17.8605L12 15.1734L9.31299 17.8605C9.12703 18.0465 8.8255 18.0465 8.63951 17.8606C8.45352 17.6746 8.45349 17.3731 8.63945 17.1872L11.3266 14.5L8.63945 11.8128Z" stroke="currentcolor" stroke-linecap="round"/>
<path fill-rule="evenodd" clip-rule="evenodd" d="M7.4999 4C7.4999 3.72386 7.72376 3.5 7.9999 3.5C8.27604 3.5 8.4999 3.72386 8.4999 4V4.5H15.4999V4C15.4999 3.72386 15.7238 3.5 15.9999 3.5C16.276 3.5 16.4999 3.72386 16.4999 4V4.5H17.787C19.2851 4.5 20.5 5.71486 20.5 7.213V17.787C20.5 19.2851 19.2851 20.5 17.787 20.5H6.213C4.71486 20.5 3.5 19.2851 3.5 17.787V7.213C3.5 5.71486 4.71486 4.5 6.213 4.5H7.4999V4ZM15.4999 5.5V6C15.4999 6.27614 15.7238 6.5 15.9999 6.5C16.276 6.5 16.4999 6.27614 16.4999 6V5.5H17.787C18.7329 5.5 19.5 6.26714 19.5 7.213V8.5H4.5V7.213C4.5 6.26714 5.26714 5.5 6.213 5.5H7.4999V6C7.4999 6.27614 7.72376 6.5 7.9999 6.5C8.27604 6.5 8.4999 6.27614 8.4999 6V5.5H15.4999ZM4.5 9.5H19.5V17.787C19.5 18.7329 18.7329 19.5 17.787 19.5H6.213C5.26714 19.5 4.5 18.7329 4.5 17.787V9.5Z" stroke="currentcolor" stroke-linecap="round"/>
</svg>
