<svg width="24" height="24" viewBox="0 0 24 24" fill="none" xmlns="http://www.w3.org/2000/svg">
<path d="M15 14.5C15 14.776 14.776 15 14.5 15H12.5V17C12.5 17.276 12.276 17.5 12 17.5C11.724 17.5 11.5 17.276 11.5 17V15H9.5C9.224 15 9 14.776 9 14.5C9 14.224 9.224 14 9.5 14H11.5V12C11.5 11.724 11.724 11.5 12 11.5C12.276 11.5 12.5 11.724 12.5 12V14H14.5C14.776 14 15 14.224 15 14.5Z" fill="currentcolor"/>
<path fill-rule="evenodd" clip-rule="evenodd" d="M7.4999 4C7.4999 3.72386 7.72376 3.5 7.9999 3.5C8.27604 3.5 8.4999 3.72386 8.4999 4V4.5H15.4999V4C15.4999 3.72386 15.7238 3.5 15.9999 3.5C16.276 3.5 16.4999 3.72386 16.4999 4V4.5H17.787C19.2851 4.5 20.5 5.71486 20.5 7.213V17.787C20.5 19.2851 19.2851 20.5 17.787 20.5H6.213C4.71486 20.5 3.5 19.2851 3.5 17.787V7.213C3.5 5.71486 4.71486 4.5 6.213 4.5H7.4999V4ZM15.4999 5.5V6C15.4999 6.27614 15.7238 6.5 15.9999 6.5C16.276 6.5 16.4999 6.27614 16.4999 6V5.5H17.787C18.7329 5.5 19.5 6.26714 19.5 7.213V8.5H4.5V7.213C4.5 6.26714 5.26714 5.5 6.213 5.5H7.4999V6C7.4999 6.27614 7.72376 6.5 7.9999 6.5C8.27604 6.5 8.4999 6.27614 8.4999 6V5.5H15.4999ZM4.5 9.5H19.5V17.787C19.5 18.7329 18.7329 19.5 17.787 19.5H6.213C5.26714 19.5 4.5 18.7329 4.5 17.787V9.5Z" fill="currentcolor"/>
<path fill-rule="evenodd" clip-rule="evenodd" d="M6.9999 4C6.9999 3.44772 7.44762 3 7.9999 3C8.55219 3 8.9999 3.44772 8.9999 4H14.9999C14.9999 3.44772 15.4476 3 15.9999 3C16.5522 3 16.9999 3.44772 16.9999 4H17.787C19.5613 4 21 5.43872 21 7.213V17.787C21 19.5613 19.5613 21 17.787 21H6.213C4.43872 21 3 19.5613 3 17.787V7.213C3 5.43872 4.43872 4 6.213 4H6.9999ZM6.213 6C5.54328 6 5 6.54328 5 7.213V8H19V7.213C19 6.54328 18.4567 6 17.787 6H16.9999C16.9999 6.55228 16.5522 7 15.9999 7C15.4476 7 14.9999 6.55228 14.9999 6H8.9999C8.9999 6.55228 8.55219 7 7.9999 7C7.44762 7 6.9999 6.55228 6.9999 6H6.213ZM5 10V17.787C5 18.4567 5.54328 19 6.213 19H17.787C18.4567 19 19 18.4567 19 17.787V10H5ZM11 12C11 11.4479 11.4479 11 12 11C12.5521 11 13 11.4479 13 12V13.5H14.5C15.0521 13.5 15.5 13.9479 15.5 14.5C15.5 15.0521 15.0521 15.5 14.5 15.5H13V17C13 17.5521 12.5521 18 12 18C11.4479 18 11 17.5521 11 17V15.5H9.5C8.94786 15.5 8.5 15.0521 8.5 14.5C8.5 13.9479 8.94786 13.5 9.5 13.5H11V12Z" fill="currentcolor"/>
</svg>
