<svg width="24" height="24" viewBox="0 0 24 24" fill="none" xmlns="http://www.w3.org/2000/svg">
<path d="M10.292 16.1543L15.002 11.6633C15.2303 11.4456 15.6005 11.4456 15.8288 11.6633C16.0571 11.881 16.0571 12.2339 15.8288 12.4516L10.7057 17.3367C10.4774 17.5544 10.1072 17.5544 9.87893 17.3367L8.17122 15.7084C7.94292 15.4907 7.94292 15.1377 8.17122 14.92C8.39952 14.7023 8.76967 14.7023 8.99797 14.92L10.292 16.1543Z" fill="currentcolor"/>
<path fill-rule="evenodd" clip-rule="evenodd" d="M7.4999 4C7.4999 3.72386 7.72376 3.5 7.9999 3.5C8.27604 3.5 8.4999 3.72386 8.4999 4V4.5H15.4999V4C15.4999 3.72386 15.7238 3.5 15.9999 3.5C16.276 3.5 16.4999 3.72386 16.4999 4V4.5H17.787C19.2851 4.5 20.5 5.71486 20.5 7.213V17.787C20.5 19.2851 19.2851 20.5 17.787 20.5H6.213C4.71486 20.5 3.5 19.2851 3.5 17.787V7.213C3.5 5.71486 4.71486 4.5 6.213 4.5H7.4999V4ZM15.4999 5.5V6C15.4999 6.27614 15.7238 6.5 15.9999 6.5C16.276 6.5 16.4999 6.27614 16.4999 6V5.5H17.787C18.7329 5.5 19.5 6.26714 19.5 7.213V8.5H4.5V7.213C4.5 6.26714 5.26714 5.5 6.213 5.5H7.4999V6C7.4999 6.27614 7.72376 6.5 7.9999 6.5C8.27604 6.5 8.4999 6.27614 8.4999 6V5.5H15.4999ZM4.5 9.5H19.5V17.787C19.5 18.7329 18.7329 19.5 17.787 19.5H6.213C5.26714 19.5 4.5 18.7329 4.5 17.787V9.5Z" fill="currentcolor"/>
<path fill-rule="evenodd" clip-rule="evenodd" d="M6.9999 4C6.9999 3.44772 7.44762 3 7.9999 3C8.55219 3 8.9999 3.44772 8.9999 4H14.9999C14.9999 3.44772 15.4476 3 15.9999 3C16.5522 3 16.9999 3.44772 16.9999 4H17.787C19.5613 4 21 5.43872 21 7.213V17.787C21 19.5613 19.5613 21 17.787 21H6.213C4.43872 21 3 19.5613 3 17.787V7.213C3 5.43872 4.43872 4 6.213 4H6.9999ZM6.213 6C5.54328 6 5 6.54328 5 7.213V8H19V7.213C19 6.54328 18.4567 6 17.787 6H16.9999C16.9999 6.55228 16.5522 7 15.9999 7C15.4476 7 14.9999 6.55228 14.9999 6H8.9999C8.9999 6.55228 8.55219 7 7.9999 7C7.44762 7 6.9999 6.55228 6.9999 6H6.213ZM5 10V17.787C5 18.4567 5.54328 19 6.213 19H17.787C18.4567 19 19 18.4567 19 17.787V10H5ZM14.657 11.3014C15.0784 10.8995 15.7524 10.8995 16.1738 11.3014C16.6087 11.7161 16.6087 12.3988 16.1738 12.8135L11.0507 17.6986C10.6293 18.1005 9.95534 18.1005 9.53388 17.6986L7.82618 16.0702C7.39127 15.6555 7.39127 14.9729 7.82618 14.5582C8.24764 14.1563 8.92156 14.1563 9.34302 14.5582L10.2921 15.4634L14.657 11.3014C14.657 11.3014 14.657 11.3014 14.657 11.3014ZM15.4154 12C15.3857 12 15.3622 12.0107 15.3471 12.0251L10.292 16.8453L8.65292 15.2819C8.63783 15.2675 8.61434 15.2567 8.5846 15.2567C8.55485 15.2567 8.53137 15.2675 8.51627 15.2819C8.50238 15.2951 8.5 15.3064 8.5 15.3142C8.5 15.3219 8.50238 15.3333 8.51627 15.3465L10.224 16.9749C10.2391 16.9893 10.2626 17 10.2923 17C10.322 17 10.3455 16.9893 10.3606 16.9749L15.4837 12.0898C15.4976 12.0765 15.5 12.0652 15.5 12.0574C15.5 12.0497 15.4976 12.0384 15.4837 12.0251C15.4686 12.0107 15.4451 12 15.4154 12Z" fill="currentcolor"/>
</svg>
