<svg width="24" height="24" viewBox="0 0 24 24" fill="none" xmlns="http://www.w3.org/2000/svg">
<path d="M15.5 14.5C15.5 14.776 15.276 15 15 15H12.5V17.5C12.5 17.776 12.276 18 12 18C11.724 18 11.5 17.776 11.5 17.5V15H9C8.724 15 8.5 14.776 8.5 14.5C8.5 14.224 8.724 14 9 14H11.5V11.5C11.5 11.224 11.724 11 12 11C12.276 11 12.5 11.224 12.5 11.5V14H15C15.276 14 15.5 14.224 15.5 14.5Z" fill="currentcolor"/>
<path fill-rule="evenodd" clip-rule="evenodd" d="M7.4999 4C7.4999 3.72386 7.72376 3.5 7.9999 3.5C8.27604 3.5 8.4999 3.72386 8.4999 4V4.5H15.4999V4C15.4999 3.72386 15.7238 3.5 15.9999 3.5C16.276 3.5 16.4999 3.72386 16.4999 4V4.5H17.787C19.2851 4.5 20.5 5.71486 20.5 7.213V17.787C20.5 19.2851 19.2851 20.5 17.787 20.5H6.213C4.71486 20.5 3.5 19.2851 3.5 17.787V7.213C3.5 5.71486 4.71486 4.5 6.213 4.5H7.4999V4ZM15.4999 5.5V6C15.4999 6.27614 15.7238 6.5 15.9999 6.5C16.276 6.5 16.4999 6.27614 16.4999 6V5.5H17.787C18.7329 5.5 19.5 6.26714 19.5 7.213V8.5H4.5V7.213C4.5 6.26714 5.26714 5.5 6.213 5.5H7.4999V6C7.4999 6.27614 7.72376 6.5 7.9999 6.5C8.27604 6.5 8.4999 6.27614 8.4999 6V5.5H15.4999ZM4.5 9.5H19.5V17.787C19.5 18.7329 18.7329 19.5 17.787 19.5H6.213C5.26714 19.5 4.5 18.7329 4.5 17.787V9.5Z" fill="currentcolor"/>
</svg>
