<svg width="24" height="24" viewBox="0 0 24 24" fill="none" xmlns="http://www.w3.org/2000/svg">
<path d="M10.292 16.1543L15.002 11.6633C15.2303 11.4456 15.6005 11.4456 15.8288 11.6633C16.0571 11.881 16.0571 12.2339 15.8288 12.4516L10.7057 17.3367C10.4774 17.5544 10.1072 17.5544 9.87893 17.3367L8.17122 15.7084C7.94292 15.4907 7.94292 15.1377 8.17122 14.92C8.39952 14.7023 8.76967 14.7023 8.99797 14.92L10.292 16.1543Z" fill="currentcolor"/>
<path fill-rule="evenodd" clip-rule="evenodd" d="M7.4999 4C7.4999 3.72386 7.72376 3.5 7.9999 3.5C8.27604 3.5 8.4999 3.72386 8.4999 4V4.5H15.4999V4C15.4999 3.72386 15.7238 3.5 15.9999 3.5C16.276 3.5 16.4999 3.72386 16.4999 4V4.5H17.787C19.2851 4.5 20.5 5.71486 20.5 7.213V17.787C20.5 19.2851 19.2851 20.5 17.787 20.5H6.213C4.71486 20.5 3.5 19.2851 3.5 17.787V7.213C3.5 5.71486 4.71486 4.5 6.213 4.5H7.4999V4ZM15.4999 5.5V6C15.4999 6.27614 15.7238 6.5 15.9999 6.5C16.276 6.5 16.4999 6.27614 16.4999 6V5.5H17.787C18.7329 5.5 19.5 6.26714 19.5 7.213V8.5H4.5V7.213C4.5 6.26714 5.26714 5.5 6.213 5.5H7.4999V6C7.4999 6.27614 7.72376 6.5 7.9999 6.5C8.27604 6.5 8.4999 6.27614 8.4999 6V5.5H15.4999ZM4.5 9.5H19.5V17.787C19.5 18.7329 18.7329 19.5 17.787 19.5H6.213C5.26714 19.5 4.5 18.7329 4.5 17.787V9.5Z" fill="currentcolor"/>
</svg>
