<svg width="24" height="24" viewBox="0 0 24 24" fill="none" xmlns="http://www.w3.org/2000/svg">
<path fill-rule="evenodd" clip-rule="evenodd" d="M7.4999 4C7.4999 3.72386 7.72376 3.5 7.9999 3.5C8.27604 3.5 8.4999 3.72386 8.4999 4V4.5H15.4999V4C15.4999 3.72386 15.7238 3.5 15.9999 3.5C16.276 3.5 16.4999 3.72386 16.4999 4V4.5H17.787C19.2851 4.5 20.5 5.71486 20.5 7.213V17.787C20.5 19.2851 19.2851 20.5 17.787 20.5H6.213C4.71486 20.5 3.5 19.2851 3.5 17.787V7.213C3.5 5.71486 4.71486 4.5 6.213 4.5H7.4999V4ZM15.4999 5.5V6C15.4999 6.27614 15.7238 6.5 15.9999 6.5C16.276 6.5 16.4999 6.27614 16.4999 6V5.5H17.787C18.7329 5.5 19.5 6.26714 19.5 7.213V8.5H4.5V7.213C4.5 6.26714 5.26714 5.5 6.213 5.5H7.4999V6C7.4999 6.27614 7.72376 6.5 7.9999 6.5C8.27604 6.5 8.4999 6.27614 8.4999 6V5.5H15.4999ZM4.5 9.5H19.5V17.787C19.5 18.7329 18.7329 19.5 17.787 19.5H6.213C5.26714 19.5 4.5 18.7329 4.5 17.787V9.5ZM9.5 12C9.77614 12 10 12.2239 10 12.5V16.5C10 16.7761 9.77614 17 9.5 17C9.22386 17 9 16.7761 9 16.5V12.5C9 12.2239 9.22386 12 9.5 12ZM15 12.5C15 12.2239 14.7761 12 14.5 12C14.2239 12 14 12.2239 14 12.5V16.5C14 16.7761 14.2239 17 14.5 17C14.7761 17 15 16.7761 15 16.5V12.5Z" fill="currentcolor"/>
<path fill-rule="evenodd" clip-rule="evenodd" d="M6.9999 4C6.9999 3.44772 7.44762 3 7.9999 3C8.55219 3 8.9999 3.44772 8.9999 4H14.9999C14.9999 3.44772 15.4476 3 15.9999 3C16.5522 3 16.9999 3.44772 16.9999 4H17.787C19.5613 4 21 5.43872 21 7.213V17.787C21 19.5613 19.5613 21 17.787 21H6.213C4.43872 21 3 19.5613 3 17.787V7.213C3 5.43872 4.43872 4 6.213 4H6.9999ZM6.213 6C5.54328 6 5 6.54328 5 7.213V8H19V7.213C19 6.54328 18.4567 6 17.787 6H16.9999C16.9999 6.55228 16.5522 7 15.9999 7C15.4476 7 14.9999 6.55228 14.9999 6H8.9999C8.9999 6.55228 8.55219 7 7.9999 7C7.44762 7 6.9999 6.55228 6.9999 6H6.213ZM5 10V17.787C5 18.4567 5.54328 19 6.213 19H17.787C18.4567 19 19 18.4567 19 17.787V10H5ZM8.5 12.5C8.5 11.9477 8.94771 11.5 9.5 11.5C10.0523 11.5 10.5 11.9477 10.5 12.5V16.5C10.5 17.0523 10.0523 17.5 9.5 17.5C8.94771 17.5 8.5 17.0523 8.5 16.5V12.5ZM13.5 12.5C13.5 11.9477 13.9477 11.5 14.5 11.5C15.0523 11.5 15.5 11.9477 15.5 12.5V16.5C15.5 17.0523 15.0523 17.5 14.5 17.5C13.9477 17.5 13.5 17.0523 13.5 16.5V12.5Z" fill="currentcolor"/>
</svg>
