<svg width="24" height="24" viewBox="0 0 24 24" fill="none" xmlns="http://www.w3.org/2000/svg">
<path d="M10.9999 13.5C10.7238 13.5 10.4999 13.2761 10.4999 13C10.4999 12.7239 10.7238 12.5 10.9999 12.5H15.9829C16.259 12.5 16.4829 12.7239 16.4829 13C16.4829 13.2761 16.259 13.5 15.9829 13.5H10.9999Z" fill="currentcolor"/>
<path d="M7.46957 12.4697C7.17668 12.7626 7.17668 13.2374 7.46957 13.5303C7.76246 13.8232 8.23734 13.8232 8.53023 13.5303C8.82312 13.2374 8.82312 12.7626 8.53023 12.4697C8.23734 12.1768 7.76246 12.1768 7.46957 12.4697Z" fill="currentcolor"/>
<path d="M7.45297 16.5303C7.16008 16.2374 7.16008 15.7626 7.45297 15.4697C7.74586 15.1768 8.22074 15.1768 8.51363 15.4697C8.80652 15.7626 8.80652 16.2374 8.51363 16.5303C8.22074 16.8232 7.74586 16.8232 7.45297 16.5303Z" fill="currentcolor"/>
<path d="M10.4999 16C10.4999 16.2761 10.7238 16.5 10.9999 16.5H15.9999C16.276 16.5 16.4999 16.2761 16.4999 16C16.4999 15.7239 16.276 15.5 15.9999 15.5H10.9999C10.7238 15.5 10.4999 15.7239 10.4999 16Z" fill="currentcolor"/>
<path fill-rule="evenodd" clip-rule="evenodd" d="M7.9999 3.5C7.72376 3.5 7.4999 3.72386 7.4999 4V4.5H6.213C4.71486 4.5 3.5 5.71486 3.5 7.213V17.787C3.5 19.2851 4.71486 20.5 6.213 20.5H17.787C19.2851 20.5 20.5 19.2851 20.5 17.787V7.213C20.5 5.71486 19.2851 4.5 17.787 4.5H16.4999V4C16.4999 3.72386 16.276 3.5 15.9999 3.5C15.7238 3.5 15.4999 3.72386 15.4999 4V4.5H8.4999V4C8.4999 3.72386 8.27604 3.5 7.9999 3.5ZM15.4999 6V5.5H8.4999V6C8.4999 6.27614 8.27604 6.5 7.9999 6.5C7.72376 6.5 7.4999 6.27614 7.4999 6V5.5H6.213C5.26714 5.5 4.5 6.26714 4.5 7.213V8.5H19.5V7.213C19.5 6.26714 18.7329 5.5 17.787 5.5H16.4999V6C16.4999 6.27614 16.276 6.5 15.9999 6.5C15.7238 6.5 15.4999 6.27614 15.4999 6ZM19.5 9.5H4.5V17.787C4.5 18.7329 5.26714 19.5 6.213 19.5H17.787C18.7329 19.5 19.5 18.7329 19.5 17.787V9.5Z" fill="currentcolor"/>
<path fill-rule="evenodd" clip-rule="evenodd" d="M6.9999 4C6.9999 3.44772 7.44762 3 7.9999 3C8.55219 3 8.9999 3.44772 8.9999 4H14.9999C14.9999 3.44772 15.4476 3 15.9999 3C16.5522 3 16.9999 3.44772 16.9999 4H17.787C19.5613 4 21 5.43872 21 7.213V17.787C21 19.5613 19.5613 21 17.787 21H6.213C4.43872 21 3 19.5613 3 17.787V7.213C3 5.43872 4.43872 4 6.213 4H6.9999ZM6.213 6C5.54328 6 5 6.54328 5 7.213V8H19V7.213C19 6.54328 18.4567 6 17.787 6H16.9999C16.9999 6.55228 16.5522 7 15.9999 7C15.4476 7 14.9999 6.55228 14.9999 6H8.9999C8.9999 6.55228 8.55219 7 7.9999 7C7.44762 7 6.9999 6.55228 6.9999 6H6.213ZM5 10V17.787C5 18.4567 5.54328 19 6.213 19H17.787C18.4567 19 19 18.4567 19 17.787V10H5ZM9.9999 13C9.9999 12.4477 10.4476 12 10.9999 12H15.9829C16.5352 12 16.9829 12.4477 16.9829 13C16.9829 13.5523 16.5352 14 15.9829 14H10.9999C10.4476 14 9.9999 13.5523 9.9999 13ZM7.11602 12.1161C7.60417 11.628 8.39563 11.628 8.88378 12.1161C9.37194 12.6043 9.37194 13.3957 8.88378 13.8839C8.39563 14.372 7.60417 14.372 7.11602 13.8839C6.62786 13.3957 6.62786 12.6043 7.11602 12.1161ZM7.09942 15.1161C7.58757 14.628 8.37903 14.628 8.86718 15.1161C9.35534 15.6043 9.35534 16.3957 8.86718 16.8839C8.37903 17.372 7.58757 17.372 7.09942 16.8839C6.61126 16.3957 6.61126 15.6043 7.09942 15.1161ZM8.16008 15.8232C8.06245 15.7256 7.90415 15.7256 7.80652 15.8232C7.70889 15.9209 7.70889 16.0791 7.80652 16.1768C7.90415 16.2744 8.06245 16.2744 8.16008 16.1768C8.25771 16.0791 8.25771 15.9209 8.16008 15.8232ZM9.9999 16C9.9999 15.4477 10.4476 15 10.9999 15H15.9999C16.5522 15 16.9999 15.4477 16.9999 16C16.9999 16.5523 16.5522 17 15.9999 17H10.9999C10.4476 17 9.9999 16.5523 9.9999 16Z" fill="currentcolor"/>
</svg>
