<svg width="24" height="24" viewBox="0 0 24 24" fill="none" xmlns="http://www.w3.org/2000/svg">
<path fill-rule="evenodd" clip-rule="evenodd" d="M7.4999 4C7.4999 3.72386 7.72376 3.5 7.9999 3.5C8.27604 3.5 8.4999 3.72386 8.4999 4V4.5H15.4999V4C15.4999 3.72386 15.7238 3.5 15.9999 3.5C16.276 3.5 16.4999 3.72386 16.4999 4V4.5H17.787C19.2851 4.5 20.5 5.71486 20.5 7.213V17.787C20.5 19.2851 19.2851 20.5 17.787 20.5H6.213C4.71486 20.5 3.5 19.2851 3.5 17.787V7.213C3.5 5.71486 4.71486 4.5 6.213 4.5H7.4999V4ZM15.4999 5.5V6C15.4999 6.27614 15.7238 6.5 15.9999 6.5C16.276 6.5 16.4999 6.27614 16.4999 6V5.5H17.787C18.7329 5.5 19.5 6.26714 19.5 7.213V8.5H4.5V7.213C4.5 6.26714 5.26714 5.5 6.213 5.5H7.4999V6C7.4999 6.27614 7.72376 6.5 7.9999 6.5C8.27604 6.5 8.4999 6.27614 8.4999 6V5.5H15.4999ZM4.5 9.5H19.5V17.787C19.5 18.7329 18.7329 19.5 17.787 19.5H6.213C5.26714 19.5 4.5 18.7329 4.5 17.787V9.5ZM9.5 11.5C9.77614 11.5 10 11.7239 10 12V17C10 17.2761 9.77614 17.5 9.5 17.5C9.22386 17.5 9 17.2761 9 17V12C9 11.7239 9.22386 11.5 9.5 11.5ZM15 12C15 11.7239 14.7761 11.5 14.5 11.5C14.2239 11.5 14 11.7239 14 12V17C14 17.2761 14.2239 17.5 14.5 17.5C14.7761 17.5 15 17.2761 15 17V12Z" fill="currentcolor"/>
</svg>
