<svg width="24" height="24" viewBox="0 0 24 24" fill="none" xmlns="http://www.w3.org/2000/svg">
<path d="M10.9999 13.5C10.7238 13.5 10.4999 13.2761 10.4999 13C10.4999 12.7239 10.7238 12.5 10.9999 12.5H15.9829C16.259 12.5 16.4829 12.7239 16.4829 13C16.4829 13.2761 16.259 13.5 15.9829 13.5H10.9999Z" fill="currentcolor"/>
<path d="M7.46957 12.4697C7.17668 12.7626 7.17668 13.2374 7.46957 13.5303C7.76246 13.8232 8.23734 13.8232 8.53023 13.5303C8.82312 13.2374 8.82312 12.7626 8.53023 12.4697C8.23734 12.1768 7.76246 12.1768 7.46957 12.4697Z" fill="currentcolor"/>
<path d="M7.45297 16.5303C7.16008 16.2374 7.16008 15.7626 7.45297 15.4697C7.74586 15.1768 8.22074 15.1768 8.51363 15.4697C8.80652 15.7626 8.80652 16.2374 8.51363 16.5303C8.22074 16.8232 7.74586 16.8232 7.45297 16.5303Z" fill="currentcolor"/>
<path d="M10.4999 16C10.4999 16.2761 10.7238 16.5 10.9999 16.5H15.9999C16.276 16.5 16.4999 16.2761 16.4999 16C16.4999 15.7239 16.276 15.5 15.9999 15.5H10.9999C10.7238 15.5 10.4999 15.7239 10.4999 16Z" fill="currentcolor"/>
<path fill-rule="evenodd" clip-rule="evenodd" d="M7.9999 3.5C7.72376 3.5 7.4999 3.72386 7.4999 4V4.5H6.213C4.71486 4.5 3.5 5.71486 3.5 7.213V17.787C3.5 19.2851 4.71486 20.5 6.213 20.5H17.787C19.2851 20.5 20.5 19.2851 20.5 17.787V7.213C20.5 5.71486 19.2851 4.5 17.787 4.5H16.4999V4C16.4999 3.72386 16.276 3.5 15.9999 3.5C15.7238 3.5 15.4999 3.72386 15.4999 4V4.5H8.4999V4C8.4999 3.72386 8.27604 3.5 7.9999 3.5ZM15.4999 6V5.5H8.4999V6C8.4999 6.27614 8.27604 6.5 7.9999 6.5C7.72376 6.5 7.4999 6.27614 7.4999 6V5.5H6.213C5.26714 5.5 4.5 6.26714 4.5 7.213V8.5H19.5V7.213C19.5 6.26714 18.7329 5.5 17.787 5.5H16.4999V6C16.4999 6.27614 16.276 6.5 15.9999 6.5C15.7238 6.5 15.4999 6.27614 15.4999 6ZM19.5 9.5H4.5V17.787C4.5 18.7329 5.26714 19.5 6.213 19.5H17.787C18.7329 19.5 19.5 18.7329 19.5 17.787V9.5Z" fill="currentcolor"/>
</svg>
