<svg width="24" height="24" viewBox="0 0 24 24" fill="none" xmlns="http://www.w3.org/2000/svg">
<path fill-rule="evenodd" clip-rule="evenodd" d="M7.9999 3.5C7.72376 3.5 7.4999 3.72386 7.4999 4V4.5H6.213C4.71486 4.5 3.5 5.71486 3.5 7.213V17.787C3.5 19.2851 4.71486 20.5 6.213 20.5H17.787C19.2851 20.5 20.5 19.2851 20.5 17.787V7.213C20.5 5.71486 19.2851 4.5 17.787 4.5H16.4999V4C16.4999 3.72386 16.276 3.5 15.9999 3.5C15.7238 3.5 15.4999 3.72386 15.4999 4V4.5H8.4999V4C8.4999 3.72386 8.27604 3.5 7.9999 3.5ZM15.4999 6V5.5H8.4999V6C8.4999 6.27614 8.27604 6.5 7.9999 6.5C7.72376 6.5 7.4999 6.27614 7.4999 6V5.5H6.213C5.26714 5.5 4.5 6.26714 4.5 7.213V9.5H19.5V7.213C19.5 6.26714 18.7329 5.5 17.787 5.5H16.4999V6C16.4999 6.27614 16.276 6.5 15.9999 6.5C15.7238 6.5 15.4999 6.27614 15.4999 6ZM19.5 10.5H4.5V17.787C4.5 18.7329 5.26714 19.5 6.213 19.5H17.787C18.7329 19.5 19.5 18.7329 19.5 17.787V10.5Z" fill="currentcolor"/>
<path fill-rule="evenodd" clip-rule="evenodd" d="M6.9999 4C6.9999 3.44772 7.44762 3 7.9999 3C8.55219 3 8.9999 3.44772 8.9999 4H14.9999C14.9999 3.44772 15.4476 3 15.9999 3C16.5522 3 16.9999 3.44772 16.9999 4H17.787C19.5613 4 21 5.43872 21 7.213V17.787C21 19.5613 19.5613 21 17.787 21H6.213C4.43872 21 3 19.5613 3 17.787V7.213C3 5.43872 4.43872 4 6.213 4H6.9999ZM6.213 6C5.54328 6 5 6.54328 5 7.213V9H19V7.213C19 6.54328 18.4567 6 17.787 6H16.9999C16.9999 6.55228 16.5522 7 15.9999 7C15.4476 7 14.9999 6.55228 14.9999 6H8.9999C8.9999 6.55228 8.55219 7 7.9999 7C7.44762 7 6.9999 6.55228 6.9999 6H6.213ZM5 11V17.787C5 18.4567 5.54328 19 6.213 19H17.787C18.4567 19 19 18.4567 19 17.787V11H5Z" fill="currentcolor"/>
</svg>
