<svg width="24" height="24" viewBox="0 0 24 24" fill="none" xmlns="http://www.w3.org/2000/svg">
<path fill-rule="evenodd" clip-rule="evenodd" d="M8 13C8 10.7909 9.79086 9 12 9C14.2091 9 16 10.7909 16 13C16 15.2091 14.2091 17 12 17C9.79086 17 8 15.2091 8 13ZM12 11C10.8954 11 10 11.8954 10 13C10 14.1046 10.8954 15 12 15C13.1046 15 14 14.1046 14 13C14 11.8954 13.1046 11 12 11Z" fill="currentcolor"/>
<path fill-rule="evenodd" clip-rule="evenodd" d="M8.07826 3H15.9217L17.0328 5H23V21H1V5H6.96715L8.07826 3ZM9.25507 5L8.14396 7H3V19H21V7H15.856L14.7449 5H9.25507Z" fill="currentcolor"/>
</svg>
