<svg width="24" height="24" viewBox="0 0 24 24" fill="none" xmlns="http://www.w3.org/2000/svg">
<path fill-rule="evenodd" clip-rule="evenodd" d="M15.5 13C15.5 14.9331 13.9331 16.5 12 16.5C10.0669 16.5 8.5 14.9331 8.5 13C8.5 11.0669 10.0669 9.5 12 9.5C13.9331 9.5 15.5 11.0669 15.5 13ZM14.5 13C14.5 11.6191 13.3809 10.5 12 10.5C10.6191 10.5 9.5 11.6191 9.5 13C9.5 14.3809 10.6191 15.5 12 15.5C13.3809 15.5 14.5 14.3809 14.5 13Z" fill="currentcolor"/>
<path fill-rule="evenodd" clip-rule="evenodd" d="M19.001 6.5C20.3811 6.5 21.5 7.61886 21.5 8.999V17.001C21.5 18.3811 20.3811 19.5 19.001 19.5H4.999C3.61886 19.5 2.5 18.3811 2.5 17.001V8.999C2.5 7.61886 3.61886 6.5 4.999 6.5H6.79289L8.64645 4.64645C8.74021 4.55268 8.86739 4.5 9 4.5H15C15.1326 4.5 15.2598 4.55268 15.3536 4.64645L17.2071 6.5H19.001ZM7.35355 7.35355C7.25979 7.44732 7.13261 7.5 7 7.5H4.999C4.17114 7.5 3.5 8.17114 3.5 8.999V17.001C3.5 17.8289 4.17114 18.5 4.999 18.5H19.001C19.8289 18.5 20.5 17.8289 20.5 17.001V8.999C20.5 8.17114 19.8289 7.5 19.001 7.5H17C16.8674 7.5 16.7402 7.44732 16.6464 7.35355L14.7929 5.5H9.20711L7.35355 7.35355Z" fill="currentcolor"/>
</svg>
