<svg width="24" height="24" viewBox="0 0 24 24" fill="none" xmlns="http://www.w3.org/2000/svg">
<path fill-rule="evenodd" clip-rule="evenodd" d="M9.37049 3.40104C9.55467 3.25688 9.69987 3.15251 9.78716 3.09395C10.2428 2.78826 10.8085 3.28481 10.5644 3.77624C10.3047 4.29907 10.3332 4.49066 10.6167 4.87132C10.6465 4.91133 10.7462 5.04041 10.7878 5.09425L10.8059 5.1178C11.2375 5.68287 11.4412 6.1478 11.4412 6.84496C11.4412 7.77734 11.0137 8.42284 10.3258 8.76911C10.1449 8.86015 9.96644 8.92306 9.79911 8.96453V9.70343H12.5746C13.6562 9.70343 14.5278 10.5793 14.5278 11.6566V13.5069L14.7548 13.4161C16.752 12.6159 17.5953 12.0751 18.0614 11.0714C18.2826 10.5951 18.986 10.6893 19.0741 11.207C19.1002 11.3602 19.138 11.6318 19.1755 11.9983C19.3212 13.4218 19.3249 14.9353 19.0908 16.3657C18.5042 19.9507 16.5568 22.0777 12.9284 21.7679C12.634 21.7428 12.4157 21.4837 12.4408 21.1893C12.4659 20.8949 12.725 20.6766 13.0194 20.7018C15.9992 20.9561 17.5288 19.2855 18.0348 16.1929C18.2172 15.0785 18.2435 13.8923 18.1656 12.7469C17.5178 13.3623 16.5865 13.8349 15.1528 14.4094L14.8898 14.5145C14.5888 14.6349 14.4064 14.7089 14.2202 14.7875C14.2135 14.7906 14.2066 14.7937 14.1997 14.7965C11.7242 15.8351 11.0047 16.9013 11.7988 19.5527L11.7992 19.5539C11.8101 19.5882 11.8289 19.6454 11.8507 19.7111C12.0463 19.5703 12.2391 19.4258 12.4289 19.2778L13.5635 18.3201C14.2397 17.7081 14.8329 17.087 15.3379 16.4897C15.6384 16.1342 15.8408 15.8685 15.9402 15.7256C16.109 15.4831 16.4425 15.4234 16.685 15.5922C16.9275 15.761 16.9873 16.0944 16.8185 16.3369C16.7871 16.3821 16.7288 16.4622 16.6444 16.573C16.5062 16.7544 16.3429 16.9583 16.155 17.1805C15.6207 17.8126 14.9948 18.468 14.2677 19.1256L13.1032 20.1083C12.1811 20.828 11.2088 21.4614 10.1827 21.9898C9.91996 22.1251 9.59734 22.0218 9.46206 21.7591C9.32678 21.4964 9.43008 21.1738 9.69278 21.0385C10.1146 20.8213 10.5274 20.5848 10.9299 20.3315C10.9205 20.3034 10.9102 20.2729 10.8996 20.2412H5.95318C4.86872 20.2412 4 19.3725 4 18.288V11.6566C4 10.5793 4.87158 9.70343 5.95318 9.70343H8.72907V8.96449C8.56174 8.92303 8.38329 8.86015 8.20243 8.76917C7.51414 8.42293 7.0864 7.77743 7.0864 6.84496C7.0864 5.94431 7.61317 5.06052 8.47379 4.19432C8.76021 3.90603 9.06533 3.6399 9.37049 3.40104ZM13.4577 11.6566V13.9521C10.9822 15.0696 9.9897 16.493 10.5921 19.1712H5.95318C5.45969 19.1712 5.07004 18.7815 5.07004 18.288V11.6566C5.07004 11.1691 5.46372 10.7735 5.95318 10.7735H12.5746C13.0641 10.7735 13.4577 11.1691 13.4577 11.6566ZM9.95064 5.76092C9.92405 5.72653 9.79809 5.56363 9.75845 5.5104C9.58019 5.27101 9.45293 5.04016 9.38188 4.80255C9.33156 4.85054 9.28184 4.89921 9.23286 4.9485C8.5536 5.63217 8.15644 6.2985 8.15644 6.84496C8.15644 7.35875 8.34478 7.64298 8.68329 7.81326C8.90335 7.92396 9.13497 7.9628 9.26429 7.9628C9.39344 7.9628 9.62483 7.92398 9.84468 7.81332C10.1829 7.64307 10.3711 7.35884 10.3711 6.84496C10.3711 6.42189 10.2577 6.16283 9.95558 5.76731L9.95064 5.76092Z" fill="currentcolor"/>
</svg>
