<svg width="24" height="24" viewBox="0 0 24 24" fill="none" xmlns="http://www.w3.org/2000/svg">
<path fill-rule="evenodd" clip-rule="evenodd" d="M9.37049 2.40104C9.55467 2.25688 9.69987 2.15251 9.78716 2.09395C10.2428 1.78826 10.8085 2.28481 10.5644 2.77624C10.3047 3.29907 10.3332 3.49066 10.6167 3.87132C10.6465 3.91133 10.7462 4.04041 10.7878 4.09425L10.8059 4.1178C11.2375 4.68287 11.4412 5.1478 11.4412 5.84496C11.4412 6.77734 11.0137 7.42284 10.3258 7.76911C10.1449 7.86015 9.96644 7.92306 9.79911 7.96453V8.70343H12.5746C13.6562 8.70343 14.5278 9.57926 14.5278 10.6566V12.5069L14.7548 12.4161C16.752 11.6159 17.5953 11.0751 18.0614 10.0714C18.2826 9.59508 18.986 9.68929 19.0741 10.207C19.1002 10.3602 19.138 10.6318 19.1755 10.9983C19.3212 12.4218 19.3249 13.9353 19.0908 15.3657C18.5042 18.9507 16.5568 21.0777 12.9284 20.7679C12.634 20.7428 12.4157 20.4837 12.4408 20.1893C12.4659 19.8949 12.725 19.6766 13.0194 19.7018C15.9992 19.9561 17.5288 18.2855 18.0348 15.1929C18.2172 14.0785 18.2435 12.8923 18.1656 11.7469C17.5178 12.3623 16.5865 12.8349 15.1528 13.4094L14.8898 13.5145C14.5888 13.6349 14.4064 13.7089 14.2202 13.7875C14.2135 13.7906 14.2066 13.7937 14.1997 13.7965C11.7242 14.8351 11.0047 15.9013 11.7988 18.5527L11.7992 18.5539C11.8101 18.5882 11.8289 18.6454 11.8507 18.7111C12.0463 18.5703 12.2391 18.4258 12.4289 18.2778L13.5635 17.3201C14.2397 16.7081 14.8329 16.087 15.3379 15.4897C15.6384 15.1342 15.8408 14.8685 15.9402 14.7256C16.109 14.4831 16.4425 14.4234 16.685 14.5922C16.9275 14.761 16.9873 15.0944 16.8185 15.3369C16.7871 15.3821 16.7288 15.4622 16.6444 15.573C16.5062 15.7544 16.3429 15.9583 16.155 16.1805C15.6207 16.8126 14.9948 17.468 14.2677 18.1256L13.1032 19.1083C12.1811 19.828 11.2088 20.4614 10.1827 20.9898C9.91996 21.1251 9.59734 21.0218 9.46206 20.7591C9.32678 20.4964 9.43008 20.1738 9.69278 20.0385C10.1146 19.8213 10.5274 19.5848 10.9299 19.3315C10.9205 19.3034 10.9102 19.2729 10.8996 19.2412H5.95318C4.86872 19.2412 4 18.3725 4 17.288V10.6566C4 9.57926 4.87158 8.70343 5.95318 8.70343H8.72907V7.96449C8.56174 7.92303 8.38329 7.86015 8.20243 7.76917C7.51414 7.42293 7.0864 6.77743 7.0864 5.84496C7.0864 4.94431 7.61317 4.06052 8.47379 3.19432C8.76021 2.90603 9.06533 2.6399 9.37049 2.40104ZM13.4577 10.6566V12.9521C10.9822 14.0696 9.9897 15.493 10.5921 18.1712H5.95318C5.45969 18.1712 5.07004 17.7815 5.07004 17.288V10.6566C5.07004 10.1691 5.46372 9.77347 5.95318 9.77347H12.5746C13.0641 9.77347 13.4577 10.1691 13.4577 10.6566ZM9.95064 4.76092C9.92405 4.72653 9.79809 4.56363 9.75845 4.5104C9.58019 4.27101 9.45293 4.04016 9.38188 3.80255C9.33156 3.85054 9.28184 3.89921 9.23286 3.9485C8.5536 4.63217 8.15644 5.2985 8.15644 5.84496C8.15644 6.35875 8.34478 6.64298 8.68329 6.81326C8.90335 6.92396 9.13497 6.9628 9.26429 6.9628C9.39344 6.9628 9.62483 6.92398 9.84468 6.81332C10.1829 6.64307 10.3711 6.35884 10.3711 5.84496C10.3711 5.42189 10.2577 5.16283 9.95558 4.76731L9.95064 4.76092Z" fill="currentcolor"/>
<path fill-rule="evenodd" clip-rule="evenodd" d="M9.64789 1.88638C10.3165 1.43785 11.1464 2.16643 10.7883 2.8875C10.661 3.14373 10.6307 3.27111 10.6364 3.36147C10.6416 3.44547 10.6806 3.53858 10.8172 3.72205C10.8453 3.75976 10.943 3.88629 10.9856 3.94146L11.0046 3.9661C11.4606 4.56311 11.6912 5.07997 11.6912 5.84501C11.6912 6.86729 11.2145 7.60172 10.4382 7.99246C10.3065 8.05874 10.1759 8.11148 10.0491 8.15281V8.45347H12.5746C13.7946 8.45347 14.7778 9.44159 14.7778 10.6567V12.1374C16.689 11.3635 17.422 10.8548 17.8347 9.96609C18.1592 9.26726 19.1913 9.4055 19.3206 10.1651C19.3478 10.3253 19.3863 10.6027 19.4242 10.9729C19.5715 12.4125 19.576 13.9489 19.3376 15.4061C19.0391 17.2304 18.3891 18.7184 17.3204 19.7106C16.2452 20.7088 14.777 21.1767 12.9071 21.0171C12.4751 20.9802 12.1548 20.6001 12.1917 20.1681C12.1945 20.1359 12.1991 20.1043 12.2056 20.0734C11.5911 20.492 10.9553 20.8732 10.2971 21.2121C9.91166 21.4106 9.43829 21.2591 9.2398 20.8736C9.04131 20.4882 9.19287 20.0148 9.57832 19.8163C9.78013 19.7124 9.97991 19.6039 10.1775 19.4912H5.95318C4.73065 19.4912 3.75 18.5106 3.75 17.2881V10.6567C3.75 9.44159 4.73315 8.45347 5.95318 8.45347H8.47907V8.15279C8.3523 8.11148 8.22173 8.05877 8.09008 7.99255C7.31345 7.60187 6.8364 6.86745 6.8364 5.84501C6.8364 4.84528 7.4194 3.90088 8.29644 3.01816C8.59107 2.72162 8.90412 2.44865 9.21639 2.20422C9.40411 2.05729 9.55434 1.94914 9.64789 1.88638ZM13.0636 19.4546C14.4889 19.5717 15.5327 19.2292 16.2831 18.5207C17.0454 17.801 17.5396 16.6715 17.7881 15.1526C17.9406 14.2209 17.9821 13.2345 17.9431 12.2621C17.2915 12.7557 16.4252 13.1689 15.2458 13.6415L14.9826 13.7467C14.6843 13.866 14.504 13.9392 14.3215 14.0161C14.3132 14.0199 14.3049 14.0236 14.2965 14.0271C13.0665 14.5431 12.34 15.0414 11.9935 15.6879C11.667 16.2971 11.6482 17.0964 11.9862 18.3015C12.082 18.2298 12.177 18.1571 12.2713 18.0836L13.399 17.1319C14.0655 16.5285 14.6499 15.9163 15.1469 15.3283C15.4444 14.9765 15.6416 14.7172 15.735 14.5829C15.9827 14.227 16.472 14.1393 16.8278 14.387C17.1837 14.6347 17.2714 15.1239 17.0237 15.4798C16.9895 15.5289 16.9289 15.6121 16.8432 15.7246C16.7023 15.9096 16.5363 16.1168 16.3459 16.342C15.8045 16.9825 15.1709 17.6459 14.4354 18.3111L14.429 18.3168L13.2572 19.3056C13.1929 19.3557 13.1283 19.4053 13.0636 19.4546ZM11.5592 18.6242C11.1564 17.2791 11.1151 16.2684 11.5528 15.4518C11.9864 14.6427 12.8574 14.0886 14.103 13.5661L14.114 13.5612L14.123 13.557C14.3113 13.4775 14.4956 13.4029 14.797 13.2824L15.0598 13.1774C16.492 12.6035 17.3833 12.1453 17.9934 11.5657L18.3789 11.1995L18.415 11.73C18.4939 12.8899 18.4677 14.0959 18.2816 15.2333C18.0241 16.8069 17.5004 18.0591 16.6264 18.8843C15.7446 19.7168 14.5408 20.0826 12.9981 19.9509C12.8413 19.9375 12.7033 20.0538 12.6899 20.2106C12.6765 20.3675 12.7928 20.5055 12.9496 20.5189C14.7082 20.669 16.0279 20.2282 16.9802 19.3442C17.9389 18.4541 18.556 17.0861 18.8441 15.3254C19.0738 13.9218 19.0708 12.4311 18.9268 11.0238C18.8897 10.6611 18.8525 10.3952 18.8276 10.249C18.7807 9.97317 18.406 9.92298 18.2882 10.1767C17.7768 11.2778 16.8445 11.8482 14.8478 12.6482L14.2778 12.8761V10.6567C14.2778 9.71702 13.5178 8.95347 12.5746 8.95347H9.54911V7.76897L9.73897 7.72192C9.88936 7.68464 10.0502 7.628 10.2134 7.54585C10.813 7.24405 11.1912 6.68748 11.1912 5.84501C11.1912 5.21591 11.0146 4.80296 10.6076 4.27005C10.6075 4.2699 10.6077 4.2702 10.6076 4.27005L10.5887 4.24558C10.5474 4.19209 10.4474 4.06257 10.4162 4.02068C10.2693 3.82349 10.1523 3.63047 10.1374 3.3928C10.1228 3.1615 10.2081 2.93167 10.3405 2.66508C10.4705 2.40328 10.1692 2.13875 9.92644 2.3016C9.84541 2.35596 9.70523 2.45655 9.52458 2.59795C9.22655 2.83123 8.92936 3.09053 8.65113 3.37057C7.80694 4.22024 7.3364 5.04342 7.3364 5.84501C7.3364 6.6875 7.71483 7.24408 8.31477 7.54588C8.47798 7.62798 8.6388 7.6846 8.7892 7.72188L8.97907 7.76893V8.95347H5.95318C5.01 8.95347 4.25 9.71702 4.25 10.6567V17.2881C4.25 18.2345 5.00679 18.9912 5.95318 18.9912H11.0795L11.2296 19.4384L11.063 19.5432C10.6547 19.8001 10.2357 20.0402 9.80723 20.2608C9.66728 20.3329 9.61226 20.5048 9.68432 20.6447C9.75639 20.7847 9.92826 20.8397 10.0682 20.7676C11.0778 20.2477 12.0358 19.624 12.9456 18.9142L14.1032 17.9374C14.8206 17.2883 15.4376 16.6419 15.9641 16.0192C16.1494 15.7999 16.3101 15.5994 16.4455 15.4216C16.5287 15.3124 16.5846 15.2354 16.6133 15.1941C16.7032 15.0649 16.6714 14.8873 16.5422 14.7974C16.413 14.7075 16.2354 14.7393 16.1454 14.8685C16.0401 15.0199 15.8323 15.2921 15.5288 15.6512C15.0168 16.2568 14.4159 16.886 13.7313 17.5055L13.7249 17.5113L12.5827 18.4751C12.3905 18.625 12.195 18.7714 11.9967 18.9141L11.7206 19.1127L11.6134 18.7899C11.5916 18.7243 11.5724 18.6657 11.5609 18.6297L11.5596 18.6254L11.5592 18.6242ZM9.50455 3.34018L9.6214 3.73097C9.68165 3.93245 9.7922 4.13718 9.95896 4.36113C9.99685 4.41202 10.1209 4.5724 10.1484 4.60804L10.1543 4.61561C10.3109 4.82073 10.4306 5.00557 10.5091 5.20385C10.5891 5.40602 10.6211 5.60887 10.6211 5.84501C10.6211 6.13167 10.5687 6.37727 10.4519 6.58194C10.3337 6.78906 10.1613 6.93387 9.95708 7.03667C9.70078 7.16568 9.43067 7.21285 9.26429 7.21285C9.09778 7.21285 8.82745 7.16567 8.57094 7.03664C8.36659 6.93384 8.19408 6.78905 8.07582 6.58194C7.95895 6.37725 7.90644 6.13166 7.90644 5.84501C7.90644 5.51301 8.02617 5.16628 8.2232 4.82361C8.42121 4.47924 8.70546 4.12467 9.05551 3.77234C9.10613 3.7214 9.15746 3.67116 9.20935 3.62167L9.50455 3.34018ZM9.29406 4.24449C9.02078 4.53327 8.80643 4.81237 8.65665 5.07285C8.48529 5.37088 8.40644 5.63054 8.40644 5.84501C8.40644 6.07215 8.4481 6.22556 8.51003 6.33401C8.57056 6.44002 8.66148 6.52249 8.79563 6.58997C8.97926 6.68234 9.17217 6.71285 9.26429 6.71285C9.35621 6.71285 9.54888 6.68237 9.73228 6.59006C9.86627 6.52261 9.95711 6.44018 10.0176 6.33415C10.0795 6.22568 10.1211 6.07222 10.1211 5.84501C10.1211 5.65807 10.0964 5.51986 10.0442 5.38785C9.99045 5.25207 9.90248 5.10976 9.7573 4.91963C9.75717 4.91946 9.75744 4.91981 9.7573 4.91963L9.75286 4.91389L9.75215 4.91296C9.72495 4.87778 9.59895 4.71483 9.55793 4.65975C9.45588 4.52271 9.36708 4.38505 9.29406 4.24449ZM4.82004 10.6567C4.82004 10.0314 5.32529 9.52352 5.95318 9.52352H12.5746C13.2025 9.52352 13.7077 10.0314 13.7077 10.6567V13.1136L13.5606 13.18C12.3424 13.7299 11.5309 14.3375 11.0869 15.102C10.6468 15.8597 10.5432 16.8148 10.836 18.1163L10.9046 18.4212H5.95318C5.32162 18.4212 4.82004 17.9196 4.82004 17.2881V10.6567ZM5.95318 10.0235C5.60214 10.0235 5.32004 10.3068 5.32004 10.6567V17.2881C5.32004 17.6435 5.59776 17.9212 5.95318 17.9212H10.2853C10.0547 16.6863 10.1694 15.6861 10.6545 14.8509C11.1545 13.9901 12.0254 13.3445 13.2077 12.7919V10.6567C13.2077 10.3068 12.9256 10.0235 12.5746 10.0235H5.95318Z" fill="currentcolor"/>
</svg>
