<svg width="24" height="24" viewBox="0 0 24 24" fill="none" xmlns="http://www.w3.org/2000/svg">
<path d="M8.64645 7.35355C8.45118 7.15829 8.45118 6.84171 8.64645 6.64645C8.84171 6.45118 9.15829 6.45118 9.35355 6.64645L14.3536 11.6464C14.5488 11.8417 14.5488 12.1583 14.3536 12.3536L9.35355 17.3536C9.15829 17.5488 8.84171 17.5488 8.64645 17.3536C8.45118 17.1583 8.45118 16.8417 8.64645 16.6464L13.2929 12L8.64645 7.35355Z" fill="currentcolor"/>
<path fill-rule="evenodd" clip-rule="evenodd" d="M8.29289 6.29289C8.68342 5.90237 9.31658 5.90237 9.70711 6.29289L14.7071 11.2929C15.0976 11.6834 15.0976 12.3166 14.7071 12.7071L9.70711 17.7071C9.31658 18.0976 8.68342 18.0976 8.29289 17.7071C7.90237 17.3166 7.90237 16.6834 8.29289 16.2929L12.5858 12L8.29289 7.70711C7.90237 7.31658 7.90237 6.68342 8.29289 6.29289Z" fill="currentcolor"/>
</svg>
