<svg width="24" height="24" viewBox="0 0 24 24" fill="none" xmlns="http://www.w3.org/2000/svg">
<path d="M14.3536 16.6464C14.5488 16.8417 14.5488 17.1583 14.3536 17.3536C14.1583 17.5488 13.8417 17.5488 13.6464 17.3536L8.64645 12.3536C8.45118 12.1583 8.45118 11.8417 8.64645 11.6464L13.6464 6.64645C13.8417 6.45118 14.1583 6.45118 14.3536 6.64645C14.5488 6.84171 14.5488 7.15829 14.3536 7.35355L9.70711 12L14.3536 16.6464Z" fill="currentcolor"/>
<path fill-rule="evenodd" clip-rule="evenodd" d="M13.2929 6.29289C13.6834 5.90237 14.3166 5.90237 14.7071 6.29289C15.0976 6.68342 15.0976 7.31658 14.7071 7.70711L10.4142 12L14.7071 16.2929C15.0976 16.6834 15.0976 17.3166 14.7071 17.7071C14.3166 18.0976 13.6834 18.0976 13.2929 17.7071L8.29289 12.7071C7.90237 12.3166 7.90237 11.6834 8.29289 11.2929L13.2929 6.29289Z" fill="currentcolor"/>
</svg>
