<svg width="24" height="24" viewBox="0 0 24 24" fill="none" xmlns="http://www.w3.org/2000/svg">
<path d="M12 14.2929L16.6464 9.64645C16.8417 9.45118 17.1583 9.45118 17.3536 9.64645C17.5488 9.84171 17.5488 10.1583 17.3536 10.3536L12.3536 15.3536C12.1583 15.5488 11.8417 15.5488 11.6464 15.3536L6.64645 10.3536C6.45118 10.1583 6.45118 9.84171 6.64645 9.64645C6.84171 9.45118 7.15829 9.45118 7.35355 9.64645L12 14.2929Z" fill="currentcolor"/>
<path fill-rule="evenodd" clip-rule="evenodd" d="M6.29289 9.29289C6.68342 8.90237 7.31658 8.90237 7.70711 9.29289L12 13.5858L16.2929 9.29289C16.6834 8.90237 17.3166 8.90237 17.7071 9.29289C18.0976 9.68342 18.0976 10.3166 17.7071 10.7071L12.7071 15.7071C12.3166 16.0976 11.6834 16.0976 11.2929 15.7071L6.29289 10.7071C5.90237 10.3166 5.90237 9.68342 6.29289 9.29289Z" fill="currentcolor"/>
</svg>
