<svg width="24" height="24" viewBox="0 0 24 24" fill="none" xmlns="http://www.w3.org/2000/svg">
<path fill-rule="evenodd" clip-rule="evenodd" d="M4 5.00024H5.83688L7.89465 12.2001L7.53179 12.9242C7.06352 13.8623 7.74521 14.9642 8.7928 14.9642H16.1788C16.4549 14.9642 16.6788 14.7404 16.6788 14.4642C16.6788 14.1881 16.4549 13.9642 16.1788 13.9642H8.7928C8.48825 13.9642 8.29015 13.644 8.42616 13.3716L8.75605 12.7132L15.993 11.8084C17.0056 11.6815 17.8879 11.0578 18.3433 10.1456L19.9472 6.93785C20.1134 6.6054 19.8717 6.21424 19.5 6.21424H7.321C7.28867 6.21424 7.25706 6.21731 7.22644 6.22317L6.69475 4.36284C6.63341 4.14821 6.43722 4.00024 6.214 4.00024H4C3.72386 4.00024 3.5 4.2241 3.5 4.50024C3.5 4.77639 3.72386 5.00024 4 5.00024ZM15.8688 10.8161L8.79203 11.701L7.5097 7.21424H18.691L17.4488 9.69864C17.1427 10.3116 16.5497 10.7308 15.8688 10.8161ZM10.5201 17.5432C10.5201 18.5647 9.69195 19.3932 8.6701 19.3932C7.64903 19.3932 6.8211 18.5645 6.8211 17.5432C6.8211 16.5221 7.64896 15.6942 8.6701 15.6942C9.69203 15.6942 10.5201 16.5219 10.5201 17.5432ZM10.1501 17.4991C10.1501 16.671 9.47865 15.9999 8.64917 15.9999C7.82129 15.9999 7.15006 16.6712 7.15006 17.4991C7.15006 18.3275 7.82183 18.9999 8.64917 18.9999C9.47811 18.9999 10.1501 18.3277 10.1501 17.4991ZM16.5 17.5432C16.5 18.5645 15.6721 19.3932 14.651 19.3932C13.6299 19.3932 12.801 18.5644 12.801 17.5432C12.801 16.5222 13.6298 15.6942 14.651 15.6942C15.6721 15.6942 16.5 16.5221 16.5 17.5432ZM16.15 17.4991C16.15 16.6712 15.4787 15.9999 14.6509 15.9999C13.8224 15.9999 13.15 16.6717 13.15 17.4991C13.15 18.3269 13.823 18.9999 14.6509 18.9999C15.4782 18.9999 16.15 18.3275 16.15 17.4991Z" fill="currentcolor"/>
<path d="M5.83688 5.00024L6.31763 4.86284L6.214 4.50024H5.83688V5.00024ZM7.89465 12.2001L8.34167 12.4241L8.42893 12.25L8.3754 12.0627L7.89465 12.2001ZM7.53179 12.9242L7.08477 12.7002L7.08442 12.7009L7.53179 12.9242ZM8.42616 13.3716L7.97915 13.1475L7.9788 13.1482L8.42616 13.3716ZM8.75605 12.7132L8.69402 12.2171L8.42879 12.2503L8.30904 12.4892L8.75605 12.7132ZM15.993 11.8084L16.0551 12.3045L16.0552 12.3045L15.993 11.8084ZM18.3433 10.1456L17.8961 9.92201L17.896 9.92224L18.3433 10.1456ZM19.9472 6.93785L19.5 6.71424L19.9472 6.93785ZM7.22644 6.22317L6.74569 6.36057L6.87135 6.80021L7.32044 6.71426L7.22644 6.22317ZM6.69475 4.36284L6.214 4.50024V4.50024L6.69475 4.36284ZM8.79203 11.701L8.31128 11.8384L8.429 12.2502L8.85407 12.1971L8.79203 11.701ZM15.8688 10.8161L15.9309 11.3123L15.931 11.3122L15.8688 10.8161ZM7.5097 7.21424V6.71424H6.84678L7.02895 7.35165L7.5097 7.21424ZM18.691 7.21424L19.1382 7.43785L19.5 6.71424H18.691V7.21424ZM17.4488 9.69864L17.0016 9.47503L17.0015 9.47527L17.4488 9.69864ZM5.83688 4.50024H4V5.50024H5.83688V4.50024ZM8.3754 12.0627L6.31763 4.86284L5.35613 5.13765L7.4139 12.3375L8.3754 12.0627ZM7.9788 13.1482L8.34167 12.4241L7.44764 11.9761L7.08477 12.7002L7.9788 13.1482ZM8.7928 14.4642C8.11692 14.4642 7.67675 13.7533 7.97915 13.1476L7.08442 12.7009C6.45028 13.9713 7.37351 15.4642 8.7928 15.4642V14.4642ZM16.1788 14.4642H8.7928V15.4642H16.1788V14.4642ZM16.1788 14.4642V15.4642C16.7311 15.4642 17.1788 15.0165 17.1788 14.4642H16.1788ZM16.1788 14.4642H17.1788C17.1788 13.912 16.7311 13.4642 16.1788 13.4642V14.4642ZM8.7928 14.4642H16.1788V13.4642H8.7928V14.4642ZM7.9788 13.1482C7.67679 13.7533 8.11682 14.4642 8.7928 14.4642V13.4642C8.85967 13.4642 8.9035 13.5348 8.87352 13.5949L7.9788 13.1482ZM8.30904 12.4892L7.97915 13.1475L8.87318 13.5956L9.20306 12.9373L8.30904 12.4892ZM15.931 11.3122L8.69402 12.2171L8.81808 13.2094L16.0551 12.3045L15.931 11.3122ZM17.896 9.92224C17.5154 10.6844 16.7779 11.2061 15.9309 11.3123L16.0552 12.3045C17.2333 12.1569 18.2603 11.4311 18.7907 10.369L17.896 9.92224ZM19.5 6.71424L17.8961 9.92201L18.7905 10.3692L20.3944 7.16146L19.5 6.71424ZM19.5 6.71424L20.3944 7.16146C20.7269 6.49656 20.2434 5.71424 19.5 5.71424V6.71424ZM7.321 6.71424H19.5V5.71424H7.321V6.71424ZM7.32044 6.71426L7.321 6.71424V5.71424C7.25697 5.71424 7.19389 5.72033 7.13245 5.73209L7.32044 6.71426ZM6.214 4.50024L6.74569 6.36057L7.70719 6.08577L7.1755 4.22544L6.214 4.50024ZM6.214 4.50024V4.50024L7.1755 4.22544C7.05282 3.79618 6.66045 3.50024 6.214 3.50024V4.50024ZM4 4.50024H6.214V3.50024H4V4.50024ZM4 4.50024V3.50024C3.44772 3.50024 3 3.94796 3 4.50024H4ZM4 4.50024H3C3 5.05253 3.44772 5.50024 4 5.50024V4.50024ZM8.85407 12.1971L15.9309 11.3123L15.8068 10.32L8.73 11.2048L8.85407 12.1971ZM7.02895 7.35165L8.31128 11.8384L9.27278 11.5636L7.99045 7.07684L7.02895 7.35165ZM18.691 6.71424H7.5097V7.71424H18.691V6.71424ZM17.896 9.92224L19.1382 7.43785L18.2438 6.99064L17.0016 9.47503L17.896 9.92224ZM15.931 11.3122C16.7773 11.2062 17.5152 10.6849 17.8961 9.92201L17.0015 9.47527C16.7703 9.93817 16.3221 10.2554 15.8067 10.32L15.931 11.3122ZM8.6701 19.8932C9.96817 19.8932 11.0201 18.8407 11.0201 17.5432H10.0201C10.0201 18.2886 9.41574 18.8932 8.6701 18.8932V19.8932ZM6.3211 17.5432C6.3211 18.8403 7.37257 19.8932 8.6701 19.8932V18.8932C7.9255 18.8932 7.3211 18.2886 7.3211 17.5432H6.3211ZM8.6701 15.1942C7.37282 15.1942 6.3211 16.246 6.3211 17.5432H7.3211C7.3211 16.7982 7.9251 16.1942 8.6701 16.1942V15.1942ZM11.0201 17.5432C11.0201 16.2455 9.96792 15.1942 8.6701 15.1942V16.1942C9.41614 16.1942 10.0201 16.7983 10.0201 17.5432H11.0201ZM8.64917 16.4999C9.20296 16.4999 9.65005 16.9476 9.65005 17.4991H10.6501C10.6501 16.3944 9.75433 15.4999 8.64917 15.4999V16.4999ZM7.65005 17.4991C7.65005 16.9473 8.09743 16.4999 8.64917 16.4999V15.4999C7.54515 15.4999 6.65006 16.395 6.65006 17.4991H7.65005ZM8.64917 18.4999C8.0985 18.4999 7.65005 18.0519 7.65005 17.4991H6.65006C6.65006 18.6031 7.54515 19.4999 8.64917 19.4999V18.4999ZM9.65005 17.4991C9.65005 18.0516 9.20189 18.4999 8.64917 18.4999V19.4999C9.75433 19.4999 10.6501 18.6037 10.6501 17.4991H9.65005ZM14.651 19.8932C15.9485 19.8932 17 18.8403 17 17.5432H16C16 18.2886 15.3956 18.8932 14.651 18.8932V19.8932ZM12.301 17.5432C12.301 18.8405 13.3537 19.8932 14.651 19.8932V18.8932C13.906 18.8932 13.301 18.2882 13.301 17.5432H12.301ZM14.651 15.1942C13.354 15.1942 12.301 16.2457 12.301 17.5432H13.301C13.301 16.7986 13.9056 16.1942 14.651 16.1942V15.1942ZM17 17.5432C17 16.246 15.9483 15.1942 14.651 15.1942V16.1942C15.396 16.1942 16 16.7982 16 17.5432H17ZM14.6509 16.4999C15.2026 16.4999 15.65 16.9473 15.65 17.4991H16.65C16.65 16.395 15.7549 15.4999 14.6509 15.4999V16.4999ZM13.65 17.4991C13.65 16.9484 14.098 16.4999 14.6509 16.4999V15.4999C13.5468 15.4999 12.65 16.395 12.65 17.4991H13.65ZM14.6509 18.4999C14.0991 18.4999 13.65 18.0508 13.65 17.4991H12.65C12.65 18.6031 13.5468 19.4999 14.6509 19.4999V18.4999ZM15.65 17.4991C15.65 18.0519 15.2015 18.4999 14.6509 18.4999V19.4999C15.7549 19.4999 16.65 18.6031 16.65 17.4991H15.65Z" fill="currentcolor"/>
</svg>
