<svg width="24" height="24" viewBox="0 0 24 24" fill="none" xmlns="http://www.w3.org/2000/svg">
<path fill-rule="evenodd" clip-rule="evenodd" d="M4 5.00024H5.83688L7.89465 12.2001L7.53179 12.9242C7.06352 13.8623 7.74521 14.9642 8.7928 14.9642H16.1788C16.4549 14.9642 16.6788 14.7404 16.6788 14.4642C16.6788 14.1881 16.4549 13.9642 16.1788 13.9642H8.7928C8.48825 13.9642 8.29015 13.644 8.42616 13.3716L8.75605 12.7132L15.993 11.8084C17.0056 11.6815 17.8879 11.0578 18.3433 10.1456L19.9472 6.93785C20.1134 6.6054 19.8717 6.21424 19.5 6.21424H7.321C7.28867 6.21424 7.25706 6.21731 7.22644 6.22317L6.69475 4.36284C6.63341 4.14821 6.43722 4.00024 6.214 4.00024H4C3.72386 4.00024 3.5 4.2241 3.5 4.50024C3.5 4.77639 3.72386 5.00024 4 5.00024ZM15.8688 10.8161L8.79203 11.701L7.5097 7.21424H18.691L17.4488 9.69864C17.1427 10.3116 16.5497 10.7308 15.8688 10.8161ZM10.5201 17.5432C10.5201 18.5647 9.69195 19.3932 8.6701 19.3932C7.64903 19.3932 6.8211 18.5645 6.8211 17.5432C6.8211 16.5221 7.64896 15.6942 8.6701 15.6942C9.69203 15.6942 10.5201 16.5219 10.5201 17.5432ZM9.5201 17.5432C9.5201 17.0743 9.13986 16.6942 8.6701 16.6942C8.20124 16.6942 7.8211 17.0744 7.8211 17.5432C7.8211 18.0124 8.20155 18.3932 8.6701 18.3932C9.13955 18.3932 9.5201 18.0125 9.5201 17.5432ZM16.5 17.5432C16.5 18.5645 15.6721 19.3932 14.651 19.3932C13.6299 19.3932 12.801 18.5644 12.801 17.5432C12.801 16.5222 13.6298 15.6942 14.651 15.6942C15.6721 15.6942 16.5 16.5221 16.5 17.5432ZM15.5 17.5432C15.5 17.0744 15.1199 16.6942 14.651 16.6942C14.1818 16.6942 13.801 17.0747 13.801 17.5432C13.801 18.0121 14.1821 18.3932 14.651 18.3932C15.1196 18.3932 15.5 18.0124 15.5 17.5432Z" fill="currentcolor"/>
</svg>
