<svg width="24" height="24" viewBox="0 0 24 24" fill="none" xmlns="http://www.w3.org/2000/svg">
<path fill-rule="evenodd" clip-rule="evenodd" d="M7.35355 5.14645C7.15829 4.95118 6.84171 4.95118 6.64645 5.14645L4.75 7.04289L4.35355 6.64645C4.15829 6.45118 3.84171 6.45118 3.64645 6.64645C3.45118 6.84171 3.45118 7.15829 3.64645 7.35355L4.39645 8.10355C4.59171 8.29882 4.90829 8.29882 5.10355 8.10355L7.35355 5.85355C7.54882 5.65829 7.54882 5.34171 7.35355 5.14645ZM4.5 13.75C4.22386 13.75 4 13.5261 4 13.25V11.25C4 10.9739 4.22386 10.75 4.5 10.75H6.5C6.77614 10.75 7 10.9739 7 11.25V13.25C7 13.5261 6.77614 13.75 6.5 13.75H4.5ZM5 12.75H6V11.75H5V12.75ZM4 18.25C4 18.5261 4.22386 18.75 4.5 18.75H6.5C6.77614 18.75 7 18.5261 7 18.25V16.25C7 15.9739 6.77614 15.75 6.5 15.75H4.5C4.22386 15.75 4 15.9739 4 16.25V18.25ZM6 17.75H5V16.75H6V17.75ZM9 7.25C9 7.52614 9.22386 7.75 9.5 7.75H19.5C19.7761 7.75 20 7.52614 20 7.25C20 6.97386 19.7761 6.75 19.5 6.75H9.5C9.22386 6.75 9 6.97386 9 7.25ZM9.5 12.75C9.22386 12.75 9 12.5261 9 12.25C9 11.9739 9.22386 11.75 9.5 11.75H19.5C19.7761 11.75 20 11.9739 20 12.25C20 12.5261 19.7761 12.75 19.5 12.75H9.5ZM9 17.25C9 17.5261 9.22386 17.75 9.5 17.75H19.5C19.7761 17.75 20 17.5261 20 17.25C20 16.9739 19.7761 16.75 19.5 16.75H9.5C9.22386 16.75 9 16.9739 9 17.25Z" fill="currentcolor"/>
</svg>
