<svg width="24" height="24" viewBox="0 0 24 24" fill="none" xmlns="http://www.w3.org/2000/svg">
<path fill-rule="evenodd" clip-rule="evenodd" d="M4.86868 17.8052C4.6315 17.7205 4.54644 17.6901 4.5162 17.6315C4.4993 17.5987 4.49953 17.5571 4.49989 17.4922L4.5 17.4607V5.34569C4.5 5.14716 4.6371 4.99969 4.78622 4.99969H4.92091L11.0204 6.94586C11.366 7.03619 11.5 7.16848 11.5 7.34609V18.3067V19.4611C11.5 19.6331 11.382 19.7727 11.2305 19.8016L5.14812 17.915C5.12371 17.9075 5.09916 17.9018 5.07464 17.8981C5.03867 17.8727 4.99872 17.8517 4.95528 17.8361L4.86868 17.8052ZM4.71161 18.8012C4.68 18.7964 4.64839 18.7885 4.61717 18.7772C3.78398 18.4779 3.5 18.1946 3.5 17.4607V5.34569C3.5 4.61052 4.06786 3.99969 4.78622 3.99969H14.215C14.9334 3.99969 15.5 4.61048 15.5 5.34569V9.09969C15.5 9.37584 15.2761 9.59969 15 9.59969C14.7239 9.59969 14.5 9.37584 14.5 9.09969V5.34569C14.5 5.1467 14.3636 4.99969 14.215 4.99969H8.20944L11.2978 5.9855C12.0162 6.17164 12.5 6.64924 12.5 7.34609V17.8067H14.34C14.3975 17.8067 14.5 17.6753 14.5 17.4607V13.7657C14.5 13.4896 14.7239 13.2657 15 13.2657C15.2761 13.2657 15.5 13.4896 15.5 13.7657V17.4607C15.5 18.1807 15.012 18.8067 14.34 18.8067H12.5V19.4611C12.5 20.2019 11.9081 20.8071 11.1724 20.8071L11.0243 20.7846L4.85188 18.8701C4.80041 18.8542 4.75338 18.8307 4.71161 18.8012ZM16.77 13.917C16.5747 14.1122 16.5747 14.4288 16.7699 14.6241C16.9651 14.8194 17.2817 14.8194 17.477 14.6242L20.29 11.8122C20.4853 11.617 20.4853 11.3003 20.2901 11.105L17.4771 8.29204C17.2818 8.09678 16.9652 8.09678 16.7699 8.29204C16.5747 8.4873 16.5747 8.80389 16.7699 8.99915L18.5804 10.8096H13.7661C13.49 10.8096 13.2661 11.0335 13.2661 11.3096C13.2661 11.5857 13.49 11.8096 13.7661 11.8096H18.8781L16.77 13.917Z" fill="currentcolor"/>
</svg>
