<svg width="24" height="24" viewBox="0 0 24 24" fill="none" xmlns="http://www.w3.org/2000/svg">
<path fill-rule="evenodd" clip-rule="evenodd" d="M14.313 17.6265V15.5635C14.313 15.2873 14.5369 15.0635 14.813 15.0635C15.0891 15.0635 15.313 15.2873 15.313 15.5635V17.6265C15.313 18.4196 14.6691 19.0635 13.876 19.0635H5.436C4.64288 19.0635 4 18.4197 4 17.6265V5.43649C4 4.64335 4.64286 4.00049 5.436 4.00049H13.876C14.6692 4.00049 15.313 4.64337 15.313 5.43649V7.56349C15.313 7.83963 15.0891 8.06349 14.813 8.06349C14.5369 8.06349 14.313 7.83963 14.313 7.56349V5.43649C14.313 5.19599 14.1172 5.00049 13.876 5.00049H5.436C5.19514 5.00049 5 5.19563 5 5.43649V17.6265C5 17.8677 5.1955 18.0635 5.436 18.0635H13.876C14.1169 18.0635 14.313 17.8673 14.313 17.6265ZM12.2905 9.1027C12.4858 8.90747 12.4859 8.59089 12.2906 8.39559C12.0954 8.2003 11.7788 8.20024 11.5835 8.39547L8.77053 11.2075C8.57521 11.4027 8.57518 11.7194 8.77047 11.9146L11.5835 14.7276C11.7787 14.9229 12.0953 14.9229 12.2906 14.7276C12.4858 14.5324 12.4858 14.2158 12.2906 14.0205L10.3451 12.075C10.3676 12.0781 10.3905 12.0796 10.4139 12.0796L20.4389 12.0616C20.715 12.0611 20.9385 11.8368 20.938 11.5607C20.9375 11.2845 20.7132 11.0611 20.4371 11.0616L10.4121 11.0796C10.3736 11.0797 10.3361 11.0841 10.3001 11.0924L12.2905 9.1027ZM9.913 11.5805C9.91304 11.6032 9.9146 11.6256 9.91758 11.6475L9.83119 11.5611L9.92583 11.4665C9.91737 11.5032 9.91293 11.5413 9.913 11.5805Z" fill="currentcolor"/>
<path d="M12.2906 8.39559L11.937 8.74908L11.937 8.74908L12.2906 8.39559ZM12.2905 9.1027L11.937 8.74908L12.2905 9.1027ZM11.5835 8.39547L11.937 8.74908L11.937 8.74908L11.5835 8.39547ZM8.77053 11.2075L8.41704 10.8539L8.41704 10.8539L8.77053 11.2075ZM8.77047 11.9146L9.12402 11.5611L9.12402 11.5611L8.77047 11.9146ZM11.5835 14.7276L11.2299 15.0812L11.5835 14.7276ZM12.2906 14.7276L12.6441 15.0812L12.6441 15.0812L12.2906 14.7276ZM12.2906 14.0205L12.6441 13.667L12.6441 13.667L12.2906 14.0205ZM10.3451 12.075L10.4124 11.5796L8.94287 11.3799L9.9915 12.4286L10.3451 12.075ZM10.4139 12.0796L10.413 11.5796H10.413L10.4139 12.0796ZM20.4389 12.0616L20.4398 12.5616L20.4389 12.0616ZM20.938 11.5607L21.438 11.5598L20.938 11.5607ZM20.4371 11.0616L20.438 11.5616L20.4371 11.0616ZM10.4121 11.0796L10.4112 10.5796L10.4121 11.0796ZM10.3001 11.0924L9.94663 10.7388L8.71331 11.9717L10.4125 11.5796L10.3001 11.0924ZM9.91758 11.6475L9.56403 12.0011L10.6127 13.0497L10.413 11.5802L9.91758 11.6475ZM9.913 11.5805L9.413 11.5814V11.5814L9.913 11.5805ZM9.83119 11.5611L9.4777 11.2075L9.12402 11.5611L9.47764 11.9147L9.83119 11.5611ZM9.92583 11.4665L10.413 11.5791L10.8057 9.87999L9.57234 11.1129L9.92583 11.4665ZM13.813 15.5635V17.6265H14.813V15.5635H13.813ZM14.813 14.5635C14.2607 14.5635 13.813 15.0112 13.813 15.5635H14.813V14.5635ZM15.813 15.5635C15.813 15.0112 15.3653 14.5635 14.813 14.5635V15.5635H15.813ZM15.813 17.6265V15.5635H14.813V17.6265H15.813ZM13.876 19.5635C14.9453 19.5635 15.813 18.6958 15.813 17.6265H14.813C14.813 18.1435 14.393 18.5635 13.876 18.5635V19.5635ZM5.436 19.5635H13.876V18.5635H5.436V19.5635ZM3.5 17.6265C3.5 18.6954 4.3663 19.5635 5.436 19.5635V18.5635C4.91947 18.5635 4.5 18.144 4.5 17.6265H3.5ZM3.5 5.43649V17.6265H4.5V5.43649H3.5ZM5.436 3.50049C4.36672 3.50049 3.5 4.3672 3.5 5.43649H4.5C4.5 4.91949 4.919 4.50049 5.436 4.50049V3.50049ZM13.876 3.50049H5.436V4.50049H13.876V3.50049ZM15.813 5.43649C15.813 4.36679 14.9449 3.50049 13.876 3.50049V4.50049C14.3935 4.50049 14.813 4.91995 14.813 5.43649H15.813ZM15.813 7.56349V5.43649H14.813V7.56349H15.813ZM14.813 8.56349C15.3653 8.56349 15.813 8.11577 15.813 7.56349H14.813V7.56349V8.56349ZM13.813 7.56349C13.813 8.11577 14.2607 8.56349 14.813 8.56349V7.56349V7.56349H13.813ZM13.813 5.43649V7.56349H14.813V5.43649H13.813ZM13.876 5.50049C13.842 5.50049 13.813 5.47309 13.813 5.43649H14.813C14.813 4.91888 14.3924 4.50049 13.876 4.50049V5.50049ZM5.436 5.50049H13.876V4.50049H5.436V5.50049ZM5.5 5.43649C5.5 5.47177 5.47128 5.50049 5.436 5.50049V4.50049C4.919 4.50049 4.5 4.91949 4.5 5.43649H5.5ZM5.5 17.6265V5.43649H4.5V17.6265H5.5ZM5.436 17.5635C5.4726 17.5635 5.5 17.5925 5.5 17.6265H4.5C4.5 18.1429 4.9184 18.5635 5.436 18.5635V17.5635ZM13.876 17.5635H5.436V18.5635H13.876V17.5635ZM13.813 17.6265C13.813 17.5912 13.8407 17.5635 13.876 17.5635V18.5635C14.393 18.5635 14.813 18.1435 14.813 17.6265H13.813ZM11.937 8.74908L11.937 8.74908L12.644 9.45632C13.0346 9.06586 13.0347 8.4327 12.6443 8.0421L11.937 8.74908ZM11.937 8.74908V8.74908L12.6443 8.0421C12.2538 7.65151 11.6206 7.6514 11.23 8.04185L11.937 8.74908ZM9.12402 11.5611L11.937 8.74908L11.23 8.04185L8.41704 10.8539L9.12402 11.5611ZM9.12402 11.5611H9.12402L8.41704 10.8539C8.0264 11.2444 8.02634 11.8776 8.41692 12.2682L9.12402 11.5611ZM11.937 14.3741L9.12402 11.5611L8.41692 12.2682L11.2299 15.0812L11.937 14.3741ZM11.937 14.3741L11.2299 15.0812C11.6204 15.4717 12.2536 15.4717 12.6441 15.0812L11.937 14.3741ZM11.937 14.3741V14.3741L12.6441 15.0812C13.0347 14.6907 13.0347 14.0575 12.6441 13.667L11.937 14.3741ZM9.9915 12.4286L11.937 14.3741L12.6441 13.667L10.6986 11.7215L9.9915 12.4286ZM10.413 11.5796L10.4124 11.5796L10.2778 12.5705C10.3228 12.5766 10.3686 12.5797 10.4148 12.5796L10.413 11.5796ZM20.438 11.5616L10.413 11.5796L10.4148 12.5796L20.4398 12.5616L20.438 11.5616ZM20.438 11.5616L20.4398 12.5616C20.9921 12.5606 21.439 12.1121 21.438 11.5598L20.438 11.5616ZM20.438 11.5616H20.438L21.438 11.5598C21.437 11.0075 20.9885 10.5606 20.4362 10.5616L20.438 11.5616ZM10.413 11.5796L20.438 11.5616L20.4362 10.5616L10.4112 10.5796L10.413 11.5796ZM10.4125 11.5796L10.413 11.5796L10.4112 10.5796C10.3349 10.5797 10.26 10.5885 10.1877 10.6052L10.4125 11.5796ZM11.937 8.74908L9.94663 10.7388L10.6536 11.446L12.644 9.45632L11.937 8.74908ZM10.413 11.5802L10.413 11.5796L9.413 11.5814C9.41308 11.6264 9.41617 11.671 9.42213 11.7148L10.413 11.5802ZM9.47764 11.9147L9.56403 12.0011L10.2711 11.294L10.1847 11.2076L9.47764 11.9147ZM9.57234 11.1129L9.4777 11.2075L10.1847 11.9148L10.2793 11.8202L9.57234 11.1129ZM10.413 11.5796L10.413 11.5791L9.43868 11.3539C9.42167 11.4275 9.41286 11.5037 9.413 11.5814L10.413 11.5796Z" fill="currentcolor"/>
</svg>
