<svg width="24" height="24" viewBox="0 0 24 24" fill="none" xmlns="http://www.w3.org/2000/svg">
<path fill-rule="evenodd" clip-rule="evenodd" d="M12 2.00024C17.5233 2.00024 22 6.47691 22 12.0002C22 17.5225 17.5233 22.0002 12 22.0002C6.47667 22.0002 2 17.5225 2 12.0002C2 6.47691 6.47667 2.00024 12 2.00024ZM16.5637 8.48878C16.3684 8.29352 16.0518 8.29352 15.8566 8.48878L9.89432 14.451L8.14261 12.6993C7.94734 12.504 7.63076 12.504 7.4355 12.6993C7.24024 12.8946 7.24024 13.2112 7.4355 13.4064L9.54076 15.5117C9.73602 15.7069 10.0526 15.7069 10.2479 15.5117L16.5637 9.19589C16.7589 9.00063 16.7589 8.68405 16.5637 8.48878Z" fill="currentcolor"/>
</svg>
