<svg width="24" height="24" viewBox="0 0 24 24" fill="none" xmlns="http://www.w3.org/2000/svg">
<path fill-rule="evenodd" clip-rule="evenodd" d="M12 2.00024C17.5233 2.00024 22 6.47691 22 12.0002C22 17.5225 17.5233 22.0002 12 22.0002C6.47667 22.0002 2 17.5225 2 12.0002C2 6.47691 6.47667 2.00024 12 2.00024ZM16.9172 8.13523C16.5267 7.74471 15.8935 7.74471 15.503 8.13523L9.89432 13.7439L8.49616 12.3458C8.10564 11.9552 7.47247 11.9552 7.08195 12.3458C6.69142 12.7363 6.69142 13.3694 7.08195 13.76L9.18721 15.8652C9.57773 16.2558 10.2109 16.2558 10.6014 15.8652L16.9172 9.54944C17.3077 9.15892 17.3077 8.52575 16.9172 8.13523Z" fill="currentcolor"/>
</svg>
