<svg width="24" height="24" viewBox="0 0 24 24" fill="none" xmlns="http://www.w3.org/2000/svg">
<path d="M19.6464 5.64645C19.8417 5.45118 20.1583 5.45118 20.3536 5.64645C20.5488 5.84171 20.5488 6.15829 20.3536 6.35355L8.35355 18.3536C8.15829 18.5488 7.84171 18.5488 7.64645 18.3536L3.64645 14.3536C3.45118 14.1583 3.45118 13.8417 3.64645 13.6464C3.84171 13.4512 4.15829 13.4512 4.35355 13.6464L8 17.2929L19.6464 5.64645Z" fill="currentcolor"/>
<path fill-rule="evenodd" clip-rule="evenodd" d="M19.2929 5.29289C19.6834 4.90237 20.3166 4.90237 20.7071 5.29289C21.0976 5.68342 21.0976 6.31658 20.7071 6.70711L8.70711 18.7071C8.31658 19.0976 7.68342 19.0976 7.29289 18.7071L3.29289 14.7071C2.90237 14.3166 2.90237 13.6834 3.29289 13.2929C3.68342 12.9024 4.31658 12.9024 4.70711 13.2929L8 16.5858L19.2929 5.29289Z" fill="currentcolor"/>
</svg>
