<svg width="24" height="24" viewBox="0 0 24 24" fill="none" xmlns="http://www.w3.org/2000/svg">
<path fill-rule="evenodd" clip-rule="evenodd" d="M7.35355 5.14645C7.15829 4.95118 6.84171 4.95118 6.64645 5.14645L4.75 7.04289L4.35355 6.64645C4.15829 6.45118 3.84171 6.45118 3.64645 6.64645C3.45118 6.84171 3.45118 7.15829 3.64645 7.35355L4.39645 8.10355C4.59171 8.29882 4.90829 8.29882 5.10355 8.10355L7.35355 5.85355C7.54882 5.65829 7.54882 5.34171 7.35355 5.14645ZM4.5 13.75C4.22386 13.75 4 13.5261 4 13.25V11.25C4 10.9739 4.22386 10.75 4.5 10.75H6.5C6.77614 10.75 7 10.9739 7 11.25V13.25C7 13.5261 6.77614 13.75 6.5 13.75H4.5ZM5 12.75H6V11.75H5V12.75ZM4 18.25C4 18.5261 4.22386 18.75 4.5 18.75H6.5C6.77614 18.75 7 18.5261 7 18.25V16.25C7 15.9739 6.77614 15.75 6.5 15.75H4.5C4.22386 15.75 4 15.9739 4 16.25V18.25ZM6 17.75H5V16.75H6V17.75ZM9 7.25C9 7.52614 9.22386 7.75 9.5 7.75H19.5C19.7761 7.75 20 7.52614 20 7.25C20 6.97386 19.7761 6.75 19.5 6.75H9.5C9.22386 6.75 9 6.97386 9 7.25ZM9.5 12.75C9.22386 12.75 9 12.5261 9 12.25C9 11.9739 9.22386 11.75 9.5 11.75H19.5C19.7761 11.75 20 11.9739 20 12.25C20 12.5261 19.7761 12.75 19.5 12.75H9.5ZM9 17.25C9 17.5261 9.22386 17.75 9.5 17.75H19.5C19.7761 17.75 20 17.5261 20 17.25C20 16.9739 19.7761 16.75 19.5 16.75H9.5C9.22386 16.75 9 16.9739 9 17.25Z" fill="currentcolor"/>
<path d="M6.64645 5.14645L6.29289 4.79289V4.79289L6.64645 5.14645ZM7.35355 5.14645L7.70711 4.79289L7.70711 4.79289L7.35355 5.14645ZM4.75 7.04289L4.39645 7.39645L4.75 7.75L5.10355 7.39645L4.75 7.04289ZM4.35355 6.64645L4 7L4 7L4.35355 6.64645ZM3.64645 6.64645L3.29289 6.29289V6.29289L3.64645 6.64645ZM3.64645 7.35355L3.29289 7.70711H3.29289L3.64645 7.35355ZM4.39645 8.10355L4.04289 8.45711L4.39645 8.10355ZM7.35355 5.85355L7.70711 6.20711L7.70711 6.20711L7.35355 5.85355ZM6 12.75V13.25H6.5V12.75H6ZM5 12.75H4.5V13.25H5V12.75ZM6 11.75H6.5V11.25H6V11.75ZM5 11.75V11.25H4.5V11.75H5ZM5 17.75H4.5V18.25H5V17.75ZM6 17.75V18.25H6.5V17.75H6ZM5 16.75V16.25H4.5V16.75H5ZM6 16.75H6.5V16.25H6V16.75ZM7 5.5L7.70711 4.79289C7.31658 4.40237 6.68342 4.40237 6.29289 4.79289L7 5.5ZM5.10355 7.39645L7 5.5L6.29289 4.79289L4.39645 6.68934L5.10355 7.39645ZM4 7L4.39645 7.39645L5.10355 6.68934L4.70711 6.29289L4 7ZM4 7L4 7L4.70711 6.29289C4.31658 5.90237 3.68342 5.90237 3.29289 6.29289L4 7ZM4 7V7L3.29289 6.29289C2.90237 6.68342 2.90237 7.31658 3.29289 7.70711L4 7ZM4.75 7.75L4 7L3.29289 7.70711L4.04289 8.45711L4.75 7.75ZM4.75 7.75L4.04289 8.45711C4.43342 8.84763 5.06658 8.84763 5.45711 8.45711L4.75 7.75ZM7 5.5L4.75 7.75L5.45711 8.45711L7.70711 6.20711L7 5.5ZM7 5.5V5.5L7.70711 6.20711C8.09763 5.81658 8.09763 5.18342 7.70711 4.79289L7 5.5ZM3.5 13.25C3.5 13.8023 3.94772 14.25 4.5 14.25V13.25H3.5ZM3.5 11.25V13.25H4.5V11.25H3.5ZM4.5 10.25C3.94772 10.25 3.5 10.6977 3.5 11.25H4.5V10.25ZM6.5 10.25H4.5V11.25H6.5V10.25ZM7.5 11.25C7.5 10.6977 7.05228 10.25 6.5 10.25V11.25H7.5ZM7.5 13.25V11.25H6.5V13.25H7.5ZM6.5 14.25C7.05228 14.25 7.5 13.8023 7.5 13.25H6.5V14.25ZM4.5 14.25H6.5V13.25H4.5V14.25ZM6 12.25H5V13.25H6V12.25ZM5.5 11.75V12.75H6.5V11.75H5.5ZM5 12.25H6V11.25H5V12.25ZM5.5 12.75V11.75H4.5V12.75H5.5ZM4.5 18.25H3.5C3.5 18.8023 3.94772 19.25 4.5 19.25V18.25ZM6.5 18.25H4.5V19.25H6.5V18.25ZM6.5 18.25V19.25C7.05228 19.25 7.5 18.8023 7.5 18.25H6.5ZM6.5 16.25V18.25H7.5V16.25H6.5ZM6.5 16.25H7.5C7.5 15.6977 7.05228 15.25 6.5 15.25V16.25ZM4.5 16.25H6.5V15.25H4.5V16.25ZM4.5 16.25V15.25C3.94772 15.25 3.5 15.6977 3.5 16.25H4.5ZM4.5 18.25V16.25H3.5V18.25H4.5ZM5 18.25H6V17.25H5V18.25ZM4.5 16.75V17.75H5.5V16.75H4.5ZM6 16.25H5V17.25H6V16.25ZM6.5 17.75V16.75H5.5V17.75H6.5ZM9.5 7.25H8.5C8.5 7.80228 8.94771 8.25 9.5 8.25V7.25ZM19.5 7.25H9.5V8.25H19.5V7.25ZM19.5 7.25V8.25C20.0523 8.25 20.5 7.80228 20.5 7.25H19.5ZM19.5 7.25H20.5C20.5 6.69772 20.0523 6.25 19.5 6.25V7.25ZM9.5 7.25H19.5V6.25H9.5V7.25ZM9.5 7.25V6.25C8.94771 6.25 8.5 6.69772 8.5 7.25H9.5ZM8.5 12.25C8.5 12.8023 8.94771 13.25 9.5 13.25V12.25H8.5ZM9.5 11.25C8.94771 11.25 8.5 11.6977 8.5 12.25H9.5V11.25ZM19.5 11.25H9.5V12.25H19.5V11.25ZM20.5 12.25C20.5 11.6977 20.0523 11.25 19.5 11.25V12.25H20.5ZM19.5 13.25C20.0523 13.25 20.5 12.8023 20.5 12.25H19.5V13.25ZM9.5 13.25H19.5V12.25H9.5V13.25ZM9.5 17.25H8.5C8.5 17.8023 8.94771 18.25 9.5 18.25V17.25ZM19.5 17.25H9.5V18.25H19.5V17.25ZM19.5 17.25V18.25C20.0523 18.25 20.5 17.8023 20.5 17.25H19.5ZM19.5 17.25H20.5C20.5 16.6977 20.0523 16.25 19.5 16.25V17.25ZM9.5 17.25H19.5V16.25H9.5V17.25ZM9.5 17.25V16.25C8.94771 16.25 8.5 16.6977 8.5 17.25H9.5Z" fill="currentcolor"/>
</svg>
