<svg width="24" height="24" viewBox="0 0 24 24" fill="none" xmlns="http://www.w3.org/2000/svg">
<path fill-rule="evenodd" clip-rule="evenodd" d="M14.313 17.6265V15.5635C14.313 15.2873 14.5369 15.0635 14.813 15.0635C15.0891 15.0635 15.313 15.2873 15.313 15.5635V17.6265C15.313 18.4196 14.6691 19.0635 13.876 19.0635H5.436C4.64288 19.0635 4 18.4197 4 17.6265V5.43649C4 4.64335 4.64286 4.00049 5.436 4.00049H13.876C14.6692 4.00049 15.313 4.64337 15.313 5.43649V7.56349C15.313 7.83963 15.0891 8.06349 14.813 8.06349C14.5369 8.06349 14.313 7.83963 14.313 7.56349V5.43649C14.313 5.19599 14.1172 5.00049 13.876 5.00049H5.436C5.19514 5.00049 5 5.19563 5 5.43649V17.6265C5 17.8677 5.1955 18.0635 5.436 18.0635H13.876C14.1169 18.0635 14.313 17.8673 14.313 17.6265ZM13.2905 9.1027C13.4858 8.90748 13.4858 8.59089 13.2906 8.3956C13.0954 8.2003 12.7788 8.20024 12.5835 8.39547L9.77051 11.2075C9.57519 11.4027 9.57516 11.7194 9.77045 11.9146L12.5834 14.7276C12.7787 14.9229 13.0953 14.9229 13.2906 14.7276C13.4858 14.5324 13.4858 14.2158 13.2906 14.0205L11.3479 12.0779L20.4389 12.0616C20.715 12.0611 20.9385 11.8368 20.938 11.5607C20.9375 11.2845 20.7132 11.0611 20.4371 11.0616L11.3145 11.078L13.2905 9.1027Z" fill="currentcolor"/>
</svg>
