<svg width="24" height="24" viewBox="0 0 24 24" fill="none" xmlns="http://www.w3.org/2000/svg">
<path fill-rule="evenodd" clip-rule="evenodd" d="M4.86868 17.8052C4.6315 17.7205 4.54644 17.6901 4.5162 17.6315C4.4993 17.5987 4.49953 17.5571 4.49989 17.4922L4.5 17.4607V5.34569C4.5 5.14716 4.6371 4.99969 4.78622 4.99969H4.9091L10.0204 6.94586C10.366 7.03619 10.5 7.16848 10.5 7.34609V19.4611C10.5 19.6331 10.382 19.7727 10.2305 19.8016L5.14812 17.915C5.12371 17.9075 5.09916 17.9018 5.07464 17.8981C5.03867 17.8727 4.99872 17.8517 4.95528 17.8361L4.86868 17.8052ZM4.71161 18.8012C4.68 18.7964 4.64839 18.7885 4.61717 18.7772C3.78398 18.4779 3.5 18.1946 3.5 17.4607V5.34569C3.5 4.61052 4.06786 3.99969 4.78622 3.99969H14.215C14.9334 3.99969 15.5 4.61048 15.5 5.34569V8.09969C15.5 8.37584 15.2761 8.59969 15 8.59969C14.7239 8.59969 14.5 8.37584 14.5 8.09969V5.34569C14.5 5.1467 14.3636 4.99969 14.215 4.99969H7.71196L10.2978 5.9855C11.0162 6.17164 11.5 6.64924 11.5 7.34609V18.3067V19.4611C11.5 20.2019 10.9081 20.8071 10.1724 20.8071L10.0243 20.7846L4.85188 18.8701C4.80041 18.8542 4.75338 18.8307 4.71161 18.8012ZM11.5 18.3067C11.5 18.0306 11.7239 17.8067 12 17.8067H14.34C14.3975 17.8067 14.5 17.6753 14.5 17.4607V14.7657C14.5 14.4896 14.7239 14.2657 15 14.2657C15.2761 14.2657 15.5 14.4896 15.5 14.7657V17.4607C15.5 18.1807 15.012 18.8067 14.34 18.8067H12C11.7239 18.8067 11.5 18.5828 11.5 18.3067ZM17.77 13.917C17.5747 14.1122 17.5747 14.4288 17.7699 14.6241C17.9651 14.8194 18.2817 14.8194 18.477 14.6242L21.29 11.8122C21.4853 11.617 21.4854 11.3003 21.2901 11.105L18.4771 8.29205C18.2818 8.09678 17.9652 8.09678 17.77 8.29205C17.5747 8.48731 17.5747 8.80389 17.77 8.99915L19.5804 10.8096H13.7661C13.49 10.8096 13.2661 11.0335 13.2661 11.3096C13.2661 11.5857 13.49 11.8096 13.7661 11.8096H19.8782L17.77 13.917Z" fill="currentcolor"/>
<path d="M4.5162 17.6315L4.07181 17.8606L4.07181 17.8606L4.5162 17.6315ZM4.86868 17.8052L5.03714 17.3344L5.0368 17.3343L4.86868 17.8052ZM4.49989 17.4922L4.99988 17.4949L4.99988 17.494L4.49989 17.4922ZM4.5 17.4607L5 17.4625V17.4607H4.5ZM4.9091 4.99969L5.08702 4.53242L5.00107 4.49969H4.9091V4.99969ZM10.0204 6.94586L9.8425 7.41314L9.8678 7.42276L9.89398 7.42961L10.0204 6.94586ZM10.2305 19.8016L10.0565 20.2704L10.1872 20.3189L10.3241 20.2928L10.2305 19.8016ZM5.14812 17.915L5.32213 17.4463L5.30931 17.4415L5.29625 17.4375L5.14812 17.915ZM5.07464 17.8981L4.78653 18.3068L4.88286 18.3747L4.9994 18.3924L5.07464 17.8981ZM4.95528 17.8361L5.12434 17.3656L5.12374 17.3654L4.95528 17.8361ZM4.61717 18.7772L4.78623 18.3067L4.78622 18.3067L4.61717 18.7772ZM4.71161 18.8012L4.99983 18.3926L4.90341 18.3246L4.78675 18.3069L4.71161 18.8012ZM7.71196 4.99969V4.49969L7.53385 5.4669L7.71196 4.99969ZM10.2978 5.9855L10.1197 6.4527L10.1456 6.46257L10.1724 6.46952L10.2978 5.9855ZM10.1724 20.8071L10.0975 21.3015L10.1347 21.3071H10.1724V20.8071ZM10.0243 20.7846L9.85072 21.2536L9.89874 21.2713L9.94937 21.279L10.0243 20.7846ZM4.85188 18.8701L5.02544 18.4012L5.01283 18.3966L5 18.3926L4.85188 18.8701ZM17.7699 14.6241L17.4163 14.9776L17.4163 14.9776L17.7699 14.6241ZM17.77 13.917L17.4166 13.5634V13.5634L17.77 13.917ZM18.477 14.6242L18.8305 14.9778L18.8305 14.9778L18.477 14.6242ZM21.29 11.8122L20.9365 11.4586L21.29 11.8122ZM21.2901 11.105L21.6436 10.7515V10.7515L21.2901 11.105ZM18.4771 8.29205L18.8306 7.93849L18.8306 7.93849L18.4771 8.29205ZM17.77 8.29205L17.4164 7.93849L17.4164 7.93849L17.77 8.29205ZM17.77 8.99915L17.4164 9.35271H17.4164L17.77 8.99915ZM19.5804 10.8096V11.3096H20.7875L19.934 10.456L19.5804 10.8096ZM19.8782 11.8096L20.2317 12.1632L21.0856 11.3096H19.8782V11.8096ZM4.07181 17.8606C4.16599 18.0433 4.32448 18.1248 4.4035 18.1617C4.48484 18.1996 4.59319 18.2377 4.70056 18.276L5.0368 17.3343C4.97626 17.3127 4.93063 17.2963 4.89332 17.2824C4.85525 17.2681 4.83577 17.2599 4.82617 17.2554C4.81531 17.2503 4.83208 17.2568 4.85802 17.277C4.87235 17.2882 4.89053 17.3043 4.90938 17.3263C4.92863 17.3486 4.94608 17.3742 4.9606 17.4023L4.07181 17.8606ZM3.99989 17.4894C3.99976 17.514 3.99899 17.567 4.00354 17.6181C4.00859 17.675 4.02236 17.7647 4.07181 17.8606L4.9606 17.4023C4.99314 17.4654 4.99857 17.5179 4.99961 17.5296C5.00014 17.5356 4.99996 17.537 4.99986 17.5296C4.99975 17.522 4.99978 17.5124 4.99988 17.4949L3.99989 17.4894ZM4 17.4589L3.99989 17.4904L4.99988 17.494L5 17.4625L4 17.4589ZM4 5.34569V17.4607H5V5.34569H4ZM4.78622 4.49969C4.29177 4.49969 4 4.9457 4 5.34569H5C5 5.36179 4.99413 5.3918 4.96668 5.4238C4.941 5.45373 4.88098 5.49969 4.78622 5.49969V4.49969ZM4.9091 4.49969H4.78622V5.49969H4.9091V4.49969ZM10.1983 6.47859L5.08702 4.53242L4.73118 5.46697L9.8425 7.41314L10.1983 6.47859ZM11 7.34609C11 7.10829 10.9005 6.89444 10.7175 6.73563C10.5567 6.59606 10.3513 6.51554 10.1469 6.46211L9.89398 7.42961C9.96024 7.44693 10.005 7.46338 10.0338 7.47649C10.0627 7.4897 10.0683 7.49629 10.0621 7.49086C10.0541 7.48397 10.0354 7.46474 10.0199 7.43142C10.0043 7.39766 10 7.36648 10 7.34609H11ZM11 19.4611V7.34609H10V19.4611H11ZM10.3241 20.2928C10.7219 20.217 11 19.8623 11 19.4611H10C10 19.4038 10.0422 19.3285 10.1369 19.3105L10.3241 20.2928ZM4.97412 18.3838L10.0565 20.2704L10.4045 19.3329L5.32213 17.4463L4.97412 18.3838ZM4.9994 18.3924L5 18.3926L5.29625 17.4375C5.24792 17.4225 5.19901 17.4113 5.14989 17.4038L4.9994 18.3924ZM4.78623 18.3067L4.78653 18.3068L5.36276 17.4895C5.2904 17.4385 5.21046 17.3965 5.12434 17.3656L4.78623 18.3067ZM4.70022 18.2759L4.78683 18.3069L5.12374 17.3654L5.03714 17.3344L4.70022 18.2759ZM4.4481 19.2478C4.50996 19.27 4.57304 19.2859 4.63647 19.2955L4.78675 18.3069L4.78623 18.3067L4.4481 19.2478ZM3 17.4607C3 17.8919 3.08414 18.285 3.37 18.6114C3.63471 18.9136 4.01988 19.0939 4.44811 19.2478L4.78622 18.3067C4.38126 18.1612 4.20785 18.0502 4.12228 17.9525C4.05785 17.8789 4 17.7634 4 17.4607H3ZM3 5.34569V17.4607H4V5.34569H3ZM4.78622 3.49969C3.76665 3.49969 3 4.36012 3 5.34569H4C4 4.86091 4.36906 4.49969 4.78622 4.49969V3.49969ZM14.215 3.49969H4.78622V4.49969H14.215V3.49969ZM16 5.34569C16 4.36071 15.2352 3.49969 14.215 3.49969V4.49969C14.6316 4.49969 15 4.86026 15 5.34569H16ZM16 8.09969V5.34569H15V8.09969H16ZM15 9.09969C15.5523 9.09969 16 8.65198 16 8.09969H15V9.09969ZM14 8.09969C14 8.65198 14.4477 9.09969 15 9.09969V8.09969H14ZM14 5.34569V8.09969H15V5.34569H14ZM14.215 5.49969C14.1198 5.49969 14.0592 5.4534 14.0332 5.42295C14.0054 5.39053 14 5.36064 14 5.34569H15C15 4.94703 14.7105 4.49969 14.215 4.49969V5.49969ZM7.71196 5.49969H14.215V4.49969H7.71196V5.49969ZM10.4759 5.5183L7.89007 4.53249L7.53385 5.4669L10.1197 6.4527L10.4759 5.5183ZM12 7.34609C12 6.35482 11.2904 5.72616 10.4232 5.50148L10.1724 6.46952C10.7421 6.61712 11 6.94366 11 7.34609H12ZM12 18.3067V7.34609H11V18.3067H12ZM12 19.4611V18.3067H11V19.4611H12ZM10.1724 21.3071C11.1919 21.3071 12 20.4703 12 19.4611H11C11 19.9335 10.6243 20.3071 10.1724 20.3071V21.3071ZM9.94937 21.279L10.0975 21.3015L10.2473 20.3127L10.0992 20.2903L9.94937 21.279ZM4.67831 19.339L9.85072 21.2536L10.1978 20.3157L5.02544 18.4012L4.67831 19.339ZM4.42338 19.2098C4.50742 19.269 4.60165 19.316 4.70375 19.3477L5 18.3926L4.99983 18.3926L4.42338 19.2098ZM12 17.3067C11.4477 17.3067 11 17.7544 11 18.3067H12V17.3067ZM14.34 17.3067H12V18.3067H14.34V17.3067ZM14 17.4607C14 17.4901 13.9927 17.4927 14.0034 17.4733C14.008 17.4649 14.0233 17.439 14.0578 17.4085C14.0753 17.393 14.1043 17.3705 14.146 17.3504C14.1865 17.3308 14.2534 17.3067 14.34 17.3067V18.3067C14.5316 18.3067 14.6637 18.2077 14.7208 18.1571C14.7906 18.0953 14.8423 18.0231 14.8797 17.955C14.956 17.8162 15 17.6459 15 17.4607H14ZM14 14.7657V17.4607H15V14.7657H14ZM15 13.7657C14.4477 13.7657 14 14.2134 14 14.7657H15V13.7657ZM16 14.7657C16 14.2134 15.5523 13.7657 15 13.7657V14.7657H16ZM16 17.4607V14.7657H15V17.4607H16ZM14.34 19.3067C15.3684 19.3067 16 18.3691 16 17.4607H15C15 17.9924 14.6556 18.3067 14.34 18.3067V19.3067ZM12 19.3067H14.34V18.3067H12V19.3067ZM11 18.3067C11 18.859 11.4477 19.3067 12 19.3067V18.3067H11ZM18.1235 14.2706L18.1235 14.2706L17.4166 13.5634C17.026 13.9538 17.0258 14.587 17.4163 14.9776L18.1235 14.2706ZM18.1235 14.2706L18.1235 14.2706L17.4163 14.9776C17.8068 15.3682 18.4399 15.3683 18.8305 14.9778L18.1235 14.2706ZM20.9365 11.4586L18.1235 14.2706L18.8305 14.9778L21.6435 12.1658L20.9365 11.4586ZM20.9365 11.4586V11.4586L21.6435 12.1658C22.0342 11.7753 22.0342 11.1421 21.6436 10.7515L20.9365 11.4586ZM18.1235 8.6456L20.9365 11.4586L21.6436 10.7515L18.8306 7.93849L18.1235 8.6456ZM18.1235 8.6456H18.1235L18.8306 7.93849C18.4401 7.54797 17.807 7.54797 17.4164 7.93849L18.1235 8.6456ZM18.1235 8.6456L17.4164 7.93849C17.0259 8.32902 17.0259 8.96218 17.4164 9.35271L18.1235 8.6456ZM19.934 10.456L18.1235 8.6456L17.4164 9.35271L19.2269 11.1632L19.934 10.456ZM19.5804 10.3096H13.7661V11.3096H19.5804V10.3096ZM13.7661 10.3096C13.2138 10.3096 12.7661 10.7573 12.7661 11.3096H13.7661V10.3096ZM12.7661 11.3096C12.7661 11.8619 13.2138 12.3096 13.7661 12.3096V11.3096H12.7661ZM13.7661 12.3096H19.8782V11.3096H13.7661V12.3096ZM18.1235 14.2706L20.2317 12.1632L19.5247 11.456L17.4166 13.5634L18.1235 14.2706Z" fill="currentcolor"/>
</svg>
