<svg width="24" height="24" viewBox="0 0 24 24" fill="none" xmlns="http://www.w3.org/2000/svg">
<path fill-rule="evenodd" clip-rule="evenodd" d="M18.7824 2.08739C18.5545 1.93146 18.2433 1.9898 18.0874 2.21771L17.2281 3.47361C15.7069 2.53897 13.9165 2 12 2C6.47669 2 2 6.47669 2 12C2 15.2478 3.5484 18.1341 5.94734 19.9609L5.08739 21.2177L5.04329 21.2964C4.94652 21.5128 5.01513 21.7741 5.21771 21.9127C5.44561 22.0686 5.75677 22.0103 5.9127 21.7824L6.77215 20.5263C8.2933 21.461 10.0837 22 12 22C17.523 22 22 17.5226 22 12C22 8.75182 20.4518 5.86561 18.0529 4.039L18.9127 2.78239L18.9568 2.70367C19.0536 2.48726 18.985 2.226 18.7824 2.08739ZM16.6611 4.3023C15.3017 3.4775 13.7064 3.00264 12 3.00264C7.03048 3.00264 3.00269 7.03043 3.00269 12C3.00269 14.9041 4.3787 17.487 6.51437 19.1321L16.6611 4.3023ZM7.33918 19.6975L17.4859 4.86769C19.6215 6.51268 20.9974 9.09549 20.9974 12C20.9974 16.9689 16.9692 20.9974 12 20.9974C10.2938 20.9974 8.69854 20.5224 7.33918 19.6975Z" fill="currentcolor"/>
<path d="M18.0874 2.21771L18.5 2.50005L18.5 2.50005L18.0874 2.21771ZM18.7824 2.08739L19.0647 1.67474L19.0647 1.67474L18.7824 2.08739ZM17.2281 3.47361L16.9663 3.89962L17.3719 4.14883L17.6407 3.75595L17.2281 3.47361ZM5.94734 19.9609L6.35999 20.2432L6.62835 19.851L6.25025 19.5631L5.94734 19.9609ZM5.08739 21.2177L4.67474 20.9354L4.66211 20.9538L4.65118 20.9733L5.08739 21.2177ZM5.04329 21.2964L4.60708 21.0521L4.59606 21.0717L4.58685 21.0923L5.04329 21.2964ZM5.21771 21.9127L5.50005 21.5L5.50005 21.5L5.21771 21.9127ZM5.9127 21.7824L6.32535 22.0647H6.32536L5.9127 21.7824ZM6.77215 20.5263L7.03391 20.1003L6.62831 19.851L6.35949 20.2439L6.77215 20.5263ZM18.0529 4.039L17.6403 3.75666L17.3719 4.14889L17.75 4.4368L18.0529 4.039ZM18.9127 2.78239L19.3254 3.06473L19.338 3.04628L19.3489 3.02677L18.9127 2.78239ZM18.9568 2.70367L19.393 2.94804L19.404 2.92836L19.4132 2.90777L18.9568 2.70367ZM16.6611 4.3023L17.0737 4.58465L17.372 4.14879L16.9205 3.87484L16.6611 4.3023ZM6.51437 19.1321L6.20924 19.5282L6.62831 19.851L6.92702 19.4145L6.51437 19.1321ZM17.4859 4.86769L17.791 4.47157L17.372 4.14878L17.0733 4.58535L17.4859 4.86769ZM7.33918 19.6975L6.92652 19.4152L6.62832 19.851L7.07979 20.125L7.33918 19.6975ZM18.5 2.50005V2.50005L19.0647 1.67474C18.6089 1.36288 17.9866 1.47956 17.6747 1.93537L18.5 2.50005ZM17.6407 3.75595L18.5 2.50005L17.6747 1.93536L16.8154 3.19127L17.6407 3.75595ZM17.4898 3.0476C15.8922 2.06596 14.0115 1.5 12 1.5V2.5C13.8215 2.5 15.5217 3.01198 16.9663 3.89962L17.4898 3.0476ZM12 1.5C6.20055 1.5 1.5 6.20055 1.5 12H2.5C2.5 6.75283 6.75283 2.5 12 2.5V1.5ZM1.5 12C1.5 15.4105 3.12665 18.4414 5.64442 20.3587L6.25025 19.5631C3.97015 17.8268 2.5 15.0851 2.5 12H1.5ZM5.50005 21.5L6.35999 20.2432L5.53468 19.6785L4.67474 20.9354L5.50005 21.5ZM5.4795 21.5408L5.52361 21.4621L4.65118 20.9733L4.60708 21.0521L5.4795 21.5408ZM5.50005 21.5L5.49973 21.5005L4.58685 21.0923C4.39317 21.5254 4.52977 22.0478 4.93536 22.3254L5.50005 21.5ZM5.50005 21.5V21.5L4.93536 22.3254C5.39117 22.6372 6.01349 22.5205 6.32535 22.0647L5.50005 21.5ZM6.35949 20.2439L5.50005 21.5L6.32536 22.0647L7.1848 20.8086L6.35949 20.2439ZM6.51038 20.9523C8.10802 21.934 9.98866 22.5 12 22.5V21.5C10.1787 21.5 8.47858 20.988 7.03391 20.1003L6.51038 20.9523ZM12 22.5C17.7991 22.5 22.5 17.7987 22.5 12H21.5C21.5 17.2465 17.2468 21.5 12 21.5V22.5ZM22.5 12C22.5 8.58915 20.8735 5.55832 18.3558 3.6412L17.75 4.4368C20.03 6.17291 21.5 8.9145 21.5 12H22.5ZM18.5 2.50005L17.6403 3.75666L18.4656 4.32134L19.3254 3.06473L18.5 2.50005ZM18.5206 2.45929L18.4765 2.53801L19.3489 3.02677L19.393 2.94804L18.5206 2.45929ZM18.5 2.50005L18.5004 2.49956L19.4132 2.90777C19.6069 2.47466 19.4703 1.95226 19.0647 1.67474L18.5 2.50005ZM12 3.50264C13.6124 3.50264 15.1184 3.95108 16.4017 4.72977L16.9205 3.87484C15.4851 3.00393 13.8004 2.50264 12 2.50264V3.50264ZM3.50269 12C3.50269 7.30658 7.30662 3.50264 12 3.50264V2.50264C6.75434 2.50264 2.50269 6.75429 2.50269 12H3.50269ZM6.81949 18.736C4.80141 17.1815 3.50269 14.7424 3.50269 12H2.50269C2.50269 15.0658 3.95598 17.7925 6.20924 19.5282L6.81949 18.736ZM6.92702 19.4145L17.0737 4.58465L16.2484 4.01996L6.10171 18.8498L6.92702 19.4145ZM17.0733 4.58535L6.92652 19.4152L7.75183 19.9799L17.8986 5.15003L17.0733 4.58535ZM17.1808 5.2638C19.1988 6.81819 20.4974 9.25714 20.4974 12H21.4974C21.4974 8.93383 20.0443 6.20716 17.791 4.47157L17.1808 5.2638ZM20.4974 12C20.4974 16.6928 16.6931 20.4974 12 20.4974V21.4974C17.2454 21.4974 21.4974 17.245 21.4974 12H20.4974ZM12 20.4974C10.3878 20.4974 8.88194 20.0489 7.59856 19.2701L7.07979 20.125C8.51514 20.996 10.1998 21.4974 12 21.4974V20.4974Z" fill="currentcolor"/>
</svg>
