<svg width="24" height="24" viewBox="0 0 24 24" fill="none" xmlns="http://www.w3.org/2000/svg">
<path fill-rule="evenodd" clip-rule="evenodd" d="M18.7824 2.08739C18.5545 1.93146 18.2433 1.9898 18.0874 2.21771L17.2281 3.47361C15.7069 2.53897 13.9165 2 12 2C6.47669 2 2 6.47669 2 12C2 15.2478 3.5484 18.1341 5.94734 19.9609L5.08739 21.2177L5.04329 21.2964C4.94652 21.5128 5.01513 21.7741 5.21771 21.9127C5.44561 22.0686 5.75677 22.0103 5.9127 21.7824L6.77215 20.5263C8.2933 21.461 10.0837 22 12 22C17.523 22 22 17.5226 22 12C22 8.75182 20.4518 5.86561 18.0529 4.039L18.9127 2.78239L18.9568 2.70367C19.0536 2.48726 18.985 2.226 18.7824 2.08739ZM16.6611 4.3023C15.3017 3.4775 13.7064 3.00264 12 3.00264C7.03048 3.00264 3.00269 7.03043 3.00269 12C3.00269 14.9041 4.3787 17.487 6.51437 19.1321L16.6611 4.3023ZM7.33918 19.6975L17.4859 4.86769C19.6215 6.51268 20.9974 9.09549 20.9974 12C20.9974 16.9689 16.9692 20.9974 12 20.9974C10.2938 20.9974 8.69854 20.5224 7.33918 19.6975Z" fill="currentcolor"/>
</svg>
