<svg width="24" height="24" viewBox="0 0 24 24" fill="none" xmlns="http://www.w3.org/2000/svg">
<path fill-rule="evenodd" clip-rule="evenodd" d="M12 22C17.523 22 22 17.5226 22 12C22 6.47669 17.5233 2 12 2C6.47669 2 2 6.47669 2 12C2 17.5226 6.47705 22 12 22ZM12 3.00264C16.9696 3.00264 20.9974 7.03043 20.9974 12C20.9974 16.9689 16.9692 20.9974 12 20.9974C7.03081 20.9974 3.00264 16.9689 3.00264 12C3.00264 7.03043 7.03043 3.00264 12 3.00264Z" fill="currentcolor"/>
<path d="M21.5 12C21.5 17.2465 17.2468 21.5 12 21.5V22.5C17.7991 22.5 22.5 17.7987 22.5 12H21.5ZM12 2.5C17.2472 2.5 21.5 6.75283 21.5 12H22.5C22.5 6.20055 17.7995 1.5 12 1.5V2.5ZM2.5 12C2.5 6.75283 6.75283 2.5 12 2.5V1.5C6.20055 1.5 1.5 6.20055 1.5 12H2.5ZM12 21.5C6.7532 21.5 2.5 17.2465 2.5 12H1.5C1.5 17.7987 6.20089 22.5 12 22.5V21.5ZM21.4974 12C21.4974 6.75429 17.2457 2.50264 12 2.50264V3.50264C16.6934 3.50264 20.4974 7.30657 20.4974 12H21.4974ZM12 21.4974C17.2453 21.4974 21.4974 17.245 21.4974 12H20.4974C20.4974 16.6928 16.693 20.4974 12 20.4974V21.4974ZM2.50264 12C2.50264 17.245 6.75465 21.4974 12 21.4974V20.4974C7.30696 20.4974 3.50264 16.6928 3.50264 12H2.50264ZM12 2.50264C6.75429 2.50264 2.50264 6.75429 2.50264 12H3.50264C3.50264 7.30658 7.30658 3.50264 12 3.50264V2.50264Z" fill="currentcolor"/>
</svg>
