<svg width="24" height="24" viewBox="0 0 24 24" fill="none" xmlns="http://www.w3.org/2000/svg">
<path d="M8.37932 13.0856C8.37932 13.3641 8.59546 13.5899 8.86208 13.5899H14.6552C14.9218 13.5899 15.1379 13.3641 15.1379 13.0856C15.1379 12.8071 14.9218 12.5813 14.6552 12.5813H8.86208C8.59546 12.5813 8.37932 12.8071 8.37932 13.0856Z" fill="currentcolor"/>
<path d="M8.86208 16.6156C8.59546 16.6156 8.37932 16.3898 8.37932 16.1113C8.37932 15.8328 8.59546 15.607 8.86208 15.607H13.6897C13.9563 15.607 14.1724 15.8328 14.1724 16.1113C14.1724 16.3898 13.9563 16.6156 13.6897 16.6156H8.86208Z" fill="currentcolor"/>
<path d="M11.4504 6.55316C11.1467 6.23587 11.1467 5.72146 11.4504 5.40418C11.7542 5.08689 12.2466 5.08689 12.5504 5.40418C12.8541 5.72146 12.8541 6.23587 12.5504 6.55316C12.2466 6.87044 11.7542 6.87044 11.4504 6.55316Z" fill="currentcolor"/>
<path fill-rule="evenodd" clip-rule="evenodd" d="M15.1323 4.92822H16.1175C16.7976 4.92822 17.3204 5.10069 17.3204 5.69734V6.84506H17.5585C18.3486 6.84506 19 7.5054 19 8.31831V20.5387C19 21.3516 18.3489 22 17.5585 22H6.45185C5.65429 22 5 21.3539 5 20.5387V8.31831C5 7.50307 5.6546 6.84506 6.45185 6.84506H6.68041V5.69734C6.68041 5.1005 7.20819 4.92822 7.88338 4.92822H8.87893V3.77887C8.87893 3.28251 9.31268 3 9.76041 3H14.2404C14.6964 3 15.1323 3.27845 15.1323 3.77887V4.92822ZM6.68041 7.92833H6.45185C6.21861 7.92833 6.03704 8.11086 6.03704 8.31831V20.5387C6.03704 20.7416 6.21441 20.9167 6.45185 20.9167H17.5585C17.7869 20.9167 17.963 20.7414 17.963 20.5387V8.31831C17.963 8.11104 17.7827 7.92833 17.5585 7.92833H17.3204V9.07714C17.3204 9.66618 16.7795 9.85709 16.1175 9.85709H7.88338C7.22655 9.85709 6.68041 9.66634 6.68041 9.07714V7.92833ZM16.1175 6.01149H14.6137C14.3274 6.01149 14.0952 5.76899 14.0952 5.46985V4.08327H9.91597V5.46985C9.91597 5.76899 9.68382 6.01149 9.39745 6.01149H7.88338C7.82457 6.01149 7.76828 6.01468 7.71745 6.02028V8.7637C7.76831 8.77013 7.82473 8.77382 7.88338 8.77382H16.1175C16.1768 8.77382 16.233 8.77031 16.2834 8.76422V6.01984C16.233 6.01452 16.1768 6.01149 16.1175 6.01149Z" fill="currentcolor"/>
</svg>
