<svg width="24" height="24" viewBox="0 0 24 24" fill="none" xmlns="http://www.w3.org/2000/svg">
<path d="M10 12C10 10.8954 10.8954 10 12 10C13.1046 10 14 10.8954 14 12C14 13.1046 13.1046 14 12 14C10.8954 14 10 13.1046 10 12Z" fill="currentcolor"/>
<path d="M12 17C11.1307 17 10.3886 17.5551 10.1135 18.3332L9.7803 19.2761L7.89462 18.6096L8.22787 17.6668C8.7765 16.1145 10.2568 15 12 15C13.7432 15 15.2235 16.1145 15.7721 17.6668L16.1054 18.6096L14.2197 19.2761L13.8865 18.3332C13.6114 17.5551 12.8693 17 12 17Z" fill="currentcolor"/>
<path fill-rule="evenodd" clip-rule="evenodd" d="M8.58579 1H15.4142L17 2.58579V3H21V23H3V3H7V2.58579L8.58579 1ZM7 5H5V21H19V5H17V7H7V5ZM15 3.41421L14.5858 3H9.41421L9 3.41421V5H15V3.41421Z" fill="currentcolor"/>
</svg>
