<svg width="24" height="24" viewBox="0 0 24 24" fill="none" xmlns="http://www.w3.org/2000/svg">
<path d="M8.37932 13.0856C8.37932 13.3641 8.59546 13.5899 8.86208 13.5899H14.6552C14.9218 13.5899 15.1379 13.3641 15.1379 13.0856C15.1379 12.8071 14.9218 12.5813 14.6552 12.5813H8.86208C8.59546 12.5813 8.37932 12.8071 8.37932 13.0856Z" fill="currentcolor"/>
<path d="M8.86208 16.6156C8.59546 16.6156 8.37932 16.3898 8.37932 16.1113C8.37932 15.8328 8.59546 15.607 8.86208 15.607H13.6897C13.9563 15.607 14.1724 15.8328 14.1724 16.1113C14.1724 16.3898 13.9563 16.6156 13.6897 16.6156H8.86208Z" fill="currentcolor"/>
<path d="M11.4504 6.55316C11.1467 6.23587 11.1467 5.72146 11.4504 5.40418C11.7542 5.08689 12.2466 5.08689 12.5504 5.40418C12.8541 5.72146 12.8541 6.23587 12.5504 6.55316C12.2466 6.87044 11.7542 6.87044 11.4504 6.55316Z" fill="currentcolor"/>
<path fill-rule="evenodd" clip-rule="evenodd" d="M15.1323 4.92822H16.1175C16.7976 4.92822 17.3204 5.10069 17.3204 5.69734V6.84506H17.5585C18.3486 6.84506 19 7.5054 19 8.31831V20.5387C19 21.3516 18.3489 22 17.5585 22H6.45185C5.65429 22 5 21.3539 5 20.5387V8.31831C5 7.50307 5.6546 6.84506 6.45185 6.84506H6.68041V5.69734C6.68041 5.1005 7.20819 4.92822 7.88338 4.92822H8.87893V3.77887C8.87893 3.28251 9.31268 3 9.76041 3H14.2404C14.6964 3 15.1323 3.27845 15.1323 3.77887V4.92822ZM6.68041 7.92833H6.45185C6.21861 7.92833 6.03704 8.11086 6.03704 8.31831V20.5387C6.03704 20.7416 6.21441 20.9167 6.45185 20.9167H17.5585C17.7869 20.9167 17.963 20.7414 17.963 20.5387V8.31831C17.963 8.11104 17.7827 7.92833 17.5585 7.92833H17.3204V9.07714C17.3204 9.66618 16.7795 9.85709 16.1175 9.85709H7.88338C7.22655 9.85709 6.68041 9.66634 6.68041 9.07714V7.92833ZM16.1175 6.01149H14.6137C14.3274 6.01149 14.0952 5.76899 14.0952 5.46985V4.08327H9.91597V5.46985C9.91597 5.76899 9.68382 6.01149 9.39745 6.01149H7.88338C7.82457 6.01149 7.76828 6.01468 7.71745 6.02028V8.7637C7.76831 8.77013 7.82473 8.77382 7.88338 8.77382H16.1175C16.1768 8.77382 16.233 8.77031 16.2834 8.76422V6.01984C16.233 6.01452 16.1768 6.01149 16.1175 6.01149Z" fill="currentcolor"/>
<path fill-rule="evenodd" clip-rule="evenodd" d="M8.62893 3.77887C8.62893 3.09704 9.22734 2.75 9.76041 2.75H14.2404C14.5163 2.75 14.7965 2.83376 15.0131 3.00621C15.235 3.1829 15.3823 3.44798 15.3823 3.77887V4.67822H16.1175C16.4696 4.67822 16.8219 4.72127 17.0937 4.86958C17.2339 4.94609 17.3566 5.0527 17.4428 5.19746C17.5292 5.34228 17.5704 5.51071 17.5704 5.69734V6.59511C18.4977 6.60168 19.25 7.37592 19.25 8.31831V20.5387C19.25 21.4877 18.4889 22.25 17.5585 22.25H6.45185C5.51607 22.25 4.75 21.4918 4.75 20.5387V8.31831C4.75 7.37502 5.50217 6.60686 6.43041 6.5952V5.69734C6.43041 5.51026 6.47216 5.34162 6.55904 5.19678C6.64582 5.0521 6.76891 4.94569 6.90925 4.86935C7.18144 4.7213 7.5334 4.67822 7.88338 4.67822H8.62893V3.77887ZM9.76041 3.25C9.39802 3.25 9.12893 3.46798 9.12893 3.77887V5.17822H7.88338C7.55817 5.17822 7.30865 5.22128 7.14816 5.30858C7.07215 5.34992 7.0211 5.39848 6.98782 5.45397C6.95464 5.50929 6.93041 5.586 6.93041 5.69734V7.09506H6.45185C5.79542 7.09506 5.25 7.63838 5.25 8.31831V20.5387C5.25 21.216 5.7925 21.75 6.45185 21.75H17.5585C18.2089 21.75 18.75 21.2154 18.75 20.5387V8.31831C18.75 7.6389 18.2061 7.09506 17.5585 7.09506H17.0704V5.69734C17.0704 5.58564 17.0463 5.50877 17.0133 5.45345C16.9803 5.39807 16.9297 5.34969 16.8542 5.3085C16.6946 5.2214 16.4454 5.17822 16.1175 5.17822H14.8823V3.77887C14.8823 3.60934 14.8116 3.48498 14.7016 3.39734C14.5862 3.30546 14.4205 3.25 14.2404 3.25H9.76041ZM9.66597 3.83327H14.3452V5.46985C14.3452 5.64131 14.4756 5.76149 14.6137 5.76149H16.1175C16.1851 5.76149 16.2501 5.76493 16.3096 5.77122L16.5334 5.79484V8.98577L16.3134 9.0124C16.2527 9.01976 16.1864 9.02382 16.1175 9.02382H7.88338C7.81451 9.02382 7.74762 9.0195 7.6861 9.01173L7.46745 8.98409V5.79631L7.69007 5.77178C7.75032 5.76515 7.81576 5.76149 7.88338 5.76149H9.39745C9.53559 5.76149 9.66597 5.64131 9.66597 5.46985V3.83327ZM10.166 4.33327V5.46985C10.166 5.89667 9.83206 6.26149 9.39745 6.26149H7.96745V8.52382H16.0334V6.26149H14.6137C14.1791 6.26149 13.8452 5.89667 13.8452 5.46985V4.33327H10.166ZM11.2699 5.23129C11.672 4.81119 12.3288 4.81119 12.731 5.23129C13.1273 5.64525 13.1273 6.31208 12.731 6.72604C12.3288 7.14614 11.672 7.14614 11.2699 6.72604C10.8736 6.31208 10.8736 5.64525 11.2699 5.23129ZM12.3698 5.57706C12.1645 5.3626 11.8363 5.3626 11.631 5.57706C11.4198 5.79766 11.4198 6.15967 11.631 6.38027C11.8363 6.59473 12.1645 6.59473 12.3698 6.38027C12.581 6.15967 12.581 5.79766 12.3698 5.57706ZM5.78704 8.31831C5.78704 7.96325 6.09028 7.67833 6.45185 7.67833H6.93041V9.07714C6.93041 9.27489 7.01228 9.38921 7.1569 9.46947C7.32091 9.5605 7.57145 9.60709 7.88338 9.60709H16.1175C16.4323 9.60709 16.6825 9.56037 16.8456 9.46958C16.9889 9.38978 17.0704 9.27579 17.0704 9.07714V7.67833H17.5585C17.9159 7.67833 18.213 7.96812 18.213 8.31831V20.5387C18.213 20.8906 17.9136 21.1667 17.5585 21.1667H6.45185C6.09264 21.1667 5.78704 20.8954 5.78704 20.5387V8.31831ZM6.43041 8.17948C6.33883 8.18949 6.28704 8.26267 6.28704 8.31831V20.5387C6.28704 20.5877 6.33618 20.6667 6.45185 20.6667H17.5585C17.6603 20.6667 17.713 20.5922 17.713 20.5387V8.31831C17.713 8.25681 17.655 8.18499 17.5704 8.17877V9.07714C17.5704 9.46753 17.3814 9.74352 17.0888 9.90644C16.8159 10.0584 16.4647 10.1071 16.1175 10.1071H7.88338C7.53848 10.1071 7.18754 10.0583 6.91427 9.90666C6.62162 9.74424 6.43041 9.46859 6.43041 9.07714V8.17948ZM8.86208 12.8313C8.7437 12.8313 8.62932 12.9348 8.62932 13.0856C8.62932 13.2364 8.7437 13.3399 8.86208 13.3399H14.6552C14.7736 13.3399 14.8879 13.2364 14.8879 13.0856C14.8879 12.9348 14.7736 12.8313 14.6552 12.8313H8.86208ZM8.12932 13.0856C8.12932 12.6794 8.44722 12.3313 8.86208 12.3313H14.6552C15.07 12.3313 15.3879 12.6794 15.3879 13.0856C15.3879 13.4918 15.07 13.8399 14.6552 13.8399H8.86208C8.44722 13.8399 8.12932 13.4918 8.12932 13.0856ZM8.12932 16.1113C8.12932 15.7051 8.44722 15.357 8.86208 15.357H13.6897C14.1045 15.357 14.4224 15.7051 14.4224 16.1113C14.4224 16.5175 14.1045 16.8656 13.6897 16.8656H8.86208C8.44722 16.8656 8.12932 16.5175 8.12932 16.1113ZM8.86208 15.857C8.7437 15.857 8.62932 15.9605 8.62932 16.1113C8.62932 16.2621 8.7437 16.3656 8.86208 16.3656H13.6897C13.8081 16.3656 13.9224 16.2621 13.9224 16.1113C13.9224 15.9605 13.8081 15.857 13.6897 15.857H8.86208Z" fill="currentcolor"/>
</svg>
