<svg width="24" height="24" viewBox="0 0 24 24" fill="none" xmlns="http://www.w3.org/2000/svg">
<path d="M11.532 8.05056L11.5159 11.8113L8.67535 14.7023C8.48181 14.8992 8.4846 15.2158 8.68157 15.4094C8.87855 15.6029 9.19512 15.6001 9.38865 15.4031L12.5141 12.2221L12.532 8.05484C12.5332 7.7787 12.3103 7.55389 12.0341 7.5527C11.758 7.55152 11.5332 7.77442 11.532 8.05056Z" fill="currentcolor"/>
<path fill-rule="evenodd" clip-rule="evenodd" d="M20.532 12.017C20.532 16.7203 16.719 20.533 12.015 20.533C7.31269 20.533 3.5 16.72 3.5 12.017C3.5 7.31385 7.31287 3.5 12.015 3.5C16.7188 3.5 20.532 7.31352 20.532 12.017ZM19.532 12.017C19.532 7.86579 16.1665 4.5 12.015 4.5C7.86521 4.5 4.5 7.86608 4.5 12.017C4.5 16.1677 7.865 19.533 12.015 19.533C16.1667 19.533 19.532 16.168 19.532 12.017Z" fill="currentcolor"/>
<path d="M11.532 8.05056L11.5159 11.8113L8.67535 14.7023C8.48181 14.8992 8.4846 15.2158 8.68157 15.4094C8.87855 15.6029 9.19512 15.6001 9.38865 15.4031L12.5141 12.2221L12.532 8.05484C12.5332 7.7787 12.3103 7.55389 12.0341 7.5527C11.758 7.55152 11.5332 7.77442 11.532 8.05056Z" stroke="currentcolor"/>
<path fill-rule="evenodd" clip-rule="evenodd" d="M20.532 12.017C20.532 16.7203 16.719 20.533 12.015 20.533C7.31269 20.533 3.5 16.72 3.5 12.017C3.5 7.31385 7.31287 3.5 12.015 3.5C16.7188 3.5 20.532 7.31352 20.532 12.017ZM19.532 12.017C19.532 7.86579 16.1665 4.5 12.015 4.5C7.86521 4.5 4.5 7.86608 4.5 12.017C4.5 16.1677 7.865 19.533 12.015 19.533C16.1667 19.533 19.532 16.168 19.532 12.017Z" stroke="currentcolor"/>
</svg>
