<svg width="24" height="24" viewBox="0 0 24 24" fill="none" xmlns="http://www.w3.org/2000/svg">
<path d="M12 4C9.51785 4 7.45643 5.80967 7.0665 8.18158L6.94118 8.94386L6.17196 9.0151C4.39329 9.17984 3 10.6778 3 12.5C3 14.0224 3.97251 15.3201 5.33325 15.8011L6.27609 16.1343L5.60959 18.02L4.66675 17.6868C2.53192 16.9322 1 14.8963 1 12.5C1 9.8925 2.8139 7.70961 5.24923 7.14303C6.0632 4.17816 8.7764 2 12 2C15.866 2 19 5.13401 19 9C19 9.00916 19 9.01831 18.9999 9.02746C21.2499 9.27616 23 11.1837 23 13.5C23 15.7679 21.3233 17.6424 19.1416 17.9545L18.1517 18.0961L17.8685 16.1162L18.8584 15.9746C20.069 15.8015 21 14.7586 21 13.5C21 12.1193 19.8807 11 18.5 11C18.3549 11 18.2134 11.0123 18.0763 11.0356L16.677 11.2738L16.9237 9.876C16.9738 9.59225 17 9.2996 17 9C17 6.23858 14.7614 4 12 4Z" fill="currentcolor"/>
<path d="M12 9.58579L16.4142 14L15 15.4142L13 13.4142V22H11V13.4142L9 15.4142L7.58579 14L12 9.58579Z" fill="currentcolor"/>
</svg>
