<svg width="24" height="24" viewBox="0 0 24 24" fill="none" xmlns="http://www.w3.org/2000/svg">
<path d="M12 4C9.51785 4 7.45643 5.80967 7.0665 8.18158L6.94118 8.94386L6.17196 9.0151C4.39329 9.17984 3 10.6778 3 12.5C3 14.3009 4.36095 15.7853 6.10988 15.9786L7.10382 16.0885L6.88407 18.0764L5.89013 17.9665C3.13909 17.6624 1 15.3317 1 12.5C1 9.8925 2.8139 7.70961 5.24923 7.14303C6.0632 4.17816 8.7764 2 12 2C15.866 2 19 5.13401 19 9C19 9.00916 19 9.01831 18.9999 9.02746C21.2499 9.27616 23 11.1837 23 13.5C23 15.9853 20.9853 18 18.5 18H17V16H18.5C19.8807 16 21 14.8807 21 13.5C21 12.1193 19.8807 11 18.5 11C18.3549 11 18.2134 11.0123 18.0763 11.0356L16.677 11.2738L16.9237 9.876C16.9738 9.59225 17 9.2996 17 9C17 6.23858 14.7614 4 12 4Z" fill="currentcolor"/>
<path d="M11 14H13.01V16H11V14Z" fill="currentcolor"/>
<path d="M9 17H11.01V19H9V17Z" fill="currentcolor"/>
<path d="M13 17H15.01V19H13V17Z" fill="currentcolor"/>
<path d="M7 20H9.01V22H7V20Z" fill="currentcolor"/>
<path d="M11 20H13.01V22H11V20Z" fill="currentcolor"/>
<path d="M15 20H17.01V22H15V20Z" fill="currentcolor"/>
</svg>
