<svg width="24" height="24" viewBox="0 0 24 24" fill="none" xmlns="http://www.w3.org/2000/svg">
<path fill-rule="evenodd" clip-rule="evenodd" d="M17.8796 3.93546L5.87963 19.8021C5.69992 20.0397 5.38427 20.0672 5.1746 19.8636C4.96494 19.6599 4.94066 19.3022 5.12037 19.0645L17.1204 3.19789C17.3001 2.96028 17.6157 2.93276 17.8254 3.13643C18.0351 3.3401 18.0593 3.69784 17.8796 3.93546ZM18.6325 18H7.87992L8.54659 17.1333H18.6325C19.3993 17.1333 20.0526 16.4361 20.0526 15.5456V10H14.0338L15.5722 8.00001H20.0526V7.45441C20.0526 6.56395 19.3993 5.86668 18.6325 5.86668H17.2133L17.8799 5.00001H18.6325C19.9576 5.00001 21 6.11239 21 7.45441V8.33334V9.66668V15.5456C21 16.8876 19.9576 18 18.6325 18ZM5.05885 17.9796L5.70981 17.1333H5.36747C4.60075 17.1333 3.94737 16.4361 3.94737 15.5456V10H11.197L12.7354 8.00001H3.94737V7.45441C3.94737 6.56395 4.60075 5.86668 5.36747 5.86668H14.3765L15.0431 5.00001H5.36747C4.04236 5.00001 3 6.11239 3 7.45441V8.33334V9.66668V15.5456C3 16.7815 3.88405 17.8227 5.05885 17.9796Z" fill="currentcolor"/>
</svg>
