<svg width="24" height="24" viewBox="0 0 24 24" fill="none" xmlns="http://www.w3.org/2000/svg">
<path fill-rule="evenodd" clip-rule="evenodd" d="M18.6325 18H5.36747C4.04236 18 3 16.8876 3 15.5456V9.66667V8.33333V7.4544C3 6.11238 4.04236 5 5.36747 5H18.6325C19.9576 5 21 6.11238 21 7.4544V8.33333V9.66667V15.5456C21 16.8876 19.9576 18 18.6325 18ZM20.0526 10V15.5456C20.0526 16.4361 19.3993 17.1333 18.6325 17.1333H5.36747C4.60075 17.1333 3.94737 16.4361 3.94737 15.5456V10H20.0526ZM20.0526 8H3.94737V7.4544C3.94737 6.56394 4.60075 5.86667 5.36747 5.86667H18.6325C19.3993 5.86667 20.0526 6.56394 20.0526 7.4544V8Z" fill="currentcolor"/>
</svg>
