<svg width="24" height="24" viewBox="0 0 24 24" fill="none" xmlns="http://www.w3.org/2000/svg">
<path fill-rule="evenodd" clip-rule="evenodd" d="M17.8796 3.93546L5.87963 19.8021C5.69992 20.0397 5.38427 20.0672 5.1746 19.8636C4.96494 19.6599 4.94066 19.3022 5.12037 19.0645L17.1204 3.19789C17.3001 2.96028 17.6157 2.93276 17.8254 3.13643C18.0351 3.3401 18.0593 3.69784 17.8796 3.93546ZM18.6325 18H7.87992L8.54659 17.1333H18.6325C19.3993 17.1333 20.0526 16.4361 20.0526 15.5456V11H13.2645L14.803 9.00001H20.0526V7.45441C20.0526 6.56395 19.3993 5.86668 18.6325 5.86668H17.2133L17.8799 5.00001H18.6325C19.9576 5.00001 21 6.11239 21 7.45441V9.33334V10.6667V15.5456C21 16.8876 19.9576 18 18.6325 18ZM5.05885 17.9796L5.70981 17.1333H5.36747C4.60075 17.1333 3.94737 16.4361 3.94737 15.5456V11H10.4278L11.9662 9.00001H3.94737V7.45441C3.94737 6.56395 4.60075 5.86668 5.36747 5.86668H14.3765L15.0431 5.00001H5.36747C4.04236 5.00001 3 6.11239 3 7.45441V9.33334V10.6667V15.5456C3 16.7815 3.88405 17.8227 5.05885 17.9796Z" fill="currentcolor"/>
<path d="M5.87963 19.8021L5.48084 19.5005L5.87963 19.8021ZM17.8796 3.93546L18.2784 4.23706V4.23706L17.8796 3.93546ZM5.1746 19.8636L5.523 19.5049L5.1746 19.8636ZM5.12037 19.0645L5.51916 19.3661H5.51916L5.12037 19.0645ZM17.1204 3.19789L16.7216 2.89629V2.89629L17.1204 3.19789ZM17.8254 3.13643L17.477 3.49507L17.477 3.49507L17.8254 3.13643ZM7.87992 18L7.48361 17.6952L6.86449 18.5H7.87992V18ZM8.54659 17.1333V16.6333H8.30039L8.15027 16.8285L8.54659 17.1333ZM20.0526 11H20.5526V10.5H20.0526V11ZM13.2645 11L12.8682 10.6952L12.2491 11.5H13.2645V11ZM14.803 9.00001V8.50001H14.5568L14.4067 8.69515L14.803 9.00001ZM20.0526 9.00001V9.50001H20.5526V9.00001H20.0526ZM17.2133 5.86668L16.8169 5.56182L16.1978 6.36668H17.2133V5.86668ZM17.8799 5.00001V4.50001H17.6337L17.4836 4.69515L17.8799 5.00001ZM5.70981 17.1333L6.10612 17.4382L6.72524 16.6333H5.70981V17.1333ZM5.05885 17.9796L4.99266 18.4752L5.27902 18.5134L5.45516 18.2844L5.05885 17.9796ZM3.94737 11V10.5H3.44737V11H3.94737ZM10.4278 11V11.5H10.674L10.8241 11.3049L10.4278 11ZM11.9662 9.00001L12.3625 9.30486L12.9816 8.50001H11.9662V9.00001ZM3.94737 9.00001H3.44737V9.50001H3.94737V9.00001ZM14.3765 5.86668V6.36668H14.6227L14.7728 6.17153L14.3765 5.86668ZM15.0431 5.00001L15.4394 5.30486L16.0586 4.50001H15.0431V5.00001ZM6.27842 20.1037L18.2784 4.23706L17.4808 3.63385L5.48084 19.5005L6.27842 20.1037ZM4.82621 20.2222C5.2592 20.6428 5.92399 20.5723 6.27842 20.1037L5.48084 19.5005C5.47589 19.507 5.474 19.5071 5.47739 19.5052C5.48063 19.5033 5.48665 19.5009 5.49492 19.5002C5.50324 19.4995 5.51129 19.5007 5.51778 19.503C5.52448 19.5055 5.5259 19.5077 5.523 19.5049L4.82621 20.2222ZM4.72158 18.7629C4.39419 19.1958 4.4302 19.8375 4.82621 20.2222L5.523 19.5049C5.51657 19.4987 5.50277 19.4789 5.50032 19.4429C5.49789 19.4071 5.50863 19.3801 5.51916 19.3661L4.72158 18.7629ZM16.7216 2.89629L4.72158 18.7629L5.51916 19.3661L17.5192 3.4995L16.7216 2.89629ZM18.1738 2.77779C17.7408 2.35717 17.076 2.42765 16.7216 2.89629L17.5192 3.4995C17.5241 3.49296 17.526 3.49293 17.5226 3.49484C17.5194 3.49668 17.5133 3.49907 17.5051 3.49979C17.4968 3.50052 17.4887 3.49931 17.4822 3.49697C17.4755 3.49455 17.4741 3.49225 17.477 3.49507L18.1738 2.77779ZM18.2784 4.23706C18.6058 3.80418 18.5698 3.16249 18.1738 2.77779L17.477 3.49507C17.4834 3.50131 17.4972 3.5211 17.4997 3.55707C17.5021 3.59289 17.4914 3.61993 17.4808 3.63385L18.2784 4.23706ZM7.87992 18.5H18.6325V17.5H7.87992V18.5ZM8.15027 16.8285L7.48361 17.6952L8.27623 18.3049L8.9429 17.4382L8.15027 16.8285ZM18.6325 16.6333H8.54659V17.6333H18.6325V16.6333ZM19.5526 15.5456C19.5526 16.2067 19.0785 16.6333 18.6325 16.6333V17.6333C19.72 17.6333 20.5526 16.6654 20.5526 15.5456H19.5526ZM19.5526 11V15.5456H20.5526V11H19.5526ZM13.2645 11.5H20.0526V10.5H13.2645V11.5ZM14.4067 8.69515L12.8682 10.6952L13.6608 11.3049L15.1993 9.30486L14.4067 8.69515ZM20.0526 8.50001H14.803V9.50001H20.0526V8.50001ZM19.5526 7.45441V9.00001H20.5526V7.45441H19.5526ZM18.6325 6.36668C19.0785 6.36668 19.5526 6.79328 19.5526 7.45441H20.5526C20.5526 6.33462 19.72 5.36668 18.6325 5.36668V6.36668ZM17.2133 6.36668H18.6325V5.36668H17.2133V6.36668ZM17.4836 4.69515L16.8169 5.56182L17.6096 6.17153L18.2762 5.30486L17.4836 4.69515ZM18.6325 4.50001H17.8799V5.50001H18.6325V4.50001ZM21.5 7.45441C21.5 5.85769 20.2547 4.50001 18.6325 4.50001V5.50001C19.6605 5.50001 20.5 6.36709 20.5 7.45441H21.5ZM21.5 9.33334V7.45441H20.5V9.33334H21.5ZM21.5 10.6667V9.33334H20.5V10.6667H21.5ZM21.5 15.5456V10.6667H20.5V15.5456H21.5ZM18.6325 18.5C20.2548 18.5 21.5 17.1423 21.5 15.5456H20.5C20.5 16.6329 19.6605 17.5 18.6325 17.5V18.5ZM5.31349 16.8285L4.66254 17.6747L5.45516 18.2844L6.10612 17.4382L5.31349 16.8285ZM5.36747 17.6333H5.70981V16.6333H5.36747V17.6333ZM3.44737 15.5456C3.44737 16.6654 4.28001 17.6333 5.36747 17.6333V16.6333C4.92148 16.6333 4.44737 16.2067 4.44737 15.5456H3.44737ZM3.44737 11V15.5456H4.44737V11H3.44737ZM10.4278 10.5H3.94737V11.5H10.4278V10.5ZM11.5699 8.69515L10.0314 10.6952L10.8241 11.3049L12.3625 9.30486L11.5699 8.69515ZM3.94737 9.50001H11.9662V8.50001H3.94737V9.50001ZM3.44737 7.45441V9.00001H4.44737V7.45441H3.44737ZM5.36747 5.36668C4.28001 5.36668 3.44737 6.33462 3.44737 7.45441H4.44737C4.44737 6.79328 4.92148 6.36668 5.36747 6.36668V5.36668ZM14.3765 5.36668H5.36747V6.36668H14.3765V5.36668ZM14.6468 4.69515L13.9802 5.56182L14.7728 6.17153L15.4394 5.30486L14.6468 4.69515ZM5.36747 5.50001H15.0431V4.50001H5.36747V5.50001ZM3.5 7.45441C3.5 6.36709 4.33947 5.50001 5.36747 5.50001V4.50001C3.74525 4.50001 2.5 5.85769 2.5 7.45441H3.5ZM3.5 9.33334V7.45441H2.5V9.33334H3.5ZM3.5 10.6667V9.33334H2.5V10.6667H3.5ZM3.5 15.5456V10.6667H2.5V15.5456H3.5ZM5.12504 17.484C4.21282 17.3621 3.5 16.5456 3.5 15.5456H2.5C2.5 17.0175 3.55528 18.2832 4.99266 18.4752L5.12504 17.484Z" fill="currentcolor"/>
</svg>
