<svg width="24" height="24" viewBox="0 0 24 24" fill="none" xmlns="http://www.w3.org/2000/svg">
<path fill-rule="evenodd" clip-rule="evenodd" d="M18.6325 18H5.36747C4.04236 18 3 16.8876 3 15.5456V9.83333V9.16667V7.4544C3 6.11238 4.04236 5 5.36747 5H18.6325C19.9576 5 21 6.11238 21 7.4544V9.16667V9.83333V15.5456C21 16.8876 19.9576 18 18.6325 18ZM20.0526 10V15.5456C20.0526 16.4361 19.3993 17.1333 18.6325 17.1333H5.36747C4.60075 17.1333 3.94737 16.4361 3.94737 15.5456V10H20.0526ZM20.0526 9H3.94737V7.4544C3.94737 6.56394 4.60075 5.86667 5.36747 5.86667H18.6325C19.3993 5.86667 20.0526 6.56394 20.0526 7.4544V9Z" fill="currentcolor"/>
<path d="M20.0526 10H20.5526V9.5H20.0526V10ZM3.94737 10V9.5H3.44737V10H3.94737ZM3.94737 9H3.44737V9.5H3.94737V9ZM20.0526 9V9.5H20.5526V9H20.0526ZM5.36747 18.5H18.6325V17.5H5.36747V18.5ZM2.5 15.5456C2.5 17.1423 3.74525 18.5 5.36747 18.5V17.5C4.33947 17.5 3.5 16.6329 3.5 15.5456H2.5ZM2.5 9.83333V15.5456H3.5V9.83333H2.5ZM3.5 9.83333V9.16667H2.5V9.83333H3.5ZM2.5 7.4544V9.16667H3.5V7.4544H2.5ZM5.36747 4.5C3.74525 4.5 2.5 5.85768 2.5 7.4544H3.5C3.5 6.36708 4.33947 5.5 5.36747 5.5V4.5ZM18.6325 4.5H5.36747V5.5H18.6325V4.5ZM21.5 7.4544C21.5 5.85768 20.2547 4.5 18.6325 4.5V5.5C19.6605 5.5 20.5 6.36708 20.5 7.4544H21.5ZM21.5 9.16667V7.4544H20.5V9.16667H21.5ZM20.5 9.16667V9.83333H21.5V9.16667H20.5ZM21.5 15.5456V9.83333H20.5V15.5456H21.5ZM18.6325 18.5C20.2547 18.5 21.5 17.1423 21.5 15.5456H20.5C20.5 16.6329 19.6605 17.5 18.6325 17.5V18.5ZM19.5526 10V15.5456H20.5526V10H19.5526ZM19.5526 15.5456C19.5526 16.2067 19.0785 16.6333 18.6325 16.6333V17.6333C19.72 17.6333 20.5526 16.6654 20.5526 15.5456H19.5526ZM18.6325 16.6333H5.36747V17.6333H18.6325V16.6333ZM5.36747 16.6333C4.92148 16.6333 4.44737 16.2067 4.44737 15.5456H3.44737C3.44737 16.6654 4.28001 17.6333 5.36747 17.6333V16.6333ZM4.44737 15.5456V10H3.44737V15.5456H4.44737ZM20.0526 9.5H3.94737V10.5H20.0526V9.5ZM3.94737 9.5H20.0526V8.5H3.94737V9.5ZM4.44737 9V7.4544H3.44737V9H4.44737ZM4.44737 7.4544C4.44737 6.79327 4.92148 6.36667 5.36747 6.36667V5.36667C4.28001 5.36667 3.44737 6.33461 3.44737 7.4544H4.44737ZM5.36747 6.36667H18.6325V5.36667H5.36747V6.36667ZM18.6325 6.36667C19.0785 6.36667 19.5526 6.79327 19.5526 7.4544H20.5526C20.5526 6.33461 19.72 5.36667 18.6325 5.36667V6.36667ZM19.5526 7.4544V9H20.5526V7.4544H19.5526Z" fill="currentcolor"/>
</svg>
