<svg width="24" height="24" viewBox="0 0 24 24" fill="none" xmlns="http://www.w3.org/2000/svg">
<path fill-rule="evenodd" clip-rule="evenodd" d="M22 12C22 17.5226 17.523 22 12 22C6.47705 22 2 17.5226 2 12C2 6.47669 6.47669 2 12 2C17.5233 2 22 6.47669 22 12ZM20.9974 12C20.9974 7.03043 16.9696 3.00264 12 3.00264C7.03043 3.00264 3.00264 7.03043 3.00264 12C3.00264 16.9689 7.03081 20.9974 12 20.9974C16.9692 20.9974 20.9974 16.9689 20.9974 12ZM8.47158 9.17837C8.27633 8.98309 8.27636 8.66651 8.47163 8.47126C8.66691 8.27601 8.98349 8.27604 9.17874 8.47132L12.0001 11.2931L14.8214 8.47132C15.0166 8.27604 15.3332 8.27601 15.5285 8.47126C15.7238 8.66651 15.7238 8.98309 15.5285 9.17837L12.7071 12.0003L15.5282 14.8218C15.7235 15.0171 15.7234 15.3337 15.5282 15.529C15.3329 15.7242 15.0163 15.7242 14.821 15.5289L12.0001 12.7074L9.17906 15.5289C8.98381 15.7242 8.66723 15.7242 8.47195 15.529C8.27667 15.3337 8.27665 15.0171 8.47189 14.8218L11.293 12.0003L8.47158 9.17837Z" fill="currentcolor"/>
<path fill-rule="evenodd" clip-rule="evenodd" d="M1.5 12C1.5 6.20055 6.20055 1.5 12 1.5C17.7995 1.5 22.5 6.20055 22.5 12C22.5 17.7987 17.7991 22.5 12 22.5C6.20089 22.5 1.5 17.7987 1.5 12ZM12 2.5C6.75283 2.5 2.5 6.75283 2.5 12C2.5 17.2465 6.7532 21.5 12 21.5C17.2468 21.5 21.5 17.2465 21.5 12C21.5 6.75283 17.2472 2.5 12 2.5ZM12 3.50264C7.30658 3.50264 3.50264 7.30658 3.50264 12C3.50264 16.6928 7.30696 20.4974 12 20.4974C16.693 20.4974 20.4974 16.6928 20.4974 12C20.4974 7.30657 16.6934 3.50264 12 3.50264ZM2.50264 12C2.50264 6.75429 6.75429 2.50264 12 2.50264C17.2457 2.50264 21.4974 6.75429 21.4974 12C21.4974 17.245 17.2453 21.4974 12 21.4974C6.75465 21.4974 2.50264 17.245 2.50264 12ZM8.11811 8.11768C8.50867 7.72718 9.14183 7.72724 9.53232 8.11779L12.0001 10.5859L14.4678 8.11779C14.8583 7.72724 15.4914 7.72718 15.882 8.11768C16.2726 8.50817 16.2726 9.14133 15.8821 9.53189L13.4141 12.0003L15.8818 14.4683C16.2723 14.8589 16.2722 15.492 15.8817 15.8825L15.5282 15.529L15.8817 15.8825C15.4911 16.273 14.858 16.273 14.4675 15.8824L12.0001 13.4146L9.53264 15.8824C9.14215 16.273 8.50898 16.273 8.11843 15.8825L8.47195 15.529L8.11842 15.8825C7.72787 15.492 7.72782 14.8589 8.11831 14.4683L10.586 12.0003L8.11799 9.53189C7.7275 9.14133 7.72755 8.50817 8.11811 8.11768L8.47163 8.47126L8.11811 8.11768Z" fill="currentcolor"/>
</svg>
