<svg width="24" height="24" viewBox="0 0 24 24" fill="none" xmlns="http://www.w3.org/2000/svg">
<path fill-rule="evenodd" clip-rule="evenodd" d="M12 2.00021C17.5233 2.00021 22 6.47688 22 12.0002C22 17.5224 17.5233 22.0002 12 22.0002C6.47667 22.0002 2 17.5224 2 12.0002C2 6.47688 6.47667 2.00021 12 2.00021ZM8.25595 9.04124C8.03901 8.82426 8.03904 8.47251 8.25601 8.25557C8.47299 8.03863 8.82475 8.03866 9.04169 8.25563L12.0001 11.2145L14.9585 8.25563C15.1754 8.03866 15.5272 8.03863 15.7442 8.25557C15.9612 8.47251 15.9612 8.82426 15.7442 9.04124L12.7857 12.0003L15.7439 14.959C15.9608 15.1759 15.9608 15.5277 15.7438 15.7446C15.5269 15.9616 15.1751 15.9615 14.9582 15.7446L12.0001 12.786L9.04202 15.7446C8.82508 15.9615 8.47332 15.9616 8.25635 15.7446C8.03937 15.5277 8.03934 15.1759 8.25628 14.959L11.2145 12.0003L8.25595 9.04124Z" fill="currentcolor"/>
</svg>
