<svg width="24" height="24" viewBox="0 0 24 24" fill="none" xmlns="http://www.w3.org/2000/svg">
<path fill-rule="evenodd" clip-rule="evenodd" d="M22 12C22 17.5226 17.523 22 12 22C6.47705 22 2 17.5226 2 12C2 6.47669 6.47669 2 12 2C17.5233 2 22 6.47669 22 12ZM20.9974 12C20.9974 7.03043 16.9696 3.00264 12 3.00264C7.03043 3.00264 3.00264 7.03043 3.00264 12C3.00264 16.9689 7.03081 20.9974 12 20.9974C16.9692 20.9974 20.9974 16.9689 20.9974 12ZM8.47158 9.17837C8.27633 8.98309 8.27636 8.66651 8.47163 8.47126C8.66691 8.27601 8.98349 8.27604 9.17874 8.47132L12.0001 11.2931L14.8214 8.47132C15.0166 8.27604 15.3332 8.27601 15.5285 8.47126C15.7237 8.66651 15.7238 8.98309 15.5285 9.17837L12.7071 12.0003L15.5282 14.8218C15.7235 15.0171 15.7234 15.3337 15.5282 15.529C15.3329 15.7242 15.0163 15.7242 14.821 15.5289L12.0001 12.7074L9.17906 15.5289C8.98381 15.7242 8.66723 15.7242 8.47195 15.529C8.27667 15.3337 8.27665 15.0171 8.47189 14.8218L11.293 12.0003L8.47158 9.17837Z" fill="currentcolor"/>
</svg>
