<svg width="24" height="24" viewBox="0 0 24 24" fill="none" xmlns="http://www.w3.org/2000/svg">
<path fill-rule="evenodd" clip-rule="evenodd" d="M20.929 11.9643C20.929 12.8254 20.814 13.6596 20.5985 14.4524C21.9645 15.1455 22.9004 16.5634 22.9004 18.2001C22.9004 20.5194 21.0202 22.4001 18.7004 22.4001C17.2863 22.4001 16.0355 21.7012 15.2744 20.6301C14.1086 21.1434 12.8196 21.4283 11.464 21.4283C6.23752 21.4283 2 17.1911 2 11.9643C2 6.7375 6.23752 2.50031 11.464 2.50031C16.6913 2.50031 20.929 6.73734 20.929 11.9643ZM19.929 11.9643C19.929 12.7053 19.8338 13.4241 19.6549 14.109C19.3483 14.0378 19.0287 14.0001 18.7004 14.0001C16.3806 14.0001 14.5004 15.8803 14.5004 18.2001C14.5004 18.7467 14.6048 19.2689 14.7948 19.7479C13.7725 20.1858 12.6466 20.4283 11.464 20.4283C6.78979 20.4283 3 16.6388 3 11.9643C3 7.2898 6.78979 3.50031 11.464 3.50031C16.1391 3.50031 19.929 7.28966 19.929 11.9643ZM14.0431 9.63841C14.2552 9.46156 14.2838 9.14627 14.1069 8.93419C13.9791 8.7809 13.7497 8.57463 13.4153 8.37408C12.9944 8.12172 12.5097 7.94759 11.9641 7.88124V7.00031C11.9641 6.72416 11.7402 6.50031 11.4641 6.50031C11.188 6.50031 10.9641 6.72416 10.9641 7.00031V7.88372C9.59768 8.06507 8.7059 8.98998 8.7059 10.1574C8.7059 11.6225 9.45559 12.0724 11.3667 12.4546C12.8432 12.75 13.2229 12.9777 13.2229 13.7704C13.2229 14.498 12.5791 15.0774 11.4639 15.0774C10.9001 15.0774 10.4235 14.9343 10.0279 14.6967C9.79771 14.5585 9.65054 14.426 9.59008 14.3534C9.41334 14.1412 9.09807 14.1125 8.88589 14.2892C8.67371 14.466 8.64498 14.7812 8.82172 14.9934C8.94951 15.1468 9.17878 15.3533 9.51313 15.5541C9.93566 15.8078 10.4225 15.9825 10.9706 16.0483C10.9663 16.0747 10.9641 16.1017 10.9641 16.1292V17.0322C10.9641 17.3083 11.188 17.5322 11.4641 17.5322C11.7402 17.5322 11.9641 17.3083 11.9641 17.0322V16.1292C11.9641 16.1008 11.9617 16.073 11.9572 16.046C13.3279 15.8666 14.2229 14.94 14.2229 13.7704C14.2229 12.3058 13.4735 11.8562 11.5625 11.474C10.0858 11.1786 9.7059 10.9507 9.7059 10.1574C9.7059 9.43026 10.3493 8.85141 11.4639 8.85141C12.0283 8.85141 12.5052 8.99439 12.901 9.23173C13.1313 9.3698 13.2785 9.50216 13.3389 9.57462C13.5157 9.7867 13.831 9.81526 14.0431 9.63841ZM18.3874 19.8632L20.4002 17.6632C20.5493 17.5028 20.5245 17.2507 20.3754 17.0903C20.1766 16.9528 19.9032 16.9757 19.7542 17.1361L18.0893 18.9695L17.2692 18.0757C17.0953 17.9153 16.8219 17.8924 16.648 18.0299C16.4741 18.1903 16.4492 18.4424 16.5983 18.6028L17.7414 19.8632C17.8159 19.9549 17.9402 20.0007 18.0644 20.0007C18.1886 20.0007 18.3129 19.9549 18.3874 19.8632Z" fill="currentcolor"/>
</svg>
