<svg width="24" height="24" viewBox="0 0 24 24" fill="none" xmlns="http://www.w3.org/2000/svg">
<path fill-rule="evenodd" clip-rule="evenodd" d="M20.429 11.9643C20.429 12.7546 20.3207 13.5196 20.1181 14.2452C20.4412 14.361 20.7459 14.5152 21.0268 14.7024C21.2884 13.8356 21.429 12.9164 21.429 11.9643C21.429 6.73734 17.1913 2.50031 11.964 2.50031C6.73752 2.50031 2.5 6.7375 2.5 11.9643C2.5 17.1911 6.73752 21.4283 11.964 21.4283C13.1733 21.4283 14.3296 21.2015 15.3927 20.7882C15.1841 20.522 15.0069 20.2299 14.8668 19.9175C13.9614 20.248 12.9838 20.4283 11.964 20.4283C7.28979 20.4283 3.5 16.6388 3.5 11.9643C3.5 7.2898 7.28979 3.50031 11.964 3.50031C16.6391 3.50031 20.429 7.28966 20.429 11.9643ZM14.5431 9.63841C14.7552 9.46156 14.7838 9.14627 14.6069 8.93419C14.4791 8.7809 14.2497 8.57463 13.9153 8.37408C13.4944 8.12172 13.0097 7.94759 12.4641 7.88124V7.00031C12.4641 6.72416 12.2402 6.50031 11.9641 6.50031C11.688 6.50031 11.4641 6.72416 11.4641 7.00031V7.88372C10.0977 8.06507 9.2059 8.98998 9.2059 10.1574C9.2059 11.6225 9.95559 12.0724 11.8667 12.4546C13.3432 12.75 13.7229 12.9777 13.7229 13.7704C13.7229 14.498 13.0791 15.0774 11.9639 15.0774C11.4001 15.0774 10.9235 14.9343 10.5279 14.6967C10.2977 14.5585 10.1505 14.426 10.0901 14.3534C9.91334 14.1412 9.59807 14.1125 9.38589 14.2892C9.17371 14.466 9.14498 14.7812 9.32172 14.9934C9.44951 15.1468 9.67878 15.3533 10.0131 15.5541C10.4357 15.8078 10.9225 15.9825 11.4706 16.0483C11.4663 16.0747 11.4641 16.1017 11.4641 16.1292V17.0322C11.4641 17.3083 11.688 17.5322 11.9641 17.5322C12.2402 17.5322 12.4641 17.3083 12.4641 17.0322V16.1292C12.4641 16.1008 12.4617 16.073 12.4572 16.046C13.8279 15.8666 14.7229 14.94 14.7229 13.7704C14.7229 12.3058 13.9735 11.8562 12.0625 11.474C10.5858 11.1786 10.2059 10.9507 10.2059 10.1574C10.2059 9.43026 10.8493 8.85141 11.9639 8.85141C12.5283 8.85141 13.0052 8.99439 13.401 9.23173C13.6313 9.3698 13.7785 9.50216 13.8389 9.57462C14.0157 9.7867 14.331 9.81526 14.5431 9.63841Z" fill="currentcolor"/>
<path d="M20.1181 14.2452L19.6365 14.1108L19.5114 14.5589L19.9494 14.7159L20.1181 14.2452ZM21.0268 14.7024L20.7496 15.1185L21.3107 15.4924L21.5055 14.8469L21.0268 14.7024ZM15.3927 20.7882L15.5739 21.2543L16.2018 21.0102L15.7863 20.4799L15.3927 20.7882ZM14.8668 19.9175L15.323 19.7129L15.1325 19.2883L14.6954 19.4479L14.8668 19.9175ZM14.6069 8.93419L14.9909 8.61397L14.9909 8.61397L14.6069 8.93419ZM13.9153 8.37408L13.6581 8.80291L13.6581 8.80291L13.9153 8.37408ZM12.4641 7.88124H11.9641V8.32411L12.4037 8.37758L12.4641 7.88124ZM11.4641 7.88372L11.5299 8.37937L11.9641 8.32175V7.88372H11.4641ZM11.8667 12.4546L11.9648 11.9644L11.8667 12.4546ZM10.5279 14.6967L10.7853 14.2681L10.7853 14.2681L10.5279 14.6967ZM10.0901 14.3534L9.7059 14.6734L9.7059 14.6734L10.0901 14.3534ZM9.32172 14.9934L8.93754 15.3134L9.32172 14.9934ZM10.0131 15.5541L9.75574 15.9827L10.0131 15.5541ZM11.4706 16.0483L11.9641 16.1286L12.0478 15.6141L11.5302 15.5519L11.4706 16.0483ZM12.4572 16.046L12.3923 15.5502L11.8784 15.6174L11.9641 16.1286L12.4572 16.046ZM12.0625 11.474L12.1605 10.9837V10.9837L12.0625 11.474ZM13.401 9.23173L13.6581 8.80291L13.401 9.23173ZM13.8389 9.57462L13.4549 9.89484H13.4549L13.8389 9.57462ZM20.5997 14.3797C20.8144 13.6107 20.929 12.8005 20.929 11.9643H19.929C19.929 12.7087 19.827 13.4285 19.6365 14.1108L20.5997 14.3797ZM21.3041 14.2863C20.9898 14.0769 20.6486 13.9042 20.2868 13.7745L19.9494 14.7159C20.2337 14.8178 20.5021 14.9536 20.7496 15.1185L21.3041 14.2863ZM20.929 11.9643C20.929 12.8669 20.7957 13.7375 20.5482 14.558L21.5055 14.8469C21.7811 13.9337 21.929 12.9659 21.929 11.9643H20.929ZM11.964 3.00031C16.9152 3.00031 20.929 7.01354 20.929 11.9643H21.929C21.929 6.46114 17.4674 2.00031 11.964 2.00031V3.00031ZM3 11.9643C3 7.01365 7.01365 3.00031 11.964 3.00031V2.00031C6.46139 2.00031 2 6.46135 2 11.9643H3ZM11.964 20.9283C7.01365 20.9283 3 16.915 3 11.9643H2C2 17.4673 6.46139 21.9283 11.964 21.9283V20.9283ZM15.2116 20.3222C14.2053 20.7134 13.1103 20.9283 11.964 20.9283V21.9283C13.2362 21.9283 14.4539 21.6897 15.5739 21.2543L15.2116 20.3222ZM14.4106 20.1222C14.5675 20.4719 14.7658 20.7988 14.9992 21.0966L15.7863 20.4799C15.6024 20.2451 15.4464 19.9878 15.323 19.7129L14.4106 20.1222ZM11.964 20.9283C13.0431 20.9283 14.0787 20.7375 15.0382 20.3872L14.6954 19.4479C13.8441 19.7586 12.9244 19.9283 11.964 19.9283V20.9283ZM3 11.9643C3 16.915 7.01366 20.9283 11.964 20.9283V19.9283C7.56592 19.9283 4 16.3627 4 11.9643H3ZM11.964 3.00031C7.01366 3.00031 3 7.01365 3 11.9643H4C4 7.56595 7.56592 4.00031 11.964 4.00031V3.00031ZM20.929 11.9643C20.929 7.01345 16.9151 3.00031 11.964 3.00031V4.00031C16.363 4.00031 19.929 7.56586 19.929 11.9643H20.929ZM14.2229 9.2544H14.2229L14.8633 10.0224C15.2875 9.66871 15.3446 9.03813 14.9909 8.61397L14.2229 9.2544ZM13.6581 8.80291C13.9529 8.97965 14.1368 9.1511 14.2229 9.25441L14.9909 8.61397C14.8214 8.4107 14.5466 8.16961 14.1724 7.94526L13.6581 8.80291ZM12.4037 8.37758C12.8789 8.43537 13.2967 8.58616 13.6581 8.80291L14.1724 7.94526C13.6921 7.65727 13.1405 7.45982 12.5245 7.3849L12.4037 8.37758ZM11.9641 7.00031V7.88124H12.9641V7.00031H11.9641ZM11.9641 7.00031H12.9641C12.9641 6.44802 12.5164 6.00031 11.9641 6.00031V7.00031ZM11.9641 7.00031V6.00031C11.4118 6.00031 10.9641 6.44802 10.9641 7.00031H11.9641ZM11.9641 7.88372V7.00031H10.9641V7.88372H11.9641ZM9.7059 10.1574C9.7059 9.29063 10.3591 8.53476 11.5299 8.37937L11.3983 7.38807C9.83628 7.59538 8.7059 8.68932 8.7059 10.1574H9.7059ZM11.9648 11.9644C11.0066 11.7727 10.4542 11.5812 10.1333 11.3227C9.86263 11.1047 9.7059 10.795 9.7059 10.1574H8.7059C8.7059 10.9849 8.92402 11.6327 9.50599 12.1015C10.0377 12.5297 10.8157 12.7543 11.7686 12.9449L11.9648 11.9644ZM14.2229 13.7704C14.2229 13.5368 14.1957 13.299 14.1004 13.0757C14.0007 12.8421 13.8414 12.6587 13.6326 12.5146C13.2545 12.2536 12.6863 12.1087 11.9648 11.9644L11.7686 12.9449C12.5237 13.096 12.8835 13.2126 13.0644 13.3375C13.1351 13.3863 13.163 13.4269 13.1806 13.4682C13.2026 13.5197 13.2229 13.6077 13.2229 13.7704H14.2229ZM11.9639 15.5774C12.6044 15.5774 13.1615 15.411 13.5704 15.09C13.9866 14.7633 14.2229 14.2938 14.2229 13.7704H13.2229C13.2229 13.9746 13.1373 14.1586 12.9528 14.3035C12.761 14.4541 12.4387 14.5774 11.9639 14.5774V15.5774ZM10.2705 15.1254C10.7457 15.4107 11.3116 15.5774 11.9639 15.5774V14.5774C11.4886 14.5774 11.1014 14.4579 10.7853 14.2681L10.2705 15.1254ZM9.7059 14.6734C9.81248 14.8014 10.0082 14.9679 10.2705 15.1254L10.7853 14.2681C10.69 14.2109 10.6152 14.1568 10.5609 14.1126C10.5337 14.0905 10.5127 14.0717 10.4974 14.0571C10.4898 14.0498 10.484 14.0439 10.48 14.0396C10.4758 14.0352 10.474 14.0331 10.4743 14.0334L9.7059 14.6734ZM9.7059 14.6734H9.7059L10.4743 14.0334C10.1208 13.609 9.49024 13.5516 9.06588 13.905L9.7059 14.6734ZM9.7059 14.6734V14.6734L9.06588 13.905C8.64153 14.2585 8.58407 14.8891 8.93754 15.3134L9.7059 14.6734ZM10.2705 15.1254C9.97587 14.9485 9.79207 14.7768 9.7059 14.6734L8.93754 15.3134C9.10695 15.5168 9.38169 15.7581 9.75574 15.9827L10.2705 15.1254ZM11.5302 15.5519C11.0529 15.4946 10.6334 15.3433 10.2705 15.1254L9.75574 15.9827C10.2379 16.2723 10.792 16.4704 11.411 16.5448L11.5302 15.5519ZM11.9641 16.1292L11.9641 16.1286L10.9771 15.9681C10.9685 16.0208 10.9641 16.0746 10.9641 16.1292H11.9641ZM11.9641 17.0322V16.1292H10.9641V17.0322H11.9641ZM11.9641 17.0322H10.9641C10.9641 17.5845 11.4118 18.0322 11.9641 18.0322V17.0322ZM11.9641 17.0322V18.0322C12.5164 18.0322 12.9641 17.5845 12.9641 17.0322H11.9641ZM11.9641 16.1292V17.0322H12.9641V16.1292H11.9641ZM11.9641 16.1286L11.9641 16.1292H12.9641C12.9641 16.073 12.9594 16.0175 12.9503 15.9633L11.9641 16.1286ZM14.2229 13.7704C14.2229 14.6388 13.5673 15.3965 12.3923 15.5502L12.5221 16.5417C14.0886 16.3368 15.2229 15.2412 15.2229 13.7704H14.2229ZM11.9644 11.9643C12.9225 12.1559 13.4748 12.3473 13.7957 12.6057C14.0662 12.8236 14.2229 13.1331 14.2229 13.7704H15.2229C15.2229 12.9431 15.0048 12.2955 14.4229 11.8269C13.8913 11.3988 13.1134 11.1743 12.1605 10.9837L11.9644 11.9643ZM9.7059 10.1574C9.7059 10.3912 9.7331 10.629 9.82844 10.8525C9.92814 11.0861 10.0875 11.2696 10.2963 11.4138C10.6744 11.675 11.2428 11.8199 11.9644 11.9643L12.1605 10.9837C11.4054 10.8327 11.0455 10.716 10.8646 10.591C10.7938 10.5421 10.7659 10.5014 10.7482 10.46C10.7262 10.4084 10.7059 10.3203 10.7059 10.1574H9.7059ZM11.9639 8.35141C11.3238 8.35141 10.7669 8.51762 10.3582 8.83841C9.94214 9.16498 9.7059 9.63423 9.7059 10.1574H10.7059C10.7059 9.95344 10.7914 9.76968 10.9756 9.62504C11.1673 9.47462 11.4894 9.35141 11.9639 9.35141V8.35141ZM13.6581 8.80291C13.1828 8.51786 12.6166 8.35141 11.9639 8.35141V9.35141C12.4399 9.35141 12.8276 9.47091 13.1439 9.66055L13.6581 8.80291ZM14.2229 9.25441C14.1163 9.12655 13.9205 8.9602 13.6581 8.80291L13.1439 9.66055C13.2392 9.7177 13.3141 9.77176 13.3684 9.81586C13.3955 9.83789 13.4166 9.85668 13.4318 9.87128C13.4394 9.87854 13.4452 9.88437 13.4492 9.88867C13.4534 9.89306 13.4551 9.89512 13.4549 9.89484L14.2229 9.25441ZM14.2229 9.2544L14.2229 9.25441L13.4549 9.89484C13.8086 10.319 14.4392 10.3761 14.8633 10.0224L14.2229 9.2544Z" fill="currentcolor"/>
<path fill-rule="evenodd" clip-rule="evenodd" d="M18.7 14.0001C21.0198 14.0001 22.9 15.8803 22.9 18.2001C22.9 20.5195 21.0198 22.4001 18.7 22.4001C16.3802 22.4001 14.5 20.5195 14.5 18.2001C14.5 15.8803 16.3802 14.0001 18.7 14.0001ZM18.387 19.8632L20.3998 17.6632C20.5489 17.5028 20.5241 17.2507 20.375 17.0903C20.1762 16.9528 19.9028 16.9757 19.7538 17.1361L18.0889 18.9695L17.2688 18.0757C17.0949 17.9153 16.8215 17.8924 16.6476 18.0299C16.4737 18.1903 16.4488 18.4424 16.5979 18.6028L17.741 19.8632C17.8155 19.9549 17.9398 20.0007 18.064 20.0007C18.1882 20.0007 18.3125 19.9549 18.387 19.8632Z" fill="currentcolor"/>
</svg>
