<svg width="24" height="24" viewBox="0 0 24 24" fill="none" xmlns="http://www.w3.org/2000/svg">
<path fill-rule="evenodd" clip-rule="evenodd" d="M18.7827 2.08733C18.5548 1.9314 18.2437 1.98974 18.0877 2.21764L16.9318 3.90708C15.4878 3.01505 13.786 2.50029 11.964 2.50029C6.73752 2.50029 2.5 6.73748 2.5 11.9643C2.5 15.0465 3.97351 17.7845 6.2544 19.5125L5.08775 21.2176L5.04364 21.2964C4.94687 21.5128 5.01548 21.774 5.21806 21.9126C5.44596 22.0686 5.75712 22.0102 5.91305 21.7823L7.0822 20.0736C8.50758 20.9335 10.178 21.4283 11.964 21.4283C17.1913 21.4283 21.429 17.1913 21.429 11.9643C21.429 8.91792 19.9896 6.20781 17.7537 4.47678L18.9131 2.78233L18.9572 2.7036C19.0539 2.4872 18.9853 2.22594 18.7827 2.08733ZM16.3664 4.73351C15.0837 3.95108 13.5765 3.50029 11.964 3.50029C7.28979 3.50029 3.5 7.28978 3.5 11.9643C3.5 14.7037 4.80153 17.1391 6.81985 18.6861L9.33539 15.0096C9.33071 15.0041 9.32615 14.9987 9.32172 14.9934C9.14498 14.7812 9.17371 14.4659 9.38589 14.2892C9.52991 14.1692 9.72144 14.1439 9.88489 14.2064L11.1878 12.3022C9.77561 11.9403 9.2059 11.4346 9.2059 10.1574C9.2059 8.98996 10.0977 8.06505 11.4641 7.8837V7.00029C11.4641 6.72414 11.688 6.50029 11.9641 6.50029C12.2402 6.50029 12.4641 6.72414 12.4641 7.00029V7.88122C12.9975 7.94609 13.4727 8.11397 13.887 8.35726L16.3664 4.73351ZM14.6559 9.00427L17.1879 5.30372C19.1613 6.85326 20.429 9.26071 20.429 11.9643C20.429 16.6389 16.6391 20.4283 11.964 20.4283C10.3876 20.4283 8.91177 19.9973 7.64801 19.2466L10.1289 15.6207C10.5239 15.8384 10.9719 15.9884 11.4706 16.0483C11.4663 16.0746 11.4641 16.1017 11.4641 16.1292V17.0322C11.4641 17.3083 11.688 17.5322 11.9641 17.5322C12.2402 17.5322 12.4641 17.3083 12.4641 17.0322V16.1292C12.4641 16.1008 12.4617 16.073 12.4572 16.0459C13.8279 15.8666 14.7229 14.94 14.7229 13.7704C14.7229 12.5249 14.1809 12.0134 12.8435 11.6532L14.1467 9.74855C14.2835 9.7696 14.4284 9.73404 14.5431 9.63839C14.7329 9.48015 14.7757 9.21107 14.6559 9.00427ZM13.3204 9.1853C12.9409 8.97586 12.4905 8.85139 11.9639 8.85139C10.8493 8.85139 10.2059 9.43024 10.2059 10.1574C10.2059 10.9 10.5388 11.1472 11.7927 11.418L13.3204 9.1853ZM12.2411 12.5336L10.6973 14.79C11.0574 14.9712 11.4783 15.0774 11.9639 15.0774C13.0791 15.0774 13.7229 14.4979 13.7229 13.7704C13.7229 13.0494 13.4088 12.7958 12.2411 12.5336Z" fill="currentcolor"/>
</svg>
