<svg width="24" height="24" viewBox="0 0 24 24" fill="none" xmlns="http://www.w3.org/2000/svg">
<path fill-rule="evenodd" clip-rule="evenodd" d="M21.429 11.9643C21.429 17.1913 17.1913 21.4283 11.964 21.4283C6.73752 21.4283 2.5 17.1911 2.5 11.9643C2.5 6.7375 6.73752 2.50031 11.964 2.50031C17.1913 2.50031 21.429 6.73734 21.429 11.9643ZM20.429 11.9643C20.429 7.28966 16.6391 3.50031 11.964 3.50031C7.28979 3.50031 3.5 7.2898 3.5 11.9643C3.5 16.6388 7.28979 20.4283 11.964 20.4283C16.6391 20.4283 20.429 16.639 20.429 11.9643ZM14.5431 9.63841C14.7552 9.46156 14.7838 9.14627 14.6069 8.93419C14.4791 8.7809 14.2497 8.57463 13.9153 8.37408C13.4944 8.12172 13.0097 7.94759 12.4641 7.88124V7.00031C12.4641 6.72416 12.2402 6.50031 11.9641 6.50031C11.688 6.50031 11.4641 6.72416 11.4641 7.00031V7.88372C10.0977 8.06507 9.2059 8.98998 9.2059 10.1574C9.2059 11.6225 9.95559 12.0724 11.8667 12.4546C13.3432 12.75 13.7229 12.9777 13.7229 13.7704C13.7229 14.498 13.0791 15.0774 11.9639 15.0774C11.4001 15.0774 10.9235 14.9343 10.5279 14.6967C10.2977 14.5585 10.1505 14.426 10.0901 14.3534C9.91334 14.1412 9.59807 14.1125 9.38589 14.2892C9.17371 14.466 9.14498 14.7812 9.32172 14.9934C9.44951 15.1468 9.67878 15.3533 10.0131 15.5541C10.4357 15.8078 10.9225 15.9825 11.4706 16.0483C11.4663 16.0747 11.4641 16.1017 11.4641 16.1292V17.0322C11.4641 17.3083 11.688 17.5322 11.9641 17.5322C12.2402 17.5322 12.4641 17.3083 12.4641 17.0322V16.1292C12.4641 16.1008 12.4617 16.073 12.4572 16.046C13.8279 15.8666 14.7229 14.94 14.7229 13.7704C14.7229 12.3058 13.9735 11.8562 12.0625 11.474C10.5858 11.1786 10.2059 10.9507 10.2059 10.1574C10.2059 9.43026 10.8493 8.85141 11.9639 8.85141C12.5283 8.85141 13.0052 8.99439 13.401 9.23173C13.6313 9.3698 13.7785 9.50216 13.8389 9.57462C14.0157 9.7867 14.331 9.81526 14.5431 9.63841Z" fill="currentcolor"/>
</svg>
