<svg width="24" height="24" viewBox="0 0 24 24" fill="none" xmlns="http://www.w3.org/2000/svg">
<path fill-rule="evenodd" clip-rule="evenodd" d="M7.36868 17.8052C7.1315 17.7205 7.04644 17.6902 7.0162 17.6315C6.9993 17.5987 6.99953 17.5571 6.99989 17.4922C6.99994 17.4823 7 17.4718 7 17.4608V5.34576C7 5.14722 7.1371 4.99976 7.28622 4.99976H7.42091L13.5204 6.94592C13.866 7.03625 14 7.16854 14 7.34616V18.3068V19.4612C14 19.6331 13.882 19.7728 13.7305 19.8017L7.64812 17.9151C7.62371 17.9075 7.59916 17.9019 7.57464 17.8982C7.53867 17.8728 7.49872 17.8518 7.45528 17.8362C7.42437 17.8251 7.39555 17.8148 7.36868 17.8052ZM7.21161 18.8013C7.18 18.7964 7.14839 18.7885 7.11717 18.7773C6.28398 18.478 6 18.1947 6 17.4608V5.34576C6 4.61058 6.56786 3.99976 7.28622 3.99976H16.715C17.4334 3.99976 18 4.61055 18 5.34576V13.7658V14.5001V17.4608C18 18.1808 17.512 18.8068 16.84 18.8068H15V19.4612C15 20.2019 14.4081 20.8072 13.6724 20.8072L13.5243 20.7847L7.35188 18.8702C7.30041 18.8542 7.25338 18.8307 7.21161 18.8013ZM15 17.8068H16.84C16.8975 17.8068 17 17.6753 17 17.4608V14.5001V13.7658V5.34576C17 5.14677 16.8636 4.99976 16.715 4.99976H10.7094L13.7978 5.98556C14.5162 6.1717 15 6.6493 15 7.34616V17.8068Z" fill="currentcolor"/>
</svg>
