<svg width="24" height="24" viewBox="0 0 24 24" fill="none" xmlns="http://www.w3.org/2000/svg">
<path fill-rule="evenodd" clip-rule="evenodd" d="M7.36868 16.8052C7.1315 16.7205 7.04644 16.6902 7.0162 16.6315C6.9993 16.5987 6.99953 16.5571 6.99989 16.4922C6.99994 16.4823 7 16.4718 7 16.4608V4.34576C7 4.14722 7.1371 3.99976 7.28622 3.99976H7.42091L13.5204 5.94592C13.866 6.03625 14 6.16854 14 6.34616V17.3068V18.4612C14 18.6331 13.882 18.7728 13.7305 18.8017L7.64812 16.9151C7.62371 16.9075 7.59916 16.9019 7.57464 16.8982C7.53867 16.8728 7.49872 16.8518 7.45528 16.8362C7.42437 16.8251 7.39555 16.8148 7.36868 16.8052ZM7.21161 17.8013C7.18 17.7964 7.14839 17.7885 7.11717 17.7773C6.28398 17.478 6 17.1947 6 16.4608V4.34576C6 3.61058 6.56786 2.99976 7.28622 2.99976H16.715C17.4334 2.99976 18 3.61055 18 4.34576V12.7658V13.5001V16.4608C18 17.1808 17.512 17.8068 16.84 17.8068H15V18.4612C15 19.2019 14.4081 19.8072 13.6724 19.8072L13.5243 19.7847L7.35188 17.8702C7.30041 17.8542 7.25338 17.8307 7.21161 17.8013ZM15 16.8068H16.84C16.8975 16.8068 17 16.6753 17 16.4608V13.5001V12.7658V4.34576C17 4.14677 16.8636 3.99976 16.715 3.99976H10.7094L13.7978 4.98556C14.5162 5.1717 15 5.6493 15 6.34616V16.8068Z" fill="currentcolor"/>
<path d="M7.0162 16.6315L6.57181 16.8607L6.57181 16.8607L7.0162 16.6315ZM7.36868 16.8052L7.5368 16.3343H7.5368L7.36868 16.8052ZM6.99989 16.4922L6.49989 16.4895L6.99989 16.4922ZM7.42091 3.99976L7.5729 3.52342L7.49875 3.49976H7.42091V3.99976ZM13.5204 5.94592L13.3684 6.42226L13.3811 6.42631L13.394 6.42967L13.5204 5.94592ZM13.7305 18.8017L13.5824 19.2792L13.7015 19.3162L13.8241 19.2928L13.7305 18.8017ZM7.64812 16.9151L7.79625 16.4375L7.79625 16.4375L7.64812 16.9151ZM7.57464 16.8982L7.28653 17.3068L7.38286 17.3747L7.4994 17.3925L7.57464 16.8982ZM7.45528 16.8362L7.28622 17.3068L7.28623 17.3068L7.45528 16.8362ZM7.21161 17.8013L7.49983 17.3927L7.40341 17.3247L7.28675 17.3069L7.21161 17.8013ZM7.11717 17.7773L7.28623 17.3068L7.28622 17.3068L7.11717 17.7773ZM15 17.8068V17.3068H14.5V17.8068H15ZM13.6724 19.8072L13.5975 20.3015L13.6347 20.3072H13.6724V19.8072ZM13.5243 19.7847L13.3762 20.2623L13.4121 20.2734L13.4494 20.2791L13.5243 19.7847ZM7.35188 17.8702L7.5 17.3926H7.5L7.35188 17.8702ZM15 16.8068H14.5V17.3068H15V16.8068ZM10.7094 3.99976V3.49976L10.5574 4.47608L10.7094 3.99976ZM13.7978 4.98556L13.6458 5.46189L13.659 5.4661L13.6724 5.46958L13.7978 4.98556ZM6.57181 16.8607C6.66599 17.0433 6.82448 17.1249 6.9035 17.1617C6.98484 17.1997 7.09319 17.2378 7.20056 17.2761L7.5368 16.3343C7.47626 16.3127 7.43063 16.2964 7.39332 16.2824C7.35525 16.2681 7.33577 16.2599 7.32617 16.2555C7.31531 16.2504 7.33208 16.2569 7.35802 16.2771C7.37235 16.2883 7.39053 16.3044 7.40938 16.3263C7.42863 16.3487 7.44608 16.3742 7.4606 16.4024L6.57181 16.8607ZM6.49989 16.4895C6.49976 16.514 6.49899 16.567 6.50354 16.6182C6.50859 16.6751 6.52236 16.7648 6.57181 16.8607L7.4606 16.4024C7.49314 16.4655 7.49857 16.518 7.49961 16.5296C7.50014 16.5357 7.49996 16.537 7.49986 16.5297C7.49975 16.522 7.49978 16.5125 7.49988 16.495L6.49989 16.4895ZM6.5 16.4608C6.5 16.4702 6.49995 16.4794 6.49989 16.4895L7.49988 16.495C7.49993 16.4852 7.5 16.4734 7.5 16.4608H6.5ZM6.5 4.34576V16.4608H7.5V4.34576H6.5ZM7.28622 3.49976C6.79177 3.49976 6.5 3.94576 6.5 4.34576H7.5C7.5 4.36185 7.49413 4.39186 7.46668 4.42386C7.441 4.4538 7.38098 4.49976 7.28622 4.49976V3.49976ZM7.42091 3.49976H7.28622V4.49976H7.42091V3.49976ZM7.26893 4.4761L13.3684 6.42226L13.6724 5.46958L7.5729 3.52342L7.26893 4.4761ZM13.394 6.42967C13.4602 6.44699 13.505 6.46344 13.5338 6.47655C13.5627 6.48976 13.5683 6.49635 13.5621 6.49092C13.5541 6.48403 13.5354 6.4648 13.5199 6.43148C13.5043 6.39772 13.5 6.36654 13.5 6.34616H14.5C14.5 6.10835 14.4005 5.8945 14.2175 5.73569C14.0567 5.59613 13.8513 5.5156 13.6469 5.46217L13.394 6.42967ZM13.5 6.34616V17.3068H14.5V6.34616H13.5ZM13.5 17.3068V18.4612H14.5V17.3068H13.5ZM13.5 18.4612C13.5 18.4038 13.5422 18.3286 13.6369 18.3105L13.8241 19.2928C14.2219 19.2171 14.5 18.8624 14.5 18.4612H13.5ZM13.8786 18.3241L7.79625 16.4375L7.5 17.3926L13.5824 19.2792L13.8786 18.3241ZM7.79625 16.4375C7.74792 16.4225 7.69901 16.4113 7.64989 16.4039L7.4994 17.3925L7.5 17.3926L7.79625 16.4375ZM7.28623 17.3068L7.28653 17.3068L7.86276 16.4895C7.7904 16.4385 7.71046 16.3966 7.62434 16.3657L7.28623 17.3068ZM7.20056 17.2761C7.22747 17.2857 7.25584 17.2958 7.28622 17.3068L7.62435 16.3657C7.5929 16.3544 7.56362 16.3439 7.5368 16.3343L7.20056 17.2761ZM7.28675 17.3069L7.28623 17.3068L6.9481 18.2479C7.00996 18.2701 7.07304 18.2859 7.13647 18.2956L7.28675 17.3069ZM7.28622 17.3068C6.88126 17.1613 6.70785 17.0503 6.62228 16.9526C6.55785 16.879 6.5 16.7634 6.5 16.4608H5.5C5.5 16.892 5.58414 17.285 5.87 17.6114C6.13471 17.9137 6.51988 18.094 6.94811 18.2479L7.28622 17.3068ZM6.5 16.4608V4.34576H5.5V16.4608H6.5ZM6.5 4.34576C6.5 3.86097 6.86906 3.49976 7.28622 3.49976V2.49976C6.26665 2.49976 5.5 3.36018 5.5 4.34576H6.5ZM7.28622 3.49976H16.715V2.49976H7.28622V3.49976ZM16.715 3.49976C17.1316 3.49976 17.5 3.86032 17.5 4.34576H18.5C18.5 3.36077 17.7352 2.49976 16.715 2.49976V3.49976ZM17.5 4.34576V12.7658H18.5V4.34576H17.5ZM17.5 12.7658V13.5001H18.5V12.7658H17.5ZM17.5 13.5001V16.4608H18.5V13.5001H17.5ZM17.5 16.4608C17.5 16.9924 17.1556 17.3068 16.84 17.3068V18.3068C17.8684 18.3068 18.5 17.3691 18.5 16.4608H17.5ZM16.84 17.3068H15V18.3068H16.84V17.3068ZM15.5 18.4612V17.8068H14.5V18.4612H15.5ZM13.6724 20.3072C14.6919 20.3072 15.5 19.4703 15.5 18.4612H14.5C14.5 18.9336 14.1243 19.3072 13.6724 19.3072V20.3072ZM13.4494 20.2791L13.5975 20.3015L13.7473 19.3128L13.5992 19.2904L13.4494 20.2791ZM7.20375 18.3477L13.3762 20.2623L13.6724 19.3072L7.5 17.3926L7.20375 18.3477ZM6.92338 18.2098C7.00742 18.2691 7.10165 18.3161 7.20375 18.3477L7.5 17.3926L7.49983 17.3927L6.92338 18.2098ZM15 17.3068H16.84V16.3068H15V17.3068ZM16.84 17.3068C17.0316 17.3068 17.1637 17.2078 17.2208 17.1572C17.2906 17.0953 17.3423 17.0231 17.3797 16.9551C17.456 16.8163 17.5 16.646 17.5 16.4608H16.5C16.5 16.4901 16.4927 16.4928 16.5034 16.4734C16.508 16.465 16.5233 16.4391 16.5578 16.4086C16.5753 16.393 16.6043 16.3705 16.646 16.3504C16.6865 16.3309 16.7534 16.3068 16.84 16.3068V17.3068ZM17.5 16.4608V13.5001H16.5V16.4608H17.5ZM17.5 13.5001V12.7658H16.5V13.5001H17.5ZM17.5 12.7658V4.34576H16.5V12.7658H17.5ZM17.5 4.34576C17.5 3.94709 17.2105 3.49976 16.715 3.49976V4.49976C16.6198 4.49976 16.5592 4.45346 16.5332 4.42301C16.5054 4.39059 16.5 4.3607 16.5 4.34576H17.5ZM16.715 3.49976H10.7094V4.49976H16.715V3.49976ZM13.9499 4.50924L10.8615 3.52343L10.5574 4.47608L13.6458 5.46189L13.9499 4.50924ZM15.5 6.34616C15.5 5.35488 14.7904 4.72622 13.9232 4.50155L13.6724 5.46958C14.2421 5.61718 14.5 5.94372 14.5 6.34616H15.5ZM15.5 16.8068V6.34616H14.5V16.8068H15.5Z" fill="currentcolor"/>
</svg>
