<svg width="24" height="24" viewBox="0 0 24 24" fill="none" xmlns="http://www.w3.org/2000/svg">
<path fill-rule="evenodd" clip-rule="evenodd" d="M11.5 4.50018C11.5 4.22404 11.7239 4.00018 12 4.00018C12.2761 4.00018 12.5 4.22404 12.5 4.50018V16.2931L17.1464 11.6466C17.3417 11.4514 17.6583 11.4514 17.8536 11.6466C18.0488 11.8419 18.0488 12.1585 17.8536 12.3537L12.3536 17.8537C12.3056 17.9017 12.2504 17.9378 12.1914 17.9622C12.1324 17.9867 12.0678 18.0002 12 18.0002C11.9322 18.0002 11.8676 17.9867 11.8086 17.9622C11.7496 17.9378 11.6944 17.9017 11.6464 17.8537L6.14645 12.3537C5.95118 12.1585 5.95118 11.8419 6.14645 11.6466C6.34171 11.4514 6.65829 11.4514 6.85355 11.6466L11.5 16.2931V4.50018ZM6 19.5002C6 19.7763 6.22386 20.0002 6.5 20.0002H17.5C17.7761 20.0002 18 19.7763 18 19.5002C18 19.224 17.7761 19.0002 17.5 19.0002H6.5C6.22386 19.0002 6 19.224 6 19.5002Z" fill="currentcolor"/>
</svg>
