<svg width="24" height="24" viewBox="0 0 24 24" fill="none" xmlns="http://www.w3.org/2000/svg">
<path fill-rule="evenodd" clip-rule="evenodd" d="M11.5 4.50018C11.5 4.22404 11.7239 4.00018 12 4.00018C12.2761 4.00018 12.5 4.22404 12.5 4.50018V16.2931L17.1464 11.6466C17.3417 11.4514 17.6583 11.4514 17.8536 11.6466C18.0488 11.8419 18.0488 12.1585 17.8536 12.3537L12.3536 17.8537C12.3056 17.9017 12.2504 17.9378 12.1914 17.9622C12.1324 17.9867 12.0678 18.0002 12 18.0002C11.9322 18.0002 11.8676 17.9867 11.8086 17.9622C11.7496 17.9378 11.6944 17.9017 11.6464 17.8537L6.14645 12.3537C5.95118 12.1585 5.95118 11.8419 6.14645 11.6466C6.34171 11.4514 6.65829 11.4514 6.85355 11.6466L11.5 16.2931V4.50018ZM6 19.5002C6 19.7763 6.22386 20.0002 6.5 20.0002H17.5C17.7761 20.0002 18 19.7763 18 19.5002C18 19.224 17.7761 19.0002 17.5 19.0002H6.5C6.22386 19.0002 6 19.224 6 19.5002Z" fill="currentcolor"/>
<path d="M12.5 16.2931H12V17.5002L12.8536 16.6466L12.5 16.2931ZM17.1464 11.6466L17.5 12.0002V12.0002L17.1464 11.6466ZM17.8536 11.6466L17.5 12.0002V12.0002L17.8536 11.6466ZM17.8536 12.3537L18.2071 12.7073L18.2071 12.7073L17.8536 12.3537ZM12.3536 17.8537L12 17.5002L12 17.5002L12.3536 17.8537ZM12.003 18.0002L12.0044 18.5002L12.006 18.5002L12.003 18.0002ZM12 18.0002L11.9986 18.5002L12.0014 18.5002L12 18.0002ZM11.997 18.0002L11.9941 18.5002L11.9956 18.5002L11.997 18.0002ZM11.8086 17.9622L12.0001 17.5004L11.9998 17.5002L11.8086 17.9622ZM11.6464 17.8537L12 17.5002L11.6464 17.8537ZM6.14645 12.3537L5.79289 12.7073L5.79289 12.7073L6.14645 12.3537ZM6.14645 11.6466L6.5 12.0002H6.5L6.14645 11.6466ZM6.85355 11.6466L6.5 12.0002H6.5L6.85355 11.6466ZM11.5 16.2931L11.1464 16.6466L12 17.5002V16.2931H11.5ZM12 3.50018C11.4477 3.50018 11 3.9479 11 4.50018H12V3.50018ZM13 4.50018C13 3.9479 12.5523 3.50018 12 3.50018V4.50018H13ZM13 16.2931V4.50018H12V16.2931H13ZM16.7929 11.2931L12.1464 15.9395L12.8536 16.6466L17.5 12.0002L16.7929 11.2931ZM18.2071 11.2931C17.8166 10.9026 17.1834 10.9026 16.7929 11.2931L17.5 12.0002L18.2071 11.2931ZM18.2071 12.7073C18.5976 12.3168 18.5976 11.6836 18.2071 11.2931L17.5 12.0002L17.5 12.0002L18.2071 12.7073ZM12.7071 18.2073L18.2071 12.7073L17.5 12.0002L12 17.5002L12.7071 18.2073ZM12.006 18.5002C12.2592 18.4987 12.5135 18.4009 12.7071 18.2073L12 17.5002L12 17.5002L12.006 18.5002ZM12.0014 18.5002L12.0044 18.5002L12.0016 17.5002L11.9986 17.5002L12.0014 18.5002ZM11.9956 18.5002L11.9986 18.5002L12.0014 17.5002L11.9984 17.5002L11.9956 18.5002ZM11.6171 18.4241C11.7339 18.4726 11.8615 18.4994 11.9941 18.5002L11.9999 17.5002L12.0001 17.5004L11.6171 18.4241ZM11.2929 18.2073C11.3881 18.3025 11.4988 18.3752 11.6175 18.4243L11.9998 17.5002L12 17.5002L11.2929 18.2073ZM5.79289 12.7073L11.2929 18.2073L12 17.5002L6.5 12.0002L5.79289 12.7073ZM5.79289 11.2931C5.40237 11.6836 5.40237 12.3168 5.79289 12.7073L6.5 12.0002L6.5 12.0002L5.79289 11.2931ZM7.20711 11.2931C6.81658 10.9026 6.18342 10.9026 5.79289 11.2931L6.5 12.0002H6.5L7.20711 11.2931ZM11.8536 15.9395L7.20711 11.2931L6.5 12.0002L11.1464 16.6466L11.8536 15.9395ZM11 4.50018V16.2931H12V4.50018H11ZM6.5 19.5002H5.5C5.5 20.0525 5.94772 20.5002 6.5 20.5002V19.5002ZM17.5 19.5002H6.5V20.5002H17.5V19.5002ZM17.5 19.5002V20.5002C18.0523 20.5002 18.5 20.0525 18.5 19.5002H17.5ZM17.5 19.5002H18.5C18.5 18.9479 18.0523 18.5002 17.5 18.5002V19.5002ZM6.5 19.5002H17.5V18.5002H6.5V19.5002ZM6.5 19.5002V18.5002C5.94772 18.5002 5.5 18.9479 5.5 19.5002H6.5Z" fill="currentcolor"/>
</svg>
