<svg width="24" height="24" viewBox="0 0 24 24" fill="none" xmlns="http://www.w3.org/2000/svg">
<path fill-rule="evenodd" clip-rule="evenodd" d="M12.4899 11.0521V10.3318C13.4613 10.1057 14.1849 9.23507 14.1849 8.195C14.1849 6.98216 13.2024 6 11.9899 6C10.7775 6 9.79492 6.98216 9.79492 8.195C9.79492 8.47114 10.0188 8.695 10.2949 8.695C10.5711 8.695 10.7949 8.47114 10.7949 8.195C10.7949 7.53453 11.3297 7 11.9899 7C12.6502 7 13.1849 7.53453 13.1849 8.195C13.1849 8.85458 12.6501 9.389 11.9899 9.389C11.7138 9.389 11.4899 9.61286 11.4899 9.889V11.0524L4.02901 16.3291C3.03691 17.0306 3.53305 18.5893 4.74772 18.5893H19.2607C20.4763 18.5893 20.9719 17.0282 19.9789 16.3277L12.4899 11.0521ZM4.60639 17.1456C4.41081 17.2838 4.50804 17.5893 4.74772 17.5893H19.2607C19.5006 17.5893 19.5979 17.2827 19.4028 17.1451L11.9903 11.9233L4.60639 17.1456Z" fill="currentcolor"/>
<path d="M12.4899 10.3318L12.3766 9.84486L11.9899 9.93487V10.3318H12.4899ZM12.4899 11.0521H11.9899V11.3114L12.202 11.4608L12.4899 11.0521ZM14.1849 8.195H13.6849V8.195L14.1849 8.195ZM11.4899 11.0524L11.7786 11.4606L11.9899 11.3112V11.0524H11.4899ZM4.02901 16.3291L4.31767 16.7373L4.31772 16.7373L4.02901 16.3291ZM19.9789 16.3277L20.2671 15.9191L20.2669 15.919L19.9789 16.3277ZM4.60639 17.1456L4.89505 17.5538L4.8951 17.5538L4.60639 17.1456ZM19.4028 17.1451L19.691 16.7365L19.6907 16.7363L19.4028 17.1451ZM11.9903 11.9233L12.2782 11.5146L11.9897 11.3113L11.7016 11.5151L11.9903 11.9233ZM11.9899 10.3318V11.0521H12.9899V10.3318H11.9899ZM13.6849 8.195C13.6849 8.99728 13.1267 9.67023 12.3766 9.84486L12.6033 10.8188C13.7958 10.5412 14.6849 9.47285 14.6849 8.195L13.6849 8.195ZM11.9899 6.5C12.9263 6.5 13.6849 7.25836 13.6849 8.195H14.6849C14.6849 6.70596 13.4784 5.5 11.9899 5.5V6.5ZM10.2949 8.195C10.2949 7.25836 11.0536 6.5 11.9899 6.5V5.5C10.5014 5.5 9.29492 6.70596 9.29492 8.195H10.2949ZM10.2949 8.195H9.29492C9.29492 8.74728 9.74263 9.195 10.2949 9.195V8.195ZM10.2949 8.195V9.195C10.8472 9.195 11.2949 8.74728 11.2949 8.195H10.2949ZM11.9899 6.5C11.0536 6.5 10.2949 7.25833 10.2949 8.195H11.2949C11.2949 7.81073 11.6058 7.5 11.9899 7.5V6.5ZM13.6849 8.195C13.6849 7.25833 12.9263 6.5 11.9899 6.5V7.5C12.3741 7.5 12.6849 7.81074 12.6849 8.195H13.6849ZM11.9899 9.889C12.9258 9.889 13.6849 9.13111 13.6849 8.195H12.6849C12.6849 8.57804 12.3743 8.889 11.9899 8.889V9.889ZM11.9899 9.889V8.889C11.4376 8.889 10.9899 9.33672 10.9899 9.889H11.9899ZM11.9899 11.0524V9.889H10.9899V11.0524H11.9899ZM11.2012 10.6441L3.74029 15.9209L4.31772 16.7373L11.7786 11.4606L11.2012 10.6441ZM3.74034 15.9208C2.3496 16.9042 3.04599 19.0893 4.74772 19.0893V18.0893C4.02012 18.0893 3.72421 17.157 4.31767 16.7373L3.74034 15.9208ZM4.74772 19.0893H19.2607V18.0893H4.74772V19.0893ZM19.2607 19.0893C20.9636 19.0893 21.6593 16.9012 20.2671 15.9191L19.6907 16.7363C20.2845 17.1551 19.989 18.0893 19.2607 18.0893V19.0893ZM20.2669 15.919L12.7779 10.6433L12.202 11.4608L19.691 16.7365L20.2669 15.919ZM4.74772 17.0893C4.9945 17.0893 5.09862 17.4099 4.89505 17.5538L4.31772 16.7373C3.72301 17.1578 4.02159 18.0893 4.74772 18.0893V17.0893ZM19.2607 17.0893H4.74772V18.0893H19.2607V17.0893ZM19.1146 17.5536C18.9084 17.4082 19.0159 17.0893 19.2607 17.0893V18.0893C19.9853 18.0893 20.2875 17.1573 19.691 16.7365L19.1146 17.5536ZM11.7023 12.3321L19.1148 17.5538L19.6907 16.7363L12.2782 11.5146L11.7023 12.3321ZM4.8951 17.5538L12.279 12.3315L11.7016 11.5151L4.31767 16.7373L4.8951 17.5538Z" fill="currentcolor"/>
</svg>
