<svg width="24" height="24" viewBox="0 0 24 24" fill="none" xmlns="http://www.w3.org/2000/svg">
<path fill-rule="evenodd" clip-rule="evenodd" d="M12.4899 11.0521V10.3318C13.4613 10.1057 14.1849 9.23507 14.1849 8.195C14.1849 6.98216 13.2024 6 11.9899 6C10.7775 6 9.79492 6.98216 9.79492 8.195C9.79492 8.47114 10.0188 8.695 10.2949 8.695C10.5711 8.695 10.7949 8.47114 10.7949 8.195C10.7949 7.53453 11.3297 7 11.9899 7C12.6502 7 13.1849 7.53453 13.1849 8.195C13.1849 8.85458 12.6501 9.389 11.9899 9.389C11.7138 9.389 11.4899 9.61286 11.4899 9.889V11.0524L4.02901 16.3291C3.03691 17.0306 3.53305 18.5893 4.74772 18.5893H19.2607C20.4763 18.5893 20.9719 17.0282 19.9789 16.3277L12.4899 11.0521ZM4.60639 17.1456C4.41081 17.2838 4.50804 17.5893 4.74772 17.5893H19.2607C19.5006 17.5893 19.5979 17.2827 19.4028 17.1451L11.9903 11.9233L4.60639 17.1456Z" fill="currentcolor"/>
</svg>
