<svg width="24" height="24" viewBox="0 0 24 24" fill="none" xmlns="http://www.w3.org/2000/svg">
<path fill-rule="evenodd" clip-rule="evenodd" d="M10.8243 4.5C10.184 4.5 9.694 4.91993 9.694 5.39688C9.694 5.67302 9.47014 5.89687 9.194 5.89687C8.91786 5.89687 8.694 5.67302 8.694 5.39688C8.694 4.33044 9.66304 3.5 10.8243 3.5H17.3503C18.5108 3.5 19.4796 4.33061 19.4796 5.39688V15.1844C19.4796 16.2514 18.511 17.0822 17.3503 17.0822H16.4784C16.2022 17.0822 15.9784 16.8583 15.9784 16.5822C15.9784 16.306 16.2022 16.0822 16.4784 16.0822H17.3503C17.9898 16.0822 18.4796 15.6621 18.4796 15.1844V5.39688C18.4796 4.92 17.9897 4.5 17.3503 4.5H10.8243ZM4.5 18.5402V8.75275C4.5 7.68558 5.46883 6.85494 6.63031 6.85494H13.1562C14.317 6.85494 15.2856 7.68576 15.2856 8.75275V18.5402C15.2856 19.6065 14.3168 20.4371 13.1562 20.4371H6.63031C5.46904 20.4371 4.5 19.6067 4.5 18.5402ZM5.5 18.5402C5.5 19.0172 5.99001 19.4371 6.63031 19.4371H13.1562C13.7957 19.4371 14.2856 19.0171 14.2856 18.5402V8.75275C14.2856 8.27502 13.7958 7.85494 13.1562 7.85494H6.63031C5.98989 7.85494 5.5 8.27495 5.5 8.75275V18.5402Z" fill="currentcolor"/>
</svg>
