<svg width="24" height="24" viewBox="0 0 24 24" fill="none" xmlns="http://www.w3.org/2000/svg">
<path fill-rule="evenodd" clip-rule="evenodd" d="M10.8243 4.5C10.184 4.5 9.694 5 9.694 5.39688C9.694 6.0548 9.6563 6.52692 9.59275 6.85494H13.1562C14.317 6.85494 15.2856 7.68576 15.2856 8.75275V16.1207C15.3449 16.0959 15.4101 16.0822 15.4784 16.0822H17.3503C17.9898 16.0822 18.4796 15.6621 18.4796 15.1844V5.39688C18.4796 4.92 17.9897 4.5 17.3503 4.5H10.8243ZM15.2856 17.0437C15.3449 17.0685 15.4101 17.0822 15.4784 17.0822H17.3503C18.511 17.0822 19.4796 16.2514 19.4796 15.1844V5.39688C19.4796 4.33061 18.5108 3.5 17.3503 3.5H10.8243C9.66304 3.5 8.694 4.33044 8.694 5.39688C8.694 6.0692 8.70893 6.53453 8.73584 6.85494H6.63031C5.46883 6.85494 4.5 7.68558 4.5 8.75275V18.5402C4.5 19.6067 5.46904 20.4371 6.63031 20.4371H13.1562C14.3168 20.4371 15.2856 19.6065 15.2856 18.5402V17.0437ZM5.5 18.5402C5.5 19.0172 5.99001 19.4371 6.63031 19.4371H13.1562C13.7957 19.4371 14.2856 19.0171 14.2856 18.5402V8.75275C14.2856 8.27502 13.7958 7.85494 13.1562 7.85494H6.63031C5.98989 7.85494 5.5 8.27495 5.5 8.75275V18.5402Z" fill="currentcolor"/>
<path d="M9.59275 6.85494L9.10188 6.75984L8.98658 7.35494H9.59275V6.85494ZM15.2856 16.1207H14.7856V16.8717L15.4785 16.582L15.2856 16.1207ZM15.2856 17.0437L15.4785 16.5824L14.7856 16.2927V17.0437H15.2856ZM8.73584 6.85494V7.35494H9.2796L9.23409 6.81309L8.73584 6.85494ZM10.194 5.39688C10.194 5.39877 10.1943 5.37493 10.2196 5.32851C10.2441 5.2836 10.2855 5.23007 10.3455 5.17831C10.4663 5.07417 10.6354 5 10.8243 5V4C10.3729 4 9.97685 4.17583 9.69257 4.42091C9.42115 4.6549 9.194 5.00611 9.194 5.39688H10.194ZM10.0836 6.95004C10.1559 6.57697 10.194 6.06879 10.194 5.39688H9.194C9.194 6.0408 9.1567 6.47687 9.10188 6.75984L10.0836 6.95004ZM13.1562 6.35494H9.59275V7.35494H13.1562V6.35494ZM15.7856 8.75275C15.7856 7.35185 14.5316 6.35494 13.1562 6.35494V7.35494C14.1024 7.35494 14.7856 8.01966 14.7856 8.75275H15.7856ZM15.7856 16.1207V8.75275H14.7856V16.1207H15.7856ZM15.4784 15.5822C15.3427 15.5822 15.2121 15.6095 15.0927 15.6594L15.4785 16.582L15.4784 16.5822V15.5822ZM17.3503 15.5822H15.4784V16.5822H17.3503V15.5822ZM17.9796 15.1844C17.9796 15.2947 17.8148 15.5822 17.3503 15.5822V16.5822C18.1649 16.5822 18.9796 16.0295 18.9796 15.1844H17.9796ZM17.9796 5.39688V15.1844H18.9796V5.39688H17.9796ZM17.3503 5C17.8151 5 17.9796 5.28777 17.9796 5.39688H18.9796C18.9796 4.55223 18.1643 4 17.3503 4V5ZM10.8243 5H17.3503V4H10.8243V5ZM15.0927 17.505C15.2121 17.5549 15.3427 17.5822 15.4784 17.5822V16.5822L15.4785 16.5824L15.0927 17.505ZM15.4784 17.5822H17.3503V16.5822H15.4784V17.5822ZM17.3503 17.5822C18.7256 17.5822 19.9796 16.5853 19.9796 15.1844H18.9796C18.9796 15.9175 18.2964 16.5822 17.3503 16.5822V17.5822ZM19.9796 15.1844V5.39688H18.9796V15.1844H19.9796ZM19.9796 5.39688C19.9796 3.9965 18.7251 3 17.3503 3V4C18.2964 4 18.9796 4.66473 18.9796 5.39688H19.9796ZM17.3503 3H10.8243V4H17.3503V3ZM10.8243 3C9.44889 3 8.194 3.99614 8.194 5.39688H9.194C9.194 4.66474 9.87719 4 10.8243 4V3ZM8.194 5.39688C8.194 6.07369 8.20893 6.55544 8.2376 6.89678L9.23409 6.81309C9.20894 6.51362 9.194 6.06472 9.194 5.39688H8.194ZM8.73584 6.35494H6.63031V7.35494H8.73584V6.35494ZM6.63031 6.35494C5.25444 6.35494 4 7.35149 4 8.75275H5C5 8.01967 5.68322 7.35494 6.63031 7.35494V6.35494ZM4 8.75275V18.5402H5V8.75275H4ZM4 18.5402C4 19.941 5.25489 20.9371 6.63031 20.9371V19.9371C5.68319 19.9371 5 19.2724 5 18.5402H4ZM6.63031 20.9371H13.1562V19.9371H6.63031V20.9371ZM13.1562 20.9371C14.5311 20.9371 15.7856 19.9406 15.7856 18.5402H14.7856C14.7856 19.2724 14.1024 19.9371 13.1562 19.9371V20.9371ZM15.7856 18.5402V17.0437H14.7856V18.5402H15.7856ZM6.63031 18.9371C6.16425 18.9371 6 18.6491 6 18.5402H5C5 19.3853 5.81578 19.9371 6.63031 19.9371V18.9371ZM13.1562 18.9371H6.63031V19.9371H13.1562V18.9371ZM13.7856 18.5402C13.7856 18.6494 13.6211 18.9371 13.1562 18.9371V19.9371C13.9703 19.9371 14.7856 19.3849 14.7856 18.5402H13.7856ZM13.7856 8.75275V18.5402H14.7856V8.75275H13.7856ZM13.1562 8.35494C13.6208 8.35494 13.7856 8.64245 13.7856 8.75275H14.7856C14.7856 7.9076 13.9709 7.35494 13.1562 7.35494V8.35494ZM6.63031 8.35494H13.1562V7.35494H6.63031V8.35494ZM6 8.75275C6 8.64266 6.16455 8.35494 6.63031 8.35494V7.35494C5.81522 7.35494 5 7.90724 5 8.75275H6ZM6 18.5402V8.75275H5V18.5402H6Z" fill="currentcolor"/>
</svg>
