<svg width="24" height="24" viewBox="0 0 24 24" fill="none" xmlns="http://www.w3.org/2000/svg">
<path fill-rule="evenodd" clip-rule="evenodd" d="M18.0002 8.2885L15.7082 6.0085L17.0742 4.6305C17.2502 4.4545 17.5382 4.4545 17.7162 4.6315L19.3692 6.2755C19.4542 6.3605 19.5002 6.4725 19.5002 6.5915C19.5002 6.7105 19.4542 6.8225 19.3662 6.9095L18.0002 8.2885ZM17.6502 9.3505C17.7442 9.4445 17.8702 9.4965 18.0022 9.4965H18.0042C18.1372 9.4955 18.2642 9.4425 18.3572 9.3485L20.0742 7.6165C20.3492 7.3425 20.5012 6.9785 20.5002 6.5915C20.5002 6.2035 20.3492 5.8405 20.0742 5.5665L18.4212 3.9225C17.8552 3.3595 16.9332 3.3585 16.3662 3.9245L14.6462 5.6585C14.4522 5.8545 14.4532 6.1715 14.6492 6.3655L17.6502 9.3505ZM4.79072 19.1931L5.93772 15.7541L13.5007 8.1911L15.7937 10.4841L8.23072 18.0471L4.79072 19.1931ZM3.64572 20.3371C3.74172 20.4331 3.86972 20.4841 3.99972 20.4841C4.05272 20.4841 4.10572 20.4761 4.15772 20.4581L8.65872 18.9581C8.73272 18.9341 8.79972 18.8931 8.85472 18.8371L16.8547 10.8371C17.0497 10.6421 17.0497 10.3261 16.8547 10.1301L13.8547 7.1301C13.6587 6.9351 13.3427 6.9351 13.1467 7.1301L5.14672 15.1301C5.09272 15.1851 5.05072 15.2521 5.02672 15.3261L3.52572 19.8261C3.46572 20.0051 3.51272 20.2041 3.64572 20.3371Z" fill="currentcolor"/>
</svg>
