<svg width="24" height="24" viewBox="0 0 24 24" fill="none" xmlns="http://www.w3.org/2000/svg">
<path fill-rule="evenodd" clip-rule="evenodd" d="M16.7958 10.2834C16.8898 10.3774 17.0158 10.4294 17.1478 10.4294H17.2375C17.3705 10.4284 17.4098 10.3754 17.5028 10.2814L20.0742 7.61637C20.3492 7.34238 20.5012 6.97838 20.5002 6.59138C20.5002 6.20338 20.3492 5.84037 20.0742 5.56638L18.4212 3.92238C17.8552 3.35938 16.9332 3.35838 16.3662 3.92438L13.7918 6.59138C13.5978 6.78738 13.5988 7.10438 13.7948 7.29838L16.7958 10.2834ZM17.1458 9.22137L14.8538 6.94138L17.0742 4.63038C17.2502 4.45438 17.5382 4.45438 17.7162 4.63138L19.3692 6.27538C19.4542 6.36038 19.5002 6.47238 19.5002 6.59138C19.5002 6.71038 19.4542 6.82238 19.3662 6.90938L17.1458 9.22137Z" fill="currentcolor"/>
<path fill-rule="evenodd" clip-rule="evenodd" d="M3.64572 20.337C3.74172 20.433 3.86972 20.484 3.99972 20.484C4.05272 20.484 4.10572 20.476 4.15772 20.458L8.65872 18.958C8.73272 18.934 8.79972 18.893 8.85472 18.837L17.4998 10.2984C17.6948 10.1034 17.6948 9.78737 17.4998 9.59138L14.4998 6.59138C14.3038 6.39638 13.9878 6.39638 13.7918 6.59138L5.14672 15.13C5.09272 15.185 5.05072 15.252 5.02672 15.326L3.52572 19.826C3.46572 20.005 3.51272 20.204 3.64572 20.337ZM4.79072 19.193L5.93772 15.754L14.1458 7.65238L16.4388 9.94537L8.23072 18.047L4.79072 19.193Z" fill="currentcolor"/>
<path d="M13.7918 6.59138L16.3662 3.92438C16.9332 3.35838 17.8552 3.35938 18.4212 3.92238L20.0742 5.56638C20.3492 5.84037 20.5002 6.20338 20.5002 6.59138C20.5012 6.97838 20.3492 7.34238 20.0742 7.61637L17.5028 10.2814C17.4098 10.3754 17.3705 10.4284 17.2375 10.4294H17.1478C17.0158 10.4294 16.8898 10.3774 16.7958 10.2834L13.7948 7.29838C13.5988 7.10438 13.5978 6.78738 13.7918 6.59138ZM13.7918 6.59138C13.9878 6.39638 14.3038 6.39638 14.4998 6.59138L17.4998 9.59138C17.6948 9.78737 17.6948 10.1034 17.4998 10.2984L8.85472 18.837C8.79972 18.893 8.73272 18.934 8.65872 18.958L4.15772 20.458C4.10572 20.476 4.05272 20.484 3.99972 20.484C3.86972 20.484 3.74172 20.433 3.64572 20.337C3.51272 20.204 3.46572 20.005 3.52572 19.826L5.02672 15.326C5.05072 15.252 5.09272 15.185 5.14672 15.13L13.7918 6.59138ZM14.8538 6.94138L17.1458 9.22137L19.3662 6.90938C19.4542 6.82238 19.5002 6.71038 19.5002 6.59138C19.5002 6.47238 19.4542 6.36038 19.3692 6.27538L17.7162 4.63138C17.5382 4.45438 17.2502 4.45438 17.0742 4.63038L14.8538 6.94138ZM5.93772 15.754L4.79072 19.193L8.23072 18.047L16.4388 9.94537L14.1458 7.65238L5.93772 15.754Z" stroke="currentcolor"/>
</svg>
