<svg width="24" height="24" viewBox="0 0 24 24" fill="none" xmlns="http://www.w3.org/2000/svg">
<path fill-rule="evenodd" clip-rule="evenodd" d="M12.1939 13.8335L16.8964 12.043L16.9083 15.6046C16.9088 15.8355 16.7686 16.0368 16.5608 16.1078C15.358 16.5172 13.8274 16.789 11.9993 16.789C10.1877 16.789 8.66532 16.5166 7.46709 16.1069C7.25968 16.0357 7.11982 15.8364 7.1193 15.6068L7.10739 12.0322L11.8381 13.8335C11.9527 13.8772 12.0793 13.8772 12.1939 13.8335ZM20.532 10.6587L17.8952 11.6627L17.9083 15.6018C17.9098 16.2573 17.5017 16.8433 16.8834 17.0543C15.5799 17.498 13.9412 17.789 11.9993 17.789C10.0732 17.789 8.4423 17.4972 7.14308 17.0529C6.52823 16.842 6.12079 16.2613 6.1193 15.6096L6.10612 11.651L2.82208 10.4005C2.39266 10.237 2.39263 9.62956 2.82203 9.46601L11.838 6.03201C11.9527 5.98835 12.0793 5.98835 12.194 6.03201L21.1991 9.46186C21.2142 9.46722 21.229 9.4733 21.2434 9.48005C21.4361 9.56848 21.5322 9.75128 21.532 9.93397C21.5317 10.1265 21.4244 10.3189 21.2099 10.4005L20.532 10.6587ZM20.532 10.6587V12.9813C20.532 13.2574 20.7559 13.4813 21.032 13.4813C21.3081 13.4813 21.532 13.2574 21.532 12.9813V9.93397M12.016 7.03431L19.6271 9.9332L12.016 12.8312L4.40493 9.9332L12.016 7.03431Z" fill="currentcolor"/>
</svg>
