<svg width="24" height="24" viewBox="0 0 24 24" fill="none" xmlns="http://www.w3.org/2000/svg">
<path fill-rule="evenodd" clip-rule="evenodd" d="M12.1939 13.8335L16.8964 12.043L16.9083 15.6046C16.9088 15.8355 16.7686 16.0368 16.5608 16.1078C15.358 16.5172 13.8274 16.789 11.9993 16.789C10.1877 16.789 8.66532 16.5166 7.46709 16.1069C7.25968 16.0357 7.11982 15.8364 7.1193 15.6068L7.10739 12.0322L11.8381 13.8335C11.9527 13.8772 12.0793 13.8772 12.1939 13.8335ZM20.532 10.6587L17.8952 11.6627L17.9083 15.6018C17.9098 16.2573 17.5017 16.8433 16.8834 17.0543C15.5799 17.498 13.9412 17.789 11.9993 17.789C10.0732 17.789 8.4423 17.4972 7.14308 17.0529C6.52823 16.842 6.12079 16.2613 6.1193 15.6096L6.10612 11.651L2.82208 10.4005C2.39266 10.237 2.39263 9.62956 2.82203 9.46601L11.838 6.03201C11.9527 5.98835 12.0793 5.98835 12.194 6.03201L21.1991 9.46186C21.2142 9.46722 21.229 9.4733 21.2434 9.48005C21.4361 9.56848 21.5322 9.75128 21.532 9.93397C21.5317 10.1265 21.4244 10.3189 21.2099 10.4005L20.532 10.6587ZM20.532 10.6587V12.9813C20.532 13.2574 20.7559 13.4813 21.032 13.4813C21.3081 13.4813 21.532 13.2574 21.532 12.9813V9.93397M12.016 7.03431L19.6271 9.9332L12.016 12.8312L4.40493 9.9332L12.016 7.03431Z" fill="currentcolor"/>
<path d="M16.8964 12.043L17.3964 12.0413L17.394 11.3185L16.7185 11.5757L16.8964 12.043ZM12.1939 13.8335L12.3718 14.3008L12.1939 13.8335ZM16.9083 15.6046L17.4083 15.6035L17.4083 15.603L16.9083 15.6046ZM16.5608 16.1078L16.7219 16.5811L16.7223 16.581L16.5608 16.1078ZM7.46709 16.1069L7.30487 16.5798L7.3053 16.58L7.46709 16.1069ZM7.1193 15.6068L7.6193 15.6057L7.6193 15.6052L7.1193 15.6068ZM7.10739 12.0322L7.28532 11.565L6.60497 11.3059L6.6074 12.0339L7.10739 12.0322ZM11.8381 13.8335L11.6602 14.3008L11.8381 13.8335ZM17.8952 11.6627L17.7172 11.1954L17.394 11.3185L17.3952 11.6644L17.8952 11.6627ZM17.9083 15.6018L18.4083 15.6007L18.4083 15.6002L17.9083 15.6018ZM16.8834 17.0543L17.0445 17.5276L17.0449 17.5275L16.8834 17.0543ZM7.14308 17.0529L6.98086 17.5259L6.98129 17.526L7.14308 17.0529ZM6.1193 15.6096L6.6193 15.6085L6.6193 15.608L6.1193 15.6096ZM6.10612 11.651L6.60612 11.6493L6.60497 11.3059L6.28404 11.1837L6.10612 11.651ZM2.82208 10.4005L3 9.93327L3 9.93327L2.82208 10.4005ZM2.82203 9.46601L3 9.93327H3L2.82203 9.46601ZM11.838 6.03201L11.6601 5.56476V5.56476L11.838 6.03201ZM12.194 6.03201L12.3719 5.56476V5.56476L12.194 6.03201ZM21.1991 9.46186L21.021 9.92924L21.032 9.93314L21.1991 9.46186ZM21.2434 9.48005L21.0317 9.93303L21.0348 9.93444L21.2434 9.48005ZM21.2099 10.4005L21.3878 10.8678L21.3878 10.8678L21.2099 10.4005ZM19.6271 9.9332L19.805 10.4005L21.032 9.93327L19.805 9.46594L19.6271 9.9332ZM12.016 7.03431L12.194 6.56705L12.016 6.49927L11.838 6.56705L12.016 7.03431ZM12.016 12.8312L11.8381 13.2985L12.016 13.3663L12.1939 13.2985L12.016 12.8312ZM4.40493 9.9332L4.22696 9.46594L3 9.93327L4.22701 10.4005L4.40493 9.9332ZM16.7185 11.5757L12.016 13.3663L12.3718 14.3008L17.0743 12.5103L16.7185 11.5757ZM17.4083 15.603L17.3964 12.0413L16.3964 12.0446L16.4083 15.6063L17.4083 15.603ZM16.7223 16.581C17.1439 16.4371 17.4093 16.0369 17.4083 15.6035L16.4083 15.6058C16.4083 15.6191 16.4044 15.6274 16.4016 15.6316C16.3988 15.6356 16.3975 15.6352 16.3993 15.6346L16.7223 16.581ZM11.9993 17.289C13.8761 17.289 15.4617 17.01 16.7219 16.5811L16.3997 15.6344C15.2543 16.0243 13.7788 16.289 11.9993 16.289V17.289ZM7.3053 16.58C8.56085 17.0093 10.1385 17.289 11.9993 17.289V16.289C10.237 16.289 8.76979 16.0239 7.62888 15.6338L7.3053 16.58ZM6.6193 15.608C6.62029 16.0405 6.88624 16.4362 7.30487 16.5798L7.62931 15.6339C7.62915 15.6339 7.62905 15.6338 7.6287 15.6336C7.62825 15.6332 7.62713 15.6323 7.62575 15.6303C7.6231 15.6265 7.61933 15.6186 7.6193 15.6057L6.6193 15.608ZM6.6074 12.0339L6.6193 15.6085L7.6193 15.6052L7.60739 12.0306L6.6074 12.0339ZM12.016 13.3663L7.28532 11.565L6.92947 12.4995L11.6602 14.3008L12.016 13.3663ZM12.016 13.3663L11.6602 14.3008C11.8894 14.3881 12.1426 14.3881 12.3718 14.3008L12.016 13.3663ZM18.0731 12.13L20.7099 11.1259L20.3541 10.1914L17.7172 11.1954L18.0731 12.13ZM18.4083 15.6002L18.3952 11.661L17.3952 11.6644L17.4083 15.6035L18.4083 15.6002ZM17.0449 17.5275C17.8715 17.2454 18.4103 16.4647 18.4083 15.6007L17.4083 15.603C17.4093 16.05 17.1319 16.4412 16.7219 16.5811L17.0449 17.5275ZM11.9993 18.289C13.9905 18.289 15.6841 17.9907 17.0445 17.5276L16.7223 16.581C15.4757 17.0053 13.892 17.289 11.9993 17.289V18.289ZM6.98129 17.526C8.33736 17.9898 10.0235 18.289 11.9993 18.289V17.289C10.123 17.289 8.54724 17.0047 7.30487 16.5798L6.98129 17.526ZM5.6193 15.6108C5.62127 16.4708 6.15984 17.2443 6.98086 17.5259L7.3053 16.58C6.89663 16.4398 6.62031 16.0518 6.6193 15.6085L5.6193 15.6108ZM5.60612 11.6527L5.61931 15.6113L6.6193 15.608L6.60612 11.6493L5.60612 11.6527ZM2.64416 10.8678L5.9282 12.1183L6.28404 11.1837L3 9.93327L2.64416 10.8678ZM2.64407 8.99876C1.78527 9.32585 1.78533 10.5408 2.64416 10.8678L3 9.93327H3L2.64407 8.99876ZM11.6601 5.56476L2.64407 8.99876L3 9.93327L12.016 6.49927L11.6601 5.56476ZM12.3719 5.56476C12.1427 5.47744 11.8893 5.47744 11.6601 5.56476L12.016 6.49927H12.016L12.3719 5.56476ZM21.377 8.9946L12.3719 5.56476L12.016 6.49927L21.0211 9.92911L21.377 8.9946ZM21.032 9.93314L21.0317 9.93302L21.4551 9.02707C21.4262 9.01355 21.3965 9.00135 21.3661 8.99057L21.032 9.93314ZM22.032 9.93464C22.0325 9.57732 21.8408 9.20413 21.4521 9.02565L21.0348 9.93444C21.0375 9.93569 21.0373 9.936 21.0357 9.93455C21.0342 9.93321 21.0329 9.93161 21.0321 9.93025C21.0307 9.92799 21.032 9.92899 21.032 9.93329L22.032 9.93464ZM21.3878 10.8678C21.8157 10.7049 22.0315 10.3125 22.032 9.93464L21.032 9.93329V9.93327L21.3878 10.8678ZM20.7099 11.1259L21.3878 10.8678L21.032 9.93327L20.3541 10.1914L20.7099 11.1259ZM21.032 12.9813V10.6587H20.032V12.9813H21.032ZM21.032 12.9813V12.9813H20.032C20.032 13.5336 20.4797 13.9813 21.032 13.9813V12.9813ZM21.032 12.9813V12.9813V13.9813C21.5843 13.9813 22.032 13.5336 22.032 12.9813H21.032ZM21.032 9.93397V12.9813H22.032V9.93397H21.032ZM21.2386 9.5291L20.2386 10.2538L20.8254 11.0635L21.8254 10.3388L21.2386 9.5291ZM19.805 9.46594L12.194 6.56705L11.838 7.50156L19.4491 10.4005L19.805 9.46594ZM12.1939 13.2985L19.805 10.4005L19.4491 9.46593L11.8381 12.364L12.1939 13.2985ZM4.22701 10.4005L11.8381 13.2985L12.1939 12.364L4.58285 9.46593L4.22701 10.4005ZM11.838 6.56705L4.22696 9.46594L4.5829 10.4005L12.194 7.50156L11.838 6.56705Z" fill="currentcolor"/>
</svg>
