<svg width="24" height="24" viewBox="0 0 24 24" fill="none" xmlns="http://www.w3.org/2000/svg">
<path fill-rule="evenodd" clip-rule="evenodd" d="M20.267 18.827C20.267 19.6663 19.546 20.327 18.676 20.327H5.591C4.72102 20.327 4 19.6663 4 18.827V4.5C4 3.66074 4.72102 3 5.591 3H12.1335H18.676C19.546 3 20.267 3.66074 20.267 4.5V18.827ZM11.6335 4H5.591C5.25476 4 5 4.23346 5 4.5V18.827C5 19.0935 5.25476 19.327 5.591 19.327H11.633L11.6335 4ZM12.633 19.327L12.6335 4H18.676C19.0122 4 19.267 4.23346 19.267 4.5V18.827C19.267 19.0935 19.0122 19.327 18.676 19.327H12.633ZM6.76675 12.5711C6.57149 12.3759 6.25491 12.3759 6.05965 12.5711C5.86438 12.7664 5.86438 13.083 6.05965 13.2783L8.02065 15.2393C8.21587 15.4345 8.53239 15.4345 8.72766 15.2393L10.6897 13.2783C10.885 13.0831 10.8851 12.7665 10.6898 12.5712C10.4946 12.3759 10.178 12.3758 9.98274 12.5711L8.8743 13.6789V8.5829C8.8743 8.30676 8.65044 8.0829 8.3743 8.0829C8.09816 8.0829 7.8743 8.30676 7.8743 8.5829V13.6787L6.76675 12.5711ZM17.5694 10.8984C17.7647 11.0936 18.0813 11.0936 18.2766 10.8984C18.4718 10.7031 18.4718 10.3865 18.2766 10.1912L16.3146 8.22925C16.1193 8.03395 15.8026 8.03399 15.6074 8.22934L13.6464 10.1913C13.4511 10.3866 13.4512 10.7032 13.6465 10.8984C13.8418 11.0937 14.1584 11.0936 14.3536 10.8983L15.45 9.80135V14.8856C15.45 15.1617 15.6739 15.3856 15.95 15.3856C16.2261 15.3856 16.45 15.1617 16.45 14.8856V9.77891L17.5694 10.8984Z" fill="currentcolor"/>
</svg>
