<svg width="24" height="24" viewBox="0 0 24 24" fill="none" xmlns="http://www.w3.org/2000/svg">
<path fill-rule="evenodd" clip-rule="evenodd" d="M20.267 18.827C20.267 19.6663 19.546 20.327 18.676 20.327H5.591C4.72102 20.327 4 19.6663 4 18.827V4.5C4 3.66074 4.72102 3 5.591 3H12.1335H18.676C19.546 3 20.267 3.66074 20.267 4.5V18.827ZM11.6335 4H5.591C5.25476 4 5 4.23346 5 4.5V18.827C5 19.0935 5.25476 19.327 5.591 19.327H11.633L11.6335 4ZM12.633 19.327L12.6335 4H18.676C19.0122 4 19.267 4.23346 19.267 4.5V18.827C19.267 19.0935 19.0122 19.327 18.676 19.327H12.633ZM6.76675 12.5711C6.57149 12.3759 6.25491 12.3759 6.05965 12.5711C5.86438 12.7664 5.86438 13.083 6.05965 13.2783L8.02065 15.2393C8.21587 15.4345 8.53239 15.4345 8.72766 15.2393L10.6897 13.2783C10.885 13.0831 10.8851 12.7665 10.6898 12.5712C10.4946 12.3759 10.178 12.3758 9.98274 12.5711L8.8743 13.6789V8.5829C8.8743 8.30676 8.65044 8.0829 8.3743 8.0829C8.09816 8.0829 7.8743 8.30676 7.8743 8.5829V13.6787L6.76675 12.5711ZM17.5694 10.8984C17.7647 11.0936 18.0813 11.0936 18.2766 10.8984C18.4718 10.7031 18.4718 10.3865 18.2766 10.1912L16.3146 8.22925C16.1193 8.03395 15.8026 8.03399 15.6074 8.22934L13.6464 10.1913C13.4511 10.3866 13.4512 10.7032 13.6465 10.8984C13.8418 11.0937 14.1584 11.0936 14.3536 10.8983L15.45 9.80135V14.8856C15.45 15.1617 15.6739 15.3856 15.95 15.3856C16.2261 15.3856 16.45 15.1617 16.45 14.8856V9.77891L17.5694 10.8984Z" fill="currentcolor"/>
<path fill-rule="evenodd" clip-rule="evenodd" d="M3.75 4.5C3.75 3.50701 4.59915 2.75 5.591 2.75H18.676C19.6678 2.75 20.517 3.50701 20.517 4.5V18.827C20.517 19.82 19.6678 20.577 18.676 20.577H5.591C4.59915 20.577 3.75 19.82 3.75 18.827V4.5ZM5.591 3.25C4.84289 3.25 4.25 3.81448 4.25 4.5V18.827C4.25 19.5125 4.84289 20.077 5.591 20.077H18.676C19.4241 20.077 20.017 19.5125 20.017 18.827V4.5C20.017 3.81448 19.4241 3.25 18.676 3.25H5.591ZM5.591 4.25C5.3582 4.25 5.25 4.40378 5.25 4.5V18.827C5.25 18.9232 5.35821 19.077 5.591 19.077H11.383L11.3835 4.25H5.591ZM4.75 4.5C4.75 4.06314 5.15131 3.75 5.591 3.75H11.8835L11.883 19.577H5.591C5.15131 19.577 4.75 19.2639 4.75 18.827V4.5ZM12.3835 3.75H18.676C19.1157 3.75 19.517 4.06314 19.517 4.5V18.827C19.517 19.2639 19.1157 19.577 18.676 19.577H12.383L12.3835 3.75ZM12.8835 4.25L12.883 19.077H18.676C18.9088 19.077 19.017 18.9232 19.017 18.827V4.5C19.017 4.40378 18.9088 4.25 18.676 4.25H12.8835ZM16.1378 8.40602C16.0401 8.30837 15.8818 8.30839 15.7842 8.40607L13.8232 10.3681C13.7256 10.4657 13.7256 10.624 13.8233 10.7216C13.9209 10.8192 14.0792 10.8192 14.1768 10.7215L15.7 9.19758V14.8856C15.7 15.0237 15.8119 15.1356 15.95 15.1356C16.0881 15.1356 16.2 15.0237 16.2 14.8856V9.17535L17.7462 10.7216C17.8439 10.8192 18.0021 10.8192 18.0998 10.7216C18.1974 10.6239 18.1974 10.4657 18.0998 10.368L16.1378 8.40602ZM15.4305 8.05261C15.7234 7.75958 16.1984 7.75952 16.4913 8.05247L18.4533 10.0145C18.7462 10.3074 18.7462 10.7822 18.4533 11.0751C18.1604 11.368 17.6856 11.368 17.3927 11.0751L16.7 10.3825V14.8856C16.7 15.2998 16.3642 15.6356 15.95 15.6356C15.5358 15.6356 15.2 15.2998 15.2 14.8856V10.4051L14.5305 11.075C14.2376 11.368 13.7628 11.3681 13.4698 11.0753C13.1768 10.7824 13.1767 10.3076 13.4695 10.0146L15.4305 8.05261ZM8.3743 8.3329C8.23623 8.3329 8.1243 8.44483 8.1243 8.5829V14.2822L6.58998 12.7479C6.49235 12.6503 6.33405 12.6503 6.23642 12.7479C6.13879 12.8456 6.13879 13.0038 6.23642 13.1015L8.19742 15.0625C8.29504 15.1601 8.45329 15.1601 8.55093 15.0625L10.5129 13.1015C10.6106 13.0039 10.6106 12.8456 10.513 12.748C10.4154 12.6503 10.2571 12.6503 10.1595 12.7479L8.6243 14.2823V8.5829C8.6243 8.44483 8.51237 8.3329 8.3743 8.3329ZM7.6243 8.5829C7.6243 8.16869 7.96009 7.8329 8.3743 7.8329C8.78851 7.8329 9.1243 8.16869 9.1243 8.5829V13.0756L9.80601 12.3942C10.099 12.1014 10.5738 12.1015 10.8667 12.3945C11.1595 12.6875 11.1594 13.1623 10.8664 13.4552L8.90439 15.4162C8.61148 15.7089 8.13671 15.7089 7.84387 15.416L5.88287 13.455C5.58998 13.1621 5.58998 12.6873 5.88287 12.3944C6.17576 12.1015 6.65064 12.1015 6.94353 12.3944L7.6243 13.0751V8.5829Z" fill="currentcolor"/>
</svg>
