<svg width="24" height="24" viewBox="0 0 24 24" fill="none" xmlns="http://www.w3.org/2000/svg">
<path fill-rule="evenodd" clip-rule="evenodd" d="M3.5 17.1694C3.5 18.0332 4.20054 18.7324 5.064 18.7324H18.936C19.7995 18.7324 20.5 18.0332 20.5 17.1694V7.56437C20.5 6.7005 19.7994 6.00037 18.936 6.00037H5.064C4.20263 6.00037 3.50332 6.69718 3.50001 7.55822M4.5 8.50216L11.7042 13.3155C11.8721 13.4276 12.0908 13.4279 12.2589 13.3161L19.5 8.49983V17.1694C19.5 17.4805 19.2476 17.7324 18.936 17.7324H5.064C4.75239 17.7324 4.5 17.4805 4.5 17.1694V8.50216ZM19.45 7.33206L11.9826 12.2989L4.54967 7.33269C4.63812 7.13676 4.83525 7.00037 5.064 7.00037H18.936C19.1645 7.00037 19.3615 7.13647 19.45 7.33206Z" fill="currentcolor"/>
<path fill-rule="evenodd" clip-rule="evenodd" d="M3.00002 7.5563C3.00439 6.41988 3.92723 5.50037 5.064 5.50037H18.936C20.0755 5.50037 21 6.42426 21 7.56437V17.1694C21 18.3098 20.0751 19.2324 18.936 19.2324H5.064C3.92489 19.2324 3 18.3098 3 17.1694L3.00002 7.5563ZM4.08701 7.14234L4.09396 7.12696C4.23042 6.82467 4.50489 6.59655 4.83798 6.52444C4.49986 6.59763 4.22147 6.83161 4.08701 7.14234ZM19.9123 7.14082C19.7761 6.82727 19.4932 6.59215 19.1504 6.52198C19.4883 6.59116 19.7673 6.82055 19.9055 7.12577L19.9123 7.14082ZM5.70067 7.50037L11.9832 11.6979L18.2942 7.50037H5.70067ZM19 9.43289L12.5358 13.7324C12.1997 13.956 11.7621 13.9555 11.4265 13.7313L5 9.43756V17.1694C5 17.2035 5.02767 17.2324 5.064 17.2324H18.936C18.9723 17.2324 19 17.2035 19 17.1694V9.43289Z" fill="currentcolor"/>
</svg>
