<svg width="24" height="24" viewBox="0 0 24 24" fill="none" xmlns="http://www.w3.org/2000/svg">
<path fill-rule="evenodd" clip-rule="evenodd" d="M3.5 17.1694C3.5 18.0332 4.20054 18.7324 5.064 18.7324H18.936C19.7995 18.7324 20.5 18.0332 20.5 17.1694V7.56437C20.5 6.7005 19.7994 6.00037 18.936 6.00037H5.064C4.20263 6.00037 3.50332 6.69718 3.50001 7.55822M4.5 8.50216L11.7042 13.3155C11.8721 13.4276 12.0908 13.4279 12.2589 13.3161L19.5 8.49983V17.1694C19.5 17.4805 19.2476 17.7324 18.936 17.7324H5.064C4.75239 17.7324 4.5 17.4805 4.5 17.1694V8.50216ZM19.45 7.33206L11.9826 12.2989L4.54967 7.33269C4.63812 7.13676 4.83525 7.00037 5.064 7.00037H18.936C19.1645 7.00037 19.3615 7.13647 19.45 7.33206Z" fill="currentcolor"/>
</svg>
