<svg width="24" height="24" viewBox="0 0 24 24" fill="none" xmlns="http://www.w3.org/2000/svg">
<path fill-rule="evenodd" clip-rule="evenodd" d="M14.5 12C14.5 13.3801 13.3801 14.5 12 14.5C10.6199 14.5 9.5 13.3801 9.5 12C9.5 10.6199 10.6199 9.5 12 9.5C13.3801 9.5 14.5 10.6199 14.5 12ZM13.5 12C13.5 11.1721 12.8279 10.5 12 10.5C11.1721 10.5 10.5 11.1721 10.5 12C10.5 12.8279 11.1721 13.5 12 13.5C12.8279 13.5 13.5 12.8279 13.5 12Z" fill="currentcolor"/>
<path fill-rule="evenodd" clip-rule="evenodd" d="M3.53576 11.8143C3.60771 11.6344 3.75206 11.3372 3.9775 10.9615C4.34911 10.3422 4.81897 9.72393 5.39645 9.14645C7.04879 7.49411 9.23582 6.5 12 6.5C14.7642 6.5 16.9512 7.49411 18.6036 9.14645C19.181 9.72393 19.6509 10.3422 20.0225 10.9615C20.2479 11.3372 20.3923 11.6344 20.4642 11.8143C20.5119 11.9335 20.5119 12.0665 20.4642 12.1857C20.3923 12.3656 20.2479 12.6628 20.0225 13.0385C19.6509 13.6578 19.181 14.2761 18.6036 14.8536C16.9512 16.5059 14.7642 17.5 12 17.5C9.23582 17.5 7.04879 16.5059 5.39645 14.8536C4.81897 14.2761 4.34911 13.6578 3.9775 13.0385C3.75206 12.6628 3.60771 12.3656 3.53576 12.1857C3.48808 12.0665 3.48808 11.9335 3.53576 11.8143ZM4.835 12.524C5.16652 13.0765 5.58728 13.6302 6.10355 14.1464C7.57621 15.6191 9.51418 16.5 12 16.5C14.4858 16.5 16.4238 15.6191 17.8964 14.1464C18.4127 13.6302 18.8335 13.0765 19.165 12.524C19.2911 12.3138 19.3862 12.1357 19.4522 12C19.3862 11.8643 19.2911 11.6862 19.165 11.476C18.8335 10.9235 18.4127 10.3698 17.8964 9.85355C16.4238 8.38089 14.4858 7.5 12 7.5C9.51418 7.5 7.57621 8.38089 6.10355 9.85355C5.58728 10.3698 5.16652 10.9235 4.835 11.476C4.7089 11.6862 4.61378 11.8643 4.54779 12C4.61378 12.1357 4.7089 12.3138 4.835 12.524Z" fill="currentcolor"/>
<path fill-rule="evenodd" clip-rule="evenodd" d="M14.5 12C14.5 13.3801 13.3801 14.5 12 14.5C10.6199 14.5 9.5 13.3801 9.5 12C9.5 10.6199 10.6199 9.5 12 9.5C13.3801 9.5 14.5 10.6199 14.5 12ZM13.5 12C13.5 11.1721 12.8279 10.5 12 10.5C11.1721 10.5 10.5 11.1721 10.5 12C10.5 12.8279 11.1721 13.5 12 13.5C12.8279 13.5 13.5 12.8279 13.5 12Z" stroke="currentcolor"/>
<path fill-rule="evenodd" clip-rule="evenodd" d="M3.53576 11.8143C3.60771 11.6344 3.75206 11.3372 3.9775 10.9615C4.34911 10.3422 4.81897 9.72393 5.39645 9.14645C7.04879 7.49411 9.23582 6.5 12 6.5C14.7642 6.5 16.9512 7.49411 18.6036 9.14645C19.181 9.72393 19.6509 10.3422 20.0225 10.9615C20.2479 11.3372 20.3923 11.6344 20.4642 11.8143C20.5119 11.9335 20.5119 12.0665 20.4642 12.1857C20.3923 12.3656 20.2479 12.6628 20.0225 13.0385C19.6509 13.6578 19.181 14.2761 18.6036 14.8536C16.9512 16.5059 14.7642 17.5 12 17.5C9.23582 17.5 7.04879 16.5059 5.39645 14.8536C4.81897 14.2761 4.34911 13.6578 3.9775 13.0385C3.75206 12.6628 3.60771 12.3656 3.53576 12.1857C3.48808 12.0665 3.48808 11.9335 3.53576 11.8143ZM4.835 12.524C5.16652 13.0765 5.58728 13.6302 6.10355 14.1464C7.57621 15.6191 9.51418 16.5 12 16.5C14.4858 16.5 16.4238 15.6191 17.8964 14.1464C18.4127 13.6302 18.8335 13.0765 19.165 12.524C19.2911 12.3138 19.3862 12.1357 19.4522 12C19.3862 11.8643 19.2911 11.6862 19.165 11.476C18.8335 10.9235 18.4127 10.3698 17.8964 9.85355C16.4238 8.38089 14.4858 7.5 12 7.5C9.51418 7.5 7.57621 8.38089 6.10355 9.85355C5.58728 10.3698 5.16652 10.9235 4.835 11.476C4.7089 11.6862 4.61378 11.8643 4.54779 12C4.61378 12.1357 4.7089 12.3138 4.835 12.524Z" stroke="currentcolor"/>
</svg>
