<svg width="24" height="24" viewBox="0 0 24 24" fill="none" xmlns="http://www.w3.org/2000/svg">
<path fill-rule="evenodd" clip-rule="evenodd" d="M7.97942 16.3756L5.87963 18.8254C5.69992 19.0351 5.38427 19.0593 5.1746 18.8796C4.96494 18.6999 4.94066 18.3843 5.12037 18.1746L7.03269 15.9436C6.24058 15.5227 5.5293 14.9864 4.89645 14.3536C4.31897 13.7761 3.84911 13.1578 3.4775 12.5385C3.25206 12.1628 3.10771 11.8656 3.03576 11.6857C2.98808 11.5665 2.98808 11.4335 3.03576 11.3143C3.10771 11.1344 3.25206 10.8372 3.4775 10.4615C3.84911 9.84217 4.31897 9.22393 4.89645 8.64646C6.54879 6.99412 8.73582 6.00001 11.5 6.00001C12.7996 6.00001 13.9717 6.21977 15.0206 6.62438L17.1204 4.17461C17.3001 3.96495 17.6157 3.94067 17.8254 4.12038C18.0351 4.30009 18.0593 4.61574 17.8796 4.8254L15.9673 7.05644C16.7594 7.47731 17.4707 8.0136 18.1036 8.64646C18.681 9.22393 19.1509 9.84217 19.5225 10.4615C19.7479 10.8372 19.8923 11.1344 19.9642 11.3143C20.0119 11.4335 20.0119 11.5665 19.9642 11.6857C19.8923 11.8656 19.7479 12.1628 19.5225 12.5385C19.1509 13.1578 18.681 13.7761 18.1036 14.3536C16.4512 16.0059 14.2642 17 11.5 17C10.2004 17 9.02831 16.7803 7.97942 16.3756ZM8.67569 15.5633C9.52625 15.8475 10.4657 16 11.5 16C13.9858 16 15.9238 15.1191 17.3964 13.6465C17.9127 13.1302 18.3335 12.5765 18.665 12.024C18.7911 11.8139 18.8862 11.6357 18.9522 11.5C18.8862 11.3643 18.7911 11.1862 18.665 10.976C18.3335 10.4235 17.9127 9.86983 17.3964 9.35356C16.7804 8.73753 16.083 8.22504 15.298 7.83727L13.8418 9.53624C14.0956 9.83059 14.2496 10.2224 14.2496 10.6502C14.2496 10.7534 14.2396 10.8574 14.2201 10.9622C14.0996 11.6099 13.631 12.2579 12.9281 12.9035C12.6528 13.1564 12.3592 13.3917 12.0655 13.604C11.8888 13.7318 11.7502 13.8243 11.6684 13.8754C11.5654 13.9398 11.4364 13.9459 11.3278 13.8916C11.2433 13.8494 11.1021 13.7715 10.9226 13.6605C10.7911 13.5791 10.6597 13.4923 10.5299 13.4001L8.67569 15.5633ZM11.2653 11.0056L11.0015 11.3133C11.0005 11.3002 11 11.2872 11 11.2742C11 11.1211 11.0945 11 11.2078 11C11.2285 11 11.2476 11.002 11.2653 11.0056ZM12.9632 9.02467C12.8754 9.00846 12.7851 9 12.6928 9C12.1732 9 11.7553 9.183 11.4836 9.45474C11.212 9.183 10.7941 9 10.2745 9C9.40845 9 8.71769 9.74415 8.71769 10.6502C8.71769 11.419 9.10695 12.1234 9.75996 12.7618L7.70197 15.1627C6.91705 14.775 6.21959 14.2625 5.60355 13.6465C5.08728 13.1302 4.66652 12.5765 4.335 12.024C4.2089 11.8139 4.11378 11.6357 4.04779 11.5C4.11378 11.3643 4.2089 11.1862 4.335 10.976C4.66652 10.4235 5.08728 9.86983 5.60355 9.35356C7.07621 7.8809 9.01418 7.00001 11.5 7.00001C12.5343 7.00001 13.4738 7.15251 14.3243 7.43669L12.9632 9.02467Z" fill="currentcolor"/>
<path d="M5.87963 18.8254L5.5 18.5L5.5 18.5L5.87963 18.8254ZM7.97942 16.3756L8.15938 15.9091L7.82973 15.782L7.5998 16.0502L7.97942 16.3756ZM5.1746 18.8796L5.5 18.5H5.5L5.1746 18.8796ZM5.12037 18.1746L4.74074 17.8492H4.74074L5.12037 18.1746ZM7.03269 15.9436L7.41232 16.269L7.81861 15.795L7.26729 15.502L7.03269 15.9436ZM4.89645 14.3536L4.54289 14.7071L4.89645 14.3536ZM3.4775 12.5385L3.04876 12.7958H3.04876L3.4775 12.5385ZM3.03576 11.6857L2.57152 11.8714L2.57152 11.8714L3.03576 11.6857ZM3.03576 11.3143L2.57152 11.1286L2.57152 11.1286L3.03576 11.3143ZM3.4775 10.4615L3.90625 10.7188L3.4775 10.4615ZM4.89645 8.64646L5.25 9.00001L4.89645 8.64646ZM15.0206 6.62438L14.8406 7.09087L15.1703 7.21803L15.4002 6.94977L15.0206 6.62438ZM17.1204 4.17461L16.7407 3.84922V3.84922L17.1204 4.17461ZM17.8254 4.12038L17.5 4.50001L17.5 4.50001L17.8254 4.12038ZM17.8796 4.8254L18.2593 5.1508L18.2593 5.1508L17.8796 4.8254ZM15.9673 7.05644L15.5877 6.73105L15.1814 7.20506L15.7327 7.49799L15.9673 7.05644ZM18.1036 8.64646L17.75 9.00001L18.1036 8.64646ZM19.5225 10.4615L19.9512 10.2043L19.5225 10.4615ZM19.9642 11.3143L20.4285 11.1286V11.1286L19.9642 11.3143ZM19.9642 11.6857L20.4285 11.8714V11.8714L19.9642 11.6857ZM19.5225 12.5385L19.9512 12.7958L19.5225 12.5385ZM18.1036 14.3536L18.4571 14.7071H18.4571L18.1036 14.3536ZM8.67569 15.5633L8.29606 15.2379L7.8125 15.8021L8.51725 16.0376L8.67569 15.5633ZM17.3964 13.6465L17.0429 13.2929V13.2929L17.3964 13.6465ZM18.665 12.024L19.0938 12.2813V12.2813L18.665 12.024ZM18.9522 11.5L19.4019 11.7187L19.5082 11.5L19.4019 11.2814L18.9522 11.5ZM18.665 10.976L18.2363 11.2333V11.2333L18.665 10.976ZM15.298 7.83727L15.5195 7.38899L15.1712 7.21694L14.9184 7.51188L15.298 7.83727ZM13.8418 9.53624L13.4621 9.21085L13.1824 9.53721L13.4631 9.86275L13.8418 9.53624ZM14.2201 10.9622L13.7286 10.8707V10.8707L14.2201 10.9622ZM12.9281 12.9035L12.5899 12.5353L12.9281 12.9035ZM12.0655 13.604L12.3585 14.0092L12.3585 14.0092L12.0655 13.604ZM11.6684 13.8754L11.4033 13.4515L11.4033 13.4515L11.6684 13.8754ZM11.3278 13.8916L11.1041 14.3388L11.1041 14.3388L11.3278 13.8916ZM10.9226 13.6605L10.6595 14.0857H10.6595L10.9226 13.6605ZM10.5299 13.4001L10.8194 12.9924L10.4472 12.7282L10.1502 13.0747L10.5299 13.4001ZM11.2653 11.0056L11.6449 11.331L12.1983 10.6853L11.365 10.5156L11.2653 11.0056ZM11.0015 11.3133L10.503 11.3513L10.5948 12.556L11.3812 11.6387L11.0015 11.3133ZM12.9632 9.02467L12.8723 9.51635L13.1554 9.56867L13.3428 9.35007L12.9632 9.02467ZM11.4836 9.45474L11.13 9.80821L11.4836 10.162L11.8373 9.80821L11.4836 9.45474ZM9.75996 12.7618L10.1396 13.0872L10.4444 12.7316L10.1095 12.4042L9.75996 12.7618ZM7.70197 15.1627L7.48051 15.611L7.82879 15.7831L8.0816 15.4881L7.70197 15.1627ZM5.60355 13.6465L5.95711 13.2929H5.95711L5.60355 13.6465ZM4.335 12.024L3.90625 12.2813L3.90625 12.2813L4.335 12.024ZM4.04779 11.5L3.59813 11.2814L3.49181 11.5L3.59813 11.7187L4.04779 11.5ZM4.335 10.976L3.90625 10.7188H3.90625L4.335 10.976ZM5.60355 9.35356L5.25 9.00001H5.25L5.60355 9.35356ZM14.3243 7.43669L14.7039 7.76208L15.1875 7.19792L14.4828 6.96246L14.3243 7.43669ZM6.25926 19.1508L8.35905 16.701L7.5998 16.0502L5.5 18.5L6.25926 19.1508ZM4.84921 19.2593C5.26853 19.6187 5.89983 19.5701 6.25926 19.1508L5.5 18.5L5.5 18.5L4.84921 19.2593ZM4.74074 17.8492C4.38132 18.2685 4.42988 18.8998 4.84921 19.2593L5.5 18.5V18.5L4.74074 17.8492ZM6.65306 15.6182L4.74074 17.8492L5.5 18.5L7.41232 16.269L6.65306 15.6182ZM7.26729 15.502C6.52162 15.1058 5.84996 14.6 5.25 14L4.54289 14.7071C5.20863 15.3729 5.95955 15.9396 6.79809 16.3851L7.26729 15.502ZM5.25 14C4.70276 13.4528 4.25781 12.8672 3.90625 12.2813L3.04876 12.7958C3.4404 13.4485 3.93518 14.0994 4.54289 14.7071L5.25 14ZM3.90625 12.2813C3.69054 11.9217 3.55953 11.6488 3.5 11.5L2.57152 11.8714C2.65589 12.0823 2.81359 12.4038 3.04876 12.7958L3.90625 12.2813ZM3.5 11.5L2.57152 11.1286C2.47616 11.367 2.47616 11.633 2.57152 11.8714L3.5 11.5ZM3.5 11.5C3.55953 11.3512 3.69054 11.0783 3.90625 10.7188L3.04876 10.2043C2.81359 10.5962 2.65589 10.9177 2.57152 11.1286L3.5 11.5ZM3.90625 10.7188C4.25781 10.1328 4.70276 9.54725 5.25 9.00001L4.54289 8.2929C3.93518 8.90062 3.4404 9.55152 3.04876 10.2043L3.90625 10.7188ZM5.25 9.00001C6.80854 7.44147 8.86839 6.50001 11.5 6.50001V5.50001C8.60326 5.50001 6.28903 6.54676 4.54289 8.2929L5.25 9.00001ZM11.5 6.50001C12.7423 6.50001 13.8529 6.70987 14.8406 7.09087L15.2005 6.15788C14.0904 5.72966 12.857 5.50001 11.5 5.50001V6.50001ZM16.7407 3.84922L14.6409 6.29898L15.4002 6.94977L17.5 4.50001L16.7407 3.84922ZM18.1508 3.74075C17.7315 3.38133 17.1002 3.42989 16.7407 3.84922L17.5 4.50001V4.50001L18.1508 3.74075ZM18.2593 5.1508C18.6187 4.73147 18.5701 4.10017 18.1508 3.74075L17.5 4.50001V4.50001L18.2593 5.1508ZM16.3469 7.38184L18.2593 5.1508L17.5 4.50001L15.5877 6.73105L16.3469 7.38184ZM15.7327 7.49799C16.4784 7.89418 17.15 8.40005 17.75 9.00001L18.4571 8.2929C17.7914 7.62716 17.0405 7.06044 16.2019 6.6149L15.7327 7.49799ZM17.75 9.00001C18.2972 9.54725 18.7422 10.1328 19.0938 10.7188L19.9512 10.2043C19.5596 9.55152 19.0648 8.90062 18.4571 8.2929L17.75 9.00001ZM19.0938 10.7188C19.3095 11.0783 19.4405 11.3512 19.5 11.5L20.4285 11.1286C20.3441 10.9177 20.1864 10.5962 19.9512 10.2043L19.0938 10.7188ZM19.5 11.5V11.5L20.4285 11.8714C20.5238 11.633 20.5238 11.367 20.4285 11.1286L19.5 11.5ZM19.5 11.5C19.4405 11.6488 19.3095 11.9217 19.0938 12.2813L19.9512 12.7958C20.1864 12.4038 20.3441 12.0823 20.4285 11.8714L19.5 11.5ZM19.0938 12.2813C18.7422 12.8672 18.2972 13.4528 17.75 14L18.4571 14.7071C19.0648 14.0994 19.5596 13.4485 19.9512 12.7958L19.0938 12.2813ZM17.75 14C16.1915 15.5585 14.1316 16.5 11.5 16.5V17.5C14.3967 17.5 16.711 16.4533 18.4571 14.7071L17.75 14ZM11.5 16.5C10.2577 16.5 9.14705 16.2901 8.15938 15.9091L7.79947 16.8421C8.90956 17.2704 10.143 17.5 11.5 17.5V16.5ZM8.51725 16.0376C9.42262 16.3401 10.4159 16.5 11.5 16.5V15.5C10.5155 15.5 9.62987 15.355 8.83414 15.0891L8.51725 16.0376ZM11.5 16.5C14.1176 16.5 16.183 15.567 17.75 14L17.0429 13.2929C15.6646 14.6712 13.8541 15.5 11.5 15.5V16.5ZM17.75 14C18.2965 13.4535 18.7422 12.8672 19.0938 12.2813L18.2363 11.7668C17.9248 12.2859 17.529 12.8068 17.0429 13.2929L17.75 14ZM19.0938 12.2813C19.2266 12.0598 19.3289 11.8688 19.4019 11.7187L18.5026 11.2814C18.4436 11.4027 18.3556 11.5679 18.2363 11.7668L19.0938 12.2813ZM19.4019 11.2814C19.3289 11.1312 19.2266 10.9402 19.0938 10.7188L18.2363 11.2333C18.3556 11.4321 18.4436 11.5974 18.5026 11.7187L19.4019 11.2814ZM19.0938 10.7188C18.7422 10.1328 18.2965 9.54649 17.75 9.00001L17.0429 9.70712C17.529 10.1932 17.9248 10.7142 18.2363 11.2333L19.0938 10.7188ZM17.75 9.00001C17.0981 8.34812 16.3566 7.80257 15.5195 7.38899L15.0766 8.28555C15.8093 8.64752 16.4627 9.12693 17.0429 9.70712L17.75 9.00001ZM14.2214 9.86164L15.6777 8.16267L14.9184 7.51188L13.4621 9.21085L14.2214 9.86164ZM14.7496 10.6502C14.7496 10.1015 14.5519 9.59412 14.2204 9.20973L13.4631 9.86275C13.6393 10.0671 13.7496 10.3432 13.7496 10.6502H14.7496ZM14.7117 11.0537C14.7365 10.9205 14.7496 10.7858 14.7496 10.6502H13.7496C13.7496 10.721 13.7428 10.7944 13.7286 10.8707L14.7117 11.0537ZM13.2664 13.2718C13.9953 12.6022 14.5612 11.8621 14.7117 11.0537L13.7286 10.8707C13.6379 11.3577 13.2666 11.9137 12.5899 12.5353L13.2664 13.2718ZM12.3585 14.0092C12.6656 13.7871 12.9748 13.5396 13.2664 13.2718L12.5899 12.5353C12.3309 12.7732 12.0527 12.9963 11.7726 13.1988L12.3585 14.0092ZM11.9335 14.2994C12.027 14.2409 12.1751 14.1418 12.3585 14.0092L11.7726 13.1988C11.6025 13.3218 11.4734 13.4076 11.4033 13.4515L11.9335 14.2994ZM11.1041 14.3388C11.3686 14.471 11.6828 14.4561 11.9335 14.2994L11.4033 13.4515C11.4481 13.4235 11.5042 13.4208 11.5514 13.4444L11.1041 14.3388ZM10.6595 14.0857C10.8484 14.2025 11.003 14.2882 11.1041 14.3388L11.5514 13.4444C11.4836 13.4105 11.3557 13.3405 11.1857 13.2353L10.6595 14.0857ZM10.2404 13.8078C10.3792 13.9064 10.5195 13.999 10.6595 14.0857L11.1857 13.2353C11.0628 13.1593 10.9402 13.0782 10.8194 12.9924L10.2404 13.8078ZM9.05532 15.8887L10.9095 13.7255L10.1502 13.0747L8.29606 15.2379L9.05532 15.8887ZM10.8856 10.6802L10.6219 10.9879L11.3812 11.6387L11.6449 11.331L10.8856 10.6802ZM11.5001 11.2752C11.5 11.2747 11.5 11.2744 11.5 11.2742H10.5C10.5 11.3001 10.501 11.3258 10.503 11.3513L11.5001 11.2752ZM11.5 11.2742C11.5 11.2975 11.4933 11.338 11.4586 11.3834C11.4241 11.4285 11.3403 11.5 11.2078 11.5V10.5C10.9621 10.5 10.7743 10.632 10.6642 10.776C10.554 10.9202 10.5 11.0978 10.5 11.2742H11.5ZM11.2078 11.5C11.1967 11.5 11.1823 11.4989 11.1655 11.4955L11.365 10.5156C11.3129 10.505 11.2603 10.5 11.2078 10.5V11.5ZM13.054 8.533C12.9365 8.51127 12.8157 8.5 12.6928 8.5V9.5C12.7545 9.5 12.8144 9.50565 12.8723 9.51635L13.054 8.533ZM12.6928 8.5C12.0547 8.5 11.505 8.72611 11.13 9.10127L11.8373 9.80821C12.0055 9.63989 12.2916 9.5 12.6928 9.5V8.5ZM11.8373 9.10127C11.4623 8.72611 10.9126 8.5 10.2745 8.5V9.5C10.6757 9.5 10.9618 9.63989 11.13 9.80821L11.8373 9.10127ZM10.2745 8.5C9.10298 8.5 8.21769 9.49828 8.21769 10.6502H9.21769C9.21769 9.99003 9.71392 9.5 10.2745 9.5V8.5ZM8.21769 10.6502C8.21769 11.6012 8.70156 12.4263 9.41044 13.1193L10.1095 12.4042C9.51234 11.8205 9.21769 11.2369 9.21769 10.6502H8.21769ZM9.38033 12.4364L7.32234 14.8373L8.0816 15.4881L10.1396 13.0872L9.38033 12.4364ZM5.25 14C5.90189 14.6519 6.64335 15.1975 7.48051 15.611L7.92343 14.7145C7.19074 14.3525 6.53729 13.8731 5.95711 13.2929L5.25 14ZM3.90625 12.2813C4.25783 12.8672 4.70352 13.4535 5.25 14L5.95711 13.2929C5.47105 12.8068 5.0752 12.2859 4.76374 11.7668L3.90625 12.2813ZM3.59813 11.7187C3.67113 11.8688 3.77337 12.0598 3.90625 12.2813L4.76374 11.7668C4.64443 11.5679 4.55643 11.4027 4.49745 11.2814L3.59813 11.7187ZM3.90625 10.7188C3.77337 10.9402 3.67113 11.1312 3.59813 11.2814L4.49745 11.7187C4.55643 11.5974 4.64443 11.4321 4.76374 11.2333L3.90625 10.7188ZM5.25 9.00001C4.70352 9.54649 4.25783 10.1328 3.90625 10.7188L4.76374 11.2333C5.0752 10.7142 5.47105 10.1932 5.95711 9.70712L5.25 9.00001ZM11.5 6.50001C8.88241 6.50001 6.81702 7.43299 5.25 9.00001L5.95711 9.70712C7.33541 8.32882 9.14595 7.50001 11.5 7.50001V6.50001ZM14.4828 6.96246C13.5774 6.65996 12.5841 6.50001 11.5 6.50001V7.50001C12.4845 7.50001 13.3701 7.64506 14.1659 7.91092L14.4828 6.96246ZM13.9447 7.11129L12.5835 8.69928L13.3428 9.35007L14.7039 7.76208L13.9447 7.11129Z" fill="currentcolor"/>
</svg>
