<svg width="24" height="24" viewBox="0 0 24 24" fill="none" xmlns="http://www.w3.org/2000/svg">
<path fill-rule="evenodd" clip-rule="evenodd" d="M5.6746 19.3796C5.88427 19.5593 6.19992 19.5351 6.37963 19.3254L8.47942 16.8756C9.52831 17.2803 10.7004 17.5 12 17.5C14.7642 17.5 16.9512 16.5059 18.6036 14.8536C19.181 14.2761 19.6509 13.6578 20.0225 13.0385C20.2479 12.6628 20.3923 12.3656 20.4642 12.1857C20.5119 12.0665 20.5119 11.9335 20.4642 11.8143C20.3923 11.6344 20.2479 11.3372 20.0225 10.9615C19.6509 10.3422 19.181 9.72393 18.6036 9.14646C17.9707 8.5136 17.2594 7.97731 16.4673 7.55644L18.3796 5.3254C18.5593 5.11574 18.5351 4.80009 18.3254 4.62038C18.1157 4.44067 17.8001 4.46495 17.6204 4.67461L15.5206 7.12438C14.4717 6.71977 13.2996 6.50001 12 6.50001C9.23582 6.50001 7.04879 7.49412 5.39645 9.14646C4.81897 9.72393 4.34911 10.3422 3.9775 10.9615C3.75206 11.3372 3.60771 11.6344 3.53576 11.8143C3.48808 11.9335 3.48808 12.0665 3.53576 12.1857C3.60771 12.3656 3.75206 12.6628 3.9775 13.0385C4.34911 13.6578 4.81897 14.2761 5.39645 14.8536C6.0293 15.4864 6.74058 16.0227 7.53269 16.4436L5.62037 18.6746C5.44066 18.8843 5.46494 19.1999 5.6746 19.3796ZM8.20197 15.6627C7.41705 15.275 6.71959 14.7625 6.10355 14.1465C5.58728 13.6302 5.16652 13.0765 4.835 12.524C4.7089 12.3139 4.61378 12.1357 4.54779 12C4.61378 11.8643 4.7089 11.6862 4.835 11.476C5.16652 10.9235 5.58728 10.3698 6.10355 9.85356C7.57621 8.3809 9.51418 7.50001 12 7.50001C13.0343 7.50001 13.9738 7.65251 14.8243 7.93669L13.2146 9.81465C12.855 9.61422 12.4408 9.50001 12 9.50001C10.6199 9.50001 9.5 10.6199 9.5 12C9.5 12.5782 9.69652 13.1107 10.0264 13.5343L8.20197 15.6627ZM9.17569 16.0633C10.0262 16.3475 10.9657 16.5 12 16.5C14.4858 16.5 16.4238 15.6191 17.8964 14.1465C18.4127 13.6302 18.8335 13.0765 19.165 12.524C19.2911 12.3139 19.3862 12.1357 19.4522 12C19.3862 11.8643 19.2911 11.6862 19.165 11.476C18.8335 10.9235 18.4127 10.3698 17.8964 9.85356C17.2804 9.23753 16.583 8.72504 15.798 8.33727L13.9736 10.4657C14.3035 10.8894 14.5 11.4218 14.5 12C14.5 13.3802 13.3801 14.5 12 14.5C11.5592 14.5 11.145 14.3858 10.7854 14.1854L9.17569 16.0633ZM11.4591 13.3994C11.6269 13.4644 11.8093 13.5 12 13.5C12.8279 13.5 13.5 12.8279 13.5 12C13.5 11.7275 13.4272 11.472 13.3 11.2516L11.4591 13.3994ZM12.5409 10.6007C12.3731 10.5357 12.1907 10.5 12 10.5C11.1721 10.5 10.5 11.1722 10.5 12C10.5 12.2725 10.5728 12.5281 10.7 12.7484L12.5409 10.6007Z" fill="currentcolor"/>
</svg>
