<svg width="24" height="24" viewBox="0 0 24 24" fill="none" xmlns="http://www.w3.org/2000/svg">
<path fill-rule="evenodd" clip-rule="evenodd" d="M7.97942 16.3756L5.87963 18.8254C5.69992 19.0351 5.38427 19.0593 5.1746 18.8796C4.96494 18.6999 4.94066 18.3843 5.12037 18.1746L7.03269 15.9436C6.24058 15.5227 5.5293 14.9864 4.89645 14.3536C4.31897 13.7761 3.84911 13.1578 3.4775 12.5385C3.25206 12.1628 3.10771 11.8656 3.03576 11.6857C2.98808 11.5665 2.98808 11.4335 3.03576 11.3143C3.10771 11.1344 3.25206 10.8372 3.4775 10.4615C3.84911 9.84217 4.31897 9.22393 4.89645 8.64646C6.54879 6.99412 8.73582 6.00001 11.5 6.00001C12.7996 6.00001 13.9717 6.21977 15.0206 6.62438L17.1204 4.17461C17.3001 3.96495 17.6157 3.94067 17.8254 4.12038C18.0351 4.30009 18.0593 4.61574 17.8796 4.8254L15.9673 7.05644C16.7594 7.47731 17.4707 8.0136 18.1036 8.64646C18.681 9.22393 19.1509 9.84217 19.5225 10.4615C19.7479 10.8372 19.8923 11.1344 19.9642 11.3143C20.0119 11.4335 20.0119 11.5665 19.9642 11.6857C19.8923 11.8656 19.7479 12.1628 19.5225 12.5385C19.1509 13.1578 18.681 13.7761 18.1036 14.3536C16.4512 16.0059 14.2642 17 11.5 17C10.2004 17 9.02831 16.7803 7.97942 16.3756ZM8.67569 15.5633C9.52625 15.8475 10.4657 16 11.5 16C13.9858 16 15.9238 15.1191 17.3964 13.6465C17.9127 13.1302 18.3335 12.5765 18.665 12.024C18.7911 11.8139 18.8862 11.6357 18.9522 11.5C18.8862 11.3643 18.7911 11.1862 18.665 10.976C18.3335 10.4235 17.9127 9.86983 17.3964 9.35356C16.7804 8.73753 16.083 8.22504 15.298 7.83727L14.7058 8.52825C15.1652 8.96317 15.4527 9.59599 15.4527 10.2962C15.4527 10.4442 15.4384 10.5935 15.4104 10.7438C15.2374 11.6733 14.565 12.6032 13.5564 13.5296C13.1614 13.8924 12.74 14.2301 12.3187 14.5347C12.0651 14.7181 11.8662 14.8507 11.7488 14.9242C11.601 15.0165 11.4159 15.0253 11.26 14.9474C11.1389 14.8868 10.9361 14.7751 10.6786 14.6157C10.4259 14.4594 10.1732 14.2888 9.92603 14.1046L8.67569 15.5633ZM10.5785 13.3434C10.7843 13.4943 10.9945 13.6353 11.2048 13.7654C11.2991 13.8237 11.3844 13.8745 11.4589 13.9174C11.5384 13.8629 11.6305 13.7983 11.7328 13.7243C12.1245 13.4411 12.5162 13.1273 12.88 12.7931C13.7426 12.0007 14.3037 11.2248 14.4273 10.5608C14.4442 10.4697 14.4527 10.3816 14.4527 10.2962C14.4527 9.89501 14.298 9.53787 14.0535 9.28918L10.5785 13.3434ZM13.0396 8.93551L9.80818 12.7055C8.98731 11.9325 8.5147 11.1147 8.5147 10.2962C8.5147 9.53237 9.07551 8.92821 9.7487 8.92821C10.5569 8.92821 10.9837 9.3548 10.9837 9.72921C10.9837 10.3959 11.9837 10.3959 11.9837 9.72921C11.9837 9.3835 12.3476 8.9933 13.0396 8.93551ZM13.8271 8.01671C13.634 7.95908 13.43 7.92821 13.2187 7.92821C12.4731 7.92821 11.8734 8.1908 11.4837 8.58073C11.094 8.1908 10.4943 7.92821 9.7487 7.92821C8.50591 7.92821 7.5147 8.99603 7.5147 10.2962C7.5147 11.4557 8.13172 12.5131 9.15667 13.4656L7.70197 15.1627C6.91705 14.775 6.21959 14.2625 5.60355 13.6465C5.08728 13.1302 4.66652 12.5765 4.335 12.024C4.2089 11.8139 4.11378 11.6357 4.04779 11.5C4.11378 11.3643 4.2089 11.1862 4.335 10.976C4.66652 10.4235 5.08728 9.86983 5.60355 9.35356C7.07621 7.8809 9.01418 7.00001 11.5 7.00001C12.5343 7.00001 13.4738 7.15251 14.3243 7.43669L13.8271 8.01671Z" fill="currentcolor"/>
</svg>
