<svg width="24" height="24" viewBox="0 0 24 24" fill="none" xmlns="http://www.w3.org/2000/svg">
<path fill-rule="evenodd" clip-rule="evenodd" d="M3.9775 10.9615C3.75206 11.3372 3.60771 11.6344 3.53576 11.8143C3.48808 11.9335 3.48808 12.0665 3.53576 12.1857C3.60771 12.3656 3.75206 12.6628 3.9775 13.0385C4.34911 13.6578 4.81897 14.2761 5.39645 14.8536C7.04879 16.5059 9.23582 17.5 12 17.5C14.7642 17.5 16.9512 16.5059 18.6036 14.8536C19.181 14.2761 19.6509 13.6578 20.0225 13.0385C20.2479 12.6628 20.3923 12.3656 20.4642 12.1857C20.5119 12.0665 20.5119 11.9335 20.4642 11.8143C20.3923 11.6344 20.2479 11.3372 20.0225 10.9615C19.6509 10.3422 19.181 9.72393 18.6036 9.14645C16.9512 7.49411 14.7642 6.5 12 6.5C9.23582 6.5 7.04879 7.49411 5.39645 9.14645C4.81897 9.72393 4.34911 10.3422 3.9775 10.9615ZM6.10355 14.1464C5.58728 13.6302 5.16652 13.0765 4.835 12.524C4.7089 12.3138 4.61378 12.1357 4.54779 12C4.61378 11.8643 4.7089 11.6862 4.835 11.476C5.16652 10.9235 5.58728 10.3698 6.10355 9.85355C7.57621 8.38089 9.51418 7.5 12 7.5C14.4858 7.5 16.4238 8.38089 17.8964 9.85355C18.4127 10.3698 18.8335 10.9235 19.165 11.476C19.2911 11.6862 19.3862 11.8643 19.4522 12C19.3862 12.1357 19.2911 12.3138 19.165 12.524C18.8335 13.0765 18.4127 13.6302 17.8964 14.1464C16.4238 15.6191 14.4858 16.5 12 16.5C9.51418 16.5 7.57621 15.6191 6.10355 14.1464Z" fill="currentcolor"/>
<path d="M3.53576 11.8143L3.07152 11.6286L3.07152 11.6286L3.53576 11.8143ZM3.9775 10.9615L4.40625 11.2188L3.9775 10.9615ZM3.53576 12.1857L3.07152 12.3714L3.07152 12.3714L3.53576 12.1857ZM3.9775 13.0385L4.40625 12.7812L3.9775 13.0385ZM5.39645 14.8536L5.75 14.5L5.39645 14.8536ZM20.0225 13.0385L20.4512 13.2957L20.0225 13.0385ZM20.4642 12.1857L20.9285 12.3714V12.3714L20.4642 12.1857ZM20.4642 11.8143L20.9285 11.6286V11.6286L20.4642 11.8143ZM20.0225 10.9615L20.4512 10.7043L20.0225 10.9615ZM18.6036 9.14645L18.9571 8.79289L18.6036 9.14645ZM5.39645 9.14645L5.04289 8.79289L5.39645 9.14645ZM4.835 12.524L4.40625 12.7812H4.40625L4.835 12.524ZM6.10355 14.1464L6.45711 13.7929H6.45711L6.10355 14.1464ZM4.54779 12L4.09813 11.7814L3.99181 12L4.09813 12.2186L4.54779 12ZM4.835 11.476L4.40625 11.2188H4.40625L4.835 11.476ZM6.10355 9.85355L5.75 9.5H5.75L6.10355 9.85355ZM17.8964 9.85355L17.5429 10.2071V10.2071L17.8964 9.85355ZM19.165 11.476L18.7363 11.7332V11.7332L19.165 11.476ZM19.4522 12L19.9019 12.2186L20.0082 12L19.9019 11.7814L19.4522 12ZM19.165 12.524L18.7363 12.2668V12.2668L19.165 12.524ZM17.8964 14.1464L17.5429 13.7929L17.5429 13.7929L17.8964 14.1464ZM4 12C4.05953 11.8512 4.19054 11.5783 4.40625 11.2188L3.54876 10.7043C3.31359 11.0962 3.15589 11.4177 3.07152 11.6286L4 12ZM4 12L3.07152 11.6286C2.97616 11.867 2.97616 12.133 3.07152 12.3714L4 12ZM4.40625 12.7812C4.19054 12.4217 4.05953 12.1488 4 12L3.07152 12.3714C3.15589 12.5823 3.31359 12.9038 3.54876 13.2957L4.40625 12.7812ZM5.75 14.5C5.20276 13.9528 4.75781 13.3672 4.40625 12.7812L3.54876 13.2957C3.9404 13.9485 4.43518 14.5994 5.04289 15.2071L5.75 14.5ZM12 17C9.36839 17 7.30854 16.0585 5.75 14.5L5.04289 15.2071C6.78903 16.9532 9.10326 18 12 18V17ZM18.25 14.5C16.6915 16.0585 14.6316 17 12 17V18C14.8967 18 17.211 16.9532 18.9571 15.2071L18.25 14.5ZM19.5938 12.7812C19.2422 13.3672 18.7972 13.9528 18.25 14.5L18.9571 15.2071C19.5648 14.5994 20.0596 13.9485 20.4512 13.2957L19.5938 12.7812ZM20 12C19.9405 12.1488 19.8095 12.4217 19.5938 12.7812L20.4512 13.2957C20.6864 12.9038 20.8441 12.5823 20.9285 12.3714L20 12ZM20 12V12L20.9285 12.3714C21.0238 12.133 21.0238 11.867 20.9285 11.6286L20 12ZM19.5938 11.2188C19.8095 11.5783 19.9405 11.8512 20 12L20.9285 11.6286C20.8441 11.4177 20.6864 11.0962 20.4512 10.7043L19.5938 11.2188ZM18.25 9.5C18.7972 10.0472 19.2422 10.6328 19.5938 11.2188L20.4512 10.7043C20.0596 10.0515 19.5648 9.40061 18.9571 8.79289L18.25 9.5ZM12 7C14.6316 7 16.6915 7.94146 18.25 9.5L18.9571 8.79289C17.211 7.04676 14.8967 6 12 6V7ZM5.75 9.5C7.30854 7.94146 9.36839 7 12 7V6C9.10326 6 6.78903 7.04676 5.04289 8.79289L5.75 9.5ZM4.40625 11.2188C4.75781 10.6328 5.20276 10.0472 5.75 9.5L5.04289 8.79289C4.43518 9.40061 3.9404 10.0515 3.54876 10.7043L4.40625 11.2188ZM4.40625 12.7812C4.75783 13.3672 5.20352 13.9535 5.75 14.5L6.45711 13.7929C5.97105 13.3068 5.5752 12.7859 5.26374 12.2668L4.40625 12.7812ZM4.09813 12.2186C4.17113 12.3688 4.27337 12.5598 4.40625 12.7812L5.26374 12.2668C5.14443 12.0679 5.05643 11.9026 4.99745 11.7814L4.09813 12.2186ZM4.40625 11.2188C4.27337 11.4402 4.17113 11.6312 4.09813 11.7814L4.99745 12.2186C5.05643 12.0974 5.14443 11.9321 5.26374 11.7332L4.40625 11.2188ZM5.75 9.5C5.20352 10.0465 4.75783 10.6328 4.40625 11.2188L5.26374 11.7332C5.5752 11.2141 5.97105 10.6932 6.45711 10.2071L5.75 9.5ZM12 7C9.38241 7 7.31702 7.93298 5.75 9.5L6.45711 10.2071C7.83541 8.82881 9.64595 8 12 8V7ZM18.25 9.5C16.683 7.93298 14.6176 7 12 7V8C14.3541 8 16.1646 8.82881 17.5429 10.2071L18.25 9.5ZM19.5938 11.2188C19.2422 10.6328 18.7965 10.0465 18.25 9.5L17.5429 10.2071C18.029 10.6932 18.4248 11.2141 18.7363 11.7332L19.5938 11.2188ZM19.9019 11.7814C19.8289 11.6312 19.7266 11.4402 19.5938 11.2188L18.7363 11.7332C18.8556 11.9321 18.9436 12.0974 19.0026 12.2186L19.9019 11.7814ZM19.5938 12.7812C19.7266 12.5598 19.8289 12.3688 19.9019 12.2186L19.0026 11.7814C18.9436 11.9026 18.8556 12.0679 18.7363 12.2668L19.5938 12.7812ZM18.25 14.5C18.7965 13.9535 19.2422 13.3672 19.5938 12.7812L18.7363 12.2668C18.4248 12.7859 18.029 13.3068 17.5429 13.7929L18.25 14.5ZM12 17C14.6176 17 16.683 16.067 18.25 14.5L17.5429 13.7929C16.1646 15.1712 14.3541 16 12 16V17ZM5.75 14.5C7.31702 16.067 9.38241 17 12 17V16C9.64595 16 7.83541 15.1712 6.45711 13.7929L5.75 14.5Z" fill="currentcolor"/>
<path fill-rule="evenodd" clip-rule="evenodd" d="M12 15C13.6562 15 15 13.6562 15 12C15 10.3438 13.6562 9 12 9C10.3438 9 9 10.3438 9 12C9 13.6562 10.3438 15 12 15ZM12 11C12.5519 11 13 11.4481 13 12C13 12.5519 12.5519 13 12 13C11.4481 13 11 12.5519 11 12C11 11.4481 11.4481 11 12 11Z" fill="currentcolor"/>
<path d="M6.37964 19.3254C6.19993 19.5351 5.88428 19.5593 5.67461 19.3796C5.46495 19.1999 5.44067 18.8843 5.62038 18.6746L17.6204 4.67461C17.8001 4.46495 18.1157 4.44067 18.3254 4.62038C18.5351 4.80009 18.5593 5.11574 18.3796 5.3254L6.37964 19.3254Z" fill="currentcolor" stroke="currentcolor"/>
</svg>
