<svg width="24" height="24" viewBox="0 0 24 24" fill="none" xmlns="http://www.w3.org/2000/svg">
<path fill-rule="evenodd" clip-rule="evenodd" d="M3.53576 12.1857C3.48808 12.0665 3.48808 11.9335 3.53576 11.8143C3.60771 11.6344 3.75206 11.3372 3.9775 10.9615C4.34911 10.3422 4.81897 9.72393 5.39645 9.14645C7.04879 7.49411 9.23582 6.5 12 6.5C14.7642 6.5 16.9512 7.49411 18.6036 9.14645C19.181 9.72393 19.6509 10.3422 20.0225 10.9615C20.2479 11.3372 20.3923 11.6344 20.4642 11.8143C20.5119 11.9335 20.5119 12.0665 20.4642 12.1857C20.3923 12.3656 20.2479 12.6628 20.0225 13.0385C19.6509 13.6578 19.181 14.2761 18.6036 14.8536C16.9512 16.5059 14.7642 17.5 12 17.5C9.23582 17.5 7.04879 16.5059 5.39645 14.8536C4.81897 14.2761 4.34911 13.6578 3.9775 13.0385C3.75206 12.6628 3.60771 12.3656 3.53576 12.1857ZM4.835 12.524C5.16652 13.0765 5.58728 13.6302 6.10355 14.1464C7.57621 15.6191 9.51418 16.5 12 16.5C14.4858 16.5 16.4238 15.6191 17.8964 14.1464C18.4127 13.6302 18.8335 13.0765 19.165 12.524C19.2911 12.3138 19.3862 12.1357 19.4522 12C19.3862 11.8643 19.2911 11.6862 19.165 11.476C18.8335 10.9235 18.4127 10.3698 17.8964 9.85355C16.4238 8.38089 14.4858 7.5 12 7.5C9.51418 7.5 7.57621 8.38089 6.10355 9.85355C5.58728 10.3698 5.16652 10.9235 4.835 11.476C4.7089 11.6862 4.61378 11.8643 4.54779 12C4.61378 12.1357 4.7089 12.3138 4.835 12.524ZM10.6651 9.34872C9.72059 9.34872 8.9673 10.1602 8.9673 11.1483C8.9673 12.1037 9.51849 12.9678 10.4184 13.7381C10.7227 13.9987 11.0472 14.2303 11.3718 14.4311C11.5675 14.5522 11.7216 14.6371 11.8137 14.6831C11.9321 14.7424 12.0728 14.7357 12.1851 14.6655C12.2743 14.6097 12.4255 14.5088 12.6182 14.3695C12.9384 14.138 13.2587 13.8814 13.5589 13.6056C14.3254 12.9016 14.8364 12.1949 14.9678 11.4885C14.9891 11.3743 15 11.2608 15 11.1483C15 10.1602 14.2467 9.34872 13.3022 9.34872C12.7356 9.34872 12.2798 9.54829 11.9836 9.84462C11.6875 9.54829 11.2317 9.34872 10.6651 9.34872ZM11.7717 13.7848C11.4783 13.6033 11.1849 13.3939 10.9126 13.1608C10.1647 12.5206 9.72727 11.8348 9.72727 11.1483C9.72727 10.5678 10.1535 10.1087 10.6651 10.1087C11.2793 10.1087 11.6037 10.4329 11.6037 10.7174C11.6037 11.2241 12.3636 11.2241 12.3636 10.7174C12.3636 10.4329 12.688 10.1087 13.3022 10.1087C13.8138 10.1087 14.24 10.5678 14.24 11.1483C14.24 11.2132 14.2336 11.2802 14.2207 11.3495C14.1268 11.854 13.7004 12.4437 13.0448 13.0459C12.7683 13.2999 12.4706 13.5384 12.1729 13.7536C12.0952 13.8098 12.0252 13.859 11.9648 13.9004C11.9082 13.8678 11.8434 13.8292 11.7717 13.7848Z" fill="currentcolor"/>
<path d="M3.53576 11.8143L3.07152 11.6286L3.07152 11.6286L3.53576 11.8143ZM3.53576 12.1857L3.07152 12.3714L3.07152 12.3714L3.53576 12.1857ZM3.9775 10.9615L4.40625 11.2188L3.9775 10.9615ZM5.39645 9.14645L5.04289 8.79289L5.39645 9.14645ZM18.6036 9.14645L18.9571 8.79289L18.6036 9.14645ZM20.0225 10.9615L20.4512 10.7043L20.0225 10.9615ZM20.4642 11.8143L20.9285 11.6286V11.6286L20.4642 11.8143ZM20.4642 12.1857L20.9285 12.3714V12.3714L20.4642 12.1857ZM20.0225 13.0385L20.4512 13.2957L20.0225 13.0385ZM5.39645 14.8536L5.75 14.5L5.39645 14.8536ZM3.9775 13.0385L4.40625 12.7812L3.9775 13.0385ZM6.10355 14.1464L6.45711 13.7929H6.45711L6.10355 14.1464ZM4.835 12.524L4.40625 12.7812H4.40625L4.835 12.524ZM17.8964 14.1464L17.5429 13.7929L17.5429 13.7929L17.8964 14.1464ZM19.165 12.524L18.7363 12.2668V12.2668L19.165 12.524ZM19.4522 12L19.9019 12.2186L20.0082 12L19.9019 11.7814L19.4522 12ZM19.165 11.476L18.7363 11.7332V11.7332L19.165 11.476ZM17.8964 9.85355L17.5429 10.2071V10.2071L17.8964 9.85355ZM6.10355 9.85355L5.75 9.5H5.75L6.10355 9.85355ZM4.835 11.476L4.40625 11.2188H4.40625L4.835 11.476ZM4.54779 12L4.09813 11.7814L3.99181 12L4.09813 12.2186L4.54779 12ZM10.4184 13.7381L10.0932 14.118H10.0932L10.4184 13.7381ZM11.3718 14.4311L11.6349 14.0059V14.0059L11.3718 14.4311ZM11.8137 14.6831L11.59 15.1303L11.59 15.1303L11.8137 14.6831ZM12.1851 14.6655L11.92 14.2415L12.1851 14.6655ZM12.6182 14.3695L12.3253 13.9643L12.3253 13.9643L12.6182 14.3695ZM13.5589 13.6056L13.2206 13.2374L13.5589 13.6056ZM14.9678 11.4885L15.4594 11.58V11.58L14.9678 11.4885ZM11.9836 9.84462L11.63 10.1981L11.9836 10.5519L12.3373 10.1981L11.9836 9.84462ZM10.9126 13.1608L11.2377 12.781L10.9126 13.1608ZM11.7717 13.7848L11.5086 14.21L11.5086 14.21L11.7717 13.7848ZM14.2207 11.3495L14.7123 11.441V11.441L14.2207 11.3495ZM13.0448 13.0459L12.7065 12.6777L12.7065 12.6777L13.0448 13.0459ZM12.1729 13.7536L11.88 13.3484L12.1729 13.7536ZM11.9648 13.9004L11.7151 14.3336L11.9879 14.4908L12.2475 14.3128L11.9648 13.9004ZM3.07152 11.6286C2.97616 11.867 2.97616 12.133 3.07152 12.3714L4 12L3.07152 11.6286ZM3.54876 10.7043C3.31359 11.0962 3.15589 11.4177 3.07152 11.6286L4 12C4.05953 11.8512 4.19054 11.5783 4.40625 11.2188L3.54876 10.7043ZM5.04289 8.79289C4.43518 9.40061 3.9404 10.0515 3.54876 10.7043L4.40625 11.2188C4.75781 10.6328 5.20276 10.0472 5.75 9.5L5.04289 8.79289ZM12 6C9.10326 6 6.78903 7.04676 5.04289 8.79289L5.75 9.5C7.30854 7.94146 9.36839 7 12 7V6ZM18.9571 8.79289C17.211 7.04676 14.8967 6 12 6V7C14.6316 7 16.6915 7.94146 18.25 9.5L18.9571 8.79289ZM20.4512 10.7043C20.0596 10.0515 19.5648 9.40061 18.9571 8.79289L18.25 9.5C18.7972 10.0472 19.2422 10.6328 19.5938 11.2188L20.4512 10.7043ZM20.9285 11.6286C20.8441 11.4177 20.6864 11.0962 20.4512 10.7043L19.5938 11.2188C19.8095 11.5783 19.9405 11.8512 20 12L20.9285 11.6286ZM20.9285 12.3714C21.0238 12.133 21.0238 11.867 20.9285 11.6286L20 12V12L20.9285 12.3714ZM20.4512 13.2957C20.6864 12.9038 20.8441 12.5823 20.9285 12.3714L20 12C19.9405 12.1488 19.8095 12.4217 19.5938 12.7812L20.4512 13.2957ZM18.9571 15.2071C19.5648 14.5994 20.0596 13.9485 20.4512 13.2957L19.5938 12.7812C19.2422 13.3672 18.7972 13.9528 18.25 14.5L18.9571 15.2071ZM12 18C14.8967 18 17.211 16.9532 18.9571 15.2071L18.25 14.5C16.6915 16.0585 14.6316 17 12 17V18ZM5.04289 15.2071C6.78903 16.9532 9.10326 18 12 18V17C9.36839 17 7.30854 16.0585 5.75 14.5L5.04289 15.2071ZM3.54876 13.2957C3.9404 13.9485 4.43518 14.5994 5.04289 15.2071L5.75 14.5C5.20276 13.9528 4.75781 13.3672 4.40625 12.7812L3.54876 13.2957ZM3.07152 12.3714C3.15589 12.5823 3.31359 12.9038 3.54876 13.2957L4.40625 12.7812C4.19054 12.4217 4.05953 12.1488 4 12L3.07152 12.3714ZM6.45711 13.7929C5.97105 13.3068 5.5752 12.7859 5.26374 12.2668L4.40625 12.7812C4.75783 13.3672 5.20352 13.9535 5.75 14.5L6.45711 13.7929ZM12 16C9.64595 16 7.83541 15.1712 6.45711 13.7929L5.75 14.5C7.31702 16.067 9.38241 17 12 17V16ZM17.5429 13.7929C16.1646 15.1712 14.3541 16 12 16V17C14.6176 17 16.683 16.067 18.25 14.5L17.5429 13.7929ZM18.7363 12.2668C18.4248 12.7859 18.029 13.3068 17.5429 13.7929L18.25 14.5C18.7965 13.9535 19.2422 13.3672 19.5938 12.7812L18.7363 12.2668ZM19.0026 11.7814C18.9436 11.9026 18.8556 12.0679 18.7363 12.2668L19.5938 12.7812C19.7266 12.5598 19.8289 12.3688 19.9019 12.2186L19.0026 11.7814ZM18.7363 11.7332C18.8556 11.9321 18.9436 12.0974 19.0026 12.2186L19.9019 11.7814C19.8289 11.6312 19.7266 11.4402 19.5938 11.2188L18.7363 11.7332ZM17.5429 10.2071C18.029 10.6932 18.4248 11.2141 18.7363 11.7332L19.5938 11.2188C19.2422 10.6328 18.7965 10.0465 18.25 9.5L17.5429 10.2071ZM12 8C14.3541 8 16.1646 8.82881 17.5429 10.2071L18.25 9.5C16.683 7.93298 14.6176 7 12 7V8ZM6.45711 10.2071C7.83541 8.82881 9.64595 8 12 8V7C9.38241 7 7.31702 7.93298 5.75 9.5L6.45711 10.2071ZM5.26374 11.7332C5.5752 11.2141 5.97105 10.6932 6.45711 10.2071L5.75 9.5C5.20352 10.0465 4.75783 10.6328 4.40625 11.2188L5.26374 11.7332ZM4.99745 12.2186C5.05643 12.0974 5.14443 11.9321 5.26374 11.7332L4.40625 11.2188C4.27337 11.4402 4.17113 11.6312 4.09813 11.7814L4.99745 12.2186ZM5.26374 12.2668C5.14443 12.0679 5.05643 11.9026 4.99745 11.7814L4.09813 12.2186C4.17113 12.3688 4.27337 12.5598 4.40625 12.7812L5.26374 12.2668ZM9.4673 11.1483C9.4673 10.4061 10.0261 9.84872 10.6651 9.84872V8.84872C9.41513 8.84872 8.4673 9.91436 8.4673 11.1483H9.4673ZM10.7435 13.3583C9.89696 12.6336 9.4673 11.8958 9.4673 11.1483H8.4673C8.4673 12.3116 9.14002 13.302 10.0932 14.118L10.7435 13.3583ZM11.6349 14.0059C11.3294 13.8169 11.0261 13.6002 10.7435 13.3583L10.0932 14.118C10.4194 14.3972 10.7651 14.6437 11.1087 14.8563L11.6349 14.0059ZM12.0373 14.236C11.9619 14.1982 11.8212 14.1212 11.6349 14.0059L11.1087 14.8563C11.3138 14.9832 11.4813 15.076 11.59 15.1303L12.0373 14.236ZM11.92 14.2415C11.9555 14.2194 11.9999 14.2172 12.0373 14.236L11.59 15.1303C11.8643 15.2675 12.1902 15.252 12.4502 15.0894L11.92 14.2415ZM12.3253 13.9643C12.1392 14.0989 11.9975 14.1931 11.92 14.2415L12.4502 15.0894C12.5511 15.0263 12.7118 14.9188 12.9112 14.7747L12.3253 13.9643ZM13.2206 13.2374C12.9367 13.4982 12.632 13.7426 12.3253 13.9643L12.9112 14.7747C13.2449 14.5334 13.5806 14.2646 13.8971 13.9739L13.2206 13.2374ZM14.4763 11.397C14.3747 11.9427 13.961 12.5573 13.2206 13.2374L13.8971 13.9739C14.6897 13.2458 15.298 12.4471 15.4594 11.58L14.4763 11.397ZM14.5 11.1483C14.5 11.2284 14.4923 11.3113 14.4763 11.397L15.4594 11.58C15.486 11.4374 15.5 11.2933 15.5 11.1483H14.5ZM13.3022 9.84872C13.9412 9.84872 14.5 10.4061 14.5 11.1483H15.5C15.5 9.91436 14.5522 8.84872 13.3022 8.84872V9.84872ZM12.3373 10.1981C12.5301 10.0052 12.854 9.84872 13.3022 9.84872V8.84872C12.6171 8.84872 12.0296 9.0914 11.63 9.49116L12.3373 10.1981ZM10.6651 9.84872C11.1133 9.84872 11.4372 10.0052 11.63 10.1981L12.3373 9.49116C11.9377 9.0914 11.3502 8.84872 10.6651 8.84872V9.84872ZM10.5874 13.5406C10.8817 13.7925 11.1963 14.0168 11.5086 14.21L12.0348 13.3596C11.7603 13.1898 11.4881 12.9953 11.2377 12.781L10.5874 13.5406ZM9.22727 11.1483C9.22727 12.0519 9.79715 12.8642 10.5874 13.5406L11.2377 12.781C10.5323 12.1771 10.2273 11.6178 10.2273 11.1483H9.22727ZM10.6651 9.6087C9.83404 9.6087 9.22727 10.3371 9.22727 11.1483H10.2273C10.2273 10.7986 10.4729 10.6087 10.6651 10.6087V9.6087ZM12.1037 10.7174C12.1037 10.0271 11.4049 9.6087 10.6651 9.6087V10.6087C10.8859 10.6087 11.011 10.6667 11.0676 10.7085C11.129 10.7539 11.1037 10.7689 11.1037 10.7174H12.1037ZM11.8636 10.7174C11.8636 10.7178 11.8636 10.7144 11.8649 10.708C11.8662 10.7016 11.8686 10.6931 11.8729 10.6833C11.8819 10.6627 11.8959 10.6436 11.9127 10.6287C11.9442 10.6007 11.9721 10.5974 11.9836 10.5974C11.9952 10.5974 12.0231 10.6007 12.0546 10.6287C12.0714 10.6436 12.0854 10.6627 12.0944 10.6833C12.0987 10.6931 12.1011 10.7016 12.1024 10.708C12.1037 10.7144 12.1037 10.7178 12.1037 10.7174H11.1037C11.1037 10.9798 11.207 11.2133 11.3902 11.3761C11.5642 11.5308 11.7821 11.5974 11.9836 11.5974C12.1852 11.5974 12.4031 11.5308 12.5771 11.3761C12.7603 11.2133 12.8636 10.9798 12.8636 10.7174H11.8636ZM13.3022 9.6087C12.5624 9.6087 11.8636 10.0271 11.8636 10.7174H12.8636C12.8636 10.7689 12.8383 10.7539 12.8997 10.7085C12.9563 10.6667 13.0814 10.6087 13.3022 10.6087V9.6087ZM14.74 11.1483C14.74 10.3371 14.1333 9.6087 13.3022 9.6087V10.6087C13.4944 10.6087 13.74 10.7986 13.74 11.1483H14.74ZM14.7123 11.441C14.7303 11.3441 14.74 11.2464 14.74 11.1483H13.74C13.74 11.18 13.7369 11.2164 13.7291 11.258L14.7123 11.441ZM13.383 13.4142C14.0553 12.7966 14.5872 12.1131 14.7123 11.441L13.7291 11.258C13.6664 11.595 13.3455 12.0908 12.7065 12.6777L13.383 13.4142ZM12.4659 14.1588C12.777 13.9339 13.0902 13.6832 13.383 13.4142L12.7065 12.6777C12.4464 12.9166 12.1643 13.1429 11.88 13.3484L12.4659 14.1588ZM12.2475 14.3128C12.3115 14.2689 12.3849 14.2174 12.4659 14.1588L11.88 13.3484C11.8055 13.4023 11.739 13.449 11.6821 13.488L12.2475 14.3128ZM11.5086 14.21C11.5846 14.257 11.6539 14.2983 11.7151 14.3336L12.2145 13.4672C12.1625 13.4373 12.1021 13.4013 12.0347 13.3596L11.5086 14.21Z" fill="currentcolor"/>
</svg>
