<svg width="24" height="24" viewBox="0 0 24 24" fill="none" xmlns="http://www.w3.org/2000/svg">
<path fill-rule="evenodd" clip-rule="evenodd" d="M3.53576 12.1857C3.48808 12.0665 3.48808 11.9335 3.53576 11.8143C3.60771 11.6344 3.75206 11.3372 3.9775 10.9615C4.34911 10.3422 4.81897 9.72393 5.39645 9.14645C7.04879 7.49411 9.23582 6.5 12 6.5C14.7642 6.5 16.9512 7.49411 18.6036 9.14645C19.181 9.72393 19.6509 10.3422 20.0225 10.9615C20.2479 11.3372 20.3923 11.6344 20.4642 11.8143C20.5119 11.9335 20.5119 12.0665 20.4642 12.1857C20.3923 12.3656 20.2479 12.6628 20.0225 13.0385C19.6509 13.6578 19.181 14.2761 18.6036 14.8536C16.9512 16.5059 14.7642 17.5 12 17.5C9.23582 17.5 7.04879 16.5059 5.39645 14.8536C4.81897 14.2761 4.34911 13.6578 3.9775 13.0385C3.75206 12.6628 3.60771 12.3656 3.53576 12.1857ZM4.835 12.524C5.16652 13.0765 5.58728 13.6302 6.10355 14.1464C7.57621 15.6191 9.51418 16.5 12 16.5C14.4858 16.5 16.4238 15.6191 17.8964 14.1464C18.4127 13.6302 18.8335 13.0765 19.165 12.524C19.2911 12.3138 19.3862 12.1357 19.4522 12C19.3862 11.8643 19.2911 11.6862 19.165 11.476C18.8335 10.9235 18.4127 10.3698 17.8964 9.85355C16.4238 8.38089 14.4858 7.5 12 7.5C9.51418 7.5 7.57621 8.38089 6.10355 9.85355C5.58728 10.3698 5.16652 10.9235 4.835 11.476C4.7089 11.6862 4.61378 11.8643 4.54779 12C4.61378 12.1357 4.7089 12.3138 4.835 12.524ZM10.2487 8.5C9.00591 8.5 8.0147 9.56782 8.0147 10.868C8.0147 12.1251 8.73998 13.2621 9.92405 14.2757C10.3246 14.6186 10.7516 14.9233 11.1786 15.1875C11.4361 15.3469 11.6389 15.4586 11.76 15.5192C11.9159 15.5971 12.101 15.5883 12.2488 15.496C12.3662 15.4225 12.5651 15.2898 12.8187 15.1065C13.24 14.8019 13.6614 14.4642 14.0564 14.1014C15.065 13.1749 15.7374 12.2451 15.9104 11.3156C15.9384 11.1653 15.9527 11.016 15.9527 10.868C15.9527 9.56782 14.9615 8.5 13.7187 8.5C12.9731 8.5 12.3734 8.7626 11.9837 9.15252C11.594 8.7626 10.9943 8.5 10.2487 8.5ZM11.7048 14.3371C11.3187 14.0983 10.9327 13.8228 10.5743 13.516C9.5903 12.6737 9.0147 11.7713 9.0147 10.868C9.0147 10.1042 9.57551 9.5 10.2487 9.5C11.0569 9.5 11.4837 9.92659 11.4837 10.301C11.4837 10.9677 12.4837 10.9677 12.4837 10.301C12.4837 9.92659 12.9105 9.5 13.7187 9.5C14.3919 9.5 14.9527 10.1042 14.9527 10.868C14.9527 10.9533 14.9442 11.0415 14.9273 11.1326C14.8037 11.7966 14.2426 12.5725 13.38 13.3649C13.0162 13.6991 12.6245 14.0129 12.2328 14.2961C12.1305 14.3701 12.0384 14.4347 11.9589 14.4892C11.8844 14.4463 11.7991 14.3955 11.7048 14.3371Z" fill="currentcolor"/>
</svg>
