<svg width="24" height="24" viewBox="0 0 24 24" fill="none" xmlns="http://www.w3.org/2000/svg">
<path fill-rule="evenodd" clip-rule="evenodd" d="M3.91406 7.93945V5.91797C3.91406 4.81301 4.81303 3.91406 5.91797 3.91406H7.93945C8.19186 3.91406 8.39648 3.70944 8.39648 3.45703C8.39648 3.20463 8.19186 3 7.93945 3H5.91797C4.30901 3 3 4.30899 3 5.91797V7.93945C3 8.19186 3.20463 8.39648 3.45703 8.39648C3.70944 8.39648 3.91406 8.19186 3.91406 7.93945ZM7.93945 20.0859C8.19186 20.0859 8.39648 20.2906 8.39648 20.543C8.39648 20.7954 8.19186 21 7.93945 21H5.91797C4.30901 21 3 19.691 3 18.082V16.0605C3 15.8081 3.20463 15.6035 3.45703 15.6035C3.70944 15.6035 3.91406 15.8081 3.91406 16.0605V18.082C3.91406 19.187 4.81303 20.0859 5.91797 20.0859H7.93945ZM21 16.0605V18.082C21 19.691 19.691 21 18.082 21H16.0605C15.8081 21 15.6035 20.7954 15.6035 20.543C15.6035 20.2906 15.8081 20.0859 16.0605 20.0859H18.082C19.187 20.0859 20.0859 19.187 20.0859 18.082V16.0605C20.0859 15.8081 20.2906 15.6035 20.543 15.6035C20.7954 15.6035 21 15.8081 21 16.0605ZM21 5.91797V7.93945C21 8.19186 20.7954 8.39648 20.543 8.39648C20.2906 8.39648 20.0859 8.19186 20.0859 7.93945V5.91797C20.0859 4.81301 19.187 3.91406 18.082 3.91406H16.0605C15.8081 3.91406 15.6035 3.70944 15.6035 3.45703C15.6035 3.20463 15.8081 3 16.0605 3H18.082C19.691 3 21 4.30899 21 5.91797ZM15.154 16.3038C15.3466 16.1259 15.3585 15.8256 15.1806 15.6331C15.0027 15.4405 14.7025 15.4286 14.5099 15.6065C13.8248 16.2394 12.9334 16.5879 12 16.5879C11.0666 16.5879 10.1752 16.2394 9.49005 15.6065C9.29747 15.4286 8.99725 15.4405 8.81938 15.6331C8.64152 15.8256 8.65342 16.1259 8.84597 16.3038C9.70704 17.0991 10.8271 17.5371 12 17.5371C13.1729 17.5371 14.293 17.0991 15.154 16.3038ZM12.9492 9.78516V13.1602C12.9492 13.829 12.4051 14.373 11.7363 14.373H11.3496C11.0875 14.373 10.875 14.1606 10.875 13.8984C10.875 13.6363 11.0875 13.4238 11.3496 13.4238H11.7363C11.8817 13.4238 12 13.3055 12 13.1602V9.78516C12 9.52303 12.2125 9.31055 12.4746 9.31055C12.7367 9.31055 12.9492 9.52303 12.9492 9.78516ZM16.2188 11.1123V9.75879C16.2188 9.51124 16.0181 9.31055 15.7705 9.31055C15.523 9.31055 15.3223 9.51124 15.3223 9.75879V11.1123C15.3223 11.3599 15.523 11.5605 15.7705 11.5605C16.0181 11.5605 16.2188 11.3599 16.2188 11.1123ZM7.88672 11.1123C7.88672 11.3599 8.08741 11.5605 8.33496 11.5605C8.58251 11.5605 8.7832 11.3599 8.7832 11.1123V9.75879C8.7832 9.51124 8.58251 9.31055 8.33496 9.31055C8.08741 9.31055 7.88672 9.51124 7.88672 9.75879V11.1123Z" fill="currentcolor"/>
<path fill-rule="evenodd" clip-rule="evenodd" d="M2.5 5.91797C2.5 4.03285 4.03287 2.5 5.91797 2.5H7.93945C8.468 2.5 8.89648 2.92848 8.89648 3.45703C8.89648 3.98558 8.468 4.41406 7.93945 4.41406H5.91797C5.08916 4.41406 4.41406 5.08915 4.41406 5.91797V7.93945C4.41406 8.468 3.98558 8.89648 3.45703 8.89648C2.92848 8.89648 2.5 8.468 2.5 7.93945V5.91797ZM15.1035 3.45703C15.1035 2.92848 15.532 2.5 16.0605 2.5H18.082C19.9671 2.5 21.5 4.03285 21.5 5.91797V7.93945C21.5 8.468 21.0715 8.89648 20.543 8.89648C20.0144 8.89648 19.5859 8.468 19.5859 7.93945V5.91797C19.5859 5.08915 18.9108 4.41406 18.082 4.41406H16.0605C15.532 4.41406 15.1035 3.98558 15.1035 3.45703ZM7.38672 9.75879C7.38672 9.23509 7.81127 8.81055 8.33496 8.81055C8.85866 8.81055 9.2832 9.23509 9.2832 9.75879V11.1123C9.2832 11.636 8.85866 12.0605 8.33496 12.0605C7.81127 12.0605 7.38672 11.636 7.38672 11.1123V9.75879ZM11.5 9.78516C11.5 9.24689 11.9363 8.81055 12.4746 8.81055C13.0129 8.81055 13.4492 9.24689 13.4492 9.78516V13.1602C13.4492 14.1051 12.6813 14.873 11.7363 14.873H11.3496C10.8113 14.873 10.375 14.4367 10.375 13.8984C10.375 13.3602 10.8113 12.9238 11.3496 12.9238H11.5V9.78516ZM14.8223 9.75879C14.8223 9.23509 15.2468 8.81055 15.7705 8.81055C16.2942 8.81055 16.7188 9.23509 16.7188 9.75879V11.1123C16.7188 11.636 16.2942 12.0605 15.7705 12.0605C15.2468 12.0605 14.8223 11.636 14.8223 11.1123V9.75879ZM14.1707 15.2392C14.5661 14.874 15.1827 14.8984 15.5479 15.2938L15.5479 15.2938C15.9131 15.6892 15.8887 16.3058 15.4933 16.671L15.154 16.3038L15.4933 16.6711C14.5398 17.5518 13.2985 18.0371 12 18.0371C10.7015 18.0371 9.46021 17.5518 8.50672 16.6711L8.84597 16.3038L8.50671 16.671C8.1113 16.3058 8.08688 15.6892 8.45209 15.2938L8.45212 15.2938C8.81736 14.8984 9.43384 14.874 9.82926 15.2391L9.82932 15.2392C10.422 15.7867 11.1922 16.0879 12 16.0879C12.8078 16.0879 13.578 15.7867 14.1707 15.2392L14.1707 15.2392ZM2.5 16.0605C2.5 15.532 2.92848 15.1035 3.45703 15.1035C3.98558 15.1035 4.41406 15.532 4.41406 16.0605V18.082C4.41406 18.9108 5.08917 19.5859 5.91797 19.5859H7.93945C8.468 19.5859 8.89648 20.0144 8.89648 20.543C8.89648 21.0715 8.468 21.5 7.93945 21.5H5.91797C4.03287 21.5 2.5 19.9671 2.5 18.082V16.0605ZM19.5859 16.0605C19.5859 15.532 20.0144 15.1035 20.543 15.1035C21.0715 15.1035 21.5 15.532 21.5 16.0605V18.082C21.5 19.9671 19.9671 21.5 18.082 21.5H16.0605C15.532 21.5 15.1035 21.0715 15.1035 20.543C15.1035 20.0144 15.532 19.5859 16.0605 19.5859H18.082C18.9108 19.5859 19.5859 18.9108 19.5859 18.082V16.0605Z" fill="currentcolor"/>
</svg>
