<svg width="24" height="24" viewBox="0 0 24 24" fill="none" xmlns="http://www.w3.org/2000/svg">
<circle cx="12" cy="12" r="12" fill="currentcolor"/>
<path d="M14.7006 7.30432C16.3844 7.30432 17.739 8.80747 17.739 10.649C17.739 10.8574 17.7194 11.0686 17.6809 11.2821C17.4339 12.6528 16.4357 14.0748 14.929 15.5003C14.3276 16.0693 13.6846 16.5999 13.0416 17.0787C12.8165 17.2463 12.6073 17.3956 12.4193 17.5248C12.3057 17.6029 12.2237 17.6573 12.1788 17.6862C12.0791 17.7505 11.9541 17.7566 11.8489 17.7024C11.8028 17.6786 11.7197 17.6338 11.6049 17.5686C11.4154 17.4611 11.2048 17.3348 10.9783 17.1904C10.3315 16.7782 9.68464 16.3027 9.07961 15.7693C7.32408 14.2215 6.26074 12.5045 6.26074 10.649C6.26074 8.80747 7.61535 7.30432 9.29911 7.30432C10.5783 7.30432 11.5266 7.86283 11.9999 8.61026C12.4731 7.86283 13.4214 7.30432 14.7006 7.30432Z" stroke="white"/>
<mask id="mask0_1222_221737" style="mask-type:luminance" maskUnits="userSpaceOnUse" x="5" y="6" width="14" height="13">
<path d="M14.7006 7.30432C16.3844 7.30432 17.739 8.80747 17.739 10.649C17.739 10.8574 17.7194 11.0686 17.6809 11.2821C17.4339 12.6528 16.4357 14.0748 14.929 15.5003C14.3276 16.0693 13.6846 16.5999 13.0416 17.0787C12.8165 17.2463 12.6073 17.3956 12.4193 17.5248C12.3057 17.6029 12.2237 17.6573 12.1788 17.6862C12.0791 17.7505 11.9541 17.7566 11.8489 17.7024C11.8028 17.6786 11.7197 17.6338 11.6049 17.5686C11.4154 17.4611 11.2048 17.3348 10.9783 17.1904C10.3315 16.7782 9.68464 16.3027 9.07961 15.7693C7.32408 14.2215 6.26074 12.5045 6.26074 10.649C6.26074 8.80747 7.61535 7.30432 9.29911 7.30432C10.5783 7.30432 11.5266 7.86283 11.9999 8.61026C12.4731 7.86283 13.4214 7.30432 14.7006 7.30432Z" fill="white" stroke="white"/>
</mask>
<g mask="url(#mask0_1222_221737)">
</g>
</svg>
