<svg width="24" height="24" viewBox="0 0 24 24" fill="none" xmlns="http://www.w3.org/2000/svg">
<path fill-rule="evenodd" clip-rule="evenodd" d="M8 15C8 12.7909 9.79086 11 12 11C14.2091 11 16 12.7909 16 15C16 17.2091 14.2091 19 12 19C9.79086 19 8 17.2091 8 15ZM12 13C10.8954 13 10 13.8954 10 15C10 15.1792 10.0236 15.3528 10.0677 15.518L12.518 13.0677C12.3528 13.0236 12.1792 13 12 13ZM13.9323 14.482L11.482 16.9323C11.6472 16.9764 11.8208 17 12 17C13.1046 17 14 16.1046 14 15C14 14.8208 13.9764 14.6472 13.9323 14.482Z" fill="currentcolor"/>
<path fill-rule="evenodd" clip-rule="evenodd" d="M3 1H14.4142L21 7.58579V23H3V1ZM5 3V21H19V9H13V3H5ZM15 4.41421L17.5858 7H15V4.41421Z" fill="currentcolor"/>
</svg>
