<svg width="24" height="24" viewBox="0 0 24 24" fill="none" xmlns="http://www.w3.org/2000/svg">
<path fill-rule="evenodd" clip-rule="evenodd" d="M8 14.5C8 12.567 9.567 11 11.5 11C13.433 11 15 12.567 15 14.5C15 15.1028 14.8476 15.6699 14.5793 16.1651L16.4142 18L15 19.4142L13.1651 17.5793C12.6699 17.8476 12.1028 18 11.5 18C9.567 18 8 16.433 8 14.5ZM11.5 13C10.6716 13 10 13.6716 10 14.5C10 15.3284 10.6716 16 11.5 16C12.3284 16 13 15.3284 13 14.5C13 13.6716 12.3284 13 11.5 13Z" fill="currentcolor"/>
<path fill-rule="evenodd" clip-rule="evenodd" d="M3 1H14.4142L21 7.58579V23H3V1ZM5 3V21H19V9H13V3H5ZM15 4.41421L17.5858 7H15V4.41421Z" fill="currentcolor"/>
</svg>
