<svg width="24" height="24" viewBox="0 0 24 24" fill="none" xmlns="http://www.w3.org/2000/svg">
<path fill-rule="evenodd" clip-rule="evenodd" d="M16.8363 15.622V14.7788H18.7946V16.5007C18.4188 16.7532 18.0875 16.9257 17.8007 17.0166C17.5122 17.1079 17.1709 17.1535 16.7754 17.1535C16.2892 17.1535 15.892 17.0721 15.5852 16.9076C15.2788 16.7449 15.0413 16.5007 14.8715 16.177C14.7019 15.8532 14.6195 15.4821 14.6195 15.0622C14.6195 14.6195 14.7116 14.2371 14.8962 13.9098C15.081 13.5843 15.3511 13.3354 15.7072 13.1662C15.9859 13.0343 16.3599 12.9709 16.8298 12.9709C17.2831 12.9709 17.621 13.0116 17.845 13.0929C18.0708 13.1743 18.2571 13.2995 18.4039 13.4705C18.5521 13.6414 18.6644 13.8561 18.7384 14.1183L17.5188 14.3347C17.4676 14.1816 17.3835 14.0629 17.2633 13.9815C17.1428 13.9002 16.9897 13.8595 16.8035 13.8595C16.5264 13.8595 16.3055 13.9555 16.1392 14.1443C15.9744 14.3347 15.892 14.6356 15.892 15.0475C15.892 15.4853 15.9744 15.7978 16.1423 15.9848C16.309 16.1721 16.5412 16.2665 16.8397 16.2665C16.9815 16.2665 17.1148 16.247 17.245 16.2063C17.3738 16.1656 17.5203 16.0973 17.6868 16.0013V15.622H16.8363ZM12.0844 14.7676H12.3959C12.6415 14.7676 12.8146 14.7253 12.9151 14.6407C13.014 14.556 13.0633 14.4486 13.0633 14.3184C13.0633 14.1915 13.0206 14.0841 12.9331 13.9946C12.8476 13.9067 12.6844 13.8611 12.4469 13.8611H12.0844V14.7676ZM10.8119 13.0376H12.9199C13.3798 13.0376 13.7226 13.145 13.9517 13.3613C14.1794 13.5778 14.2946 13.8837 14.2946 14.2826C14.2946 14.6911 14.1693 15.0117 13.9206 15.2428C13.6717 15.4739 13.2908 15.5895 12.7783 15.5895H12.0826V17.0884H10.8119V13.0376ZM8.88491 13.0376H10.1559V15.2363C10.1559 15.6985 10.1147 16.0501 10.0323 16.2908C9.94987 16.5318 9.78174 16.7352 9.5312 16.9029C9.28066 17.0703 8.95908 17.1535 8.56695 17.1535C8.15307 17.1535 7.83181 17.098 7.60418 16.9875C7.37672 16.8768 7.20052 16.7157 7.0769 16.5025C6.95328 16.2908 6.87894 16.0273 6.85751 15.7147L8.06587 15.5519C8.06735 15.7295 8.08384 15.8613 8.11367 15.9475C8.14318 16.0338 8.19427 16.1038 8.26515 16.1575C8.3146 16.1917 8.38218 16.2094 8.47283 16.2094C8.61475 16.2094 8.71843 16.1575 8.78617 16.0532C8.8521 15.9492 8.88491 15.7749 8.88491 15.5277V13.0376ZM13.1276 6.55208V3.45497L16.6601 6.98661H13.5679C13.4459 6.98661 13.3402 6.93453 13.2562 6.85967C13.1803 6.78481 13.1276 6.67251 13.1276 6.55208V6.55208ZM18.1171 11.2767H19.7537C20.4394 11.2767 21 11.8316 21 12.5069V17.6206C21 18.296 20.4379 18.851 19.7537 18.851H18.1171V21.0562C18.1171 21.3182 18.0098 21.551 17.8368 21.7235C17.6622 21.896 17.4263 22 17.1611 22H2.95617C2.6908 22 2.45493 21.896 2.28021 21.7235C2.10549 21.551 2 21.3182 2 21.0562V2.95208C2 2.69005 2.1073 2.45732 2.28021 2.28481C2.45493 2.1123 2.69739 2.00814 2.95617 2.00814H12.6349C12.6564 2 12.6793 2 12.7025 2C12.808 2 12.9151 2.04557 12.991 2.1123H13.0058C13.0206 2.12043 13.0287 2.12694 13.0435 2.14159L17.9868 7.08264C18.0708 7.16564 18.1318 7.27793 18.1318 7.40488C18.1318 7.44231 18.1237 7.4716 18.1171 7.51066V11.2767ZM6.18171 11.2767H16.8758V8.07703H13.4688C13.1111 8.07703 12.6135 7.88661 12.3776 7.65388C12.1419 7.42115 11.9985 7.00126 11.9985 6.64972V3.2434H3.34171C3.3122 3.2434 3.28913 3.25805 3.27429 3.27269C3.2494 3.28897 3.24281 3.31013 3.24281 3.34105V20.6656C3.24281 20.6884 3.25781 20.7177 3.27248 20.7322C3.28731 20.7551 3.31863 20.7616 3.34022 20.7616H16.7754C16.8051 20.7616 16.8035 20.747 16.8198 20.7322C16.8428 20.7177 16.8742 20.6868 16.8742 20.6656V18.8494H6.18171C5.49948 18.8494 4.9356 18.296 4.9356 17.619V12.5054C4.9356 11.83 5.49619 11.2767 6.18171 11.2767V11.2767Z" fill="currentcolor"/>
</svg>
