<svg width="24" height="24" viewBox="0 0 24 24" fill="none" xmlns="http://www.w3.org/2000/svg">
<path fill-rule="evenodd" clip-rule="evenodd" d="M13.1276 6.55208V3.45497L16.6601 6.98661H13.5679C13.4459 6.98661 13.3402 6.93453 13.2562 6.85967C13.1803 6.78481 13.1276 6.67251 13.1276 6.55208V6.55208ZM18.1171 11.2767H19.7537C20.4394 11.2767 21 11.8316 21 12.5069V17.6206C21 18.296 20.4379 18.851 19.7537 18.851H18.1171V21.0562C18.1171 21.3182 18.0098 21.551 17.8368 21.7235C17.6622 21.896 17.4263 22 17.1611 22H2.95617C2.6908 22 2.45493 21.896 2.28021 21.7235C2.10549 21.551 2 21.3182 2 21.0562V2.95208C2 2.69005 2.1073 2.45732 2.28021 2.28481C2.45493 2.1123 2.69739 2.00814 2.95617 2.00814H12.6349C12.6564 2 12.6793 2 12.7025 2C12.808 2 12.9151 2.04557 12.991 2.1123H13.0058C13.0206 2.12043 13.0287 2.12694 13.0435 2.14159L17.9868 7.08264C18.0708 7.16564 18.1318 7.27793 18.1318 7.40488C18.1318 7.44231 18.1237 7.4716 18.1171 7.51066V11.2767ZM15.5555 12.9692H18.7862V13.8676H16.8676V14.5967H18.5093V15.4429H16.8676V17.1452H15.5572V12.9692H15.5555ZM12.3663 13.9148V16.1949H12.6875C12.9611 16.1949 13.1558 16.164 13.2728 16.1054C13.388 16.0452 13.4789 15.941 13.5446 15.7929C13.6107 15.6432 13.6437 15.4022 13.6437 15.0687C13.6437 14.626 13.571 14.3249 13.4245 14.1606C13.2776 13.9978 13.0353 13.9164 12.6959 13.9164H12.3663V13.9148ZM11.0625 12.9692H13.004C13.3864 12.9692 13.6963 13.0213 13.9321 13.1222C14.1678 13.2248 14.3622 13.3712 14.5173 13.5633C14.6704 13.7553 14.7825 13.9781 14.8501 14.2322C14.9193 14.4861 14.9539 14.7562 14.9539 15.041C14.9539 15.487 14.903 15.8336 14.7991 16.0794C14.6969 16.325 14.5534 16.5318 14.3704 16.6977C14.1876 16.8638 13.9913 16.9745 13.7821 17.0297C13.4952 17.1063 13.2364 17.1437 13.004 17.1437H11.0625V12.9692ZM8.17136 14.7546H8.49261C8.74645 14.7546 8.92447 14.7105 9.02682 14.6244C9.12885 14.5381 9.17995 14.4275 9.17995 14.2924C9.17995 14.1606 9.13545 14.0499 9.04644 13.9588C8.9576 13.8676 8.79095 13.8219 8.54371 13.8219H8.16955V14.7546H8.17136ZM6.86081 12.9692H9.0349C9.50812 12.9692 9.86234 13.0799 10.0997 13.3029C10.3356 13.5258 10.4524 13.8416 10.4524 14.2533C10.4524 14.6749 10.3239 15.0052 10.0669 15.2428C9.80976 15.4805 9.4173 15.5991 8.89002 15.5991H8.17285V17.1437H6.86081V12.9692ZM6.18171 11.2767H16.8758V8.07703H13.4688C13.1111 8.07703 12.6135 7.88661 12.3776 7.65388C12.1419 7.42115 11.9985 7.00126 11.9985 6.64972V3.2434H3.34171C3.3122 3.2434 3.28913 3.25805 3.27429 3.27269C3.2494 3.28897 3.24281 3.31013 3.24281 3.34105V20.6656C3.24281 20.6884 3.25781 20.7177 3.27248 20.7322C3.28731 20.7551 3.31863 20.7616 3.34022 20.7616H16.7754C16.8051 20.7616 16.8035 20.747 16.8198 20.7322C16.8428 20.7177 16.8742 20.6868 16.8742 20.6656V18.8494H6.18171C5.49948 18.8494 4.9356 18.296 4.9356 17.619V12.5054C4.9356 11.83 5.49619 11.2767 6.18171 11.2767V11.2767Z" fill="currentcolor"/>
</svg>
