<svg width="24" height="24" viewBox="0 0 24 24" fill="none" xmlns="http://www.w3.org/2000/svg">
<path fill-rule="evenodd" clip-rule="evenodd" d="M13.1276 6.55208V3.45497L16.6601 6.98661H13.5679C13.4459 6.98661 13.3402 6.93453 13.2562 6.85967C13.1803 6.78481 13.1276 6.67251 13.1276 6.55208V6.55208ZM18.1171 11.2767H19.7537C20.4394 11.2767 21 11.8316 21 12.5069V17.6206C21 18.296 20.4379 18.851 19.7537 18.851H18.1171V21.0562C18.1171 21.3182 18.0098 21.551 17.8368 21.7235C17.6622 21.896 17.4263 22 17.1611 22H2.95617C2.6908 22 2.45493 21.896 2.28021 21.7235C2.10549 21.551 2 21.3182 2 21.0562V2.95208C2 2.69005 2.1073 2.45732 2.28021 2.28481C2.45493 2.1123 2.69739 2.00814 2.95617 2.00814H12.6349C12.6564 2 12.6793 2 12.7025 2C12.808 2 12.9151 2.04557 12.991 2.1123H13.0058C13.0206 2.12043 13.0287 2.12694 13.0435 2.14159L17.9868 7.08264C18.0708 7.16564 18.1318 7.27793 18.1318 7.40488C18.1318 7.44231 18.1237 7.4716 18.1171 7.51066V11.2767ZM15.23 13H18.9123V13.9626H17.6761V16.8929H16.4662V13.9626H15.23V13ZM10.9674 13H12.3026L12.9966 14.1983L13.6707 13H14.9893L13.7711 14.8857L15.1029 16.8929H13.7399L12.9718 15.6422L12.197 16.8929H10.8455L12.197 14.8646L10.9674 13ZM7.00008 13H10.6822V13.9626H9.44598V16.8929H8.2363V13.9626H7.00008V13ZM6.18171 11.2767H16.8758V8.07703H13.4688C13.1111 8.07703 12.6135 7.88661 12.3776 7.65388C12.1419 7.42115 11.9985 7.00126 11.9985 6.64972V3.2434H3.34171C3.3122 3.2434 3.28913 3.25805 3.27429 3.27269C3.2494 3.28897 3.24281 3.31013 3.24281 3.34105V20.6656C3.24281 20.6884 3.25781 20.7177 3.27248 20.7322C3.28731 20.7551 3.31863 20.7616 3.34022 20.7616H16.7754C16.8051 20.7616 16.8035 20.747 16.8198 20.7322C16.8428 20.7177 16.8742 20.6868 16.8742 20.6656V18.8494H6.18171C5.49948 18.8494 4.9356 18.296 4.9356 17.619V12.5054C4.9356 11.83 5.49619 11.2767 6.18171 11.2767V11.2767Z" fill="currentcolor"/>
</svg>
