<svg width="24" height="24" viewBox="0 0 24 24" fill="none" xmlns="http://www.w3.org/2000/svg">
<path fill-rule="evenodd" clip-rule="evenodd" d="M3.76123 14.1348C3.80957 14.3225 3.69971 14.5147 3.51367 14.5635C3.32764 14.6123 3.13721 14.5014 3.08887 14.3137C3.03174 14.0919 2.98193 13.8687 2.93945 13.6425C2.89844 13.4178 2.86621 13.1946 2.84277 12.9713C2.82812 12.8265 2.81641 12.6786 2.81055 12.5293C2.80176 12.3682 2.79883 12.2189 2.79883 12.0829C2.79883 9.57414 3.80664 7.30342 5.43555 5.661C7.06299 4.01709 9.31299 3 11.7988 3C14.2847 3 16.5361 4.0097 18.1665 5.64769C19.7939 7.28273 20.7988 9.54457 20.7988 12.0489C20.7988 12.2425 20.6421 12.4007 20.4502 12.4007C20.2583 12.4007 20.1016 12.2425 20.1016 12.0489C20.1016 9.73676 19.1743 7.65231 17.6758 6.14589C16.1729 4.63503 14.0957 3.70369 11.7988 3.70369C9.50635 3.70369 7.43066 4.64095 5.92773 6.15772C4.42627 7.67448 3.49609 9.76928 3.49609 12.0829C3.49609 12.2366 3.49902 12.3741 3.50488 12.4968C3.51074 12.6313 3.521 12.7659 3.53418 12.9004C3.55615 13.1074 3.58545 13.3128 3.62354 13.5168C3.66162 13.7194 3.70703 13.9249 3.76123 14.1348ZM7.5127 18.6304C7.61523 18.4663 7.8291 18.4175 7.9917 18.521C8.1543 18.6245 8.20264 18.8403 8.1001 19.0044L7.39551 20.1398C7.29297 20.3039 7.0791 20.3527 6.9165 20.2492C6.75391 20.1457 6.70557 19.9298 6.80811 19.7658L7.5127 18.6304ZM4.20801 17.2851C4.33398 17.4315 4.55371 17.4477 4.69873 17.3206C4.83789 17.1979 4.96094 17.0545 5.06348 16.8904C5.16455 16.7278 5.24805 16.5445 5.31104 16.3405C5.59375 15.4313 5.43848 14.565 5.28027 13.6869L5.27834 13.676C5.18815 13.1725 5.09719 12.6647 5.1001 12.1657C5.11621 9.55492 6.74805 7.41873 8.88525 6.31885C9.7876 5.85466 10.7778 5.57525 11.7725 5.52351C12.7612 5.47325 13.7559 5.64621 14.6729 6.08676C16.7515 7.08463 18.4434 9.46474 18.8052 13.7209C18.8213 13.9145 18.9897 14.0594 19.1816 14.0431C19.3735 14.0269 19.5171 13.8569 19.501 13.6632C19.1143 9.11586 17.2568 6.548 14.9702 5.45107C13.9463 4.96027 12.8374 4.76513 11.7373 4.82278C10.6416 4.88044 9.55469 5.18497 8.56885 5.69352C6.21924 6.90427 4.42334 9.26665 4.40576 12.1642C4.40139 12.7269 4.4983 13.2662 4.59439 13.801L4.59619 13.811L4.59665 13.8136C4.73858 14.6036 4.87866 15.3833 4.646 16.1305C4.60059 16.2769 4.54346 16.4055 4.47461 16.5149C4.40869 16.6213 4.33105 16.713 4.24316 16.7899C4.09814 16.917 4.08203 17.1388 4.20801 17.2851ZM18.7979 15.1238C18.7979 14.9287 18.9546 14.772 19.1465 14.772C19.3384 14.772 19.4951 14.9301 19.4951 15.1238V16.5992C19.4951 16.7943 19.3384 16.951 19.1465 16.951C18.9546 16.951 18.7979 16.7928 18.7979 16.5992V15.1238ZM5.23926 18.7235C5.3667 18.8684 5.58643 18.8817 5.72998 18.7531C6.26025 18.28 6.64551 17.6769 6.86523 16.9229C7.0791 16.1882 7.13623 15.3145 7.01318 14.2841C7.01172 14.2664 7.00732 14.2486 7.00293 14.2309C6.81689 13.3099 6.7832 12.4658 6.89014 11.7074C6.99854 10.9416 7.25195 10.266 7.63867 9.69388C7.74707 9.53422 7.70605 9.31543 7.54785 9.20603C7.38965 9.09664 7.17285 9.13803 7.06445 9.29769C6.61768 9.95998 6.32471 10.7346 6.20166 11.6083C6.08301 12.4436 6.11963 13.369 6.32178 14.3713C6.43164 15.3042 6.38477 16.0832 6.19727 16.7248C6.01562 17.3472 5.70068 17.8439 5.26855 18.2283C5.125 18.3569 5.11182 18.5787 5.23926 18.7235ZM9.27051 8.16972C9.10352 8.26729 8.89111 8.20964 8.79443 8.04111C8.69775 7.87258 8.75488 7.65822 8.92188 7.56065C9.31152 7.33299 9.72754 7.15263 10.1567 7.02106C11.3345 6.66035 12.6133 6.6707 13.7764 7.08167C14.9453 7.49561 15.9956 8.31164 16.7104 9.56083C16.9492 9.97625 17.1499 10.4419 17.3052 10.9579C17.5264 11.6941 17.6772 12.516 17.7549 13.4193C17.8311 14.3078 17.8354 15.2835 17.7681 16.3449C17.7681 16.3541 17.7669 16.3621 17.7656 16.371L17.7656 16.371L17.7651 16.3745L17.522 18.796C17.5029 18.9882 17.333 19.1301 17.1411 19.1109C16.9507 19.0916 16.8101 18.9201 16.8291 18.7265L17.0723 16.302V16.3005C17.1367 15.279 17.1323 14.3358 17.0591 13.4769C16.9858 12.6165 16.8452 11.8434 16.6401 11.1619C16.5024 10.7021 16.3223 10.2867 16.1084 9.91268C15.4829 8.81871 14.5659 8.10468 13.5479 7.74397C12.5239 7.38177 11.3975 7.3729 10.3589 7.69075C9.98242 7.80901 9.61768 7.96719 9.27051 8.16972ZM8.10156 17.7951C8.29053 17.8291 8.4707 17.7005 8.50439 17.5098C8.58936 17.0294 8.63623 16.4853 8.65527 15.8851C8.67139 15.2953 8.6582 14.6596 8.62012 13.9884C8.6084 13.7903 8.59814 13.6366 8.58789 13.4888C8.51758 12.4835 8.46191 11.6734 9.00977 10.6888C9.12549 10.4789 9.26465 10.2867 9.42871 10.1108C9.58838 9.93929 9.77588 9.78258 9.99121 9.64214C10.3457 9.47066 10.6943 9.33908 11.0342 9.25482C11.3755 9.17056 11.7109 9.1336 12.0405 9.15134C12.2324 9.16168 12.395 9.01237 12.4053 8.81871C12.4155 8.62505 12.2676 8.46096 12.0757 8.45061C11.6787 8.42843 11.2759 8.47278 10.8701 8.57331C10.4761 8.67088 10.082 8.82019 9.68506 9.01237C9.66602 9.01976 9.64844 9.02864 9.63086 9.04046C9.36279 9.21343 9.12695 9.41152 8.92188 9.63032C8.7168 9.84911 8.54541 10.0886 8.40186 10.3458C7.75146 11.5122 7.81445 12.417 7.89355 13.539L7.90247 13.6674C7.91148 13.7961 7.92028 13.9218 7.92578 14.0284C7.96387 14.6877 7.97705 15.3042 7.96094 15.8674C7.94482 16.4232 7.89941 16.9333 7.81885 17.3886C7.78516 17.5793 7.9126 17.7611 8.10156 17.7951ZM13.4102 9.58005C13.2461 9.47953 13.1948 9.26221 13.2944 9.09812C13.394 8.93254 13.6079 8.8808 13.772 8.98133C13.8789 9.04785 13.9829 9.11881 14.084 9.19569C14.1836 9.27108 14.2817 9.35387 14.3799 9.44405C15.707 10.6607 16.1567 12.6165 16.186 14.6626C16.2139 16.6553 15.8433 18.7339 15.5034 20.2669C15.4624 20.4561 15.2764 20.5759 15.0889 20.533C14.9014 20.4916 14.7827 20.3039 14.8252 20.1146C15.1562 18.6186 15.5195 16.5947 15.4917 14.6699C15.4653 12.7984 15.0698 11.0259 13.9111 9.96294C13.8306 9.88902 13.7471 9.81954 13.6636 9.75597C13.5801 9.68945 13.4951 9.63179 13.4102 9.58005ZM8.63477 20.7784C8.7915 20.8908 9.0083 20.8523 9.11963 20.6941C9.39648 20.2994 9.63086 19.8692 9.81836 19.408C10.0073 18.9408 10.1523 18.4397 10.252 17.9001C10.4385 16.8939 10.3553 15.6843 10.2766 14.5392L10.2754 14.5221L10.2702 14.4459C10.2456 14.0852 10.2217 13.7345 10.208 13.4237C10.1875 12.9226 10.1772 12.4332 10.2622 12.0208C10.3384 11.6512 10.4951 11.3363 10.8013 11.1205C10.8701 11.0717 10.9507 11.0259 11.0415 10.983C11.1309 10.9401 11.2319 10.9032 11.3447 10.8706C11.4312 10.8455 11.5132 10.8263 11.5908 10.813C12.0742 10.7302 12.4478 10.8485 12.729 11.0953C13.0337 11.3629 13.2476 11.7828 13.3853 12.2721C13.4292 12.4332 13.4658 12.5988 13.4951 12.7673C13.5112 12.8605 13.5259 12.9551 13.5361 13.0497C13.5479 13.1502 13.5566 13.2478 13.5625 13.3409C13.6328 14.4172 13.5859 15.7639 13.4409 17.087C13.3018 18.3539 13.0747 19.5928 12.7759 20.5434C12.7188 20.7281 12.8198 20.9248 13.0029 20.9839C13.186 21.0416 13.3809 20.9396 13.4395 20.7548C13.7544 19.7539 13.9917 18.4678 14.1353 17.1624C14.2847 15.8009 14.333 14.4098 14.2598 13.2951C14.2524 13.1827 14.2422 13.0733 14.2305 12.9669C14.2188 12.859 14.2026 12.7511 14.1851 12.6446C14.1514 12.4495 14.1089 12.2588 14.0576 12.0755C13.8848 11.4649 13.6035 10.9268 13.189 10.5617C12.7524 10.1773 12.187 9.99103 11.4736 10.1137C11.3696 10.1315 11.2627 10.1566 11.1543 10.1876C11.0093 10.229 10.8745 10.2808 10.75 10.3384C10.6255 10.3961 10.5098 10.4641 10.4028 10.5395C9.92676 10.8765 9.68945 11.3393 9.57959 11.8729C9.47852 12.3623 9.48877 12.9004 9.51221 13.4488C9.52832 13.8243 9.55322 14.1895 9.57959 14.5635C9.65723 15.6723 9.73779 16.8461 9.56787 17.7671C9.47705 18.2608 9.34521 18.7176 9.17529 19.1375C9.00537 19.5544 8.79736 19.9387 8.55127 20.2891C8.43994 20.4473 8.47803 20.6661 8.63477 20.7784ZM11.5059 12.1878C11.4707 11.9971 11.5967 11.8138 11.7856 11.7798C11.9746 11.7443 12.1562 11.8715 12.1899 12.0622C12.3672 13.026 12.4521 14.0003 12.4551 14.9789C12.458 15.9531 12.3789 16.9318 12.2295 17.9119C12.2002 18.1026 12.0229 18.2342 11.8325 18.2046C11.6436 18.1751 11.5132 17.9962 11.5425 17.804C11.6875 16.8608 11.7637 15.9177 11.7607 14.9789C11.7578 14.0431 11.6758 13.1118 11.5059 12.1878ZM11.522 18.7457C11.3345 18.7028 11.1484 18.8226 11.1074 19.0118L10.8027 20.397C10.7603 20.5862 10.8789 20.774 11.0664 20.8154C11.2539 20.8582 11.4399 20.7385 11.481 20.5493L11.7856 19.1641C11.8281 18.9748 11.7095 18.7871 11.522 18.7457Z" fill="currentcolor"/>
<path d="M3.76123 14.1348L4.00333 14.0725L4.00329 14.0723L3.76123 14.1348ZM3.08887 14.3137L3.33097 14.2513L3.33096 14.2513L3.08887 14.3137ZM2.93945 13.6425L2.69351 13.6874L2.69375 13.6887L2.93945 13.6425ZM2.84277 12.9713L2.59404 12.9965L2.59414 12.9974L2.84277 12.9713ZM2.81055 12.5293L3.06038 12.5195L3.06018 12.5157L2.81055 12.5293ZM5.43555 5.661L5.61305 5.83704L5.61321 5.83688L5.43555 5.661ZM18.1665 5.64769L17.9893 5.82406V5.82406L18.1665 5.64769ZM17.6758 6.14589L17.4985 6.3222L17.4985 6.3222L17.6758 6.14589ZM5.92773 6.15772L5.75015 5.98175L5.75006 5.98184L5.92773 6.15772ZM3.50488 12.4968L3.75465 12.4859L3.7546 12.4849L3.50488 12.4968ZM3.53418 12.9004L3.28536 12.9248L3.28558 12.9268L3.53418 12.9004ZM3.62354 13.5168L3.37778 13.5627L3.37784 13.5631L3.62354 13.5168ZM7.5127 18.6304L7.30068 18.4979L7.30028 18.4986L7.5127 18.6304ZM8.1001 19.0044L7.88809 18.8719L7.88768 18.8726L8.1001 19.0044ZM7.39551 20.1398L7.60752 20.2723L7.60793 20.2716L7.39551 20.1398ZM6.80811 19.7658L7.02012 19.8982L7.02052 19.8976L6.80811 19.7658ZM4.69873 17.3206L4.86354 17.5086L4.86407 17.5081L4.69873 17.3206ZM5.06348 16.8904L5.27549 17.0229L5.2758 17.0224L5.06348 16.8904ZM5.31104 16.3405L5.07231 16.2662L5.07216 16.2667L5.31104 16.3405ZM5.28027 13.6869L5.03419 13.7309L5.03423 13.7312L5.28027 13.6869ZM5.27834 13.676L5.03225 13.7201L5.27834 13.676ZM5.1001 12.1657L4.8501 12.1641L4.8501 12.1642L5.1001 12.1657ZM8.88525 6.31885L8.77089 6.09655L8.77086 6.09656L8.88525 6.31885ZM11.7725 5.52351L11.7598 5.27383L11.7595 5.27385L11.7725 5.52351ZM14.6729 6.08676L14.5646 6.3121L14.5647 6.31213L14.6729 6.08676ZM18.8052 13.7209L19.0543 13.7001L19.0543 13.6997L18.8052 13.7209ZM19.1816 14.0431L19.2027 14.2922H19.2028L19.1816 14.0431ZM19.501 13.6632L19.7501 13.6425L19.7501 13.642L19.501 13.6632ZM14.9702 5.45107L15.0783 5.22567L15.0783 5.22563L14.9702 5.45107ZM11.7373 4.82278L11.7242 4.57313L11.7242 4.57313L11.7373 4.82278ZM8.56885 5.69352L8.68336 5.91575L8.68346 5.9157L8.56885 5.69352ZM4.40576 12.1642L4.65575 12.1661L4.65576 12.1657L4.40576 12.1642ZM4.59439 13.801L4.34833 13.8452L4.34833 13.8452L4.59439 13.801ZM4.59619 13.811L4.35013 13.8553L4.35014 13.8553L4.59619 13.811ZM4.59665 13.8136L4.84271 13.7694L4.8427 13.7693L4.59665 13.8136ZM4.646 16.1305L4.4073 16.0562L4.40723 16.0565L4.646 16.1305ZM4.47461 16.5149L4.26302 16.3817L4.26207 16.3833L4.47461 16.5149ZM4.24316 16.7899L4.07857 16.6017L4.07836 16.6019L4.24316 16.7899ZM5.72998 18.7531L5.56355 18.5665L5.56316 18.5669L5.72998 18.7531ZM5.23926 18.7235L5.05155 18.8887L5.05155 18.8887L5.23926 18.7235ZM6.86523 16.9229L7.10525 16.9929L7.10527 16.9928L6.86523 16.9229ZM7.01318 14.2841L6.76387 14.3047L6.76495 14.3137L7.01318 14.2841ZM7.00293 14.2309L6.75765 14.2804L6.76026 14.291L7.00293 14.2309ZM6.89014 11.7074L6.6426 11.6723L6.64259 11.6725L6.89014 11.7074ZM7.63867 9.69388L7.43184 9.55346L7.43155 9.55388L7.63867 9.69388ZM7.06445 9.29769L6.85762 9.15726L6.8572 9.15788L7.06445 9.29769ZM6.20166 11.6083L6.44918 11.6435L6.44922 11.6432L6.20166 11.6083ZM6.32178 14.3713L6.57006 14.3421L6.56887 14.3319L6.56684 14.3219L6.32178 14.3713ZM6.19727 16.7248L5.9573 16.6547L5.95728 16.6548L6.19727 16.7248ZM5.26855 18.2283L5.1024 18.0415L5.10173 18.0421L5.26855 18.2283ZM8.79443 8.04111L8.57758 8.16551H8.57758L8.79443 8.04111ZM9.27051 8.16972L9.14453 7.95378L9.14439 7.95387L9.27051 8.16972ZM8.92188 7.56065L8.79575 7.3448L8.92188 7.56065ZM10.1567 7.02106L10.0835 6.78202L10.0835 6.78204L10.1567 7.02106ZM13.7764 7.08167L13.8598 6.84601L13.8597 6.84596L13.7764 7.08167ZM16.7104 9.56083L16.4935 9.685L16.4937 9.68542L16.7104 9.56083ZM17.3052 10.9579L17.5446 10.8859L17.5446 10.8858L17.3052 10.9579ZM17.7549 13.4193L18.004 13.3979L18.004 13.3979L17.7549 13.4193ZM17.7681 16.3449L17.5186 16.3291L17.5181 16.337V16.3449H17.7681ZM17.7656 16.371L18.0123 16.4121L18.0131 16.4066L17.7656 16.371ZM17.7656 16.371L17.519 16.3299L17.5182 16.3356L17.7656 16.371ZM17.7651 16.3745L17.5174 16.339L17.5164 16.3495L17.7651 16.3745ZM17.522 18.796L17.2732 18.771L17.2732 18.7713L17.522 18.796ZM17.1411 19.1109L17.116 19.3596L17.1162 19.3596L17.1411 19.1109ZM16.8291 18.7265L16.5803 18.7015L16.5803 18.702L16.8291 18.7265ZM17.0723 16.302L17.321 16.327L17.3223 16.3145V16.302H17.0723ZM17.0723 16.3005L16.8228 16.2848L16.8223 16.2927V16.3005H17.0723ZM17.0591 13.4769L16.81 13.4981L16.81 13.4982L17.0591 13.4769ZM16.6401 11.1619L16.4006 11.2336L16.4007 11.2339L16.6401 11.1619ZM16.1084 9.91268L15.8914 10.0368L15.8914 10.0368L16.1084 9.91268ZM13.5479 7.74397L13.6313 7.50832L13.6312 7.50828L13.5479 7.74397ZM10.3589 7.69075L10.2857 7.45168L10.284 7.45224L10.3589 7.69075ZM8.50439 17.5098L8.25821 17.4663L8.25821 17.4663L8.50439 17.5098ZM8.65527 15.8851L8.90515 15.8931L8.90518 15.892L8.65527 15.8851ZM8.62012 13.9884L8.86972 13.9743L8.86968 13.9737L8.62012 13.9884ZM8.58789 13.4888L8.83729 13.4715L8.83728 13.4713L8.58789 13.4888ZM9.00977 10.6888L9.22822 10.8104L9.2287 10.8095L9.00977 10.6888ZM9.42871 10.1108L9.61154 10.2813L9.61168 10.2811L9.42871 10.1108ZM9.99121 9.64214L9.88234 9.41709L9.86799 9.42403L9.85464 9.43274L9.99121 9.64214ZM11.0342 9.25482L10.9743 9.01211L10.974 9.01217L11.0342 9.25482ZM12.0405 9.15134L12.054 8.9017L12.054 8.9017L12.0405 9.15134ZM12.4053 8.81871L12.6549 8.83193L12.4053 8.81871ZM12.0757 8.45061L12.0617 8.70022L12.0622 8.70024L12.0757 8.45061ZM10.8701 8.57331L10.9302 8.81598L10.9302 8.81597L10.8701 8.57331ZM9.68506 9.01237L9.77552 9.24543L9.78492 9.24178L9.79399 9.23739L9.68506 9.01237ZM9.63086 9.04046L9.76643 9.25057L9.77041 9.24789L9.63086 9.04046ZM8.40186 10.3458L8.18355 10.224L8.18351 10.2241L8.40186 10.3458ZM7.89355 13.539L8.14295 13.5217L8.14294 13.5214L7.89355 13.539ZM7.90247 13.6674L7.65307 13.6847L7.65308 13.6849L7.90247 13.6674ZM7.92578 14.0284L7.67611 14.0412L7.6762 14.0428L7.92578 14.0284ZM7.96094 15.8674L8.21083 15.8746L8.21084 15.8745L7.96094 15.8674ZM7.81885 17.3886L7.57267 17.345L7.57266 17.3451L7.81885 17.3886ZM13.2944 9.09812L13.5081 9.22784L13.5087 9.22699L13.2944 9.09812ZM13.4102 9.58005L13.2795 9.79322L13.2801 9.79357L13.4102 9.58005ZM13.772 8.98133L13.904 8.76905L13.9026 8.76816L13.772 8.98133ZM14.084 9.19569L13.9326 9.39467L13.9331 9.39502L14.084 9.19569ZM14.3799 9.44405L14.2107 9.62814L14.2109 9.62833L14.3799 9.44405ZM16.186 14.6626L16.436 14.6591L16.436 14.659L16.186 14.6626ZM15.5034 20.2669L15.2593 20.2128L15.2591 20.2139L15.5034 20.2669ZM15.0889 20.533L15.1446 20.2893L15.1428 20.2889L15.0889 20.533ZM14.8252 20.1146L15.0691 20.1694L15.0693 20.1687L14.8252 20.1146ZM15.4917 14.6699L15.2417 14.6735L15.2417 14.6736L15.4917 14.6699ZM13.9111 9.96294L13.7421 10.1472L13.7421 10.1472L13.9111 9.96294ZM13.6636 9.75597L13.5078 9.95155L13.5121 9.95489L13.6636 9.75597ZM9.11963 20.6941L9.32407 20.838L9.3243 20.8377L9.11963 20.6941ZM8.63477 20.7784L8.78042 20.5752L8.78042 20.5752L8.63477 20.7784ZM9.81836 19.408L10.05 19.5021L10.0501 19.5017L9.81836 19.408ZM10.252 17.9001L10.0061 17.8545L10.0061 17.8547L10.252 17.9001ZM10.2766 14.5392L10.526 14.522L10.2766 14.5392ZM10.2754 14.5221L10.026 14.5391L10.026 14.5393L10.2754 14.5221ZM10.2702 14.4459L10.5196 14.4289L10.5196 14.4289L10.2702 14.4459ZM10.208 13.4237L9.95822 13.4339L9.95825 13.4347L10.208 13.4237ZM10.2622 12.0208L10.0174 11.9703L10.0173 11.9703L10.2622 12.0208ZM10.8013 11.1205L10.9453 11.3248L10.9458 11.3245L10.8013 11.1205ZM11.0415 10.983L11.1482 11.2091L11.1496 11.2084L11.0415 10.983ZM11.3447 10.8706L11.414 11.1109L11.4145 11.1107L11.3447 10.8706ZM11.5908 10.813L11.5486 10.5666L11.5486 10.5666L11.5908 10.813ZM12.729 11.0953L12.894 10.9075L12.8939 10.9075L12.729 11.0953ZM13.3853 12.2721L13.6265 12.2063L13.6259 12.2044L13.3853 12.2721ZM13.4951 12.7673L13.7415 12.7247L13.7414 12.7245L13.4951 12.7673ZM13.5361 13.0497L13.2876 13.0766L13.2878 13.0786L13.5361 13.0497ZM13.5625 13.3409L13.313 13.3566L13.313 13.3572L13.5625 13.3409ZM13.4409 17.087L13.6894 17.1143L13.6894 17.1143L13.4409 17.087ZM12.7759 20.5434L12.5374 20.4684L12.537 20.4695L12.7759 20.5434ZM13.0029 20.9839L12.9261 21.2218L12.9278 21.2224L13.0029 20.9839ZM13.4395 20.7548L13.6778 20.8303L13.6779 20.8298L13.4395 20.7548ZM14.1353 17.1624L14.3838 17.1897L14.3838 17.1897L14.1353 17.1624ZM14.2598 13.2951L14.0103 13.3114L14.0103 13.3115L14.2598 13.2951ZM14.2305 12.9669L13.9819 12.9939L13.982 12.9943L14.2305 12.9669ZM14.1851 12.6446L14.4317 12.6039L14.4314 12.6021L14.1851 12.6446ZM14.0576 12.0755L14.2984 12.0081L14.2982 12.0074L14.0576 12.0755ZM13.189 10.5617L13.3542 10.3741L13.3542 10.374L13.189 10.5617ZM11.4736 10.1137L11.5157 10.3602L11.516 10.3601L11.4736 10.1137ZM11.1543 10.1876L11.2229 10.428L11.2231 10.428L11.1543 10.1876ZM10.4028 10.5395L10.2588 10.3352L10.2584 10.3355L10.4028 10.5395ZM9.57959 11.8729L9.82442 11.9235L9.82446 11.9234L9.57959 11.8729ZM9.51221 13.4488L9.26243 13.4595L9.26244 13.4596L9.51221 13.4488ZM9.57959 14.5635L9.82898 14.546L9.82897 14.5459L9.57959 14.5635ZM9.56787 17.7671L9.32202 17.7217L9.322 17.7218L9.56787 17.7671ZM9.17529 19.1375L9.4068 19.2318L9.40703 19.2313L9.17529 19.1375ZM8.55127 20.2891L8.75571 20.433L8.75585 20.4328L8.55127 20.2891ZM11.7856 11.7798L11.8299 12.0259L11.8318 12.0255L11.7856 11.7798ZM11.5059 12.1878L11.7517 12.1426L11.7517 12.1425L11.5059 12.1878ZM12.1899 12.0622L11.9437 12.1057L11.9441 12.1074L12.1899 12.0622ZM12.4551 14.9789L12.2051 14.9797V14.9797L12.4551 14.9789ZM12.2295 17.9119L12.4766 17.9499L12.4766 17.9496L12.2295 17.9119ZM11.8325 18.2046L11.7939 18.4516L11.7942 18.4517L11.8325 18.2046ZM11.5425 17.804L11.2954 17.766L11.2953 17.7663L11.5425 17.804ZM11.7607 14.9789L12.0107 14.9781V14.9781L11.7607 14.9789ZM11.1074 19.0118L11.3516 19.0655L11.3517 19.0648L11.1074 19.0118ZM11.522 18.7457L11.4662 18.9894L11.4681 18.9898L11.522 18.7457ZM10.8027 20.397L11.0467 20.4518L11.0469 20.4507L10.8027 20.397ZM11.0664 20.8154L11.1221 20.5717L11.1203 20.5712L11.0664 20.8154ZM11.481 20.5493L11.2368 20.4956L11.2366 20.4963L11.481 20.5493ZM11.7856 19.1641L11.5417 19.1093L11.5415 19.1104L11.7856 19.1641ZM3.57709 14.8053C3.90026 14.7206 4.08495 14.3894 4.00333 14.0725L3.51913 14.1971C3.53419 14.2556 3.49915 14.3089 3.45026 14.3217L3.57709 14.8053ZM2.84676 14.376C2.92974 14.6983 3.25748 14.8891 3.57709 14.8053L3.45026 14.3217C3.3978 14.3354 3.34467 14.3045 3.33097 14.2513L2.84676 14.376ZM2.69375 13.6887C2.73727 13.9204 2.78828 14.149 2.84677 14.376L3.33096 14.2513C3.27519 14.0348 3.2266 13.817 3.18516 13.5964L2.69375 13.6887ZM2.59414 12.9974C2.61826 13.2272 2.6514 13.4567 2.69352 13.6874L3.18539 13.5976C3.14548 13.3789 3.11416 13.162 3.09141 12.9452L2.59414 12.9974ZM2.56074 12.5391C2.56685 12.6949 2.57903 12.8481 2.59404 12.9965L3.09151 12.9462C3.07722 12.8049 3.06596 12.6624 3.06035 12.5195L2.56074 12.5391ZM2.54883 12.0829C2.54883 12.2225 2.55184 12.3764 2.56092 12.5429L3.06018 12.5157C3.05168 12.3599 3.04883 12.2153 3.04883 12.0829H2.54883ZM5.25804 5.48495C3.58433 7.17256 2.54883 9.50591 2.54883 12.0829H3.04883C3.04883 9.64237 4.02895 7.43429 5.61305 5.83704L5.25804 5.48495ZM11.7988 2.75C9.24326 2.75 6.93013 3.79595 5.25788 5.48511L5.61321 5.83688C7.19585 4.23824 9.38272 3.25 11.7988 3.25V2.75ZM18.3437 5.47133C16.6683 3.78812 14.3538 2.75 11.7988 2.75V3.25C14.2155 3.25 16.4039 4.23128 17.9893 5.82406L18.3437 5.47133ZM21.0488 12.0489C21.0488 9.47633 20.0162 7.15167 18.3437 5.47133L17.9893 5.82406C19.5717 7.41378 20.5488 9.61281 20.5488 12.0489H21.0488ZM20.4502 12.6507C20.7823 12.6507 21.0488 12.3784 21.0488 12.0489H20.5488C20.5488 12.1066 20.5019 12.1507 20.4502 12.1507V12.6507ZM19.8516 12.0489C19.8516 12.3784 20.1181 12.6507 20.4502 12.6507V12.1507C20.3985 12.1507 20.3516 12.1066 20.3516 12.0489H19.8516ZM17.4985 6.3222C18.952 7.78334 19.8516 9.805 19.8516 12.0489H20.3516C20.3516 9.66851 19.3966 7.52128 17.853 5.96958L17.4985 6.3222ZM11.7988 3.95369C14.0266 3.95369 16.0407 4.85668 17.4985 6.3222L17.853 5.96958C16.305 4.41339 14.1648 3.45369 11.7988 3.45369V3.95369ZM6.10532 6.33368C7.56345 4.86213 9.57604 3.95369 11.7988 3.95369V3.45369C9.43666 3.45369 7.29788 4.41977 5.75015 5.98175L6.10532 6.33368ZM3.74609 12.0829C3.74609 9.83756 4.64855 7.8053 6.10541 6.33359L5.75006 5.98184C4.20399 7.54367 3.24609 9.70099 3.24609 12.0829H3.74609ZM3.7546 12.4849C3.74897 12.367 3.74609 12.2336 3.74609 12.0829H3.24609C3.24609 12.2397 3.24908 12.3812 3.25517 12.5087L3.7546 12.4849ZM3.78299 12.876C3.77015 12.745 3.76027 12.6151 3.75465 12.4859L3.25512 12.5077C3.26121 12.6476 3.27184 12.7867 3.28537 12.9248L3.78299 12.876ZM3.86929 13.471C3.83252 13.274 3.80413 13.075 3.78278 12.874L3.28558 12.9268C3.30818 13.1397 3.33838 13.3517 3.37778 13.5627L3.86929 13.471ZM4.00329 14.0723C3.95052 13.8679 3.90631 13.6679 3.86923 13.4706L3.37784 13.5631C3.41693 13.7709 3.46354 13.9818 3.51917 14.1973L4.00329 14.0723ZM8.12593 18.3101C7.84549 18.1316 7.47639 18.2167 7.30068 18.4979L7.72471 18.7629C7.75408 18.7159 7.81271 18.7034 7.85747 18.7319L8.12593 18.3101ZM8.31211 19.1369C8.48683 18.8573 8.40522 18.4878 8.12593 18.3101L7.85747 18.7319C7.90338 18.7611 7.91845 18.8234 7.88809 18.8719L8.31211 19.1369ZM7.60793 20.2716L8.31252 19.1362L7.88768 18.8726L7.18309 20.0079L7.60793 20.2716ZM6.78227 20.4601C7.06271 20.6386 7.43181 20.5534 7.60752 20.2723L7.1835 20.0073C7.15413 20.0543 7.09549 20.0667 7.05073 20.0383L6.78227 20.4601ZM6.59609 19.6333C6.42137 19.9129 6.50299 20.2823 6.78227 20.4601L7.05073 20.0383C7.00483 20.009 6.98976 19.9468 7.02012 19.8982L6.59609 19.6333ZM7.30028 18.4986L6.59569 19.6339L7.02052 19.8976L7.72511 18.7622L7.30028 18.4986ZM4.53393 17.1326C4.4943 17.1673 4.4336 17.164 4.39748 17.122L4.01853 17.4482C4.23437 17.699 4.61312 17.7281 4.86354 17.5086L4.53393 17.1326ZM4.85147 16.7579C4.76199 16.9011 4.65477 17.0261 4.53339 17.1331L4.86407 17.5081C5.02101 17.3697 5.15989 17.2079 5.27549 17.0229L4.85147 16.7579ZM5.07216 16.2667C5.01512 16.4515 4.94027 16.615 4.85115 16.7584L5.2758 17.0224C5.38883 16.8405 5.48097 16.6375 5.54991 16.4142L5.07216 16.2667ZM5.03423 13.7312C5.19389 14.6174 5.33419 15.4241 5.07231 16.2662L5.54976 16.4147C5.85331 15.4385 5.68306 14.5126 5.52631 13.6425L5.03423 13.7312ZM5.03225 13.7201L5.03419 13.7309L5.52636 13.6428L5.52442 13.632L5.03225 13.7201ZM4.8501 12.1642C4.84704 12.6902 4.94284 13.221 5.03225 13.7201L5.52442 13.632C5.43345 13.1241 5.34734 12.6392 5.35009 12.1671L4.8501 12.1642ZM8.77086 6.09656C6.56718 7.23065 4.8669 9.44328 4.8501 12.1641L5.35009 12.1672C5.36553 9.66656 6.92892 7.60681 8.99965 6.54114L8.77086 6.09656ZM11.7595 5.27385C10.7272 5.32755 9.7026 5.61724 8.77089 6.09655L8.99962 6.54116C9.87259 6.09207 10.8285 5.82296 11.7854 5.77317L11.7595 5.27385ZM14.7811 5.86141C13.8229 5.40107 12.7861 5.22166 11.7598 5.27383L11.7852 5.77319C12.7363 5.72484 13.6888 5.89135 14.5646 6.3121L14.7811 5.86141ZM19.0543 13.6997C18.6876 9.38687 16.9644 6.90952 14.781 5.86138L14.5647 6.31213C16.5386 7.25974 18.1991 9.54262 18.5561 13.742L19.0543 13.6997ZM19.1605 13.794C19.1097 13.7983 19.0592 13.7594 19.0543 13.7001L18.556 13.7416C18.5833 14.0696 18.8698 14.3205 19.2027 14.2922L19.1605 13.794ZM19.2518 13.6839C19.2566 13.7411 19.2141 13.7895 19.1605 13.794L19.2028 14.2922C19.533 14.2643 19.7776 13.9727 19.7501 13.6425L19.2518 13.6839ZM14.8621 5.67648C17.0464 6.72431 18.8703 9.19722 19.2519 13.6844L19.7501 13.642C19.3582 9.0345 17.4673 6.37168 15.0783 5.22567L14.8621 5.67648ZM11.7504 5.07244C12.8122 5.01679 13.879 5.20523 14.8622 5.67651L15.0783 5.22563C14.0136 4.71531 12.8626 4.51346 11.7242 4.57313L11.7504 5.07244ZM8.68346 5.9157C9.63936 5.4226 10.6918 5.12814 11.7504 5.07244L11.7242 4.57313C10.5914 4.63273 9.47002 4.94735 8.45424 5.47134L8.68346 5.9157ZM4.65576 12.1657C4.67267 9.37736 6.40106 7.09182 8.68336 5.91575L8.45433 5.47129C6.03741 6.71673 4.17401 9.15593 4.15577 12.1627L4.65576 12.1657ZM4.84045 13.7568C4.74374 13.2186 4.6516 12.7018 4.65575 12.1661L4.15577 12.1622C4.15119 12.7519 4.25285 13.3138 4.34833 13.8452L4.84045 13.7568ZM4.84225 13.7668L4.84045 13.7568L4.34833 13.8452L4.35013 13.8553L4.84225 13.7668ZM4.8427 13.7693L4.84225 13.7668L4.35014 13.8553L4.35059 13.8578L4.8427 13.7693ZM4.88469 16.2049C5.13866 15.3892 4.98241 14.547 4.84271 13.7694L4.35059 13.8578C4.49475 14.6602 4.61865 15.3774 4.4073 16.0562L4.88469 16.2049ZM4.6862 16.6481C4.76872 16.5169 4.83418 16.3677 4.88477 16.2046L4.40723 16.0565C4.36699 16.1861 4.31819 16.2941 4.26302 16.3817L4.6862 16.6481ZM4.40775 16.9781C4.51507 16.8842 4.60867 16.7733 4.68715 16.6465L4.26207 16.3833C4.20872 16.4694 4.14703 16.5418 4.07857 16.6017L4.40775 16.9781ZM4.39748 17.122C4.36138 17.0801 4.36567 17.0149 4.40797 16.9779L4.07836 16.6019C3.83062 16.8191 3.80268 17.1974 4.01853 17.4482L4.39748 17.122ZM19.1465 14.522C18.815 14.522 18.5479 14.7921 18.5479 15.1238H19.0479C19.0479 15.0652 19.0941 15.022 19.1465 15.022V14.522ZM19.7451 15.1238C19.7451 14.7942 19.4786 14.522 19.1465 14.522V15.022C19.1982 15.022 19.2451 15.066 19.2451 15.1238H19.7451ZM19.7451 16.5992V15.1238H19.2451V16.5992H19.7451ZM19.1465 17.201C19.4779 17.201 19.7451 16.9309 19.7451 16.5992H19.2451C19.2451 16.6577 19.1988 16.701 19.1465 16.701V17.201ZM18.5479 16.5992C18.5479 16.9287 18.8144 17.201 19.1465 17.201V16.701C19.0948 16.701 19.0479 16.6569 19.0479 16.5992H18.5479ZM18.5479 15.1238V16.5992H19.0479V15.1238H18.5479ZM5.56316 18.5669C5.52341 18.6025 5.46291 18.5993 5.42697 18.5584L5.05155 18.8887C5.27049 19.1376 5.64944 19.1609 5.8968 18.9393L5.56316 18.5669ZM6.62522 16.853C6.41817 17.5634 6.05771 18.1257 5.56355 18.5665L5.89641 18.9397C6.4628 18.4344 6.87285 17.7903 7.10525 16.9929L6.62522 16.853ZM6.76495 14.3137C6.88503 15.3193 6.82753 16.1579 6.6252 16.8531L7.10527 16.9928C7.33067 16.2184 7.38743 15.3097 7.26142 14.2545L6.76495 14.3137ZM6.76026 14.291C6.76141 14.2956 6.76222 14.2989 6.76294 14.3019C6.76363 14.3049 6.76405 14.3068 6.76432 14.308C6.76489 14.3108 6.7644 14.3091 6.76403 14.3047L7.26234 14.2635C7.25893 14.2223 7.24907 14.1848 7.24559 14.1708L6.76026 14.291ZM6.64259 11.6725C6.53107 12.4634 6.5672 13.3364 6.75788 14.2804L7.24798 14.1814C7.06659 13.2834 7.03534 12.4681 7.13769 11.7423L6.64259 11.6725ZM7.43155 9.55388C7.02153 10.1605 6.75579 10.8727 6.6426 11.6723L7.13767 11.7424C7.24128 11.0105 7.48237 10.3715 7.84579 9.83389L7.43155 9.55388ZM7.40566 9.41166C7.4509 9.44294 7.46321 9.50725 7.43184 9.55346L7.84551 9.83431C8.03093 9.5612 7.96121 9.18792 7.69004 9.00041L7.40566 9.41166ZM7.27129 9.43812C7.30249 9.39216 7.36292 9.3821 7.40566 9.41166L7.69004 9.00041C7.41638 8.81117 7.04322 8.8839 6.85762 9.15726L7.27129 9.43812ZM6.44922 11.6432C6.56737 10.8042 6.84771 10.066 7.2717 9.4375L6.8572 9.15788C6.38764 9.85394 6.08204 10.665 5.9541 11.5735L6.44922 11.6432ZM6.56684 14.3219C6.36937 13.3428 6.33514 12.4463 6.44918 11.6435L5.95414 11.5732C5.83088 12.4409 5.86989 13.3952 6.07671 14.4207L6.56684 14.3219ZM6.43723 16.795C6.63671 16.1124 6.68262 15.2978 6.57006 14.3421L6.07349 14.4006C6.18066 15.3105 6.13282 16.0541 5.9573 16.6547L6.43723 16.795ZM5.43471 18.4151C5.90387 17.9978 6.24321 17.4598 6.43725 16.7949L5.95728 16.6548C5.78804 17.2347 5.49749 17.6901 5.1024 18.0415L5.43471 18.4151ZM5.42697 18.5584C5.39007 18.5165 5.39407 18.4515 5.43538 18.4145L5.10173 18.0421C4.85593 18.2623 4.83356 18.6408 5.05155 18.8887L5.42697 18.5584ZM8.57758 8.16551C8.7425 8.45298 9.10827 8.55406 9.39663 8.38558L9.14439 7.95387C9.09876 7.98053 9.03973 7.9663 9.01128 7.91671L8.57758 8.16551ZM8.79575 7.3448C8.50983 7.51185 8.41281 7.87828 8.57758 8.16551L9.01129 7.91671C8.9827 7.86688 8.99993 7.80459 9.048 7.77651L8.79575 7.3448ZM10.0835 6.78204C9.63643 6.91908 9.20261 7.10708 8.79575 7.3448L9.048 7.77651C9.42044 7.5589 9.81865 7.38618 10.23 7.26008L10.0835 6.78204ZM13.8597 6.84596C12.6439 6.41637 11.3102 6.40633 10.0835 6.78202L10.23 7.2601C11.3588 6.91436 12.5827 6.92503 13.6931 7.31739L13.8597 6.84596ZM16.9274 9.43667C16.182 8.13409 15.0836 7.27937 13.8598 6.84601L13.6929 7.31733C14.807 7.71184 15.8092 8.4892 16.4935 9.685L16.9274 9.43667ZM17.5446 10.8858C17.3841 10.3527 17.1761 9.86923 16.9272 9.43625L16.4937 9.68542C16.7224 10.0833 16.9157 10.5312 17.0658 11.0299L17.5446 10.8858ZM18.004 13.3979C17.9251 12.4802 17.7715 11.641 17.5446 10.8859L17.0657 11.0298C17.2813 11.7471 17.4294 12.5518 17.5058 13.4407L18.004 13.3979ZM18.0176 16.3607C18.0856 15.2892 18.0814 14.3009 18.004 13.3979L17.5058 13.4406C17.5807 14.3147 17.5853 15.2777 17.5186 16.3291L18.0176 16.3607ZM18.0131 16.4066C18.0141 16.3995 18.0181 16.3745 18.0181 16.3449H17.5181C17.5181 16.3388 17.5185 16.3341 17.5187 16.3319C17.5188 16.331 17.5189 16.3306 17.5188 16.3312C17.5187 16.332 17.5185 16.333 17.5182 16.3354L18.0131 16.4066ZM18.0122 16.4121L18.0122 16.4121L17.519 16.3299L17.519 16.3299L18.0122 16.4121ZM18.0126 16.4099L18.0131 16.4065L17.5182 16.3356L17.5177 16.339L18.0126 16.4099ZM17.7707 18.8209L18.0139 16.3994L17.5164 16.3495L17.2732 18.771L17.7707 18.8209ZM17.1162 19.3596C17.4485 19.3929 17.7384 19.1473 17.7708 18.8206L17.2732 18.7713C17.2675 18.829 17.2175 18.8673 17.166 18.8621L17.1162 19.3596ZM16.5803 18.702C16.5479 19.0316 16.7872 19.3264 17.116 19.3596L17.1662 18.8621C17.1142 18.8569 17.0722 18.8087 17.0779 18.751L16.5803 18.702ZM16.8235 16.2771L16.5803 18.7015L17.0779 18.7514L17.321 16.327L16.8235 16.2771ZM16.8223 16.3005V16.302H17.3223V16.3005H16.8223ZM16.81 13.4982C16.882 14.3428 16.8866 15.2734 16.8228 16.2848L17.3218 16.3163C17.3869 15.2847 17.3826 14.3289 17.3082 13.4557L16.81 13.4982ZM16.4007 11.2339C16.6 11.896 16.7379 12.6517 16.81 13.4981L17.3082 13.4557C17.2337 12.5814 17.0905 11.7908 16.8795 11.0898L16.4007 11.2339ZM15.8914 10.0368C16.0956 10.3939 16.2683 10.7917 16.4006 11.2336L16.8796 11.0901C16.7366 10.6125 16.5489 10.1795 16.3254 9.78858L15.8914 10.0368ZM13.4644 7.97961C14.4273 8.32078 15.2963 8.99595 15.8914 10.0368L16.3254 9.78859C15.6696 8.64148 14.7046 7.88857 13.6313 7.50832L13.4644 7.97961ZM10.432 7.9298C11.4218 7.62689 12.4934 7.63614 13.4645 7.97965L13.6312 7.50828C12.5545 7.12741 11.3731 7.11892 10.2857 7.45169L10.432 7.9298ZM9.39648 8.38566C9.72667 8.19304 10.0742 8.04223 10.4338 7.92925L10.284 7.45224C9.89067 7.57579 9.50868 7.74134 9.14453 7.95378L9.39648 8.38566ZM8.25821 17.4663C8.24789 17.5247 8.1947 17.5579 8.14584 17.5491L8.05729 18.0412C8.38636 18.1004 8.69351 17.8763 8.75058 17.5533L8.25821 17.4663ZM8.4054 15.8772C8.38659 16.47 8.34043 17.0013 8.25821 17.4663L8.75058 17.5534C8.83828 17.0574 8.88587 16.5007 8.90515 15.8931L8.4054 15.8772ZM8.37052 14.0026C8.4083 14.6683 8.42125 15.2968 8.40537 15.8783L8.90518 15.892C8.92152 15.2937 8.90811 14.6509 8.86972 13.9743L8.37052 14.0026ZM8.33849 13.5061C8.3487 13.6533 8.3589 13.8062 8.37055 14.0032L8.86968 13.9737C8.8579 13.7745 8.84759 13.6199 8.83729 13.4715L8.33849 13.5061ZM8.79131 10.5672C8.20395 11.6228 8.26823 12.5015 8.3385 13.5062L8.83728 13.4713C8.76693 12.4655 8.71987 11.7239 9.22822 10.8104L8.79131 10.5672ZM9.24588 9.94027C9.06775 10.1313 8.91647 10.3402 8.79083 10.5681L9.2287 10.8095C9.33451 10.6176 9.46155 10.4421 9.61154 10.2813L9.24588 9.94027ZM9.85464 9.43274C9.6236 9.58343 9.42024 9.753 9.24574 9.94041L9.61168 10.2811C9.75651 10.1256 9.92815 9.98174 10.1278 9.85154L9.85464 9.43274ZM10.974 9.01217C10.6142 9.10137 10.2492 9.23961 9.88234 9.41709L10.1001 9.86719C10.4422 9.7017 10.7744 9.5768 11.0943 9.49747L10.974 9.01217ZM12.054 8.9017C11.6964 8.88245 11.3361 8.92277 10.9743 9.01211L11.0941 9.49753C11.4149 9.41834 11.7255 9.38474 12.0271 9.40098L12.054 8.9017ZM12.1556 8.80549C12.1525 8.86517 12.104 8.90439 12.054 8.9017L12.0271 9.40097C12.3609 9.41898 12.6376 9.15958 12.6549 8.83193L12.1556 8.80549ZM12.0622 8.70024C12.116 8.70315 12.1586 8.74929 12.1556 8.80549L12.6549 8.83193C12.6725 8.50081 12.4191 8.21877 12.0891 8.20097L12.0622 8.70024ZM10.9302 8.81597C11.3152 8.72061 11.6929 8.67962 12.0617 8.70022L12.0896 8.201C11.6645 8.17725 11.2366 8.22496 10.81 8.33065L10.9302 8.81597ZM9.79399 9.23739C10.1785 9.05126 10.5561 8.90862 10.9302 8.81598L10.81 8.33064C10.3961 8.43314 9.9856 8.58912 9.57612 8.78736L9.79399 9.23739ZM9.77041 9.24789C9.77108 9.24744 9.77148 9.24721 9.77185 9.24702C9.77227 9.24681 9.77334 9.24628 9.77552 9.24543L9.5946 8.77931C9.56013 8.79269 9.5258 8.80983 9.49131 8.83304L9.77041 9.24789ZM9.10428 9.80128C9.29533 9.59745 9.51542 9.41247 9.7664 9.25053L9.49532 8.83039C9.21017 9.01438 8.95858 9.22559 8.73947 9.45935L9.10428 9.80128ZM8.62016 10.4677C8.75453 10.2269 8.91411 10.0042 9.10428 9.80128L8.73947 9.45935C8.51948 9.69406 8.3363 9.9503 8.18355 10.224L8.62016 10.4677ZM8.14294 13.5214C8.06404 12.4023 8.00873 11.5642 8.6202 10.4676L8.18351 10.2241C7.4942 11.4603 7.56487 12.4316 7.64417 13.5566L8.14294 13.5214ZM8.15187 13.6501L8.14295 13.5217L7.64416 13.5563L7.65307 13.6847L8.15187 13.6501ZM8.17545 14.0155C8.16981 13.9061 8.16082 13.7779 8.15186 13.65L7.65308 13.6849C7.66214 13.8142 7.67076 13.9374 7.67611 14.0412L8.17545 14.0155ZM8.21084 15.8745C8.2272 15.3025 8.21376 14.6786 8.17536 14.0139L7.6762 14.0428C7.71397 14.6967 7.7269 15.3058 7.71104 15.8602L8.21084 15.8745ZM8.06502 17.4322C8.14826 16.9618 8.19447 16.4391 8.21083 15.8746L7.71104 15.8602C7.69518 16.4074 7.65057 16.9048 7.57267 17.345L8.06502 17.4322ZM8.14584 17.5491C8.09254 17.5395 8.0553 17.4872 8.06504 17.4321L7.57266 17.3451C7.51502 17.6714 7.73266 17.9828 8.05729 18.0412L8.14584 17.5491ZM13.0807 8.96839C12.9105 9.24883 12.9968 9.61995 13.2795 9.79322L13.5408 9.36689C13.4954 9.3391 13.4792 9.2756 13.5081 9.22784L13.0807 8.96839ZM13.9026 8.76816C13.6204 8.59524 13.2516 8.68441 13.0802 8.96924L13.5087 9.22699C13.5365 9.18067 13.5954 9.16636 13.6414 9.19449L13.9026 8.76816ZM14.2353 8.9967C14.1275 8.91466 14.017 8.8393 13.904 8.76905L13.6399 9.1936C13.7409 9.2564 13.8384 9.32297 13.9326 9.39467L14.2353 8.9967ZM14.549 9.25996C14.4459 9.1652 14.3417 9.07719 14.2349 8.99635L13.9331 9.39502C14.0255 9.46497 14.1176 9.54254 14.2107 9.62814L14.549 9.25996ZM16.436 14.659C16.4064 12.5922 15.9537 10.5477 14.5488 9.25977L14.2109 9.62833C15.4604 10.7737 15.9071 12.6409 15.9361 14.6661L16.436 14.659ZM15.7475 20.321C16.0887 18.7819 16.4642 16.681 16.436 14.6591L15.9361 14.666C15.9635 16.6297 15.5978 18.6859 15.2593 20.2128L15.7475 20.321ZM15.0331 20.7767C15.3585 20.8511 15.6777 20.6429 15.7477 20.3199L15.2591 20.2139C15.2471 20.2694 15.1942 20.3006 15.1446 20.2893L15.0331 20.7767ZM14.5813 20.0599C14.5088 20.3825 14.7107 20.7055 15.035 20.7771L15.1428 20.2889C15.0921 20.2777 15.0566 20.2252 15.0691 20.1694L14.5813 20.0599ZM15.2417 14.6736C15.2691 16.5689 14.9109 18.5701 14.5811 20.0606L15.0693 20.1687C15.4016 18.667 15.7699 16.6206 15.7417 14.6663L15.2417 14.6736ZM13.7421 10.1472C14.8215 11.1374 15.2156 12.8188 15.2417 14.6735L15.7417 14.6664C15.7151 12.778 15.3181 10.9144 14.0801 9.77871L13.7421 10.1472ZM13.5121 9.95489C13.5898 10.014 13.6674 10.0786 13.7421 10.1472L14.0801 9.77872C13.9938 9.69947 13.9044 9.6251 13.815 9.55706L13.5121 9.95489ZM13.2801 9.79357C13.3578 9.8409 13.4339 9.89264 13.5078 9.9515L13.8194 9.56045C13.7262 9.48626 13.6324 9.42269 13.5402 9.36653L13.2801 9.79357ZM8.91519 20.5503C8.88236 20.5969 8.82221 20.6052 8.78042 20.5752L8.48911 20.9816C8.7608 21.1764 9.13424 21.1078 9.32407 20.838L8.91519 20.5503ZM9.58676 19.3139C9.40623 19.7579 9.18083 20.1715 8.91496 20.5506L9.3243 20.8377C9.61214 20.4273 9.85549 19.9805 10.05 19.5021L9.58676 19.3139ZM10.0061 17.8547C9.90937 18.3788 9.76888 18.8636 9.5866 19.3143L10.0501 19.5017C10.2458 19.0181 10.3953 18.5006 10.4978 17.9455L10.0061 17.8547ZM10.0272 14.5563C10.1065 15.7105 10.1858 16.8858 10.0061 17.8545L10.4978 17.9457C10.6913 16.9021 10.6041 15.6581 10.526 14.522L10.0272 14.5563ZM10.026 14.5393L10.0272 14.5563L10.526 14.522L10.5248 14.505L10.026 14.5393ZM10.0208 14.4629L10.026 14.5391L10.5248 14.5051L10.5196 14.4289L10.0208 14.4629ZM9.95825 13.4347C9.97209 13.7491 9.99624 14.103 10.0208 14.4629L10.5196 14.4289C10.495 14.0674 10.4713 13.7199 10.4578 13.4127L9.95825 13.4347ZM10.0173 11.9703C9.92528 12.4173 9.93786 12.9364 9.95822 13.4339L10.4578 13.4135C10.4371 12.9087 10.4292 12.4492 10.5071 12.0712L10.0173 11.9703ZM10.6572 10.9161C10.2829 11.18 10.1017 11.5611 10.0174 11.9703L10.5071 12.0712C10.5751 11.7413 10.7073 11.4926 10.9453 11.3248L10.6572 10.9161ZM10.9348 10.7569C10.8338 10.8046 10.74 10.8575 10.6567 10.9165L10.9458 11.3245C11.0002 11.2859 11.0676 11.2471 11.1482 11.2091L10.9348 10.7569ZM11.2755 10.6304C11.1528 10.6658 11.0381 10.7073 10.9334 10.7576L11.1496 11.2084C11.2236 11.1729 11.311 11.1405 11.414 11.1108L11.2755 10.6304ZM11.5486 10.5666C11.4604 10.5817 11.3692 10.6032 11.2749 10.6306L11.4145 11.1107C11.4931 11.0878 11.5659 11.0709 11.633 11.0594L11.5486 10.5666ZM12.8939 10.9075C12.5515 10.6069 12.1003 10.4721 11.5486 10.5666L11.633 11.0594C12.0481 10.9883 12.344 11.09 12.5641 11.2832L12.8939 10.9075ZM13.6259 12.2044C13.4817 11.6919 13.2497 11.2199 12.894 10.9075L12.564 11.2832C12.8177 11.5059 13.0134 11.8736 13.1446 12.3398L13.6259 12.2044ZM13.7414 12.7245C13.7108 12.5486 13.6725 12.3754 13.6264 12.2063L13.1441 12.3379C13.1859 12.4911 13.2208 12.649 13.2488 12.8102L13.7414 12.7245ZM13.7847 13.0228C13.7736 12.9208 13.758 12.8205 13.7415 12.7247L13.2488 12.81C13.2644 12.9004 13.2781 12.9893 13.2876 13.0766L13.7847 13.0228ZM13.812 13.3252C13.8059 13.2274 13.7967 13.1254 13.7845 13.0207L13.2878 13.0786C13.299 13.175 13.3074 13.2682 13.313 13.3566L13.812 13.3252ZM13.6894 17.1143C13.8356 15.7806 13.8835 14.4188 13.812 13.3246L13.313 13.3572C13.3822 14.4155 13.3363 15.7472 13.1924 17.0598L13.6894 17.1143ZM13.0144 20.6183C13.3198 19.6467 13.5493 18.3904 13.6894 17.1143L13.1924 17.0597C13.0543 18.3175 12.8296 19.5389 12.5374 20.4684L13.0144 20.6183ZM13.0798 20.746C13.0285 20.7295 12.9975 20.6729 13.0147 20.6172L12.537 20.4695C12.44 20.7834 12.6111 21.1201 12.9261 21.2218L13.0798 20.746ZM13.2011 20.6792C13.1837 20.7342 13.1279 20.7612 13.078 20.7454L12.9278 21.2224C13.2441 21.3219 13.578 21.1449 13.6778 20.8303L13.2011 20.6792ZM13.8868 17.1351C13.7442 18.4309 13.5094 19.6997 13.201 20.6797L13.6779 20.8298C13.9994 19.8082 14.2391 18.5047 14.3838 17.1897L13.8868 17.1351ZM14.0103 13.3115C14.0824 14.4082 14.035 15.7842 13.8867 17.1351L14.3838 17.1897C14.5343 15.8175 14.5837 14.4114 14.5092 13.2787L14.0103 13.3115ZM13.982 12.9943C13.9934 13.098 14.0033 13.2036 14.0103 13.3114L14.5092 13.2788C14.5016 13.1619 14.491 13.0487 14.479 12.9396L13.982 12.9943ZM13.9384 12.6854C13.9556 12.7895 13.9709 12.8924 13.9819 12.9939L14.479 12.9399C14.4666 12.8256 14.4497 12.7127 14.4317 12.6039L13.9384 12.6854ZM13.8169 12.1428C13.8657 12.3174 13.9063 12.4998 13.9387 12.6872L14.4314 12.6021C14.3964 12.3992 14.3521 12.2002 14.2984 12.0081L13.8169 12.1428ZM13.0237 10.7493C13.39 11.0719 13.652 11.5606 13.8171 12.1436L14.2982 12.0074C14.1175 11.3693 13.8171 10.7818 13.3542 10.3741L13.0237 10.7493ZM11.516 10.3601C12.1565 10.2499 12.6452 10.416 13.0238 10.7493L13.3542 10.374C12.8596 9.93858 12.2175 9.73212 11.4313 9.86735L11.516 10.3601ZM11.2231 10.428C11.3242 10.399 11.4221 10.3761 11.5157 10.3602L11.4316 9.86729C11.3172 9.88681 11.2012 9.91416 11.0855 9.94731L11.2231 10.428ZM10.855 10.5653C10.9689 10.5126 11.0915 10.4656 11.2229 10.428L11.0857 9.94725C10.9271 9.99252 10.7801 10.049 10.645 10.1116L10.855 10.5653ZM10.5469 10.7438C10.6423 10.6766 10.745 10.6163 10.855 10.5653L10.645 10.1116C10.506 10.1759 10.3773 10.2516 10.2588 10.3352L10.5469 10.7438ZM9.82446 11.9234C9.92501 11.4349 10.1355 11.0351 10.5473 10.7435L10.2584 10.3355C9.71803 10.718 9.45389 11.2437 9.33472 11.8225L9.82446 11.9234ZM9.76198 13.4382C9.73849 12.8884 9.73035 12.3789 9.82442 11.9235L9.33476 11.8224C9.22668 12.3456 9.23905 12.9123 9.26243 13.4595L9.76198 13.4382ZM9.82897 14.5459C9.80261 14.1719 9.77793 13.8098 9.76198 13.4381L9.26244 13.4596C9.27871 13.8388 9.30384 14.207 9.33021 14.5811L9.82897 14.5459ZM9.81372 17.8124C9.9906 16.8537 9.90592 15.6448 9.82898 14.546L9.3302 14.581C9.40853 15.6997 9.48498 16.8384 9.32202 17.7217L9.81372 17.8124ZM9.40703 19.2313C9.58376 18.7946 9.7201 18.3214 9.81375 17.8123L9.322 17.7218C9.234 18.2002 9.10667 18.6406 8.94355 19.0437L9.40703 19.2313ZM8.75585 20.4328C9.01336 20.0662 9.2302 19.6651 9.4068 19.2318L8.94379 19.0431C8.78054 19.4436 8.58137 19.8113 8.34669 20.1454L8.75585 20.4328ZM8.78042 20.5752C8.73435 20.5422 8.72397 20.4781 8.75571 20.433L8.34683 20.1452C8.15591 20.4165 8.2217 20.7899 8.48912 20.9816L8.78042 20.5752ZM11.7414 11.5338C11.4143 11.5926 11.2001 11.908 11.26 12.2332L11.7517 12.1425C11.7413 12.0862 11.779 12.035 11.8299 12.0259L11.7414 11.5338ZM12.4361 12.0187C12.3786 11.6932 12.0674 11.4725 11.7395 11.5341L11.8318 12.0255C11.8818 12.0161 11.9339 12.0497 11.9438 12.1057L12.4361 12.0187ZM12.7051 14.9782C12.7021 13.9855 12.6159 12.9964 12.4358 12.017L11.9441 12.1074C12.1185 13.0557 12.2022 14.015 12.2051 14.9797L12.7051 14.9782ZM12.4766 17.9496C12.6278 16.958 12.708 15.9664 12.7051 14.9782L12.2051 14.9797C12.208 15.9399 12.13 16.9056 11.9823 17.8743L12.4766 17.9496ZM11.7942 18.4517C12.1231 18.5028 12.4266 18.2753 12.4766 17.9499L11.9824 17.874C11.9738 17.93 11.9228 17.9657 11.8709 17.9576L11.7942 18.4517ZM11.2953 17.7663C11.2456 18.0925 11.4668 18.4005 11.7939 18.4516L11.8712 17.9576C11.8203 17.9497 11.7808 17.8999 11.7896 17.8417L11.2953 17.7663ZM11.5107 14.9797C11.5136 15.9044 11.4386 16.8346 11.2954 17.766L11.7896 17.842C11.9364 16.8871 12.0137 15.9309 12.0107 14.9781L11.5107 14.9797ZM11.26 12.233C11.4271 13.1416 11.5079 14.0581 11.5107 14.9797L12.0107 14.9781C12.0078 14.0282 11.9245 13.082 11.7517 12.1426L11.26 12.233ZM11.3517 19.0648C11.3638 19.0093 11.4166 18.9781 11.4662 18.9894L11.5777 18.502C11.2523 18.4276 10.9331 18.6358 10.8631 18.9588L11.3517 19.0648ZM11.0469 20.4507L11.3516 19.0655L10.8633 18.9581L10.5586 20.3433L11.0469 20.4507ZM11.1203 20.5712C11.0696 20.5601 11.0341 20.5076 11.0467 20.4518L10.5588 20.3422C10.4864 20.6649 10.6882 20.9879 11.0125 21.0595L11.1203 20.5712ZM11.2366 20.4963C11.2246 20.5517 11.1718 20.583 11.1221 20.5717L11.0107 21.0591C11.3361 21.1335 11.6553 20.9253 11.7253 20.6022L11.2366 20.4963ZM11.5415 19.1104L11.2368 20.4956L11.7251 20.603L12.0298 19.2178L11.5415 19.1104ZM11.4681 18.9898C11.5188 19.001 11.5542 19.0535 11.5417 19.1093L12.0296 19.2188C12.102 18.8962 11.9002 18.5732 11.5759 18.5016L11.4681 18.9898Z" fill="currentcolor"/>
</svg>
