<svg width="24" height="24" viewBox="0 0 24 24" fill="none" xmlns="http://www.w3.org/2000/svg">
<path fill-rule="evenodd" clip-rule="evenodd" d="M3.76123 14.1348C3.80957 14.3225 3.69971 14.5147 3.51367 14.5635C3.32764 14.6123 3.13721 14.5014 3.08887 14.3137C3.03174 14.0919 2.98193 13.8687 2.93945 13.6425C2.89844 13.4178 2.86621 13.1946 2.84277 12.9713C2.82812 12.8265 2.81641 12.6786 2.81055 12.5293C2.80176 12.3682 2.79883 12.2189 2.79883 12.0829C2.79883 9.57414 3.80664 7.30342 5.43555 5.661C7.06299 4.01709 9.31299 3 11.7988 3C14.2847 3 16.5361 4.0097 18.1665 5.64769C19.7939 7.28273 20.7988 9.54457 20.7988 12.0489C20.7988 12.2425 20.6421 12.4007 20.4502 12.4007C20.2583 12.4007 20.1016 12.2425 20.1016 12.0489C20.1016 9.73676 19.1743 7.65231 17.6758 6.14589C16.1729 4.63503 14.0957 3.70369 11.7988 3.70369C9.50635 3.70369 7.43066 4.64095 5.92773 6.15772C4.42627 7.67448 3.49609 9.76928 3.49609 12.0829C3.49609 12.2366 3.49902 12.3741 3.50488 12.4968C3.51074 12.6313 3.521 12.7659 3.53418 12.9004C3.55615 13.1074 3.58545 13.3128 3.62354 13.5168C3.66162 13.7194 3.70703 13.9249 3.76123 14.1348ZM7.5127 18.6304C7.61523 18.4663 7.8291 18.4175 7.9917 18.521C8.1543 18.6245 8.20264 18.8403 8.1001 19.0044L7.39551 20.1398C7.29297 20.3039 7.0791 20.3527 6.9165 20.2492C6.75391 20.1457 6.70557 19.9298 6.80811 19.7658L7.5127 18.6304ZM4.20801 17.2851C4.33398 17.4315 4.55371 17.4477 4.69873 17.3206C4.83789 17.1979 4.96094 17.0545 5.06348 16.8904C5.16455 16.7278 5.24805 16.5445 5.31104 16.3405C5.59375 15.4313 5.43848 14.565 5.28027 13.6869L5.27834 13.676C5.18815 13.1725 5.09719 12.6647 5.1001 12.1657C5.11621 9.55492 6.74805 7.41873 8.88525 6.31885C9.7876 5.85466 10.7778 5.57525 11.7725 5.52351C12.7612 5.47325 13.7559 5.64621 14.6729 6.08676C16.7515 7.08463 18.4434 9.46474 18.8052 13.7209C18.8213 13.9145 18.9897 14.0594 19.1816 14.0431C19.3735 14.0269 19.5171 13.8569 19.501 13.6632C19.1143 9.11586 17.2568 6.548 14.9702 5.45107C13.9463 4.96027 12.8374 4.76513 11.7373 4.82278C10.6416 4.88044 9.55469 5.18497 8.56885 5.69352C6.21924 6.90427 4.42334 9.26665 4.40576 12.1642C4.40139 12.7269 4.4983 13.2662 4.59439 13.801L4.59619 13.811L4.59665 13.8136C4.73858 14.6036 4.87866 15.3833 4.646 16.1305C4.60059 16.2769 4.54346 16.4055 4.47461 16.5149C4.40869 16.6213 4.33105 16.713 4.24316 16.7899C4.09814 16.917 4.08203 17.1388 4.20801 17.2851ZM18.7979 15.1238C18.7979 14.9287 18.9546 14.772 19.1465 14.772C19.3384 14.772 19.4951 14.9301 19.4951 15.1238V16.5992C19.4951 16.7943 19.3384 16.951 19.1465 16.951C18.9546 16.951 18.7979 16.7928 18.7979 16.5992V15.1238ZM5.23926 18.7235C5.3667 18.8684 5.58643 18.8817 5.72998 18.7531C6.26025 18.28 6.64551 17.6769 6.86523 16.9229C7.0791 16.1882 7.13623 15.3145 7.01318 14.2841C7.01172 14.2664 7.00732 14.2486 7.00293 14.2309C6.81689 13.3099 6.7832 12.4658 6.89014 11.7074C6.99854 10.9416 7.25195 10.266 7.63867 9.69388C7.74707 9.53422 7.70605 9.31543 7.54785 9.20603C7.38965 9.09664 7.17285 9.13803 7.06445 9.29769C6.61768 9.95998 6.32471 10.7346 6.20166 11.6083C6.08301 12.4436 6.11963 13.369 6.32178 14.3713C6.43164 15.3042 6.38477 16.0832 6.19727 16.7248C6.01562 17.3472 5.70068 17.8439 5.26855 18.2283C5.125 18.3569 5.11182 18.5787 5.23926 18.7235ZM9.27051 8.16972C9.10352 8.26729 8.89111 8.20964 8.79443 8.04111C8.69775 7.87258 8.75488 7.65822 8.92188 7.56065C9.31152 7.33299 9.72754 7.15263 10.1567 7.02106C11.3345 6.66035 12.6133 6.6707 13.7764 7.08167C14.9453 7.49561 15.9956 8.31164 16.7104 9.56083C16.9492 9.97625 17.1499 10.4419 17.3052 10.9579C17.5264 11.6941 17.6772 12.516 17.7549 13.4193C17.8311 14.3078 17.8354 15.2835 17.7681 16.3449C17.7681 16.3541 17.7669 16.3621 17.7656 16.371L17.7656 16.371L17.7651 16.3745L17.522 18.796C17.5029 18.9882 17.333 19.1301 17.1411 19.1109C16.9507 19.0916 16.8101 18.9201 16.8291 18.7265L17.0723 16.302V16.3005C17.1367 15.279 17.1323 14.3358 17.0591 13.4769C16.9858 12.6165 16.8452 11.8434 16.6401 11.1619C16.5024 10.7021 16.3223 10.2867 16.1084 9.91268C15.4829 8.81871 14.5659 8.10468 13.5479 7.74397C12.5239 7.38177 11.3975 7.3729 10.3589 7.69075C9.98242 7.80901 9.61768 7.96719 9.27051 8.16972ZM8.10156 17.7951C8.29053 17.8291 8.4707 17.7005 8.50439 17.5098C8.58936 17.0294 8.63623 16.4853 8.65527 15.8851C8.67139 15.2953 8.6582 14.6596 8.62012 13.9884C8.6084 13.7903 8.59814 13.6366 8.58789 13.4888C8.51758 12.4835 8.46191 11.6734 9.00977 10.6888C9.12549 10.4789 9.26465 10.2867 9.42871 10.1108C9.58838 9.93929 9.77588 9.78258 9.99121 9.64214C10.3457 9.47066 10.6943 9.33908 11.0342 9.25482C11.3755 9.17056 11.7109 9.1336 12.0405 9.15134C12.2324 9.16168 12.395 9.01237 12.4053 8.81871C12.4155 8.62505 12.2676 8.46096 12.0757 8.45061C11.6787 8.42843 11.2759 8.47278 10.8701 8.57331C10.4761 8.67088 10.082 8.82019 9.68506 9.01237C9.66602 9.01976 9.64844 9.02864 9.63086 9.04046C9.36279 9.21343 9.12695 9.41152 8.92188 9.63032C8.7168 9.84911 8.54541 10.0886 8.40186 10.3458C7.75146 11.5122 7.81445 12.417 7.89355 13.539L7.90247 13.6674C7.91148 13.7961 7.92028 13.9218 7.92578 14.0284C7.96387 14.6877 7.97705 15.3042 7.96094 15.8674C7.94482 16.4232 7.89941 16.9333 7.81885 17.3886C7.78516 17.5793 7.9126 17.7611 8.10156 17.7951ZM13.4102 9.58005C13.2461 9.47953 13.1948 9.26221 13.2944 9.09812C13.394 8.93254 13.6079 8.8808 13.772 8.98133C13.8789 9.04785 13.9829 9.11881 14.084 9.19569C14.1836 9.27108 14.2817 9.35387 14.3799 9.44405C15.707 10.6607 16.1567 12.6165 16.186 14.6626C16.2139 16.6553 15.8433 18.7339 15.5034 20.2669C15.4624 20.4561 15.2764 20.5759 15.0889 20.533C14.9014 20.4916 14.7827 20.3039 14.8252 20.1146C15.1562 18.6186 15.5195 16.5947 15.4917 14.6699C15.4653 12.7984 15.0698 11.0259 13.9111 9.96294C13.8306 9.88902 13.7471 9.81954 13.6636 9.75597C13.5801 9.68945 13.4951 9.63179 13.4102 9.58005ZM8.63477 20.7784C8.7915 20.8908 9.0083 20.8523 9.11963 20.6941C9.39648 20.2994 9.63086 19.8692 9.81836 19.408C10.0073 18.9408 10.1523 18.4397 10.252 17.9001C10.4385 16.8939 10.3553 15.6843 10.2766 14.5392L10.2754 14.5221L10.2702 14.4459C10.2456 14.0852 10.2217 13.7345 10.208 13.4237C10.1875 12.9226 10.1772 12.4332 10.2622 12.0208C10.3384 11.6512 10.4951 11.3363 10.8013 11.1205C10.8701 11.0717 10.9507 11.0259 11.0415 10.983C11.1309 10.9401 11.2319 10.9032 11.3447 10.8706C11.4312 10.8455 11.5132 10.8263 11.5908 10.813C12.0742 10.7302 12.4478 10.8485 12.729 11.0953C13.0337 11.3629 13.2476 11.7828 13.3853 12.2721C13.4292 12.4332 13.4658 12.5988 13.4951 12.7673C13.5112 12.8605 13.5259 12.9551 13.5361 13.0497C13.5479 13.1502 13.5566 13.2478 13.5625 13.3409C13.6328 14.4172 13.5859 15.7639 13.4409 17.087C13.3018 18.3539 13.0747 19.5928 12.7759 20.5434C12.7188 20.7281 12.8198 20.9248 13.0029 20.9839C13.186 21.0416 13.3809 20.9396 13.4395 20.7548C13.7544 19.7539 13.9917 18.4678 14.1353 17.1624C14.2847 15.8009 14.333 14.4098 14.2598 13.2951C14.2524 13.1827 14.2422 13.0733 14.2305 12.9669C14.2188 12.859 14.2026 12.7511 14.1851 12.6446C14.1514 12.4495 14.1089 12.2588 14.0576 12.0755C13.8848 11.4649 13.6035 10.9268 13.189 10.5617C12.7524 10.1773 12.187 9.99103 11.4736 10.1137C11.3696 10.1315 11.2627 10.1566 11.1543 10.1876C11.0093 10.229 10.8745 10.2808 10.75 10.3384C10.6255 10.3961 10.5098 10.4641 10.4028 10.5395C9.92676 10.8765 9.68945 11.3393 9.57959 11.8729C9.47852 12.3623 9.48877 12.9004 9.51221 13.4488C9.52832 13.8243 9.55322 14.1895 9.57959 14.5635C9.65723 15.6723 9.73779 16.8461 9.56787 17.7671C9.47705 18.2608 9.34521 18.7176 9.17529 19.1375C9.00537 19.5544 8.79736 19.9387 8.55127 20.2891C8.43994 20.4473 8.47803 20.6661 8.63477 20.7784ZM11.5059 12.1878C11.4707 11.9971 11.5967 11.8138 11.7856 11.7798C11.9746 11.7443 12.1562 11.8715 12.1899 12.0622C12.3672 13.026 12.4521 14.0003 12.4551 14.9789C12.458 15.9531 12.3789 16.9318 12.2295 17.9119C12.2002 18.1026 12.0229 18.2342 11.8325 18.2046C11.6436 18.1751 11.5132 17.9962 11.5425 17.804C11.6875 16.8608 11.7637 15.9177 11.7607 14.9789C11.7578 14.0431 11.6758 13.1118 11.5059 12.1878ZM11.522 18.7457C11.3345 18.7028 11.1484 18.8226 11.1074 19.0118L10.8027 20.397C10.7603 20.5862 10.8789 20.774 11.0664 20.8154C11.2539 20.8582 11.4399 20.7385 11.481 20.5493L11.7856 19.1641C11.8281 18.9748 11.7095 18.7871 11.522 18.7457Z" fill="currentcolor"/>
</svg>
