<svg width="24" height="24" viewBox="0 0 24 24" fill="none" xmlns="http://www.w3.org/2000/svg">
<path fill-rule="evenodd" clip-rule="evenodd" d="M5.5 3.03303C5.5 2.73716 5.73985 2.49731 6.03571 2.49731C6.33158 2.49731 6.57143 2.73716 6.57143 3.03303V3.62714H18.8929C19.3337 3.62714 19.5858 4.12988 19.3222 4.4832L16.5639 8.18024L19.3223 11.8783C19.5858 12.2316 19.3337 12.7343 18.8929 12.7343H6.57143V20.9548C6.57143 21.2507 6.33158 21.4905 6.03571 21.4905C5.73985 21.4905 5.5 21.2507 5.5 20.9548V3.03303ZM6.57143 11.6629H17.8249L15.4661 8.5005C15.3244 8.31047 15.3244 8.04986 15.4662 7.85984L17.8248 4.69856H6.57143V11.6629Z" fill="currentcolor" stroke="currentcolor"/>
</svg>
