<svg width="24" height="24" viewBox="0 0 24 24" fill="none" xmlns="http://www.w3.org/2000/svg">
<path d="M6.5 12C6.22386 12 6 11.7761 6 11.5C6 11.2239 6.22386 11 6.5 11H13.5C13.7761 11 14 11.2239 14 11.5C14 11.7761 13.7761 12 13.5 12H6.5Z" fill="currentcolor"/>
<path d="M6 14.5C6 14.7761 6.22386 15 6.5 15H10.5C10.7761 15 11 14.7761 11 14.5C11 14.2239 10.7761 14 10.5 14H6.5C6.22386 14 6 14.2239 6 14.5Z" fill="currentcolor"/>
<path fill-rule="evenodd" clip-rule="evenodd" d="M21 8.499C21 7.11886 19.8811 6 18.501 6H13.1133C12.9921 6 12.8829 5.92715 12.8363 5.81532L12.2155 4.32434C12.1109 4.11669 11.9637 4 11.7061 4H6.83141C6.48741 4 6.39609 4.13427 6.31077 4.32434C6.22546 4.5144 5.499 6 5.499 6C4.11886 6 3 7.11886 3 8.499V17.501C3 18.8811 4.11886 20 5.499 20H18.501C19.8811 20 21 18.8811 21 17.501V8.499ZM5.70611 7C5.83872 7 5.96589 6.94732 6.05966 6.85355C6.13487 6.77834 6.63856 5.63132 6.83498 5.18024C6.88278 5.07047 6.99074 5 7.11046 5H11.3018C11.4215 5 11.5294 5.07047 11.5772 5.18024C11.7737 5.63132 12.2773 6.77834 12.3526 6.85355C12.4463 6.94732 12.5735 7 12.7061 7H18.501C19.3289 7 20 7.67114 20 8.499V17.501C20 18.3289 19.3289 19 18.501 19H5.499C4.67114 19 4 18.3289 4 17.501V8.499C4 7.67114 4.67114 7 5.499 7H5.70611Z" fill="currentcolor"/>
</svg>
