<svg width="24" height="24" viewBox="0 0 24 24" fill="none" xmlns="http://www.w3.org/2000/svg">
<path fill-rule="evenodd" clip-rule="evenodd" d="M8 13C8 10.7909 9.79086 9 12 9C14.2091 9 16 10.7909 16 13C16 15.2091 14.2091 17 12 17C9.79086 17 8 15.2091 8 13ZM12 11C10.8954 11 10 11.8954 10 13C10 13.1792 10.0236 13.3528 10.0677 13.518L12.518 11.0677C12.3528 11.0236 12.1792 11 12 11ZM13.9323 12.482L11.482 14.9323C11.6472 14.9764 11.8208 15 12 15C13.1046 15 14 14.1046 14 13C14 12.8208 13.9764 12.6472 13.9323 12.482Z" fill="currentcolor"/>
<path fill-rule="evenodd" clip-rule="evenodd" d="M1 3H9.30278L12.3028 5H23V21H1V3ZM3 5V19H21V7H11.6972L8.69722 5H3Z" fill="currentcolor"/>
</svg>
