<svg width="24" height="24" viewBox="0 0 24 24" fill="none" xmlns="http://www.w3.org/2000/svg">
<path d="M6 1V9H7V1H9V9H10V1H12V11H9V23H7V11H4V1H6Z" fill="currentcolor"/>
<path fill-rule="evenodd" clip-rule="evenodd" d="M16.5 1V13.1209C18.577 13.635 20 15.7184 20 18C20 20.6318 18.1065 23 15.5 23C12.8935 23 11 20.6318 11 18C11 15.7184 12.423 13.635 14.5 13.1209V1H16.5ZM15.5 15C14.2405 15 13 16.2135 13 18C13 19.7865 14.2405 21 15.5 21C16.7595 21 18 19.7865 18 18C18 16.2135 16.7595 15 15.5 15Z" fill="currentcolor"/>
</svg>
