<svg width="24" height="24" viewBox="0 0 24 24" fill="none" xmlns="http://www.w3.org/2000/svg">
<path d="M2.46716 3H22.1199C22.3786 3 22.5882 3.2096 22.5882 3.46829C22.5882 3.61071 22.5247 3.73821 22.4243 3.82416L14.5798 11.6295V18.3279C14.5798 18.5133 14.4721 18.6735 14.3157 18.7494L10.6153 20.886C10.392 21.0151 10.1061 20.9389 9.97661 20.7157C9.93389 20.6418 9.91362 20.5613 9.91378 20.4815H9.91278V11.628L2.13592 3.79769C1.95397 3.61473 1.95481 3.31901 2.13777 3.13722C2.22891 3.04658 2.34804 3.00134 2.46716 3.00134V3ZM20.987 3.93675H3.59057L10.6875 11.0825C10.7867 11.1682 10.8494 11.2952 10.8494 11.4367V19.6714L13.643 18.0588V11.4367H13.6444C13.6444 11.3167 13.6903 11.1967 13.7821 11.1054L20.987 3.93675Z" fill="currentcolor" stroke="currentcolor"/>
</svg>
