<svg width="24" height="24" viewBox="0 0 24 24" fill="none" xmlns="http://www.w3.org/2000/svg">
<path fill-rule="evenodd" clip-rule="evenodd" d="M10.3427 3.00012H13.6577C14.6718 3.00012 15.4997 3.82798 15.4997 4.84212V5.94492H20C20.2761 5.94492 20.5 6.16878 20.5 6.44492C20.5 6.72106 20.2761 6.94492 20 6.94492H18.5004V16.8454C18.5004 19.3286 16.4865 21.3424 14.0034 21.3424H9.9964C7.51341 21.3424 5.5004 19.3287 5.5004 16.8454V6.94492H4C3.72386 6.94492 3.5 6.72106 3.5 6.44492C3.5 6.16878 3.72386 5.94492 4 5.94492H8.4997V4.84212C8.4997 3.82777 9.32777 3.00012 10.3427 3.00012ZM14.4997 4.84212V5.94492H9.4997V4.84212C9.4997 4.38017 9.87994 4.00012 10.3427 4.00012H13.6577C14.1196 4.00012 14.4997 4.38026 14.4997 4.84212ZM6.5004 6.94542V16.8454C6.5004 18.7765 8.06577 20.3424 9.9964 20.3424H14.0034C15.9343 20.3424 17.5004 18.7763 17.5004 16.8454V6.94542H6.5004ZM8.4648 17.1622V10.1622C8.4648 9.88608 8.68866 9.66222 8.9648 9.66222C9.24094 9.66222 9.4648 9.88608 9.4648 10.1622V17.1622C9.4648 17.4384 9.24094 17.6622 8.9648 17.6622C8.68866 17.6622 8.4648 17.4384 8.4648 17.1622ZM11.4648 10.1622V17.1622C11.4648 17.4384 11.6887 17.6622 11.9648 17.6622C12.2409 17.6622 12.4648 17.4384 12.4648 17.1622V10.1622C12.4648 9.88608 12.2409 9.66222 11.9648 9.66222C11.6887 9.66222 11.4648 9.88608 11.4648 10.1622ZM14.4648 17.1622V10.1622C14.4648 9.88608 14.6887 9.66222 14.9648 9.66222C15.2409 9.66222 15.4648 9.88608 15.4648 10.1622V17.1622C15.4648 17.4384 15.2409 17.6622 14.9648 17.6622C14.6887 17.6622 14.4648 17.4384 14.4648 17.1622Z" fill="currentcolor"/>
</svg>
