<svg width="24" height="24" viewBox="0 0 24 24" fill="none" xmlns="http://www.w3.org/2000/svg">
<path fill-rule="evenodd" clip-rule="evenodd" d="M9.8427 3.00012H13.1577C14.1718 3.00012 14.9997 3.82798 14.9997 4.84212V5.94492H19.5C19.7761 5.94492 20 6.16878 20 6.44492C20 6.72106 19.7761 6.94492 19.5 6.94492H18.0004V16.8454C18.0004 19.3286 15.9865 21.3424 13.5034 21.3424H9.4964C7.01341 21.3424 5.0004 19.3287 5.0004 16.8454V6.94492H3.5C3.22386 6.94492 3 6.72106 3 6.44492C3 6.16878 3.22386 5.94492 3.5 5.94492H7.9997V4.84212C7.9997 3.82777 8.82777 3.00012 9.8427 3.00012ZM13.9997 4.84212V5.94492H8.9997V4.84212C8.9997 4.38017 9.37994 4.00012 9.8427 4.00012H13.1577C13.6196 4.00012 13.9997 4.38026 13.9997 4.84212ZM6.0004 6.94542V16.8454C6.0004 18.7765 7.56577 20.3424 9.4964 20.3424H13.5034C15.4343 20.3424 17.0004 18.7763 17.0004 16.8454V6.94542H6.0004ZM7.9648 17.1622V10.1622C7.9648 9.88608 8.18866 9.66222 8.4648 9.66222C8.74094 9.66222 8.9648 9.88608 8.9648 10.1622V17.1622C8.9648 17.4384 8.74094 17.6622 8.4648 17.6622C8.18866 17.6622 7.9648 17.4384 7.9648 17.1622ZM10.9648 10.1622V17.1622C10.9648 17.4384 11.1887 17.6622 11.4648 17.6622C11.7409 17.6622 11.9648 17.4384 11.9648 17.1622V10.1622C11.9648 9.88608 11.7409 9.66222 11.4648 9.66222C11.1887 9.66222 10.9648 9.88608 10.9648 10.1622ZM13.9648 17.1622V10.1622C13.9648 9.88608 14.1887 9.66222 14.4648 9.66222C14.7409 9.66222 14.9648 9.88608 14.9648 10.1622V17.1622C14.9648 17.4384 14.7409 17.6622 14.4648 17.6622C14.1887 17.6622 13.9648 17.4384 13.9648 17.1622Z" fill="currentcolor"/>
<path fill-rule="evenodd" clip-rule="evenodd" d="M7.9997 4.84212C7.9997 3.55137 9.05188 2.50012 10.3427 2.50012H13.6577C14.948 2.50012 15.9997 3.55184 15.9997 4.84212V5.44492H20C20.5523 5.44492 21 5.89264 21 6.44492C21 6.99721 20.5523 7.44492 20 7.44492H19.0004V16.8454C19.0004 19.6047 16.7627 21.8424 14.0034 21.8424H9.9964C7.23714 21.8424 5.0004 19.6047 5.0004 16.8454V7.44492H4C3.44772 7.44492 3 6.99721 3 6.44492C3 5.89264 3.44772 5.44492 4 5.44492H7.9997V4.84212ZM10.3427 4.50012C10.1556 4.50012 9.9997 4.65677 9.9997 4.84212V5.44492H13.9997V4.84212C13.9997 4.65641 13.8434 4.50012 13.6577 4.50012H10.3427ZM7.0004 7.44542V16.8454C7.0004 18.5005 8.34206 19.8424 9.9964 19.8424H14.0034C15.6581 19.8424 17.0004 18.5001 17.0004 16.8454V7.44542H7.0004ZM7.9648 10.1622C7.9648 9.60994 8.41251 9.16222 8.9648 9.16222C9.51709 9.16222 9.9648 9.60994 9.9648 10.1622V17.1622C9.9648 17.7145 9.51709 18.1622 8.9648 18.1622C8.41251 18.1622 7.9648 17.7145 7.9648 17.1622V10.1622ZM10.9648 10.1622C10.9648 9.60994 11.4125 9.16222 11.9648 9.16222C12.5171 9.16222 12.9648 9.60994 12.9648 10.1622V17.1622C12.9648 17.7145 12.5171 18.1622 11.9648 18.1622C11.4125 18.1622 10.9648 17.7145 10.9648 17.1622V10.1622ZM13.9648 10.1622C13.9648 9.60994 14.4125 9.16222 14.9648 9.16222C15.5171 9.16222 15.9648 9.60994 15.9648 10.1622V17.1622C15.9648 17.7145 15.5171 18.1622 14.9648 18.1622C14.4125 18.1622 13.9648 17.7145 13.9648 17.1622V10.1622Z" fill="currentcolor"/>
</svg>
