<svg width="24" height="24" viewBox="0 0 24 24" fill="none" xmlns="http://www.w3.org/2000/svg">
<path fill-rule="evenodd" clip-rule="evenodd" d="M20.6613 10.0448L20.6624 10.045C21.1749 10.1317 21.55 10.575 21.55 11.095V12.958C21.55 13.4785 21.1741 13.9233 20.6613 14.0082L19.2828 14.2383C19.2579 14.2424 19.2403 14.2572 19.2365 14.2693C19.1012 14.7048 18.9246 15.1283 18.7093 15.5372C18.7027 15.5496 18.7047 15.5733 18.7188 15.5933L19.5316 16.731C19.8348 17.1548 19.7866 17.7345 19.4186 18.1026L18.1006 19.4206C17.7325 19.7886 17.1528 19.8368 16.7293 19.5338L15.5905 18.7202C15.5703 18.7057 15.5475 18.7038 15.535 18.7104C15.1263 18.9256 14.7028 19.1022 14.2677 19.2374C14.2547 19.2414 14.2405 19.2583 14.2362 19.2843L14.0059 20.6637C13.9191 21.1753 13.4756 21.551 12.956 21.551H11.092C10.5714 21.551 10.1276 21.174 10.0428 20.6614L9.81267 19.2834C9.8085 19.2581 9.79446 19.2414 9.7806 19.2372C9.34074 19.0994 8.91651 18.9229 8.51482 18.7108C8.5012 18.7037 8.47765 18.7056 8.45748 18.72L7.31862 19.5329C6.89545 19.8351 6.31437 19.7874 5.94845 19.4196L4.63036 18.1015C4.26163 17.7346 4.21387 17.1536 4.51633 16.7301L5.32965 15.5931C5.34423 15.5726 5.3462 15.5485 5.33959 15.536C5.12553 15.1295 4.94947 14.706 4.81363 14.2687C4.80946 14.2553 4.79183 14.2405 4.76668 14.2362L3.38939 14.0063C2.87586 13.9213 2.5 13.4765 2.5 12.956V11.093C2.5 10.5721 2.87628 10.1274 3.38997 10.0428L4.76525 9.81406C4.79192 9.80953 4.80982 9.79445 4.81341 9.78298C4.94859 9.34682 5.1251 8.92324 5.3407 8.51383C5.34717 8.50156 5.34527 8.47849 5.33104 8.45848L4.51752 7.31876C4.2162 6.89502 4.26379 6.31611 4.63145 5.94845L5.94945 4.63045C6.31721 4.26268 6.89765 4.21501 7.32065 4.51716L8.45952 5.33078C8.47974 5.34529 8.50246 5.34718 8.51503 5.34059C8.92369 5.12539 9.34716 4.94881 9.78227 4.81363C9.79572 4.80944 9.81072 4.7917 9.81476 4.76803L10.044 3.38863C10.1307 2.87613 10.574 2.5 11.094 2.5H12.958C13.478 2.5 13.9213 2.87613 14.0082 3.39003L14.2373 4.76819C14.2413 4.79277 14.2555 4.80957 14.2694 4.81384C14.7093 4.95156 15.1335 5.12808 15.5371 5.34116C15.5492 5.3476 15.5719 5.34572 15.5925 5.33104L16.7314 4.51813C17.1546 4.21587 17.7356 4.26363 18.1016 4.63145L19.4196 5.94954C19.7883 6.31627 19.8359 6.89682 19.5336 7.32206L18.7204 8.45794C18.7054 8.47888 18.7035 8.50208 18.7104 8.51503C18.9248 8.92207 19.1008 9.34571 19.2362 9.78259C19.24 9.79495 19.2586 9.81061 19.2833 9.81482L20.6613 10.0448ZM19.1169 10.8009C18.7271 10.7343 18.4002 10.4593 18.2814 10.08C18.1639 9.70079 18.0115 9.33399 17.8267 8.98305C17.6393 8.63114 17.6749 8.20223 17.9064 7.87694L18.7195 6.74124C18.7383 6.71481 18.7354 6.67941 18.7134 6.65755L17.3935 5.33764C17.3727 5.31671 17.3378 5.31385 17.3125 5.33196L16.1729 6.14535C15.8489 6.37599 15.4214 6.41157 15.0695 6.22515C14.7205 6.04084 14.3525 5.88774 13.9735 5.76905C13.5925 5.65227 13.3158 5.32379 13.2508 4.93197L13.022 3.55537C13.0166 3.52316 12.9893 3.5 12.958 3.5H11.094C11.0627 3.5 11.0354 3.52316 11.0302 3.55397L10.8009 4.93415C10.7342 5.32441 10.4587 5.6503 10.0793 5.76849C9.70299 5.88541 9.33609 6.0384 8.98018 6.22582C8.62728 6.41086 8.19984 6.37528 7.87735 6.14384L6.73938 5.33087C6.71398 5.31272 6.67847 5.31564 6.65655 5.33755L5.33855 6.65555C5.31647 6.67763 5.31359 6.71268 5.33196 6.73852L6.14535 7.87806C6.37559 8.20153 6.41064 8.6286 6.22541 8.97997C6.03821 9.33547 5.88536 9.70225 5.76815 10.0804C5.64971 10.4587 5.32344 10.7336 4.93103 10.8002L3.55332 11.0293C3.52253 11.0344 3.5 11.061 3.5 11.093V12.956C3.5 12.988 3.5226 13.0147 3.55332 13.0198L4.93275 13.2501C5.32393 13.3165 5.65018 13.5919 5.76849 13.9717C5.88619 14.3505 6.03871 14.7174 6.2243 15.0698C6.40964 15.4214 6.37459 15.8495 6.14367 16.1739L5.32987 17.3116C5.31185 17.3368 5.31471 17.3717 5.33655 17.3934L6.65646 18.7134C6.67728 18.7343 6.71215 18.7372 6.73752 18.719L7.87706 17.9056C8.2004 17.6755 8.62701 17.6405 8.98046 17.8258C9.32954 18.0102 9.69749 18.1633 10.0765 18.282C10.4579 18.3988 10.7345 18.7277 10.7992 19.1196L11.0293 20.4974C11.0344 20.5284 11.061 20.551 11.092 20.551H12.956C12.9873 20.551 13.0147 20.5278 13.0198 20.4977L13.2497 19.1206C13.3144 18.7284 13.5902 18.401 13.9707 18.2825C14.347 18.1656 14.7139 18.0126 15.0698 17.8252C15.4227 17.6401 15.8502 17.6757 16.1727 17.9072L17.311 18.7204C17.3366 18.7387 17.371 18.7359 17.3934 18.7134L18.7114 17.3954C18.7339 17.373 18.7367 17.3386 18.7182 17.3127L17.9038 16.1728C17.6744 15.8486 17.6395 15.4222 17.8246 15.071C18.0116 14.7159 18.1646 14.349 18.2816 13.9723C18.4 13.5925 18.7279 13.3166 19.1187 13.2518L20.4974 13.0217C20.5274 13.0167 20.55 12.99 20.55 12.958V11.095C20.55 11.0633 20.5274 11.0365 20.4959 11.031L19.1169 10.8009ZM12.0537 8.4794C13.9968 8.4794 15.5717 10.0543 15.5717 11.9974C15.5717 13.9405 13.9968 15.5154 12.0537 15.5154C10.1106 15.5154 8.5357 13.9405 8.5357 11.9974C8.5357 10.0543 10.1106 8.4794 12.0537 8.4794ZM12.0537 9.4794C10.6628 9.4794 9.5357 10.6065 9.5357 11.9974C9.5357 13.3883 10.6628 14.5154 12.0537 14.5154C13.4446 14.5154 14.5717 13.3883 14.5717 11.9974C14.5717 10.6065 13.4446 9.4794 12.0537 9.4794Z" fill="currentcolor"/>
<path d="M20.6624 10.045L20.7457 9.552L20.7454 9.55195L20.6624 10.045ZM20.6613 10.0448L20.7444 9.55177L20.7436 9.55164L20.6613 10.0448ZM20.6613 14.0082L20.5797 13.5149L20.579 13.515L20.6613 14.0082ZM19.2828 14.2383L19.3646 14.7315L19.3651 14.7314L19.2828 14.2383ZM19.2365 14.2693L18.7591 14.1206L18.759 14.121L19.2365 14.2693ZM18.7093 15.5372L19.1516 15.7704L19.1517 15.7701L18.7093 15.5372ZM18.7188 15.5933L18.3106 15.8821L18.312 15.884L18.7188 15.5933ZM19.5316 16.731L19.1248 17.0217L19.125 17.022L19.5316 16.731ZM19.4186 18.1026L19.065 17.749L19.4186 18.1026ZM18.1006 19.4206L17.747 19.067H17.747L18.1006 19.4206ZM16.7293 19.5338L17.0203 19.1272L17.02 19.127L16.7293 19.5338ZM15.5905 18.7202L15.2989 19.1264L15.2998 19.1271L15.5905 18.7202ZM15.535 18.7104L15.3028 18.2676L15.302 18.268L15.535 18.7104ZM14.2677 19.2374L14.1194 18.7599L14.119 18.76L14.2677 19.2374ZM14.2362 19.2843L14.7294 19.3666L14.7295 19.3657L14.2362 19.2843ZM14.0059 20.6637L14.4989 20.7473L14.4991 20.746L14.0059 20.6637ZM10.0428 20.6614L10.5361 20.5798L10.536 20.579L10.0428 20.6614ZM9.81267 19.2834L9.31935 19.3649L9.31951 19.3658L9.81267 19.2834ZM9.7806 19.2372L9.6312 19.7143L9.63377 19.7151L9.7806 19.2372ZM8.51482 18.7108L8.74828 18.2687L8.74698 18.268L8.51482 18.7108ZM8.45748 18.72L8.16755 18.3126L8.167 18.313L8.45748 18.72ZM7.31862 19.5329L7.02814 19.1259L7.028 19.126L7.31862 19.5329ZM5.94845 19.4196L6.30291 19.0669L6.302 19.066L5.94845 19.4196ZM4.63036 18.1015L4.98391 17.7479L4.983 17.747L4.63036 18.1015ZM4.51633 16.7301L4.10965 16.4392L4.10946 16.4395L4.51633 16.7301ZM5.32965 15.5931L5.73632 15.884L5.737 15.883L5.32965 15.5931ZM5.33959 15.536L4.89718 15.7689L4.89729 15.7691L5.33959 15.536ZM4.81363 14.2687L5.29112 14.1204L5.291 14.12L4.81363 14.2687ZM4.76668 14.2362L4.85047 13.7432L4.849 13.743L4.76668 14.2362ZM3.38939 14.0063L3.4717 13.5131L3.471 13.513L3.38939 14.0063ZM3.38997 10.0428L3.47129 10.5361L3.472 10.536L3.38997 10.0428ZM4.76525 9.81406L4.84727 10.3073L4.849 10.307L4.76525 9.81406ZM4.81341 9.78298L5.29054 9.93248L5.291 9.931L4.81341 9.78298ZM5.3407 8.51383L4.8984 8.28066L4.89829 8.28086L5.3407 8.51383ZM5.33104 8.45848L5.73839 8.16855L5.738 8.168L5.33104 8.45848ZM4.51752 7.31876L4.11004 7.60852L4.11056 7.60925L4.51752 7.31876ZM4.63145 5.94845L4.27789 5.59489V5.59489L4.63145 5.94845ZM5.94945 4.63045L6.303 4.984V4.984L5.94945 4.63045ZM7.32065 4.51716L7.61131 4.11031L7.61127 4.11029L7.32065 4.51716ZM8.45952 5.33078L8.75104 4.92456L8.75018 4.92394L8.45952 5.33078ZM8.51503 5.34059L8.74719 5.78343L8.748 5.783L8.51503 5.34059ZM9.78227 4.81363L9.93062 5.29112L9.931 5.291L9.78227 4.81363ZM9.81476 4.76803L10.3076 4.85228L10.308 4.85L9.81476 4.76803ZM10.044 3.38863L9.551 3.30525L9.55076 3.30666L10.044 3.38863ZM14.0082 3.39003L14.5015 3.30807L14.5012 3.30666L14.0082 3.39003ZM14.2373 4.76819L14.7305 4.68638L14.7305 4.68622L14.2373 4.76819ZM14.2694 4.81384L14.4188 4.33668L14.4162 4.33589L14.2694 4.81384ZM15.5371 5.34116L15.7711 4.89932L15.7705 4.89901L15.5371 5.34116ZM15.5925 5.33104L15.8825 5.73839L15.883 5.738L15.5925 5.33104ZM16.7314 4.51813L17.0219 4.9251L17.022 4.925L16.7314 4.51813ZM18.1016 4.63145L17.7471 4.98409L17.748 4.985L18.1016 4.63145ZM19.4196 5.94954L19.0661 6.30309L19.067 6.304L19.4196 5.94954ZM19.5336 7.32206L19.9401 7.61312L19.941 7.61182L19.5336 7.32206ZM18.7204 8.45794L18.3138 8.16688L18.313 8.168L18.7204 8.45794ZM18.7104 8.51503L19.1528 8.28206L19.1518 8.28017L18.7104 8.51503ZM19.2362 9.78259L18.7586 9.9306L18.759 9.932L19.2362 9.78259ZM19.2833 9.81482L19.1991 10.3077L19.201 10.308L19.2833 9.81482ZM18.2814 10.08L17.8038 10.228L17.8043 10.2294L18.2814 10.08ZM19.1169 10.8009L19.0327 11.2937L19.0345 11.294L19.1169 10.8009ZM17.8267 8.98305L18.2691 8.75008L18.268 8.748L17.8267 8.98305ZM17.9064 7.87694L17.4999 7.58588L17.4991 7.587L17.9064 7.87694ZM18.7195 6.74124L19.1261 7.0323L19.127 7.031L18.7195 6.74124ZM18.7134 6.65755L18.3599 7.01111L18.3608 7.01199L18.7134 6.65755ZM17.3935 5.33764L17.0391 5.69029L17.04 5.6912L17.3935 5.33764ZM17.3125 5.33196L17.603 5.73893L17.6031 5.73883L17.3125 5.33196ZM16.1729 6.14535L16.4629 6.5527L16.4634 6.55232L16.1729 6.14535ZM15.0695 6.22515L15.3036 5.78332L15.303 5.783L15.0695 6.22515ZM13.9735 5.76905L14.1229 5.29188L14.12 5.291L13.9735 5.76905ZM13.2508 4.93197L13.744 4.85016L13.744 4.85L13.2508 4.93197ZM13.022 3.55537L13.5152 3.47341L13.515 3.472L13.022 3.55537ZM11.0302 3.55397L10.5372 3.47056L10.537 3.472L11.0302 3.55397ZM10.8009 4.93415L11.2937 5.0183L11.2941 5.01612L10.8009 4.93415ZM10.0793 5.76849L10.2277 6.24597L10.2281 6.24585L10.0793 5.76849ZM8.98018 6.22582L9.21236 6.66864L9.21315 6.66823L8.98018 6.22582ZM7.87735 6.14384L8.16887 5.73762L8.168 5.737L7.87735 6.14384ZM6.73938 5.33087L7.03003 4.92402L7.03 4.924L6.73938 5.33087ZM6.65655 5.33755L6.303 4.984L6.303 4.984L6.65655 5.33755ZM5.33855 6.65555L5.6921 7.00911L5.69211 7.00911L5.33855 6.65555ZM5.33196 6.73852L4.92448 7.02827L4.925 7.029L5.33196 6.73852ZM6.14535 7.87806L6.5527 7.58812L6.55232 7.58758L6.14535 7.87806ZM6.22541 8.97997L5.78311 8.7468L5.783 8.747L6.22541 8.97997ZM5.76815 10.0804L6.24531 10.2298L6.24574 10.2284L5.76815 10.0804ZM4.93103 10.8002L5.01305 11.2935L5.01477 11.2932L4.93103 10.8002ZM3.55332 11.0293L3.63465 11.5227L3.63535 11.5226L3.55332 11.0293ZM3.55332 13.0198L3.63563 12.5266L3.63494 12.5265L3.55332 13.0198ZM4.93275 13.2501L5.0165 12.7571L5.01507 12.7569L4.93275 13.2501ZM5.76849 13.9717L6.24597 13.8233L6.24585 13.8229L5.76849 13.9717ZM6.2243 15.0698L5.78189 15.3028L5.782 15.303L6.2243 15.0698ZM6.14367 16.1739L6.55035 16.4648L6.55102 16.4638L6.14367 16.1739ZM5.32987 17.3116L4.92319 17.0207L4.923 17.021L5.32987 17.3116ZM5.33655 17.3934L5.69011 17.0399L5.68921 17.039L5.33655 17.3934ZM6.65646 18.7134L7.01093 18.3607L7.01001 18.3598L6.65646 18.7134ZM6.73752 18.719L6.44703 18.3121L6.44689 18.3122L6.73752 18.719ZM7.87706 17.9056L7.58712 17.4983L7.58658 17.4987L7.87706 17.9056ZM8.98046 17.8258L9.21391 17.3837L9.21264 17.383L8.98046 17.8258ZM10.0765 18.282L9.92712 18.7591L9.93 18.76L10.0765 18.282ZM10.7992 19.1196L10.3058 19.201L10.306 19.202L10.7992 19.1196ZM11.0293 20.4974L11.5226 20.4158L11.5225 20.415L11.0293 20.4974ZM13.0198 20.4977L13.5128 20.5814L13.513 20.58L13.0198 20.4977ZM13.2497 19.1206L13.7429 19.2029L13.743 19.202L13.2497 19.1206ZM13.9707 18.2825L13.8223 17.805L13.8219 17.8051L13.9707 18.2825ZM15.0698 17.8252L14.8376 17.3824L14.8368 17.3828L15.0698 17.8252ZM16.1727 17.9072L15.8811 18.3134L15.882 18.314L16.1727 17.9072ZM17.311 18.7204L17.6019 18.3137L17.6016 18.3135L17.311 18.7204ZM17.3934 18.7134L17.747 19.067L17.3934 18.7134ZM18.7114 17.3954L18.3579 17.0419V17.0419L18.7114 17.3954ZM18.7182 17.3127L18.3113 17.6033L18.3115 17.6036L18.7182 17.3127ZM17.9038 16.1728L17.4957 16.4616L17.497 16.4635L17.9038 16.1728ZM17.8246 15.071L18.2669 15.3042L18.267 15.304L17.8246 15.071ZM18.2816 13.9723L17.8043 13.8235L17.8041 13.8239L18.2816 13.9723ZM19.1187 13.2518L19.2005 13.7451L19.201 13.745L19.1187 13.2518ZM20.4974 13.0217L20.4158 12.5284L20.4151 12.5285L20.4974 13.0217ZM20.4959 11.031L20.5813 10.5384L20.5782 10.5379L20.4959 11.031ZM20.7454 9.55195L20.7444 9.55177L20.5783 10.5379L20.5793 10.5381L20.7454 9.55195ZM22.05 11.095C22.05 10.3308 21.4986 9.67933 20.7457 9.552L20.579 10.538C20.8512 10.584 21.05 10.8192 21.05 11.095H22.05ZM22.05 12.958V11.095H21.05V12.958H22.05ZM20.7429 14.5015C21.4983 14.3765 22.05 13.7219 22.05 12.958H21.05C21.05 13.235 20.85 13.4702 20.5797 13.5149L20.7429 14.5015ZM19.3651 14.7314L20.7436 14.5014L20.579 13.515L19.2005 13.7451L19.3651 14.7314ZM19.7138 14.4181C19.6724 14.5511 19.5877 14.6251 19.5433 14.657C19.4883 14.6964 19.427 14.7212 19.3646 14.7315L19.201 13.745C19.1136 13.7595 19.0311 13.7937 18.9601 13.8446C18.8997 13.888 18.8044 13.9754 18.7591 14.1206L19.7138 14.4181ZM19.1517 15.7701C19.3808 15.335 19.5693 14.8833 19.714 14.4177L18.759 14.121C18.633 14.5264 18.4684 14.9216 18.2669 15.3042L19.1517 15.7701ZM19.1271 15.3046C19.1665 15.3604 19.1916 15.4243 19.2012 15.4913C19.2094 15.5482 19.2127 15.6545 19.1516 15.7704L18.267 15.304C18.1994 15.4323 18.2003 15.5567 18.2114 15.6336C18.2239 15.7205 18.257 15.8063 18.3106 15.8821L19.1271 15.3046ZM19.9385 16.4404L19.1257 15.3027L18.312 15.884L19.1248 17.0217L19.9385 16.4404ZM19.7721 18.4561C20.3129 17.9153 20.3839 17.063 19.9382 16.4401L19.125 17.022C19.2857 17.2466 19.2603 17.5537 19.065 17.749L19.7721 18.4561ZM18.4541 19.7741L19.7721 18.4561L19.065 17.749L17.747 19.067L18.4541 19.7741ZM16.4384 19.9405C17.061 20.386 17.9134 20.3149 18.4541 19.7741L17.747 19.067C17.5516 19.2624 17.2445 19.2877 17.0203 19.1272L16.4384 19.9405ZM15.2998 19.1271L16.4387 19.9407L17.02 19.127L15.8811 18.3134L15.2998 19.1271ZM15.7671 19.1532C15.6541 19.2125 15.5487 19.2113 15.4859 19.2019C15.4152 19.1913 15.3517 19.1643 15.2989 19.1264L15.882 18.314C15.7614 18.2275 15.5339 18.1464 15.3028 18.2676L15.7671 19.1532ZM14.4161 19.7149C14.8813 19.5703 15.333 19.3818 15.7679 19.1528L15.302 18.268C14.9196 18.4694 14.5244 18.634 14.1194 18.7599L14.4161 19.7149ZM14.7295 19.3657C14.7202 19.4221 14.6976 19.4845 14.655 19.544C14.6166 19.5975 14.5414 19.6758 14.4165 19.7147L14.119 18.76C13.8606 18.8405 13.765 19.0685 13.7429 19.2029L14.7295 19.3657ZM14.4991 20.746L14.7294 19.3666L13.743 19.202L13.5128 20.5814L14.4991 20.746ZM12.956 22.051C13.7201 22.051 14.3713 21.4988 14.4989 20.7473L13.513 20.58C13.4669 20.8518 13.2312 21.051 12.956 21.051V22.051ZM11.092 22.051H12.956V21.051H11.092V22.051ZM9.54954 20.743C9.67426 21.4969 10.3266 22.051 11.092 22.051V21.051C10.8162 21.051 10.581 20.8512 10.5361 20.5798L9.54954 20.743ZM9.31951 19.3658L9.54966 20.7437L10.536 20.579L10.3058 19.201L9.31951 19.3658ZM9.63377 19.7151C9.51441 19.6784 9.43863 19.6048 9.3969 19.5479C9.35228 19.4869 9.32888 19.4226 9.31935 19.3649L10.306 19.202C10.2826 19.0605 10.1826 18.8376 9.92742 18.7592L9.63377 19.7151ZM8.28136 19.153C8.71024 19.3794 9.16263 19.5676 9.6312 19.7143L9.93 18.76C9.51885 18.6313 9.12279 18.4664 8.74828 18.2687L8.28136 19.153ZM8.74742 19.1273C8.6921 19.1667 8.6269 19.1931 8.55642 19.2027C8.49239 19.2115 8.39077 19.2103 8.28265 19.1537L8.74698 18.268C8.52194 18.15 8.29532 18.2217 8.16755 18.3126L8.74742 19.1273ZM7.6091 19.9398L8.74797 19.1269L8.167 18.313L7.02814 19.1259L7.6091 19.9398ZM5.59398 19.7722C6.13356 20.3146 6.98784 20.3836 7.60924 19.9397L7.028 19.126C6.80305 19.2867 6.49518 19.2602 6.30291 19.0669L5.59398 19.7722ZM4.2768 18.455L5.59489 19.7731L6.302 19.066L4.98391 17.7479L4.2768 18.455ZM4.10946 16.4395C3.66525 17.0614 3.73464 17.9156 4.27771 18.4559L4.983 17.747C4.78863 17.5536 4.76248 17.2457 4.92319 17.0207L4.10946 16.4395ZM4.92297 15.3022L4.10965 16.4392L4.923 17.021L5.73632 15.884L4.92297 15.3022ZM4.89729 15.7691C4.83575 15.6524 4.83957 15.5454 4.84787 15.4889C4.8577 15.422 4.88295 15.3584 4.92229 15.3031L5.737 15.883C5.79093 15.8072 5.82446 15.7214 5.83726 15.6342C5.84854 15.5573 5.85005 15.4321 5.78189 15.3028L4.89729 15.7691ZM4.33615 14.4171C4.48118 14.8839 4.66905 15.3357 4.89718 15.7689L5.782 15.303C5.58201 14.9232 5.41776 14.528 5.29112 14.1204L4.33615 14.4171ZM4.6829 14.7291C4.62105 14.7186 4.55862 14.6936 4.50203 14.652C4.45258 14.6157 4.37506 14.542 4.33626 14.4175L5.291 14.12C5.24803 13.9821 5.15961 13.8942 5.09401 13.8461C5.02128 13.7926 4.93746 13.758 4.85047 13.7432L4.6829 14.7291ZM3.30707 14.4995L4.68437 14.7294L4.849 13.743L3.4717 13.5131L3.30707 14.4995ZM2 12.956C2 13.7201 2.55192 14.3745 3.30778 14.4996L3.471 13.513C3.1998 13.4681 3 13.2328 3 12.956H2ZM2 11.093V12.956H3V11.093H2ZM3.30866 9.54943C2.55265 9.67405 2 10.3282 2 11.093H3C3 10.8161 3.19991 10.5809 3.47129 10.5361L3.30866 9.54943ZM4.68322 9.32084L3.30795 9.54955L3.472 10.536L4.84727 10.3073L4.68322 9.32084ZM4.33628 9.63349C4.3602 9.55714 4.39784 9.50311 4.42516 9.47057C4.4543 9.43586 4.48464 9.4101 4.51159 9.39127C4.56551 9.3536 4.62393 9.33091 4.6815 9.32113L4.849 10.307C4.93324 10.2927 5.01394 10.2602 5.08438 10.211C5.14143 10.1711 5.24314 10.0838 5.29054 9.93248L4.33628 9.63349ZM4.89829 8.28086C4.66883 8.7166 4.48037 9.16856 4.33582 9.63496L5.291 9.931C5.41681 9.52507 5.58138 9.12988 5.78311 8.7468L4.89829 8.28086ZM4.92368 8.74841C4.88495 8.694 4.85906 8.63038 4.84897 8.56194C4.84029 8.50301 4.83742 8.39632 4.8984 8.28066L5.783 8.747C5.85044 8.61906 5.84986 8.49471 5.83829 8.41617C5.82532 8.32813 5.79136 8.24298 5.73839 8.16855L4.92368 8.74841ZM4.11056 7.60925L4.92407 8.74897L5.738 8.168L4.92449 7.02828L4.11056 7.60925ZM4.27789 5.59489C3.73709 6.13569 3.66779 6.9866 4.11004 7.60852L4.925 7.029C4.76461 6.80345 4.79048 6.49652 4.985 6.302L4.27789 5.59489ZM5.59589 4.27689L4.27789 5.59489L4.985 6.302L6.303 4.984L5.59589 4.27689ZM7.61127 4.11029C6.98958 3.66623 6.13667 3.73612 5.59589 4.27689L6.303 4.984C6.49776 4.78924 6.80572 4.7638 7.03003 4.92402L7.61127 4.11029ZM8.75018 4.92394L7.61131 4.11031L7.03 4.924L8.16887 5.73762L8.75018 4.92394ZM8.28287 4.89776C8.39589 4.83851 8.5013 4.8397 8.56413 4.8491C8.63477 4.85967 8.69828 4.8867 8.75104 4.92456L8.168 5.737C8.2886 5.82355 8.51611 5.90457 8.74719 5.78343L8.28287 4.89776ZM9.63393 4.33615C9.16873 4.48067 8.71698 4.66915 8.28206 4.89818L8.748 5.783C9.1304 5.58163 9.5256 5.41695 9.93062 5.29112L9.63393 4.33615ZM9.32191 4.68379C9.33345 4.6163 9.36098 4.55291 9.40201 4.49819C9.43747 4.45089 9.51025 4.37468 9.63354 4.33626L9.931 5.291C10.0677 5.2484 10.1547 5.16122 10.2021 5.09809C10.255 5.02753 10.292 4.94343 10.3076 4.85228L9.32191 4.68379ZM9.55076 3.30666L9.32153 4.68606L10.308 4.85L10.5372 3.47059L9.55076 3.30666ZM11.094 2C10.329 2 9.67819 2.55314 9.551 3.30525L10.537 3.472C10.5831 3.19912 10.8189 3 11.094 3V2ZM12.958 2H11.094V3H12.958V2ZM14.5012 3.30666C14.3739 2.55355 13.7234 2 12.958 2V3C13.2327 3 13.4688 3.19871 13.5152 3.47341L14.5012 3.30666ZM14.7305 4.68622L14.5015 3.30807L13.515 3.472L13.744 4.85016L14.7305 4.68622ZM14.4162 4.33589C14.535 4.37236 14.6101 4.44528 14.6513 4.50088C14.6958 4.56083 14.7204 4.62559 14.7305 4.68638L13.744 4.85C13.7681 4.99526 13.871 5.2145 14.1226 5.2918L14.4162 4.33589ZM15.7705 4.89901C15.3398 4.67161 14.8874 4.48342 14.4188 4.33669L14.12 5.291C14.5311 5.41971 14.9272 5.58455 15.3036 5.78332L15.7705 4.89901ZM15.3026 4.92368C15.3537 4.88731 15.4157 4.86058 15.4856 4.84983C15.5466 4.84045 15.6546 4.83764 15.7711 4.89933L15.303 5.783C15.4316 5.85113 15.5571 5.85059 15.6376 5.83821C15.727 5.82446 15.8107 5.78944 15.8825 5.73839L15.3026 4.92368ZM16.4409 4.11117L15.302 4.92407L15.883 5.738L17.0219 4.9251L16.4409 4.11117ZM18.456 4.2788C17.9164 3.73645 17.0622 3.66741 16.4408 4.11127L17.022 4.925C17.2469 4.76432 17.5548 4.79082 17.7471 4.98409L18.456 4.2788ZM19.7732 5.59599L18.4551 4.27789L17.748 4.985L19.0661 6.30309L19.7732 5.59599ZM19.941 7.61182C20.3839 6.98901 20.3157 6.13571 19.7723 5.59508L19.067 6.304C19.2608 6.49683 19.288 6.80464 19.1261 7.03229L19.941 7.61182ZM19.1269 8.749L19.9401 7.61312L19.127 7.031L18.3138 8.16688L19.1269 8.749ZM19.1518 8.28017C19.2119 8.3931 19.2112 8.49899 19.2018 8.56263C19.1913 8.63367 19.1643 8.69646 19.1277 8.74788L18.313 8.168C18.2279 8.28751 18.145 8.51675 18.269 8.74989L19.1518 8.28017ZM19.7137 9.63457C19.5691 9.1679 19.3813 8.71586 19.1528 8.28206L18.268 8.748C18.4683 9.12828 18.6324 9.52351 18.7586 9.9306L19.7137 9.63457ZM19.3675 9.32197C19.4341 9.33334 19.4947 9.36003 19.5462 9.39755C19.5723 9.41655 19.6012 9.44204 19.6288 9.47577C19.6547 9.50745 19.6903 9.55973 19.7133 9.63318L18.759 9.932C18.8049 10.0786 18.9018 10.1653 18.9576 10.206C19.0256 10.2555 19.1078 10.2921 19.1991 10.3077L19.3675 9.32197ZM20.7436 9.55164L19.3656 9.32164L19.201 10.308L20.579 10.538L20.7436 9.55164ZM17.8043 10.2294C17.9814 10.7952 18.4655 11.1969 19.0327 11.2937L19.201 10.308C18.9887 10.2718 18.819 10.1235 18.7586 9.93061L17.8043 10.2294ZM17.3843 9.21601C17.5549 9.54011 17.6955 9.87849 17.8038 10.228L18.759 9.932C18.6323 9.52308 18.468 9.12787 18.2691 8.75008L17.3843 9.21601ZM17.4991 7.587C17.1624 8.05997 17.105 8.69173 17.3854 9.21809L18.268 8.748C18.1735 8.57055 18.1874 8.34448 18.3138 8.16688L17.4991 7.587ZM18.313 6.45018L17.4999 7.58588L18.313 8.168L19.1261 7.0323L18.313 6.45018ZM18.3608 7.01199C18.2035 6.85552 18.194 6.61742 18.312 6.45147L19.127 7.031C19.2826 6.81219 19.2673 6.5033 19.0661 6.30312L18.3608 7.01199ZM17.04 5.6912L18.3599 7.01111L19.067 6.304L17.7471 4.98409L17.04 5.6912ZM17.6031 5.73883C17.4365 5.85781 17.1973 5.8493 17.0391 5.69029L17.748 4.985C17.5481 4.78412 17.2392 4.76988 17.0219 4.92509L17.6031 5.73883ZM16.4634 6.55232L17.603 5.73893L17.022 4.925L15.8825 5.73839L16.4634 6.55232ZM14.8355 6.66699C15.3611 6.9454 15.9909 6.88866 16.4629 6.5527L15.883 5.738C15.7069 5.86332 15.4818 5.87774 15.3036 5.78332L14.8355 6.66699ZM13.8241 6.2462C14.1743 6.35586 14.5141 6.49728 14.8361 6.6673L15.303 5.783C14.9268 5.58439 14.5307 5.41961 14.1229 5.29189L13.8241 6.2462ZM12.7575 5.01378C12.8522 5.58494 13.2571 6.07242 13.8269 6.24709L14.12 5.291C13.9279 5.23211 13.7793 5.06264 13.744 4.85016L12.7575 5.01378ZM12.5288 3.63734L12.7575 5.01393L13.744 4.85L13.5152 3.47341L12.5288 3.63734ZM12.958 4C12.7377 4 12.563 3.83951 12.529 3.63875L13.515 3.472C13.4702 3.20682 13.2408 3 12.958 3V4ZM11.094 4H12.958V3H11.094V4ZM11.5232 3.63738C11.4879 3.84612 11.3077 4 11.094 4V3C10.8178 3 10.583 3.2002 10.5372 3.47056L11.5232 3.63738ZM11.2941 5.01612L11.5235 3.63594L10.537 3.472L10.3076 4.85218L11.2941 5.01612ZM10.2281 6.24585C10.7936 6.06965 11.1967 5.58691 11.2937 5.0183L10.308 4.85C10.2718 5.06191 10.1237 5.23095 9.93062 5.29112L10.2281 6.24585ZM9.21315 6.66823C9.54289 6.49459 9.88152 6.35352 10.2277 6.24597L9.931 5.291C9.52445 5.41731 9.12929 5.58222 8.74721 5.78341L9.21315 6.66823ZM7.58582 6.55006C8.05751 6.88857 8.68726 6.94397 9.21236 6.66864L8.748 5.783C8.5673 5.87774 8.34216 5.86199 8.16887 5.73762L7.58582 6.55006ZM6.44873 5.73771L7.58669 6.55069L8.168 5.737L7.03003 4.92402L6.44873 5.73771ZM7.0101 5.69111C6.8582 5.84301 6.62111 5.86084 6.44876 5.73773L7.03 4.924C6.80685 4.76461 6.49874 4.78827 6.303 4.984L7.0101 5.69111ZM5.69211 7.00911L7.01011 5.69111L6.303 4.984L4.985 6.302L5.69211 7.00911ZM5.73945 6.44876C5.86068 6.61926 5.84476 6.85645 5.6921 7.00911L4.985 6.302C4.78818 6.49881 4.7665 6.8061 4.92448 7.02827L5.73945 6.44876ZM6.55232 7.58758L5.73893 6.44803L4.925 7.029L5.73839 8.16854L6.55232 7.58758ZM6.66771 9.21314C6.94403 8.68898 6.88855 8.05997 6.5527 7.58812L5.738 8.168C5.86262 8.34309 5.87725 8.56821 5.78311 8.7468L6.66771 9.21314ZM6.24574 10.2284C6.35357 9.88053 6.49447 9.54212 6.66782 9.21294L5.783 8.747C5.58194 9.12881 5.41715 9.52398 5.29057 9.93239L6.24574 10.2284ZM5.01477 11.2932C5.58436 11.1964 6.0683 10.7951 6.24531 10.2298L5.291 9.931C5.23113 10.1222 5.06252 10.2707 4.84728 10.3073L5.01477 11.2932ZM3.63535 11.5226L5.01305 11.2935L4.849 10.307L3.4713 10.5361L3.63535 11.5226ZM4 11.093C4 11.3014 3.84963 11.4872 3.63465 11.5227L3.47199 10.536C3.19542 10.5816 3 10.8206 3 11.093H4ZM4 12.956V11.093H3V12.956H4ZM3.63494 12.5265C3.85057 12.5622 4 12.7484 4 12.956H3C3 13.2275 3.19463 13.4673 3.47169 13.5131L3.63494 12.5265ZM5.01507 12.7569L3.63563 12.5266L3.471 13.513L4.85043 13.7432L5.01507 12.7569ZM6.24585 13.8229C6.0694 13.2566 5.5859 12.8539 5.0165 12.7571L4.849 13.743C5.06196 13.7792 5.23096 13.9273 5.29112 14.1204L6.24585 13.8229ZM6.66671 14.8369C6.49518 14.5111 6.35447 14.1725 6.24597 13.8233L5.291 14.12C5.4179 14.5285 5.58223 14.9236 5.78189 15.3028L6.66671 14.8369ZM6.55102 16.4638C6.88745 15.9912 6.94311 15.3612 6.6666 14.8367L5.782 15.303C5.87617 15.4816 5.86172 15.7078 5.73632 15.8839L6.55102 16.4638ZM5.73654 17.6025L6.55035 16.4648L5.737 15.883L4.92319 17.0207L5.73654 17.6025ZM5.68921 17.039C5.84232 17.1913 5.85996 17.4297 5.73673 17.6022L4.923 17.021C4.76374 17.244 4.78711 17.5521 4.98389 17.7479L5.68921 17.039ZM7.01001 18.3598L5.69011 17.0399L4.983 17.747L6.30291 19.0669L7.01001 18.3598ZM6.44689 18.3122C6.61347 18.1932 6.85273 18.2017 7.01093 18.3607L6.302 19.066C6.50184 19.2669 6.81084 19.2811 7.02814 19.1259L6.44689 18.3122ZM7.58658 17.4987L6.44703 18.3121L7.028 19.126L8.16754 18.3126L7.58658 17.4987ZM9.21264 17.383C8.68752 17.1077 8.05941 17.1621 7.58712 17.4983L8.167 18.313C8.3414 18.1889 8.56651 18.1734 8.74827 18.2687L9.21264 17.383ZM10.2259 17.8048C9.87573 17.6951 9.53592 17.5537 9.21391 17.3837L8.747 18.268C9.12316 18.4666 9.51926 18.6314 9.92712 18.7591L10.2259 17.8048ZM11.2925 19.0382C11.1982 18.4668 10.7935 17.9788 10.2231 17.8039L9.93 18.76C10.1223 18.8189 10.2708 18.9885 10.3058 19.201L11.2925 19.0382ZM11.5225 20.415L11.2923 19.0373L10.306 19.202L10.5361 20.5798L11.5225 20.415ZM11.092 20.051C11.3083 20.051 11.4882 20.208 11.5226 20.4158L10.536 20.579C10.5806 20.8488 10.8137 21.051 11.092 21.051V20.051ZM12.956 20.051H11.092V21.051H12.956V20.051ZM12.5269 20.414C12.5631 20.2009 12.7463 20.051 12.956 20.051V21.051C13.2283 21.051 13.4664 20.8547 13.5128 20.5814L12.5269 20.414ZM12.7565 19.0383L12.5266 20.4154L13.513 20.58L13.7429 19.2029L12.7565 19.0383ZM13.8219 17.8051C13.2546 17.9819 12.8508 18.4671 12.7563 19.0392L13.743 19.202C13.7781 18.9896 13.9258 18.8202 14.1194 18.7599L13.8219 17.8051ZM14.8368 17.3828C14.5071 17.5564 14.1685 17.6975 13.8223 17.805L14.119 18.76C14.5255 18.6337 14.9207 18.4688 15.3028 18.2676L14.8368 17.3828ZM16.4642 17.5009C15.9925 17.1624 15.3627 17.107 14.8376 17.3824L15.302 18.268C15.4827 18.1733 15.7078 18.189 15.8811 18.3134L16.4642 17.5009ZM17.6016 18.3135L16.4633 17.5003L15.882 18.314L17.0203 19.1272L17.6016 18.3135ZM17.0399 18.3599C17.1895 18.2103 17.4277 18.1891 17.6019 18.3137L17.02 19.127C17.2456 19.2884 17.5525 19.2615 17.747 19.067L17.0399 18.3599ZM18.3579 17.0419L17.0399 18.3599L17.747 19.067L19.065 17.749L18.3579 17.0419ZM18.3115 17.6036C18.1881 17.4311 18.207 17.1928 18.3579 17.0419L19.065 17.749C19.2608 17.5532 19.2854 17.2461 19.1248 17.0217L18.3115 17.6036ZM17.497 16.4635L18.3113 17.6033L19.125 17.022L18.3107 15.8822L17.497 16.4635ZM17.3823 14.8379C17.106 15.3619 17.1618 15.9897 17.4957 16.4616L18.312 15.884C18.1871 15.7075 18.1729 15.4824 18.2669 15.3042L17.3823 14.8379ZM17.8041 13.8239C17.6965 14.1705 17.5554 14.5092 17.3822 14.8381L18.267 15.304C18.4678 14.9227 18.6327 14.5275 18.7591 14.1206L17.8041 13.8239ZM19.0369 12.7586C18.4668 12.8531 17.9809 13.2567 17.8043 13.8235L18.759 14.121C18.819 13.9283 18.989 13.7802 19.2005 13.7451L19.0369 12.7586ZM20.4151 12.5285L19.0364 12.7586L19.201 13.745L20.5797 13.5149L20.4151 12.5285ZM20.05 12.958C20.05 12.7539 20.196 12.5648 20.4158 12.5284L20.579 13.515C20.8588 13.4687 21.05 13.226 21.05 12.958H20.05ZM20.05 11.095V12.958H21.05V11.095H20.05ZM20.4105 11.5237C20.2042 11.4879 20.05 11.3083 20.05 11.095H21.05C21.05 10.8183 20.8507 10.5851 20.5813 10.5384L20.4105 11.5237ZM19.0345 11.294L20.4136 11.5242L20.5782 10.5379L19.1992 10.3077L19.0345 11.294ZM16.0717 11.9974C16.0717 9.77812 14.273 7.9794 12.0537 7.9794V8.9794C13.7207 8.9794 15.0717 10.3304 15.0717 11.9974H16.0717ZM12.0537 16.0154C14.273 16.0154 16.0717 14.2167 16.0717 11.9974H15.0717C15.0717 13.6644 13.7207 15.0154 12.0537 15.0154V16.0154ZM8.0357 11.9974C8.0357 14.2167 9.83441 16.0154 12.0537 16.0154V15.0154C10.3867 15.0154 9.0357 13.6644 9.0357 11.9974H8.0357ZM12.0537 7.9794C9.83441 7.9794 8.0357 9.77811 8.0357 11.9974H9.0357C9.0357 10.3304 10.3867 8.9794 12.0537 8.9794V7.9794ZM10.0357 11.9974C10.0357 10.8827 10.939 9.9794 12.0537 9.9794V8.9794C10.3867 8.9794 9.0357 10.3304 9.0357 11.9974H10.0357ZM12.0537 14.0154C10.939 14.0154 10.0357 13.1121 10.0357 11.9974H9.0357C9.0357 13.6644 10.3867 15.0154 12.0537 15.0154V14.0154ZM14.0717 11.9974C14.0717 13.1121 13.1684 14.0154 12.0537 14.0154V15.0154C13.7207 15.0154 15.0717 13.6644 15.0717 11.9974H14.0717ZM12.0537 9.9794C13.1684 9.9794 14.0717 10.8827 14.0717 11.9974H15.0717C15.0717 10.3304 13.7207 8.9794 12.0537 8.9794V9.9794Z" fill="currentcolor"/>
</svg>
