<svg width="24" height="24" viewBox="0 0 24 24" fill="none" xmlns="http://www.w3.org/2000/svg">
<path fill-rule="evenodd" clip-rule="evenodd" d="M20.6613 10.0448L20.6624 10.045C21.1749 10.1317 21.55 10.575 21.55 11.095V12.958C21.55 13.4785 21.1741 13.9233 20.6613 14.0082L19.2828 14.2383C19.2579 14.2424 19.2403 14.2572 19.2365 14.2693C19.1012 14.7048 18.9246 15.1283 18.7093 15.5372C18.7027 15.5496 18.7047 15.5733 18.7188 15.5933L19.5316 16.731C19.8348 17.1548 19.7866 17.7345 19.4186 18.1026L18.1006 19.4206C17.7325 19.7886 17.1528 19.8368 16.7293 19.5338L15.5905 18.7202C15.5703 18.7057 15.5475 18.7038 15.535 18.7104C15.1263 18.9256 14.7028 19.1022 14.2677 19.2374C14.2547 19.2414 14.2405 19.2583 14.2362 19.2843L14.0059 20.6637C13.9191 21.1753 13.4756 21.551 12.956 21.551H11.092C10.5714 21.551 10.1276 21.174 10.0428 20.6614L9.81267 19.2834C9.8085 19.2581 9.79446 19.2414 9.7806 19.2372C9.34074 19.0994 8.91651 18.9229 8.51482 18.7108C8.5012 18.7037 8.47765 18.7056 8.45748 18.72L7.31862 19.5329C6.89545 19.8351 6.31437 19.7874 5.94845 19.4196L4.63036 18.1015C4.26163 17.7346 4.21387 17.1536 4.51633 16.7301L5.32965 15.5931C5.34423 15.5726 5.3462 15.5485 5.33959 15.536C5.12553 15.1295 4.94947 14.706 4.81363 14.2687C4.80946 14.2553 4.79183 14.2405 4.76668 14.2362L3.38939 14.0063C2.87586 13.9213 2.5 13.4765 2.5 12.956V11.093C2.5 10.5721 2.87628 10.1274 3.38997 10.0428L4.76525 9.81406C4.79192 9.80953 4.80982 9.79445 4.81341 9.78298C4.94859 9.34682 5.1251 8.92324 5.3407 8.51383C5.34717 8.50156 5.34527 8.47849 5.33104 8.45848L4.51752 7.31876C4.2162 6.89502 4.26379 6.31611 4.63145 5.94845L5.94945 4.63045C6.31721 4.26268 6.89765 4.21501 7.32065 4.51716L8.45952 5.33078C8.47974 5.34529 8.50246 5.34718 8.51503 5.34059C8.92369 5.12539 9.34716 4.94881 9.78227 4.81363C9.79572 4.80944 9.81072 4.7917 9.81476 4.76803L10.044 3.38863C10.1307 2.87613 10.574 2.5 11.094 2.5H12.958C13.478 2.5 13.9213 2.87613 14.0082 3.39003L14.2373 4.76819C14.2413 4.79277 14.2555 4.80957 14.2694 4.81384C14.7093 4.95156 15.1335 5.12808 15.5371 5.34116C15.5492 5.3476 15.5719 5.34572 15.5925 5.33104L16.7314 4.51813C17.1546 4.21587 17.7356 4.26363 18.1016 4.63145L19.4196 5.94954C19.7883 6.31627 19.8359 6.89682 19.5336 7.32206L18.7204 8.45794C18.7054 8.47888 18.7035 8.50208 18.7104 8.51503C18.9248 8.92207 19.1008 9.34571 19.2362 9.78259C19.24 9.79495 19.2586 9.81061 19.2833 9.81482L20.6613 10.0448ZM19.1169 10.8009C18.7271 10.7343 18.4002 10.4593 18.2814 10.08C18.1639 9.70079 18.0115 9.33399 17.8267 8.98305C17.6393 8.63114 17.6749 8.20223 17.9064 7.87694L18.7195 6.74124C18.7383 6.71481 18.7354 6.67941 18.7134 6.65755L17.3935 5.33764C17.3727 5.31671 17.3378 5.31385 17.3125 5.33196L16.1729 6.14535C15.8489 6.37599 15.4214 6.41157 15.0695 6.22515C14.7205 6.04084 14.3525 5.88774 13.9735 5.76905C13.5925 5.65227 13.3158 5.32379 13.2508 4.93197L13.022 3.55537C13.0166 3.52316 12.9893 3.5 12.958 3.5H11.094C11.0627 3.5 11.0354 3.52316 11.0302 3.55397L10.8009 4.93415C10.7342 5.32441 10.4587 5.6503 10.0793 5.76849C9.70299 5.88541 9.33609 6.0384 8.98018 6.22582C8.62728 6.41086 8.19984 6.37528 7.87735 6.14384L6.73938 5.33087C6.71398 5.31272 6.67847 5.31564 6.65655 5.33755L5.33855 6.65555C5.31647 6.67763 5.31359 6.71268 5.33196 6.73852L6.14535 7.87806C6.37559 8.20153 6.41064 8.6286 6.22541 8.97997C6.03821 9.33547 5.88536 9.70225 5.76815 10.0804C5.64971 10.4587 5.32344 10.7336 4.93103 10.8002L3.55332 11.0293C3.52253 11.0344 3.5 11.061 3.5 11.093V12.956C3.5 12.988 3.5226 13.0147 3.55332 13.0198L4.93275 13.2501C5.32393 13.3165 5.65018 13.5919 5.76849 13.9717C5.88619 14.3505 6.03871 14.7174 6.2243 15.0698C6.40964 15.4214 6.37459 15.8495 6.14367 16.1739L5.32987 17.3116C5.31185 17.3368 5.31471 17.3717 5.33655 17.3934L6.65646 18.7134C6.67728 18.7343 6.71215 18.7372 6.73752 18.719L7.87706 17.9056C8.2004 17.6755 8.62701 17.6405 8.98046 17.8258C9.32954 18.0102 9.69749 18.1633 10.0765 18.282C10.4579 18.3988 10.7345 18.7277 10.7992 19.1196L11.0293 20.4974C11.0344 20.5284 11.061 20.551 11.092 20.551H12.956C12.9873 20.551 13.0147 20.5278 13.0198 20.4977L13.2497 19.1206C13.3144 18.7284 13.5902 18.401 13.9707 18.2825C14.347 18.1656 14.7139 18.0126 15.0698 17.8252C15.4227 17.6401 15.8502 17.6757 16.1727 17.9072L17.311 18.7204C17.3366 18.7387 17.371 18.7359 17.3934 18.7134L18.7114 17.3954C18.7339 17.373 18.7367 17.3386 18.7182 17.3127L17.9038 16.1728C17.6744 15.8486 17.6395 15.4222 17.8246 15.071C18.0116 14.7159 18.1646 14.349 18.2816 13.9723C18.4 13.5925 18.7279 13.3166 19.1187 13.2518L20.4974 13.0217C20.5274 13.0167 20.55 12.99 20.55 12.958V11.095C20.55 11.0633 20.5274 11.0365 20.4959 11.031L19.1169 10.8009ZM12.0537 8.4794C13.9968 8.4794 15.5717 10.0543 15.5717 11.9974C15.5717 13.9405 13.9968 15.5154 12.0537 15.5154C10.1106 15.5154 8.5357 13.9405 8.5357 11.9974C8.5357 10.0543 10.1106 8.4794 12.0537 8.4794ZM12.0537 9.4794C10.6628 9.4794 9.5357 10.6065 9.5357 11.9974C9.5357 13.3883 10.6628 14.5154 12.0537 14.5154C13.4446 14.5154 14.5717 13.3883 14.5717 11.9974C14.5717 10.6065 13.4446 9.4794 12.0537 9.4794Z" fill="currentcolor"/>
</svg>
