<svg width="24" height="24" viewBox="0 0 24 24" fill="none" xmlns="http://www.w3.org/2000/svg">
<path fill-rule="evenodd" clip-rule="evenodd" d="M11.8952 23.2751C8.08766 23.2751 5.0004 20.1879 5.0004 16.3803C5.0004 12.7821 7.75757 9.82711 11.2742 9.5131V7.18552L9.65461 8.80513C9.4415 9.01825 9.08359 9.00587 8.8552 8.77748C8.62682 8.54909 8.61444 8.19119 8.82755 7.97807L10.4929 6.31274H8.13773C7.83635 6.31274 7.59202 6.05091 7.59202 5.72792C7.59202 5.40494 7.83635 5.1431 8.13773 5.1431H10.4929L8.82755 3.47775C8.61443 3.26464 8.62681 2.90673 8.8552 2.67835C9.08359 2.44996 9.44149 2.43758 9.65461 2.65069L11.2742 4.27032V2.54569C11.2742 2.2443 11.5361 1.99998 11.8591 1.99998C12.182 1.99998 12.4439 2.2443 12.4439 2.54569V4.36176L14.155 2.65067C14.3681 2.43756 14.726 2.44994 14.9544 2.67833C15.1827 2.90671 15.1951 3.26462 14.982 3.47773L13.3166 5.1431H15.6718C15.9732 5.1431 16.2175 5.40494 16.2175 5.72792C16.2175 6.05091 15.9732 6.31274 15.6718 6.31274H13.3167L14.982 7.9781C15.1951 8.19121 15.1827 8.54911 14.9544 8.7775C14.726 9.00589 14.3681 9.01827 14.1549 8.80516L12.4439 7.09408V9.50703C15.995 9.78667 18.79 12.7574 18.79 16.3803C18.79 20.1879 15.7028 23.2751 11.8952 23.2751ZM11.8952 10.7597C8.7914 10.7597 6.27463 13.2765 6.27463 16.3803C6.27463 19.4842 8.7914 22.0009 11.8952 22.0009C14.999 22.0009 17.5158 19.4842 17.5158 16.3803C17.5158 13.2765 14.999 10.7597 11.8952 10.7597Z" fill="currentcolor"/>
</svg>
