<svg width="24" height="24" viewBox="0 0 24 24" fill="none" xmlns="http://www.w3.org/2000/svg">
<path fill-rule="evenodd" clip-rule="evenodd" d="M11.8942 23.2751C8.08669 23.2751 4.99943 20.1879 4.99943 16.3803C4.99943 12.7821 7.7566 9.82711 11.2733 9.5131V7.18552L9.65364 8.80513C9.44052 9.01825 9.08261 9.00587 8.85423 8.77748C8.62584 8.54909 8.61346 8.19119 8.82657 7.97807L10.4919 6.31274H8.13676C7.83537 6.31274 7.59105 6.05091 7.59105 5.72792C7.59105 5.40494 7.83537 5.1431 8.13676 5.1431H10.4919L8.82657 3.47775C8.61346 3.26464 8.62584 2.90673 8.85422 2.67835C9.08261 2.44996 9.44052 2.43758 9.65363 2.65069L11.2733 4.27032V2.54569C11.2733 2.2443 11.5351 1.99998 11.8581 1.99998C12.1811 1.99998 12.4429 2.2443 12.4429 2.54569V4.36176L14.154 2.65067C14.3671 2.43756 14.725 2.44994 14.9534 2.67833C15.1818 2.90671 15.1942 3.26462 14.981 3.47773L13.3157 5.1431H15.6708C15.9722 5.1431 16.2166 5.40494 16.2166 5.72792C16.2166 6.05091 15.9722 6.31274 15.6708 6.31274H13.3157L14.981 7.9781C15.1941 8.19121 15.1818 8.54911 14.9534 8.7775C14.725 9.00589 14.3671 9.01827 14.154 8.80516L12.4429 7.09408V9.50703C15.994 9.78667 18.7891 12.7574 18.7891 16.3803C18.7891 20.1879 15.7018 23.2751 11.8942 23.2751ZM11.8942 10.7597C8.79042 10.7597 6.27365 13.2765 6.27365 16.3803C6.27365 19.4842 8.79042 22.0009 11.8942 22.0009C14.9981 22.0009 17.5148 19.4842 17.5148 16.3803C17.5148 13.2765 14.9981 10.7597 11.8942 10.7597Z" fill="currentcolor"/>
</svg>
