<svg width="24" height="24" viewBox="0 0 24 24" fill="none" xmlns="http://www.w3.org/2000/svg">
<path fill-rule="evenodd" clip-rule="evenodd" d="M19.1059 4.34709L14.2368 9.21618C12.9371 8.01417 11.1988 7.27957 9.2891 7.27957C5.26381 7.27957 2 10.5434 2 14.5687C2 18.594 5.26381 21.8578 9.2891 21.8578C13.3144 21.8578 16.5782 18.594 16.5782 14.5687C16.5782 12.9386 16.043 11.4334 15.1387 10.2193L20.0584 5.29962V10.4103C20.0584 10.7823 20.36 11.0839 20.732 11.0839C21.1039 11.0839 21.4055 10.7823 21.4055 10.4103V3.67354C21.4055 3.30156 21.1039 3 20.732 3H13.9952C13.6232 3 13.3216 3.30156 13.3216 3.67354C13.3216 4.04553 13.6232 4.34709 13.9952 4.34709H19.1059ZM15.2311 14.5687C15.2311 17.85 12.5704 20.5107 9.2891 20.5107C6.00778 20.5107 3.34709 17.85 3.34709 14.5687C3.34709 11.2874 6.00778 8.62666 9.2891 8.62666C12.5704 8.62666 15.2311 11.2874 15.2311 14.5687ZM12.9545 11.1222H11.2135L9.3045 16.2383L7.3955 11.1222H5.6545V18.3153H6.89662V12.9447L8.67835 17.6891H9.93065L11.7124 12.9447V18.3153H12.9545V11.1222Z" fill="currentcolor"/>
</svg>
