<svg width="24" height="24" viewBox="0 0 24 24" fill="none" xmlns="http://www.w3.org/2000/svg">
<path fill-rule="evenodd" clip-rule="evenodd" d="M18.7896 8.89482C18.7896 5.08726 15.7024 2 11.8948 2C8.08726 2 5 5.08726 5 8.89482C5 12.5177 7.79506 15.4885 11.3462 15.7681V18.9624H8.11822C7.81683 18.9624 7.57251 19.2242 7.57251 19.5472C7.57251 19.8702 7.81683 20.132 8.11822 20.132H11.3462V22.7294C11.3462 23.0308 11.608 23.2751 11.931 23.2751C12.254 23.2751 12.5158 23.0308 12.5158 22.7294V20.132H15.6523C15.9537 20.132 16.198 19.8702 16.198 19.5472C16.198 19.2242 15.9537 18.9624 15.6523 18.9624H12.5158V15.762C16.0325 15.448 18.7896 12.4931 18.7896 8.89482ZM17.5154 8.89482C17.5154 11.9986 14.9986 14.5154 11.8948 14.5154C8.79099 14.5154 6.27422 11.9986 6.27422 8.89482C6.27422 5.79099 8.79099 3.27422 11.8948 3.27422C14.9986 3.27422 17.5154 5.79099 17.5154 8.89482ZM9.5 5.3V12.8894H10.8643V9.72041H14.4092V8.46895H10.8643V6.55147H14.8818V5.3H9.5Z" fill="currentcolor"/>
</svg>
