<svg width="24" height="24" viewBox="0 0 24 24" fill="none" xmlns="http://www.w3.org/2000/svg">
<path fill-rule="evenodd" clip-rule="evenodd" d="M15.3582 3.44825C16.3578 4.25915 16.2064 5.38881 15.5064 6.24964C15.2122 6.6122 14.8088 6.92998 14.3191 7.21156H18.693C19.8044 7.21156 20.712 8.11871 20.712 9.23056V9.98756C20.712 10.8815 20.1244 11.6432 19.316 11.9069V18.3516C19.316 19.6719 18.2449 20.7426 16.924 20.7426H7.037C5.71605 20.7426 4.645 19.6719 4.645 18.3516V11.9068C3.83694 11.6432 3.25 10.8815 3.25 9.98756V9.23056C3.25 8.11863 4.15665 7.21156 5.268 7.21156H9.6414C9.1518 6.93001 8.74824 6.61222 8.4535 6.24943C7.75448 5.38718 7.60358 4.25889 8.60253 3.44857C9.63356 2.61051 10.6516 2.98828 11.3742 3.87959C11.6197 4.18212 11.8192 4.55309 11.9805 4.98076C12.1418 4.55309 12.3414 4.18211 12.5869 3.87959C13.3096 2.9881 14.3266 2.61062 15.3582 3.44825ZM11.4617 8.21156H5.268C4.70904 8.21156 4.25 8.67081 4.25 9.23056V9.98756C4.25 10.5464 4.70914 11.0056 5.268 11.0056H11.4801V8.24466L11.4606 8.24937L11.4617 8.21156ZM13.5243 6.50394C14.0557 6.23631 14.4724 5.93682 14.7303 5.61912C15.1267 5.13162 15.1972 4.60532 14.728 4.22472C14.2342 3.82372 13.784 3.99084 13.3636 4.50943C13.129 4.79849 12.9353 5.21449 12.7867 5.72362C12.6766 6.10061 12.5971 6.50648 12.5439 6.91551C12.8802 6.79809 13.2132 6.66068 13.5243 6.50394ZM12.4801 11.0056V8.24475L12.4993 8.24937L12.4981 8.21156H18.693C19.2523 8.21156 19.712 8.6711 19.712 9.23056V9.98756C19.712 10.5461 19.2521 11.0056 18.693 11.0056H12.4801ZM10.5977 4.50964C10.8321 4.79845 11.0256 5.21441 11.1741 5.72349C11.2841 6.10052 11.3635 6.50645 11.4165 6.91553C11.0799 6.79797 10.7467 6.66039 10.4352 6.50344C9.90427 6.23589 9.48771 5.93653 9.22997 5.61928C8.83426 5.13116 8.76392 4.60528 9.23289 4.22487C9.72635 3.82377 10.1773 3.99114 10.5977 4.50964ZM11.4801 19.7426V12.0056H5.645V18.3516C5.645 19.1195 6.26826 19.7426 7.037 19.7426H11.4801ZM12.4801 12.0056V19.7426H16.924C17.6927 19.7426 18.316 19.1195 18.316 18.3516V12.0056H12.4801Z" fill="currentcolor"/>
</svg>
