<svg width="24" height="24" viewBox="0 0 24 24" fill="none" xmlns="http://www.w3.org/2000/svg">
<path fill-rule="evenodd" clip-rule="evenodd" d="M15.3582 3.44825C16.3578 4.25915 16.2064 5.38881 15.5064 6.24964C15.2122 6.6122 14.8088 6.92998 14.3191 7.21156H18.693C19.8044 7.21156 20.712 8.11871 20.712 9.23056V9.98756C20.712 10.8815 20.1244 11.6432 19.316 11.9069V18.3516C19.316 19.6719 18.2449 20.7426 16.924 20.7426H7.037C5.71605 20.7426 4.645 19.6719 4.645 18.3516V11.9068C3.83694 11.6432 3.25 10.8815 3.25 9.98756V9.23056C3.25 8.11863 4.15665 7.21156 5.268 7.21156H9.6414C9.1518 6.93001 8.74824 6.61222 8.4535 6.24943C7.75448 5.38718 7.60358 4.25889 8.60253 3.44857C9.63356 2.61051 10.6516 2.98828 11.3742 3.87959C11.6197 4.18212 11.8192 4.55309 11.9805 4.98076C12.1418 4.55309 12.3414 4.18211 12.5869 3.87959C13.3096 2.9881 14.3266 2.61062 15.3582 3.44825ZM11.4617 8.21156H5.268C4.70904 8.21156 4.25 8.67081 4.25 9.23056V9.98756C4.25 10.5464 4.70914 11.0056 5.268 11.0056H11.4801V8.24466L11.4606 8.24937L11.4617 8.21156ZM13.5243 6.50394C14.0557 6.23631 14.4724 5.93682 14.7303 5.61912C15.1267 5.13162 15.1972 4.60532 14.728 4.22472C14.2342 3.82372 13.784 3.99084 13.3636 4.50943C13.129 4.79849 12.9353 5.21449 12.7867 5.72362C12.6766 6.10061 12.5971 6.50648 12.5439 6.91551C12.8802 6.79809 13.2132 6.66068 13.5243 6.50394ZM12.4801 11.0056V8.24475L12.4993 8.24937L12.4981 8.21156H18.693C19.2523 8.21156 19.712 8.6711 19.712 9.23056V9.98756C19.712 10.5461 19.2521 11.0056 18.693 11.0056H12.4801ZM10.5977 4.50964C10.8321 4.79845 11.0256 5.21441 11.1741 5.72349C11.2841 6.10052 11.3635 6.50645 11.4165 6.91553C11.0799 6.79797 10.7467 6.66039 10.4352 6.50344C9.90427 6.23589 9.48771 5.93653 9.22997 5.61928C8.83426 5.13116 8.76392 4.60528 9.23289 4.22487C9.72635 3.82377 10.1773 3.99114 10.5977 4.50964ZM11.4801 19.7426V12.0056H5.645V18.3516C5.645 19.1195 6.26826 19.7426 7.037 19.7426H11.4801ZM12.4801 12.0056V19.7426H16.924C17.6927 19.7426 18.316 19.1195 18.316 18.3516V12.0056H12.4801Z" fill="currentcolor"/>
<path d="M15.5064 6.24964L15.2349 6.02883L15.2347 6.02909L15.5064 6.24964ZM15.3582 3.44825L15.1376 3.71996L15.1377 3.72007L15.3582 3.44825ZM14.3191 7.21156L14.1447 6.90816L13.0085 7.56156H14.3191V7.21156ZM19.316 11.9069L19.2075 11.5741L18.966 11.6529V11.9069H19.316ZM4.645 11.9068H4.995V11.6529L4.75357 11.5741L4.645 11.9068ZM9.6414 7.21156V7.56156H10.9521L9.81588 6.90816L9.6414 7.21156ZM8.4535 6.24943L8.18162 6.46984L8.18185 6.47013L8.4535 6.24943ZM8.60253 3.44857L8.82302 3.72039L8.82329 3.72016L8.60253 3.44857ZM11.3742 3.87959L11.1023 4.10001L11.1024 4.10013L11.3742 3.87959ZM11.9805 4.98076L11.653 5.10424L11.9804 5.97257L12.3079 5.10431L11.9805 4.98076ZM12.5869 3.87959L12.8587 4.10013L12.8588 4.10001L12.5869 3.87959ZM11.4617 8.21156L11.8115 8.22218L11.8225 7.86156H11.4617V8.21156ZM11.4801 11.0056V11.3556H11.8301V11.0056H11.4801ZM11.4801 8.24466H11.8301V7.80011L11.398 7.90443L11.4801 8.24466ZM11.4606 8.24937L11.1107 8.23876L11.0968 8.69724L11.5427 8.5896L11.4606 8.24937ZM14.7303 5.61912L14.4587 5.39832L14.4585 5.39857L14.7303 5.61912ZM13.5243 6.50394L13.6818 6.81653L13.5243 6.50394ZM14.728 4.22472L14.5074 4.49643L14.5075 4.49654L14.728 4.22472ZM13.3636 4.50943L13.6354 4.72999L13.6355 4.72984L13.3636 4.50943ZM12.7867 5.72362L13.1227 5.82171V5.82171L12.7867 5.72362ZM12.5439 6.91551L12.1968 6.87037L12.1236 7.43296L12.6593 7.24595L12.5439 6.91551ZM12.4801 8.24475L12.5623 7.90453L12.1301 7.80015V8.24475H12.4801ZM12.4801 11.0056H12.1301V11.3556H12.4801V11.0056ZM12.4993 8.24937L12.4171 8.58959L12.8628 8.69724L12.8491 8.23891L12.4993 8.24937ZM12.4981 8.21156V7.86156H12.1375L12.1483 8.22203L12.4981 8.21156ZM11.1741 5.72349L10.8381 5.82149V5.82149L11.1741 5.72349ZM10.5977 4.50964L10.3258 4.73005L10.3259 4.7302L10.5977 4.50964ZM11.4165 6.91553L11.3011 7.24596L11.8365 7.43295L11.7636 6.87053L11.4165 6.91553ZM10.4352 6.50344L10.5927 6.19088V6.19088L10.4352 6.50344ZM9.22997 5.61928L8.95809 5.83969L8.95832 5.83998L9.22997 5.61928ZM9.23289 4.22487L9.45338 4.49669L9.45365 4.49647L9.23289 4.22487ZM11.4801 12.0056H11.8301V11.6556H11.4801V12.0056ZM11.4801 19.7426V20.0926H11.8301V19.7426H11.4801ZM5.645 12.0056V11.6556H5.295V12.0056H5.645ZM12.4801 19.7426H12.1301V20.0926H12.4801V19.7426ZM12.4801 12.0056V11.6556H12.1301V12.0056H12.4801ZM18.316 12.0056H18.666V11.6556H18.316V12.0056ZM15.778 6.47045C16.1644 5.99518 16.4192 5.42218 16.4197 4.83051C16.4202 4.22584 16.1543 3.64341 15.5787 3.17644L15.1377 3.72007C15.5617 4.064 15.72 4.45184 15.7197 4.82993C15.7193 5.22103 15.5484 5.64327 15.2349 6.02883L15.778 6.47045ZM14.4936 7.51497C15.0081 7.2191 15.4491 6.87565 15.7782 6.4702L15.2347 6.02909C14.9752 6.34875 14.6094 6.64087 14.1447 6.90816L14.4936 7.51497ZM14.3191 7.56156H18.693V6.86156H14.3191V7.56156ZM18.693 7.56156C19.6112 7.56156 20.362 8.31206 20.362 9.23056H21.062C21.062 7.92537 19.9977 6.86156 18.693 6.86156V7.56156ZM20.362 9.23056V9.98756H21.062V9.23056H20.362ZM20.362 9.98756C20.362 10.7247 19.8769 11.3558 19.2075 11.5741L19.4245 12.2396C20.3719 11.9307 21.062 11.0382 21.062 9.98756H20.362ZM18.966 11.9069V18.3516H19.666V11.9069H18.966ZM18.966 18.3516C18.966 19.4785 18.0518 20.3926 16.924 20.3926V21.0926C18.4381 21.0926 19.666 19.8653 19.666 18.3516H18.966ZM16.924 20.3926H7.037V21.0926H16.924V20.3926ZM7.037 20.3926C5.90922 20.3926 4.995 19.4785 4.995 18.3516H4.295C4.295 19.8653 5.52289 21.0926 7.037 21.0926V20.3926ZM4.995 18.3516V11.9068H4.295V18.3516H4.995ZM4.75357 11.5741C4.0846 11.3558 3.6 10.7249 3.6 9.98756H2.9C2.9 11.038 3.58928 11.9305 4.53643 12.2396L4.75357 11.5741ZM3.6 9.98756V9.23056H2.9V9.98756H3.6ZM3.6 9.23056C3.6 8.31177 4.35011 7.56156 5.268 7.56156V6.86156C3.96319 6.86156 2.9 7.92549 2.9 9.23056H3.6ZM5.268 7.56156H9.6414V6.86156H5.268V7.56156ZM9.81588 6.90816C9.35113 6.64089 8.98513 6.34874 8.72514 6.02873L8.18185 6.47013C8.51136 6.87571 8.95247 7.21912 9.46692 7.51497L9.81588 6.90816ZM8.72538 6.02902C8.41212 5.64261 8.24146 5.22027 8.24128 4.82936C8.24109 4.45147 8.39934 4.06406 8.82302 3.72039L8.38204 3.17675C7.80677 3.6434 7.54099 4.22529 7.54128 4.82969C7.54156 5.42107 7.79586 5.994 8.18162 6.46984L8.72538 6.02902ZM8.82329 3.72016C9.26886 3.35799 9.67536 3.28196 10.031 3.35786C10.4015 3.43694 10.7726 3.69333 11.1023 4.10001L11.6461 3.65917C11.2532 3.17454 10.754 2.79639 10.1771 2.67327C9.58526 2.54697 8.96723 2.70109 8.38176 3.17697L8.82329 3.72016ZM11.1024 4.10013C11.3186 4.36651 11.5014 4.70215 11.653 5.10424L12.308 4.85728C12.1371 4.40404 11.9208 3.99773 11.646 3.65905L11.1024 4.10013ZM12.3151 3.65905C12.0403 3.9977 11.824 4.40399 11.653 4.85722L12.3079 5.10431C12.4597 4.70218 12.6425 4.36652 12.8587 4.10013L12.3151 3.65905ZM15.5788 3.17654C14.9931 2.70101 14.3753 2.54689 13.7836 2.67321C13.2069 2.79635 12.7079 3.17452 12.315 3.65917L12.8588 4.10001C13.1886 3.69317 13.5595 3.43685 13.9298 3.35778C14.2852 3.28191 14.6916 3.35786 15.1376 3.71996L15.5788 3.17654ZM5.268 8.56156H11.4617V7.86156H5.268V8.56156ZM4.6 9.23056C4.6 8.86384 4.90261 8.56156 5.268 8.56156V7.86156C4.51547 7.86156 3.9 8.47778 3.9 9.23056H4.6ZM4.6 9.98756V9.23056H3.9V9.98756H4.6ZM5.268 10.6556C4.90244 10.6556 4.6 10.3531 4.6 9.98756H3.9C3.9 10.7397 4.51584 11.3556 5.268 11.3556V10.6556ZM11.4801 10.6556H5.268V11.3556H11.4801V10.6556ZM11.1301 8.24466V11.0056H11.8301V8.24466H11.1301ZM11.5427 8.5896L11.5622 8.58488L11.398 7.90443L11.3784 7.90915L11.5427 8.5896ZM11.1119 8.20095L11.1107 8.23876L11.8104 8.25999L11.8115 8.22218L11.1119 8.20095ZM14.4585 5.39857C14.2445 5.66226 13.8765 5.93469 13.3669 6.19135L13.6818 6.81653C14.2349 6.53792 14.7004 6.21138 15.002 5.83968L14.4585 5.39857ZM14.5075 4.49654C14.6658 4.62491 14.7082 4.75015 14.704 4.86939C14.6991 5.0069 14.6288 5.18915 14.4587 5.39832L15.0018 5.83993C15.2281 5.56159 15.3913 5.23693 15.4035 4.89427C15.4164 4.53333 15.2595 4.20513 14.9485 3.9529L14.5075 4.49654ZM13.6355 4.72984C13.8255 4.4954 13.9833 4.39162 14.1028 4.36186C14.1988 4.33797 14.3245 4.34793 14.5074 4.49643L14.9486 3.95301C14.6377 3.70051 14.2914 3.59353 13.9337 3.6826C13.5996 3.76579 13.3221 4.00487 13.0917 4.28902L13.6355 4.72984ZM13.1227 5.82171C13.2643 5.33645 13.4412 4.96919 13.6354 4.72999L13.0918 4.28888C12.8168 4.62778 12.6063 5.09254 12.4507 5.62552L13.1227 5.82171ZM12.891 6.96066C12.9423 6.56581 13.0186 6.17809 13.1227 5.82171L12.4507 5.62552C12.3346 6.02312 12.2519 6.44715 12.1968 6.87037L12.891 6.96066ZM13.3669 6.19135C13.0715 6.34015 12.7529 6.47182 12.4285 6.58507L12.6593 7.24595C13.0075 7.12436 13.3549 6.98121 13.6818 6.81653L13.3669 6.19135ZM12.1301 8.24475V11.0056H12.8301V8.24475H12.1301ZM12.5814 7.90916L12.5623 7.90453L12.3979 8.58496L12.4171 8.58959L12.5814 7.90916ZM12.1483 8.22203L12.1494 8.25984L12.8491 8.23891L12.848 8.2011L12.1483 8.22203ZM18.693 7.86156H12.4981V8.56156H18.693V7.86156ZM20.062 9.23056C20.062 8.47775 19.4455 7.86156 18.693 7.86156V8.56156C19.059 8.56156 19.362 8.86445 19.362 9.23056H20.062ZM20.062 9.98756V9.23056H19.362V9.98756H20.062ZM18.693 11.3556C19.4451 11.3556 20.062 10.7397 20.062 9.98756H19.362C19.362 10.3525 19.0592 10.6556 18.693 10.6556V11.3556ZM12.4801 11.3556H18.693V10.6556H12.4801V11.3556ZM11.5101 5.62548C11.3547 5.09254 11.1443 4.62779 10.8694 4.28909L10.3259 4.7302C10.5198 4.96911 10.6966 5.33627 10.8381 5.82149L11.5101 5.62548ZM11.7636 6.87053C11.7087 6.44725 11.6261 6.02314 11.5101 5.62548L10.8381 5.82149C10.9421 6.1779 11.0182 6.56565 11.0694 6.96054L11.7636 6.87053ZM10.2777 6.816C10.6049 6.9809 10.9526 7.12423 11.3011 7.24596L11.5319 6.5851C11.2073 6.47172 10.8884 6.33988 10.5927 6.19088L10.2777 6.816ZM8.95832 5.83998C9.25984 6.21111 9.725 6.53748 10.2777 6.816L10.5927 6.19088C10.0835 5.9343 9.71558 5.66194 9.50162 5.39858L8.95832 5.83998ZM9.0124 3.95306C8.7016 4.20517 8.54472 4.53315 8.55739 4.89396C8.56941 5.23647 8.73225 5.56112 8.95809 5.83969L9.50185 5.39887C9.33197 5.18932 9.26179 5.00697 9.25696 4.8694C9.25277 4.75015 9.29521 4.62499 9.45338 4.49669L9.0124 3.95306ZM10.8695 4.28923C10.6391 4.00502 10.3614 3.76599 10.0273 3.68277C9.6695 3.59369 9.32308 3.70052 9.01212 3.95328L9.45365 4.49647C9.63616 4.34812 9.76195 4.33808 9.85813 4.36203C9.97789 4.39186 10.1358 4.49576 10.3258 4.73005L10.8695 4.28923ZM11.1301 12.0056V19.7426H11.8301V12.0056H11.1301ZM5.645 12.3556H11.4801V11.6556H5.645V12.3556ZM5.995 18.3516V12.0056H5.295V18.3516H5.995ZM7.037 19.3926C6.46135 19.3926 5.995 18.926 5.995 18.3516H5.295C5.295 19.313 6.07516 20.0926 7.037 20.0926V19.3926ZM11.4801 19.3926H7.037V20.0926H11.4801V19.3926ZM12.8301 19.7426V12.0056H12.1301V19.7426H12.8301ZM16.924 19.3926H12.4801V20.0926H16.924V19.3926ZM17.966 18.3516C17.966 18.926 17.4996 19.3926 16.924 19.3926V20.0926C17.8858 20.0926 18.666 19.313 18.666 18.3516H17.966ZM17.966 12.0056V18.3516H18.666V12.0056H17.966ZM12.4801 12.3556H18.316V11.6556H12.4801V12.3556Z" fill="currentcolor"/>
</svg>
