<svg width="24" height="24" viewBox="0 0 24 24" fill="none" xmlns="http://www.w3.org/2000/svg">
<path d="M16 4.5C18.4937 4.5 20.5 6.66077 20.5 9.308C20.5 9.60757 20.4709 9.9111 20.4139 10.2181C20.0481 12.1885 18.5698 14.2326 16.3382 16.2818C15.4476 17.0996 14.4952 17.8624 13.5429 18.5507C13.2095 18.7916 12.8997 19.0062 12.6212 19.192C12.4529 19.3042 12.3316 19.3824 12.265 19.424C12.1173 19.5163 11.9322 19.5251 11.7764 19.4472C11.7081 19.4131 11.5851 19.3486 11.415 19.255C11.1344 19.1004 10.8225 18.9188 10.487 18.7113C9.52897 18.1187 8.571 17.4352 7.67491 16.6684C5.07487 14.4434 3.5 11.9752 3.5 9.308C3.5 6.66077 5.50626 4.5 8 4.5C9.89457 4.5 11.299 5.30286 12 6.37728C12.701 5.30286 14.1054 4.5 16 4.5Z" fill="currentcolor"/>
</svg>
