<svg width="24" height="24" viewBox="0 0 24 24" fill="none" xmlns="http://www.w3.org/2000/svg">
<path fill-rule="evenodd" clip-rule="evenodd" d="M20.5 9.308C20.5 6.66077 18.4937 4.5 16 4.5C14.1054 4.5 12.701 5.30286 12 6.37728C11.299 5.30286 9.89457 4.5 8 4.5C5.50626 4.5 3.5 6.66077 3.5 9.308C3.5 11.9752 5.07487 14.4434 7.67491 16.6684C8.571 17.4352 9.52897 18.1187 10.487 18.7113C10.8225 18.9188 11.1344 19.1004 11.415 19.255C11.5851 19.3486 11.7081 19.4131 11.7764 19.4472C11.9322 19.5251 12.1173 19.5163 12.265 19.424C12.3316 19.3824 12.4529 19.3042 12.6212 19.192C12.8997 19.0062 13.2095 18.7916 13.5429 18.5507C14.4952 17.8624 15.4476 17.0996 16.3382 16.2818C18.5698 14.2326 20.0481 12.1885 20.4139 10.2181C20.4709 9.9111 20.5 9.60757 20.5 9.308ZM12.9571 17.7402C12.6343 17.9735 12.3347 18.181 12.0663 18.36L11.9743 18.4211L11.8975 18.3791C11.6312 18.2324 11.3338 18.0592 11.013 17.8608C10.096 17.2936 9.179 16.6393 8.32509 15.9086C5.92513 13.8548 4.5 11.6213 4.5 9.308C4.5 7.19716 6.0758 5.5 8 5.5C10.2239 5.5 11.5 6.77614 11.5 8C11.5 8.66667 12.5 8.66667 12.5 8C12.5 6.77614 13.7761 5.5 16 5.5C17.9242 5.5 19.5 7.19716 19.5 9.308C19.5 9.54504 19.4768 9.78758 19.4307 10.0356C19.1142 11.7401 17.7474 13.6301 15.6618 15.5452C14.8024 16.3343 13.8798 17.0733 12.9571 17.7402Z" fill="currentcolor" stroke="currentcolor"/>
</svg>
