<svg width="24" height="24" viewBox="0 0 24 24" fill="none" xmlns="http://www.w3.org/2000/svg">
<path fill-rule="evenodd" clip-rule="evenodd" d="M15.7172 4.50606C13.9656 4.58166 12.6656 5.35703 12 6.37728C11.299 5.30286 9.89457 4.5 8 4.5C5.50626 4.5 3.5 6.66077 3.5 9.308C3.5 11.8934 4.97978 14.2919 7.43868 16.4631L8.01212 15.6348C5.80175 13.6569 4.5 11.5189 4.5 9.308C4.5 7.19716 6.0758 5.5 8 5.5C10.2239 5.5 11.5 6.77614 11.5 8C11.5 8.66667 12.5 8.66667 12.5 8C12.5 6.98236 13.3823 5.92857 14.9581 5.60234L15.7172 4.50606ZM9.91437 17.1375C10.2779 17.3921 10.6455 17.6335 11.013 17.8608C11.3338 18.0592 11.6312 18.2324 11.8975 18.3791L11.9743 18.4211L12.0663 18.36C12.3347 18.181 12.6343 17.9735 12.9571 17.7402C13.8798 17.0733 14.8024 16.3343 15.6618 15.5452C17.7474 13.6301 19.1142 11.7401 19.4307 10.0356C19.4768 9.78758 19.5 9.54504 19.5 9.308C19.5 7.85367 18.752 6.59571 17.6573 5.9539L18.2282 5.12932C19.5874 5.95853 20.5 7.52263 20.5 9.308C20.5 9.60757 20.4709 9.9111 20.4139 10.2181C20.0481 12.1885 18.5698 14.2326 16.3382 16.2818C15.4476 17.0996 14.4952 17.8624 13.5429 18.5507C13.2095 18.7916 12.8997 19.0062 12.6212 19.192C12.4529 19.3042 12.3316 19.3824 12.265 19.424C12.1173 19.5163 11.9322 19.5251 11.7764 19.4472C11.7081 19.4131 11.5851 19.3486 11.415 19.255C11.1344 19.1004 10.8225 18.9188 10.487 18.7113C10.105 18.475 9.72311 18.2243 9.3451 17.9597L9.91437 17.1375Z" fill="currentcolor"/>
<path d="M18.0874 2.21771C18.2433 1.9898 18.5545 1.93146 18.7824 2.08739C18.985 2.226 19.0536 2.48726 18.9568 2.70367L18.9127 2.78239L5.9127 21.7824C5.75677 22.0103 5.44561 22.0686 5.21771 21.9127C5.01513 21.7741 4.94652 21.5128 5.04329 21.2964L5.08739 21.2177L18.0874 2.21771Z" fill="currentcolor"/>
</svg>
