<svg width="24" height="24" viewBox="0 0 24 24" fill="none" xmlns="http://www.w3.org/2000/svg">
<path fill-rule="evenodd" clip-rule="evenodd" d="M14.1591 4.78576C13.1878 5.11136 12.4493 5.68852 12 6.37728C11.299 5.30286 9.89457 4.5 8 4.5C5.50626 4.5 3.5 6.66077 3.5 9.308C3.5 11.6323 4.69597 13.8055 6.72413 15.7983L7.29405 14.9541C5.52259 13.1699 4.5 11.2675 4.5 9.308C4.5 7.19716 6.0758 5.5 8 5.5C10.2239 5.5 11.5 6.77614 11.5 8C11.5 8.19612 11.5865 8.33454 11.7087 8.41528L14.1591 4.78576ZM11.0959 17.9118C11.3851 18.089 11.6543 18.2451 11.8975 18.3791L11.9743 18.4211L12.0663 18.36C12.3347 18.181 12.6343 17.9735 12.9571 17.7402C13.8798 17.0733 14.8024 16.3343 15.6618 15.5452C17.7474 13.6301 19.1142 11.7401 19.4307 10.0356C19.4768 9.78758 19.5 9.54504 19.5 9.308C19.5 8.33395 19.1645 7.44799 18.614 6.77623L19.1926 5.91923C20.0015 6.78969 20.5 7.9884 20.5 9.308C20.5 9.60757 20.4709 9.9111 20.4139 10.2181C20.0481 12.1885 18.5698 14.2326 16.3382 16.2818C15.4476 17.0996 14.4952 17.8624 13.5429 18.5507C13.2095 18.7916 12.8997 19.0062 12.6212 19.192C12.4529 19.3042 12.3316 19.3824 12.265 19.424C12.1173 19.5163 11.9322 19.5251 11.7764 19.4472C11.7081 19.4131 11.5851 19.3486 11.415 19.255C11.1481 19.1079 10.8528 18.9364 10.5358 18.7414L11.0959 17.9118Z" fill="currentcolor"/>
<path fill-rule="evenodd" clip-rule="evenodd" d="M15.3991 3.84277L11.8461 9.10536L11.433 8.83241C11.1686 8.65764 11 8.36131 11 7.99999C11 7.15539 10.0636 5.99999 8 5.99999C6.38939 5.99999 5 7.43429 5 9.30799C5 11.0851 5.92753 12.868 7.64888 14.6019L7.93834 14.8934L6.80231 16.5761L6.3737 16.1549C4.29176 14.1093 3 11.8156 3 9.30799C3 6.41751 5.19833 3.99999 8 3.99999C9.72712 3.99999 11.1233 4.62363 12.0001 5.56899C12.5059 5.02402 13.1852 4.58487 14.0002 4.31168L15.3991 3.84277ZM5.16769 6.26605C4.4483 7.04151 4 8.11298 4 9.30799C4 11.2913 4.94401 13.1987 6.65241 15.0109C5.00075 13.2556 4 11.3353 4 9.30799C4 8.13028 4.44335 7.05017 5.16769 6.26605ZM9.8427 5.31696C9.30509 5.11503 8.68418 4.99999 8 4.99999C8.69957 4.99999 9.31631 5.11767 9.8427 5.31696ZM11.6893 6.81606C11.7687 6.96018 11.8337 7.10962 11.8833 7.26314L11.9329 7.18956L11.6893 6.81606ZM19.1303 5.11779L19.5588 5.57885C20.4534 6.54146 21 7.86165 21 9.30799C21 9.64003 20.9678 9.97414 20.9055 10.3094C20.5095 12.4424 18.9318 14.579 16.6764 16.6501C15.7694 17.4829 14.8016 18.2579 13.8358 18.9559C13.4975 19.2004 13.1825 19.4186 12.8986 19.6079C12.7279 19.7218 12.6022 19.8029 12.53 19.848C12.2346 20.0326 11.8644 20.0502 11.5528 19.8944C11.4766 19.8563 11.3473 19.7885 11.1738 19.6929C10.8995 19.5418 10.5973 19.3663 10.2738 19.1672L9.82953 18.8939L10.9492 17.2355L11.3571 17.4855C11.5668 17.614 11.7652 17.7308 11.9501 17.8356C12.1703 17.6862 12.4097 17.5189 12.6642 17.3349C13.5735 16.6778 14.4806 15.951 15.3236 15.1769C17.3895 13.28 18.6534 11.4832 18.9391 9.94427C18.98 9.7242 19 9.51225 19 9.30799C19 8.44951 18.7045 7.67553 18.2272 7.09313L17.9912 6.80509L19.1303 5.11779ZM16 15.9135C18.0912 13.9932 19.5553 12.0236 19.9152 10.1645C19.5675 11.9616 18.1924 13.9003 16 15.9135ZM11.6573 18.8176L11.6563 18.817C11.6837 18.8321 11.7095 18.8462 11.7341 18.8596L11.6573 18.8176ZM12.3428 18.7766C12.3102 18.7984 12.2794 18.8188 12.2506 18.8378L12.3428 18.7766Z" fill="currentcolor"/>
<path d="M19.0874 1.21771C19.2433 0.989803 19.5545 0.931461 19.7824 1.08739C19.985 1.226 20.0536 1.48726 19.9568 1.70367L19.9127 1.78239L6.9127 20.7824C6.75677 21.0103 6.44561 21.0686 6.21771 20.9127C6.01513 20.7741 5.94652 20.5128 6.04329 20.2964L6.08739 20.2177L19.0874 1.21771Z" fill="currentcolor"/>
<path fill-rule="evenodd" clip-rule="evenodd" d="M18.6747 0.93535C18.9866 0.479546 19.6089 0.362861 20.0647 0.674727C20.4703 0.952241 20.6069 1.47465 20.4132 1.90776L20.404 1.92835L20.3379 2.04626L7.3253 21.0647C7.01343 21.5205 6.39111 21.6372 5.93531 21.3253C5.52971 21.0478 5.39312 20.5254 5.58679 20.0923L5.596 20.0717L5.66206 19.9538L18.6747 0.93535Z" fill="currentcolor"/>
</svg>
