<svg width="24" height="24" viewBox="0 0 24 24" fill="none" xmlns="http://www.w3.org/2000/svg">
<path fill-rule="evenodd" clip-rule="evenodd" d="M5.5 5H6.12362C6.10869 5.04744 6.10063 5.09793 6.10063 5.1503V6.7463C6.10063 7.62979 6.48082 8.4691 7.14538 9.05007L10.7486 12.2641C10.729 12.2472 10.7285 12.3367 10.7418 12.3265L8.87458 13.8969L8.6412 14.1196L7.14162 15.4569C6.48082 16.0345 6.10063 16.8738 6.10063 17.7573V19.3533C6.10063 19.3873 6.10403 19.4205 6.1105 19.4526H5.5C5.22386 19.4526 5 19.6765 5 19.9526C5 20.2288 5.22386 20.4526 5.5 20.4526H18.3508C18.627 20.4526 18.8508 20.2288 18.8508 19.9526C18.8508 19.6765 18.627 19.4526 18.3508 19.4526H17.734C17.7443 19.4125 17.7499 19.3705 17.7499 19.3272V17.7312C17.7499 16.8486 17.3692 16.0092 16.7055 15.4277L15.1957 14.0809L15.0005 13.8928L13.0953 12.2886C13.1219 12.3097 13.1215 12.2208 13.1095 12.231L16.7088 9.02063C17.3692 8.44212 17.7499 7.60269 17.7499 6.72017V5.12417C17.7499 5.0813 17.7445 5.0397 17.7343 5H18.3508C18.627 5 18.8508 4.77614 18.8508 4.5C18.8508 4.22386 18.627 4 18.3508 4H5.5C5.22386 4 5 4.22386 5 4.5C5 4.77614 5.22386 5 5.5 5ZM16.7657 19.4526H7.09077C7.09724 19.4205 7.10063 19.3873 7.10063 19.3533V18.2483C7.48561 18.2746 8.04777 18.1895 8.85721 17.9729C9.30421 17.853 9.6892 17.7059 10.0803 17.5564C10.3328 17.46 10.5879 17.3625 10.8639 17.2707C11.1438 17.1777 11.3884 17.1366 11.725 17.1359L11.9246 17.1359C12.26 17.1366 12.5045 17.1776 12.7843 17.2706C12.9667 17.3312 13.1235 17.395 13.2893 17.4624C13.3729 17.4964 13.4588 17.5313 13.5515 17.5673C13.9528 17.7229 14.3301 17.8489 14.7923 17.9728C15.7565 18.2307 16.3693 18.3022 16.7499 18.2212V19.3272C16.7499 19.3705 16.7554 19.4125 16.7657 19.4526ZM16.6736 17.1759C16.6096 17.1911 16.5488 17.2187 16.4952 17.2575C16.3542 17.2799 15.8945 17.2325 15.051 17.0069C14.6083 16.8882 14.2469 16.7489 13.8752 16.6056C13.63 16.5111 13.3802 16.4149 13.0997 16.3216C12.6499 16.1722 12.1939 16.1359 11.7239 16.1359C11.2781 16.1368 10.9279 16.1956 10.5484 16.3218C10.2679 16.4151 10.0184 16.5113 9.77337 16.6058C9.40194 16.749 9.04092 16.8882 8.59835 17.007C7.77118 17.2284 7.31286 17.2782 7.16164 17.2584C7.26222 16.8538 7.48404 16.4857 7.80355 16.2064L9.32048 14.8533L9.5429 14.64L11.4002 13.0789C11.8345 12.685 11.8382 11.9122 11.4224 11.5253L8.5418 8.9557H15.2794L12.4359 11.492C12.0123 11.886 12.016 12.6589 12.4361 13.0403L14.3321 14.6359L14.5164 14.8145L16.0432 16.1769C16.3499 16.4457 16.5666 16.7936 16.6736 17.1759ZM16.3388 7.9557C16.6034 7.60211 16.7499 7.16945 16.7499 6.72017V5.12417C16.7499 5.0813 16.7552 5.0397 16.7654 5H7.07765C7.09258 5.04744 7.10063 5.09793 7.10063 5.1503V6.7463C7.10063 7.18463 7.23933 7.6064 7.49246 7.9557H16.3388Z" fill="currentcolor"/>
<path d="M6.12362 5L6.60055 5.15013L6.80519 4.5H6.12362V5ZM7.14538 9.05007L7.47823 8.67692L7.47447 8.67363L7.14538 9.05007ZM10.7486 12.2641L10.4224 12.643L11.0814 11.8909L10.7486 12.2641ZM10.7418 12.3265L11.0636 12.7091L10.4359 11.9309L10.7418 12.3265ZM8.87458 13.8969L8.55275 13.5142L8.54073 13.5243L8.52937 13.5352L8.87458 13.8969ZM8.6412 14.1196L8.97398 14.4928L8.98029 14.4871L8.98641 14.4813L8.6412 14.1196ZM7.14162 15.4569L7.47071 15.8333L7.4744 15.83L7.14162 15.4569ZM6.1105 19.4526V19.9526H6.72132L6.60064 19.3538L6.1105 19.4526ZM17.734 19.4526L17.2499 19.3275L17.0884 19.9526H17.734V19.4526ZM16.7055 15.4277L16.3726 15.8009L16.376 15.8038L16.7055 15.4277ZM15.1957 14.0809L14.8488 14.441L14.8557 14.4476L14.8628 14.454L15.1957 14.0809ZM15.0005 13.8928L15.3473 13.5327L15.3353 13.5211L15.3225 13.5103L15.0005 13.8928ZM13.0953 12.2886L13.4058 11.8967L12.7732 12.6711L13.0953 12.2886ZM13.1095 12.231L12.7767 11.8579L13.434 12.6114L13.1095 12.231ZM16.7088 9.02063L16.3794 8.64452L16.376 8.64749L16.7088 9.02063ZM17.7343 5V4.5H17.0905L17.2499 5.12379L17.7343 5ZM7.09077 19.4526L6.60062 19.3538L6.47995 19.9526H7.09077V19.4526ZM16.7657 19.4526V19.9526H17.4113L17.2498 19.3275L16.7657 19.4526ZM7.10063 18.2483L7.13475 17.7494L6.60063 17.7129V18.2483H7.10063ZM8.85721 17.9729L8.98649 18.4559L8.98679 18.4558L8.85721 17.9729ZM10.0803 17.5564L9.90188 17.0894H9.90188L10.0803 17.5564ZM10.8639 17.2707L10.7061 16.7963L10.8639 17.2707ZM11.725 17.1359L11.725 16.6359L11.7239 16.6359L11.725 17.1359ZM11.9246 17.1359L11.9257 16.6359H11.9246L11.9246 17.1359ZM12.7843 17.2706L12.6267 17.7451L12.6267 17.7451L12.7843 17.2706ZM13.2893 17.4624L13.101 17.9256H13.101L13.2893 17.4624ZM13.5515 17.5673L13.3707 18.0334L13.5515 17.5673ZM14.7923 17.9728L14.6628 18.4558L14.6631 18.4559L14.7923 17.9728ZM16.7499 18.2212H17.2499V17.6036L16.6457 17.7322L16.7499 18.2212ZM16.6736 17.1759L16.7888 17.6625L17.2955 17.5425L17.1551 17.0411L16.6736 17.1759ZM16.4952 17.2575L16.574 17.7512L16.6915 17.7325L16.788 17.6628L16.4952 17.2575ZM15.051 17.0069L14.9215 17.4898L14.9218 17.4899L15.051 17.0069ZM13.8752 16.6056L14.055 16.1391V16.1391L13.8752 16.6056ZM13.0997 16.3216L12.942 16.7961H12.942L13.0997 16.3216ZM11.7239 16.1359L11.7239 15.6359L11.7229 15.6359L11.7239 16.1359ZM10.5484 16.3218L10.7061 16.7963L10.7061 16.7963L10.5484 16.3218ZM9.77337 16.6058L9.59347 16.1393L9.77337 16.6058ZM8.59835 17.007L8.72763 17.49L8.72793 17.4899L8.59835 17.007ZM7.16164 17.2584L6.67641 17.1378L6.54122 17.6816L7.09684 17.7542L7.16164 17.2584ZM7.80355 16.2064L8.13265 16.5829L8.13639 16.5795L7.80355 16.2064ZM9.32048 14.8533L9.65331 15.2264L9.66002 15.2204L9.66651 15.2142L9.32048 14.8533ZM9.5429 14.64L9.22119 14.2572L9.20867 14.2678L9.19687 14.2791L9.5429 14.64ZM11.4002 13.0789L11.7219 13.4617L11.7291 13.4556L11.7361 13.4493L11.4002 13.0789ZM11.4224 11.5253L11.7631 11.1592L11.7553 11.1522L11.4224 11.5253ZM8.5418 8.9557V8.4557H7.23015L8.20897 9.32882L8.5418 8.9557ZM15.2794 8.9557L15.6122 9.32883L16.5911 8.4557H15.2794V8.9557ZM12.4359 11.492L12.103 11.1188L12.0953 11.1259L12.4359 11.492ZM12.4361 13.0403L12.0999 13.4105L12.1069 13.4168L12.1141 13.4229L12.4361 13.0403ZM14.3321 14.6359L14.6801 14.2769L14.6675 14.2647L14.6541 14.2534L14.3321 14.6359ZM14.5164 14.8145L14.1685 15.1736L14.1758 15.1807L14.1835 15.1876L14.5164 14.8145ZM16.0432 16.1769L15.7103 16.55L15.7137 16.553L16.0432 16.1769ZM16.3388 7.9557V8.4557H16.5892L16.7392 8.25524L16.3388 7.9557ZM16.7654 5L17.2498 5.12379L17.4092 4.5H16.7654V5ZM7.07765 5V4.5H6.39607L6.60072 5.15013L7.07765 5ZM7.49246 7.9557L7.08759 8.2491L7.23731 8.4557H7.49246V7.9557ZM6.12362 4.5H5.5V5.5H6.12362V4.5ZM6.60063 5.1503L6.60055 5.15013L5.64669 4.84987C5.61664 4.94532 5.60063 5.04641 5.60063 5.1503H6.60063ZM6.60063 6.7463V5.1503H5.60063V6.7463H6.60063ZM7.47447 8.67363C6.91882 8.18788 6.60063 7.48594 6.60063 6.7463H5.60063C5.60063 7.77363 6.04281 8.75031 6.8163 9.4265L7.47447 8.67363ZM11.0814 11.8909L7.47821 8.67694L6.81255 9.4232L10.4157 12.6372L11.0814 11.8909ZM10.4359 11.9309C10.5025 11.8795 10.6301 11.8104 10.7997 11.8309C10.9652 11.851 11.0694 11.9446 11.1183 12.0021C11.1663 12.0585 11.1901 12.1124 11.2004 12.1383C11.2122 12.168 11.2186 12.1929 11.2222 12.2084C11.2341 12.261 11.2331 12.3002 11.2323 12.3169C11.2319 12.3246 11.2301 12.3901 11.1947 12.4703C11.183 12.4969 11.1188 12.643 10.9431 12.7202C10.8406 12.7652 10.7277 12.7734 10.6227 12.7469C10.5268 12.7227 10.4602 12.6755 10.4224 12.643L11.0747 11.8851C10.99 11.8122 10.7849 11.6975 10.5411 11.8045C10.3617 11.8833 10.2944 12.0336 10.2801 12.066C10.2395 12.1579 10.2347 12.242 10.2334 12.2687C10.2317 12.3045 10.2319 12.363 10.2468 12.429C10.2503 12.4444 10.2718 12.5503 10.3566 12.65C10.4067 12.7089 10.5122 12.8034 10.6792 12.8236C10.8502 12.8444 10.9794 12.7748 11.0476 12.722L10.4359 11.9309ZM9.19641 14.2795L11.0636 12.7091L10.4199 11.9438L8.55275 13.5142L9.19641 14.2795ZM8.98641 14.4813L9.21979 14.2586L8.52937 13.5352L8.29599 13.7579L8.98641 14.4813ZM7.4744 15.83L8.97398 14.4928L8.30842 13.7464L6.80885 15.0837L7.4744 15.83ZM6.60063 17.7573C6.60063 17.0172 6.91915 16.3154 7.4707 15.8333L6.81255 15.0804C6.04248 15.7536 5.60063 16.7304 5.60063 17.7573H6.60063ZM6.60063 19.3533V17.7573H5.60063V19.3533H6.60063ZM6.60064 19.3538L6.60063 19.3533H5.60063C5.60063 19.4207 5.60737 19.487 5.62035 19.5514L6.60064 19.3538ZM5.5 19.9526H6.1105V18.9526H5.5V19.9526ZM5.5 19.9526V18.9526C4.94772 18.9526 4.5 19.4003 4.5 19.9526H5.5ZM5.5 19.9526V19.9526H4.5C4.5 20.5049 4.94771 20.9526 5.5 20.9526V19.9526ZM18.3508 19.9526H5.5V20.9526H18.3508V19.9526ZM18.3508 19.9526V19.9526V20.9526C18.9031 20.9526 19.3508 20.5049 19.3508 19.9526H18.3508ZM18.3508 19.9526H19.3508C19.3508 19.4003 18.9031 18.9526 18.3508 18.9526V19.9526ZM17.734 19.9526H18.3508V18.9526H17.734V19.9526ZM17.2499 19.3272L17.2499 19.3275L18.2181 19.5777C18.2389 19.4971 18.2499 19.413 18.2499 19.3272H17.2499ZM17.2499 17.7312V19.3272H18.2499V17.7312H17.2499ZM16.376 15.8038C16.9314 16.2904 17.2499 16.9927 17.2499 17.7312H18.2499C18.2499 16.7046 17.8071 15.7281 17.035 15.0516L16.376 15.8038ZM14.8628 14.454L16.3726 15.8009L17.0383 15.0546L15.5285 13.7078L14.8628 14.454ZM14.6536 14.2529L14.8488 14.441L15.5426 13.7208L15.3473 13.5327L14.6536 14.2529ZM12.7732 12.6711L14.6784 14.2753L15.3225 13.5103L13.4173 11.9061L12.7732 12.6711ZM13.434 12.6114C13.3697 12.6663 13.2339 12.7502 13.0475 12.7261C12.8688 12.703 12.7635 12.5954 12.72 12.54C12.6752 12.4829 12.6538 12.4295 12.6449 12.4049C12.6344 12.376 12.6288 12.3519 12.6258 12.3366C12.6153 12.284 12.6166 12.243 12.6191 12.2171C12.6206 12.2011 12.6238 12.1773 12.6315 12.1484C12.6379 12.1244 12.6545 12.0687 12.6962 12.0071C12.7374 11.9462 12.8411 11.8265 13.0275 11.7977C13.2143 11.7687 13.3492 11.8519 13.4058 11.8967L12.7848 12.6805C12.848 12.7306 12.9887 12.8156 13.1806 12.7859C13.372 12.7562 13.48 12.6332 13.5247 12.567C13.6022 12.4524 13.6123 12.3365 13.6147 12.3106C13.6188 12.2665 13.6195 12.2065 13.6064 12.1408C13.6035 12.126 13.5853 12.0229 13.5069 11.9229C13.4623 11.866 13.3557 11.7576 13.1757 11.7343C12.988 11.7101 12.8508 11.7945 12.785 11.8506L13.434 12.6114ZM16.376 8.64749L12.7767 11.8579L13.4423 12.6042L17.0417 9.39377L16.376 8.64749ZM17.2499 6.72017C17.2499 7.45901 16.9311 8.16122 16.3794 8.64453L17.0383 9.39673C17.8074 8.72301 18.2499 7.74637 18.2499 6.72017H17.2499ZM17.2499 5.12417V6.72017H18.2499V5.12417H17.2499ZM17.2499 5.12379L17.2499 5.12417H18.2499C18.2499 5.03921 18.2391 4.95603 18.2187 4.87621L17.2499 5.12379ZM18.3508 4.5H17.7343V5.5H18.3508V4.5ZM18.3508 4.5V5.5C18.9031 5.5 19.3508 5.05228 19.3508 4.5H18.3508ZM18.3508 4.5H19.3508C19.3508 3.94772 18.9031 3.5 18.3508 3.5V4.5ZM5.5 4.5H18.3508V3.5H5.5V4.5ZM5.5 4.5V3.5C4.94772 3.5 4.5 3.94772 4.5 4.5H5.5ZM5.5 4.5H4.5C4.5 5.05228 4.94772 5.5 5.5 5.5V4.5ZM7.09077 19.9526H16.7657V18.9526H7.09077V19.9526ZM6.60063 19.3533L6.60062 19.3538L7.58091 19.5514C7.5939 19.487 7.60063 19.4207 7.60063 19.3533H6.60063ZM6.60063 18.2483V19.3533H7.60063V18.2483H6.60063ZM7.06651 18.7471C7.53855 18.7794 8.16791 18.675 8.98649 18.4559L8.72793 17.4899C7.92763 17.7041 7.43267 17.7698 7.13475 17.7494L7.06651 18.7471ZM8.98679 18.4558C9.46204 18.3283 9.86966 18.1722 10.2588 18.0235L9.90188 17.0894C9.50874 17.2396 9.14639 17.3776 8.72763 17.49L8.98679 18.4558ZM10.2588 18.0235C10.5125 17.9266 10.7577 17.833 11.0217 17.7452L10.7061 16.7963C10.4182 16.892 10.1532 16.9933 9.90188 17.0894L10.2588 18.0235ZM11.0217 17.7452C11.2486 17.6697 11.4401 17.6365 11.726 17.6359L11.7239 16.6359C11.3366 16.6367 11.039 16.6856 10.7061 16.7963L11.0217 17.7452ZM11.725 17.6359L11.9246 17.6359L11.9246 16.6359L11.725 16.6359L11.725 17.6359ZM11.9235 17.6359C12.2082 17.6365 12.3997 17.6697 12.6267 17.7451L12.942 16.7961C12.6094 16.6856 12.3118 16.6367 11.9257 16.6359L11.9235 17.6359ZM12.6267 17.7451C12.7914 17.7999 12.9339 17.8576 13.101 17.9256L13.4777 16.9992C13.3131 16.9323 13.1421 16.8626 12.942 16.7961L12.6267 17.7451ZM13.101 17.9256C13.1842 17.9594 13.2737 17.9958 13.3707 18.0334L13.7323 17.1011C13.644 17.0668 13.5617 17.0334 13.4777 16.9992L13.101 17.9256ZM13.3707 18.0334C13.7879 18.1953 14.1823 18.3269 14.6628 18.4558L14.9218 17.4899C14.4779 17.3709 14.1177 17.2506 13.7323 17.1011L13.3707 18.0334ZM14.6631 18.4559C15.6254 18.7133 16.344 18.8188 16.854 18.7103L16.6457 17.7322C16.3945 17.7857 15.8875 17.7482 14.9215 17.4898L14.6631 18.4559ZM17.2499 19.3272V18.2212H16.2499V19.3272H17.2499ZM17.2498 19.3275L17.2499 19.3272H16.2499C16.2499 19.413 16.2608 19.4971 16.2816 19.5777L17.2498 19.3275ZM16.5585 16.6893C16.4308 16.7195 16.3097 16.7747 16.2025 16.8521L16.788 17.6628L16.7888 17.6625L16.5585 16.6893ZM16.4165 16.7637C16.4318 16.7612 16.3519 16.7685 16.1139 16.7312C15.8976 16.6974 15.5896 16.6334 15.1802 16.5239L14.9218 17.4899C15.3559 17.606 15.6995 17.6786 15.9592 17.7192C16.1971 17.7564 16.4175 17.7762 16.574 17.7512L16.4165 16.7637ZM15.1805 16.5239C14.7665 16.413 14.4279 16.2828 14.055 16.1391L13.6954 17.0722C14.066 17.215 14.4501 17.3634 14.9215 17.4898L15.1805 16.5239ZM14.055 16.1391C13.8107 16.0449 13.5506 15.9446 13.2573 15.8471L12.942 16.7961C13.2099 16.8851 13.4492 16.9773 13.6954 17.0722L14.055 16.1391ZM13.2573 15.8471C12.7344 15.6734 12.2174 15.6359 11.7239 15.6359L11.7239 16.6359C12.1705 16.6359 12.5655 16.671 12.942 16.7961L13.2573 15.8471ZM11.7229 15.6359C11.2254 15.6369 10.8222 15.7039 10.3906 15.8474L10.7061 16.7963C11.0335 16.6874 11.3307 16.6367 11.725 16.6359L11.7229 15.6359ZM10.3906 15.8474C10.0975 15.9448 9.83753 16.0452 9.59347 16.1393L9.95327 17.0723C10.1992 16.9774 10.4384 16.8853 10.7061 16.7963L10.3906 15.8474ZM9.59347 16.1393C9.2209 16.2829 8.88261 16.413 8.46877 16.5241L8.72793 17.4899C9.19924 17.3634 9.58298 17.2151 9.95327 17.0723L9.59347 16.1393ZM8.46908 16.524C8.06772 16.6314 7.76374 16.695 7.54801 16.7293C7.31469 16.7664 7.22453 16.7624 7.22644 16.7626L7.09684 17.7542C7.24997 17.7742 7.46459 17.7552 7.70502 17.7169C7.96305 17.6759 8.30181 17.604 8.72763 17.49L8.46908 16.524ZM7.47447 15.83C7.07714 16.1773 6.80139 16.6351 6.67641 17.1378L7.64687 17.3791C7.72306 17.0726 7.89095 16.7941 8.13264 16.5828L7.47447 15.83ZM8.98764 14.4801L7.47071 15.8333L8.13639 16.5795L9.65331 15.2264L8.98764 14.4801ZM9.19687 14.2791L8.97444 14.4923L9.66651 15.2142L9.88893 15.0009L9.19687 14.2791ZM11.0785 12.6962L9.22119 14.2572L9.86461 15.0228L11.7219 13.4617L11.0785 12.6962ZM11.0818 11.8913C11.1678 11.9713 11.2321 12.1159 11.2301 12.2939C11.2281 12.4708 11.1611 12.6207 11.0643 12.7085L11.7361 13.4493C12.0736 13.1432 12.2255 12.7098 12.23 12.305C12.2345 11.9014 12.0928 11.4661 11.7631 11.1593L11.0818 11.8913ZM8.20897 9.32882L11.0896 11.8984L11.7553 11.1522L8.87464 8.58258L8.20897 9.32882ZM15.2794 8.4557H8.5418V9.4557H15.2794V8.4557ZM12.7687 11.8652L15.6122 9.32883L14.9465 8.58257L12.103 11.1189L12.7687 11.8652ZM12.7722 12.6702C12.6858 12.5917 12.6199 12.4482 12.6196 12.2701C12.6193 12.0926 12.6845 11.9437 12.7764 11.8581L12.0953 11.1259C11.7637 11.4344 11.6189 11.8689 11.6196 12.2717C11.6203 12.6738 11.7662 13.1075 12.0999 13.4105L12.7722 12.6702ZM14.6541 14.2534L12.758 12.6578L12.1141 13.4229L14.0102 15.0185L14.6541 14.2534ZM14.8644 14.4555L14.6801 14.2769L13.9842 14.995L14.1685 15.1736L14.8644 14.4555ZM16.3761 15.8039L14.8493 14.4415L14.1835 15.1876L15.7103 16.55L16.3761 15.8039ZM17.1551 17.0411C17.022 16.5657 16.7527 16.1339 16.3727 15.8009L15.7137 16.553C15.947 16.7575 16.1112 17.0214 16.1922 17.3107L17.1551 17.0411ZM16.2499 6.72017C16.2499 7.06053 16.1389 7.38829 15.9385 7.65616L16.7392 8.25524C17.0679 7.81593 17.2499 7.27837 17.2499 6.72017H16.2499ZM16.2499 5.12417V6.72017H17.2499V5.12417H16.2499ZM16.281 4.87621C16.2606 4.95603 16.2499 5.03921 16.2499 5.12417H17.2499L17.2498 5.12379L16.281 4.87621ZM7.07765 5.5H16.7654V4.5H7.07765V5.5ZM7.60063 5.1503C7.60063 5.04641 7.58462 4.94532 7.55458 4.84987L6.60072 5.15013L6.60063 5.1503H7.60063ZM7.60063 6.7463V5.1503H6.60063V6.7463H7.60063ZM7.89733 7.6623C7.70566 7.39782 7.60063 7.07862 7.60063 6.7463H6.60063C6.60063 7.29064 6.773 7.81498 7.08759 8.2491L7.89733 7.6623ZM16.3388 7.4557H7.49246V8.4557H16.3388V7.4557Z" fill="currentcolor"/>
</svg>
