<svg width="24" height="24" viewBox="0 0 24 24" fill="none" xmlns="http://www.w3.org/2000/svg">
<path fill-rule="evenodd" clip-rule="evenodd" d="M5.5 5H6.12362C6.10869 5.04744 6.10063 5.09793 6.10063 5.1503V6.7463C6.10063 7.62979 6.48082 8.4691 7.14538 9.05007L10.7486 12.2641C10.729 12.2472 10.7285 12.3367 10.7418 12.3265L8.87458 13.8969L8.6412 14.1196L7.14162 15.4569C6.48082 16.0345 6.10063 16.8738 6.10063 17.7573V19.3533C6.10063 19.3873 6.10403 19.4205 6.1105 19.4526H5.5C5.22386 19.4526 5 19.6765 5 19.9526C5 20.2288 5.22386 20.4526 5.5 20.4526H18.3508C18.627 20.4526 18.8508 20.2288 18.8508 19.9526C18.8508 19.6765 18.627 19.4526 18.3508 19.4526H17.734C17.7443 19.4125 17.7499 19.3705 17.7499 19.3272V17.7312C17.7499 16.8486 17.3692 16.0092 16.7055 15.4277L15.1957 14.0809L15.0005 13.8928L13.0953 12.2886C13.1219 12.3097 13.1215 12.2208 13.1095 12.231L16.7088 9.02063C17.3692 8.44212 17.7499 7.60269 17.7499 6.72017V5.12417C17.7499 5.0813 17.7445 5.0397 17.7343 5H18.3508C18.627 5 18.8508 4.77614 18.8508 4.5C18.8508 4.22386 18.627 4 18.3508 4H5.5C5.22386 4 5 4.22386 5 4.5C5 4.77614 5.22386 5 5.5 5ZM16.7657 19.4526H7.09077C7.09724 19.4205 7.10063 19.3873 7.10063 19.3533V18.2483C7.48561 18.2746 8.04777 18.1895 8.85721 17.9729C9.31924 17.8489 9.69619 17.723 10.0972 17.5674C9.94748 17.6255 10.7107 17.3217 10.8639 17.2707C11.1438 17.1777 11.3884 17.1366 11.725 17.1359L11.9246 17.1359C12.26 17.1366 12.5045 17.1776 12.7843 17.2706C12.8808 17.3027 12.9816 17.3405 13.1274 17.3985C13.0546 17.3695 13.4405 17.5242 13.5515 17.5673C13.9528 17.7229 14.3301 17.8489 14.7923 17.9728C15.7565 18.2307 16.3693 18.3022 16.7499 18.2212V19.3272C16.7499 19.3705 16.7554 19.4125 16.7657 19.4526ZM16.6736 17.1759C16.6096 17.1911 16.5488 17.2187 16.4952 17.2575C16.3542 17.2799 15.8945 17.2325 15.051 17.0069C14.6261 16.893 14.2826 16.7783 13.9132 16.635C14.0974 16.7064 13.285 16.3832 13.0997 16.3216C12.7203 16.1956 12.3703 16.1368 11.9257 16.1359L11.7239 16.1359C11.2781 16.1368 10.9279 16.1956 10.5484 16.3218C10.3631 16.3834 9.55083 16.7067 9.73539 16.6351C9.36628 16.7783 9.02306 16.893 8.59835 17.007C7.77118 17.2284 7.31286 17.2782 7.16164 17.2584C7.26222 16.8538 7.48404 16.4857 7.80355 16.2064L9.32048 14.8533L9.5429 14.64L11.4002 13.0789C11.8345 12.685 11.8382 11.9122 11.4224 11.5253L8.5418 8.9557H15.2794L12.4359 11.492C12.0123 11.886 12.016 12.6589 12.4361 13.0403L14.3321 14.6359L14.5164 14.8145L16.0432 16.1769C16.3499 16.4457 16.5666 16.7936 16.6736 17.1759ZM16.3388 7.9557C16.6034 7.60211 16.7499 7.16945 16.7499 6.72017V5.12417C16.7499 5.0813 16.7552 5.0397 16.7654 5H7.07765C7.09258 5.04744 7.10063 5.09793 7.10063 5.1503V6.7463C7.10063 7.18463 7.23933 7.6064 7.49246 7.9557H16.3388Z" fill="currentcolor"/>
</svg>
