<svg width="24" height="24" viewBox="0 0 24 24" fill="none" xmlns="http://www.w3.org/2000/svg">
<path fill-rule="evenodd" clip-rule="evenodd" d="M3.80004 10.3927C3.57913 10.5584 3.26572 10.5136 3.10003 10.2927C2.93435 10.0718 2.97911 9.75839 3.20002 9.5927L11.857 3.0997C12.0348 2.96636 12.2793 2.96636 12.457 3.0997L21.114 9.5927C21.3349 9.75839 21.3797 10.0718 21.214 10.2927C21.0483 10.5136 20.7349 10.5584 20.514 10.3927L20.2154 10.1687L20.2313 20.2659C20.2318 20.5424 20.0078 20.7667 19.7313 20.7667H13.7828C13.7761 20.767 13.7694 20.7671 13.7626 20.7671C13.7559 20.7671 13.7492 20.767 13.7425 20.7667H10.5358C10.5291 20.767 10.5224 20.7671 10.5156 20.7671C10.5089 20.7671 10.5022 20.767 10.4955 20.7667H4.58133C4.3055 20.7667 4.08177 20.5433 4.08133 20.2675L4.06544 10.1936L3.80004 10.3927ZM11.0156 19.7667H13.2626V15.3561H11.0156V19.7667ZM14.2626 19.7667V14.8561C14.2626 14.58 14.0388 14.3561 13.7626 14.3561H10.5156C10.2395 14.3561 10.0156 14.58 10.0156 14.8561V19.7667H5.08054L5.06433 9.48991C5.06431 9.47508 5.06364 9.46041 5.06235 9.44592L12.157 4.1247L19.2191 9.42145C19.2159 9.44434 19.2143 9.46772 19.2143 9.49148L19.2305 19.7667H14.2626Z" fill="currentcolor"/>
<path d="M3.80004 10.3927L4.10004 10.7927H4.10004L3.80004 10.3927ZM3.20002 9.5927L3.50003 9.99269H3.50003L3.20002 9.5927ZM11.857 3.0997L11.557 2.69971L11.557 2.69971L11.857 3.0997ZM12.457 3.0997L12.757 2.69971L12.757 2.69971L12.457 3.0997ZM21.114 9.5927L20.814 9.99269V9.9927L21.114 9.5927ZM20.514 10.3927L20.814 9.99269V9.99269L20.514 10.3927ZM20.2154 10.1687L20.5154 9.76872L19.7138 9.16751L19.7154 10.1695L20.2154 10.1687ZM20.2313 20.2659L19.7313 20.2667L20.2313 20.2659ZM13.7828 20.7667V20.2667H13.7729L13.763 20.2671L13.7828 20.7667ZM13.7425 20.7667L13.7623 20.2671L13.7524 20.2667H13.7425V20.7667ZM10.5358 20.7667V20.2667H10.5259L10.516 20.2671L10.5358 20.7667ZM10.4955 20.7667L10.5153 20.2671L10.5054 20.2667H10.4955V20.7667ZM4.08133 20.2675L4.58133 20.2667L4.08133 20.2675ZM4.06544 10.1936L4.56544 10.1928L4.56386 9.19479L3.76543 9.79364L4.06544 10.1936ZM11.0156 19.7667H10.5156V20.2667H11.0156V19.7667ZM13.2626 19.7667V20.2667H13.7626V19.7667H13.2626ZM13.2626 15.3561H13.7626V14.8561H13.2626V15.3561ZM11.0156 15.3561V14.8561H10.5156V15.3561H11.0156ZM14.2626 19.7667H13.7626V20.2667H14.2626V19.7667ZM10.0156 19.7667V20.2667H10.5156V19.7667H10.0156ZM5.08054 19.7667L4.58054 19.7675L4.58133 20.2667H5.08054V19.7667ZM5.06433 9.48991L4.56433 9.49069V9.49069L5.06433 9.48991ZM5.06235 9.44592L4.76234 9.04592L4.5397 9.21291L4.56431 9.49013L5.06235 9.44592ZM12.157 4.1247L12.457 3.72471L12.157 3.49969L11.857 3.72471L12.157 4.1247ZM19.2191 9.42145L19.7144 9.49005L19.7548 9.19822L19.5191 9.02145L19.2191 9.42145ZM19.2143 9.49148L19.7143 9.49069V9.49068L19.2143 9.49148ZM19.2305 19.7667V20.2667H19.7313L19.7305 19.7659L19.2305 19.7667ZM2.70004 10.5927C3.03142 11.0345 3.65822 11.1241 4.10004 10.7927L3.50003 9.99269H3.50003L2.70004 10.5927ZM2.90001 9.19271C2.45819 9.52409 2.36866 10.1509 2.70004 10.5927L3.50003 9.99269H3.50003L2.90001 9.19271ZM11.557 2.69971L2.90001 9.19271L3.50003 9.99269L12.157 3.49969L11.557 2.69971ZM12.757 2.69971C12.4015 2.43302 11.9126 2.43302 11.557 2.69971L12.157 3.4997H12.157L12.757 2.69971ZM21.414 9.19271L12.757 2.69971L12.157 3.49969L20.814 9.99269L21.414 9.19271ZM21.614 10.5927C21.9454 10.1509 21.8559 9.52409 21.414 9.19271L20.814 9.9927V9.99269L21.614 10.5927ZM20.214 10.7927C20.6558 11.1241 21.2826 11.0345 21.614 10.5927L20.814 9.99269L20.214 10.7927ZM19.9154 10.5687L20.214 10.7927L20.814 9.99269L20.5154 9.76872L19.9154 10.5687ZM20.7313 20.2651L20.7154 10.1679L19.7154 10.1695L19.7313 20.2667L20.7313 20.2651ZM19.7313 21.2667C20.2842 21.2667 20.7322 20.818 20.7313 20.2651L19.7313 20.2667V20.2667V21.2667ZM13.7828 21.2667H19.7313V20.2667H13.7828V21.2667ZM13.763 20.2671L13.7626 20.2671V21.2671C13.776 21.2671 13.7893 21.2668 13.8026 21.2663L13.763 20.2671ZM13.7626 20.2671L13.7623 20.2671L13.7227 21.2663C13.736 21.2668 13.7493 21.2671 13.7626 21.2671V20.2671ZM10.5358 21.2667H13.7425V20.2667H10.5358V21.2667ZM10.516 20.2671L10.5156 20.2671V21.2671C10.529 21.2671 10.5423 21.2668 10.5556 21.2663L10.516 20.2671ZM10.5156 20.2671L10.5153 20.2671L10.4757 21.2663C10.489 21.2668 10.5023 21.2671 10.5156 21.2671V20.2671ZM4.58133 21.2667H10.4955V20.2667H4.58133V21.2667ZM3.58133 20.2683C3.5822 20.8199 4.02966 21.2667 4.58133 21.2667V20.2667L4.58133 20.2667L3.58133 20.2683ZM3.56544 10.1944L3.58133 20.2683L4.58133 20.2667L4.56544 10.1928L3.56544 10.1944ZM4.10004 10.7927L4.36545 10.5936L3.76543 9.79364L3.50003 9.99269L4.10004 10.7927ZM11.0156 20.2667H13.2626V19.2667H11.0156V20.2667ZM13.7626 19.7667V15.3561H12.7626V19.7667H13.7626ZM13.2626 14.8561H11.0156V15.8561H13.2626V14.8561ZM10.5156 15.3561V19.7667H11.5156V15.3561H10.5156ZM13.7626 14.8561V19.7667H14.7626V14.8561H13.7626ZM13.7626 14.8561H14.7626C14.7626 14.3038 14.3149 13.8561 13.7626 13.8561V14.8561ZM10.5156 14.8561H13.7626V13.8561H10.5156V14.8561ZM10.5156 14.8561V13.8561C9.96334 13.8561 9.51563 14.3038 9.51563 14.8561H10.5156ZM10.5156 19.7667V14.8561H9.51563V19.7667H10.5156ZM5.08054 20.2667H10.0156V19.2667H5.08054V20.2667ZM4.56433 9.49069L4.58054 19.7675L5.58054 19.7659L5.56433 9.48912L4.56433 9.49069ZM4.56431 9.49013L4.56433 9.49069L5.56433 9.48912C5.56428 9.45978 5.56296 9.43062 5.56039 9.40171L4.56431 9.49013ZM11.857 3.72471L4.76234 9.04592L5.36236 9.84591L12.457 4.5247L11.857 3.72471ZM19.5191 9.02145L12.457 3.72471L11.857 4.5247L18.9191 9.82144L19.5191 9.02145ZM19.7143 9.49068L19.7144 9.49005L18.7238 9.35285C18.7175 9.39863 18.7143 9.4452 18.7143 9.49229L19.7143 9.49068ZM19.7305 19.7659L19.7143 9.49069L18.7143 9.49227L18.7305 19.7675L19.7305 19.7659ZM14.2626 20.2667H19.2305V19.2667H14.2626V20.2667Z" fill="currentcolor"/>
</svg>
