<svg width="24" height="24" viewBox="0 0 24 24" fill="none" xmlns="http://www.w3.org/2000/svg">
<path fill-rule="evenodd" clip-rule="evenodd" d="M3.80004 10.3927C3.57913 10.5584 3.26572 10.5136 3.10003 10.2927C2.93435 10.0718 2.97911 9.75839 3.20002 9.5927L11.857 3.0997C12.0348 2.96636 12.2793 2.96636 12.457 3.0997L21.114 9.5927C21.3349 9.75839 21.3797 10.0718 21.214 10.2927C21.0483 10.5136 20.7349 10.5584 20.514 10.3927L20.2154 10.1687L20.2313 20.2659C20.2318 20.5424 20.0078 20.7667 19.7313 20.7667H13.7828C13.7761 20.767 13.7694 20.7671 13.7626 20.7671C13.7559 20.7671 13.7492 20.767 13.7425 20.7667H10.5358C10.5291 20.767 10.5224 20.7671 10.5156 20.7671C10.5089 20.7671 10.5022 20.767 10.4955 20.7667H4.58133C4.3055 20.7667 4.08177 20.5433 4.08133 20.2675L4.06544 10.1936L3.80004 10.3927ZM11.0156 19.7667H13.2626V15.3561H11.0156V19.7667ZM14.2626 19.7667V14.8561C14.2626 14.58 14.0388 14.3561 13.7626 14.3561H10.5156C10.2395 14.3561 10.0156 14.58 10.0156 14.8561V19.7667H5.08054L5.06433 9.48991C5.06431 9.47508 5.06364 9.46041 5.06235 9.44592L12.157 4.1247L19.2191 9.42145C19.2159 9.44434 19.2143 9.46772 19.2143 9.49148L19.2305 19.7667H14.2626Z" fill="currentcolor"/>
</svg>
