<svg width="24" height="24" viewBox="0 0 24 24" fill="none" xmlns="http://www.w3.org/2000/svg">
<path fill-rule="evenodd" clip-rule="evenodd" d="M19.9939 19.5H3.70499C2.76345 19.5 2 18.7231 2 17.7662V6.23263C2 5.2749 2.7631 4.5 3.70499 4.5H20.2174C21.203 4.5 22 5.31106 22 6.31272V17.46C22 18.5865 21.1022 19.5 19.9939 19.5ZM20.137 18.5C20.6138 18.5 21 18.1031 21 17.6136V6.15272C21 5.79151 20.7164 5.5 20.3645 5.5H3.55649C3.24853 5.5 3 5.7549 3 6.07038V17.9284C3 18.2436 3.24944 18.5 3.55649 18.5H20.137ZM7.76627 12.3889C9.81691 12.3889 10.9288 13.5423 11.3088 15.182C11.3746 15.466 11.1978 15.7495 10.9138 15.8153C10.6298 15.8811 10.3463 15.7043 10.2805 15.4203C10.001 14.2143 9.25886 13.4444 7.76627 13.4444C6.28432 13.4444 5.5437 14.2032 5.25867 15.3992C5.1911 15.6828 4.90647 15.8579 4.62292 15.7903C4.33938 15.7227 4.1643 15.4381 4.23187 15.1545C4.61975 13.5269 5.73057 12.3889 7.76627 12.3889ZM7.76976 7.86436C8.92468 7.86436 9.86081 8.80048 9.86081 9.95541C9.86081 11.1103 8.92468 12.0465 7.76976 12.0465C6.61399 12.0465 5.67764 11.1106 5.67764 9.95541C5.67764 8.80026 6.61399 7.86436 7.76976 7.86436ZM7.76976 10.9909C8.34172 10.9909 8.80526 10.5274 8.80526 9.95541C8.80526 9.38345 8.34172 8.91991 7.76976 8.91991C7.19685 8.91991 6.7332 9.38334 6.7332 9.95541C6.7332 10.5275 7.19685 10.9909 7.76976 10.9909ZM18.4171 9.71833H12.7193C12.4278 9.71833 12.1915 9.48204 12.1915 9.19056C12.1915 8.89907 12.4278 8.66278 12.7193 8.66278H18.4171C18.7086 8.66278 18.9449 8.89907 18.9449 9.19056C18.9449 9.48204 18.7086 9.71833 18.4171 9.71833ZM12.7193 12.3583H18.4171C18.7086 12.3583 18.9449 12.122 18.9449 11.8305C18.9449 11.539 18.7086 11.3027 18.4171 11.3027H12.7193C12.4278 11.3027 12.1915 11.539 12.1915 11.8305C12.1915 12.122 12.4278 12.3583 12.7193 12.3583ZM18.4171 14.9992H12.7193C12.4278 14.9992 12.1915 14.7629 12.1915 14.4714C12.1915 14.1799 12.4278 13.9436 12.7193 13.9436H18.4171C18.7086 13.9436 18.9449 14.1799 18.9449 14.4714C18.9449 14.7629 18.7086 14.9992 18.4171 14.9992Z" fill="currentcolor"/>
<path fill-rule="evenodd" clip-rule="evenodd" d="M1.75 6.23263C1.75 5.14058 2.62131 4.25 3.70499 4.25H20.2174C21.345 4.25 22.25 5.177 22.25 6.31272V17.46C22.25 18.7205 21.2442 19.75 19.9939 19.75H3.70499C2.62139 19.75 1.75 18.8571 1.75 17.7662V6.23263ZM3.70499 4.75C2.9049 4.75 2.25 5.40922 2.25 6.23263V17.7662C2.25 18.589 2.9055 19.25 3.70499 19.25H19.9939C20.9601 19.25 21.75 18.4524 21.75 17.46V6.31272C21.75 5.44511 21.0609 4.75 20.2174 4.75H3.70499ZM3.55649 5.75C3.39242 5.75 3.25 5.88708 3.25 6.07038V17.9284C3.25 18.1119 3.39383 18.25 3.55649 18.25H20.137C20.4694 18.25 20.75 17.9714 20.75 17.6136V6.15272C20.75 5.92319 20.572 5.75 20.3645 5.75H3.55649ZM2.75 6.07038C2.75 5.62273 3.10463 5.25 3.55649 5.25H20.3645C20.8608 5.25 21.25 5.65984 21.25 6.15272V17.6136C21.25 18.2348 20.7582 18.75 20.137 18.75H3.55649C3.10505 18.75 2.75 18.3753 2.75 17.9284V6.07038ZM5.42764 9.95541C5.42764 8.66208 6.47604 7.61436 7.76976 7.61436C9.06275 7.61436 10.1108 8.66241 10.1108 9.95541C10.1108 11.0012 9.42523 11.8867 8.47896 12.1871C9.22426 12.2924 9.83884 12.5671 10.3257 12.9799C10.9579 13.5159 11.3533 14.2667 11.5524 15.1256C11.6493 15.544 11.3887 15.9619 10.9702 16.0589C10.5518 16.1558 10.1339 15.8952 10.037 15.4768C9.90528 14.9085 9.67082 14.4695 9.31716 14.1713C8.96544 13.8747 8.46854 13.6944 7.76627 13.6944C7.06896 13.6944 6.57471 13.8721 6.22391 14.1652C5.87127 14.4598 5.6361 14.8939 5.50186 15.4572C5.40228 15.875 4.98282 16.1331 4.56497 16.0335C4.14711 15.9339 3.8891 15.5144 3.98868 15.0966C4.19191 14.2438 4.5893 13.5002 5.2203 12.97C5.70614 12.5617 6.31783 12.2905 7.05822 12.1865C6.1125 11.8856 5.42764 11.0007 5.42764 9.95541ZM7.76976 8.11436C6.75195 8.11436 5.92764 8.93845 5.92764 9.95541C5.92764 10.9724 6.75195 11.7965 7.76976 11.7965C8.78661 11.7965 9.61081 10.9723 9.61081 9.95541C9.61081 8.93855 8.78661 8.11436 7.76976 8.11436ZM11.9415 9.19056C11.9415 8.761 12.2897 8.41278 12.7193 8.41278H18.4171C18.8467 8.41278 19.1949 8.761 19.1949 9.19056C19.1949 9.62011 18.8467 9.96833 18.4171 9.96833H12.7193C12.2897 9.96833 11.9415 9.62011 11.9415 9.19056ZM12.7193 8.91278C12.5658 8.91278 12.4415 9.03714 12.4415 9.19056C12.4415 9.34397 12.5658 9.46833 12.7193 9.46833H18.4171C18.5706 9.46833 18.6949 9.34397 18.6949 9.19056C18.6949 9.03714 18.5706 8.91278 18.4171 8.91278H12.7193ZM7.76976 9.16991C7.33472 9.16991 6.9832 9.52161 6.9832 9.95541C6.9832 10.3892 7.33472 10.7409 7.76976 10.7409C8.20365 10.7409 8.55526 10.3893 8.55526 9.95541C8.55526 9.52152 8.20365 9.16991 7.76976 9.16991ZM6.4832 9.95541C6.4832 9.24507 7.05898 8.66991 7.76976 8.66991C8.47979 8.66991 9.05526 9.24538 9.05526 9.95541C9.05526 10.6654 8.47979 11.2409 7.76976 11.2409C7.05898 11.2409 6.4832 10.6658 6.4832 9.95541ZM12.7193 11.5527C12.5658 11.5527 12.4415 11.6771 12.4415 11.8305C12.4415 11.9839 12.5658 12.1083 12.7193 12.1083H18.4171C18.5706 12.1083 18.6949 11.9839 18.6949 11.8305C18.6949 11.6771 18.5706 11.5527 18.4171 11.5527H12.7193ZM11.9415 11.8305C11.9415 11.4009 12.2897 11.0527 12.7193 11.0527H18.4171C18.8467 11.0527 19.1949 11.4009 19.1949 11.8305C19.1949 12.2601 18.8467 12.6083 18.4171 12.6083H12.7193C12.2897 12.6083 11.9415 12.2601 11.9415 11.8305ZM5.54198 13.3528C5.01167 13.7984 4.65972 14.4377 4.47506 15.2125C4.4395 15.3617 4.53164 15.5115 4.68088 15.5471C4.83011 15.5827 4.97992 15.4905 5.01548 15.3413C5.16628 14.7085 5.44393 14.1653 5.90335 13.7815C6.3646 13.3961 6.98164 13.1944 7.76627 13.1944C8.5566 13.1944 9.17708 13.3991 9.63946 13.789C10.0999 14.1772 10.3763 14.7261 10.5241 15.3639C10.5587 15.5133 10.7079 15.6064 10.8574 15.5718C11.0068 15.5371 11.0999 15.3879 11.0653 15.2385C10.8843 14.4576 10.5338 13.8118 10.0024 13.3612C9.47298 12.9124 8.74264 12.6389 7.76627 12.6389C6.79704 12.6389 6.07033 12.9087 5.54198 13.3528ZM11.9415 14.4714C11.9415 14.0418 12.2897 13.6936 12.7193 13.6936H18.4171C18.8467 13.6936 19.1949 14.0418 19.1949 14.4714C19.1949 14.901 18.8467 15.2492 18.4171 15.2492H12.7193C12.2897 15.2492 11.9415 14.9009 11.9415 14.4714ZM12.7193 14.1936C12.5658 14.1936 12.4415 14.318 12.4415 14.4714C12.4415 14.6248 12.5658 14.7492 12.7193 14.7492H18.4171C18.5706 14.7492 18.6949 14.6248 18.6949 14.4714C18.6949 14.318 18.5706 14.1936 18.4171 14.1936H12.7193Z" fill="currentcolor"/>
</svg>
