<svg width="24" height="24" viewBox="0 0 24 24" fill="none" xmlns="http://www.w3.org/2000/svg">
<path fill-rule="evenodd" clip-rule="evenodd" d="M19.9939 19.5H3.70499C2.76345 19.5 2 18.7231 2 17.7662V6.23263C2 5.2749 2.7631 4.5 3.70499 4.5H20.2174C21.203 4.5 22 5.31106 22 6.31272V17.46C22 18.5865 21.1022 19.5 19.9939 19.5ZM20.137 18.5C20.6138 18.5 21 18.1031 21 17.6136V6.15272C21 5.79151 20.7164 5.5 20.3645 5.5H3.55649C3.24853 5.5 3 5.7549 3 6.07038V17.9284C3 18.2436 3.24944 18.5 3.55649 18.5H20.137ZM7.76627 12.3889C9.81691 12.3889 10.9288 13.5423 11.3088 15.182C11.3746 15.466 11.1978 15.7495 10.9138 15.8153C10.6298 15.8811 10.3463 15.7043 10.2805 15.4203C10.001 14.2143 9.25886 13.4444 7.76627 13.4444C6.28432 13.4444 5.5437 14.2032 5.25867 15.3992C5.1911 15.6828 4.90647 15.8579 4.62292 15.7903C4.33938 15.7227 4.1643 15.4381 4.23187 15.1545C4.61975 13.5269 5.73057 12.3889 7.76627 12.3889ZM7.76976 7.86436C8.92468 7.86436 9.86081 8.80048 9.86081 9.95541C9.86081 11.1103 8.92468 12.0465 7.76976 12.0465C6.61399 12.0465 5.67764 11.1106 5.67764 9.95541C5.67764 8.80026 6.61399 7.86436 7.76976 7.86436ZM7.76976 10.9909C8.34172 10.9909 8.80526 10.5274 8.80526 9.95541C8.80526 9.38345 8.34172 8.91991 7.76976 8.91991C7.19685 8.91991 6.7332 9.38334 6.7332 9.95541C6.7332 10.5275 7.19685 10.9909 7.76976 10.9909ZM18.4171 9.71833H12.7193C12.4278 9.71833 12.1915 9.48204 12.1915 9.19056C12.1915 8.89907 12.4278 8.66278 12.7193 8.66278H18.4171C18.7086 8.66278 18.9449 8.89907 18.9449 9.19056C18.9449 9.48204 18.7086 9.71833 18.4171 9.71833ZM12.7193 12.3583H18.4171C18.7086 12.3583 18.9449 12.122 18.9449 11.8305C18.9449 11.539 18.7086 11.3027 18.4171 11.3027H12.7193C12.4278 11.3027 12.1915 11.539 12.1915 11.8305C12.1915 12.122 12.4278 12.3583 12.7193 12.3583ZM18.4171 14.9992H12.7193C12.4278 14.9992 12.1915 14.7629 12.1915 14.4714C12.1915 14.1799 12.4278 13.9436 12.7193 13.9436H18.4171C18.7086 13.9436 18.9449 14.1799 18.9449 14.4714C18.9449 14.7629 18.7086 14.9992 18.4171 14.9992Z" fill="currentcolor"/>
</svg>
