<svg width="24" height="24" viewBox="0 0 24 24" fill="none" xmlns="http://www.w3.org/2000/svg">
<path fill-rule="evenodd" clip-rule="evenodd" d="M18.2823 2.08739C18.0544 1.93146 17.7433 1.9898 17.5873 2.21771L4.58735 21.2177L4.54324 21.2964C4.44647 21.5128 4.51508 21.7741 4.71766 21.9127C4.94556 22.0686 5.25672 22.0103 5.41265 21.7824L18.4127 2.78239L18.4568 2.70367C18.5535 2.48726 18.4849 2.226 18.2823 2.08739ZM3.70499 4.50005H15.2213L14.529 5.50005H3.55649C3.24853 5.50005 3 5.75495 3 6.07043V17.9285C3 18.2437 3.24944 18.5 3.55649 18.5H5.52836L4.836 19.5H3.70499C2.76345 19.5 2 18.7231 2 17.7662V6.23267C2 5.27495 2.7631 4.50005 3.70499 4.50005ZM15.2818 8.66283L14.551 9.71838H18.4171C18.7086 9.71838 18.9449 9.48209 18.9449 9.1906C18.9449 8.89912 18.7086 8.66283 18.4171 8.66283H15.2818ZM13.454 11.3028L12.7232 12.3583H18.4171C18.7086 12.3583 18.9449 12.122 18.9449 11.8305C18.9449 11.5391 18.7086 11.3028 18.4171 11.3028H13.454ZM7.76627 12.3889C8.44935 12.3889 9.02826 12.5169 9.51066 12.7482L8.89608 13.6359C8.57954 13.5111 8.20538 13.4445 7.76627 13.4445C6.28432 13.4445 5.5437 14.2033 5.25867 15.3993C5.1911 15.6828 4.90647 15.8579 4.62292 15.7903C4.33938 15.7228 4.1643 15.4381 4.23187 15.1546C4.61975 13.527 5.73057 12.3889 7.76627 12.3889ZM11.1475 14.6342L10.4249 15.6779C10.5493 15.7998 10.7315 15.8576 10.9138 15.8154C11.1978 15.7496 11.3746 15.466 11.3088 15.1821C11.2649 14.9926 11.2112 14.8097 11.1475 14.6342ZM20.137 18.5H8.47097L7.77861 19.5H19.9939C21.1022 19.5 22 18.5865 22 17.46V6.31277C22 5.3111 21.203 4.50005 20.2174 4.50005H18.1639L17.4716 5.50005H20.3645C20.7164 5.50005 21 5.79156 21 6.15277V17.6136C21 18.1032 20.6138 18.5 20.137 18.5ZM7.76976 7.8644C8.92468 7.8644 9.86081 8.80053 9.86081 9.95546C9.86081 11.1104 8.92468 12.0465 7.76976 12.0465C6.61399 12.0465 5.67764 11.1106 5.67764 9.95546C5.67764 8.80031 6.61399 7.8644 7.76976 7.8644ZM7.76976 10.991C8.34172 10.991 8.80526 10.5274 8.80526 9.95546C8.80526 9.3835 8.34172 8.91996 7.76976 8.91996C7.19685 8.91996 6.7332 9.38339 6.7332 9.95546C6.7332 10.5275 7.19685 10.991 7.76976 10.991ZM18.4171 14.9992H12.7193C12.4278 14.9992 12.1915 14.7629 12.1915 14.4714C12.1915 14.18 12.4278 13.9437 12.7193 13.9437H18.4171C18.7086 13.9437 18.9449 14.18 18.9449 14.4714C18.9449 14.7629 18.7086 14.9992 18.4171 14.9992Z" fill="currentcolor"/>
</svg>
