<svg width="24" height="24" viewBox="0 0 24 24" fill="none" xmlns="http://www.w3.org/2000/svg">
<path fill-rule="evenodd" clip-rule="evenodd" d="M18.2823 2.08739C18.0544 1.93146 17.7433 1.9898 17.5873 2.21771L4.58735 21.2177L4.54324 21.2964C4.44647 21.5128 4.51508 21.7741 4.71766 21.9127C4.94556 22.0686 5.25672 22.0103 5.41265 21.7824L18.4127 2.78239L18.4568 2.70367C18.5535 2.48726 18.4849 2.226 18.2823 2.08739ZM3.70499 4.50005H14.2566L13.5602 5.50005H3.55649C3.24853 5.50005 3 5.75495 3 6.07043V17.9285C3 18.2437 3.24944 18.5 3.55649 18.5H4.50662L3.8102 19.5H3.70499C2.76345 19.5 2 18.7231 2 17.7662V6.23267C2 5.27495 2.7631 4.50005 3.70499 4.50005ZM16.2907 8.66283L15.5556 9.71838H18.4171C18.7086 9.71838 18.9449 9.48209 18.9449 9.1906C18.9449 8.89912 18.7086 8.66283 18.4171 8.66283H16.2907ZM14.4522 11.3028L13.7171 12.3583H18.4171C18.7086 12.3583 18.9449 12.122 18.9449 11.8305C18.9449 11.5391 18.7086 11.3028 18.4171 11.3028H14.4522ZM12.6043 13.9562L12.1962 14.5422C12.2307 14.8002 12.4518 14.9992 12.7193 14.9992H18.4171C18.7086 14.9992 18.9449 14.7629 18.9449 14.4714C18.9449 14.18 18.7086 13.9437 18.4171 13.9437H12.7193C12.6798 13.9437 12.6413 13.948 12.6043 13.9562ZM20.137 18.5H9.43982L8.74339 19.5H19.9939C21.1022 19.5 22 18.5865 22 17.46V6.31277C22 5.3111 21.203 4.50005 20.2174 4.50005H19.1898L18.4934 5.50005H20.3645C20.7164 5.50005 21 5.79156 21 6.15277V17.6136C21 18.1032 20.6138 18.5 20.137 18.5ZM7.76627 12.3889C8.10239 12.3889 8.41329 12.4199 8.69987 12.479L8.02193 13.4524C7.93927 13.4472 7.85407 13.4445 7.76627 13.4445C6.28432 13.4445 5.5437 14.2033 5.25867 15.3993C5.1911 15.6828 4.90647 15.8579 4.62292 15.7903C4.33938 15.7228 4.1643 15.4381 4.23187 15.1546C4.61975 13.527 5.73057 12.3889 7.76627 12.3889ZM7.76976 7.8644C8.92468 7.8644 9.86081 8.80053 9.86081 9.95546C9.86081 11.1104 8.92468 12.0465 7.76976 12.0465C6.61399 12.0465 5.67764 11.1106 5.67764 9.95546C5.67764 8.80031 6.61399 7.8644 7.76976 7.8644ZM7.76976 10.991C8.34172 10.991 8.80526 10.5274 8.80526 9.95546C8.80526 9.3835 8.34172 8.91996 7.76976 8.91996C7.19685 8.91996 6.7332 9.38339 6.7332 9.95546C6.7332 10.5275 7.19685 10.991 7.76976 10.991Z" fill="currentcolor"/>
<path fill-rule="evenodd" clip-rule="evenodd" d="M18.1412 2.29362C18.0272 2.21566 17.8716 2.24483 17.7937 2.35878L4.79999 21.3495L4.76782 21.407C4.72502 21.5133 4.76042 21.6389 4.85883 21.7063C4.97278 21.7842 5.12836 21.7551 5.20633 21.6411L18.2 2.65034L18.2322 2.59293C18.275 2.48661 18.2396 2.36095 18.1412 2.29362ZM17.381 2.07644C17.6149 1.73458 18.0817 1.64707 18.4235 1.88097C18.7276 2.08903 18.8302 2.48086 18.685 2.80562L18.6804 2.81591L18.6253 2.91423L5.61898 21.9235C5.38508 22.2653 4.91834 22.3528 4.57649 22.1189C4.2724 21.9109 4.1698 21.519 4.31502 21.1943L4.31963 21.184L4.37471 21.0857L17.381 2.07644ZM1.75 6.23258C1.75 5.14053 2.62131 4.24995 3.70499 4.24995H14.7354L13.6907 5.74995H3.55649C3.39242 5.74995 3.25 5.88703 3.25 6.07033V17.9284C3.25 18.1119 3.39383 18.2499 3.55649 18.2499H4.98538L3.94074 19.7499H3.70499C2.62139 19.7499 1.75 18.8571 1.75 17.7661V6.23258ZM3.70499 4.74995C2.9049 4.74995 2.25 5.40917 2.25 6.23258V17.7661C2.25 18.5803 2.89179 19.236 3.6798 19.2497L4.02787 18.7499H3.55649C3.10505 18.7499 2.75 18.3752 2.75 17.9284V6.07033C2.75 5.62268 3.10463 5.24995 3.55649 5.24995H13.4296L13.7778 4.74995H3.70499ZM19.0593 4.24995H20.2174C21.345 4.24995 22.25 5.17695 22.25 6.31267V17.4599C22.25 18.7205 21.2442 19.7499 19.9939 19.7499H8.26463L9.30927 18.2499H20.137C20.4694 18.2499 20.75 17.9714 20.75 17.6135V6.15267C20.75 5.92314 20.572 5.74995 20.3645 5.74995H18.0146L19.0593 4.24995ZM19.3203 4.74995L18.9721 5.24995H20.3645C20.8608 5.24995 21.25 5.65979 21.25 6.15267V17.6135C21.25 18.2347 20.7582 18.7499 20.137 18.7499H9.57037L9.22215 19.2499H19.9939C20.9601 19.2499 21.75 18.4524 21.75 17.4599V6.31267C21.75 5.44506 21.0609 4.74995 20.2174 4.74995H19.3203ZM5.42764 9.95536C5.42764 8.66203 6.47604 7.61431 7.76976 7.61431C9.06275 7.61431 10.1108 8.66236 10.1108 9.95536C10.1108 11.0011 9.42526 11.8866 8.47903 12.1871C8.57142 12.2001 8.66185 12.2158 8.75031 12.234L9.12176 12.3105L8.1466 13.7108L8.00606 13.7018C7.92892 13.6969 7.84902 13.6944 7.76627 13.6944C7.06896 13.6944 6.57471 13.8721 6.22391 14.1651C5.87127 14.4597 5.6361 14.8939 5.50186 15.4571C5.40228 15.875 4.98282 16.133 4.56497 16.0334C4.14711 15.9338 3.8891 15.5144 3.98868 15.0965C4.19191 14.2438 4.5893 13.5002 5.2203 12.9699C5.70614 12.5616 6.31783 12.2905 7.05823 12.1865C6.11251 11.8856 5.42764 11.0007 5.42764 9.95536ZM7.76976 8.11431C6.75195 8.11431 5.92764 8.9384 5.92764 9.95536C5.92764 10.9723 6.75195 11.7964 7.76976 11.7964C8.78661 11.7964 9.61081 10.9722 9.61081 9.95536C9.61081 8.9385 8.78661 8.11431 7.76976 8.11431ZM16.1602 8.41273H18.4171C18.8467 8.41273 19.1949 8.76095 19.1949 9.19051C19.1949 9.62006 18.8467 9.96828 18.4171 9.96828H15.0769L16.1602 8.41273ZM16.4213 8.91273L16.0344 9.46828H18.4171C18.5706 9.46828 18.6949 9.34392 18.6949 9.19051C18.6949 9.03709 18.5706 8.91273 18.4171 8.91273H16.4213ZM7.76976 9.16986C7.33472 9.16986 6.9832 9.52156 6.9832 9.95536C6.9832 10.3892 7.33472 10.7409 7.76976 10.7409C8.20365 10.7409 8.55526 10.3893 8.55526 9.95536C8.55526 9.52147 8.20365 9.16986 7.76976 9.16986ZM6.4832 9.95536C6.4832 9.24502 7.05898 8.66986 7.76976 8.66986C8.47979 8.66986 9.05526 9.24533 9.05526 9.95536C9.05526 10.6654 8.47979 11.2409 7.76976 11.2409C7.05898 11.2409 6.4832 10.6657 6.4832 9.95536ZM14.3217 11.0527H18.4171C18.8467 11.0527 19.1949 11.4009 19.1949 11.8304C19.1949 12.26 18.8467 12.6082 18.4171 12.6082H13.2383L14.3217 11.0527ZM14.5827 11.5527L14.1958 12.1082H18.4171C18.5706 12.1082 18.6949 11.9839 18.6949 11.8304C18.6949 11.677 18.5706 11.5527 18.4171 11.5527H14.5827ZM5.54198 13.3527C5.01167 13.7984 4.65972 14.4376 4.47506 15.2124C4.4395 15.3617 4.53164 15.5115 4.68088 15.547C4.83011 15.5826 4.97992 15.4905 5.01548 15.3412C5.16628 14.7085 5.44393 14.1652 5.90335 13.7814C6.3646 13.3961 6.98164 13.1944 7.76627 13.1944C7.8099 13.1944 7.85301 13.195 7.89561 13.1963L8.26597 12.6645C8.10719 12.6476 7.9407 12.6388 7.76627 12.6388C6.79704 12.6388 6.07033 12.9087 5.54198 13.3527ZM12.7436 14.1936L12.4678 14.5896C12.5122 14.6838 12.6082 14.7491 12.7193 14.7491H18.4171C18.5706 14.7491 18.6949 14.6248 18.6949 14.4713C18.6949 14.3179 18.5706 14.1936 18.4171 14.1936H12.7436ZM12.55 13.7121C12.6047 13.6999 12.6614 13.6936 12.7193 13.6936H18.4171C18.8467 13.6936 19.1949 14.0418 19.1949 14.4713C19.1949 14.9009 18.8467 15.2491 18.4171 15.2491H12.7193C12.3249 15.2491 11.9994 14.9558 11.9484 14.5753L11.9355 14.479L12.4548 13.7332L12.55 13.7121Z" fill="currentcolor"/>
</svg>
