<svg width="24" height="24" viewBox="0 0 24 24" fill="none" xmlns="http://www.w3.org/2000/svg">
<path fill-rule="evenodd" clip-rule="evenodd" d="M20 0.585892L23.4142 4.00011L16.4142 11L13 11.0002V7.58576L20 0.585892ZM15 8.4142V9.00004L15.5858 9L20.5858 4.00009L20 3.4143L15 8.4142Z" fill="currentcolor"/>
<path fill-rule="evenodd" clip-rule="evenodd" d="M2 2.0001H13.9598V4.0001H4V17.5859L10 11.5859L13.5 15.0859L16 12.5859L20 16.5859V9.99998H22V22.0001H2V2.0001ZM20 19.4143L16 15.4143L14.9142 16.5001L18.4142 20.0001H20V19.4143ZM15.5858 20.0001L10 14.4143L4.41421 20.0001H15.5858Z" fill="currentcolor"/>
</svg>
