<svg width="24" height="24" viewBox="0 0 24 24" fill="none" xmlns="http://www.w3.org/2000/svg">
<path d="M17 0.585785L19.5 3.08578L22 0.585785L23.4142 2L20.9142 4.5L23.4142 7L22 8.41421L19.5 5.91421L17 8.41421L15.5858 7L18.0858 4.5L15.5858 2L17 0.585785Z" fill="currentcolor"/>
<path fill-rule="evenodd" clip-rule="evenodd" d="M2 2H13.5V4H4V17.5858L10 11.5858L13.5 15.0858L16 12.5858L20 16.5858V10.5H22V22H2V2ZM20 19.4142L16 15.4142L14.9142 16.5L18.4142 20H20V19.4142ZM15.5858 20L10 14.4142L4.41421 20H15.5858Z" fill="currentcolor"/>
</svg>
