<svg width="24" height="24" viewBox="0 0 24 24" fill="none" xmlns="http://www.w3.org/2000/svg">
<path fill-rule="evenodd" clip-rule="evenodd" d="M12 9C12 7.34315 13.3431 6 15 6C16.6569 6 18 7.34315 18 9C18 10.6569 16.6569 12 15 12C13.3431 12 12 10.6569 12 9ZM15 8C14.4477 8 14 8.44772 14 9C14 9.55228 14.4477 10 15 10C15.5523 10 16 9.55228 16 9C16 8.44772 15.5523 8 15 8Z" fill="currentcolor"/>
<path fill-rule="evenodd" clip-rule="evenodd" d="M2 2H21.9998V22H2V2ZM4 4V13.0276L8.92541 9.41894L9.39349 10.6428C10.2568 12.8999 12.4427 14.5 14.9998 14.5C17.0854 14.5 18.9235 13.4365 19.9998 11.818V4H4ZM19.9998 14.7452C18.6307 15.8427 16.8923 16.5 14.9998 16.5C12.0447 16.5 9.46557 14.898 8.08046 12.5174L4 15.507V20H19.9998V14.7452Z" fill="currentcolor"/>
</svg>
