<svg width="24" height="24" viewBox="0 0 24 24" fill="none" xmlns="http://www.w3.org/2000/svg">
<path fill-rule="evenodd" clip-rule="evenodd" d="M22 12C22 17.5226 17.523 22 12 22C6.47705 22 2 17.5226 2 12C2 6.47669 6.47669 2 12 2C17.5233 2 22 6.47669 22 12ZM20.9974 12C20.9974 7.03043 16.9696 3.00264 12 3.00264C7.03043 3.00264 3.00264 7.03043 3.00264 12C3.00264 16.9689 7.03081 20.9974 12 20.9974C16.9692 20.9974 20.9974 16.9689 20.9974 12ZM10.0995 17.3254L11.8915 17.3254L13.5205 17.3254C13.7966 17.3254 14.0205 17.1015 14.0205 16.8254C14.0205 16.5493 13.7966 16.3254 13.5205 16.3254H12.3915V10.1184C12.3915 9.84226 12.1676 9.6184 11.8915 9.6184H10.0995C9.82336 9.6184 9.5995 9.84226 9.5995 10.1184C9.5995 10.3945 9.82336 10.6184 10.0995 10.6184H11.3915V16.3254H10.0995C9.82336 16.3254 9.5995 16.5493 9.5995 16.8254C9.5995 17.1015 9.82336 17.3254 10.0995 17.3254ZM11.62 7.5442C11.965 7.5442 12.245 7.2642 12.245 6.9192C12.245 6.5742 11.965 6.2942 11.62 6.2942C11.275 6.2942 10.996 6.5742 10.996 6.9192C10.996 7.2642 11.275 7.5442 11.62 7.5442Z" fill="currentcolor"/>
<path fill-rule="evenodd" clip-rule="evenodd" d="M1.5 12C1.5 6.20055 6.20055 1.5 12 1.5C17.7995 1.5 22.5 6.20055 22.5 12C22.5 17.7987 17.7991 22.5 12 22.5C6.20089 22.5 1.5 17.7987 1.5 12ZM12 2.5C6.75283 2.5 2.5 6.75283 2.5 12C2.5 17.2465 6.7532 21.5 12 21.5C17.2468 21.5 21.5 17.2465 21.5 12C21.5 6.75283 17.2472 2.5 12 2.5ZM12 3.50264C7.30658 3.50264 3.50264 7.30658 3.50264 12C3.50264 16.6928 7.30696 20.4974 12 20.4974C16.693 20.4974 20.4974 16.6928 20.4974 12C20.4974 7.30657 16.6934 3.50264 12 3.50264ZM2.50264 12C2.50264 6.75429 6.75429 2.50264 12 2.50264C17.2457 2.50264 21.4974 6.75429 21.4974 12C21.4974 17.245 17.2453 21.4974 12 21.4974C6.75465 21.4974 2.50264 17.245 2.50264 12ZM11.62 6.7942C11.5522 6.7942 11.496 6.8493 11.496 6.9192C11.496 6.98911 11.5522 7.0442 11.62 7.0442C11.6888 7.0442 11.745 6.98806 11.745 6.9192C11.745 6.85035 11.6888 6.7942 11.62 6.7942ZM10.496 6.9192C10.496 6.29911 10.9978 5.7942 11.62 5.7942C12.2411 5.7942 12.745 6.29806 12.745 6.9192C12.745 7.54035 12.2411 8.0442 11.62 8.0442C10.9978 8.0442 10.496 7.5393 10.496 6.9192ZM9.0995 10.1184C9.0995 9.56611 9.54721 9.1184 10.0995 9.1184H11.8915C12.4438 9.1184 12.8915 9.56611 12.8915 10.1184V15.8254H13.5205C14.0728 15.8254 14.5205 16.2731 14.5205 16.8254C14.5205 17.3777 14.0728 17.8254 13.5205 17.8254H10.0995C9.54721 17.8254 9.0995 17.3777 9.0995 16.8254C9.0995 16.2731 9.54721 15.8254 10.0995 15.8254H10.8915V11.1184H10.0995C9.54721 11.1184 9.0995 10.6707 9.0995 10.1184Z" fill="currentcolor"/>
</svg>
