<svg width="24" height="24" viewBox="0 0 24 24" fill="none" xmlns="http://www.w3.org/2000/svg">
<path fill-rule="evenodd" clip-rule="evenodd" d="M22 12C22 17.5226 17.523 22 12 22C6.47705 22 2 17.5226 2 12C2 6.47669 6.47669 2 12 2C17.5233 2 22 6.47669 22 12ZM20.9974 12C20.9974 7.03043 16.9696 3.00264 12 3.00264C7.03043 3.00264 3.00264 7.03043 3.00264 12C3.00264 16.9689 7.03081 20.9974 12 20.9974C16.9692 20.9974 20.9974 16.9689 20.9974 12ZM10.0995 17.3254L11.8915 17.3254L13.5205 17.3254C13.7966 17.3254 14.0205 17.1015 14.0205 16.8254C14.0205 16.5493 13.7966 16.3254 13.5205 16.3254H12.3915V10.1184C12.3915 9.84226 12.1676 9.6184 11.8915 9.6184H10.0995C9.82336 9.6184 9.5995 9.84226 9.5995 10.1184C9.5995 10.3945 9.82336 10.6184 10.0995 10.6184H11.3915V16.3254H10.0995C9.82336 16.3254 9.5995 16.5493 9.5995 16.8254C9.5995 17.1015 9.82336 17.3254 10.0995 17.3254ZM11.62 8.5442C11.965 8.5442 12.245 8.2642 12.245 7.9192C12.245 7.5742 11.965 7.2942 11.62 7.2942C11.275 7.2942 10.996 7.5742 10.996 7.9192C10.996 8.2642 11.275 8.5442 11.62 8.5442Z" fill="currentcolor"/>
</svg>
