<svg width="24" height="24" viewBox="0 0 24 24" fill="none" xmlns="http://www.w3.org/2000/svg">
<path fill-rule="evenodd" clip-rule="evenodd" d="M11.8703 19.9765H11.8704H11.8704C12.1357 19.9749 12.401 19.9733 12.6662 19.9733L12.6943 19.8894C12.6006 19.8215 12.5058 19.7549 12.411 19.6884L12.4109 19.6884L12.4108 19.6884C12.2032 19.5427 11.9955 19.3971 11.8001 19.2363C10.9484 18.5351 10.0697 17.9242 8.88018 18.145C8.83604 18.1532 8.78899 18.1439 8.74169 18.1346C8.7163 18.1297 8.69083 18.1247 8.6657 18.1223C7.05698 17.973 5.87774 16.7379 5.86002 15.1217C5.83741 13.0703 5.83476 11.0182 5.86121 8.967C5.88197 7.35274 7.08514 6.04714 8.68527 6.0018C10.8614 5.9402 13.0418 5.9434 15.218 6.00287C16.7994 6.04607 18.0084 7.38727 18.0199 8.9902C18.0347 11.0271 18.0318 13.0645 18.0208 15.1014C18.013 16.5358 17.0492 17.7525 15.6611 18.0589C15.2437 18.151 14.801 18.1598 14.3711 18.1505C13.9883 18.1422 13.8352 18.2791 13.8836 18.6579C13.8912 18.7167 13.8892 18.7768 13.8871 18.837V18.837V18.837V18.837V18.8371C13.8862 18.8646 13.8853 18.8922 13.8853 18.9197C13.8851 19.9755 13.8851 19.9755 14.9318 19.9733C17.6975 19.9673 19.8219 17.8774 19.8603 15.0819C19.8879 13.0598 19.8903 11.0367 19.8596 9.0146C19.8173 6.21967 17.6918 4.1382 14.9209 4.13487C12.9151 4.13234 10.9093 4.13287 8.90346 4.13647C8.65936 4.137 8.41089 4.14047 8.17208 4.18447C5.65241 4.649 4.04924 6.53674 4.01817 9.11474C3.9945 11.0787 3.99317 13.0435 4.01883 15.0075C4.05017 17.3985 5.50286 19.315 7.72369 19.8181C8.30499 19.9496 8.9168 19.9551 9.52498 19.9605H9.52501H9.52505C9.69849 19.9621 9.87163 19.9636 10.0437 19.9681C10.6522 19.984 11.2613 19.9802 11.8703 19.9765ZM9.14508 15.0423C9.83097 16.0101 10.7424 16.5752 11.9428 16.6037C13.1345 16.5729 14.038 16.0197 14.7178 15.0675C14.7903 14.966 14.8338 14.7951 14.8006 14.6836C14.7813 14.6184 14.5831 14.5772 14.4651 14.5767C12.7775 14.57 11.0897 14.5699 9.40201 14.5772C9.28578 14.5777 9.11467 14.6179 9.06958 14.6975C9.02581 14.7748 9.07949 14.9497 9.14508 15.0423ZM14.0477 10.1175L14.0486 10.1175C14.26 10.1178 14.4641 10.1181 14.6681 10.117C15.0077 10.1148 15.1757 10.2922 15.1804 10.6255C15.1863 11.0761 15.1863 11.5272 15.1809 11.9782C15.1769 12.3085 15.0137 12.494 14.6742 12.495C14.2271 12.4964 13.7799 12.4968 13.3327 12.4953C12.9767 12.4943 12.8047 12.3086 12.8052 11.9527C12.8056 11.7203 12.8039 11.4878 12.8023 11.2553V11.2553C12.7987 10.7458 12.7952 10.2363 12.8122 9.72748C12.8449 8.75615 13.6228 7.96815 14.5787 7.89588C14.8679 7.87415 15.1153 7.94642 15.1626 8.27215C15.2126 8.61655 15.0078 8.76215 14.6873 8.81202C13.9682 8.92388 13.6668 9.32562 13.7454 10.1172C13.8483 10.1172 13.9488 10.1174 14.0477 10.1175ZM9.91435 10.1177C9.82836 10.1172 9.74294 10.1166 9.65835 10.1166C9.5285 9.38303 9.85339 8.91623 10.5477 8.81516C10.8591 8.76983 11.098 8.6533 11.0616 8.3049C11.0223 7.9297 10.7407 7.8653 10.4184 7.9021C9.47957 8.00916 8.75905 8.7369 8.71091 9.6937C8.68255 10.2559 8.68756 10.8199 8.69256 11.3838C8.69428 11.5771 8.696 11.7704 8.69637 11.9636C8.69703 12.3177 8.8762 12.4992 9.23442 12.4966C9.66748 12.4933 10.1005 12.4948 10.5336 12.4962C10.9149 12.4974 11.0817 12.2982 11.0771 11.9238C11.0722 11.5164 11.0698 11.1086 11.0779 10.7013C11.0857 10.3021 10.909 10.1048 10.5061 10.1152C10.3079 10.1203 10.1097 10.119 9.91435 10.1177Z" fill="currentcolor"/>
</svg>
