<svg width="24" height="24" viewBox="0 0 24 24" fill="none" xmlns="http://www.w3.org/2000/svg">
<g clip-path="url(#clip0_1718_1590)">
<path fill-rule="evenodd" clip-rule="evenodd" d="M12 0.856049L23.0592 7.00001L18.5592 9.50001L23.0592 12L18.5592 14.5L23.0592 17L12 23.144L0.940918 17L5.44092 14.5L0.940918 12L5.44092 9.50001L0.940918 7.00001L12 0.856049ZM7.50004 10.644L5.05917 12L12 15.856L18.9409 12L16.5 10.644L12 13.144L7.50004 10.644ZM7.50004 15.644L5.05917 17L12 20.856L18.9409 17L16.5 15.644L12 18.144L7.50004 15.644ZM5.05917 7.00001L12 10.856L18.9409 7.00001L12 3.14397L5.05917 7.00001Z" fill="currentcolor"/>
</g>
<defs>
<clipPath id="clip0_1718_1590">
<rect width="24" height="24" fill="white"/>
</clipPath>
</defs>
</svg>
