<svg width="24" height="24" viewBox="0 0 24 24" fill="none" xmlns="http://www.w3.org/2000/svg">
<path fill-rule="evenodd" clip-rule="evenodd" d="M17.5364 2.97708C17.6833 3.24351 17.6734 3.56891 17.5106 3.82599L14.6638 8.32081H17.0946C17.419 8.32081 17.7138 8.50903 17.8509 8.80339C17.9875 9.09745 17.9419 9.44426 17.7327 9.69259L8.49139 20.6666C8.3314 20.8559 8.09754 20.9625 7.85362 20.9625C7.70101 20.9625 7.55068 20.9207 7.41809 20.8396C7.06701 20.6244 6.92535 20.1848 7.08496 19.8045L10.0018 12.8769H7.85393C7.56481 12.8769 7.29695 12.7272 7.14398 12.4807C6.99222 12.2348 6.97825 11.9276 7.10762 11.6697L11.4394 3.00615C11.5809 2.72379 11.8695 2.54541 12.1855 2.54541H16.8058C17.1099 2.54541 17.39 2.71093 17.5364 2.97708ZM11.326 12.5431L8.74606 18.6706L16.543 9.41172H12.6815L13.2118 8.57441L16.3394 3.63632H12.344L8.26914 11.786H11.6448L11.326 12.5431Z" fill="currentcolor"/>
</svg>
