<svg width="24" height="24" viewBox="0 0 24 24" fill="none" xmlns="http://www.w3.org/2000/svg">
<path fill-rule="evenodd" clip-rule="evenodd" d="M17.5364 2.97708C17.6833 3.24351 17.6734 3.56891 17.5106 3.82599L14.6638 8.32081H17.0946C17.419 8.32081 17.7138 8.50903 17.8509 8.80339C17.9875 9.09745 17.9419 9.44426 17.7327 9.69259L8.49139 20.6666C8.3314 20.8559 8.09754 20.9625 7.85362 20.9625C7.70101 20.9625 7.55068 20.9207 7.41809 20.8396C7.06701 20.6244 6.92535 20.1848 7.08496 19.8045L10.0018 12.8769H7.85393C7.56481 12.8769 7.29695 12.7272 7.14398 12.4807C6.99222 12.2348 6.97825 11.9276 7.10762 11.6697L11.4394 3.00615C11.5809 2.72379 11.8695 2.54541 12.1855 2.54541H16.8058C17.1099 2.54541 17.39 2.71093 17.5364 2.97708ZM11.326 12.5431L8.74606 18.6706L16.543 9.41172H12.6815L13.2118 8.57441L16.3394 3.63632H12.344L8.26914 11.786H11.6448L11.326 12.5431Z" fill="currentcolor"/>
<path d="M17.5106 3.82599L17.933 4.09353L17.933 4.09347L17.5106 3.82599ZM17.5364 2.97708L17.0983 3.21803L17.0986 3.21852L17.5364 2.97708ZM14.6638 8.32081L14.2414 8.05328L13.7552 8.82081H14.6638V8.32081ZM17.8509 8.80339L18.3044 8.59277L18.3041 8.59231L17.8509 8.80339ZM17.7327 9.69259L17.3503 9.37049L17.3502 9.37053L17.7327 9.69259ZM8.49139 20.6666L8.87323 20.9894L8.87384 20.9887L8.49139 20.6666ZM7.41809 20.8396L7.15677 21.2659L7.15727 21.2662L7.41809 20.8396ZM7.08496 19.8045L6.62415 19.6105L6.62394 19.611L7.08496 19.8045ZM10.0018 12.8769L10.4627 13.0709L10.7549 12.3769H10.0018V12.8769ZM7.14398 12.4807L6.71845 12.7433L6.71913 12.7444L7.14398 12.4807ZM7.10762 11.6697L7.55453 11.8939L7.55484 11.8933L7.10762 11.6697ZM11.4394 3.00615L10.9924 2.78211L10.9922 2.78254L11.4394 3.00615ZM8.74606 18.6706L8.28525 18.4766L9.12852 18.9927L8.74606 18.6706ZM11.326 12.5431L10.8652 12.3491L11.326 12.5431ZM16.543 9.41172L16.9255 9.73379L17.6178 8.91172H16.543V9.41172ZM12.6815 9.41172L12.2591 9.14419L11.773 9.91172H12.6815V9.41172ZM13.2118 8.57441L13.6342 8.84195L13.2118 8.57441ZM16.3394 3.63632L16.7618 3.90385L17.248 3.13632H16.3394V3.63632ZM12.344 3.63632V3.13632H12.035L11.8968 3.41271L12.344 3.63632ZM8.26914 11.786L7.82193 11.5624L7.46012 12.286H8.26914V11.786ZM11.6448 11.786L12.1057 11.98L12.3979 11.286H11.6448V11.786ZM17.933 4.09347C18.1933 3.68238 18.2093 3.16194 17.9743 2.73564L17.0986 3.21852C17.1573 3.32508 17.1534 3.45544 17.0882 3.55851L17.933 4.09347ZM15.0862 8.58835L17.933 4.09353L17.0882 3.55846L14.2414 8.05328L15.0862 8.58835ZM17.0946 7.82081H14.6638V8.82081H17.0946V7.82081ZM18.3041 8.59231C18.0852 8.12211 17.6138 7.82081 17.0946 7.82081V8.82081C17.2242 8.82081 17.3424 8.89595 17.3976 9.01448L18.3041 8.59231ZM18.1151 10.0147C18.4499 9.61719 18.5225 9.06251 18.3044 8.59277L17.3974 9.01402C17.4524 9.13238 17.4338 9.27133 17.3503 9.37049L18.1151 10.0147ZM8.87384 20.9887L18.1152 10.0147L17.3502 9.37053L8.10893 20.3446L8.87384 20.9887ZM7.85362 21.4625C8.24321 21.4625 8.61728 21.2922 8.87323 20.9894L8.10955 20.3438C8.04551 20.4196 7.95186 20.4625 7.85362 20.4625V21.4625ZM7.15727 21.2662C7.36863 21.3954 7.60926 21.4625 7.85362 21.4625V20.4625C7.79277 20.4625 7.73273 20.4459 7.67892 20.413L7.15727 21.2662ZM6.62394 19.611C6.36887 20.2186 6.59509 20.9215 7.15677 21.2659L7.67941 20.4133C7.53892 20.3272 7.48183 20.1509 7.54599 19.9981L6.62394 19.611ZM9.54102 12.6829L6.62415 19.6105L7.54578 19.9986L10.4627 13.0709L9.54102 12.6829ZM7.85393 13.3769H10.0018V12.3769H7.85393V13.3769ZM6.71913 12.7444C6.96271 13.1369 7.39072 13.3769 7.85393 13.3769V12.3769C7.73889 12.3769 7.63118 12.3176 7.56882 12.2171L6.71913 12.7444ZM6.66071 11.4455C6.45322 11.8591 6.47608 12.3504 6.71845 12.7433L7.5695 12.2182C7.50836 12.1191 7.50328 11.9961 7.55453 11.8939L6.66071 11.4455ZM10.9922 2.78254L6.66041 11.4461L7.55484 11.8933L11.8866 3.22976L10.9922 2.78254ZM12.1855 2.04541C11.6801 2.04541 11.2186 2.33076 10.9924 2.78211L11.8864 3.23019C11.9432 3.11682 12.0589 3.04541 12.1855 3.04541V2.04541ZM16.8058 2.04541H12.1855V3.04541H16.8058V2.04541ZM17.9745 2.73613C17.7401 2.30996 17.2919 2.04541 16.8058 2.04541V3.04541C16.9278 3.04541 17.0399 3.1119 17.0983 3.21803L17.9745 2.73613ZM9.20688 18.8646L11.7869 12.7372L10.8652 12.3491L8.28525 18.4766L9.20688 18.8646ZM16.1606 9.08965L8.36361 18.3485L9.12852 18.9927L16.9255 9.73379L16.1606 9.08965ZM12.6815 9.91172H16.543V8.91172H12.6815V9.91172ZM12.7894 8.30688L12.2591 9.14419L13.1039 9.67926L13.6342 8.84195L12.7894 8.30688ZM15.917 3.36879L12.7894 8.30688L13.6342 8.84195L16.7618 3.90385L15.917 3.36879ZM12.344 4.13632H16.3394V3.13632H12.344V4.13632ZM8.71636 12.0096L12.7912 3.85993L11.8968 3.41271L7.82193 11.5624L8.71636 12.0096ZM11.6448 11.286H8.26914V12.286H11.6448V11.286ZM11.7869 12.7372L12.1057 11.98L11.184 11.592L10.8652 12.3491L11.7869 12.7372Z" fill="currentcolor"/>
</svg>
