<svg width="24" height="24" viewBox="0 0 24 24" fill="none" xmlns="http://www.w3.org/2000/svg">
<path fill-rule="evenodd" clip-rule="evenodd" d="M19.1036 4.80684C19.31 4.47375 19.0705 4.04344 18.6786 4.04344C17.9321 4.04344 17.3347 4.04173 15.9895 4.03662C15.3166 4.03406 15.0173 4.03299 14.6433 4.03192C13.0069 4.02726 11.7922 4.02985 10.5994 4.04347C8.90718 4.06329 7.77933 4.74665 6.41388 6.29669L5.56368 7.26137C5.24593 7.62199 4.9735 7.93134 4.71323 8.22714C4.58262 8.37519 4.48855 8.49095 4.4167 8.59853C4.37046 8.62634 4.32797 8.66218 4.29135 8.70584C2.90647 10.3572 2.79994 12.902 4.48886 14.0744C5.06232 14.4718 5.68105 14.5921 6.59644 14.5898C6.70858 14.5895 6.79875 14.5881 6.99359 14.5842C7.19909 14.5801 7.28639 14.5788 7.39458 14.5788H14.4686C14.6122 14.5788 14.7283 14.5802 14.9921 14.5846L15.1869 14.5877C15.5644 14.5931 15.8245 14.5914 16.0892 14.5782C16.9907 14.5363 17.6291 14.2666 17.8913 13.6072L20.4573 9.37753L20.4833 9.33509L20.5107 9.2912C20.5491 9.23022 20.583 9.17795 20.6606 9.0589C21.237 8.17356 21.4204 7.67601 21.2035 6.94964C20.873 5.84426 20.105 5.51397 18.7526 5.48331L18.6934 5.48209C18.8653 5.1957 18.9965 4.97967 19.1036 4.80684ZM18.1022 6.47269C17.9509 6.72648 17.8001 6.97952 17.7318 7.09378L17.681 7.17888C16.4292 9.27248 16.0355 9.89458 15.7647 10.0431C15.4886 10.1944 14.3453 10.2213 9.40533 10.2773L8.1517 10.2913C6.39464 10.311 5.45509 10.3238 4.68442 10.3406C4.6138 10.3421 4.54634 10.329 4.48493 10.3039C4.03856 11.413 4.19437 12.6527 5.05874 13.2527C5.4241 13.5059 5.8651 13.5916 6.59386 13.5898C6.69833 13.5895 6.78457 13.5882 6.97366 13.5844C7.1859 13.5802 7.27747 13.5788 7.39458 13.5788H14.4686C14.6196 13.5788 14.7393 13.5803 15.0087 13.5847L15.2013 13.5878C15.5591 13.5929 15.8007 13.5913 16.041 13.5793C16.4865 13.5586 16.7515 13.4855 16.8906 13.3288L16.973 13.193C16.9881 13.1544 16.9991 13.1125 17.0063 13.0669C17.0669 12.6884 16.8472 12.4464 16.4542 12.3732L11.1505 12.4103L10.178 12.4212L8.03842 12.4452L7.99503 12.4457L5.89785 12.4696C5.62173 12.4727 5.39531 12.2515 5.39214 11.9753C5.38897 11.6992 5.61023 11.4728 5.88636 11.4696L7.98374 11.4458L8.02713 11.4453L10.1668 11.4212L11.1414 11.4103L16.533 11.3801C17.0254 11.4623 17.432 11.6817 17.6943 12.004L19.6023 8.85893L19.6335 8.80808L19.6645 8.75838C19.7068 8.69121 19.7443 8.63326 19.8226 8.51325C20.2457 7.86346 20.349 7.583 20.2454 7.23592C20.0756 6.66806 19.6963 6.50496 18.7299 6.48306C18.6547 6.48135 18.5944 6.4805 18.4558 6.47894C18.2816 6.47697 18.1977 6.47564 18.1022 6.47269ZM14.6404 5.03192C15.014 5.03298 15.3131 5.03405 15.9857 5.03661C16.7911 5.03967 17.3288 5.04151 17.791 5.0425L17.6377 5.29879L17.3215 5.82924C17.1468 6.12245 16.9532 6.44728 16.8734 6.58092L16.8227 6.66572C15.999 8.04332 15.2907 9.1625 15.284 9.16618C15.2572 9.18088 12.7866 9.23887 9.39399 9.27736L8.14048 9.29138C6.75156 9.30696 5.87236 9.31823 5.18233 9.33059C5.1876 9.28211 5.19558 9.25399 5.20734 9.22702C5.23558 9.16227 5.3031 9.0701 5.46356 8.88819C5.72408 8.59213 5.99637 8.28294 6.31398 7.92247L7.16416 6.95781C8.36054 5.59969 9.25241 5.05931 10.6109 5.0434C11.798 5.02985 13.0084 5.02726 14.6404 5.03192ZM3.24394 14.6994C2.58696 16.4607 3.45694 18.6036 5.23978 19.0532C5.5677 19.1362 5.91463 19.1638 6.36265 19.1595C6.48195 19.1583 6.58023 19.1558 6.78222 19.1494C7.0246 19.1417 7.1218 19.1393 7.24253 19.1393H14.1704C14.3168 19.1393 14.4349 19.1407 14.7031 19.1447L14.8389 19.1467C15.2642 19.1527 15.5314 19.1516 15.8131 19.1388C16.3736 19.1119 16.7338 19.0466 17.02 18.8328C17.1589 18.8155 17.2898 18.7405 17.3738 18.6152L20.2242 14.3693C21.2199 12.8554 21.3274 12.0322 20.3788 11.2645C20.1641 11.0908 19.8493 11.124 19.6756 11.3387C19.5019 11.5534 19.5351 11.8682 19.7497 12.0419C20.1756 12.3865 20.137 12.6821 19.3913 13.8159L17.4273 16.7415C17.2581 16.4101 16.9833 16.1382 16.6203 16.004C16.3476 15.9022 16.0366 15.876 15.6188 15.8902C15.5199 15.8936 15.4305 15.8984 15.2796 15.9076C15.0459 15.9219 14.9798 15.9254 14.8898 15.9264L13.3252 15.9439L11.7602 15.9614C10.8255 15.9722 9.84757 15.9833 8.7373 15.9957L5.71442 16.0291C5.4383 16.0322 5.21692 16.2585 5.21997 16.5346C5.22302 16.8107 5.44933 17.0321 5.72546 17.0291L8.74846 16.9956C9.85885 16.9832 10.8369 16.9721 11.7716 16.9613L13.3363 16.9438L14.9013 16.9264C15.0151 16.925 15.0874 16.9213 15.3408 16.9057C15.4831 16.897 15.5654 16.8926 15.6528 16.8896C15.9491 16.8796 16.1521 16.8966 16.272 16.9414C16.5941 17.0605 16.7385 17.6146 16.5135 17.9291C16.4119 18.0705 16.2489 18.1167 15.7664 18.1399C15.5108 18.1515 15.2599 18.1525 14.853 18.1468L14.7181 18.1448C14.4449 18.1407 14.3234 18.1393 14.1704 18.1393H7.24253C7.10747 18.1393 7.0039 18.1419 6.75059 18.1499C6.5558 18.156 6.46265 18.1584 6.35301 18.1595C5.98352 18.1631 5.71368 18.1416 5.48476 18.0837C4.32753 17.7918 3.71788 16.2901 4.18088 15.0489C4.27739 14.7902 4.14589 14.5022 3.88716 14.4057C3.62843 14.3092 3.34045 14.4407 3.24394 14.6994Z" fill="currentcolor"/>
</svg>
