<svg width="24" height="24" viewBox="0 0 24 24" fill="none" xmlns="http://www.w3.org/2000/svg">
<path fill-rule="evenodd" clip-rule="evenodd" d="M19.1036 4.80684C19.31 4.47375 19.0705 4.04344 18.6786 4.04344C17.9321 4.04344 17.3347 4.04173 15.9895 4.03662C15.3166 4.03406 15.0173 4.03299 14.6433 4.03192C13.0069 4.02726 11.7922 4.02985 10.5994 4.04347C8.90718 4.06329 7.77933 4.74665 6.41388 6.29669L5.56368 7.26137C5.24593 7.62199 4.9735 7.93134 4.71323 8.22714C4.58262 8.37519 4.48855 8.49095 4.4167 8.59853C4.37046 8.62634 4.32797 8.66218 4.29135 8.70584C2.90647 10.3572 2.79994 12.902 4.48886 14.0744C5.06232 14.4718 5.68105 14.5921 6.59644 14.5898C6.70858 14.5895 6.79875 14.5881 6.99359 14.5842C7.19909 14.5801 7.28639 14.5788 7.39458 14.5788H14.4686C14.6122 14.5788 14.7283 14.5802 14.9921 14.5846L15.1869 14.5877C15.5644 14.5931 15.8245 14.5914 16.0892 14.5782C16.9907 14.5363 17.6291 14.2666 17.8913 13.6072L20.4573 9.37753L20.4833 9.33509L20.5107 9.2912C20.5491 9.23022 20.583 9.17795 20.6606 9.0589C21.237 8.17356 21.4204 7.67601 21.2035 6.94964C20.873 5.84426 20.105 5.51397 18.7526 5.48331L18.6934 5.48209C18.8653 5.1957 18.9965 4.97967 19.1036 4.80684ZM18.1022 6.47269C17.9509 6.72648 17.8001 6.97952 17.7318 7.09378L17.681 7.17888C16.4292 9.27248 16.0355 9.89458 15.7647 10.0431C15.4886 10.1944 14.3453 10.2213 9.40533 10.2773L8.1517 10.2913C6.39464 10.311 5.45509 10.3238 4.68442 10.3406C4.6138 10.3421 4.54634 10.329 4.48493 10.3039C4.03856 11.413 4.19437 12.6527 5.05874 13.2527C5.4241 13.5059 5.8651 13.5916 6.59386 13.5898C6.69833 13.5895 6.78457 13.5882 6.97366 13.5844C7.1859 13.5802 7.27747 13.5788 7.39458 13.5788H14.4686C14.6196 13.5788 14.7393 13.5803 15.0087 13.5847L15.2013 13.5878C15.5591 13.5929 15.8007 13.5913 16.041 13.5793C16.4865 13.5586 16.7515 13.4855 16.8906 13.3288L16.973 13.193C16.9881 13.1544 16.9991 13.1125 17.0063 13.0669C17.0669 12.6884 16.8472 12.4464 16.4542 12.3732L11.1505 12.4103L10.178 12.4212L8.03842 12.4452L7.99503 12.4457L5.89785 12.4696C5.62173 12.4727 5.39531 12.2515 5.39214 11.9753C5.38897 11.6992 5.61023 11.4728 5.88636 11.4696L7.98374 11.4458L8.02713 11.4453L10.1668 11.4212L11.1414 11.4103L16.533 11.3801C17.0254 11.4623 17.432 11.6817 17.6943 12.004L19.6023 8.85893L19.6335 8.80808L19.6645 8.75838C19.7068 8.69121 19.7443 8.63326 19.8226 8.51325C20.2457 7.86346 20.349 7.583 20.2454 7.23592C20.0756 6.66806 19.6963 6.50496 18.7299 6.48306C18.6547 6.48135 18.5944 6.4805 18.4558 6.47894C18.2816 6.47697 18.1977 6.47564 18.1022 6.47269ZM14.6404 5.03192C15.014 5.03298 15.3131 5.03405 15.9857 5.03661C16.7911 5.03967 17.3288 5.04151 17.791 5.0425L17.6377 5.29879L17.3215 5.82924C17.1468 6.12245 16.9532 6.44728 16.8734 6.58092L16.8227 6.66572C15.999 8.04332 15.2907 9.1625 15.284 9.16618C15.2572 9.18088 12.7866 9.23887 9.39399 9.27736L8.14048 9.29138C6.75156 9.30696 5.87236 9.31823 5.18233 9.33059C5.1876 9.28211 5.19558 9.25399 5.20734 9.22702C5.23558 9.16227 5.3031 9.0701 5.46356 8.88819C5.72408 8.59213 5.99637 8.28294 6.31398 7.92247L7.16416 6.95781C8.36054 5.59969 9.25241 5.05931 10.6109 5.0434C11.798 5.02985 13.0084 5.02726 14.6404 5.03192ZM3.24394 14.6994C2.58696 16.4607 3.45694 18.6036 5.23978 19.0532C5.5677 19.1362 5.91463 19.1638 6.36265 19.1595C6.48195 19.1583 6.58023 19.1558 6.78222 19.1494C7.0246 19.1417 7.1218 19.1393 7.24253 19.1393H14.1704C14.3168 19.1393 14.4349 19.1407 14.7031 19.1447L14.8389 19.1467C15.2642 19.1527 15.5314 19.1516 15.8131 19.1388C16.3736 19.1119 16.7338 19.0466 17.02 18.8328C17.1589 18.8155 17.2898 18.7405 17.3738 18.6152L20.2242 14.3693C21.2199 12.8554 21.3274 12.0322 20.3788 11.2645C20.1641 11.0908 19.8493 11.124 19.6756 11.3387C19.5019 11.5534 19.5351 11.8682 19.7497 12.0419C20.1756 12.3865 20.137 12.6821 19.3913 13.8159L17.4273 16.7415C17.2581 16.4101 16.9833 16.1382 16.6203 16.004C16.3476 15.9022 16.0366 15.876 15.6188 15.8902C15.5199 15.8936 15.4305 15.8984 15.2796 15.9076C15.0459 15.9219 14.9798 15.9254 14.8898 15.9264L13.3252 15.9439L11.7602 15.9614C10.8255 15.9722 9.84757 15.9833 8.7373 15.9957L5.71442 16.0291C5.4383 16.0322 5.21692 16.2585 5.21997 16.5346C5.22302 16.8107 5.44933 17.0321 5.72546 17.0291L8.74846 16.9956C9.85885 16.9832 10.8369 16.9721 11.7716 16.9613L13.3363 16.9438L14.9013 16.9264C15.0151 16.925 15.0874 16.9213 15.3408 16.9057C15.4831 16.897 15.5654 16.8926 15.6528 16.8896C15.9491 16.8796 16.1521 16.8966 16.272 16.9414C16.5941 17.0605 16.7385 17.6146 16.5135 17.9291C16.4119 18.0705 16.2489 18.1167 15.7664 18.1399C15.5108 18.1515 15.2599 18.1525 14.853 18.1468L14.7181 18.1448C14.4449 18.1407 14.3234 18.1393 14.1704 18.1393H7.24253C7.10747 18.1393 7.0039 18.1419 6.75059 18.1499C6.5558 18.156 6.46265 18.1584 6.35301 18.1595C5.98352 18.1631 5.71368 18.1416 5.48476 18.0837C4.32753 17.7918 3.71788 16.2901 4.18088 15.0489C4.27739 14.7902 4.14589 14.5022 3.88716 14.4057C3.62843 14.3092 3.34045 14.4407 3.24394 14.6994Z" fill="currentcolor"/>
<path d="M19.1036 4.80684L18.8911 4.67514L18.8911 4.67514L19.1036 4.80684ZM15.9895 4.03662L15.9885 4.28661L15.9895 4.03662ZM14.6433 4.03192L14.644 3.78192L14.6433 4.03192ZM10.5994 4.04347L10.5965 3.79348L10.5964 3.79348L10.5994 4.04347ZM6.41388 6.29669L6.60143 6.46199L6.60147 6.46195L6.41388 6.29669ZM5.56368 7.26137L5.37613 7.09607L5.37611 7.0961L5.56368 7.26137ZM4.71323 8.22714L4.90071 8.39251L4.90091 8.39229L4.71323 8.22714ZM4.4167 8.59853L4.54556 8.81276L4.59352 8.78392L4.6246 8.73737L4.4167 8.59853ZM4.29135 8.70584L4.4829 8.86649L4.4829 8.86649L4.29135 8.70584ZM4.48886 14.0744L4.34629 14.2798L4.34648 14.2799L4.48886 14.0744ZM6.59644 14.5898L6.5958 14.3398H6.5958L6.59644 14.5898ZM6.99359 14.5842L6.98861 14.3342H6.9886L6.99359 14.5842ZM14.9921 14.5846L14.988 14.8346L14.9881 14.8346L14.9921 14.5846ZM15.1869 14.5877L15.183 14.8376L15.1834 14.8376L15.1869 14.5877ZM16.0892 14.5782L16.0776 14.3284L16.0767 14.3285L16.0892 14.5782ZM17.8913 13.6072L17.6776 13.4776L17.6667 13.4954L17.659 13.5149L17.8913 13.6072ZM20.4573 9.37753L20.2442 9.24689L20.2436 9.24786L20.4573 9.37753ZM20.4833 9.33509L20.2713 9.20267L20.2702 9.20446L20.4833 9.33509ZM20.5107 9.2912L20.2992 9.15799L20.2987 9.15878L20.5107 9.2912ZM20.6606 9.0589L20.87 9.19544L20.8701 9.19531L20.6606 9.0589ZM21.2035 6.94964L21.4431 6.87813L21.4431 6.87801L21.2035 6.94964ZM18.7526 5.48331L18.7583 5.23338L18.7578 5.23337L18.7526 5.48331ZM18.6934 5.48209L18.4791 5.35343L18.2572 5.72309L18.6883 5.73203L18.6934 5.48209ZM17.7318 7.09378L17.9464 7.22204L17.9464 7.222L17.7318 7.09378ZM18.1022 6.47269L18.1099 6.2228L17.9627 6.21826L17.8874 6.3447L18.1022 6.47269ZM17.681 7.17888L17.8955 7.30717L17.8956 7.30713L17.681 7.17888ZM15.7647 10.0431L15.8849 10.2623L15.8849 10.2623L15.7647 10.0431ZM9.40533 10.2773L9.40813 10.5273L9.40817 10.5273L9.40533 10.2773ZM8.1517 10.2913L8.1489 10.0413H8.14889L8.1517 10.2913ZM4.68442 10.3406L4.68987 10.5906H4.68987L4.68442 10.3406ZM4.48493 10.3039L4.57932 10.0724L4.34677 9.97762L4.25301 10.2106L4.48493 10.3039ZM5.05874 13.2527L4.91618 13.4581L4.91636 13.4582L5.05874 13.2527ZM6.59386 13.5898L6.59451 13.8398H6.59451L6.59386 13.5898ZM6.97366 13.5844L6.96868 13.3344H6.96868L6.97366 13.5844ZM15.0087 13.5847L15.0045 13.8347L15.0047 13.8347L15.0087 13.5847ZM15.2013 13.5878L15.1974 13.8377L15.1977 13.8378L15.2013 13.5878ZM16.041 13.5793L16.0294 13.3296L16.0285 13.3296L16.041 13.5793ZM16.8906 13.3288L17.0775 13.4948L17.0926 13.4779L17.1043 13.4585L16.8906 13.3288ZM16.973 13.193L17.1867 13.3227L17.1979 13.3043L17.2058 13.2842L16.973 13.193ZM17.0063 13.0669L16.7594 13.0274L16.7594 13.0277L17.0063 13.0669ZM16.4542 12.3732L16.4999 12.1275L16.4764 12.1231L16.4524 12.1232L16.4542 12.3732ZM11.1505 12.4103L11.1488 12.1603L11.1477 12.1603L11.1505 12.4103ZM10.178 12.4212L10.1752 12.1712L10.1752 12.1712L10.178 12.4212ZM8.03842 12.4452L8.0356 12.1953H8.03559L8.03842 12.4452ZM7.99503 12.4457L7.99221 12.1958H7.99219L7.99503 12.4457ZM5.89785 12.4696L5.89501 12.2196H5.89498L5.89785 12.4696ZM5.88636 11.4696L5.88352 11.2196L5.88349 11.2196L5.88636 11.4696ZM7.98374 11.4458L7.98092 11.1958L7.9809 11.1958L7.98374 11.4458ZM8.02713 11.4453L8.02432 11.1953H8.02431L8.02713 11.4453ZM10.1668 11.4212L10.164 11.1713H10.164L10.1668 11.4212ZM11.1414 11.4103L11.14 11.1603L11.1386 11.1603L11.1414 11.4103ZM16.533 11.3801L16.5742 11.1335L16.553 11.13L16.5316 11.1301L16.533 11.3801ZM17.6943 12.004L17.5004 12.1618L17.7242 12.4367L17.9081 12.1336L17.6943 12.004ZM19.6023 8.85893L19.3892 8.72828L19.3886 8.72926L19.6023 8.85893ZM19.6335 8.80808L19.4214 8.67564L19.4203 8.67743L19.6335 8.80808ZM19.6645 8.75838L19.4529 8.62518L19.4525 8.62595L19.6645 8.75838ZM19.8226 8.51325L20.032 8.64981L20.0321 8.64966L19.8226 8.51325ZM20.2454 7.23592L20.4849 7.16441L20.4849 7.16429L20.2454 7.23592ZM18.7299 6.48306L18.7356 6.23312H18.7356L18.7299 6.48306ZM18.4558 6.47894L18.4529 6.72892H18.4529L18.4558 6.47894ZM15.9857 5.03661L15.9866 4.78661L15.9857 5.03661ZM14.6404 5.03192L14.6397 5.28192L14.6404 5.03192ZM17.791 5.0425L18.0056 5.17084L18.2313 4.79344L17.7916 4.7925L17.791 5.0425ZM17.6377 5.29879L17.4232 5.17045L17.423 5.17078L17.6377 5.29879ZM17.3215 5.82924L17.1068 5.70123L17.1067 5.70126L17.3215 5.82924ZM16.8734 6.58092L17.0879 6.70918L17.088 6.70914L16.8734 6.58092ZM16.8227 6.66572L17.0372 6.79401L17.0373 6.79398L16.8227 6.66572ZM15.284 9.16618L15.4042 9.38541L15.4042 9.3854L15.284 9.16618ZM9.39399 9.27736L9.39679 9.52734L9.39683 9.52734L9.39399 9.27736ZM8.14048 9.29138L8.13768 9.0414H8.13768L8.14048 9.29138ZM5.18233 9.33059L4.9338 9.30359L4.90316 9.58563L5.18681 9.58055L5.18233 9.33059ZM5.20734 9.22702L5.43651 9.32694L5.43651 9.32694L5.20734 9.22702ZM5.46356 8.88819L5.65104 9.05357L5.65124 9.05334L5.46356 8.88819ZM6.31398 7.92247L6.12642 7.75717L6.1264 7.7572L6.31398 7.92247ZM7.16416 6.95781L7.35172 7.1231L7.35176 7.12306L7.16416 6.95781ZM10.6109 5.0434L10.6081 4.79342L10.608 4.79342L10.6109 5.0434ZM5.23978 19.0532L5.30113 18.8109L5.30092 18.8108L5.23978 19.0532ZM3.24394 14.6994L3.00971 14.612H3.00971L3.24394 14.6994ZM6.36265 19.1595L6.36024 18.9095H6.36024L6.36265 19.1595ZM6.78222 19.1494L6.77431 18.8995L6.78222 19.1494ZM14.7031 19.1447L14.6994 19.3947L14.6995 19.3947L14.7031 19.1447ZM14.8389 19.1467L14.8352 19.3967L14.8354 19.3967L14.8389 19.1467ZM15.8131 19.1388L15.8244 19.3886L15.8251 19.3885L15.8131 19.1388ZM17.02 18.8328L16.9893 18.5847L16.9235 18.5928L16.8704 18.6325L17.02 18.8328ZM17.3738 18.6152L17.1663 18.4759L17.3738 18.6152ZM20.2242 14.3693L20.4318 14.5087L20.4331 14.5067L20.2242 14.3693ZM20.3788 11.2645L20.2215 11.4589L20.3788 11.2645ZM19.7497 12.0419L19.907 11.8476L19.907 11.8476L19.7497 12.0419ZM19.3913 13.8159L19.5989 13.9552L19.6002 13.9533L19.3913 13.8159ZM17.4273 16.7415L17.2046 16.8551L17.3979 17.2338L17.6349 16.8808L17.4273 16.7415ZM16.6203 16.004L16.5328 16.2382L16.5336 16.2385L16.6203 16.004ZM15.6188 15.8902L15.6103 15.6404H15.6103L15.6188 15.8902ZM15.2796 15.9076L15.2643 15.6581H15.2643L15.2796 15.9076ZM14.8898 15.9264L14.8926 16.1764L14.8928 16.1764L14.8898 15.9264ZM13.3252 15.9439L13.328 16.1939L13.3252 15.9439ZM11.7602 15.9614L11.7575 15.7114L11.7574 15.7114L11.7602 15.9614ZM8.7373 15.9957L8.74007 16.2456H8.74009L8.7373 15.9957ZM5.71442 16.0291L5.71718 16.2791H5.71719L5.71442 16.0291ZM5.72546 17.0291L5.72822 17.2791H5.72823L5.72546 17.0291ZM8.74846 16.9956L8.75123 17.2456H8.75126L8.74846 16.9956ZM11.7716 16.9613L11.7688 16.7113L11.7687 16.7113L11.7716 16.9613ZM13.3363 16.9438L13.3391 17.1938L13.3363 16.9438ZM14.9013 16.9264L14.9041 17.1764L14.9042 17.1764L14.9013 16.9264ZM15.3408 16.9057L15.3561 17.1553L15.3408 16.9057ZM15.6528 16.8896L15.6613 17.1395L15.6528 16.8896ZM16.272 16.9414L16.1845 17.1756L16.1853 17.1759L16.272 16.9414ZM16.5135 17.9291L16.7165 18.0751L16.7168 18.0746L16.5135 17.9291ZM15.7664 18.1399L15.7777 18.3897L15.7784 18.3896L15.7664 18.1399ZM14.853 18.1468L14.8493 18.3968L14.8494 18.3968L14.853 18.1468ZM14.7181 18.1448L14.7144 18.3948L14.7145 18.3948L14.7181 18.1448ZM6.75059 18.1499L6.7585 18.3997H6.7585L6.75059 18.1499ZM6.35301 18.1595L6.3506 17.9095H6.35059L6.35301 18.1595ZM5.48476 18.0837L5.54611 17.8413L5.5459 17.8413L5.48476 18.0837ZM4.18088 15.0489L4.41511 15.1363L4.18088 15.0489ZM3.88716 14.4057L3.97454 14.1715L3.97454 14.1715L3.88716 14.4057ZM18.6786 4.29344C18.8745 4.29344 18.9943 4.50859 18.8911 4.67514L19.3161 4.93854C19.6257 4.43891 19.2664 3.79344 18.6786 3.79344V4.29344ZM15.9885 4.28661C17.3338 4.29173 17.9316 4.29344 18.6786 4.29344V3.79344C17.9326 3.79344 17.3356 3.79173 15.9904 3.78662L15.9885 4.28661ZM14.6425 4.28192C15.0165 4.28299 15.3157 4.28405 15.9885 4.28661L15.9904 3.78662C15.3176 3.78406 15.0181 3.78299 14.644 3.78192L14.6425 4.28192ZM10.6022 4.29345C11.7934 4.27986 13.0068 4.27726 14.6425 4.28192L14.644 3.78192C13.007 3.77725 11.791 3.77985 10.5965 3.79348L10.6022 4.29345ZM6.60147 6.46195C7.27512 5.69722 7.87641 5.16248 8.50503 4.81505C9.129 4.47019 9.79263 4.30293 10.6023 4.29345L10.5964 3.79348C9.71391 3.80382 8.96753 3.98815 8.26317 4.37744C7.56345 4.76416 6.91808 5.34612 6.22628 6.13144L6.60147 6.46195ZM5.75124 7.42667L6.60143 6.46199L6.22632 6.1314L5.37613 7.09607L5.75124 7.42667ZM4.90091 8.39229C5.16114 8.09655 5.43353 7.78724 5.75126 7.42665L5.37611 7.0961C5.05833 7.45674 4.78587 7.76614 4.52554 8.06199L4.90091 8.39229ZM4.6246 8.73737C4.68708 8.64382 4.77242 8.53795 4.90071 8.39251L4.52574 8.06176C4.39283 8.21243 4.29001 8.33809 4.2088 8.45969L4.6246 8.73737ZM4.4829 8.86649C4.5015 8.84431 4.52272 8.8265 4.54556 8.81276L4.28784 8.3843C4.2182 8.42619 4.15444 8.48004 4.09979 8.5452L4.4829 8.86649ZM4.63142 13.8691C3.86542 13.3373 3.49804 12.4909 3.48741 11.5669C3.47675 10.6397 3.82736 9.64817 4.4829 8.86649L4.09979 8.5452C3.37046 9.41487 2.97536 10.5214 2.98745 11.5726C2.99957 12.6269 3.42338 13.6391 4.34629 14.2798L4.63142 13.8691ZM6.5958 14.3398C5.70323 14.3421 5.14427 14.2244 4.63124 13.869L4.34648 14.2799C4.98037 14.7191 5.65886 14.8422 6.59709 14.8398L6.5958 14.3398ZM6.9886 14.3342C6.79402 14.3381 6.70565 14.3395 6.5958 14.3398L6.59709 14.8398C6.71151 14.8395 6.80349 14.838 6.99857 14.8341L6.9886 14.3342ZM7.39458 14.3288C7.28371 14.3288 7.19426 14.3301 6.98861 14.3342L6.99856 14.8341C7.20393 14.83 7.28908 14.8288 7.39458 14.8288V14.3288ZM14.4686 14.3288H7.39458V14.8288H14.4686V14.3288ZM14.9962 14.3346C14.7322 14.3303 14.6144 14.3288 14.4686 14.3288V14.8288C14.61 14.8288 14.7243 14.8302 14.988 14.8346L14.9962 14.3346ZM15.1909 14.3377L14.9961 14.3346L14.9881 14.8346L15.183 14.8376L15.1909 14.3377ZM16.0767 14.3285C15.8197 14.3413 15.5657 14.3431 15.1905 14.3377L15.1834 14.8376C15.5631 14.8431 15.8293 14.8415 16.1017 14.8278L16.0767 14.3285ZM17.659 13.5149C17.4524 14.0346 16.9467 14.288 16.0776 14.3284L16.1008 14.8279C17.0347 14.7845 17.8059 14.4986 18.1236 13.6996L17.659 13.5149ZM20.2436 9.24786L17.6776 13.4776L18.1051 13.7369L20.6711 9.5072L20.2436 9.24786ZM20.2702 9.20446L20.2442 9.24689L20.6705 9.50816L20.6965 9.46573L20.2702 9.20446ZM20.2987 9.15878L20.2713 9.20268L20.6954 9.46751L20.7228 9.42361L20.2987 9.15878ZM20.4512 8.92236C20.3735 9.0414 20.3387 9.09516 20.2992 9.15799L20.7223 9.4244C20.7595 9.36528 20.7924 9.3145 20.87 9.19544L20.4512 8.92236ZM20.964 7.02115C21.0607 7.34508 21.0653 7.60269 20.9887 7.87756C20.9089 8.16419 20.7373 8.4829 20.4511 8.92248L20.8701 9.19531C21.1603 8.74955 21.3687 8.37682 21.4704 8.01175C21.5754 7.63491 21.5632 7.28057 21.4431 6.87813L20.964 7.02115ZM18.7469 5.73325C19.4106 5.74829 19.891 5.8373 20.2394 6.03176C20.5746 6.21882 20.8137 6.51851 20.964 7.02127L21.4431 6.87801C21.2628 6.27539 20.9527 5.85725 20.4831 5.59516C20.0268 5.34046 19.447 5.24899 18.7583 5.23338L18.7469 5.73325ZM18.6883 5.73203L18.7474 5.73326L18.7578 5.23337L18.6986 5.23214L18.6883 5.73203ZM18.8911 4.67514C18.7831 4.84945 18.6512 5.06665 18.4791 5.35343L18.9078 5.61074C19.0794 5.32475 19.2099 5.10989 19.3161 4.93854L18.8911 4.67514ZM17.9464 7.222C18.0148 7.10758 18.1657 6.8544 18.3169 6.60067L17.8874 6.3447C17.7361 6.59856 17.5854 6.85145 17.5172 6.96557L17.9464 7.222ZM17.8956 7.30713L17.9464 7.22204L17.5172 6.96553L17.4664 7.05063L17.8956 7.30713ZM15.8849 10.2623C15.9921 10.2035 16.091 10.1098 16.1933 9.98865C16.2972 9.8657 16.4172 9.69918 16.5634 9.47848C16.856 9.03687 17.2706 8.35248 17.8955 7.30717L17.4664 7.05059C16.8396 8.09888 16.4315 8.77235 16.1466 9.20231C16.0041 9.41739 15.8966 9.56509 15.8114 9.66596C15.7246 9.76867 15.6727 9.8084 15.6445 9.82385L15.8849 10.2623ZM9.40817 10.5273C11.877 10.4993 13.4012 10.4785 14.3427 10.4458C14.8127 10.4294 15.1437 10.4099 15.3767 10.3841C15.5991 10.3595 15.7678 10.3265 15.8849 10.2623L15.6445 9.82384C15.6235 9.83535 15.5458 9.86238 15.3218 9.88715C15.1084 9.91074 14.793 9.9298 14.3253 9.94607C13.3911 9.97858 11.8737 9.99928 9.4025 10.0273L9.40817 10.5273ZM8.15449 10.5413L9.40813 10.5273L9.40254 10.0273L8.1489 10.0413L8.15449 10.5413ZM4.68987 10.5906C5.45903 10.5738 6.39734 10.561 8.1545 10.5413L8.14889 10.0413C6.39194 10.061 5.45114 10.0739 4.67898 10.0907L4.68987 10.5906ZM4.39053 10.5354C4.48303 10.5732 4.58443 10.5928 4.68987 10.5906L4.67898 10.0907C4.64318 10.0915 4.60965 10.0848 4.57932 10.0724L4.39053 10.5354ZM5.20131 13.0474C4.471 12.5404 4.29387 11.4482 4.71685 10.3973L4.25301 10.2106C3.78324 11.3778 3.91773 12.765 4.91618 13.4581L5.20131 13.0474ZM6.59322 13.3398C5.87926 13.3416 5.50219 13.2558 5.20112 13.0472L4.91636 13.4582C5.34602 13.7559 5.85094 13.8417 6.59451 13.8398L6.59322 13.3398ZM6.96868 13.3344C6.77979 13.3382 6.69538 13.3395 6.59322 13.3398L6.59451 13.8398C6.70128 13.8395 6.78934 13.8381 6.97864 13.8343L6.96868 13.3344ZM7.39458 13.3288C7.27481 13.3288 7.18113 13.3302 6.96868 13.3344L6.97864 13.8343C7.19068 13.8301 7.28013 13.8288 7.39458 13.8288V13.3288ZM14.4686 13.3288H7.39458V13.8288H14.4686V13.3288ZM15.0128 13.3348C14.7432 13.3303 14.6218 13.3288 14.4686 13.3288V13.8288C14.6174 13.8288 14.7354 13.8302 15.0045 13.8347L15.0128 13.3348ZM15.2053 13.3378L15.0126 13.3348L15.0047 13.8347L15.1974 13.8377L15.2053 13.3378ZM16.0285 13.3296C15.796 13.3413 15.5605 13.3429 15.2049 13.3378L15.1977 13.8378C15.5577 13.8429 15.8054 13.8414 16.0535 13.829L16.0285 13.3296ZM16.7036 13.1629C16.6408 13.2337 16.4776 13.3088 16.0294 13.3296L16.0526 13.829C16.4954 13.8085 16.8623 13.7373 17.0775 13.4948L16.7036 13.1629ZM16.7592 13.0634L16.6768 13.1992L17.1043 13.4585L17.1867 13.3227L16.7592 13.0634ZM16.7594 13.0277C16.7545 13.0581 16.7478 13.0824 16.7402 13.1019L17.2058 13.2842C17.2283 13.2265 17.2436 13.1668 17.2532 13.1061L16.7594 13.0277ZM16.4085 12.619C16.5673 12.6486 16.6595 12.7065 16.7075 12.7646C16.7508 12.8172 16.7804 12.8965 16.7594 13.0274L17.2531 13.1064C17.2928 12.8588 17.2428 12.6279 17.0932 12.4465C16.9482 12.2706 16.734 12.171 16.4999 12.1275L16.4085 12.619ZM11.1523 12.6603L16.4559 12.6232L16.4524 12.1232L11.1488 12.1603L11.1523 12.6603ZM10.1808 12.6712L11.1533 12.6603L11.1477 12.1603L10.1752 12.1712L10.1808 12.6712ZM8.04123 12.6952L10.1808 12.6712L10.1752 12.1712L8.0356 12.1953L8.04123 12.6952ZM7.99785 12.6957L8.04124 12.6952L8.03559 12.1953L7.99221 12.1958L7.99785 12.6957ZM5.90069 12.7196L7.99787 12.6957L7.99219 12.1958L5.89501 12.2196L5.90069 12.7196ZM5.14216 11.9782C5.14692 12.3924 5.48654 12.7243 5.90073 12.7196L5.89498 12.2196C5.75692 12.2212 5.64371 12.1105 5.64212 11.9725L5.14216 11.9782ZM5.88349 11.2196C5.4693 11.2244 5.13739 11.564 5.14216 11.9782L5.64212 11.9725C5.64054 11.8344 5.75117 11.7212 5.88923 11.7196L5.88349 11.2196ZM7.9809 11.1958L5.88352 11.2196L5.8892 11.7196L7.98658 11.6958L7.9809 11.1958ZM8.02431 11.1953L7.98092 11.1958L7.98656 11.6958L8.02995 11.6953L8.02431 11.1953ZM10.164 11.1713L8.02432 11.1953L8.02994 11.6953L10.1696 11.6712L10.164 11.1713ZM11.1386 11.1603L10.164 11.1713L10.1696 11.6712L11.1442 11.6603L11.1386 11.1603ZM16.5316 11.1301L11.14 11.1603L11.1428 11.6603L16.5344 11.6301L16.5316 11.1301ZM17.8882 11.8462C17.5804 11.468 17.1145 11.2237 16.5742 11.1335L16.4919 11.6267C16.9363 11.7009 17.2836 11.8954 17.5004 12.1618L17.8882 11.8462ZM19.3886 8.72926L17.4806 11.8743L17.9081 12.1336L19.816 8.98859L19.3886 8.72926ZM19.4203 8.67743L19.3892 8.72828L19.8155 8.98957L19.8466 8.93872L19.4203 8.67743ZM19.4525 8.62595L19.4214 8.67565L19.8455 8.94051L19.8766 8.89081L19.4525 8.62595ZM19.6132 8.37669C19.5349 8.49677 19.4964 8.55617 19.4529 8.62518L19.8761 8.89159C19.9172 8.82625 19.9538 8.76976 20.032 8.64981L19.6132 8.37669ZM20.0058 7.30743C20.0426 7.43058 20.0441 7.53454 19.9946 7.68107C19.9399 7.84305 19.8243 8.05245 19.6131 8.37683L20.0321 8.64966C20.2439 8.32426 20.3915 8.06853 20.4683 7.84106C20.5504 7.59815 20.5518 7.38833 20.4849 7.16441L20.0058 7.30743ZM18.7243 6.73299C19.2046 6.74388 19.4932 6.7907 19.6776 6.87983C19.8379 6.95734 19.9364 7.0752 20.0059 7.30755L20.4849 7.16429C20.3846 6.82878 20.2085 6.58116 19.8952 6.42968C19.6059 6.28982 19.2217 6.24414 18.7356 6.23312L18.7243 6.73299ZM18.4529 6.72892C18.5915 6.73048 18.6506 6.73132 18.7243 6.73299L18.7356 6.23312C18.6589 6.23138 18.5973 6.23052 18.4586 6.22895L18.4529 6.72892ZM18.0944 6.72257C18.1926 6.7256 18.2787 6.72695 18.4529 6.72892L18.4586 6.22895C18.2846 6.22699 18.2028 6.22567 18.1099 6.2228L18.0944 6.72257ZM15.9866 4.78661C15.3141 4.78405 15.0149 4.78299 14.6411 4.78192L14.6397 5.28192C15.0132 5.28298 15.3122 5.28405 15.9847 5.28661L15.9866 4.78661ZM17.7916 4.7925C17.3296 4.79151 16.792 4.78967 15.9866 4.78661L15.9847 5.28661C16.7902 5.28967 17.328 5.29151 17.7905 5.2925L17.7916 4.7925ZM17.8523 5.42713L18.0056 5.17084L17.5765 4.91416L17.4232 5.17045L17.8523 5.42713ZM17.5362 5.95725L17.8525 5.4268L17.423 5.17078L17.1068 5.70123L17.5362 5.95725ZM17.088 6.70914C17.1679 6.57535 17.3616 6.25035 17.5363 5.95722L17.1067 5.70126C16.932 5.99455 16.7385 6.31922 16.6587 6.45271L17.088 6.70914ZM17.0373 6.79398L17.0879 6.70918L16.6588 6.45267L16.6081 6.53747L17.0373 6.79398ZM15.4042 9.3854C15.4391 9.36624 15.4612 9.34255 15.4623 9.34148C15.4689 9.33476 15.4737 9.32909 15.4759 9.32646C15.4806 9.32085 15.4841 9.31616 15.4854 9.31437C15.4886 9.31014 15.4912 9.30635 15.4925 9.30444C15.4956 9.30003 15.4989 9.295 15.5021 9.29022C15.5086 9.28026 15.5176 9.26642 15.5286 9.24933C15.5507 9.21494 15.5825 9.16494 15.6228 9.10119C15.7034 8.97358 15.8187 8.78972 15.9594 8.56302C16.2408 8.10964 16.6246 7.48423 17.0372 6.79401L16.6081 6.53743C16.1971 7.22481 15.8149 7.8478 15.5346 8.29932C15.3944 8.52507 15.2799 8.7078 15.2001 8.83412C15.1601 8.89734 15.1291 8.94615 15.1079 8.97904C15.0973 8.9956 15.0895 9.00752 15.0846 9.01504C15.0834 9.01687 15.0824 9.01828 15.0817 9.01933C15.081 9.02044 15.0807 9.02085 15.0808 9.02075C15.0808 9.02069 15.0811 9.02029 15.0816 9.01966C15.0819 9.01911 15.0829 9.01779 15.0842 9.01603C15.0851 9.01483 15.0882 9.01061 15.0927 9.00533C15.0947 9.00286 15.0994 8.99732 15.1059 8.9907C15.1069 8.98973 15.1289 8.9661 15.1638 8.94697L15.4042 9.3854ZM9.39683 9.52734C11.0938 9.50809 12.5604 9.48396 13.6062 9.4628C14.1291 9.45222 14.5472 9.44238 14.8365 9.43424C14.981 9.43018 15.0941 9.42653 15.1723 9.4234C15.2112 9.42185 15.2429 9.42037 15.2659 9.41897C15.2771 9.41829 15.2885 9.41749 15.2986 9.41651C15.3033 9.41605 15.3109 9.41525 15.3195 9.41392C15.3236 9.41328 15.3312 9.412 15.3405 9.40981C15.3433 9.40914 15.3722 9.40293 15.4042 9.38541L15.1638 8.94696C15.1954 8.92967 15.2235 8.92369 15.2253 8.92326C15.2336 8.9213 15.2399 8.92028 15.2424 8.91989C15.2477 8.91906 15.251 8.91878 15.2501 8.91886C15.2491 8.91896 15.2447 8.91933 15.2355 8.91989C15.2177 8.92097 15.1902 8.92229 15.1524 8.9238C15.0771 8.92681 14.9663 8.9304 14.8224 8.93444C14.5349 8.94252 14.1183 8.95234 13.5961 8.9629C12.5518 8.98403 11.0868 9.00814 9.39116 9.02737L9.39683 9.52734ZM8.14328 9.54137L9.39679 9.52734L9.39119 9.02737L8.13768 9.0414L8.14328 9.54137ZM5.18681 9.58055C5.87591 9.56821 6.75436 9.55694 8.14328 9.54137L8.13768 9.0414C6.74877 9.05697 5.86881 9.06825 5.17786 9.08063L5.18681 9.58055ZM4.97818 9.12709C4.95449 9.18144 4.94125 9.23494 4.9338 9.30359L5.43087 9.35758C5.43262 9.34152 5.43425 9.33412 5.43491 9.3315C5.43532 9.32986 5.43553 9.32919 5.43651 9.32694L4.97818 9.12709ZM5.27608 8.72281C5.11986 8.89991 5.02466 9.0205 4.97818 9.1271L5.43651 9.32694C5.43946 9.32016 5.45045 9.29869 5.48576 9.25169C5.52042 9.20553 5.57244 9.14268 5.65104 9.05357L5.27608 8.72281ZM6.1264 7.7572C5.80877 8.11769 5.53644 8.42693 5.27588 8.72304L5.65124 9.05334C5.91172 8.75733 6.18396 8.44818 6.50155 8.08775L6.1264 7.7572ZM6.97661 6.79251L6.12642 7.75717L6.50153 8.08777L7.35172 7.1231L6.97661 6.79251ZM10.608 4.79342C9.8922 4.8018 9.28724 4.94949 8.70363 5.27969C8.12598 5.60653 7.58231 6.10492 6.97657 6.79255L7.35176 7.12306C7.9424 6.45258 8.44285 6.00172 8.94985 5.71486C9.4509 5.43137 9.97113 5.30091 10.6139 5.29338L10.608 4.79342ZM14.6411 4.78192C13.0085 4.77726 11.7968 4.77985 10.6081 4.79342L10.6138 5.29338C11.7992 5.27986 13.0083 5.27726 14.6397 5.28192L14.6411 4.78192ZM5.30092 18.8108C3.69436 18.4056 2.86104 16.4412 3.47818 14.7868L3.00971 14.612C2.31288 16.4801 3.21951 18.8015 5.17864 19.2956L5.30092 18.8108ZM6.36024 18.9095C5.92313 18.9137 5.59998 18.8865 5.30113 18.8109L5.17843 19.2956C5.53542 19.3859 5.90613 19.4139 6.36506 19.4094L6.36024 18.9095ZM6.77431 18.8995C6.57269 18.9059 6.47667 18.9083 6.36024 18.9095L6.36506 19.4094C6.48723 19.4083 6.58777 19.4056 6.79012 19.3992L6.77431 18.8995ZM7.24253 18.8893C7.11746 18.8893 7.01677 18.8918 6.77431 18.8995L6.79012 19.3992C7.03242 19.3916 7.12613 19.3893 7.24253 19.3893V18.8893ZM14.1704 18.8893H7.24253V19.3893H14.1704V18.8893ZM14.7069 18.8947C14.4385 18.8907 14.3188 18.8893 14.1704 18.8893V19.3893C14.3148 19.3893 14.4313 19.3906 14.6994 19.3947L14.7069 18.8947ZM14.8426 18.8967L14.7068 18.8947L14.6995 19.3947L14.8352 19.3967L14.8426 18.8967ZM15.8017 18.8891C15.5274 18.9015 15.266 18.9027 14.8424 18.8967L14.8354 19.3967C15.2625 19.4027 15.5354 19.4017 15.8244 19.3886L15.8017 18.8891ZM16.8704 18.6325C16.6496 18.7974 16.3579 18.8623 15.8011 18.8891L15.8251 19.3885C16.3893 19.3614 16.8179 19.2957 17.1697 19.033L16.8704 18.6325ZM17.0508 19.0808C17.2585 19.0551 17.4552 18.9425 17.5814 18.7545L17.1663 18.4759C17.1243 18.5385 17.0593 18.576 16.9893 18.5847L17.0508 19.0808ZM17.5814 18.7545L20.4318 14.5087L20.0166 14.23L17.1663 18.4759L17.5814 18.7545ZM20.4331 14.5067C20.933 13.7467 21.2426 13.1149 21.2801 12.5537C21.3197 11.9589 21.0536 11.489 20.536 11.0702L20.2215 11.4589C20.6526 11.8077 20.807 12.1332 20.7812 12.5204C20.7531 12.9412 20.5112 13.4781 20.0153 14.2319L20.4331 14.5067ZM20.536 11.0702C20.214 10.8096 19.7418 10.8594 19.4812 11.1814L19.8699 11.496C19.9568 11.3886 20.1142 11.372 20.2215 11.4589L20.536 11.0702ZM19.4812 11.1814C19.2207 11.5034 19.2705 11.9757 19.5925 12.2363L19.907 11.8476C19.7997 11.7607 19.7831 11.6033 19.8699 11.496L19.4812 11.1814ZM19.5925 12.2363C19.6868 12.3126 19.7312 12.3676 19.7525 12.4124C19.7704 12.45 19.781 12.4991 19.7644 12.5859C19.7464 12.6796 19.698 12.8082 19.6008 12.992C19.5046 13.1739 19.3675 13.3972 19.1825 13.6785L19.6002 13.9533C19.7881 13.6676 19.9354 13.4288 20.0428 13.2257C20.1493 13.0244 20.2238 12.845 20.2554 12.6801C20.2884 12.5082 20.2754 12.3479 20.2041 12.1977C20.1361 12.0548 20.0256 11.9435 19.907 11.8476L19.5925 12.2363ZM19.1838 13.6765L17.2197 16.6021L17.6349 16.8808L19.5989 13.9552L19.1838 13.6765ZM16.5336 16.2385C16.8298 16.348 17.06 16.5717 17.2046 16.8551L17.65 16.6278C17.4563 16.2485 17.1367 15.9284 16.707 15.7695L16.5336 16.2385ZM15.6273 16.1401C16.0338 16.1262 16.3059 16.1535 16.5328 16.2382L16.7077 15.7698C16.3892 15.6509 16.0393 15.6258 15.6103 15.6404L15.6273 16.1401ZM15.2949 16.1571C15.445 16.1479 15.5318 16.1433 15.6273 16.1401L15.6103 15.6404C15.508 15.6438 15.4159 15.6488 15.2643 15.6581L15.2949 16.1571ZM14.8928 16.1764C14.9899 16.1753 15.0622 16.1714 15.2949 16.1571L15.2643 15.6581C15.0296 15.6725 14.9696 15.6755 14.8869 15.6765L14.8928 16.1764ZM13.328 16.1939L14.8926 16.1764L14.887 15.6764L13.3224 15.6939L13.328 16.1939ZM11.763 16.2114L13.328 16.1939L13.3224 15.6939L11.7575 15.7114L11.763 16.2114ZM8.74009 16.2456C9.85038 16.2332 10.8284 16.2222 11.7631 16.2114L11.7574 15.7114C10.8227 15.7222 9.84475 15.7333 8.73451 15.7457L8.74009 16.2456ZM5.71719 16.2791L8.74007 16.2456L8.73453 15.7457L5.71165 15.7792L5.71719 16.2791ZM5.46996 16.5319C5.46843 16.3938 5.57912 16.2806 5.71718 16.2791L5.71167 15.7792C5.29748 15.7837 4.96542 16.1232 4.96999 16.5374L5.46996 16.5319ZM5.7227 16.7791C5.58464 16.7806 5.47148 16.6699 5.46996 16.5319L4.96999 16.5374C4.97456 16.9516 5.31403 17.2836 5.72822 17.2791L5.7227 16.7791ZM8.7457 16.7456L5.72269 16.7791L5.72823 17.2791L8.75123 17.2456L8.7457 16.7456ZM11.7687 16.7113C10.8341 16.7221 9.85604 16.7332 8.74567 16.7456L8.75126 17.2456C9.86167 17.2332 10.8398 17.2221 11.7745 17.2113L11.7687 16.7113ZM13.3336 16.6939L11.7688 16.7113L11.7744 17.2113L13.3391 17.1938L13.3336 16.6939ZM14.8985 16.6764L13.3336 16.6939L13.3391 17.1938L14.9041 17.1764L14.8985 16.6764ZM15.3255 16.6562C15.0717 16.6718 15.0052 16.6751 14.8983 16.6764L14.9042 17.1764C15.0251 17.1749 15.1031 17.1708 15.3561 17.1553L15.3255 16.6562ZM15.6443 16.6398C15.5534 16.6429 15.4684 16.6474 15.3255 16.6562L15.3561 17.1553C15.4978 17.1466 15.5774 17.1423 15.6613 17.1395L15.6443 16.6398ZM16.3594 16.7072C16.189 16.6435 15.9415 16.6297 15.6443 16.6398L15.6613 17.1395C15.9566 17.1294 16.1153 17.1497 16.1845 17.1756L16.3594 16.7072ZM16.7168 18.0746C16.8831 17.8421 16.9013 17.5442 16.8404 17.3012C16.7807 17.0626 16.6252 16.8054 16.3587 16.7069L16.1853 17.1759C16.2409 17.1964 16.3187 17.2759 16.3554 17.4227C16.3911 17.5651 16.3689 17.7016 16.3102 17.7837L16.7168 18.0746ZM15.7784 18.3896C16.0198 18.378 16.2068 18.3601 16.3507 18.3194C16.5096 18.2746 16.6274 18.199 16.7165 18.0751L16.3105 17.7832C16.298 17.8007 16.2835 17.8189 16.2148 17.8383C16.1312 17.8619 15.9954 17.8786 15.7544 17.8902L15.7784 18.3896ZM14.8494 18.3968C15.2579 18.4025 15.5147 18.4016 15.7777 18.3897L15.7551 17.8902C15.507 17.9014 15.2618 17.9025 14.8565 17.8968L14.8494 18.3968ZM14.7145 18.3948L14.8493 18.3968L14.8566 17.8968L14.7218 17.8948L14.7145 18.3948ZM14.1704 18.3893C14.3214 18.3893 14.4414 18.3907 14.7144 18.3948L14.7219 17.8948C14.4485 17.8907 14.3254 17.8893 14.1704 17.8893V18.3893ZM7.24253 18.3893H14.1704V17.8893H7.24253V18.3893ZM6.7585 18.3997C7.01158 18.3917 7.11175 18.3893 7.24253 18.3893V17.8893C7.1032 17.8893 6.99622 17.892 6.74269 17.9L6.7585 18.3997ZM6.35541 18.4095C6.46797 18.4084 6.5634 18.4059 6.7585 18.3997L6.74269 17.9C6.54819 17.9061 6.45734 17.9085 6.3506 17.9095L6.35541 18.4095ZM5.42341 18.326C5.68277 18.3917 5.97732 18.4131 6.35542 18.4095L6.35059 17.9095C5.98971 17.913 5.74459 17.8916 5.54611 17.8413L5.42341 18.326ZM3.94665 14.9615C3.69154 15.6454 3.7324 16.3972 3.99489 17.0195C4.25722 17.6414 4.75231 18.1568 5.42362 18.3261L5.5459 17.8413C5.05999 17.7187 4.67163 17.3373 4.45558 16.8251C4.23968 16.3133 4.20721 15.6936 4.41511 15.1363L3.94665 14.9615ZM3.79979 14.6399C3.92915 14.6882 3.9949 14.8322 3.94665 14.9615L4.41511 15.1363C4.55988 14.7482 4.36263 14.3162 3.97454 14.1715L3.79979 14.6399ZM3.47818 14.7868C3.52643 14.6574 3.67042 14.5917 3.79979 14.6399L3.97454 14.1715C3.58644 14.0267 3.15448 14.224 3.00971 14.612L3.47818 14.7868Z" fill="currentcolor"/>
</svg>
