<svg width="24" height="24" viewBox="0 0 24 24" fill="none" xmlns="http://www.w3.org/2000/svg">
<path fill-rule="evenodd" clip-rule="evenodd" d="M18.7823 2.08739C18.5544 1.93146 18.2433 1.9898 18.0873 2.21771L5.08735 21.2177L5.04324 21.2964C4.94647 21.5128 5.01508 21.7741 5.21766 21.9127C5.44556 22.0686 5.75672 22.0103 5.91265 21.7824L18.9127 2.78239L18.9568 2.70367C19.0535 2.48726 18.9849 2.226 18.7823 2.08739ZM15.8945 8.5L16.5869 7.5H17C19.4853 7.5 21.5 9.51472 21.5 12C21.5 14.4143 19.5988 16.3845 17.2118 16.4951L17 16.5H15C14.7239 16.5 14.5 16.2761 14.5 16C14.5 15.7545 14.6769 15.5504 14.9101 15.5081L15 15.5H17C18.933 15.5 20.5 13.933 20.5 12C20.5 10.1314 19.0357 8.60487 17.192 8.50518L17 8.5H15.8945ZM16.5 12.5L13.1251 12.5L13.8175 11.5L16.5 11.5L16.5899 11.5081C16.8231 11.5504 17 11.7545 17 12C17 12.2761 16.7761 12.5 16.5 12.5ZM7.5 11.5H10.8749L10.1825 12.5H7.5L7.41012 12.4919C7.17688 12.4496 7 12.2455 7 12C7 11.7239 7.22386 11.5 7.5 11.5ZM8.10546 15.5L7.4131 16.5H7L6.78816 16.4951C4.40124 16.3845 2.5 14.4143 2.5 12C2.5 9.51472 4.51472 7.5 7 7.5H8.98463L9.0745 7.50806C9.30775 7.55039 9.48463 7.75454 9.48463 8C9.48463 8.27614 9.26077 8.5 8.98463 8.5H7L6.80796 8.50518C4.96428 8.60487 3.5 10.1314 3.5 12C3.5 13.933 5.067 15.5 7 15.5H8.10546Z" fill="currentcolor"/>
</svg>
