<svg width="24" height="24" viewBox="0 0 24 24" fill="none" xmlns="http://www.w3.org/2000/svg">
<path d="M21.5 12C21.5 9.51472 19.4853 7.5 17 7.5H15.0154L14.9255 7.50806C14.6922 7.55039 14.5154 7.75454 14.5154 8C14.5154 8.27614 14.7392 8.5 15.0154 8.5H17L17.192 8.50518C19.0357 8.60487 20.5 10.1314 20.5 12C20.5 13.933 18.933 15.5 17 15.5H15L14.9101 15.5081C14.6769 15.5504 14.5 15.7545 14.5 16C14.5 16.2761 14.7239 16.5 15 16.5H17L17.2118 16.4951C19.5988 16.3845 21.5 14.4143 21.5 12Z" fill="currentcolor"/>
<path d="M7 7.5C4.51472 7.5 2.5 9.51472 2.5 12C2.5 14.4143 4.40124 16.3845 6.78816 16.4951L7 16.5H9C9.27614 16.5 9.5 16.2761 9.5 16C9.5 15.7545 9.32312 15.5504 9.08988 15.5081L9 15.5H7C5.067 15.5 3.5 13.933 3.5 12C3.5 10.1314 4.96428 8.60487 6.80796 8.50518L7 8.5H8.98463C9.26077 8.5 9.48463 8.27614 9.48463 8C9.48463 7.75454 9.30775 7.55039 9.0745 7.50806L8.98463 7.5H7Z" fill="currentcolor"/>
<path d="M7.5 11.5C7.22386 11.5 7 11.7239 7 12C7 12.2455 7.17688 12.4496 7.41012 12.4919L7.5 12.5H16.5C16.7761 12.5 17 12.2761 17 12C17 11.7545 16.8231 11.5504 16.5899 11.5081L16.5 11.5H7.5Z" fill="currentcolor"/>
<path fill-rule="evenodd" clip-rule="evenodd" d="M6.79079 8.00538C5.72377 8.06036 4.76729 8.53347 4.08202 9.26404C4.76515 8.5358 5.71783 8.0634 6.78097 8.00591L6.79079 8.00538ZM6.99304 8.00001L6.79449 8.00536C6.86026 8.00203 6.92646 8.00012 6.99304 8.00001ZM2 12C2 9.23858 4.23858 7 7 7H9.00699L9.14161 7.01207L9.1638 7.01609C9.63062 7.10082 9.98463 7.50855 9.98463 8C9.98463 8.55228 9.53691 9 8.98463 9H7.00674L6.82846 9.00481C5.25165 9.09347 4 10.4007 4 12C4 13.6569 5.34315 15 7 15H9.02236L9.15698 15.0121L9.17917 15.0161C9.64599 15.1008 10 15.5085 10 16C10 16.5523 9.55228 17 9 17H6.98844L6.76501 16.9947C4.11248 16.8718 2 14.6827 2 12ZM14.993 7H17C19.7614 7 22 9.23858 22 12C22 14.6827 19.8875 16.8716 17.235 16.9946L17.2234 16.9951L17 17.0001L15 17C14.4477 17 14 16.5523 14 16C14 15.5086 14.354 15.1008 14.8208 15.0161L14.843 15.0121L14.9776 15H17C18.6569 15 20 13.6569 20 12C20 10.4007 18.7483 9.09347 17.1715 9.00481L16.9933 9H15.0154C14.4631 9 14.0154 8.55228 14.0154 8C14.0154 7.50855 14.3694 7.10082 14.8362 7.01609L14.8584 7.01207L14.993 7ZM17.0135 8.00002C17.0802 8.00024 17.1466 8.0021 17.2125 8.00555L17.0135 8.00002ZM17.1943 15.9954L16.9884 16.0001L17 16.5V15.9999C17.065 15.9999 17.1301 15.9984 17.1943 15.9954ZM17.1943 15.9954C17.1924 15.9955 17.1906 15.9956 17.1887 15.9956L17.2118 16.4951L17.2003 15.9952L17.1943 15.9954ZM6.5 12C6.5 11.4477 6.94772 11 7.5 11H16.5224L16.657 11.0121L16.6792 11.0161C17.146 11.1008 17.5 11.5085 17.5 12C17.5 12.5523 17.0523 13 16.5 13H7.47764L7.34302 12.9879L7.32083 12.9839C6.85401 12.8992 6.5 12.4915 6.5 12Z" fill="currentcolor"/>
</svg>
