<svg width="24" height="24" viewBox="0 0 24 24" fill="none" xmlns="http://www.w3.org/2000/svg">
<path d="M21.5 12C21.5 9.51472 19.4853 7.5 17 7.5H15.0154L14.9255 7.50806C14.6922 7.55039 14.5154 7.75454 14.5154 8C14.5154 8.27614 14.7392 8.5 15.0154 8.5H17L17.192 8.50518C19.0357 8.60487 20.5 10.1314 20.5 12C20.5 13.933 18.933 15.5 17 15.5H15L14.9101 15.5081C14.6769 15.5504 14.5 15.7545 14.5 16C14.5 16.2761 14.7239 16.5 15 16.5H17L17.2118 16.4951C19.5988 16.3845 21.5 14.4143 21.5 12Z" fill="currentcolor"/>
<path d="M7 7.5C4.51472 7.5 2.5 9.51472 2.5 12C2.5 14.4143 4.40124 16.3845 6.78816 16.4951L7 16.5H9C9.27614 16.5 9.5 16.2761 9.5 16C9.5 15.7545 9.32312 15.5504 9.08988 15.5081L9 15.5H7C5.067 15.5 3.5 13.933 3.5 12C3.5 10.1314 4.96428 8.60487 6.80796 8.50518L7 8.5H8.98463C9.26077 8.5 9.48463 8.27614 9.48463 8C9.48463 7.75454 9.30775 7.55039 9.0745 7.50806L8.98463 7.5H7Z" fill="currentcolor"/>
<path d="M7.5 11.5C7.22386 11.5 7 11.7239 7 12C7 12.2455 7.17688 12.4496 7.41012 12.4919L7.5 12.5H16.5C16.7761 12.5 17 12.2761 17 12C17 11.7545 16.8231 11.5504 16.5899 11.5081L16.5 11.5H7.5Z" fill="currentcolor"/>
</svg>
