<svg width="24" height="24" viewBox="0 0 24 24" fill="none" xmlns="http://www.w3.org/2000/svg">
<path fill-rule="evenodd" clip-rule="evenodd" d="M18.7823 2.08739C18.5544 1.93146 18.2433 1.9898 18.0873 2.21771L5.08735 21.2177L5.04324 21.2964C4.94647 21.5128 5.01508 21.7741 5.21766 21.9127C5.44556 22.0686 5.75672 22.0103 5.91265 21.7824L18.9127 2.78239L18.9568 2.70367C19.0535 2.48726 18.9849 2.226 18.7823 2.08739ZM17.6007 8.55136L18.2163 7.6663C20.1107 8.19687 21.5 9.93619 21.5 12C21.5 14.4143 19.5988 16.3845 17.2118 16.4951L17 16.5H15C14.7239 16.5 14.5 16.2761 14.5 16C14.5 15.7545 14.6769 15.5504 14.9101 15.5081L15 15.5H17C18.933 15.5 20.5 13.933 20.5 12C20.5 10.2718 19.2475 8.83621 17.6007 8.55136ZM16.5 12.5H14.8545L15.55 11.5H16.5L16.5899 11.5081C16.8231 11.5504 17 11.7545 17 12C17 12.2761 16.7761 12.5 16.5 12.5ZM7.5 11.5H9.14549L8.45001 12.5H7.5L7.41012 12.4919C7.17688 12.4496 7 12.2455 7 12C7 11.7239 7.22386 11.5 7.5 11.5ZM6.39926 15.4486L5.78372 16.3337C3.88932 15.8031 2.5 14.0638 2.5 12C2.5 9.51472 4.51472 7.5 7 7.5H8.98463L9.0745 7.50806C9.30775 7.55039 9.48463 7.75454 9.48463 8C9.48463 8.27614 9.26077 8.5 8.98463 8.5H7L6.80796 8.50518C4.96428 8.60487 3.5 10.1314 3.5 12C3.5 13.7282 4.7525 15.1638 6.39926 15.4486Z" fill="currentcolor"/>
<path fill-rule="evenodd" clip-rule="evenodd" d="M19.0647 1.67473C18.6089 1.36286 17.9866 1.47955 17.6747 1.93535L4.66207 20.9538L4.59601 21.0717L4.5868 21.0923C4.39313 21.5254 4.52971 22.0478 4.93531 22.3253C5.39112 22.6372 6.01344 22.5205 6.32531 22.0647L19.3379 3.04626L19.404 2.92835L19.4132 2.90776C19.6069 2.47465 19.4703 1.95224 19.0647 1.67473ZM9.00699 6.99999H7C4.23858 6.99999 2 9.23856 2 12C2 14.2938 3.54423 16.2257 5.64887 16.8152L5.99121 16.911L7.25791 15.0897L6.48449 14.9559C5.07333 14.7119 4 13.4808 4 12C4 10.4007 5.25165 9.09346 6.82846 9.00479L7.00674 8.99999H8.98463C9.53691 8.99999 9.98463 8.55227 9.98463 7.99999C9.98463 7.50854 9.63062 7.10081 9.1638 7.01608L9.14161 7.01205L9.00699 6.99999ZM6.98652 8.00001C6.91977 8.00023 6.8534 8.00208 6.78746 8.00554L6.98652 8.00001ZM18.0088 7.08893L16.7421 8.91024L17.5155 9.04403C18.9267 9.28812 20 10.5192 20 12C20 13.6568 18.6569 15 17 15H14.9776L14.843 15.0121L14.8208 15.0161C14.354 15.1008 14 15.5085 14 16C14 16.5523 14.4477 17 15 17H17.0116L17.235 16.9947C19.8875 16.8718 22 14.6826 22 12C22 9.70615 20.4558 7.77427 18.3511 7.18481L18.0088 7.08893ZM16.5224 11H15.2887L13.8977 13L16.5 13C17.0523 13 17.5 12.5523 17.5 12C17.5 11.5085 17.146 11.1008 16.6792 11.0161L16.657 11.0121L16.5224 11ZM10.1023 11H7.5C6.94772 11 6.5 11.4477 6.5 12C6.5 12.4914 6.85402 12.8992 7.32083 12.9839L7.34302 12.9879L7.47764 13H8.7113L10.1023 11Z" fill="currentcolor"/>
</svg>
