<svg width="24" height="24" viewBox="0 0 24 24" fill="none" xmlns="http://www.w3.org/2000/svg">
<path fill-rule="evenodd" clip-rule="evenodd" d="M4 7.5C4 8.052 4.464 8.5 5.016 8.5C5.568 8.5 6.016 8.052 6.016 7.5C6.016 6.948 5.568 6.5 5.016 6.5H4.984C4.432 6.5 4 6.948 4 7.5ZM8.9838 7.9839H19.4838C19.7598 7.9839 19.9838 7.7599 19.9838 7.4839C19.9838 7.2079 19.7598 6.9839 19.4838 6.9839H8.9838C8.7078 6.9839 8.4838 7.2079 8.4838 7.4839C8.4838 7.7599 8.7078 7.9839 8.9838 7.9839ZM19.4838 11.9839H8.9838C8.7078 11.9839 8.4838 11.7599 8.4838 11.4839C8.4838 11.2079 8.7078 10.9839 8.9838 10.9839H19.4838C19.7598 10.9839 19.9838 11.2079 19.9838 11.4839C19.9838 11.7599 19.7598 11.9839 19.4838 11.9839ZM4 11.5C4 12.052 4.464 12.5 5.016 12.5C5.568 12.5 6.016 12.052 6.016 11.5C6.016 10.948 5.568 10.5 5.016 10.5H4.984C4.432 10.5 4 10.948 4 11.5ZM19.4838 15.9839H8.9838C8.7078 15.9839 8.4838 15.7599 8.4838 15.4839C8.4838 15.2079 8.7078 14.9839 8.9838 14.9839H19.4838C19.7598 14.9839 19.9838 15.2079 19.9838 15.4839C19.9838 15.7599 19.7598 15.9839 19.4838 15.9839ZM4 15.5C4 16.052 4.464 16.5 5.016 16.5C5.568 16.5 6.016 16.052 6.016 15.5C6.016 14.948 5.568 14.5 5.016 14.5H4.984C4.432 14.5 4 14.948 4 15.5Z" fill="currentcolor"/>
</svg>
