<svg width="24" height="24" viewBox="0 0 24 24" fill="none" xmlns="http://www.w3.org/2000/svg">
<path fill-rule="evenodd" clip-rule="evenodd" d="M4 7.5C4 8.052 4.464 8.5 5.016 8.5C5.568 8.5 6.016 8.052 6.016 7.5C6.016 6.948 5.568 6.5 5.016 6.5H4.984C4.432 6.5 4 6.948 4 7.5ZM8.9838 7.9839H19.4838C19.7598 7.9839 19.9838 7.7599 19.9838 7.4839C19.9838 7.2079 19.7598 6.9839 19.4838 6.9839H8.9838C8.7078 6.9839 8.4838 7.2079 8.4838 7.4839C8.4838 7.7599 8.7078 7.9839 8.9838 7.9839ZM19.4838 11.9839H8.9838C8.7078 11.9839 8.4838 11.7599 8.4838 11.4839C8.4838 11.2079 8.7078 10.9839 8.9838 10.9839H19.4838C19.7598 10.9839 19.9838 11.2079 19.9838 11.4839C19.9838 11.7599 19.7598 11.9839 19.4838 11.9839ZM4 11.5C4 12.052 4.464 12.5 5.016 12.5C5.568 12.5 6.016 12.052 6.016 11.5C6.016 10.948 5.568 10.5 5.016 10.5H4.984C4.432 10.5 4 10.948 4 11.5ZM19.4838 15.9839H8.9838C8.7078 15.9839 8.4838 15.7599 8.4838 15.4839C8.4838 15.2079 8.7078 14.9839 8.9838 14.9839H19.4838C19.7598 14.9839 19.9838 15.2079 19.9838 15.4839C19.9838 15.7599 19.7598 15.9839 19.4838 15.9839ZM4 15.5C4 16.052 4.464 16.5 5.016 16.5C5.568 16.5 6.016 16.052 6.016 15.5C6.016 14.948 5.568 14.5 5.016 14.5H4.984C4.432 14.5 4 14.948 4 15.5Z" fill="currentcolor"/>
<path d="M5.016 8C4.72978 8 4.5 7.76561 4.5 7.5H3.5C3.5 8.33839 4.19822 9 5.016 9V8ZM5.516 7.5C5.516 7.77586 5.29186 8 5.016 8V9C5.84414 9 6.516 8.32814 6.516 7.5H5.516ZM5.016 7C5.29186 7 5.516 7.22414 5.516 7.5H6.516C6.516 6.67186 5.84414 6 5.016 6V7ZM4.984 7H5.016V6H4.984V7ZM4.5 7.5C4.5 7.21355 4.71862 7 4.984 7V6C4.14538 6 3.5 6.68245 3.5 7.5H4.5ZM19.4838 7.4839H8.9838V8.4839H19.4838V7.4839ZM19.4838 7.4839V7.4839V8.4839C20.0359 8.4839 20.4838 8.03604 20.4838 7.4839H19.4838ZM19.4838 7.4839H20.4838C20.4838 6.93176 20.0359 6.4839 19.4838 6.4839V7.4839ZM8.9838 7.4839H19.4838V6.4839H8.9838V7.4839ZM8.9838 7.4839V6.4839C8.43166 6.4839 7.9838 6.93176 7.9838 7.4839H8.9838ZM8.9838 7.4839V7.4839H7.9838C7.9838 8.03604 8.43166 8.4839 8.9838 8.4839V7.4839ZM8.9838 12.4839H19.4838V11.4839H8.9838V12.4839ZM7.9838 11.4839C7.9838 12.036 8.43166 12.4839 8.9838 12.4839V11.4839H7.9838ZM8.9838 10.4839C8.43166 10.4839 7.9838 10.9318 7.9838 11.4839H8.9838V10.4839ZM19.4838 10.4839H8.9838V11.4839H19.4838V10.4839ZM20.4838 11.4839C20.4838 10.9318 20.0359 10.4839 19.4838 10.4839V11.4839H20.4838ZM19.4838 12.4839C20.0359 12.4839 20.4838 12.036 20.4838 11.4839H19.4838V12.4839ZM5.016 12C4.72978 12 4.5 11.7656 4.5 11.5H3.5C3.5 12.3384 4.19822 13 5.016 13V12ZM5.516 11.5C5.516 11.7759 5.29186 12 5.016 12V13C5.84414 13 6.516 12.3281 6.516 11.5H5.516ZM5.016 11C5.29186 11 5.516 11.2241 5.516 11.5H6.516C6.516 10.6719 5.84414 10 5.016 10V11ZM4.984 11H5.016V10H4.984V11ZM4.5 11.5C4.5 11.2136 4.71862 11 4.984 11V10C4.14538 10 3.5 10.6824 3.5 11.5H4.5ZM8.9838 16.4839H19.4838V15.4839H8.9838V16.4839ZM7.9838 15.4839C7.9838 16.036 8.43166 16.4839 8.9838 16.4839V15.4839H7.9838ZM8.9838 14.4839C8.43166 14.4839 7.9838 14.9318 7.9838 15.4839H8.9838V14.4839ZM19.4838 14.4839H8.9838V15.4839H19.4838V14.4839ZM20.4838 15.4839C20.4838 14.9318 20.0359 14.4839 19.4838 14.4839V15.4839H20.4838ZM19.4838 16.4839C20.0359 16.4839 20.4838 16.036 20.4838 15.4839H19.4838V16.4839ZM5.016 16C4.72978 16 4.5 15.7656 4.5 15.5H3.5C3.5 16.3384 4.19822 17 5.016 17V16ZM5.516 15.5C5.516 15.7759 5.29186 16 5.016 16V17C5.84414 17 6.516 16.3281 6.516 15.5H5.516ZM5.016 15C5.29186 15 5.516 15.2241 5.516 15.5H6.516C6.516 14.6719 5.84414 14 5.016 14V15ZM4.984 15H5.016V14H4.984V15ZM4.5 15.5C4.5 15.2135 4.71862 15 4.984 15V14C4.14538 14 3.5 14.6825 3.5 15.5H4.5Z" fill="currentcolor"/>
</svg>
