<svg width="24" height="24" viewBox="0 0 24 24" fill="none" xmlns="http://www.w3.org/2000/svg">
<path fill-rule="evenodd" clip-rule="evenodd" d="M7 12C7 9.23858 9.23858 7 12 7C14.7614 7 17 9.23858 17 12C17 14.7614 14.7614 17 12 17C9.23858 17 7 14.7614 7 12ZM12 9C10.3431 9 9 10.3431 9 12C9 13.6569 10.3431 15 12 15C13.6569 15 15 13.6569 15 12C15 10.3431 13.6569 9 12 9Z" fill="currentcolor"/>
<path fill-rule="evenodd" clip-rule="evenodd" d="M13 1V3.05493C17.1716 3.51608 20.4839 6.82838 20.9451 11H23V13H20.9451C20.4839 17.1716 17.1716 20.4839 13 20.9451V23H11V20.9451C6.82838 20.4839 3.51608 17.1716 3.05493 13H1V11H3.05493C3.51608 6.82838 6.82838 3.51608 11 3.05493V1H13ZM12 5C8.13401 5 5 8.13401 5 12C5 15.866 8.13401 19 12 19C15.866 19 19 15.866 19 12C19 8.13401 15.866 5 12 5Z" fill="currentcolor"/>
</svg>
