<svg width="24" height="24" viewBox="0 0 24 24" fill="none" xmlns="http://www.w3.org/2000/svg">
<path d="M12 15.5C12.5523 15.5 13 15.0523 13 14.5C13 13.9477 12.5523 13.5 12 13.5C11.4477 13.5 11 13.9477 11 14.5C11 15.0523 11.4477 15.5 12 15.5Z" fill="currentcolor"/>
<path fill-rule="evenodd" clip-rule="evenodd" d="M17.5 7.75736H17.178C16.9352 5.09125 14.7116 3 12 3C9.28838 3 7.0648 5.09125 6.82199 7.75736H6.5C5.39543 7.75736 4.5 8.65279 4.5 9.75736V18.7574C4.5 19.8619 5.39543 20.7574 6.5 20.7574H17.5C18.6046 20.7574 19.5 19.8619 19.5 18.7574V9.75736C19.5 8.65279 18.6046 7.75736 17.5 7.75736ZM6.5 8.75736H8.29878C8.37852 8.76421 8.46662 8.76371 8.56218 8.75736H15.4092C15.5245 8.76628 15.6294 8.76712 15.7223 8.75736H17.5C18.0523 8.75736 18.5 9.20507 18.5 9.75736V18.7574C18.5 19.3096 18.0523 19.7574 17.5 19.7574H6.5C5.94772 19.7574 5.5 19.3096 5.5 18.7574V9.75736C5.5 9.20507 5.94772 8.75736 6.5 8.75736ZM12 4C14.1571 4 15.9345 5.64275 16.1728 7.75736H7.82717C8.06554 5.64275 9.84286 4 12 4Z" fill="currentcolor"/>
</svg>
