<svg width="24" height="24" viewBox="0 0 24 24" fill="none" xmlns="http://www.w3.org/2000/svg">
<path fill-rule="evenodd" clip-rule="evenodd" d="M1 3H23V14.6515H21V8.92066L12 15.2207L3 8.92066V19H11.8792V21H1V3ZM3 6.47934L12 12.7793L21 6.47934V5H3V6.47934Z" fill="currentcolor"/>
<path fill-rule="evenodd" clip-rule="evenodd" d="M18 13.2311L20.0345 16.1997L23.4866 17.2173L21.2919 20.0696L21.3909 23.6671L18 22.4613L14.6091 23.6671L14.7081 20.0696L12.5134 17.2173L15.9655 16.1997L18 13.2311ZM18 16.7689L17.2132 17.917L15.8781 18.3106L16.7269 19.4137L16.6886 20.805L18 20.3387L19.3114 20.805L19.2731 19.4137L20.1219 18.3106L18.7868 17.917L18 16.7689Z" fill="currentcolor"/>
</svg>
