<svg width="24" height="24" viewBox="0 0 24 24" fill="none" xmlns="http://www.w3.org/2000/svg">
<path d="M14.8513 5.52106L20.385 3.03834C20.6036 2.94166 20.8583 3.03394 20.9578 3.24633C20.9834 3.30199 21 3.36204 21 3.42356V17.2257C21 17.3883 20.9065 17.5245 20.7709 17.5948L15.0819 20.933C15.0714 20.9374 15.0608 20.9476 15.0457 20.9535L15.0412 20.9579H15.0261C14.9734 20.9828 14.9161 20.993 14.8603 20.993C14.8045 20.993 14.7457 20.9828 14.693 20.9579H14.6779L14.6734 20.9535C14.6628 20.9491 14.6478 20.9432 14.6372 20.933L9.15175 17.7164L3.66025 20.9388C3.45675 21.0604 3.18692 20.9945 3.06633 20.7967C3.0211 20.7294 3 20.6532 3 20.577V5.98538C3 5.80375 3.11456 5.65142 3.28038 5.59136L8.97086 3.04273H8.98141L8.99196 3.03834H8.99648C9.03869 3.02369 9.07939 3.01344 9.12612 3.01344H9.17888C9.22109 3.01783 9.26782 3.02369 9.30852 3.03834H9.31304L9.32359 3.04273H9.33414L14.8679 5.52545L14.8513 5.52106ZM8.70404 16.9855V4.0783L3.85922 6.25342V19.8286L8.70404 16.9855ZM14.4201 19.8286V6.25342L9.57382 4.0783V16.9855L14.4201 19.8286ZM20.1347 4.0783L15.2899 6.25342V19.8286L20.1363 16.9855V4.0783H20.1347Z" fill="currentcolor" stroke="currentcolor"/>
</svg>
