<svg width="24" height="24" viewBox="0 0 24 24" fill="none" xmlns="http://www.w3.org/2000/svg">
<path fill-rule="evenodd" clip-rule="evenodd" d="M7.34998 7.45392C7.34998 4.91012 9.4334 2.84998 12 2.84998C14.5666 2.84998 16.65 4.91012 16.65 7.45392C16.65 8.30302 16.4055 9.26254 15.9646 10.3101C15.5967 11.1842 15.0985 12.1041 14.5038 13.0459C14.043 13.7754 13.5502 14.4777 13.0575 15.1277C12.8849 15.3554 12.7244 15.5607 12.5801 15.7403C12.4931 15.8485 12.43 15.9251 12.395 15.9667C12.1892 16.2111 11.8108 16.2111 11.605 15.9667C11.57 15.9251 11.5069 15.8485 11.4199 15.7403C11.2755 15.5607 11.115 15.3554 10.9425 15.1277C10.4498 14.4777 9.95691 13.7754 9.4962 13.0459C8.90145 12.1041 8.40329 11.1842 8.03538 10.3101C7.59449 9.26254 7.34998 8.30302 7.34998 7.45392ZM12 3.8722C9.9992 3.8722 8.37967 5.47755 8.37967 7.45392C8.37967 8.13865 8.58678 8.96871 8.98547 9.916C9.32836 10.7307 9.79973 11.6021 10.3686 12.5028C10.8124 13.2056 11.2888 13.8845 11.7653 14.5132C11.8465 14.6204 11.9249 14.7223 12 14.8186C12.075 14.7223 12.1534 14.6204 12.2347 14.5132C12.7112 13.8845 13.1875 13.2056 13.6314 12.5028C14.2002 11.6021 14.6716 10.7307 15.0145 9.916C15.4132 8.96871 15.6203 8.13865 15.6203 7.45392C15.6203 5.47755 14.0008 3.8722 12 3.8722ZM13.5 7.49997C13.5 8.3284 12.8284 8.99997 12 8.99997C11.1716 8.99997 10.5 8.3284 10.5 7.49997C10.5 6.67154 11.1716 5.99997 12 5.99997C12.8284 5.99997 13.5 6.67154 13.5 7.49997ZM9.7281 16.8146V18.7252L14.2825 20.7353V17C14.5131 16.6786 14.6452 16.4956 14.7348 16.3716C14.802 16.2785 14.8451 16.2188 14.8879 16.1587C14.9646 16.0509 15.04 15.9421 15.2509 15.6379L15.2568 15.6294V20.692L19.0332 18.7453V10.0864L18 10.5C18.1458 10.106 18.2659 9.70259 18.3595 9.29236L19.3459 8.89577C19.4658 8.85099 19.598 8.8562 19.7142 8.91029C19.8303 8.96438 19.921 9.06301 19.9668 9.18492C19.9887 9.24206 20 9.3029 20 9.36428V19.0592C20.0004 19.1585 19.9719 19.2557 19.9181 19.3383C19.8642 19.4209 19.7876 19.4853 19.6979 19.5231L14.9849 21.946C14.9165 21.9815 14.841 22 14.7643 22C14.6877 22 14.6122 21.9815 14.5438 21.946L9.2568 19.6004L4.70695 21.946C4.64993 21.9756 4.58776 21.9934 4.52402 21.9984C4.46027 22.0034 4.39619 21.9954 4.33544 21.975C4.27469 21.9547 4.21847 21.9222 4.16998 21.8796C4.1215 21.8369 4.0817 21.7849 4.05287 21.7265C4.01866 21.6569 4.00057 21.5802 4 21.5023V11.2321C3.99997 11.1242 4.0341 11.0192 4.09728 10.9328C4.16046 10.8464 4.24928 10.7832 4.35045 10.7528L5.67372 10.0614C5.76559 10.3801 5.87451 10.6935 6 11L4.97583 11.5723V20.6951L8.75226 18.7484V15.391C8.88701 15.5926 8.97382 15.7296 9.04936 15.8489C9.20964 16.1019 9.31918 16.2748 9.7281 16.8146Z" fill="currentcolor"/>
<path d="M15.9646 10.3101L15.5037 10.1161L15.9646 10.3101ZM14.5038 13.0459L14.9265 13.3128L14.5038 13.0459ZM13.0575 15.1277L13.456 15.4298L13.0575 15.1277ZM12.5801 15.7403L12.1904 15.427L12.1904 15.427L12.5801 15.7403ZM12.395 15.9667L12.7774 16.2888V16.2888L12.395 15.9667ZM11.605 15.9667L11.2225 16.2888H11.2225L11.605 15.9667ZM11.4199 15.7403L11.8096 15.427L11.8096 15.427L11.4199 15.7403ZM10.9425 15.1277L10.544 15.4298L10.544 15.4298L10.9425 15.1277ZM9.4962 13.0459L9.91895 12.7789H9.91895L9.4962 13.0459ZM8.03538 10.3101L7.57453 10.5041L8.03538 10.3101ZM8.98547 9.916L9.44632 9.72204V9.72204L8.98547 9.916ZM10.3686 12.5028L9.94585 12.7698L10.3686 12.5028ZM11.7653 14.5132L11.3668 14.8152L11.7653 14.5132ZM12 14.8186L11.6056 15.126L12 15.6319L12.3943 15.126L12 14.8186ZM12.2347 14.5132L11.8362 14.2111L12.2347 14.5132ZM13.6314 12.5028L13.2086 12.2359L13.6314 12.5028ZM15.0145 9.916L15.4753 10.11V10.11L15.0145 9.916ZM9.7281 18.7252H9.2281V19.0511L9.52621 19.1826L9.7281 18.7252ZM9.7281 16.8146H10.2281V16.6466L10.1266 16.5126L9.7281 16.8146ZM14.2825 20.7353L14.0806 21.1928L14.7825 21.5025V20.7353H14.2825ZM14.2825 17L13.8762 16.7085L13.7825 16.8391V17H14.2825ZM14.7348 16.3716L14.3294 16.0789L14.3294 16.0789L14.7348 16.3716ZM14.8879 16.1587L15.2952 16.4486L15.2952 16.4486L14.8879 16.1587ZM15.2509 15.6379L14.84 15.3531L14.84 15.3531L15.2509 15.6379ZM15.2568 15.6294H15.7568V14.0306L14.8459 15.3445L15.2568 15.6294ZM15.2568 20.692H14.7568V21.5123L15.4859 21.1365L15.2568 20.692ZM19.0332 18.7453L19.2623 19.1897L19.5332 19.0501V18.7453H19.0332ZM19.0332 10.0864H19.5332V9.34766L18.8474 9.62219L19.0332 10.0864ZM18 10.5L17.5311 10.3264L17.1402 11.3827L18.1858 10.9642L18 10.5ZM18.3595 9.29236L18.173 8.82845L17.9303 8.92604L17.872 9.18111L18.3595 9.29236ZM19.3459 8.89577L19.1708 8.42726L19.1594 8.43186L19.3459 8.89577ZM19.7142 8.91029L19.9252 8.45703L19.9252 8.45703L19.7142 8.91029ZM19.9668 9.18492L19.4986 9.36062L19.4999 9.36399L19.9668 9.18492ZM20 9.36428H20.5L20.5 9.36394L20 9.36428ZM20 19.0592H19.5L19.5 19.0612L20 19.0592ZM19.9181 19.3383L20.337 19.6112L20.337 19.6112L19.9181 19.3383ZM19.6979 19.5231L19.5037 19.0623L19.4862 19.0697L19.4693 19.0784L19.6979 19.5231ZM14.9849 21.946L14.7563 21.5014L14.7547 21.5022L14.9849 21.946ZM14.5438 21.946L14.774 21.5022L14.7605 21.4952L14.7466 21.489L14.5438 21.946ZM9.2568 19.6004L9.45957 19.1433L9.2406 19.0462L9.02768 19.156L9.2568 19.6004ZM4.70695 21.946L4.47783 21.5016L4.47666 21.5022L4.70695 21.946ZM4.52402 21.9984L4.48509 21.4999H4.48507L4.52402 21.9984ZM4.33544 21.975L4.17632 22.4491L4.17633 22.4491L4.33544 21.975ZM4.16998 21.8796L3.83973 22.255L3.83974 22.255L4.16998 21.8796ZM4.05287 21.7265L3.60416 21.9471L3.60451 21.9478L4.05287 21.7265ZM4 21.5023H3.49999L3.50001 21.5059L4 21.5023ZM4 11.2321H4.5L4.5 11.232L4 11.2321ZM4.35045 10.7528L4.49437 11.2316L4.53988 11.218L4.582 11.196L4.35045 10.7528ZM5.67372 10.0614L6.15416 9.92292L5.98464 9.33481L5.44217 9.61825L5.67372 10.0614ZM6 11L6.24392 11.4364L6.63053 11.2204L6.46272 10.8105L6 11ZM4.97583 11.5723L4.73192 11.1358L4.47583 11.279V11.5723H4.97583ZM4.97583 20.6951H4.47583V21.5154L5.20493 21.1396L4.97583 20.6951ZM8.75226 18.7484L8.98136 19.1928L9.25226 19.0532V18.7484H8.75226ZM8.75226 15.391L9.16798 15.1132L8.25226 13.7429V15.391H8.75226ZM9.04936 15.8489L8.62698 16.1165L8.62698 16.1165L9.04936 15.8489ZM12 2.34998C9.16215 2.34998 6.84998 4.62911 6.84998 7.45392H7.84998C7.84998 5.19113 9.70465 3.34998 12 3.34998V2.34998ZM17.15 7.45392C17.15 4.62911 14.8378 2.34998 12 2.34998V3.34998C14.2953 3.34998 16.15 5.19113 16.15 7.45392H17.15ZM16.4254 10.5041C16.8806 9.42255 17.15 8.39406 17.15 7.45392H16.15C16.15 8.21198 15.9303 9.10253 15.5037 10.1161L16.4254 10.5041ZM14.9265 13.3128C15.5317 12.3546 16.0442 11.4099 16.4254 10.5041L15.5037 10.1161C15.1492 10.9586 14.6653 11.8537 14.081 12.7789L14.9265 13.3128ZM13.456 15.4298C13.9562 14.7697 14.4574 14.0557 14.9265 13.3128L14.081 12.7789C13.6287 13.495 13.1441 14.1856 12.659 14.8257L13.456 15.4298ZM12.9698 16.0535C13.1173 15.87 13.2807 15.6611 13.456 15.4298L12.659 14.8257C12.4892 15.0498 12.3316 15.2513 12.1904 15.427L12.9698 16.0535ZM12.7774 16.2888C12.8158 16.2432 12.8814 16.1635 12.9698 16.0535L12.1904 15.427C12.1048 15.5335 12.0442 15.607 12.0125 15.6446L12.7774 16.2888ZM11.2225 16.2888C11.6281 16.7704 12.3718 16.7704 12.7774 16.2888L12.0125 15.6446C12.0103 15.6473 12.0089 15.648 12.0078 15.6485C12.0062 15.6492 12.0035 15.65 12 15.65C11.9964 15.65 11.9937 15.6492 11.9921 15.6485C11.9911 15.648 11.9897 15.6473 11.9874 15.6446L11.2225 16.2888ZM11.0302 16.0535C11.1185 16.1635 11.1842 16.2432 11.2225 16.2888L11.9874 15.6446C11.9557 15.607 11.8952 15.5335 11.8096 15.427L11.0302 16.0535ZM10.544 15.4298C10.7193 15.6611 10.8827 15.87 11.0302 16.0535L11.8096 15.427C11.6683 15.2513 11.5108 15.0498 11.3409 14.8257L10.544 15.4298ZM9.07345 13.3128C9.54259 14.0557 10.0437 14.7697 10.544 15.4298L11.3409 14.8257C10.8558 14.1856 10.3712 13.495 9.91895 12.7789L9.07345 13.3128ZM7.57453 10.5041C7.9558 11.4099 8.46825 12.3546 9.07345 13.3128L9.91895 12.7789C9.33466 11.8537 8.85078 10.9586 8.49623 10.1161L7.57453 10.5041ZM6.84998 7.45392C6.84998 8.39406 7.11935 9.42255 7.57453 10.5041L8.49623 10.1161C8.06962 9.10253 7.84998 8.21198 7.84998 7.45392H6.84998ZM8.87967 7.45392C8.87967 5.75845 10.2706 4.3722 12 4.3722V3.3722C9.72784 3.3722 7.87967 5.19665 7.87967 7.45392H8.87967ZM9.44632 9.72204C9.06095 8.80641 8.87967 8.04596 8.87967 7.45392H7.87967C7.87967 8.23133 8.11261 9.13101 8.52462 10.11L9.44632 9.72204ZM10.7914 12.2359C10.2328 11.3515 9.77578 10.5049 9.44632 9.72204L8.52462 10.11C8.88094 10.9566 9.36664 11.8527 9.94585 12.7698L10.7914 12.2359ZM12.1637 14.2111C11.6948 13.5924 11.2268 12.9253 10.7914 12.2359L9.94585 12.7698C10.3981 13.486 10.8827 14.1765 11.3668 14.8152L12.1637 14.2111ZM12.3943 14.5112C12.3207 14.4168 12.2437 14.3166 12.1637 14.2111L11.3668 14.8152C11.4494 14.9242 11.5292 15.0279 11.6056 15.126L12.3943 14.5112ZM11.8362 14.2111C11.7563 14.3166 11.6793 14.4168 11.6056 14.5112L12.3943 15.126C12.4708 15.0279 12.5505 14.9242 12.6332 14.8152L11.8362 14.2111ZM13.2086 12.2359C12.7732 12.9253 12.3051 13.5924 11.8362 14.2111L12.6332 14.8152C13.1172 14.1765 13.6018 13.486 14.0541 12.7698L13.2086 12.2359ZM14.5536 9.72204C14.2242 10.5049 13.7671 11.3515 13.2086 12.2359L14.0541 12.7698C14.6333 11.8527 15.119 10.9566 15.4753 10.11L14.5536 9.72204ZM15.1203 7.45392C15.1203 8.04597 14.939 8.80641 14.5536 9.72204L15.4753 10.11C15.8873 9.13101 16.1203 8.23133 16.1203 7.45392H15.1203ZM12 4.3722C13.7294 4.3722 15.1203 5.75845 15.1203 7.45392H16.1203C16.1203 5.19665 14.2721 3.3722 12 3.3722V4.3722ZM12 9.49997C13.1046 9.49997 14 8.60454 14 7.49997H13C13 8.05225 12.5523 8.49997 12 8.49997V9.49997ZM10 7.49997C10 8.60454 10.8954 9.49997 12 9.49997V8.49997C11.4477 8.49997 11 8.05225 11 7.49997H10ZM12 5.49997C10.8954 5.49997 10 6.3954 10 7.49997H11C11 6.94768 11.4477 6.49997 12 6.49997V5.49997ZM14 7.49997C14 6.3954 13.1046 5.49997 12 5.49997V6.49997C12.5523 6.49997 13 6.94768 13 7.49997H14ZM10.2281 18.7252V16.8146H9.2281V18.7252H10.2281ZM14.4844 20.2779L9.92998 18.2678L9.52621 19.1826L14.0806 21.1928L14.4844 20.2779ZM13.7825 17V20.7353H14.7825V17H13.7825ZM14.3294 16.0789C14.2397 16.2031 14.1073 16.3865 13.8762 16.7085L14.6887 17.2915C14.9189 16.9706 15.0508 16.7881 15.1401 16.6643L14.3294 16.0789ZM14.4805 15.8688C14.439 15.9272 14.3969 15.9854 14.3294 16.0789L15.1401 16.6643C15.207 16.5717 15.2513 16.5104 15.2952 16.4486L14.4805 15.8688ZM14.84 15.3531C14.6283 15.6585 14.555 15.7641 14.4805 15.8688L15.2952 16.4486C15.3742 16.3376 15.4518 16.2257 15.6618 15.9228L14.84 15.3531ZM14.8459 15.3445L14.84 15.3531L15.6618 15.9228L15.6677 15.9143L14.8459 15.3445ZM15.7568 20.692V15.6294H14.7568V20.692H15.7568ZM18.8041 18.3009L15.0277 20.2476L15.4859 21.1365L19.2623 19.1897L18.8041 18.3009ZM18.5332 10.0864V18.7453H19.5332V10.0864H18.5332ZM18.1858 10.9642L19.219 10.5506L18.8474 9.62219L17.8142 10.0358L18.1858 10.9642ZM17.872 9.18111C17.7832 9.57023 17.6693 9.95285 17.5311 10.3264L18.4689 10.6735C18.6223 10.2592 18.7485 9.83494 18.847 9.4036L17.872 9.18111ZM19.1594 8.43186L18.173 8.82845L18.546 9.75627L19.5324 9.35968L19.1594 8.43186ZM19.9252 8.45703C19.6878 8.34645 19.4165 8.33565 19.1709 8.4274L19.5209 9.36414C19.5151 9.36633 19.5082 9.36595 19.5031 9.36354L19.9252 8.45703ZM20.4349 9.00923C20.344 8.76696 20.1623 8.56742 19.9252 8.45703L19.5031 9.36354C19.4983 9.36133 19.4981 9.35905 19.4986 9.36061L20.4349 9.00923ZM20.5 9.36394C20.4999 9.24164 20.4775 9.12021 20.4336 9.00585L19.4999 9.36399L19.5 9.36463L20.5 9.36394ZM20.5 19.0592V9.36428H19.5V19.0592H20.5ZM20.337 19.6112C20.4445 19.4462 20.5008 19.2533 20.5 19.0572L19.5 19.0612C19.5 19.0637 19.4992 19.0652 19.4991 19.0654L20.337 19.6112ZM19.8921 19.9838C20.0751 19.9067 20.2295 19.7763 20.337 19.6112L19.4991 19.0654C19.499 19.0656 19.5001 19.0638 19.5037 19.0623L19.8921 19.9838ZM15.2135 22.3907L19.9265 19.9678L19.4693 19.0784L14.7563 21.5014L15.2135 22.3907ZM14.7643 22.5C14.9215 22.5 15.076 22.462 15.2151 22.3899L14.7547 21.5022C14.7571 21.5009 14.7604 21.5 14.7643 21.5V22.5ZM14.3136 22.3899C14.4527 22.462 14.6072 22.5 14.7643 22.5V21.5C14.7683 21.5 14.7716 21.5009 14.774 21.5022L14.3136 22.3899ZM9.05403 20.0574L14.341 22.4031L14.7466 21.489L9.45957 19.1433L9.05403 20.0574ZM4.93606 22.3904L9.48591 20.0448L9.02768 19.156L4.47783 21.5016L4.93606 22.3904ZM4.56294 22.4969C4.69383 22.4867 4.82103 22.4501 4.93724 22.3898L4.47666 21.5022C4.47882 21.5011 4.4817 21.5002 4.48509 21.4999L4.56294 22.4969ZM4.17633 22.4491C4.30063 22.4908 4.43206 22.5071 4.56296 22.4969L4.48507 21.4999C4.48848 21.4996 4.49175 21.5001 4.49455 21.501L4.17633 22.4491ZM3.83974 22.255C3.93774 22.3412 4.05204 22.4073 4.17632 22.4491L4.49457 21.501C4.49735 21.502 4.49919 21.5032 4.50023 21.5041L3.83974 22.255ZM3.60451 21.9478C3.662 22.0642 3.74174 22.1688 3.83973 22.255L4.50024 21.5041C4.50125 21.505 4.5014 21.5055 4.50123 21.5052L3.60451 21.9478ZM3.50001 21.5059C3.50113 21.6587 3.53659 21.8096 3.60416 21.9471L4.50158 21.5059C4.50073 21.5041 4.50001 21.5016 4.49999 21.4986L3.50001 21.5059ZM3.5 11.2321V21.5023H4.5V11.2321H3.5ZM3.69365 10.6377C3.56727 10.8105 3.49995 11.0191 3.5 11.2323L4.5 11.232C4.5 11.2293 4.50093 11.2278 4.50091 11.2279L3.69365 10.6377ZM4.20653 10.274C3.99961 10.3362 3.82017 10.4646 3.69365 10.6377L4.50091 11.2279C4.50075 11.2281 4.49895 11.2303 4.49437 11.2316L4.20653 10.274ZM5.44217 9.61825L4.11891 10.3097L4.582 11.196L5.90526 10.5046L5.44217 9.61825ZM6.46272 10.8105C6.34407 10.5207 6.24105 10.2244 6.15416 9.92292L5.19328 10.1999C5.29013 10.5359 5.40496 10.8662 5.53728 11.1894L6.46272 10.8105ZM5.21975 12.0088L6.24392 11.4364L5.75608 10.5635L4.73192 11.1358L5.21975 12.0088ZM5.47583 20.6951V11.5723H4.47583V20.6951H5.47583ZM8.52317 18.304L4.74673 20.2507L5.20493 21.1396L8.98136 19.1928L8.52317 18.304ZM8.25226 15.391V18.7484H9.25226V15.391H8.25226ZM9.47174 15.5813C9.39561 15.4611 9.30619 15.32 9.16798 15.1132L8.33655 15.6688C8.46783 15.8652 8.55203 15.9981 8.62698 16.1165L9.47174 15.5813ZM10.1266 16.5126C9.72653 15.9845 9.62491 15.8231 9.47174 15.5813L8.62698 16.1165C8.79438 16.3807 8.91183 16.5651 9.32955 17.1165L10.1266 16.5126Z" fill="currentcolor"/>
</svg>
