<svg width="24" height="24" viewBox="0 0 24 24" fill="none" xmlns="http://www.w3.org/2000/svg">
<path d="M14.8547 5.48117L9.34847 3.0108L9.34163 3.00773H9.33414H9.33059L9.32649 3.00603L9.32761 3.00334H9.31444C9.27081 2.98862 9.22274 2.98281 9.1825 2.97862L9.18252 2.97844H9.17888H9.12612C9.07668 2.97844 9.03383 2.98879 8.99196 3.00289V3.00042L8.97851 3.00603L8.97441 3.00773H8.97086H8.96338L8.95655 3.01079L3.26723 5.55891C3.08899 5.62401 2.965 5.78867 2.965 5.98538V20.577C2.965 20.6595 2.98782 20.7423 3.03684 20.8156C3.16782 21.0296 3.45873 21.0999 3.67815 20.9689C3.67817 20.9689 3.67818 20.9689 3.6782 20.9689L9.15175 17.757L14.6164 20.9613C14.629 20.9723 14.6442 20.9792 14.6538 20.9833L14.6637 20.9929H14.6779H14.6854C14.7417 21.018 14.803 21.028 14.8603 21.028C14.9178 21.028 14.9776 21.0179 15.0338 20.9929H15.0412H15.0554L15.0656 20.983C15.0735 20.9792 15.08 20.975 15.0848 20.9719C15.0921 20.967 15.0939 20.9659 15.0954 20.9653L15.0955 20.9656L15.0996 20.9632L20.7878 17.6255C20.9336 17.5496 21.035 17.4022 21.035 17.2257V3.42356C21.035 3.35577 21.0167 3.29069 20.9896 3.23169L20.9895 3.23148C20.8816 3.00127 20.6062 2.90222 20.3708 3.00633L20.3706 3.0064L14.8547 5.48117ZM3.89422 19.7674V6.27608L8.66904 4.13238V16.9655L3.89422 19.7674ZM9.60882 4.13237L14.3851 6.27608V19.7674L9.60882 16.9655V4.13237ZM15.3249 19.7674V6.27608L20.1013 4.1317V16.9655L15.3249 19.7674Z" fill="currentcolor" stroke="currentcolor" stroke-width="0.07"/>
</svg>
