<svg width="24" height="24" viewBox="0 0 24 24" fill="none" xmlns="http://www.w3.org/2000/svg">
<path fill-rule="evenodd" clip-rule="evenodd" d="M7.34998 6.45392C7.34998 3.91012 9.4334 1.84998 12 1.84998C14.5666 1.84998 16.65 3.91012 16.65 6.45392C16.65 7.30302 16.4055 8.26254 15.9646 9.3101C15.5967 10.1842 15.0985 11.1041 14.5038 12.0459C14.043 12.7754 13.5502 13.4777 13.0575 14.1277C12.8849 14.3554 12.7244 14.5607 12.5801 14.7403C12.4931 14.8485 12.43 14.9251 12.395 14.9667C12.1892 15.2111 11.8108 15.2111 11.605 14.9667C11.57 14.9251 11.5069 14.8485 11.4199 14.7403C11.2755 14.5607 11.115 14.3554 10.9425 14.1277C10.4498 13.4777 9.95691 12.7754 9.4962 12.0459C8.90145 11.1041 8.40329 10.1842 8.03538 9.3101C7.59449 8.26254 7.34998 7.30302 7.34998 6.45392ZM12 2.8722C9.9992 2.8722 8.37967 4.47755 8.37967 6.45392C8.37967 7.13865 8.58678 7.96871 8.98547 8.916C9.32836 9.73071 9.79973 10.6021 10.3686 11.5028C10.8124 12.2056 11.2888 12.8845 11.7653 13.5132C11.8465 13.6204 11.9249 13.7223 12 13.8186C12.075 13.7223 12.1534 13.6204 12.2347 13.5132C12.7112 12.8845 13.1875 12.2056 13.6314 11.5028C14.2002 10.6021 14.6716 9.73071 15.0145 8.916C15.4132 7.96871 15.6203 7.13865 15.6203 6.45392C15.6203 4.47755 14.0008 2.8722 12 2.8722ZM10.0258 6.69478C10.0258 5.61372 10.9115 4.73923 12 4.73923C13.0884 4.73923 13.9742 5.61372 13.9742 6.69478C13.9742 7.77584 13.0884 8.65034 12 8.65034C10.9115 8.65034 10.0258 7.77584 10.0258 6.69478ZM12 5.76145C11.4773 5.76145 11.0554 6.18118 11.0554 6.69478C11.0554 7.20838 11.4773 7.62811 12 7.62811C12.5227 7.62811 12.9445 7.20838 12.9445 6.69478C12.9445 6.18118 12.5227 5.76145 12 5.76145ZM9.7281 17.7252V14.4236C9.5294 14.2346 9.33734 13.9152 9.15225 13.6075C9.01504 13.3793 8.88166 13.1575 8.75226 13V17.7484L4.97583 19.6951V10.5723L7.15106 9.71415C7.02557 9.40765 6.91665 9.09433 6.82477 8.77558L4.35045 9.75281C4.24928 9.78322 4.16046 9.84635 4.09728 9.93276C4.0341 10.0192 3.99997 10.1242 4 10.2321V20.5023C4.00057 20.5802 4.01866 20.6569 4.05287 20.7265C4.0817 20.7849 4.1215 20.8369 4.16998 20.8796C4.21847 20.9222 4.27469 20.9547 4.33544 20.975C4.39619 20.9954 4.46027 21.0034 4.52402 20.9984C4.58776 20.9934 4.64993 20.9756 4.70695 20.946L9.2568 18.6004L14.5438 20.946C14.6122 20.9815 14.6877 21 14.7643 21C14.841 21 14.9165 20.9815 14.9849 20.946L19.6979 18.5231C19.7876 18.4853 19.8642 18.4209 19.9181 18.3383C19.9719 18.2557 20.0004 18.1585 20 18.0592V8.36428C20 8.3029 19.9887 8.24206 19.9668 8.18492C19.921 8.06301 19.8303 7.96438 19.7142 7.91029C19.598 7.8562 19.4658 7.85099 19.3459 7.89577L17.9411 8.45087C17.8475 8.86111 17.7274 9.26453 17.5816 9.65849L19.0332 9.08638V17.7453L15.2568 19.692V13.3246C15.1201 13.4639 14.9796 13.6989 14.8352 13.9402C14.6566 14.2388 14.4722 14.547 14.2825 14.6952V19.7353L9.7281 17.7252Z" fill="currentcolor"/>
</svg>
