<svg width="24" height="24" viewBox="0 0 24 24" fill="none" xmlns="http://www.w3.org/2000/svg">
<path d="M9 11H15V13H9V11Z" fill="currentcolor"/>
<path d="M10 14H14V16H10V14Z" fill="currentcolor"/>
<path fill-rule="evenodd" clip-rule="evenodd" d="M10.6972 4H13.3028L16.3028 6H19V7H23V14.7208L19 16.0541V17.5352L15.3028 20H8.69722L5 17.5352V16.0541L1 14.7208V7H5V6H7.69722L10.6972 4ZM5 9H3V13.2792L5 13.9459V9ZM7 8H8.30278L11.3028 6H12.6972L15.6972 8H17V16.4648L14.6972 18H9.30278L7 16.4648V8ZM19 9V13.9459L21 13.2792V9H19Z" fill="currentcolor"/>
</svg>
