<svg width="24" height="24" viewBox="0 0 24 24" fill="none" xmlns="http://www.w3.org/2000/svg">
<path fill-rule="evenodd" clip-rule="evenodd" d="M22.0755 15.3532C22.2181 16.2016 22.0426 16.7069 21.5227 16.8877C21.1219 17.027 20.6904 16.7905 20.2026 16.1686L20.1274 16.07L20.1249 16.1239C20.0933 16.4726 19.9651 16.7091 19.7367 16.8406L19.6652 16.8769C19.0149 17.1664 18.2475 16.415 17.2447 14.5847L16.9995 14.1247C16.9579 14.0445 16.9158 13.9627 16.8734 13.8791L16.6139 13.3567L16.3445 12.7926L16.0944 12.252L16.0945 13.4067L16.0774 13.5277C15.768 14.5908 15.2331 15.1784 14.4791 15.1784C14.1673 15.1784 13.9218 14.8067 13.7258 14.0101L13.6655 13.7444L13.6084 13.4501L13.5543 13.1267L13.5032 12.774L13.455 12.3916L13.3876 11.7614L13.3459 11.303L13.2878 10.557L13.2347 9.74004L13.1863 8.85069L13.1283 7.55018L13.0769 6.11584L13.0312 4.5447L13.0001 3.27477C12.9951 3.05393 13.1551 2.87044 13.3576 2.86494C13.5601 2.85944 13.7283 3.03402 13.7333 3.25486L13.7858 5.24777L13.8315 6.61753L13.8826 7.88015L13.9197 8.66235L13.9591 9.39688L14.001 10.0837L14.0452 10.7229L14.0919 11.3144L14.1409 11.8581L14.1716 12.1627L14.2355 12.7187C14.301 13.239 14.3712 13.652 14.4454 13.9558C14.4758 14.0806 14.5063 14.184 14.5356 14.2648L14.579 14.369L14.6482 14.3548C14.9204 14.2754 15.1452 13.9923 15.3255 13.4547L15.361 13.337L15.3611 10.4999C15.3611 10.1008 15.8249 9.96152 16.022 10.2596L16.0599 10.3302L16.3334 10.9589L16.5985 11.5524L16.8547 12.1105L17.1016 12.633L17.3389 13.1199L17.5661 13.5711L17.7828 13.9862L17.9886 14.3654C18.0219 14.4256 18.0548 14.4842 18.0873 14.5414L18.2759 14.8662L18.4527 15.1546C18.5095 15.2447 18.5644 15.3286 18.6171 15.4065L18.7687 15.6218C19.059 16.0155 19.2704 16.1886 19.3881 16.1362C19.4702 16.0996 19.4645 15.8582 19.3623 15.428L19.2894 15.1474C19.2753 15.0969 19.2602 15.0445 19.2441 14.9903L19.1358 14.6432L19.0033 14.2527L18.8035 13.706L18.7751 13.6447C18.5802 13.2257 18.3771 12.7661 18.165 12.2655L17.84 11.4837L17.5392 10.7371C17.3504 10.2621 17.9886 9.9354 18.2029 10.3974L18.3958 10.8163L18.752 11.6094C18.9763 12.1185 19.1742 12.5884 19.3449 13.0204L19.4811 13.374L19.6555 13.7382L19.8711 14.1717L20.0751 14.5624L20.267 14.9101C20.2979 14.9645 20.3283 15.0171 20.3581 15.0679L20.5307 15.3509C20.8626 15.8737 21.1138 16.1363 21.2656 16.1317L21.2999 16.1255C21.4197 16.0838 21.4448 15.8613 21.3647 15.4653L21.3105 15.2322C21.2889 15.1487 21.2638 15.0596 21.2351 14.9649L21.1381 14.6638L21.019 14.329L20.8776 13.961L20.7135 13.5599L20.4237 12.8969L20.201 12.4144L20.0266 12.049L19.813 11.6326L19.5293 11.0651L19.3824 10.7665C19.1548 10.3019 19.7866 9.92253 20.0248 10.3807C20.1601 10.6408 20.2891 10.8929 20.4117 11.137L20.6885 11.698L20.9725 12.2335L21.2513 12.7394L21.5121 13.1908C21.6381 13.4028 21.7573 13.5944 21.8696 13.7654L21.9797 13.9295C22.1852 14.2292 22.3627 14.4491 22.5065 14.5866L22.6357 14.699L22.6381 14.6215C22.6372 14.4339 22.5772 14.1515 22.4541 13.7851C22.3226 13.3936 22.1235 12.9179 21.8569 12.359L21.6118 11.8596C21.5682 11.773 21.5233 11.6847 21.4769 11.5947L21.1824 11.0345L20.8551 10.4342C20.6151 10.0021 21.166 9.60741 21.4397 9.95515L21.4815 10.019L21.6391 10.3004L21.9385 10.8218L22.2167 11.2881L22.4738 11.6989C22.5559 11.8266 22.6344 11.945 22.7094 12.0542L22.9235 12.3538L23.0225 12.4827C23.0813 12.5573 23.1364 12.6231 23.1873 12.6799L23.2445 12.741L23.1668 12.4251L23.0839 12.1319C23.0304 11.9557 22.9661 11.7605 22.8911 11.5464L22.7268 11.093C22.6971 11.0132 22.6661 10.9314 22.634 10.8474L22.4268 10.3186L22.1911 9.73972L21.9518 9.16999L18.3651 5.13713C18.3103 5.07557 18.2757 4.99705 18.2651 4.91353L18.2626 4.82879L18.3902 2.97014C18.4053 2.74984 18.5813 2.58462 18.7833 2.60111C18.96 2.61554 19.098 2.76431 19.1197 2.94886L19.1216 3.02985L19.0052 4.70799L22.5227 8.66385L22.5921 8.7738L22.9466 9.61874L23.25 10.3715L23.4238 10.8241L23.5747 11.2388C23.598 11.3048 23.6203 11.3693 23.6417 11.4323L23.7583 11.7924C24.0566 12.7629 24.0793 13.3136 23.8237 13.5702C23.6537 13.7408 23.4751 13.7836 23.2832 13.721L23.2051 13.689L23.2267 13.7596C23.4697 14.5982 23.4184 15.1348 23.0506 15.4047L22.9779 15.4522C22.7166 15.604 22.4282 15.5388 22.0938 15.2493L22.0481 15.208L22.0755 15.3532ZM15.6245 17.9269C15.5326 17.6665 15.247 17.5298 14.9866 17.6217C13.6275 18.1011 10.7009 18.166 9.33631 17.6281C9.07941 17.5268 8.78905 17.6529 8.68778 17.9098C8.5865 18.1667 8.71266 18.4571 8.96956 18.5584C10.5728 19.1904 13.745 19.12 15.3193 18.5647C15.5797 18.4729 15.7163 18.1873 15.6245 17.9269ZM16.6363 20.9653C16.5657 20.6984 16.292 20.5392 16.0251 20.6098C14.1535 21.105 10.1797 21.1711 8.2947 20.6137C8.02989 20.5354 7.75175 20.6866 7.67345 20.9515C7.59516 21.2163 7.74636 21.4944 8.01117 21.5727C10.0832 22.1853 14.2413 22.1162 16.2808 21.5766C16.5478 21.506 16.7069 21.2323 16.6363 20.9653ZM2.47732 16.8877C1.95737 16.7069 1.78186 16.2016 1.92454 15.3532L1.95192 15.208L1.90617 15.2493C1.57176 15.5388 1.28341 15.604 1.0221 15.4522L0.949417 15.4047C0.581579 15.1348 0.530332 14.5982 0.773306 13.7596L0.794922 13.689L0.716825 13.721C0.524875 13.7836 0.346272 13.7408 0.176335 13.5702C-0.0792656 13.3136 -0.0565662 12.7629 0.241654 11.7924L0.358344 11.4323C0.379698 11.3693 0.402004 11.3048 0.425261 11.2388L0.576221 10.8241L0.749995 10.3715L1.05337 9.61874L1.40792 8.7738L1.47726 8.66385L4.99476 4.70799L4.87843 3.02985L4.88034 2.94886C4.90197 2.76431 5.04003 2.61554 5.21675 2.60111C5.41872 2.58462 5.5947 2.74984 5.60982 2.97014L5.73737 4.82879L5.73493 4.91353C5.72432 4.99705 5.68966 5.07557 5.63492 5.13713L2.04818 9.16999L1.80886 9.73972L1.57317 10.3186L1.36602 10.8474C1.33387 10.9314 1.30292 11.0132 1.27316 11.093L1.10889 11.5464C1.0339 11.7605 0.969648 11.9557 0.916144 12.1319L0.833242 12.4251L0.755499 12.741L0.812654 12.6799C0.863572 12.6231 0.918687 12.5573 0.977533 12.4827L1.07648 12.3538L1.2906 12.0542C1.36557 11.945 1.44412 11.8266 1.52624 11.6989L1.78325 11.2881L2.06152 10.8218L2.36092 10.3004L2.51849 10.019L2.56027 9.95515C2.83399 9.60741 3.38487 10.0021 3.14491 10.4342L2.81759 11.0345L2.52307 11.5947C2.47673 11.6847 2.43177 11.773 2.38818 11.8596L2.14314 12.359C1.87653 12.9179 1.67736 13.3936 1.54586 13.7851C1.42277 14.1515 1.3628 14.4339 1.3619 14.6215L1.36425 14.699L1.49349 14.5866C1.63732 14.4491 1.81479 14.2292 2.02026 13.9295L2.13037 13.7654C2.24274 13.5944 2.36192 13.4028 2.48785 13.1908L2.74872 12.7394L3.02751 12.2335L3.31152 11.698L3.58827 11.137C3.71094 10.8929 3.83994 10.6408 3.97519 10.3807C4.21336 9.92253 4.84517 10.3019 4.61763 10.7665L4.47068 11.0651L4.18703 11.6326L3.97345 12.049L3.79901 12.4144L3.57629 12.8969L3.28654 13.5599L3.12238 13.961L2.98096 14.329L2.86193 14.6638L2.76489 14.9649C2.73617 15.0596 2.71105 15.1487 2.68948 15.2322L2.6353 15.4653C2.55521 15.8613 2.5803 16.0838 2.70006 16.1255L2.73445 16.1317C2.88622 16.1363 3.13735 15.8737 3.46926 15.3509L3.64185 15.0679C3.67171 15.0171 3.70211 14.9645 3.73304 14.9101L3.92486 14.5624L4.12886 14.1717L4.34452 13.7382L4.51894 13.374L4.65511 13.0204C4.82583 12.5884 5.02366 12.1185 5.24797 11.6094L5.60423 10.8163L5.7971 10.3974C6.0114 9.9354 6.64961 10.2621 6.46078 10.7371L6.16 11.4837L5.835 12.2655C5.62291 12.7661 5.41985 13.2257 5.22495 13.6447L5.19645 13.706L4.99672 14.2527L4.86423 14.6432L4.75587 14.9903C4.7398 15.0445 4.72472 15.0969 4.71061 15.1474L4.63769 15.428C4.53555 15.8582 4.52975 16.0996 4.61194 16.1362C4.72963 16.1886 4.94099 16.0155 5.23128 15.6218L5.38294 15.4065C5.43564 15.3286 5.49046 15.2447 5.54734 15.1546L5.72408 14.8662L5.91274 14.5414C5.94516 14.4842 5.97806 14.4256 6.01142 14.3654L6.21721 13.9862L6.4339 13.5711L6.66109 13.1199L6.89836 12.633L7.14531 12.1105L7.40152 11.5524L7.66659 10.9589L7.9401 10.3302L7.97798 10.2596C8.17506 9.96152 8.6389 10.1008 8.6389 10.4999L8.63901 13.337L8.67447 13.4547C8.85476 13.9923 9.07957 14.2754 9.35182 14.3548L9.42104 14.369L9.46442 14.2648C9.49367 14.184 9.52419 14.0806 9.55464 13.9558C9.62883 13.652 9.69902 13.239 9.76449 12.7187L9.82837 12.1627L9.85908 11.8581L9.90811 11.3144L9.95475 10.7229L9.99901 10.0837L10.0409 9.39688L10.0803 8.66235L10.1174 7.88015L10.1685 6.61753L10.2142 5.24777L10.2667 3.25486C10.2717 3.03402 10.4399 2.85944 10.6424 2.86494C10.8449 2.87044 11.0049 3.05393 10.9999 3.27477L10.9688 4.5447L10.9231 6.11584L10.8717 7.55018L10.8137 8.85069L10.7653 9.74004L10.7122 10.557L10.6541 11.303L10.6124 11.7614L10.545 12.3916L10.4968 12.774L10.4457 13.1267L10.3916 13.4501L10.3345 13.7444L10.2742 14.0101C10.0782 14.8067 9.83266 15.1784 9.52089 15.1784C8.76689 15.1784 8.23199 14.5908 7.92265 13.5277L7.90547 13.4067L7.90558 12.252L7.65553 12.7926L7.3861 13.3567L7.12662 13.8791C7.08418 13.9627 7.04214 14.0445 7.00049 14.1247L6.75525 14.5847C5.7525 16.415 4.98513 17.1664 4.33484 16.8769L4.2633 16.8406C4.03487 16.7091 3.90672 16.4726 3.8751 16.1239L3.8726 16.07L3.79743 16.1686C3.30958 16.7905 2.87815 17.027 2.47732 16.8877Z" fill="currentcolor"/>
<path d="M21.5227 16.8877L21.4406 16.6515L21.5227 16.8877ZM22.0755 15.3532L22.322 15.3117L22.3211 15.3069L22.0755 15.3532ZM20.2026 16.1686L20.0037 16.3202L20.0059 16.3229L20.2026 16.1686ZM20.1274 16.07L20.3262 15.9184L19.9095 15.3718L19.8777 16.0584L20.1274 16.07ZM20.1249 16.1239L20.3741 16.1465L20.3746 16.1354L20.1249 16.1239ZM19.7367 16.8406L19.85 17.0638L19.8615 17.0573L19.7367 16.8406ZM19.6652 16.8769L19.7669 17.1056L19.7783 17.0998L19.6652 16.8769ZM17.2447 14.5847L17.0241 14.7023L17.0255 14.7048L17.2447 14.5847ZM16.9995 14.1247L16.7777 14.24L16.7789 14.2423L16.9995 14.1247ZM16.8734 13.8791L16.6495 13.9903L16.6505 13.9923L16.8734 13.8791ZM16.6139 13.3567L16.3883 13.4645L16.39 13.4679L16.6139 13.3567ZM16.3445 12.7926L16.1175 12.8975L16.1189 12.9003L16.3445 12.7926ZM16.0944 12.252L16.3213 12.147L15.8444 12.252L16.0944 12.252ZM16.0945 13.4067L16.3421 13.4418L16.3445 13.4243L16.3445 13.4066L16.0945 13.4067ZM16.0774 13.5277L16.3174 13.5975L16.3224 13.5804L16.3249 13.5628L16.0774 13.5277ZM13.7258 14.0101L13.4819 14.0655L13.483 14.0699L13.7258 14.0101ZM13.6655 13.7444L13.4199 13.792L13.4217 13.7997L13.6655 13.7444ZM13.6084 13.4501L13.3617 13.4913L13.363 13.4977L13.6084 13.4501ZM13.5543 13.1267L13.3069 13.1626L13.3078 13.1679L13.5543 13.1267ZM13.5032 12.774L13.2552 12.8053L13.2558 12.8099L13.5032 12.774ZM13.455 12.3916L13.2063 12.4182L13.2069 12.4229L13.455 12.3916ZM13.3876 11.7614L13.1386 11.784L13.139 11.7879L13.3876 11.7614ZM13.3459 11.303L13.0966 11.3224L13.0969 11.3256L13.3459 11.303ZM13.2878 10.557L13.0383 10.5732L13.0385 10.5765L13.2878 10.557ZM13.2347 9.74004L12.9851 9.75363L12.9852 9.75624L13.2347 9.74004ZM13.1863 8.85069L12.9365 8.86183L12.9367 8.86428L13.1863 8.85069ZM13.1283 7.55018L12.8784 7.55913L12.8785 7.56132L13.1283 7.55018ZM13.0769 6.11584L12.827 6.12311L12.8271 6.12479L13.0769 6.11584ZM13.0312 4.5447L12.7813 4.55082L12.7813 4.55197L13.0312 4.5447ZM13.0001 3.27477L12.7502 3.28048L12.7502 3.28089L13.0001 3.27477ZM13.7333 3.25486L13.4834 3.26057L13.4834 3.26144L13.7333 3.25486ZM13.7858 5.24777L13.5359 5.25435L13.5359 5.2561L13.7858 5.24777ZM13.8315 6.61753L13.5816 6.62586L13.5817 6.62764L13.8315 6.61753ZM13.8826 7.88015L13.6328 7.89026L13.6329 7.89198L13.8826 7.88015ZM13.9197 8.66235L13.6699 8.67418L13.67 8.67576L13.9197 8.66235ZM13.9591 9.39688L13.7095 9.4103L13.7096 9.41209L13.9591 9.39688ZM14.001 10.0837L13.7514 10.099L13.7516 10.101L14.001 10.0837ZM14.0452 10.7229L13.7958 10.7402L13.796 10.7426L14.0452 10.7229ZM14.0919 11.3144L13.8426 11.334L13.8429 11.3368L14.0919 11.3144ZM14.1409 11.8581L13.8919 11.8805L13.8922 11.8831L14.1409 11.8581ZM14.1716 12.1627L13.9229 12.1878L13.9233 12.1913L14.1716 12.1627ZM14.2355 12.7187L13.9871 12.7473L13.9875 12.7499L14.2355 12.7187ZM14.4454 13.9558L14.2025 14.0151L14.4454 13.9558ZM14.5356 14.2648L14.3003 14.35L14.3048 14.3608L14.5356 14.2648ZM14.579 14.369L14.3482 14.4651L14.4274 14.6554L14.6293 14.6139L14.579 14.369ZM14.6482 14.3548L14.6985 14.5997L14.7084 14.5976L14.7182 14.5948L14.6482 14.3548ZM15.3255 13.4547L15.5627 13.5342L15.5649 13.5268L15.3255 13.4547ZM15.361 13.337L15.6004 13.4091L15.611 13.3739L15.611 13.337L15.361 13.337ZM15.3611 10.4999L15.6111 10.4999V10.4999H15.3611ZM16.022 10.2596L16.2423 10.1414L16.2369 10.1313L16.2306 10.1217L16.022 10.2596ZM16.0599 10.3302L16.2891 10.2305L16.2851 10.2211L16.2802 10.212L16.0599 10.3302ZM16.3334 10.9589L16.1042 11.0587L16.1051 11.0609L16.3334 10.9589ZM16.5985 11.5524L16.3702 11.6544L16.3713 11.6567L16.5985 11.5524ZM16.8547 12.1105L16.6275 12.2148L16.6287 12.2173L16.8547 12.1105ZM17.1016 12.633L16.8756 12.7399L16.8769 12.7426L17.1016 12.633ZM17.3389 13.1199L17.1142 13.2295L17.1156 13.2324L17.3389 13.1199ZM17.5661 13.5711L17.3428 13.6835L17.3445 13.6867L17.5661 13.5711ZM17.7828 13.9862L17.5611 14.1019L17.5631 14.1055L17.7828 13.9862ZM17.9886 14.3654L17.7689 14.4846L17.7699 14.4866L17.9886 14.3654ZM18.0873 14.5414L17.8698 14.6647L17.8711 14.6669L18.0873 14.5414ZM18.2759 14.8662L18.0597 14.9918L18.0628 14.9968L18.2759 14.8662ZM18.4527 15.1546L18.2395 15.2852L18.2413 15.2881L18.4527 15.1546ZM18.6171 15.4065L18.41 15.5466L18.4127 15.5505L18.6171 15.4065ZM18.7687 15.6218L18.5643 15.7658L18.5675 15.7701L18.7687 15.6218ZM19.3881 16.1362L19.4897 16.3646H19.4897L19.3881 16.1362ZM19.3623 15.428L19.6056 15.3703L19.6043 15.3652L19.3623 15.428ZM19.2894 15.1474L19.5314 15.0845L19.5302 15.0802L19.2894 15.1474ZM19.2441 14.9903L19.4838 14.9193L19.4828 14.9158L19.2441 14.9903ZM19.1358 14.6432L19.3745 14.5687L19.3725 14.5629L19.1358 14.6432ZM19.0033 14.2527L19.2401 14.1724L19.2381 14.1669L19.0033 14.2527ZM18.8035 13.706L19.0384 13.6202L19.0347 13.6102L19.0303 13.6006L18.8035 13.706ZM18.7751 13.6447L19.0018 13.5393L19.0017 13.5392L18.7751 13.6447ZM18.165 12.2655L17.9342 12.3614L17.9348 12.363L18.165 12.2655ZM17.84 11.4837L17.6081 11.5772L17.6092 11.5797L17.84 11.4837ZM17.5392 10.7371L17.3069 10.8295L17.3073 10.8305L17.5392 10.7371ZM18.2029 10.3974L18.43 10.2928L18.4297 10.2922L18.2029 10.3974ZM18.3958 10.8163L18.6238 10.7138L18.6229 10.7117L18.3958 10.8163ZM18.752 11.6094L18.9808 11.5086L18.9801 11.507L18.752 11.6094ZM19.3449 13.0204L19.5782 12.9305L19.5774 12.9285L19.3449 13.0204ZM19.4811 13.374L19.2478 13.4638L19.2513 13.4731L19.2556 13.482L19.4811 13.374ZM19.6555 13.7382L19.43 13.8462L19.4317 13.8496L19.6555 13.7382ZM19.8711 14.1717L19.6473 14.283L19.6495 14.2874L19.8711 14.1717ZM20.0751 14.5624L19.8535 14.6781L19.8562 14.6831L20.0751 14.5624ZM20.267 14.9101L20.048 15.0309L20.0497 15.0337L20.267 14.9101ZM20.3581 15.0679L20.1426 15.1946L20.1447 15.198L20.3581 15.0679ZM20.5307 15.3509L20.3173 15.4811L20.3197 15.4849L20.5307 15.3509ZM21.2656 16.1317L21.2731 16.3815L21.2916 16.381L21.3099 16.3777L21.2656 16.1317ZM21.2999 16.1255L21.3443 16.3715L21.3635 16.368L21.382 16.3616L21.2999 16.1255ZM21.3647 15.4653L21.6098 15.4157L21.6082 15.4087L21.3647 15.4653ZM21.3105 15.2322L21.5541 15.1756L21.5526 15.1696L21.3105 15.2322ZM21.2351 14.9649L21.4744 14.8924L21.4731 14.8882L21.2351 14.9649ZM21.1381 14.6638L21.3761 14.587L21.3736 14.58L21.1381 14.6638ZM21.019 14.329L21.2547 14.2452L21.2524 14.2394L21.019 14.329ZM20.8776 13.961L21.111 13.8713L21.109 13.8663L20.8776 13.961ZM20.7135 13.5599L20.9449 13.4652L20.9425 13.4598L20.7135 13.5599ZM20.4237 12.8969L20.6528 12.7968L20.6507 12.7921L20.4237 12.8969ZM20.201 12.4144L20.428 12.3096L20.4266 12.3067L20.201 12.4144ZM20.0266 12.049L20.2523 11.9412L20.249 11.9349L20.0266 12.049ZM19.813 11.6326L19.5893 11.7444L19.5905 11.7467L19.813 11.6326ZM19.5293 11.0651L19.305 11.1755L19.3057 11.1768L19.5293 11.0651ZM19.3824 10.7665L19.1579 10.8764L19.1581 10.8769L19.3824 10.7665ZM20.0248 10.3807L20.2466 10.2654L20.0248 10.3807ZM20.4117 11.137L20.6359 11.0264L20.6351 11.0248L20.4117 11.137ZM20.6885 11.698L20.4642 11.8086L20.4676 11.8151L20.6885 11.698ZM20.9725 12.2335L20.7516 12.3507L20.7535 12.3542L20.9725 12.2335ZM21.2513 12.7394L21.0323 12.8601L21.0348 12.8645L21.2513 12.7394ZM21.5121 13.1908L21.2957 13.3159L21.2972 13.3185L21.5121 13.1908ZM21.8696 13.7654L21.6607 13.9027L21.662 13.9046L21.8696 13.7654ZM21.9797 13.9295L21.7721 14.0688L21.7735 14.0709L21.9797 13.9295ZM22.5065 14.5866L22.3335 14.7675L22.3425 14.7753L22.5065 14.5866ZM22.6357 14.699L22.4717 14.8877L22.8696 15.2336L22.8856 14.7066L22.6357 14.699ZM22.6381 14.6215L22.8881 14.6291L22.8881 14.6203L22.6381 14.6215ZM22.4541 13.7851L22.6911 13.7055L22.4541 13.7851ZM21.8569 12.359L22.0825 12.2513L22.0813 12.2488L21.8569 12.359ZM21.6118 11.8596L21.8363 11.7494L21.8351 11.7472L21.6118 11.8596ZM21.4769 11.5947L21.6992 11.4802L21.6982 11.4783L21.4769 11.5947ZM21.1824 11.0345L21.4037 10.9181L21.4019 10.9148L21.1824 11.0345ZM20.8551 10.4342L21.0746 10.3145L21.0737 10.3129L20.8551 10.4342ZM21.4397 9.95515L21.6489 9.81827L21.6429 9.80911L21.6362 9.80052L21.4397 9.95515ZM21.4815 10.019L21.6996 9.89685L21.6954 9.88933L21.6907 9.88212L21.4815 10.019ZM21.6391 10.3004L21.4209 10.4225L21.4223 10.4249L21.6391 10.3004ZM21.9385 10.8218L21.7216 10.9463L21.7238 10.95L21.9385 10.8218ZM22.2167 11.2881L22.002 11.4162L22.0048 11.4206L22.2167 11.2881ZM22.4738 11.6989L22.2618 11.8315L22.2635 11.8341L22.4738 11.6989ZM22.7094 12.0542L22.5033 12.1957L22.506 12.1995L22.7094 12.0542ZM22.9235 12.3538L22.72 12.4993L22.7252 12.5061L22.9235 12.3538ZM23.0225 12.4827L22.8241 12.635L22.8262 12.6376L23.0225 12.4827ZM23.1873 12.6799L23.0011 12.8467L23.0048 12.8507L23.1873 12.6799ZM23.2445 12.741L23.0619 12.9118L23.7161 13.6111L23.4873 12.6812L23.2445 12.741ZM23.1668 12.4251L23.4097 12.3654L23.4073 12.3571L23.1668 12.4251ZM23.0839 12.1319L23.3245 12.0639L23.3231 12.0593L23.0839 12.1319ZM22.8911 11.5464L23.1271 11.4638L23.1262 11.4612L22.8911 11.5464ZM22.7268 11.093L22.9619 11.0078L22.9611 11.0056L22.7268 11.093ZM22.634 10.8474L22.8675 10.758L22.8668 10.7562L22.634 10.8474ZM22.4268 10.3186L22.6596 10.2274L22.6584 10.2243L22.4268 10.3186ZM22.1911 9.73972L22.4227 9.64544L22.4216 9.6429L22.1911 9.73972ZM21.9518 9.16999L22.1823 9.07318L22.1662 9.03489L22.1386 9.00385L21.9518 9.16999ZM18.3651 5.13713L18.1783 5.30326L18.1783 5.30328L18.3651 5.13713ZM18.2651 4.91353L18.0152 4.92074L18.0155 4.93293L18.0171 4.94503L18.2651 4.91353ZM18.2626 4.82879L18.0132 4.81167L18.0124 4.82382L18.0127 4.83599L18.2626 4.82879ZM18.3902 2.97014L18.6396 2.98725V2.98725L18.3902 2.97014ZM18.7833 2.60111L18.7629 2.85028L18.7833 2.60111ZM19.1197 2.94886L19.3696 2.94295L19.3693 2.93132L19.368 2.91976L19.1197 2.94886ZM19.1216 3.02985L19.371 3.04714L19.3718 3.03556L19.3715 3.02395L19.1216 3.02985ZM19.0052 4.70799L18.7558 4.69071L18.7486 4.79557L18.8184 4.87412L19.0052 4.70799ZM22.5227 8.66385L22.7342 8.5305L22.7232 8.5131L22.7096 8.49773L22.5227 8.66385ZM22.5921 8.7738L22.8226 8.67707L22.8146 8.65797L22.8035 8.64045L22.5921 8.7738ZM22.9466 9.61874L23.1785 9.52527L23.1772 9.522L22.9466 9.61874ZM23.25 10.3715L23.4834 10.2818L23.4819 10.278L23.25 10.3715ZM23.4238 10.8241L23.6587 10.7386L23.6572 10.7345L23.4238 10.8241ZM23.5747 11.2388L23.8105 11.1557L23.8097 11.1533L23.5747 11.2388ZM23.6417 11.4323L23.8795 11.3552L23.8784 11.352L23.6417 11.4323ZM23.7583 11.7924L23.9973 11.719L23.9962 11.7154L23.7583 11.7924ZM23.8237 13.5702L24.0008 13.7466L23.8237 13.5702ZM23.2832 13.721L23.1883 13.9523L23.1969 13.9558L23.2057 13.9587L23.2832 13.721ZM23.2051 13.689L23.3 13.4577L22.8114 13.2572L22.966 13.7622L23.2051 13.689ZM23.2267 13.7596L23.4668 13.69L23.4657 13.6863L23.2267 13.7596ZM23.0506 15.4047L23.1875 15.6143L23.1985 15.6063L23.0506 15.4047ZM22.9779 15.4522L23.1037 15.6687L23.1147 15.6615L22.9779 15.4522ZM22.0938 15.2493L21.9261 15.4348L21.9302 15.4384L22.0938 15.2493ZM22.0481 15.208L22.2157 15.0225L21.6648 14.5246L21.8024 15.2543L22.0481 15.208ZM14.9866 17.6217L14.9035 17.3859L14.9866 17.6217ZM15.6245 17.9269L15.8602 17.8437V17.8437L15.6245 17.9269ZM9.33631 17.6281L9.428 17.3955L9.33631 17.6281ZM8.68778 17.9098L8.4552 17.8182V17.8182L8.68778 17.9098ZM8.96956 18.5584L9.06125 18.3258L8.96956 18.5584ZM15.3193 18.5647L15.4024 18.8005L15.3193 18.5647ZM16.0251 20.6098L15.9611 20.3682L16.0251 20.6098ZM16.6363 20.9653L16.3946 21.0293V21.0293L16.6363 20.9653ZM8.2947 20.6137L8.36558 20.374L8.2947 20.6137ZM7.67345 20.9515L7.43371 20.8806L7.67345 20.9515ZM8.01117 21.5727L8.08205 21.333L8.01117 21.5727ZM16.2808 21.5766L16.2169 21.3349L16.2808 21.5766ZM1.92454 15.3532L1.67882 15.3069L1.678 15.3117L1.92454 15.3532ZM2.47732 16.8877L2.55942 16.6515H2.55942L2.47732 16.8877ZM1.95192 15.208L2.19759 15.2543L2.33518 14.5246L1.78427 15.0225L1.95192 15.208ZM1.90617 15.2493L2.06981 15.4384L2.07382 15.4348L1.90617 15.2493ZM1.0221 15.4522L0.885148 15.6618L0.896504 15.6684L1.0221 15.4522ZM0.949417 15.4047L0.801284 15.6065L0.812652 15.614L0.949417 15.4047ZM0.773306 13.7596L0.534241 13.6863L0.53318 13.69L0.773306 13.7596ZM0.794922 13.689L1.03396 13.7622L1.18864 13.2572L0.700032 13.4577L0.794922 13.689ZM0.716825 13.721L0.794328 13.9587L0.80314 13.9558L0.811714 13.9523L0.716825 13.721ZM0.176335 13.5702L0.353463 13.3938H0.353463L0.176335 13.5702ZM0.241654 11.7924L0.00379971 11.7154L0.00268376 11.719L0.241654 11.7924ZM0.358344 11.4323L0.121555 11.352L0.120517 11.3552L0.358344 11.4323ZM0.425261 11.2388L0.190329 11.1533L0.189462 11.1557L0.425261 11.2388ZM0.576221 10.8241L0.342795 10.7345L0.341301 10.7386L0.576221 10.8241ZM0.749995 10.3715L0.518088 10.278L0.516604 10.2819L0.749995 10.3715ZM1.05337 9.61874L0.822819 9.52199L0.821494 9.52528L1.05337 9.61874ZM1.40792 8.7738L1.19646 8.64045L1.18541 8.65797L1.17739 8.67707L1.40792 8.7738ZM1.47726 8.66385L1.29043 8.49773L1.27676 8.5131L1.26579 8.5305L1.47726 8.66385ZM4.99476 4.70799L5.18158 4.87412L5.25143 4.79557L5.24416 4.69071L4.99476 4.70799ZM4.87843 3.02985L4.6285 3.02395L4.62822 3.03556L4.62903 3.04714L4.87843 3.02985ZM4.88034 2.94886L4.63204 2.91976L4.63069 2.93132L4.63041 2.94296L4.88034 2.94886ZM5.21675 2.60111L5.1964 2.35194V2.35194L5.21675 2.60111ZM5.60982 2.97014L5.85923 2.95302V2.95302L5.60982 2.97014ZM5.73737 4.82879L5.98727 4.83599L5.98762 4.82382L5.98679 4.81167L5.73737 4.82879ZM5.73493 4.91353L5.98294 4.94503L5.98447 4.93293L5.98483 4.92073L5.73493 4.91353ZM5.63492 5.13713L5.82173 5.30328L5.82174 5.30326L5.63492 5.13713ZM2.04818 9.16999L1.86137 9.00385L1.83377 9.03489L1.81769 9.07317L2.04818 9.16999ZM1.80886 9.73972L1.57836 9.64289L1.57732 9.64544L1.80886 9.73972ZM1.57317 10.3186L1.3416 10.2243L1.34039 10.2274L1.57317 10.3186ZM1.36602 10.8474L1.13324 10.7562L1.13255 10.758L1.36602 10.8474ZM1.27316 11.093L1.03892 11.0056L1.03811 11.0078L1.27316 11.093ZM1.10889 11.5464L0.873823 11.4612L0.872937 11.4638L1.10889 11.5464ZM0.916144 12.1319L0.676884 12.0593L0.675574 12.0639L0.916144 12.1319ZM0.833242 12.4251L0.592532 12.3571L0.590487 12.3654L0.833242 12.4251ZM0.755499 12.741L0.512744 12.6812L0.283885 13.611L0.938062 12.9118L0.755499 12.741ZM0.812653 12.6799L0.99526 12.8507L0.998872 12.8467L0.812653 12.6799ZM0.977533 12.4827L1.17379 12.6376L1.17585 12.635L0.977533 12.4827ZM1.07648 12.3538L1.27491 12.5061L1.27989 12.4992L1.07648 12.3538ZM1.2906 12.0542L1.49405 12.1996L1.49669 12.1957L1.2906 12.0542ZM1.52624 11.6989L1.73653 11.8341L1.73818 11.8315L1.52624 11.6989ZM1.78325 11.2881L1.99524 11.4207L1.99792 11.4162L1.78325 11.2881ZM2.06152 10.8218L2.27622 10.95L2.27833 10.9463L2.06152 10.8218ZM2.36091 10.3004L2.57773 10.4249L2.57904 10.4225L2.36091 10.3004ZM2.51849 10.019L2.30929 9.88212L2.30458 9.88933L2.30037 9.89685L2.51849 10.019ZM2.56027 9.95515L2.36382 9.80052L2.35706 9.80912L2.35106 9.81827L2.56027 9.95515ZM3.14491 10.4342L2.92633 10.3129L2.92542 10.3145L3.14491 10.4342ZM2.81759 11.0345L2.59808 10.9148L2.59631 10.9181L2.81759 11.0345ZM2.52307 11.5947L2.30178 11.4783L2.3008 11.4802L2.52307 11.5947ZM2.38818 11.8596L2.16485 11.7472L2.16374 11.7495L2.38818 11.8596ZM2.14314 12.359L1.91869 12.2488L1.9175 12.2513L2.14314 12.359ZM1.54586 13.7851L1.30887 13.7055L1.54586 13.7851ZM1.3619 14.6215L1.11175 14.6203L1.11201 14.6291L1.3619 14.6215ZM1.36425 14.699L1.11436 14.7066L1.13037 15.2336L1.52829 14.8877L1.36425 14.699ZM1.49349 14.5866L1.65771 14.7755L1.66629 14.7673L1.49349 14.5866ZM2.02026 13.9295L2.22646 14.0709L2.22787 14.0688L2.02026 13.9295ZM2.13037 13.7654L2.33799 13.9046L2.33929 13.9027L2.13037 13.7654ZM2.48785 13.1908L2.70281 13.3185L2.7043 13.3159L2.48785 13.1908ZM2.74872 12.7394L2.96521 12.8646L2.96767 12.8601L2.74872 12.7394ZM3.02751 12.2335L3.2465 12.3542L3.24838 12.3507L3.02751 12.2335ZM3.31152 11.698L3.53248 11.8152L3.53572 11.8086L3.31152 11.698ZM3.58827 11.137L3.36488 11.0248L3.36406 11.0264L3.58827 11.137ZM3.97519 10.3807L4.197 10.496H4.197L3.97519 10.3807ZM4.61763 10.7665L4.84194 10.8769L4.84215 10.8764L4.61763 10.7665ZM4.47068 11.0651L4.69431 11.1768L4.69499 11.1755L4.47068 11.0651ZM4.18703 11.6326L4.40948 11.7467L4.41065 11.7444L4.18703 11.6326ZM3.97345 12.049L3.75091 11.9348L3.74784 11.9413L3.97345 12.049ZM3.79901 12.4144L3.57338 12.3067L3.57203 12.3096L3.79901 12.4144ZM3.57629 12.8969L3.34926 12.7921L3.34722 12.7968L3.57629 12.8969ZM3.28654 13.5599L3.0574 13.4598L3.05517 13.4652L3.28654 13.5599ZM3.12238 13.961L2.89095 13.8663L2.88901 13.8713L3.12238 13.961ZM2.98096 14.329L2.74752 14.2393L2.74541 14.2453L2.98096 14.329ZM2.86193 14.6638L2.62627 14.58L2.62398 14.5871L2.86193 14.6638ZM2.76489 14.9649L2.52691 14.8882L2.52564 14.8924L2.76489 14.9649ZM2.68948 15.2322L2.44737 15.1695L2.44596 15.1756L2.68948 15.2322ZM2.6353 15.4653L2.39169 15.4087L2.39026 15.4157L2.6353 15.4653ZM2.70006 16.1255L2.61796 16.3616L2.63646 16.368L2.65574 16.3715L2.70006 16.1255ZM2.73445 16.1317L2.69013 16.3777L2.70836 16.381L2.72688 16.3815L2.73445 16.1317ZM3.46926 15.3509L3.68035 15.485L3.6827 15.4811L3.46926 15.3509ZM3.64185 15.0679L3.85533 15.198L3.85736 15.1946L3.64185 15.0679ZM3.73304 14.9101L3.95037 15.0337L3.95195 15.0309L3.73304 14.9101ZM3.92486 14.5624L4.14383 14.6831L4.14647 14.6781L3.92486 14.5624ZM4.12886 14.1717L4.35051 14.2874L4.35269 14.283L4.12886 14.1717ZM4.34452 13.7382L4.56837 13.8496L4.57 13.8462L4.34452 13.7382ZM4.51894 13.374L4.74442 13.482L4.74869 13.4731L4.75224 13.4638L4.51894 13.374ZM4.65511 13.0204L4.4226 12.9285L4.42181 12.9305L4.65511 13.0204ZM5.24797 11.6094L5.01991 11.507L5.0192 11.5086L5.24797 11.6094ZM5.60423 10.8163L5.37713 10.7117L5.37618 10.7138L5.60423 10.8163ZM5.7971 10.3974L5.57031 10.2922L5.57002 10.2928L5.7971 10.3974ZM6.46078 10.7371L6.69267 10.8305L6.69309 10.8295L6.46078 10.7371ZM6.16 11.4837L6.39086 11.5797L6.3919 11.5772L6.16 11.4837ZM5.835 12.2655L6.0652 12.363L6.06584 12.3614L5.835 12.2655ZM5.22495 13.6447L4.99827 13.5392L4.99824 13.5393L5.22495 13.6447ZM5.19645 13.706L4.96974 13.6006L4.96527 13.6102L4.96163 13.6202L5.19645 13.706ZM4.99672 14.2527L4.76183 14.1669L4.75997 14.1724L4.99672 14.2527ZM4.86423 14.6432L4.62741 14.5629L4.62559 14.5687L4.86423 14.6432ZM4.75587 14.9903L4.5172 14.9158L4.51619 14.9193L4.75587 14.9903ZM4.71061 15.1474L4.46978 15.0802L4.46865 15.0845L4.71061 15.1474ZM4.63769 15.428L4.39568 15.3651L4.39446 15.3703L4.63769 15.428ZM4.61194 16.1362L4.7136 15.9078H4.7136L4.61194 16.1362ZM5.23128 15.6218L5.43255 15.7701L5.43565 15.7657L5.23128 15.6218ZM5.38294 15.4065L5.58734 15.5505L5.58998 15.5466L5.38294 15.4065ZM5.54734 15.1546L5.75873 15.2881L5.7605 15.2852L5.54734 15.1546ZM5.72408 14.8662L5.9373 14.9968L5.94025 14.9918L5.72408 14.8662ZM5.91274 14.5414L6.12893 14.667L6.13021 14.6647L5.91274 14.5414ZM6.01142 14.3654L6.23007 14.4866L6.23114 14.4846L6.01142 14.3654ZM6.21721 13.9862L6.43696 14.1055L6.43884 14.1019L6.21721 13.9862ZM6.4339 13.5711L6.65556 13.6867L6.65719 13.6835L6.4339 13.5711ZM6.66109 13.1199L6.88439 13.2324L6.88582 13.2295L6.66109 13.1199ZM6.89836 12.633L7.12311 12.7426L7.12439 12.7399L6.89836 12.633ZM7.14531 12.1105L7.37135 12.2173L7.37251 12.2148L7.14531 12.1105ZM7.40152 11.5524L7.62873 11.6567L7.62979 11.6544L7.40152 11.5524ZM7.66659 10.9589L7.89486 11.0609L7.89583 11.0587L7.66659 10.9589ZM7.9401 10.3302L7.71979 10.212L7.71494 10.2211L7.71086 10.2305L7.9401 10.3302ZM7.97798 10.2596L7.76945 10.1217L7.76311 10.1313L7.75767 10.1414L7.97798 10.2596ZM8.6389 10.4999H8.3889V10.4999L8.6389 10.4999ZM8.63901 13.337L8.38901 13.337L8.38901 13.3739L8.39965 13.4091L8.63901 13.337ZM8.67447 13.4547L8.43499 13.5268L8.43744 13.5341L8.67447 13.4547ZM9.35182 14.3548L9.28182 14.5948L9.29156 14.5976L9.3015 14.5997L9.35182 14.3548ZM9.42104 14.369L9.37071 14.6139L9.57264 14.6554L9.65185 14.4651L9.42104 14.369ZM9.46442 14.2648L9.69549 14.3609L9.69949 14.3499L9.46442 14.2648ZM9.55464 13.9558L9.79751 14.0151L9.55464 13.9558ZM9.76449 12.7187L10.0125 12.7499L10.0129 12.7473L9.76449 12.7187ZM9.82837 12.1627L10.0768 12.1913L10.0771 12.1878L9.82837 12.1627ZM9.85908 11.8581L10.1078 11.8831L10.1081 11.8805L9.85908 11.8581ZM9.90811 11.3144L10.1571 11.3368L10.1573 11.334L9.90811 11.3144ZM9.95475 10.7229L10.204 10.7426L10.2042 10.7402L9.95475 10.7229ZM9.99901 10.0837L10.2484 10.101L10.2485 10.099L9.99901 10.0837ZM10.0409 9.39688L10.2904 9.41209L10.2905 9.4103L10.0409 9.39688ZM10.0803 8.66235L10.33 8.67576L10.3301 8.67418L10.0803 8.66235ZM10.1174 7.88015L10.3671 7.89198L10.3672 7.89026L10.1174 7.88015ZM10.1685 6.61753L10.4183 6.62764L10.4184 6.62586L10.1685 6.61753ZM10.2142 5.24777L10.4641 5.2561L10.4641 5.25435L10.2142 5.24777ZM10.2667 3.25486L10.5166 3.26144L10.5166 3.26057L10.2667 3.25486ZM10.9999 3.27477L11.2498 3.28089L11.2498 3.28048L10.9999 3.27477ZM10.9688 4.5447L11.2187 4.55197L11.2187 4.55082L10.9688 4.5447ZM10.9231 6.11584L11.1729 6.12479L11.173 6.12311L10.9231 6.11584ZM10.8717 7.55018L11.1215 7.56132L11.1215 7.55913L10.8717 7.55018ZM10.8137 8.85069L11.0633 8.86428L11.0635 8.86183L10.8137 8.85069ZM10.7653 9.74004L11.0148 9.75624L11.0149 9.75363L10.7653 9.74004ZM10.7122 10.557L10.9615 10.5765L10.9617 10.5732L10.7122 10.557ZM10.6541 11.303L10.9031 11.3256L10.9034 11.3224L10.6541 11.303ZM10.6124 11.7614L10.861 11.7879L10.8614 11.784L10.6124 11.7614ZM10.545 12.3916L10.7931 12.4229L10.7936 12.4182L10.545 12.3916ZM10.4968 12.774L10.7442 12.8099L10.7448 12.8053L10.4968 12.774ZM10.4457 13.1267L10.6923 13.1679L10.6931 13.1626L10.4457 13.1267ZM10.3916 13.4501L10.6371 13.4977L10.6382 13.4913L10.3916 13.4501ZM10.3345 13.7444L10.5784 13.7997L10.5799 13.792L10.3345 13.7444ZM10.2742 14.0101L10.517 14.0699L10.518 14.0654L10.2742 14.0101ZM7.92265 13.5277L7.67513 13.5628L7.67763 13.5804L7.6826 13.5975L7.92265 13.5277ZM7.90546 13.4067L7.65546 13.4066L7.65546 13.4243L7.65795 13.4418L7.90546 13.4067ZM7.90558 12.252L8.15558 12.252L7.67867 12.147L7.90558 12.252ZM7.65553 12.7926L7.88114 12.9003L7.88243 12.8975L7.65553 12.7926ZM7.3861 13.3567L7.61003 13.4679L7.61169 13.4644L7.3861 13.3567ZM7.12662 13.8791L7.34955 13.9923L7.35052 13.9903L7.12662 13.8791ZM7.00049 14.1247L7.22111 14.2423L7.22232 14.24L7.00049 14.1247ZM6.75525 14.5847L6.97452 14.7048L6.97586 14.7023L6.75525 14.5847ZM4.33484 16.8769L4.22152 17.1001L4.23318 17.1053L4.33484 16.8769ZM4.2633 16.8406L4.13837 17.0576L4.15013 17.0635L4.2633 16.8406ZM3.8751 16.1239L3.62512 16.1354L3.62612 16.1464L3.8751 16.1239ZM3.8726 16.07L4.12233 16.0584L4.09051 15.3718L3.67379 15.9184L3.8726 16.07ZM3.79743 16.1686L3.99415 16.3229L3.99624 16.3202L3.79743 16.1686ZM21.6048 17.1238C21.9351 17.009 22.1661 16.7823 22.283 16.4549C22.3947 16.1421 22.3965 15.7547 22.322 15.3117L21.8289 15.3946C21.8971 15.8001 21.8825 16.0896 21.8121 16.2868C21.7469 16.4693 21.6302 16.5856 21.4406 16.6515L21.6048 17.1238ZM20.0059 16.3229C20.2596 16.6463 20.5142 16.8905 20.7755 17.0331C21.0448 17.18 21.3262 17.2207 21.6048 17.1238L21.4406 16.6515C21.3183 16.6941 21.1836 16.6861 21.015 16.5941C20.8384 16.4978 20.6334 16.3127 20.3993 16.0143L20.0059 16.3229ZM19.9286 16.2216L20.0038 16.3202L20.4014 16.017L20.3262 15.9184L19.9286 16.2216ZM20.3746 16.1354L20.3771 16.0816L19.8777 16.0584L19.8752 16.1123L20.3746 16.1354ZM19.8615 17.0573C20.1825 16.8724 20.3375 16.547 20.3739 16.1464L19.8759 16.1013C19.849 16.3981 19.7478 16.5457 19.6119 16.624L19.8615 17.0573ZM19.7783 17.0998L19.8499 17.0635L19.6235 16.6177L19.552 16.654L19.7783 17.0998ZM17.0255 14.7048C17.5296 15.625 17.9871 16.2985 18.4145 16.7065C18.8404 17.1132 19.3023 17.3121 19.7668 17.1053L19.5635 16.6485C19.3777 16.7312 19.1308 16.6991 18.7598 16.3449C18.3902 15.9921 17.9626 15.3747 17.464 14.4646L17.0255 14.7048ZM16.7789 14.2423L17.0241 14.7023L17.4654 14.4671L17.2201 14.0071L16.7789 14.2423ZM16.6505 13.9923C16.6932 14.0765 16.7356 14.1591 16.7777 14.24L17.2213 14.0094C17.1801 13.93 17.1384 13.8488 17.0963 13.7659L16.6505 13.9923ZM16.39 13.4679L16.6495 13.9903L17.0973 13.7679L16.8378 13.2455L16.39 13.4679ZM16.1189 12.9003L16.3883 13.4644L16.8395 13.249L16.5701 12.6848L16.1189 12.9003ZM15.8675 12.3569L16.1176 12.8975L16.5714 12.6876L16.3213 12.147L15.8675 12.3569ZM16.3445 13.4066L16.3444 12.252L15.8444 12.252L15.8445 13.4067L16.3445 13.4066ZM16.3249 13.5628L16.3421 13.4418L15.847 13.3715L15.8298 13.4925L16.3249 13.5628ZM14.4791 15.4284C15.4054 15.4284 15.9983 14.6941 16.3174 13.5975L15.8373 13.4578C15.5377 14.4875 15.0608 14.9284 14.4791 14.9284V15.4284ZM13.483 14.0699C13.5833 14.4776 13.7018 14.8016 13.8493 15.029C13.9985 15.259 14.2051 15.4284 14.4791 15.4284V14.9284C14.4414 14.9284 14.3693 14.9119 14.2688 14.7569C14.1666 14.5994 14.0642 14.3393 13.9685 13.9504L13.483 14.0699ZM13.4217 13.7997L13.482 14.0654L13.9696 13.9548L13.9093 13.6891L13.4217 13.7997ZM13.363 13.4977L13.4201 13.792L13.9109 13.6968L13.8538 13.4025L13.363 13.4977ZM13.3078 13.1679L13.3618 13.4913L13.855 13.4088L13.8009 13.0855L13.3078 13.1679ZM13.2558 12.8099L13.3069 13.1626L13.8018 13.0909L13.7507 12.7382L13.2558 12.8099ZM13.2069 12.4229L13.2552 12.8053L13.7513 12.7427L13.703 12.3603L13.2069 12.4229ZM13.139 11.7879L13.2064 12.4182L13.7036 12.365L13.6362 11.7348L13.139 11.7879ZM13.0969 11.3256L13.1386 11.784L13.6366 11.7387L13.5948 11.2803L13.0969 11.3256ZM13.0385 10.5765L13.0966 11.3224L13.5951 11.2835L13.537 10.5376L13.0385 10.5765ZM12.9852 9.75624L13.0383 10.5732L13.5372 10.5408L13.4842 9.72384L12.9852 9.75624ZM12.9367 8.86428L12.9851 9.75363L13.4843 9.72645L13.4359 8.8371L12.9367 8.86428ZM12.8785 7.56132L12.9365 8.86183L13.436 8.83955L13.378 7.53904L12.8785 7.56132ZM12.8271 6.12479L12.8785 7.55913L13.3781 7.54123L13.3267 6.10689L12.8271 6.12479ZM12.7813 4.55197L12.827 6.12311L13.3268 6.10857L13.2811 4.53743L12.7813 4.55197ZM12.7502 3.28089L12.7813 4.55082L13.2811 4.53858L13.25 3.26865L12.7502 3.28089ZM13.3508 2.61503C12.9909 2.62481 12.7425 2.94274 12.7502 3.28048L13.2501 3.26907C13.2477 3.16512 13.3193 3.11607 13.3644 3.11485L13.3508 2.61503ZM13.9833 3.24916C13.9755 2.91084 13.7118 2.60523 13.3508 2.61503L13.3644 3.11485C13.4083 3.11366 13.481 3.15719 13.4834 3.26057L13.9833 3.24916ZM14.0357 5.24118L13.9832 3.24828L13.4834 3.26144L13.5359 5.25435L14.0357 5.24118ZM14.0814 6.60919L14.0357 5.23943L13.5359 5.2561L13.5816 6.62586L14.0814 6.60919ZM14.1324 7.87004L14.0813 6.60742L13.5817 6.62764L13.6328 7.89026L14.1324 7.87004ZM14.1694 8.65051L14.1323 7.86831L13.6329 7.89198L13.6699 8.67418L14.1694 8.65051ZM14.2088 9.38347L14.1693 8.64893L13.67 8.67576L13.7095 9.4103L14.2088 9.38347ZM14.2505 10.0685L14.2087 9.38168L13.7096 9.41209L13.7515 10.099L14.2505 10.0685ZM14.2946 10.7056L14.2504 10.0665L13.7516 10.101L13.7958 10.7402L14.2946 10.7056ZM14.3411 11.2947L14.2945 10.7032L13.796 10.7426L13.8427 11.334L14.3411 11.2947ZM14.3899 11.8356L14.3409 11.2919L13.8429 11.3368L13.8919 11.8805L14.3899 11.8356ZM14.4204 12.1377L14.3897 11.833L13.8922 11.8831L13.9229 12.1878L14.4204 12.1377ZM14.4839 12.6902L14.42 12.1342L13.9233 12.1913L13.9871 12.7473L14.4839 12.6902ZM14.6882 13.8965C14.6173 13.606 14.5485 13.2036 14.4836 12.6875L13.9875 12.7499C14.0535 13.2744 14.1251 13.698 14.2025 14.0151L14.6882 13.8965ZM14.7706 14.1796C14.7454 14.1098 14.7173 14.0155 14.6882 13.8965L14.2025 14.0151C14.2343 14.1456 14.2673 14.2582 14.3005 14.3499L14.7706 14.1796ZM14.8098 14.2729L14.7664 14.1687L14.3048 14.3608L14.3482 14.4651L14.8098 14.2729ZM14.5978 14.1099L14.5286 14.1241L14.6293 14.6139L14.6985 14.5997L14.5978 14.1099ZM15.0885 13.3752C14.9132 13.8979 14.7247 14.072 14.5782 14.1148L14.7182 14.5948C15.1162 14.4787 15.3773 14.0867 15.5626 13.5341L15.0885 13.3752ZM15.1216 13.2649L15.0862 13.3825L15.5649 13.5268L15.6004 13.4091L15.1216 13.2649ZM15.1111 10.4999L15.111 13.337L15.611 13.337L15.6111 10.4999L15.1111 10.4999ZM16.2306 10.1217C16.0642 9.87013 15.7765 9.80083 15.5377 9.88142C15.2964 9.96285 15.1111 10.1921 15.1111 10.4999H15.6111C15.6111 10.4086 15.6577 10.3686 15.6976 10.3552C15.74 10.3409 15.7827 10.351 15.8135 10.3975L16.2306 10.1217ZM16.2802 10.212L16.2423 10.1414L15.8017 10.3778L15.8396 10.4484L16.2802 10.212ZM16.5627 10.8592L16.2891 10.2305L15.8307 10.4299L16.1042 11.0587L16.5627 10.8592ZM16.8267 11.4505L16.5617 10.857L16.1051 11.0609L16.3702 11.6544L16.8267 11.4505ZM17.0819 12.0062L16.8257 11.4481L16.3713 11.6567L16.6275 12.2148L17.0819 12.0062ZM17.3277 12.5262L17.0807 12.0037L16.6287 12.2173L16.8756 12.7399L17.3277 12.5262ZM17.5636 13.0104L17.3264 12.5235L16.8769 12.7426L17.1142 13.2295L17.5636 13.0104ZM17.7894 13.4586L17.5622 13.0075L17.1156 13.2324L17.3428 13.6835L17.7894 13.4586ZM18.0044 13.8706L17.7877 13.4554L17.3445 13.6867L17.5612 14.1019L18.0044 13.8706ZM18.2083 14.2461L18.0025 13.867L17.5631 14.1055L17.7689 14.4846L18.2083 14.2461ZM18.3047 14.4181C18.2727 14.3616 18.2402 14.3036 18.2072 14.2441L17.7699 14.4866C17.8037 14.5475 17.837 14.6068 17.8698 14.6647L18.3047 14.4181ZM18.4921 14.7406L18.3034 14.4158L17.8711 14.6669L18.0597 14.9918L18.4921 14.7406ZM18.6658 15.024L18.4891 14.7356L18.0628 14.9968L18.2395 15.2852L18.6658 15.024ZM18.8241 15.2664C18.773 15.1909 18.7197 15.1092 18.664 15.0211L18.2413 15.2881C18.2994 15.3801 18.3557 15.4663 18.41 15.5466L18.8241 15.2664ZM18.9731 15.4778L18.8214 15.2625L18.4127 15.5505L18.5643 15.7657L18.9731 15.4778ZM19.2864 15.9078C19.335 15.8862 19.3707 15.8994 19.3686 15.8986C19.3647 15.8972 19.3431 15.8873 19.3025 15.8537C19.222 15.787 19.1108 15.6644 18.9699 15.4734L18.5675 15.7701C18.717 15.9729 18.8566 16.1337 18.9837 16.2389C19.047 16.2912 19.1184 16.3394 19.1963 16.368C19.276 16.3973 19.3823 16.4124 19.4897 16.3646L19.2864 15.9078ZM19.1191 15.4858C19.1688 15.6951 19.1913 15.8441 19.1944 15.938C19.1961 15.9863 19.1919 16.005 19.1919 16.0048C19.1922 16.0038 19.1959 15.9901 19.2086 15.9715C19.2224 15.9514 19.2473 15.9252 19.2864 15.9078L19.4897 16.3646C19.611 16.3106 19.6567 16.2006 19.6742 16.1365C19.6931 16.0673 19.6965 15.9918 19.6942 15.9214C19.6894 15.7779 19.658 15.5911 19.6055 15.3703L19.1191 15.4858ZM19.0474 15.2103L19.1203 15.4909L19.6043 15.3652L19.5314 15.0845L19.0474 15.2103ZM19.0044 15.0614C19.0202 15.1144 19.0349 15.1655 19.0486 15.2146L19.5302 15.0802C19.5157 15.0283 19.5002 14.9747 19.4838 14.9193L19.0044 15.0614ZM18.8971 14.7177L19.0055 15.0648L19.4828 14.9158L19.3744 14.5687L18.8971 14.7177ZM18.7665 14.333L18.899 14.7235L19.3725 14.5629L19.24 14.1724L18.7665 14.333ZM18.5687 13.7918L18.7685 14.3385L19.2381 14.1669L19.0384 13.6202L18.5687 13.7918ZM18.5483 13.7501L18.5768 13.8114L19.0303 13.6006L19.0018 13.5393L18.5483 13.7501ZM17.9348 12.363C18.1478 12.8657 18.352 13.328 18.5484 13.7501L19.0017 13.5392C18.8083 13.1234 18.6064 12.6664 18.3952 12.1679L17.9348 12.363ZM17.6092 11.5797L17.9342 12.3614L18.3958 12.1695L18.0708 11.3878L17.6092 11.5797ZM17.3073 10.8305L17.6081 11.5772L18.0719 11.3903L17.7711 10.6437L17.3073 10.8305ZM18.4297 10.2922C18.3498 10.1201 18.2183 10.0001 18.0561 9.94994C17.8988 9.90128 17.7376 9.92596 17.606 9.99332C17.3391 10.1299 17.1606 10.4614 17.3069 10.8295L17.7715 10.6448C17.7471 10.5834 17.7534 10.5407 17.7648 10.5127C17.7776 10.4811 17.8028 10.4543 17.8338 10.4384C17.8649 10.4225 17.8916 10.4224 17.9083 10.4276C17.9203 10.4313 17.9488 10.4437 17.9761 10.5026L18.4297 10.2922ZM18.6229 10.7117L18.43 10.2928L17.9758 10.502L18.1687 10.9208L18.6229 10.7117ZM18.9801 11.507L18.6238 10.7138L18.1677 10.9187L18.524 11.7118L18.9801 11.507ZM19.5774 12.9285C19.4052 12.4928 19.2061 12.0199 18.9808 11.5086L18.5233 11.7102C18.7466 12.2171 18.9431 12.6839 19.1124 13.1122L19.5774 12.9285ZM19.7144 13.2842L19.5782 12.9305L19.1116 13.1102L19.2478 13.4638L19.7144 13.2842ZM19.881 13.6303L19.7065 13.266L19.2556 13.482L19.43 13.8462L19.881 13.6303ZM20.095 14.0603L19.8793 13.6269L19.4317 13.8496L19.6473 14.283L20.095 14.0603ZM20.2967 14.4466L20.0927 14.0559L19.6495 14.2874L19.8535 14.6781L20.2967 14.4466ZM20.4859 14.7894L20.294 14.4416L19.8562 14.6831L20.048 15.0309L20.4859 14.7894ZM20.5737 14.9412C20.5444 14.8915 20.5146 14.8399 20.4843 14.7865L20.0497 15.0337C20.0811 15.0891 20.1121 15.1427 20.1426 15.1946L20.5737 14.9412ZM20.7442 15.2208L20.5716 14.9377L20.1447 15.198L20.3173 15.4811L20.7442 15.2208ZM21.258 15.8818C21.2917 15.8808 21.2983 15.8939 21.2684 15.8747C21.2416 15.8575 21.2013 15.8244 21.1474 15.7674C21.04 15.6537 20.9041 15.4726 20.7418 15.217L20.3197 15.4849C20.4893 15.7521 20.6449 15.9636 20.784 16.1108C20.8534 16.1842 20.925 16.2485 20.9984 16.2955C21.0686 16.3406 21.1636 16.3849 21.2731 16.3815L21.258 15.8818ZM21.2556 15.8794L21.2212 15.8856L21.3099 16.3777L21.3443 16.3715L21.2556 15.8794ZM21.1197 15.5149C21.1579 15.704 21.166 15.8297 21.1585 15.9029C21.1495 15.9918 21.1313 15.9194 21.2178 15.8893L21.382 16.3616C21.5883 16.2899 21.6426 16.0853 21.656 15.9536C21.671 15.8061 21.6516 15.6226 21.6097 15.4157L21.1197 15.5149ZM21.067 15.2887L21.1212 15.5219L21.6082 15.4087L21.554 15.1756L21.067 15.2887ZM20.9959 15.0374C21.0237 15.1293 21.0479 15.2151 21.0685 15.2948L21.5526 15.1696C21.53 15.0824 21.504 14.99 21.4744 14.8924L20.9959 15.0374ZM20.9001 14.7404L20.9972 15.0416L21.4731 14.8882L21.376 14.5871L20.9001 14.7404ZM20.7835 14.4128L20.9025 14.7475L21.3736 14.58L21.2546 14.2453L20.7835 14.4128ZM20.6443 14.0507L20.7857 14.4187L21.2524 14.2394L21.111 13.8713L20.6443 14.0507ZM20.4821 13.6546L20.6463 14.0557L21.109 13.8663L20.9448 13.4652L20.4821 13.6546ZM20.1946 12.997L20.4844 13.66L20.9425 13.4598L20.6528 12.7968L20.1946 12.997ZM19.974 12.5192L20.1967 13.0017L20.6507 12.7921L20.428 12.3096L19.974 12.5192ZM19.8009 12.1567L19.9754 12.5221L20.4266 12.3067L20.2522 11.9413L19.8009 12.1567ZM19.5905 11.7467L19.8041 12.1631L20.249 11.9349L20.0354 11.5185L19.5905 11.7467ZM19.3057 11.1768L19.5893 11.7444L20.0366 11.5208L19.7529 10.9533L19.3057 11.1768ZM19.1581 10.8769L19.305 11.1755L19.7536 10.9547L19.6067 10.6561L19.1581 10.8769ZM20.2466 10.2654C20.1578 10.0945 20.0183 9.97994 19.8508 9.93938C19.6889 9.90015 19.5278 9.93663 19.4002 10.0132C19.1422 10.1682 18.9808 10.5149 19.1579 10.8764L19.6069 10.6565C19.5777 10.597 19.5809 10.5537 19.5907 10.5242C19.6017 10.4907 19.6262 10.4608 19.6577 10.4419C19.6894 10.4229 19.7167 10.4214 19.7331 10.4253C19.744 10.428 19.7727 10.4378 19.803 10.496L20.2466 10.2654ZM20.6351 11.0248C20.5119 10.7796 20.3824 10.5264 20.2466 10.2654L19.803 10.496C19.9378 10.7552 20.0662 11.0063 20.1884 11.2493L20.6351 11.0248ZM20.9127 11.5874L20.6359 11.0264L20.1875 11.2476L20.4643 11.8086L20.9127 11.5874ZM21.1933 12.1164L20.9093 11.5809L20.4676 11.8151L20.7516 12.3507L21.1933 12.1164ZM21.4702 12.6188L21.1914 12.1129L20.7535 12.3542L21.0323 12.8601L21.4702 12.6188ZM21.7286 13.0657L21.4677 12.6143L21.0348 12.8645L21.2957 13.3159L21.7286 13.0657ZM22.0786 13.628C21.9686 13.4608 21.8515 13.2725 21.7271 13.0631L21.2972 13.3185C21.4247 13.5331 21.5459 13.7279 21.6607 13.9027L22.0786 13.628ZM22.1874 13.7902L22.0772 13.6261L21.662 13.9046L21.7721 14.0688L22.1874 13.7902ZM22.6793 14.4059C22.5538 14.2859 22.3876 14.0823 22.1859 13.7881L21.7735 14.0709C21.9828 14.3761 22.1716 14.6122 22.3337 14.7673L22.6793 14.4059ZM22.7998 14.5103L22.6705 14.398L22.3425 14.7753L22.4717 14.8877L22.7998 14.5103ZM22.3882 14.6139L22.3859 14.6914L22.8856 14.7066L22.888 14.6291L22.3882 14.6139ZM22.2172 13.8647C22.338 14.2244 22.3874 14.4761 22.3881 14.6227L22.8881 14.6203C22.887 14.3918 22.8165 14.0786 22.6911 13.7055L22.2172 13.8647ZM21.6312 12.4666C21.8954 13.0204 22.09 13.4862 22.2172 13.8647L22.6911 13.7055C22.5553 13.301 22.3516 12.8154 22.0825 12.2513L21.6312 12.4666ZM21.3874 11.9697L21.6324 12.4691L22.0813 12.2488L21.8363 11.7495L21.3874 11.9697ZM21.2547 11.7091C21.3007 11.7984 21.3453 11.8861 21.3885 11.972L21.8351 11.7472C21.7912 11.6599 21.7459 11.5709 21.6992 11.4802L21.2547 11.7091ZM20.9611 11.1508L21.2556 11.711L21.6982 11.4783L21.4037 10.9181L20.9611 11.1508ZM20.6356 10.5539L20.9629 11.1542L21.4019 10.9148L21.0746 10.3145L20.6356 10.5539ZM21.6362 9.80052C21.525 9.65922 21.3739 9.5825 21.214 9.57297C21.0599 9.56378 20.9146 9.61768 20.8023 9.70409C20.5736 9.88012 20.4498 10.2194 20.6365 10.5556L21.0737 10.3129C21.0429 10.2575 21.0428 10.2157 21.0498 10.1865C21.0577 10.1538 21.0781 10.1227 21.1072 10.1004C21.1369 10.0775 21.1657 10.071 21.1843 10.0721C21.1972 10.0729 21.2176 10.0772 21.2433 10.1098L21.6362 9.80052ZM21.6907 9.88212L21.6489 9.81827L21.2305 10.092L21.2723 10.1559L21.6907 9.88212ZM21.8572 10.1782L21.6996 9.89685L21.2634 10.1411L21.421 10.4225L21.8572 10.1782ZM22.1553 10.6974L21.8559 10.1759L21.4223 10.4249L21.7217 10.9463L22.1553 10.6974ZM22.4314 11.1599L22.1531 10.6937L21.7238 10.95L22.0021 11.4162L22.4314 11.1599ZM22.6857 11.5663L22.4287 11.1555L22.0048 11.4206L22.2618 11.8315L22.6857 11.5663ZM22.9155 11.9127C22.8421 11.8058 22.765 11.6895 22.684 11.5637L22.2635 11.8341C22.3468 11.9636 22.4267 12.0842 22.5033 12.1957L22.9155 11.9127ZM23.1269 12.2085L22.9128 11.9088L22.506 12.1995L22.7201 12.4992L23.1269 12.2085ZM23.2208 12.3305L23.1218 12.2016L22.7252 12.5061L22.8242 12.635L23.2208 12.3305ZM23.3736 12.5131C23.3267 12.4607 23.2749 12.399 23.2187 12.3278L22.8262 12.6376C22.8877 12.7156 22.9462 12.7854 23.0011 12.8467L23.3736 12.5131ZM23.4271 12.5702L23.3699 12.5091L23.0048 12.8507L23.0619 12.9118L23.4271 12.5702ZM22.924 12.4849L23.0017 12.8007L23.4873 12.6812L23.4095 12.3654L22.924 12.4849ZM22.8433 12.1999L22.9262 12.4932L23.4073 12.3571L23.3244 12.0639L22.8433 12.1999ZM22.6552 11.629C22.7292 11.8405 22.7924 12.0324 22.8446 12.2046L23.3231 12.0593C23.2683 11.8791 23.203 11.6805 23.1271 11.4638L22.6552 11.629ZM22.4918 11.1781L22.6561 11.6316L23.1262 11.4612L22.9619 11.0078L22.4918 11.1781ZM22.4005 10.9368C22.4324 11.0201 22.4631 11.1013 22.4926 11.1804L22.9611 11.0056C22.931 10.9251 22.8998 10.8426 22.8675 10.758L22.4005 10.9368ZM22.1941 10.4098L22.4012 10.9386L22.8668 10.7562L22.6596 10.2274L22.1941 10.4098ZM21.9596 9.83399L22.1953 10.4129L22.6584 10.2243L22.4227 9.64544L21.9596 9.83399ZM21.7213 9.26681L21.9606 9.83654L22.4216 9.6429L22.1823 9.07318L21.7213 9.26681ZM18.1783 5.30328L21.765 9.33614L22.1386 9.00385L18.5519 4.97099L18.1783 5.30328ZM18.0171 4.94503C18.0337 5.07602 18.0883 5.20215 18.1783 5.30326L18.5519 4.97101C18.5323 4.949 18.5177 4.91808 18.5131 4.88203L18.0171 4.94503ZM18.0127 4.83599L18.0152 4.92074L18.515 4.90633L18.5125 4.82158L18.0127 4.83599ZM18.1408 2.95302L18.0132 4.81167L18.512 4.84591L18.6396 2.98725L18.1408 2.95302ZM18.8036 2.35194C18.4426 2.32247 18.164 2.61472 18.1408 2.95302L18.6396 2.98725C18.6466 2.88496 18.7199 2.84677 18.7629 2.85028L18.8036 2.35194ZM19.368 2.91976C19.3345 2.63458 19.1159 2.37744 18.8036 2.35194L18.7629 2.85028C18.804 2.85364 18.8615 2.89403 18.8714 2.97795L19.368 2.91976ZM19.3715 3.02395L19.3696 2.94295L18.8697 2.95476L18.8716 3.03576L19.3715 3.02395ZM19.2546 4.72528L19.371 3.04714L18.8722 3.01256L18.7558 4.69071L19.2546 4.72528ZM22.7096 8.49773L19.1921 4.54187L18.8184 4.87412L22.3359 8.82997L22.7096 8.49773ZM22.8035 8.64045L22.7342 8.5305L22.3113 8.7972L22.3806 8.90715L22.8035 8.64045ZM23.1772 9.522L22.8226 8.67707L22.3616 8.87054L22.7161 9.71547L23.1772 9.522ZM23.4819 10.278L23.1785 9.52528L22.7148 9.71219L23.0181 10.4649L23.4819 10.278ZM23.6572 10.7345L23.4834 10.2818L23.0166 10.4611L23.1904 10.9137L23.6572 10.7345ZM23.8097 11.1533L23.6587 10.7386L23.1889 10.9096L23.3398 11.3243L23.8097 11.1533ZM23.8784 11.352C23.8567 11.2881 23.8341 11.2226 23.8105 11.1557L23.3389 11.3218C23.3619 11.387 23.3839 11.4506 23.4049 11.5126L23.8784 11.352ZM23.9962 11.7154L23.8795 11.3552L23.4038 11.5094L23.5205 11.8695L23.9962 11.7154ZM24.0008 13.7466C24.1996 13.5471 24.2607 13.261 24.2485 12.9396C24.2363 12.6159 24.1486 12.2111 23.9973 11.719L23.5194 11.8659C23.6664 12.3442 23.7391 12.6999 23.7489 12.9584C23.7587 13.2191 23.7033 13.3368 23.6465 13.3938L24.0008 13.7466ZM23.2057 13.9587C23.3411 14.0029 23.4835 14.013 23.6267 13.9745C23.7682 13.9364 23.8923 13.8555 24.0008 13.7466L23.6465 13.3938C23.5851 13.4555 23.5349 13.4814 23.4967 13.4917C23.46 13.5015 23.4172 13.5018 23.3607 13.4834L23.2057 13.9587ZM23.1102 13.9203L23.1883 13.9523L23.3781 13.4897L23.3 13.4577L23.1102 13.9203ZM23.4657 13.6863L23.4441 13.6158L22.966 13.7622L22.9877 13.8328L23.4657 13.6863ZM23.1985 15.6063C23.4508 15.4211 23.5822 15.1486 23.6163 14.8213C23.6496 14.5026 23.5923 14.1231 23.4668 13.69L22.9866 13.8291C23.1041 14.2347 23.1427 14.5428 23.119 14.7695C23.0963 14.9876 23.0182 15.1183 22.9027 15.2032L23.1985 15.6063ZM23.1147 15.6615L23.1873 15.614L22.9138 15.1954L22.8411 15.2429L23.1147 15.6615ZM21.9302 15.4384C22.1147 15.598 22.3066 15.714 22.5075 15.76C22.717 15.8078 22.9191 15.7755 23.1035 15.6684L22.8523 15.236C22.7754 15.2807 22.7027 15.2917 22.619 15.2725C22.5269 15.2515 22.4074 15.1901 22.2574 15.0603L21.9302 15.4384ZM21.8804 15.3935L21.9262 15.4348L22.2615 15.0639L22.2157 15.0225L21.8804 15.3935ZM22.3211 15.3069L22.2938 15.1617L21.8024 15.2543L21.8298 15.3995L22.3211 15.3069ZM15.0698 17.8575C15.2 17.8115 15.3428 17.8798 15.3887 18.0101L15.8602 17.8437C15.7224 17.4531 15.2941 17.2481 14.9035 17.3859L15.0698 17.8575ZM9.24462 17.8606C9.9721 18.1474 11.0836 18.2654 12.1656 18.2564C13.2499 18.2474 14.3528 18.1104 15.0698 17.8575L14.9035 17.3859C14.2614 17.6124 13.2214 17.7476 12.1614 17.7564C11.0992 17.7652 10.0651 17.6466 9.428 17.3955L9.24462 17.8606ZM8.92036 18.0015C8.97099 17.8731 9.11617 17.81 9.24462 17.8606L9.428 17.3955C9.04265 17.2436 8.60711 17.4328 8.4552 17.8182L8.92036 18.0015ZM9.06125 18.3258C8.9328 18.2752 8.86972 18.13 8.92036 18.0015L8.4552 17.8182C8.30328 18.2035 8.49252 18.639 8.87787 18.791L9.06125 18.3258ZM15.2361 18.329C14.4854 18.5938 13.3296 18.7489 12.1536 18.7568C10.9758 18.7647 9.81921 18.6246 9.06125 18.3258L8.87787 18.791C9.72313 19.1242 10.9542 19.2649 12.1569 19.2568C13.3614 19.2487 14.5788 19.091 15.4024 18.8005L15.2361 18.329ZM15.3887 18.0101C15.4346 18.1403 15.3663 18.2831 15.2361 18.329L15.4024 18.8005C15.793 18.6627 15.998 18.2344 15.8602 17.8437L15.3887 18.0101ZM16.089 20.8515C16.2225 20.8162 16.3593 20.8958 16.3946 21.0293L16.878 20.9014C16.7721 20.501 16.3616 20.2622 15.9611 20.3682L16.089 20.8515ZM8.22382 20.8535C9.20201 21.1427 10.6961 21.2653 12.1664 21.2565C13.6385 21.2477 15.1238 21.1069 16.089 20.8515L15.9611 20.3682C15.0547 20.6079 13.6174 20.7478 12.1634 20.7565C10.7077 20.7652 9.27241 20.6421 8.36558 20.374L8.22382 20.8535ZM7.91319 21.0223C7.95234 20.8899 8.09141 20.8143 8.22382 20.8535L8.36558 20.374C7.96837 20.2566 7.55116 20.4834 7.43371 20.8806L7.91319 21.0223ZM8.08205 21.333C7.94965 21.2938 7.87405 21.1547 7.91319 21.0223L7.43371 20.8806C7.31627 21.2778 7.54307 21.695 7.94029 21.8124L8.08205 21.333ZM16.2169 21.3349C15.226 21.597 13.7003 21.7486 12.1569 21.7567C10.6119 21.7648 9.0831 21.6289 8.08205 21.333L7.94029 21.8124C9.01126 22.1291 10.5975 22.2649 12.1595 22.2567C13.723 22.2485 15.296 22.0957 16.3447 21.8183L16.2169 21.3349ZM16.3946 21.0293C16.4299 21.1628 16.3504 21.2996 16.2169 21.3349L16.3447 21.8183C16.7452 21.7123 16.9839 21.3018 16.878 20.9014L16.3946 21.0293ZM1.678 15.3117C1.60351 15.7547 1.60533 16.1421 1.717 16.4549C1.8339 16.7823 2.0649 17.009 2.39522 17.1238L2.55942 16.6515C2.36979 16.5856 2.25306 16.4693 2.18789 16.2868C2.11749 16.0896 2.10289 15.8001 2.17108 15.3946L1.678 15.3117ZM1.70624 15.1617L1.67887 15.3069L2.17021 15.3995L2.19759 15.2543L1.70624 15.1617ZM2.07382 15.4348L2.11956 15.3935L1.78427 15.0225L1.73853 15.0639L2.07382 15.4348ZM0.896504 15.6684C1.08093 15.7755 1.28304 15.8078 1.49246 15.76C1.69343 15.714 1.88531 15.598 2.06978 15.4384L1.74257 15.0603C1.59263 15.1901 1.47312 15.2515 1.38099 15.2725C1.2973 15.2917 1.22458 15.2807 1.1477 15.236L0.896504 15.6684ZM0.812652 15.614L0.885337 15.6615L1.15887 15.2429L1.08618 15.1954L0.812652 15.614ZM0.53318 13.69C0.407695 14.1231 0.350435 14.5026 0.383653 14.8213C0.41776 15.1486 0.549238 15.4211 0.801503 15.6063L1.09733 15.2032C0.981757 15.1183 0.903693 14.9876 0.88096 14.7695C0.857339 14.5428 0.895942 14.2347 1.01343 13.8291L0.53318 13.69ZM0.555884 13.6158L0.534268 13.6863L1.01234 13.8328L1.03396 13.7622L0.555884 13.6158ZM0.811714 13.9523L0.889811 13.9203L0.700032 13.4577L0.621936 13.4897L0.811714 13.9523ZM-0.000793049 13.7466C0.107669 13.8555 0.231777 13.9364 0.373331 13.9745C0.516453 14.013 0.658934 14.0029 0.794328 13.9587L0.639322 13.4834C0.582765 13.5018 0.53997 13.5015 0.503319 13.4917C0.4651 13.4814 0.414937 13.4555 0.353463 13.3938L-0.000793049 13.7466ZM0.00268376 11.719C-0.148555 12.2111 -0.236278 12.6159 -0.24851 12.9396C-0.260662 13.261 -0.199586 13.5471 -0.000792823 13.7466L0.353463 13.3938C0.296655 13.3368 0.24128 13.2191 0.251133 12.9584C0.260905 12.6999 0.333642 12.3442 0.480624 11.8659L0.00268376 11.719ZM0.120517 11.3552L0.00382717 11.7154L0.479481 11.8695L0.596171 11.5094L0.120517 11.3552ZM0.189462 11.1557C0.165897 11.2226 0.143267 11.2881 0.121577 11.352L0.595111 11.5126C0.616127 11.4506 0.63811 11.387 0.66106 11.3218L0.189462 11.1557ZM0.341301 10.7386L0.190341 11.1533L0.660181 11.3243L0.811141 10.9096L0.341301 10.7386ZM0.516604 10.2819L0.342831 10.7345L0.809612 10.9137L0.983385 10.4611L0.516604 10.2819ZM0.821494 9.52528L0.518119 10.278L0.98187 10.4649L1.28524 9.71219L0.821494 9.52528ZM1.17739 8.67707L0.822842 9.522L1.2839 9.71547L1.63845 8.87054L1.17739 8.67707ZM1.26579 8.5305L1.19646 8.64045L1.61939 8.90715L1.68872 8.7972L1.26579 8.5305ZM4.80793 4.54187L1.29043 8.49773L1.66408 8.82997L5.18158 4.87412L4.80793 4.54187ZM4.62903 3.04714L4.74535 4.72528L5.24416 4.69071L5.12783 3.01256L4.62903 3.04714ZM4.63041 2.94296L4.6285 3.02395L5.12836 3.03575L5.13027 2.95476L4.63041 2.94296ZM5.1964 2.35194C4.8841 2.37744 4.66546 2.63458 4.63204 2.91976L5.12864 2.97795C5.13848 2.89403 5.19595 2.85364 5.23709 2.85028L5.1964 2.35194ZM5.85923 2.95302C5.83601 2.61472 5.55735 2.32247 5.1964 2.35194L5.23709 2.85028C5.28008 2.84677 5.35338 2.88496 5.3604 2.98725L5.85923 2.95302ZM5.98679 4.81167L5.85923 2.95302L5.3604 2.98725L5.48796 4.84591L5.98679 4.81167ZM5.98483 4.92073L5.98727 4.83599L5.48748 4.82158L5.48503 4.90633L5.98483 4.92073ZM5.82174 5.30326C5.91165 5.20215 5.9663 5.07603 5.98294 4.94503L5.48692 4.88203C5.48234 4.91808 5.46767 4.949 5.44809 4.97101L5.82174 5.30326ZM2.23499 9.33614L5.82173 5.30328L5.44811 4.97099L1.86137 9.00385L2.23499 9.33614ZM2.03935 9.83654L2.27867 9.26681L1.81769 9.07317L1.57837 9.6429L2.03935 9.83654ZM1.80471 10.4129L2.04041 9.83399L1.57732 9.64544L1.34162 10.2243L1.80471 10.4129ZM1.5988 10.9386L1.80594 10.4098L1.34039 10.2274L1.13324 10.7562L1.5988 10.9386ZM1.50738 11.1804C1.53688 11.1013 1.56759 11.0201 1.59949 10.9368L1.13255 10.758C1.10016 10.8426 1.06896 10.9251 1.03893 11.0056L1.50738 11.1804ZM1.34393 11.6316L1.50821 11.1781L1.03811 11.0078L0.873837 11.4612L1.34393 11.6316ZM1.15536 12.2046C1.20765 12.0324 1.27076 11.8405 1.34483 11.629L0.872937 11.4638C0.797045 11.6805 0.731651 11.8791 0.676928 12.0593L1.15536 12.2046ZM1.07381 12.4932L1.15671 12.1999L0.675574 12.0639L0.592672 12.3571L1.07381 12.4932ZM0.998253 12.8007L1.076 12.4849L0.590487 12.3654L0.512744 12.6812L0.998253 12.8007ZM0.63009 12.5091L0.572935 12.5702L0.938062 12.9118L0.995217 12.8507L0.63009 12.5091ZM0.781297 12.3278C0.725109 12.399 0.67334 12.4607 0.626435 12.5131L0.998872 12.8467C1.0538 12.7854 1.11226 12.7156 1.17377 12.6376L0.781297 12.3278ZM0.878172 12.2016L0.779221 12.3305L1.17585 12.635L1.2748 12.5061L0.878172 12.2016ZM1.0872 11.9088L0.873079 12.2085L1.27989 12.4992L1.49401 12.1995L1.0872 11.9088ZM1.31596 11.5637C1.23502 11.6895 1.15787 11.8058 1.08452 11.9127L1.49669 12.1957C1.57327 12.0842 1.65322 11.9636 1.73651 11.8341L1.31596 11.5637ZM1.57131 11.1555L1.31429 11.5663L1.73818 11.8315L1.99519 11.4206L1.57131 11.1555ZM1.84685 10.6937L1.56858 11.1599L1.99792 11.4162L2.27619 10.95L1.84685 10.6937ZM2.14411 10.1759L1.84471 10.6974L2.27833 10.9463L2.57772 10.4249L2.14411 10.1759ZM2.30037 9.89685L2.14279 10.1782L2.57904 10.4225L2.73662 10.1411L2.30037 9.89685ZM2.35106 9.81827L2.30929 9.88212L2.7277 10.1559L2.76947 10.092L2.35106 9.81827ZM3.36348 10.5556C3.55016 10.2194 3.42645 9.88012 3.19768 9.70409C3.08538 9.61768 2.94013 9.56378 2.78596 9.57297C2.62606 9.5825 2.47505 9.65922 2.36382 9.80052L2.75671 10.1098C2.78235 10.0772 2.80284 10.0729 2.81572 10.0721C2.83432 10.071 2.86312 10.0775 2.89276 10.1004C2.92186 10.1227 2.94234 10.1538 2.9502 10.1865C2.95721 10.2157 2.9571 10.2575 2.92634 10.3129L3.36348 10.5556ZM3.03708 11.1542L3.36439 10.5539L2.92542 10.3145L2.59811 10.9148L3.03708 11.1542ZM2.74435 11.711L3.03887 11.1508L2.59631 10.9181L2.30179 11.4783L2.74435 11.711ZM2.61149 11.972C2.65472 11.8861 2.69933 11.7984 2.74534 11.7091L2.3008 11.4802C2.25413 11.5709 2.20881 11.6599 2.16486 11.7472L2.61149 11.972ZM2.36758 12.4691L2.61261 11.9697L2.16374 11.7495L1.9187 12.2488L2.36758 12.4691ZM1.78284 13.8647C1.90998 13.4862 2.10462 13.0204 2.36878 12.4666L1.9175 12.2513C1.64844 12.8154 1.44474 13.301 1.30887 13.7055L1.78284 13.8647ZM1.61189 14.6227C1.6126 14.4761 1.66201 14.2244 1.78284 13.8647L1.30887 13.7055C1.18353 14.0786 1.113 14.3918 1.1119 14.6203L1.61189 14.6227ZM1.61413 14.6914L1.61178 14.6139L1.11201 14.6291L1.11436 14.7066L1.61413 14.6914ZM1.32945 14.398L1.20021 14.5103L1.52829 14.8877L1.65753 14.7753L1.32945 14.398ZM1.81406 13.7881C1.61238 14.0823 1.44625 14.2859 1.3207 14.4059L1.66629 14.7673C1.8284 14.6122 2.01719 14.3761 2.22645 14.0709L1.81406 13.7881ZM1.92275 13.6261L1.81264 13.7902L2.22787 14.0688L2.33798 13.9046L1.92275 13.6261ZM2.27291 13.0631C2.14853 13.2725 2.03137 13.4608 1.92144 13.628L2.33929 13.9027C2.45411 13.7279 2.5753 13.5331 2.7028 13.3185L2.27291 13.0631ZM2.53227 12.6143L2.2714 13.0657L2.7043 13.3159L2.96516 12.8645L2.53227 12.6143ZM2.80856 12.1129L2.52976 12.6188L2.96767 12.8601L3.24647 12.3542L2.80856 12.1129ZM3.09066 11.5809L2.80665 12.1164L3.24838 12.3507L3.53239 11.8151L3.09066 11.5809ZM3.36406 11.0264L3.08732 11.5874L3.53572 11.8086L3.81247 11.2476L3.36406 11.0264ZM3.75337 10.2654C3.61764 10.5264 3.48812 10.7796 3.36488 11.0248L3.81165 11.2493C3.93375 11.0063 4.06223 10.7552 4.197 10.496L3.75337 10.2654ZM4.84215 10.8764C5.01922 10.5149 4.85781 10.1682 4.59975 10.0132C4.47216 9.93663 4.31112 9.90015 4.14919 9.93938C3.9817 9.97994 3.84219 10.0945 3.75337 10.2654L4.197 10.496C4.22727 10.4378 4.25604 10.428 4.26689 10.4253C4.2833 10.4214 4.31065 10.4229 4.34234 10.4419C4.37381 10.4608 4.39829 10.4907 4.40935 10.5242C4.41909 10.5537 4.42228 10.597 4.39312 10.6565L4.84215 10.8764ZM4.69499 11.1755L4.84194 10.8769L4.39332 10.6561L4.24637 10.9547L4.69499 11.1755ZM4.41065 11.7444L4.69431 11.1768L4.24706 10.9533L3.9634 11.5208L4.41065 11.7444ZM4.19589 12.1631L4.40947 11.7467L3.96459 11.5185L3.751 11.9349L4.19589 12.1631ZM4.02462 12.5221L4.19906 12.1567L3.74784 11.9413L3.5734 12.3067L4.02462 12.5221ZM3.80328 13.0017L4.026 12.5192L3.57203 12.3096L3.34931 12.7921L3.80328 13.0017ZM3.51562 13.66L3.80537 12.997L3.34722 12.7968L3.05746 13.4598L3.51562 13.66ZM3.35374 14.0557L3.51791 13.6546L3.05517 13.4652L2.89101 13.8663L3.35374 14.0557ZM3.21433 14.4187L3.35574 14.0507L2.88901 13.8713L2.7476 14.2394L3.21433 14.4187ZM3.09748 14.7475L3.21651 14.4128L2.74541 14.2453L2.62638 14.58L3.09748 14.7475ZM3.00284 15.0416L3.09988 14.7404L2.62398 14.5871L2.52694 14.8882L3.00284 15.0416ZM2.93151 15.2948C2.95213 15.2151 2.97629 15.1293 3.00414 15.0374L2.52564 14.8924C2.49605 14.99 2.46998 15.0824 2.44744 15.1696L2.93151 15.2948ZM2.87881 15.5219L2.93299 15.2887L2.44596 15.1756L2.39179 15.4087L2.87881 15.5219ZM2.78215 15.8893C2.8687 15.9194 2.8505 15.9918 2.84145 15.9029C2.834 15.8297 2.84209 15.704 2.88034 15.5149L2.39026 15.4157C2.34842 15.6226 2.32902 15.8061 2.34402 15.9536C2.35744 16.0853 2.41166 16.2899 2.61796 16.3616L2.78215 15.8893ZM2.77876 15.8856L2.74437 15.8794L2.65574 16.3715L2.69013 16.3777L2.77876 15.8856ZM3.2582 15.217C3.09592 15.4726 2.96002 15.6537 2.85261 15.7674C2.79874 15.8244 2.7584 15.8575 2.7316 15.8747C2.7017 15.8939 2.70834 15.8808 2.74201 15.8818L2.72688 16.3815C2.83644 16.3849 2.93138 16.3406 3.00164 16.2955C3.07498 16.2485 3.14662 16.1842 3.216 16.1108C3.35507 15.9636 3.51068 15.7521 3.68031 15.4849L3.2582 15.217ZM3.4284 14.9377L3.25581 15.2208L3.6827 15.4811L3.8553 15.198L3.4284 14.9377ZM3.51573 14.7865C3.48536 14.8399 3.45557 14.8915 3.42635 14.9412L3.85736 15.1946C3.88786 15.1427 3.91886 15.0891 3.95035 15.0337L3.51573 14.7865ZM3.70595 14.4416L3.51413 14.7894L3.95195 15.0309L4.14377 14.6831L3.70595 14.4416ZM3.90725 14.0559L3.70325 14.4466L4.14647 14.6781L4.35047 14.2874L3.90725 14.0559ZM4.12069 13.6269L3.90504 14.0603L4.35269 14.283L4.56834 13.8496L4.12069 13.6269ZM4.29346 13.266L4.11904 13.6303L4.57 13.8462L4.74442 13.482L4.29346 13.266ZM4.42181 12.9305L4.28564 13.2842L4.75224 13.4638L4.88841 13.1102L4.42181 12.9305ZM5.0192 11.5086C4.7939 12.0199 4.59477 12.4928 4.42261 12.9285L4.88761 13.1122C5.05689 12.6839 5.25341 12.2171 5.47675 11.7102L5.0192 11.5086ZM5.37618 10.7138L5.01992 11.507L5.47602 11.7118L5.83228 10.9187L5.37618 10.7138ZM5.57002 10.2928L5.37714 10.7117L5.83131 10.9208L6.02419 10.502L5.57002 10.2928ZM6.69309 10.8295C6.8394 10.4614 6.66093 10.1299 6.39402 9.99332C6.26242 9.92596 6.10115 9.90128 5.94388 9.94994C5.78175 10.0001 5.65016 10.1201 5.57031 10.2922L6.02389 10.5026C6.05119 10.4437 6.07975 10.4313 6.09165 10.4276C6.10841 10.4224 6.13507 10.4225 6.1662 10.4384C6.19719 10.4543 6.22241 10.4811 6.23524 10.5127C6.24662 10.5407 6.25285 10.5834 6.22846 10.6448L6.69309 10.8295ZM6.3919 11.5772L6.69267 10.8305L6.22888 10.6437L5.92811 11.3903L6.3919 11.5772ZM6.06584 12.3614L6.39085 11.5797L5.92916 11.3878L5.60416 12.1695L6.06584 12.3614ZM5.45162 13.7501C5.64797 13.328 5.85222 12.8657 6.0652 12.363L5.60481 12.1679C5.39361 12.6664 5.19172 13.1234 4.99827 13.5392L5.45162 13.7501ZM5.42316 13.8114L5.45165 13.7501L4.99824 13.5393L4.96974 13.6006L5.42316 13.8114ZM5.23154 14.3385L5.43127 13.7918L4.96163 13.6202L4.7619 14.1669L5.23154 14.3385ZM5.10097 14.7235L5.23346 14.333L4.75997 14.1724L4.62748 14.5629L5.10097 14.7235ZM4.99451 15.0648L5.10287 14.7177L4.62559 14.5687L4.51723 14.9158L4.99451 15.0648ZM4.9514 15.2146C4.96512 15.1655 4.97984 15.1144 4.99555 15.0614L4.51619 14.9193C4.49976 14.9747 4.48431 15.0283 4.46982 15.0802L4.9514 15.2146ZM4.87966 15.4909L4.95258 15.2103L4.46865 15.0845L4.39573 15.3652L4.87966 15.4909ZM4.7136 15.9078C4.75267 15.9252 4.7776 15.9514 4.7914 15.9715C4.80414 15.9901 4.80783 16.0038 4.8081 16.0048C4.80815 16.005 4.80395 15.9863 4.80555 15.938C4.80867 15.8441 4.83122 15.6951 4.88093 15.4858L4.39446 15.3703C4.34202 15.5911 4.3106 15.7779 4.30583 15.9214C4.30349 15.9918 4.30687 16.0673 4.32575 16.1365C4.34327 16.2006 4.38902 16.3106 4.51028 16.3646L4.7136 15.9078ZM5.03005 15.4734C4.88923 15.6644 4.77802 15.787 4.69748 15.8537C4.65689 15.8873 4.63531 15.8972 4.6314 15.8986C4.62931 15.8994 4.66503 15.8862 4.7136 15.9078L4.51028 16.3646C4.61769 16.4124 4.72397 16.3973 4.80368 16.368C4.88157 16.3394 4.95304 16.2912 5.01628 16.2389C5.14342 16.1337 5.28303 15.9729 5.43251 15.7701L5.03005 15.4734ZM5.17857 15.2625L5.02691 15.4778L5.43565 15.7657L5.58731 15.5505L5.17857 15.2625ZM5.33597 15.0211C5.28034 15.1092 5.22696 15.1909 5.1759 15.2664L5.58998 15.5466C5.64431 15.4663 5.70058 15.3801 5.75871 15.2881L5.33597 15.0211ZM5.51092 14.7356L5.33418 15.024L5.7605 15.2852L5.93724 14.9968L5.51092 14.7356ZM5.69657 14.4158L5.5079 14.7406L5.94025 14.9918L6.12892 14.6669L5.69657 14.4158ZM5.79278 14.2441C5.75979 14.3036 5.72729 14.3616 5.69528 14.4181L6.13021 14.6647C6.16303 14.6068 6.19632 14.5475 6.23006 14.4866L5.79278 14.2441ZM5.99749 13.867L5.7917 14.2461L6.23114 14.4846L6.43693 14.1055L5.99749 13.867ZM6.21227 13.4554L5.99558 13.8706L6.43884 14.1019L6.65553 13.6867L6.21227 13.4554ZM6.43781 13.0075L6.21062 13.4586L6.65719 13.6835L6.88437 13.2324L6.43781 13.0075ZM6.67362 12.5235L6.43635 13.0104L6.88582 13.2295L7.1231 12.7426L6.67362 12.5235ZM6.91927 12.0037L6.67233 12.5262L7.12439 12.7399L7.37134 12.2173L6.91927 12.0037ZM7.17432 11.4481L6.91811 12.0062L7.37251 12.2148L7.62872 11.6567L7.17432 11.4481ZM7.43832 10.857L7.17325 11.4505L7.62979 11.6544L7.89485 11.0609L7.43832 10.857ZM7.71086 10.2305L7.43734 10.8592L7.89583 11.0587L8.16935 10.4299L7.71086 10.2305ZM7.75767 10.1414L7.71979 10.212L8.16041 10.4484L8.1983 10.3777L7.75767 10.1414ZM8.8889 10.4999C8.8889 10.1921 8.70357 9.96285 8.46229 9.88142C8.22347 9.80083 7.93578 9.87013 7.76945 10.1217L8.18652 10.3975C8.21727 10.351 8.26004 10.3409 8.30241 10.3552C8.34231 10.3686 8.3889 10.4086 8.3889 10.4999H8.8889ZM8.88901 13.337L8.8889 10.4999L8.3889 10.4999L8.38901 13.337L8.88901 13.337ZM8.91384 13.3825L8.87838 13.2649L8.39965 13.4091L8.43511 13.5268L8.91384 13.3825ZM9.42182 14.1148C9.27534 14.072 9.08678 13.8979 8.9115 13.3752L8.43744 13.5341C8.62274 14.0867 8.88379 14.4787 9.28182 14.5948L9.42182 14.1148ZM9.47137 14.1241L9.40215 14.1099L9.3015 14.5997L9.37071 14.6139L9.47137 14.1241ZM9.23361 14.1687L9.19023 14.2729L9.65185 14.4651L9.69523 14.3608L9.23361 14.1687ZM9.31178 13.8965C9.28272 14.0155 9.25464 14.1098 9.22936 14.1796L9.69949 14.3499C9.73269 14.2582 9.76565 14.1456 9.79751 14.0151L9.31178 13.8965ZM9.51645 12.6875C9.45149 13.2036 9.38272 13.606 9.31178 13.8965L9.79751 14.0151C9.87494 13.698 9.94654 13.2744 10.0125 12.7499L9.51645 12.6875ZM9.58 12.1342L9.51612 12.6902L10.0129 12.7473L10.0767 12.1913L9.58 12.1342ZM9.61034 11.833L9.57963 12.1377L10.0771 12.1878L10.1078 11.8831L9.61034 11.833ZM9.65912 11.2919L9.61009 11.8356L10.1081 11.8805L10.1571 11.3368L9.65912 11.2919ZM9.70553 10.7032L9.65888 11.2947L10.1573 11.334L10.204 10.7426L9.70553 10.7032ZM9.74961 10.0665L9.70535 10.7056L10.2042 10.7402L10.2484 10.101L9.74961 10.0665ZM9.79133 9.38168L9.74947 10.0685L10.2485 10.099L10.2904 9.41209L9.79133 9.38168ZM9.83069 8.64893L9.79123 9.38347L10.2905 9.4103L10.33 8.67576L9.83069 8.64893ZM9.86768 7.86831L9.83061 8.65051L10.3301 8.67418L10.3671 7.89198L9.86768 7.86831ZM9.9187 6.60742L9.86761 7.87004L10.3672 7.89026L10.4183 6.62764L9.9187 6.60742ZM9.96433 5.23943L9.91864 6.60919L10.4184 6.62586L10.4641 5.2561L9.96433 5.23943ZM10.0168 3.24828L9.96428 5.24118L10.4641 5.25435L10.5166 3.26144L10.0168 3.24828ZM10.6492 2.61503C10.2882 2.60523 10.0245 2.91084 10.0167 3.24916L10.5166 3.26057C10.519 3.15719 10.5917 3.11366 10.6356 3.11485L10.6492 2.61503ZM11.2498 3.28048C11.2575 2.94274 11.0091 2.62481 10.6492 2.61503L10.6356 3.11485C10.6807 3.11607 10.7523 3.16512 10.7499 3.26907L11.2498 3.28048ZM11.2187 4.55082L11.2498 3.28089L10.75 3.26865L10.7189 4.53858L11.2187 4.55082ZM11.173 6.12311L11.2187 4.55197L10.7189 4.53743L10.6732 6.10857L11.173 6.12311ZM11.1215 7.55913L11.1729 6.12479L10.6733 6.10689L10.6219 7.54123L11.1215 7.55913ZM11.0635 8.86183L11.1215 7.56132L10.622 7.53904L10.564 8.83955L11.0635 8.86183ZM11.0149 9.75363L11.0633 8.86428L10.5641 8.8371L10.5157 9.72645L11.0149 9.75363ZM10.9617 10.5732L11.0148 9.75624L10.5158 9.72384L10.4628 10.5408L10.9617 10.5732ZM10.9034 11.3224L10.9615 10.5765L10.463 10.5376L10.4049 11.2835L10.9034 11.3224ZM10.8614 11.784L10.9031 11.3256L10.4052 11.2803L10.3634 11.7387L10.8614 11.784ZM10.7936 12.4182L10.861 11.7879L10.3638 11.7348L10.2964 12.365L10.7936 12.4182ZM10.7448 12.8053L10.7931 12.4229L10.297 12.3603L10.2487 12.7427L10.7448 12.8053ZM10.6931 13.1626L10.7442 12.8099L10.2493 12.7382L10.1982 13.0909L10.6931 13.1626ZM10.6382 13.4913L10.6922 13.1679L10.1991 13.0855L10.145 13.4088L10.6382 13.4913ZM10.5799 13.792L10.637 13.4977L10.1462 13.4025L10.0891 13.6968L10.5799 13.792ZM10.518 14.0654L10.5783 13.7997L10.0907 13.6891L10.0304 13.9548L10.518 14.0654ZM9.52089 15.4284C9.79493 15.4284 10.0015 15.259 10.1507 15.029C10.2982 14.8016 10.4167 14.4776 10.517 14.0699L10.0315 13.9504C9.93577 14.3393 9.83342 14.5994 9.73122 14.7569C9.63068 14.9119 9.55862 14.9284 9.52089 14.9284V15.4284ZM7.6826 13.5975C8.00169 14.6941 8.59461 15.4284 9.52089 15.4284V14.9284C8.93918 14.9284 8.4623 14.4875 8.16269 13.4578L7.6826 13.5975ZM7.65795 13.4418L7.67513 13.5628L8.17017 13.4925L8.15298 13.3715L7.65795 13.4418ZM7.65558 12.252L7.65546 13.4066L8.15547 13.4067L8.15558 12.252L7.65558 12.252ZM7.88243 12.8975L8.13248 12.3569L7.67867 12.147L7.42863 12.6876L7.88243 12.8975ZM7.61169 13.4644L7.88112 12.9003L7.42994 12.6848L7.16051 13.249L7.61169 13.4644ZM7.35052 13.9903L7.61 13.4679L7.1622 13.2455L6.90272 13.7679L7.35052 13.9903ZM7.22232 14.24C7.26435 14.1591 7.30675 14.0765 7.34954 13.9923L6.9037 13.7659C6.86161 13.8488 6.81993 13.93 6.77867 14.0094L7.22232 14.24ZM6.97586 14.7023L7.2211 14.2423L6.77989 14.0071L6.53464 14.4671L6.97586 14.7023ZM4.23318 17.1053C4.69767 17.3121 5.15956 17.1132 5.58551 16.7065C6.0129 16.2985 6.47038 15.625 6.9745 14.7048L6.536 14.4646C6.03737 15.3747 5.60978 15.9921 5.24023 16.3449C4.86923 16.6991 4.6223 16.7312 4.4365 16.6485L4.23318 17.1053ZM4.15013 17.0635L4.22167 17.0998L4.44801 16.654L4.37647 16.6177L4.15013 17.0635ZM3.62612 16.1464C3.66245 16.547 3.81753 16.8724 4.13855 17.0573L4.38805 16.624C4.25222 16.5457 4.151 16.3981 4.12407 16.1013L3.62612 16.1464ZM3.62287 16.0816L3.62536 16.1354L4.12483 16.1123L4.12233 16.0584L3.62287 16.0816ZM3.99624 16.3202L4.07141 16.2216L3.67379 15.9184L3.59862 16.017L3.99624 16.3202ZM2.39522 17.1238C2.67376 17.2207 2.95519 17.18 3.22448 17.0331C3.48581 16.8905 3.74039 16.6463 3.99413 16.3229L3.60073 16.0143C3.36662 16.3127 3.16156 16.4978 2.985 16.5941C2.81641 16.6861 2.68171 16.6941 2.55942 16.6515L2.39522 17.1238Z" fill="currentcolor"/>
</svg>
