<svg width="24" height="24" viewBox="0 0 24 24" fill="none" xmlns="http://www.w3.org/2000/svg">
<path fill-rule="evenodd" clip-rule="evenodd" d="M22.0755 15.3532C22.2181 16.2016 22.0426 16.7069 21.5227 16.8877C21.1219 17.027 20.6904 16.7905 20.2026 16.1686L20.1274 16.07L20.1249 16.1239C20.0933 16.4726 19.9651 16.7091 19.7367 16.8406L19.6652 16.8769C19.0149 17.1664 18.2475 16.415 17.2447 14.5847L16.9995 14.1247C16.9579 14.0445 16.9158 13.9627 16.8734 13.8791L16.6139 13.3567L16.3445 12.7926L16.0944 12.252L16.0945 13.4067L16.0774 13.5277C15.768 14.5908 15.2331 15.1784 14.4791 15.1784C14.1673 15.1784 13.9218 14.8067 13.7258 14.0101L13.6655 13.7444L13.6084 13.4501L13.5543 13.1267L13.5032 12.774L13.455 12.3916L13.3876 11.7614L13.3459 11.303L13.2878 10.557L13.2347 9.74004L13.1863 8.85069L13.1283 7.55018L13.0769 6.11584L13.0312 4.5447L13.0001 3.27477C12.9951 3.05393 13.1551 2.87044 13.3576 2.86494C13.5601 2.85944 13.7283 3.03402 13.7333 3.25486L13.7858 5.24777L13.8315 6.61753L13.8826 7.88015L13.9197 8.66235L13.9591 9.39688L14.001 10.0837L14.0452 10.7229L14.0919 11.3144L14.1409 11.8581L14.1716 12.1627L14.2355 12.7187C14.301 13.239 14.3712 13.652 14.4454 13.9558C14.4758 14.0806 14.5063 14.184 14.5356 14.2648L14.579 14.369L14.6482 14.3548C14.9204 14.2754 15.1452 13.9923 15.3255 13.4547L15.361 13.337L15.3611 10.4999C15.3611 10.1008 15.8249 9.96152 16.022 10.2596L16.0599 10.3302L16.3334 10.9589L16.5985 11.5524L16.8547 12.1105L17.1016 12.633L17.3389 13.1199L17.5661 13.5711L17.7828 13.9862L17.9886 14.3654C18.0219 14.4256 18.0548 14.4842 18.0873 14.5414L18.2759 14.8662L18.4527 15.1546C18.5095 15.2447 18.5644 15.3286 18.6171 15.4065L18.7687 15.6218C19.059 16.0155 19.2704 16.1886 19.3881 16.1362C19.4702 16.0996 19.4645 15.8582 19.3623 15.428L19.2894 15.1474C19.2753 15.0969 19.2602 15.0445 19.2441 14.9903L19.1358 14.6432L19.0033 14.2527L18.8035 13.706L18.7751 13.6447C18.5802 13.2257 18.3771 12.7661 18.165 12.2655L17.84 11.4837L17.5392 10.7371C17.3504 10.2621 17.9886 9.9354 18.2029 10.3974L18.3958 10.8163L18.752 11.6094C18.9763 12.1185 19.1742 12.5884 19.3449 13.0204L19.4811 13.374L19.6555 13.7382L19.8711 14.1717L20.0751 14.5624L20.267 14.9101C20.2979 14.9645 20.3283 15.0171 20.3581 15.0679L20.5307 15.3509C20.8626 15.8737 21.1138 16.1363 21.2656 16.1317L21.2999 16.1255C21.4197 16.0838 21.4448 15.8613 21.3647 15.4653L21.3105 15.2322C21.2889 15.1487 21.2638 15.0596 21.2351 14.9649L21.1381 14.6638L21.019 14.329L20.8776 13.961L20.7135 13.5599L20.4237 12.8969L20.201 12.4144L20.0266 12.049L19.813 11.6326L19.5293 11.0651L19.3824 10.7665C19.1548 10.3019 19.7866 9.92253 20.0248 10.3807C20.1601 10.6408 20.2891 10.8929 20.4117 11.137L20.6885 11.698L20.9725 12.2335L21.2513 12.7394L21.5121 13.1908C21.6381 13.4028 21.7573 13.5944 21.8696 13.7654L21.9797 13.9295C22.1852 14.2292 22.3627 14.4491 22.5065 14.5866L22.6357 14.699L22.6381 14.6215C22.6372 14.4339 22.5772 14.1515 22.4541 13.7851C22.3226 13.3936 22.1235 12.9179 21.8569 12.359L21.6118 11.8596C21.5682 11.773 21.5233 11.6847 21.4769 11.5947L21.1824 11.0345L20.8551 10.4342C20.6151 10.0021 21.166 9.60741 21.4397 9.95515L21.4815 10.019L21.6391 10.3004L21.9385 10.8218L22.2167 11.2881L22.4738 11.6989C22.5559 11.8266 22.6344 11.945 22.7094 12.0542L22.9235 12.3538L23.0225 12.4827C23.0813 12.5573 23.1364 12.6231 23.1873 12.6799L23.2445 12.741L23.1668 12.4251L23.0839 12.1319C23.0304 11.9557 22.9661 11.7605 22.8911 11.5464L22.7268 11.093C22.6971 11.0132 22.6661 10.9314 22.634 10.8474L22.4268 10.3186L22.1911 9.73972L21.9518 9.16999L18.3651 5.13713C18.3103 5.07557 18.2757 4.99705 18.2651 4.91353L18.2626 4.82879L18.3902 2.97014C18.4053 2.74984 18.5813 2.58462 18.7833 2.60111C18.96 2.61554 19.098 2.76431 19.1197 2.94886L19.1216 3.02985L19.0052 4.70799L22.5227 8.66385L22.5921 8.7738L22.9466 9.61874L23.25 10.3715L23.4238 10.8241L23.5747 11.2388C23.598 11.3048 23.6203 11.3693 23.6417 11.4323L23.7583 11.7924C24.0566 12.7629 24.0793 13.3136 23.8237 13.5702C23.6537 13.7408 23.4751 13.7836 23.2832 13.721L23.2051 13.689L23.2267 13.7596C23.4697 14.5982 23.4184 15.1348 23.0506 15.4047L22.9779 15.4522C22.7166 15.604 22.4282 15.5388 22.0938 15.2493L22.0481 15.208L22.0755 15.3532ZM15.6245 17.9269C15.5326 17.6665 15.247 17.5298 14.9866 17.6217C13.6275 18.1011 10.7009 18.166 9.33631 17.6281C9.07941 17.5268 8.78905 17.6529 8.68778 17.9098C8.5865 18.1667 8.71266 18.4571 8.96956 18.5584C10.5728 19.1904 13.745 19.12 15.3193 18.5647C15.5797 18.4729 15.7163 18.1873 15.6245 17.9269ZM16.6363 20.9653C16.5657 20.6984 16.292 20.5392 16.0251 20.6098C14.1535 21.105 10.1797 21.1711 8.2947 20.6137C8.02989 20.5354 7.75175 20.6866 7.67345 20.9515C7.59516 21.2163 7.74636 21.4944 8.01117 21.5727C10.0832 22.1853 14.2413 22.1162 16.2808 21.5766C16.5478 21.506 16.7069 21.2323 16.6363 20.9653ZM2.47732 16.8877C1.95737 16.7069 1.78186 16.2016 1.92454 15.3532L1.95192 15.208L1.90617 15.2493C1.57176 15.5388 1.28341 15.604 1.0221 15.4522L0.949417 15.4047C0.581579 15.1348 0.530332 14.5982 0.773306 13.7596L0.794922 13.689L0.716825 13.721C0.524875 13.7836 0.346272 13.7408 0.176335 13.5702C-0.0792656 13.3136 -0.0565662 12.7629 0.241654 11.7924L0.358344 11.4323C0.379698 11.3693 0.402004 11.3048 0.425261 11.2388L0.576221 10.8241L0.749995 10.3715L1.05337 9.61874L1.40792 8.7738L1.47726 8.66385L4.99476 4.70799L4.87843 3.02985L4.88034 2.94886C4.90197 2.76431 5.04003 2.61554 5.21675 2.60111C5.41872 2.58462 5.5947 2.74984 5.60982 2.97014L5.73737 4.82879L5.73493 4.91353C5.72432 4.99705 5.68966 5.07557 5.63492 5.13713L2.04818 9.16999L1.80886 9.73972L1.57317 10.3186L1.36602 10.8474C1.33387 10.9314 1.30292 11.0132 1.27316 11.093L1.10889 11.5464C1.0339 11.7605 0.969648 11.9557 0.916144 12.1319L0.833242 12.4251L0.755499 12.741L0.812654 12.6799C0.863572 12.6231 0.918687 12.5573 0.977533 12.4827L1.07648 12.3538L1.2906 12.0542C1.36557 11.945 1.44412 11.8266 1.52624 11.6989L1.78325 11.2881L2.06152 10.8218L2.36092 10.3004L2.51849 10.019L2.56027 9.95515C2.83399 9.60741 3.38487 10.0021 3.14491 10.4342L2.81759 11.0345L2.52307 11.5947C2.47673 11.6847 2.43177 11.773 2.38818 11.8596L2.14314 12.359C1.87653 12.9179 1.67736 13.3936 1.54586 13.7851C1.42277 14.1515 1.3628 14.4339 1.3619 14.6215L1.36425 14.699L1.49349 14.5866C1.63732 14.4491 1.81479 14.2292 2.02026 13.9295L2.13037 13.7654C2.24274 13.5944 2.36192 13.4028 2.48785 13.1908L2.74872 12.7394L3.02751 12.2335L3.31152 11.698L3.58827 11.137C3.71094 10.8929 3.83994 10.6408 3.97519 10.3807C4.21336 9.92253 4.84517 10.3019 4.61763 10.7665L4.47068 11.0651L4.18703 11.6326L3.97345 12.049L3.79901 12.4144L3.57629 12.8969L3.28654 13.5599L3.12238 13.961L2.98096 14.329L2.86193 14.6638L2.76489 14.9649C2.73617 15.0596 2.71105 15.1487 2.68948 15.2322L2.6353 15.4653C2.55521 15.8613 2.5803 16.0838 2.70006 16.1255L2.73445 16.1317C2.88622 16.1363 3.13735 15.8737 3.46926 15.3509L3.64185 15.0679C3.67171 15.0171 3.70211 14.9645 3.73304 14.9101L3.92486 14.5624L4.12886 14.1717L4.34452 13.7382L4.51894 13.374L4.65511 13.0204C4.82583 12.5884 5.02366 12.1185 5.24797 11.6094L5.60423 10.8163L5.7971 10.3974C6.0114 9.9354 6.64961 10.2621 6.46078 10.7371L6.16 11.4837L5.835 12.2655C5.62291 12.7661 5.41985 13.2257 5.22495 13.6447L5.19645 13.706L4.99672 14.2527L4.86423 14.6432L4.75587 14.9903C4.7398 15.0445 4.72472 15.0969 4.71061 15.1474L4.63769 15.428C4.53555 15.8582 4.52975 16.0996 4.61194 16.1362C4.72963 16.1886 4.94099 16.0155 5.23128 15.6218L5.38294 15.4065C5.43564 15.3286 5.49046 15.2447 5.54734 15.1546L5.72408 14.8662L5.91274 14.5414C5.94516 14.4842 5.97806 14.4256 6.01142 14.3654L6.21721 13.9862L6.4339 13.5711L6.66109 13.1199L6.89836 12.633L7.14531 12.1105L7.40152 11.5524L7.66659 10.9589L7.9401 10.3302L7.97798 10.2596C8.17506 9.96152 8.6389 10.1008 8.6389 10.4999L8.63901 13.337L8.67447 13.4547C8.85476 13.9923 9.07957 14.2754 9.35182 14.3548L9.42104 14.369L9.46442 14.2648C9.49367 14.184 9.52419 14.0806 9.55464 13.9558C9.62883 13.652 9.69902 13.239 9.76449 12.7187L9.82837 12.1627L9.85908 11.8581L9.90811 11.3144L9.95475 10.7229L9.99901 10.0837L10.0409 9.39688L10.0803 8.66235L10.1174 7.88015L10.1685 6.61753L10.2142 5.24777L10.2667 3.25486C10.2717 3.03402 10.4399 2.85944 10.6424 2.86494C10.8449 2.87044 11.0049 3.05393 10.9999 3.27477L10.9688 4.5447L10.9231 6.11584L10.8717 7.55018L10.8137 8.85069L10.7653 9.74004L10.7122 10.557L10.6541 11.303L10.6124 11.7614L10.545 12.3916L10.4968 12.774L10.4457 13.1267L10.3916 13.4501L10.3345 13.7444L10.2742 14.0101C10.0782 14.8067 9.83266 15.1784 9.52089 15.1784C8.76689 15.1784 8.23199 14.5908 7.92265 13.5277L7.90547 13.4067L7.90558 12.252L7.65553 12.7926L7.3861 13.3567L7.12662 13.8791C7.08418 13.9627 7.04214 14.0445 7.00049 14.1247L6.75525 14.5847C5.7525 16.415 4.98513 17.1664 4.33484 16.8769L4.2633 16.8406C4.03487 16.7091 3.90672 16.4726 3.8751 16.1239L3.8726 16.07L3.79743 16.1686C3.30958 16.7905 2.87815 17.027 2.47732 16.8877Z" fill="currentcolor"/>
</svg>
