<svg width="24" height="24" viewBox="0 0 24 24" fill="none" xmlns="http://www.w3.org/2000/svg">
<path fill-rule="evenodd" clip-rule="evenodd" d="M7.90714 5.45443L10.7127 9.72747C10.7159 9.78878 10.7297 9.85059 10.755 9.91039L11.0534 10.6148C11.0312 10.6437 11.0116 10.6754 10.9951 10.7096L9.24768 14.3333C9.24145 14.3462 9.23578 14.3593 9.23066 14.3724L7.59199 13.9482C7.06856 13.8125 6.53573 14.1262 6.4 14.6498L6.03165 16.0711C5.89552 16.5938 6.21118 17.1287 6.73484 17.2626L7.7126 17.5158L6.18333 20.6884C6.05343 20.9579 6.16658 21.2817 6.43607 21.4116C6.70555 21.5415 7.02931 21.4283 7.1592 21.1588L8.78175 17.7927L14.7492 19.3381L15.5093 21.1347C15.6259 21.4102 15.9438 21.5391 16.2193 21.4225C16.4948 21.3059 16.6236 20.9881 16.507 20.7126L16.0702 19.6802C16.5888 19.8076 17.115 19.4945 17.2496 18.9755L17.618 17.5529C17.7522 17.0307 17.4385 16.4979 16.917 16.3621L14.387 15.7072L14.1975 15.2598L17.6309 13.7847C18.1262 13.571 18.3562 12.9968 18.1423 12.5008L17.3951 10.7617C17.1836 10.2659 16.6076 10.0358 16.1106 10.2492L12.6968 11.717L12.2645 10.6964C12.3302 10.6715 12.3942 10.6391 12.4553 10.599L14.0438 9.55557C14.4944 9.25839 14.6198 8.65344 14.3239 8.20235L11.1301 3.33797C10.8328 2.88717 10.2268 2.76191 9.77574 3.05775L8.18726 4.10121C7.73575 4.39736 7.61102 5.00296 7.90714 5.45443ZM8.62963 16.6343L15.261 18.3516C15.2731 18.3543 15.2852 18.3574 15.2971 18.361L16.2273 18.6019L16.5426 17.3842L7.4223 15.0233L7.10703 16.2399L8.61473 16.6304C8.6197 16.6316 8.62467 16.6329 8.62963 16.6343ZM10.2983 14.6488L11.6099 11.9287L13.0656 15.3651L10.2983 14.6488ZM10.2826 4.02097L13.3602 8.70844L11.9485 9.63581L8.87083 4.94834L10.2826 4.02097ZM13.1933 12.6828L16.4413 11.2862L17.1052 12.8314L13.8575 14.2268L13.1933 12.6828Z" fill="currentcolor"/>
</svg>
