<svg width="24" height="24" viewBox="0 0 24 24" fill="none" xmlns="http://www.w3.org/2000/svg">
<path fill-rule="evenodd" clip-rule="evenodd" d="M4.07995 10.4215H4.556L4.44954 16.9071C4.44501 17.1832 4.66516 17.4108 4.94126 17.4153C5.21737 17.4198 5.44487 17.1997 5.4494 16.9236L5.48694 14.6367L11.0004 10.5C11.0338 10.4769 11.0635 10.4505 11.0894 10.4215H12.9113C12.9372 10.4505 12.9669 10.4769 13.0003 10.5L18.4338 14.6058L18.396 16.9071C18.3915 17.1832 18.6116 17.4108 18.8877 17.4153C19.1638 17.4198 19.3913 17.1997 19.3959 16.9236L19.4356 14.505C19.4582 14.4229 19.459 14.3371 19.4396 14.2559L19.5026 10.4215H19.8804C20.9423 10.4215 21.8099 9.5539 21.8099 8.49192V8.38476C21.8099 7.32224 20.9426 6.4552 19.8804 6.4552H4.07995C3.01775 6.4552 2.15039 7.32224 2.15039 8.38476V8.49192C2.15039 9.5539 3.01797 10.4215 4.07995 10.4215ZM18.4541 13.3688L18.5025 10.4215H14.5537L18.4541 13.3688ZM9.44002 10.4215L5.5077 13.3719L5.55613 10.4215H9.44002ZM19.0893 9.42148H19.8804C20.39 9.42148 20.8099 9.00162 20.8099 8.49192V8.38476C20.8099 7.87461 20.3904 7.4552 19.8804 7.4552H4.07995C3.56995 7.4552 3.15039 7.87461 3.15039 8.38476V8.49192C3.15039 9.00162 3.57025 9.42148 4.07995 9.42148H4.98579C5.01402 9.41702 5.04302 9.41493 5.07258 9.41542C5.09645 9.41581 5.11991 9.41787 5.14283 9.42148H18.9322C18.9605 9.41702 18.9895 9.41493 19.019 9.41542C19.0429 9.41581 19.0664 9.41787 19.0893 9.42148Z" fill="currentcolor"/>
<path d="M4.556 10.4215L5.05593 10.4297L5.06427 9.92148H4.556V10.4215ZM4.44954 16.9071L3.9496 16.8989L4.44954 16.9071ZM4.94126 17.4153L4.94947 16.9153H4.94947L4.94126 17.4153ZM5.4494 16.9236L4.94947 16.9153L5.4494 16.9236ZM5.48694 14.6367L5.18687 14.2367L4.99103 14.3837L4.98701 14.6285L5.48694 14.6367ZM11.0004 10.5L10.716 10.0887L10.708 10.0943L10.7003 10.1001L11.0004 10.5ZM11.0894 10.4215V9.92148H10.8654L10.7163 10.0885L11.0894 10.4215ZM12.9113 10.4215L13.2844 10.0885L13.1352 9.92148H12.9113V10.4215ZM13.0003 10.5L13.3018 10.1011L13.2934 10.0947L13.2847 10.0887L13.0003 10.5ZM18.4338 14.6058L18.9337 14.614L18.9379 14.36L18.7352 14.2069L18.4338 14.6058ZM18.396 16.9071L17.8961 16.8989V16.8989L18.396 16.9071ZM18.8877 17.4153L18.8959 16.9153H18.8959L18.8877 17.4153ZM19.3959 16.9236L18.8959 16.9153V16.9154L19.3959 16.9236ZM19.4356 14.505L18.9535 14.3723L18.9367 14.4334L18.9356 14.4968L19.4356 14.505ZM19.4396 14.2559L18.9397 14.2477L18.9387 14.3108L18.9533 14.3721L19.4396 14.2559ZM19.5026 10.4215V9.92148H19.0107L19.0027 10.4133L19.5026 10.4215ZM18.4541 13.3688L18.1526 13.7677L18.9379 14.3611L18.954 13.377L18.4541 13.3688ZM18.5025 10.4215L19.0024 10.4297L19.0107 9.92148H18.5025V10.4215ZM14.5537 10.4215V9.92148H13.0626L14.2522 10.8204L14.5537 10.4215ZM5.5077 13.3719L5.00777 13.3637L4.99101 14.3846L5.80778 13.7718L5.5077 13.3719ZM9.44002 10.4215L9.74009 10.8214L10.9395 9.92148H9.44002V10.4215ZM5.55613 10.4215V9.92148H5.06427L5.0562 10.4133L5.55613 10.4215ZM19.0893 9.42148L19.0115 9.91539L19.0501 9.92148H19.0893V9.42148ZM4.98579 9.42148V9.92148H5.02502L5.06378 9.91536L4.98579 9.42148ZM5.07258 9.41542L5.08079 8.91548L5.08079 8.91548L5.07258 9.41542ZM5.14283 9.42148L5.065 9.91539L5.10368 9.92148H5.14283V9.42148ZM18.9322 9.42148V9.92148H18.9715L19.0102 9.91536L18.9322 9.42148ZM19.019 9.41542L19.0272 8.91548L19.0272 8.91548L19.019 9.41542ZM4.556 9.92148H4.07995V10.9215H4.556V9.92148ZM4.94947 16.9153L5.05593 10.4297L4.05607 10.4133L3.9496 16.8989L4.94947 16.9153ZM4.94947 16.9153H4.94947L3.9496 16.8989C3.94054 17.4511 4.38085 17.9062 4.93306 17.9152L4.94947 16.9153ZM4.94947 16.9153H4.94947L4.93306 17.9152C5.48527 17.9243 5.94027 17.484 5.94934 16.9318L4.94947 16.9153ZM4.98701 14.6285L4.94947 16.9153L5.94934 16.9318L5.98687 14.6449L4.98701 14.6285ZM10.7003 10.1001L5.18687 14.2367L5.78702 15.0366L11.3004 10.8999L10.7003 10.1001ZM10.7163 10.0885L10.716 10.0887L11.2847 10.9113C11.3509 10.8655 11.4103 10.8127 11.4624 10.7544L10.7163 10.0885ZM12.9113 9.92148H11.0894V10.9215H12.9113V9.92148ZM12.5383 10.7544C12.5904 10.8127 12.6498 10.8655 12.716 10.9113L13.2847 10.0887L13.2844 10.0885L12.5383 10.7544ZM12.6989 10.8989L18.1323 15.0047L18.7352 14.2069L13.3018 10.1011L12.6989 10.8989ZM18.8959 16.9153L18.9337 14.614L17.9338 14.5976L17.8961 16.8989L18.8959 16.9153ZM18.8959 16.9153L18.8959 16.9153L17.8961 16.8989C17.887 17.4511 18.3273 17.9062 18.8795 17.9152L18.8959 16.9153ZM18.8959 16.9154L18.8959 16.9153L18.8795 17.9152C19.4317 17.9243 19.8867 17.484 19.8958 16.9318L18.8959 16.9154ZM18.9356 14.4968L18.8959 16.9153L19.8958 16.9318L19.9355 14.5132L18.9356 14.4968ZM19.9176 14.6378C19.963 14.4728 19.9646 14.3014 19.926 14.1397L18.9533 14.3721L18.9535 14.3723L19.9176 14.6378ZM19.0027 10.4133L18.9397 14.2477L19.9396 14.2641L20.0025 10.4297L19.0027 10.4133ZM19.8804 9.92148H19.5026V10.9215H19.8804V9.92148ZM21.3099 8.49192C21.3099 9.27776 20.6662 9.92148 19.8804 9.92148V10.9215C21.2185 10.9215 22.3099 9.83004 22.3099 8.49192H21.3099ZM21.3099 8.38476V8.49192H22.3099V8.38476H21.3099ZM19.8804 6.9552C20.6665 6.9552 21.3099 7.59843 21.3099 8.38476H22.3099C22.3099 7.04604 21.2186 5.9552 19.8804 5.9552V6.9552ZM4.07995 6.9552H19.8804V5.9552H4.07995V6.9552ZM2.65039 8.38476C2.65039 7.59843 3.29384 6.9552 4.07995 6.9552V5.9552C2.74166 5.9552 1.65039 7.04604 1.65039 8.38476H2.65039ZM2.65039 8.49192V8.38476H1.65039V8.49192H2.65039ZM4.07995 9.92148C3.29411 9.92148 2.65039 9.27776 2.65039 8.49192H1.65039C1.65039 9.83004 2.74183 10.9215 4.07995 10.9215V9.92148ZM18.954 13.377L19.0024 10.4297L18.0025 10.4133L17.9541 13.3606L18.954 13.377ZM18.5025 9.92148H14.5537V10.9215H18.5025V9.92148ZM18.7555 12.9699L14.8551 10.0226L14.2522 10.8204L18.1526 13.7677L18.7555 12.9699ZM5.80778 13.7718L9.74009 10.8214L9.13994 10.0215L5.20763 12.9719L5.80778 13.7718ZM5.0562 10.4133L5.00777 13.3637L6.00764 13.3801L6.05607 10.4297L5.0562 10.4133ZM9.44002 9.92148H5.55613V10.9215H9.44002V9.92148ZM19.8804 8.92148H19.0893V9.92148H19.8804V8.92148ZM20.3099 8.49192C20.3099 8.72548 20.1139 8.92148 19.8804 8.92148V9.92148C20.6662 9.92148 21.3099 9.27776 21.3099 8.49192H20.3099ZM20.3099 8.38476V8.49192H21.3099V8.38476H20.3099ZM19.8804 7.9552C20.1143 7.9552 20.3099 8.1508 20.3099 8.38476H21.3099C21.3099 7.59841 20.6664 6.9552 19.8804 6.9552V7.9552ZM4.07995 7.9552H19.8804V6.9552H4.07995V7.9552ZM3.65039 8.38476C3.65039 8.1508 3.84604 7.9552 4.07995 7.9552V6.9552C3.29386 6.9552 2.65039 7.59841 2.65039 8.38476H3.65039ZM3.65039 8.49192V8.38476H2.65039V8.49192H3.65039ZM4.07995 8.92148C3.8464 8.92148 3.65039 8.72548 3.65039 8.49192H2.65039C2.65039 9.27776 3.29411 9.92148 4.07995 9.92148V8.92148ZM4.98579 8.92148H4.07995V9.92148H4.98579V8.92148ZM5.08079 8.91548C5.02225 8.91452 4.96441 8.91866 4.90779 8.9276L5.06378 9.91536L5.06438 9.91535L5.08079 8.91548ZM5.22066 8.92757C5.17476 8.92034 5.12805 8.91626 5.08079 8.91548L5.06437 9.91535L5.065 9.91539L5.22066 8.92757ZM18.9322 8.92148H5.14283V9.92148H18.9322V8.92148ZM19.0272 8.91548C18.9687 8.91452 18.9109 8.91866 18.8542 8.9276L19.0102 9.91536L19.0108 9.91535L19.0272 8.91548ZM19.1671 8.92757C19.1212 8.92034 19.0745 8.91626 19.0272 8.91548L19.0108 9.91535L19.0115 9.91539L19.1671 8.92757Z" fill="currentcolor"/>
</svg>
