<svg width="24" height="24" viewBox="0 0 24 24" fill="none" xmlns="http://www.w3.org/2000/svg">
<path fill-rule="evenodd" clip-rule="evenodd" d="M7.90714 5.45443L10.7127 9.72747C10.7159 9.78878 10.7297 9.85059 10.755 9.91039L11.0534 10.6148C11.0312 10.6437 11.0116 10.6754 10.9951 10.7096L9.24768 14.3333C9.24145 14.3462 9.23578 14.3593 9.23066 14.3724L7.59199 13.9482C7.06856 13.8125 6.53573 14.1262 6.4 14.6498L6.03165 16.0711C5.89552 16.5938 6.21118 17.1287 6.73484 17.2626L7.7126 17.5158L6.18333 20.6884C6.05343 20.9579 6.16658 21.2817 6.43607 21.4116C6.70555 21.5415 7.02931 21.4283 7.1592 21.1588L8.78175 17.7927L14.7492 19.3381L15.5093 21.1347C15.6259 21.4102 15.9438 21.5391 16.2193 21.4225C16.4948 21.3059 16.6236 20.9881 16.507 20.7126L16.0702 19.6802C16.5888 19.8076 17.115 19.4945 17.2496 18.9755L17.618 17.5529C17.7522 17.0307 17.4385 16.4979 16.917 16.3621L14.387 15.7072L14.1975 15.2598L17.6309 13.7847C18.1262 13.571 18.3562 12.9968 18.1423 12.5008L17.3951 10.7617C17.1836 10.2659 16.6076 10.0358 16.1106 10.2492L12.6968 11.717L12.2645 10.6964C12.3302 10.6715 12.3942 10.6391 12.4553 10.599L14.0438 9.55557C14.4944 9.25839 14.6198 8.65344 14.3239 8.20235L11.1301 3.33797C10.8328 2.88717 10.2268 2.76191 9.77574 3.05775L8.18726 4.10121C7.73575 4.39736 7.61102 5.00296 7.90714 5.45443ZM8.62963 16.6343L15.261 18.3516C15.2731 18.3543 15.2852 18.3574 15.2971 18.361L16.2273 18.6019L16.5426 17.3842L7.4223 15.0233L7.10703 16.2399L8.61473 16.6304C8.6197 16.6316 8.62467 16.6329 8.62963 16.6343ZM10.2983 14.6488L11.6099 11.9287L13.0656 15.3651L10.2983 14.6488ZM10.2826 4.02097L13.3602 8.70844L11.9485 9.63581L8.87083 4.94834L10.2826 4.02097ZM13.1933 12.6828L16.4413 11.2862L17.1052 12.8314L13.8575 14.2268L13.1933 12.6828Z" fill="currentcolor"/>
<path d="M10.7127 9.72747L11.0622 9.70918L11.0573 9.61457L11.0053 9.53537L10.7127 9.72747ZM7.90714 5.45443L7.61448 5.64639L7.61457 5.64653L7.90714 5.45443ZM10.755 9.91039L10.4327 10.0469L10.4327 10.0469L10.755 9.91039ZM11.0534 10.6148L11.3311 10.8277L11.4552 10.6659L11.3757 10.4783L11.0534 10.6148ZM10.9951 10.7096L10.6798 10.5575L10.6798 10.5575L10.9951 10.7096ZM9.24768 14.3333L9.56294 14.4853L9.56294 14.4853L9.24768 14.3333ZM9.23066 14.3724L9.14295 14.7112L9.44387 14.7891L9.55676 14.4995L9.23066 14.3724ZM7.59199 13.9482L7.50415 14.287L7.50428 14.2871L7.59199 13.9482ZM6.4 14.6498L6.0612 14.5619L6.06119 14.562L6.4 14.6498ZM6.03165 16.0711L6.37035 16.1594L6.37046 16.1589L6.03165 16.0711ZM6.73484 17.2626L6.82259 16.9238L6.82158 16.9235L6.73484 17.2626ZM7.7126 17.5158L8.02788 17.6678L8.21295 17.2839L7.80034 17.177L7.7126 17.5158ZM6.18333 20.6884L6.49861 20.8404L6.49861 20.8404L6.18333 20.6884ZM7.1592 21.1588L6.84392 21.0069H6.84392L7.1592 21.1588ZM8.78175 17.7927L8.8695 17.4539L8.59127 17.3818L8.46647 17.6408L8.78175 17.7927ZM14.7492 19.3381L15.0715 19.2018L15.0042 19.0426L14.8369 18.9993L14.7492 19.3381ZM15.5093 21.1347L15.187 21.2711H15.187L15.5093 21.1347ZM16.2193 21.4225L16.3556 21.7448L16.3556 21.7448L16.2193 21.4225ZM16.507 20.7126L16.8294 20.5762L16.507 20.7126ZM16.0702 19.6802L16.1537 19.3403L15.4759 19.1737L15.7479 19.8166L16.0702 19.6802ZM17.2496 18.9755L17.5884 19.0633L17.5884 19.0632L17.2496 18.9755ZM17.618 17.5529L17.9568 17.6406L17.9569 17.64L17.618 17.5529ZM16.917 16.3621L17.0052 16.0234L17.0047 16.0233L16.917 16.3621ZM14.387 15.7072L14.0648 15.8437L14.1321 16.0027L14.2993 16.046L14.387 15.7072ZM14.1975 15.2598L14.0594 14.9382L13.7394 15.0757L13.8753 15.3963L14.1975 15.2598ZM17.6309 13.7847L17.769 14.1063L17.7695 14.1061L17.6309 13.7847ZM18.1423 12.5008L17.8207 12.6389L17.8209 12.6394L18.1423 12.5008ZM17.3951 10.7617L17.0731 10.899L17.0735 10.8998L17.3951 10.7617ZM16.1106 10.2492L15.9726 9.92755L15.9724 9.92763L16.1106 10.2492ZM12.6968 11.717L12.3745 11.8535L12.5118 12.1775L12.8351 12.0385L12.6968 11.717ZM12.2645 10.6964L12.1404 10.3691L11.8004 10.4981L11.9422 10.8329L12.2645 10.6964ZM12.4553 10.599L12.6473 10.8917L12.6475 10.8916L12.4553 10.599ZM14.0438 9.55557L14.236 9.84811L14.2365 9.84776L14.0438 9.55557ZM14.3239 8.20235L14.6166 8.01039L14.6165 8.01025L14.3239 8.20235ZM11.1301 3.33797L11.4227 3.14588L11.4223 3.14529L11.1301 3.33797ZM9.77574 3.05775L9.58378 2.76509L9.58358 2.76522L9.77574 3.05775ZM8.18726 4.10121L8.37923 4.39387L8.37943 4.39374L8.18726 4.10121ZM15.261 18.3516L15.1732 18.6906L15.1849 18.6932L15.261 18.3516ZM8.62957 16.6342L8.53702 16.9718L8.54182 16.9731L8.62957 16.6342ZM15.2971 18.361L15.1977 18.6968L15.2093 18.6998L15.2971 18.361ZM16.2273 18.6019L16.1395 18.9407L16.4783 19.0284L16.5661 18.6896L16.2273 18.6019ZM16.5426 17.3842L16.8814 17.4719L16.9691 17.1331L16.6303 17.0454L16.5426 17.3842ZM7.4223 15.0233L7.51001 14.6845L7.17127 14.5968L7.0835 14.9355L7.4223 15.0233ZM7.10703 16.2399L6.76822 16.1521L6.6804 16.491L7.01928 16.5788L7.10703 16.2399ZM8.61479 16.6304L8.52703 16.9693L8.53185 16.9704L8.61479 16.6304ZM11.6099 11.9287L11.9322 11.7921L11.6306 11.0801L11.2947 11.7766L11.6099 11.9287ZM10.2983 14.6488L9.98301 14.4967L9.79783 14.8808L10.2106 14.9876L10.2983 14.6488ZM13.0656 15.3651L12.9779 15.704L13.6646 15.8817L13.3879 15.2286L13.0656 15.3651ZM13.3602 8.70844L13.5524 9.00097L13.8449 8.80886L13.6528 8.51635L13.3602 8.70844ZM10.2826 4.02097L10.5752 3.82888L10.383 3.53624L10.0904 3.72844L10.2826 4.02097ZM11.9485 9.63581L11.6559 9.8279L11.848 10.1205L12.1406 9.92834L11.9485 9.63581ZM8.87083 4.94834L8.67867 4.65581L8.3862 4.84793L8.57825 5.14043L8.87083 4.94834ZM16.4413 11.2862L16.7629 11.148L16.6247 10.8264L16.3031 10.9647L16.4413 11.2862ZM13.1933 12.6828L13.055 12.3612L12.7334 12.4995L12.8718 12.8211L13.1933 12.6828ZM17.1052 12.8314L17.2434 13.153L17.565 13.0149L17.4268 12.6933L17.1052 12.8314ZM13.8575 14.2268L13.536 14.3651L13.6742 14.6865L13.9957 14.5484L13.8575 14.2268ZM11.0053 9.53537L8.19972 5.26234L7.61457 5.64653L10.4201 9.91956L11.0053 9.53537ZM11.0773 9.77388C11.0681 9.75213 11.0633 9.73039 11.0622 9.70918L10.3632 9.74576C10.3685 9.84718 10.3913 9.94904 10.4327 10.0469L11.0773 9.77388ZM11.3757 10.4783L11.0773 9.77387L10.4327 10.0469L10.7311 10.7513L11.3757 10.4783ZM11.3104 10.8616C11.3164 10.8491 11.3234 10.8378 11.3311 10.8277L10.7756 10.4018C10.7389 10.4497 10.7068 10.5017 10.6798 10.5575L11.3104 10.8616ZM9.56294 14.4853L11.3104 10.8616L10.6798 10.5575L8.93242 14.1813L9.56294 14.4853ZM9.55676 14.4995C9.5586 14.4948 9.56065 14.4901 9.56294 14.4853L8.93242 14.1813C8.92225 14.2024 8.91296 14.2237 8.90456 14.2453L9.55676 14.4995ZM7.50428 14.2871L9.14295 14.7112L9.31837 14.0336L7.6797 13.6094L7.50428 14.2871ZM6.7388 14.7376C6.82606 14.401 7.16801 14.1999 7.50415 14.287L7.67983 13.6094C6.96911 13.4252 6.2454 13.8514 6.0612 14.5619L6.7388 14.7376ZM6.37046 16.1589L6.73881 14.7376L6.06119 14.562L5.69284 15.9833L6.37046 16.1589ZM6.82158 16.9235C6.48553 16.8376 6.28316 16.4941 6.37035 16.1594L5.69295 15.9829C5.50789 16.6934 5.93684 17.4198 6.6481 17.6017L6.82158 16.9235ZM7.80034 17.177L6.82258 16.9238L6.64709 17.6014L7.62485 17.8547L7.80034 17.177ZM7.39731 17.3639L5.86804 20.5365L6.49861 20.8404L8.02788 17.6678L7.39731 17.3639ZM5.86804 20.5365C5.65421 20.9801 5.84048 21.513 6.28409 21.7269L6.58804 21.0963C6.49269 21.0503 6.45265 20.9358 6.49861 20.8404L5.86804 20.5365ZM6.28409 21.7269C6.7277 21.9407 7.26066 21.7544 7.47449 21.3108L6.84392 21.0069C6.79796 21.1022 6.6834 21.1423 6.58804 21.0963L6.28409 21.7269ZM7.47449 21.3108L9.09704 17.9447L8.46647 17.6408L6.84392 21.0069L7.47449 21.3108ZM14.8369 18.9993L8.8695 17.4539L8.69401 18.1315L14.6614 19.677L14.8369 18.9993ZM15.8317 20.9983L15.0715 19.2018L14.4268 19.4745L15.187 21.2711L15.8317 20.9983ZM16.0829 21.1002C15.9854 21.1414 15.8729 21.0958 15.8317 20.9983L15.187 21.2711C15.3789 21.7246 15.9021 21.9367 16.3556 21.7448L16.0829 21.1002ZM16.1847 20.849C16.226 20.9464 16.1804 21.0589 16.0829 21.1002L16.3556 21.7448C16.8092 21.5529 17.0213 21.0297 16.8294 20.5762L16.1847 20.849ZM15.7479 19.8166L16.1847 20.849L16.8294 20.5762L16.3926 19.5438L15.7479 19.8166ZM16.9108 18.8876C16.8243 19.2212 16.4864 19.422 16.1537 19.3403L15.9867 20.0201C16.6913 20.1932 17.4057 19.7678 17.5884 19.0633L16.9108 18.8876ZM17.2791 17.4652L16.9108 18.8877L17.5884 19.0632L17.9568 17.6406L17.2791 17.4652ZM16.8288 16.7008C17.1635 16.788 17.3652 17.1303 17.279 17.4658L17.9569 17.64C18.1391 16.9312 17.7134 16.2079 17.0052 16.0234L16.8288 16.7008ZM14.2993 16.046L16.8293 16.7009L17.0047 16.0233L14.4748 15.3684L14.2993 16.046ZM13.8753 15.3963L14.0648 15.8437L14.7093 15.5707L14.5198 15.1233L13.8753 15.3963ZM17.4927 13.4631L14.0594 14.9382L14.3357 15.5814L17.769 14.1063L17.4927 13.4631ZM17.8209 12.6394C17.9579 12.957 17.811 13.3258 17.4922 13.4633L17.7695 14.1061C18.4414 13.8162 18.7545 13.0366 18.4636 12.3622L17.8209 12.6394ZM17.0735 10.8998L17.8207 12.6389L18.4638 12.3626L17.7166 10.6235L17.0735 10.8998ZM16.2487 10.5708C16.5686 10.4335 16.938 10.5821 17.0731 10.899L17.717 10.6244C17.4293 9.94973 16.6467 9.63817 15.9726 9.92755L16.2487 10.5708ZM12.8351 12.0385L16.2489 10.5707L15.9724 9.92763L12.5586 11.3955L12.8351 12.0385ZM11.9422 10.8329L12.3745 11.8535L13.0191 11.5805L12.5868 10.5599L11.9422 10.8329ZM12.2634 10.3064C12.2237 10.3324 12.1825 10.3532 12.1404 10.3691L12.3885 11.0237C12.4779 10.9898 12.5647 10.9459 12.6473 10.8917L12.2634 10.3064ZM13.8516 9.26304L12.2632 10.3065L12.6475 10.8916L14.236 9.84811L13.8516 9.26304ZM14.0313 8.39431C14.2211 8.68375 14.141 9.07224 13.8511 9.26339L14.2365 9.84776C14.8479 9.44454 15.0185 8.62312 14.6166 8.01039L14.0313 8.39431ZM10.8375 3.53007L14.0313 8.39444L14.6165 8.01025L11.4227 3.14588L10.8375 3.53007ZM9.9677 3.35041C10.2572 3.16052 10.6468 3.24077 10.8379 3.53066L11.4223 3.14529C11.0189 2.53358 10.1963 2.3633 9.58378 2.76509L9.9677 3.35041ZM8.37943 4.39374L9.9679 3.35028L9.58358 2.76522L7.9951 3.80867L8.37943 4.39374ZM8.19981 5.26247C8.00931 4.97205 8.08993 4.58362 8.37923 4.39387L7.9953 3.80854C7.38156 4.2111 7.21273 5.03388 7.61448 5.64639L8.19981 5.26247ZM15.3487 18.0128L8.71732 16.2954L8.54182 16.9731L15.1732 18.6904L15.3487 18.0128ZM15.3964 18.0253C15.3768 18.0196 15.357 18.0144 15.3371 18.01L15.1849 18.6932C15.1892 18.6942 15.1935 18.6953 15.1978 18.6966L15.3964 18.0253ZM16.315 18.263L15.3848 18.0221L15.2093 18.6998L16.1395 18.9407L16.315 18.263ZM16.2037 17.2965L15.8884 18.5141L16.5661 18.6896L16.8814 17.4719L16.2037 17.2965ZM7.33459 15.3622L16.4549 17.723L16.6303 17.0454L7.51001 14.6845L7.33459 15.3622ZM7.44583 16.3277L7.76111 15.1111L7.0835 14.9355L6.76822 16.1521L7.44583 16.3277ZM8.70254 16.2916L7.19477 15.9011L7.01928 16.5788L8.52704 16.9692L8.70254 16.2916ZM8.72211 16.2967C8.71401 16.2945 8.70588 16.2924 8.69773 16.2904L8.53185 16.9704C8.53356 16.9709 8.53529 16.9713 8.53703 16.9718L8.72211 16.2967ZM11.2947 11.7766L9.98301 14.4967L10.6135 14.8008L11.9252 12.0807L11.2947 11.7766ZM13.3879 15.2286L11.9322 11.7921L11.2877 12.0652L12.7434 15.5016L13.3879 15.2286ZM10.2106 14.9876L12.9779 15.704L13.1533 15.0263L10.386 14.3099L10.2106 14.9876ZM13.6528 8.51635L10.5752 3.82888L9.99001 4.21307L13.0677 8.90054L13.6528 8.51635ZM12.1406 9.92834L13.5524 9.00097L13.1681 8.41591L11.7563 9.34328L12.1406 9.92834ZM8.57825 5.14043L11.6559 9.8279L12.2411 9.44371L9.1634 4.75624L8.57825 5.14043ZM10.0904 3.72844L8.67867 4.65581L9.06299 5.24087L10.4747 4.3135L10.0904 3.72844ZM16.3031 10.9647L13.055 12.3612L13.3315 13.0043L16.5796 11.6077L16.3031 10.9647ZM17.4268 12.6933L16.7629 11.148L16.1198 11.4244L16.7837 12.9696L17.4268 12.6933ZM13.9957 14.5484L17.2434 13.153L16.9671 12.5099L13.7193 13.9053L13.9957 14.5484ZM12.8718 12.8211L13.536 14.3651L14.179 14.0885L13.5148 12.5445L12.8718 12.8211Z" fill="currentcolor"/>
</svg>
