<svg width="24" height="24" viewBox="0 0 24 24" fill="none" xmlns="http://www.w3.org/2000/svg">
<path fill-rule="evenodd" clip-rule="evenodd" d="M4.07995 10.4215H4.556L4.50814 13.3371C4.50685 13.3553 4.50654 13.3736 4.50724 13.3918L4.44954 16.9071C4.44501 17.1832 4.66516 17.4108 4.94126 17.4153C5.21737 17.4198 5.44487 17.1997 5.4494 16.9236L5.50335 13.6369L10.1533 10.4215H13.807L18.4498 13.6319L18.396 16.9071C18.3915 17.1832 18.6116 17.4108 18.8877 17.4153C19.1638 17.4198 19.3913 17.1997 19.3959 16.9236L19.5026 10.4215H19.8804C20.9423 10.4215 21.8099 9.5539 21.8099 8.49192V8.38476C21.8099 7.32224 20.9426 6.4552 19.8804 6.4552H4.07995C3.01775 6.4552 2.15039 7.32224 2.15039 8.38476V8.49192C2.15039 9.5539 3.01797 10.4215 4.07995 10.4215ZM18.4695 12.4298L18.5025 10.4215H15.5652L18.4695 12.4298ZM13.9835 9.42148H18.9322C18.9605 9.41702 18.9895 9.41493 19.019 9.41542C19.0429 9.41581 19.0664 9.41787 19.0893 9.42148H19.8804C20.39 9.42148 20.8099 9.00162 20.8099 8.49192V8.38476C20.8099 7.87461 20.3904 7.4552 19.8804 7.4552H4.07995C3.56995 7.4552 3.15039 7.87461 3.15039 8.38476V8.49192C3.15039 9.00162 3.57025 9.42148 4.07995 9.42148H4.98579C5.01402 9.41702 5.04302 9.41493 5.07258 9.41542C5.09645 9.41581 5.11991 9.41787 5.14283 9.42148H9.97676C9.99054 9.42091 10.0043 9.42091 10.018 9.42148H13.9423C13.956 9.42091 13.9698 9.42091 13.9835 9.42148ZM8.3951 10.4215L5.52354 12.4071L5.55613 10.4215H8.3951Z" fill="currentcolor"/>
</svg>
