<svg width="24" height="24" viewBox="0 0 24 24" fill="none" xmlns="http://www.w3.org/2000/svg">
<path fill-rule="evenodd" clip-rule="evenodd" d="M12 22C17.523 22 22 17.5226 22 12C22 6.47669 17.5233 2 12 2C6.47669 2 2 6.47669 2 12C2 17.5226 6.47705 22 12 22ZM12 3.00264C16.9696 3.00264 20.9974 7.03043 20.9974 12C20.9974 16.9689 16.9692 20.9974 12 20.9974C7.03081 20.9974 3.00264 16.9689 3.00264 12C3.00264 7.03043 7.03043 3.00264 12 3.00264ZM10.25 14.0003H7.792C7.41 14.0003 7.1 13.9041 7.1 13.7856V10.715C7.1 10.5965 7.41 10.5003 7.792 10.5003H10.25V7.942C10.25 7.56 10.3462 7.25 10.4647 7.25H13.5353C13.6538 7.25 13.75 7.56 13.75 7.942V10.5003H16.101C16.483 10.5003 16.793 10.5965 16.793 10.715V13.7856C16.793 13.9041 16.483 14.0003 16.101 14.0003H13.75V16.251C13.75 16.633 13.6538 16.943 13.5353 16.943H10.4647C10.3462 16.943 10.25 16.633 10.25 16.251V14.0003ZM11 8.57113C11 8.25585 11.055 8 11.1227 8H12.8773C12.945 8 13 8.25585 13 8.57113V11.2503H15.4289C15.7441 11.2503 16 11.3053 16 11.373V13.1276C16 13.1953 15.7441 13.2503 15.4289 13.2503H13V15.4289C13 15.7441 12.945 16 12.8773 16H11.1227C11.055 16 11 15.7441 11 15.4289V13.2503H8.57113C8.25585 13.2503 8 13.1953 8 13.1276V11.373C8 11.3053 8.25585 11.2503 8.57113 11.2503H11V8.57113Z" fill="currentcolor"/>
<path fill-rule="evenodd" clip-rule="evenodd" d="M11.9996 2.39998C6.69721 2.39998 2.39961 6.69758 2.39961 12C2.39961 17.3017 6.69758 21.6 11.9996 21.6C17.3016 21.6 21.5996 17.3017 21.5996 12C21.5996 6.69758 17.302 2.39998 11.9996 2.39998ZM1.59961 12C1.59961 6.25575 6.25539 1.59998 11.9996 1.59998C17.7438 1.59998 22.3996 6.25575 22.3996 12C22.3996 17.7435 17.7435 22.4 11.9996 22.4C6.25573 22.4 1.59961 17.7435 1.59961 12ZM2.60225 12C2.60225 6.80949 6.80913 2.60261 11.9996 2.60261C17.1901 2.60261 21.397 6.80949 21.397 12C21.397 17.1898 17.1897 21.3973 11.9996 21.3973C6.80949 21.3973 2.60225 17.1898 2.60225 12ZM11.9996 3.40261C7.25096 3.40261 3.40225 7.25132 3.40225 12C3.40225 16.748 7.25134 20.5973 11.9996 20.5973C16.7479 20.5973 20.597 16.748 20.597 12C20.597 7.25132 16.7483 3.40261 11.9996 3.40261ZM10.0582 7.06789C10.1143 6.99135 10.2467 6.84998 10.4643 6.84998H13.5349C13.7525 6.84998 13.8849 6.99135 13.9411 7.06789C14.0033 7.15279 14.0426 7.25001 14.0687 7.33419C14.1225 7.50738 14.1496 7.7222 14.1496 7.94198V10.1003H16.1006C16.3204 10.1003 16.5352 10.1274 16.7084 10.1812C16.7926 10.2073 16.8898 10.2466 16.9747 10.3088C17.0512 10.3649 17.1926 10.4974 17.1926 10.715V13.7856C17.1926 14.0032 17.0512 14.1356 16.9747 14.1917C16.8898 14.254 16.7926 14.2933 16.7084 14.3194C16.5352 14.3731 16.3204 14.4003 16.1006 14.4003H14.1496V16.251C14.1496 16.4708 14.1225 16.6856 14.0687 16.8588C14.0426 16.9429 14.0033 17.0402 13.9411 17.1251C13.8849 17.2016 13.7525 17.343 13.5349 17.343H10.4643C10.2467 17.343 10.1143 17.2016 10.0582 17.1251C9.99593 17.0402 9.95661 16.9429 9.93049 16.8588C9.87675 16.6856 9.84961 16.4708 9.84961 16.251V14.4003H7.79161C7.57183 14.4003 7.35702 14.3731 7.18383 14.3194C7.09964 14.2933 7.00243 14.254 6.91753 14.1917C6.84098 14.1356 6.69961 14.0032 6.69961 13.7856V10.715C6.69961 10.4974 6.84098 10.3649 6.91753 10.3088C7.00243 10.2466 7.09964 10.2073 7.18383 10.1812C7.35702 10.1274 7.57183 10.1003 7.79161 10.1003H9.84961V7.94198C9.84961 7.7222 9.87675 7.50738 9.93049 7.33419C9.95661 7.25001 9.99593 7.15279 10.0582 7.06789ZM10.6752 7.64998C10.6603 7.72588 10.6496 7.826 10.6496 7.94198V8.06037C10.6638 7.99931 10.6848 7.92892 10.7179 7.86384C10.7362 7.82776 10.7683 7.77287 10.8215 7.7221C10.8458 7.69893 10.8793 7.67239 10.9215 7.64998H10.6752ZM13.0777 7.64998C13.1199 7.67239 13.1534 7.69893 13.1777 7.7221C13.2309 7.77287 13.263 7.82776 13.2813 7.86384C13.3144 7.92892 13.3354 7.99931 13.3496 8.06037V7.94198C13.3496 7.826 13.3389 7.72588 13.324 7.64998H13.0777ZM15.9392 10.9003C16.0003 10.9145 16.0707 10.9355 16.1357 10.9685C16.1718 10.9869 16.2267 11.019 16.2775 11.0722C16.3199 11.1167 16.3737 11.192 16.3926 11.2953V10.9259C16.3167 10.911 16.2166 10.9003 16.1006 10.9003H15.9392ZM16.3926 13.2052C16.3737 13.3085 16.3199 13.3839 16.2775 13.4283C16.2267 13.4816 16.1718 13.5137 16.1357 13.532C16.0707 13.565 16.0003 13.5861 15.9392 13.6003H16.1006C16.2166 13.6003 16.3167 13.5896 16.3926 13.5747V13.2052ZM13.3496 15.9396C13.3354 16.0006 13.3144 16.071 13.2813 16.1361C13.263 16.1722 13.2309 16.2271 13.1777 16.2779C13.1227 16.3303 13.0207 16.4 12.8769 16.4H11.1223C10.9785 16.4 10.8765 16.3303 10.8215 16.2779C10.7683 16.2271 10.7362 16.1722 10.7179 16.1361C10.6848 16.071 10.6638 16.0006 10.6496 15.9396V16.251C10.6496 16.367 10.6603 16.4671 10.6752 16.543H13.324C13.3389 16.4671 13.3496 16.367 13.3496 16.251V15.9396ZM8.06 13.6003C7.99894 13.5861 7.92856 13.565 7.86348 13.532C7.82739 13.5137 7.77251 13.4816 7.72173 13.4283C7.66932 13.3734 7.59961 13.2713 7.59961 13.1276V11.373C7.59961 11.2292 7.66932 11.1272 7.72173 11.0722C7.77251 11.019 7.82739 10.9869 7.86348 10.9685C7.92856 10.9355 7.99894 10.9145 8.06 10.9003H7.79161C7.67563 10.9003 7.57551 10.911 7.49961 10.9259V13.5747C7.57551 13.5896 7.67563 13.6003 7.79161 13.6003H8.06ZM11.4063 8.39998C11.4022 8.45063 11.3996 8.50831 11.3996 8.57111V11.6503H8.57074C8.50794 11.6503 8.45026 11.6528 8.39961 11.657V12.8436C8.45026 12.8477 8.50794 12.8503 8.57074 12.8503H11.3996V15.4288C11.3996 15.4916 11.4022 15.5493 11.4063 15.6H12.5929C12.5971 15.5493 12.5996 15.4916 12.5996 15.4288V12.8503H15.4285C15.4913 12.8503 15.549 12.8477 15.5996 12.8436V11.657C15.549 11.6528 15.4913 11.6503 15.4285 11.6503H12.5996V8.57111C12.5996 8.50831 12.5971 8.45063 12.5929 8.39998H11.4063Z" fill="currentcolor"/>
</svg>
