<svg width="24" height="24" viewBox="0 0 24 24" fill="none" xmlns="http://www.w3.org/2000/svg">
<path fill-rule="evenodd" clip-rule="evenodd" d="M12 22C17.523 22 22 17.5226 22 12C22 6.47669 17.5233 2 12 2C6.47669 2 2 6.47669 2 12C2 17.5226 6.47705 22 12 22ZM12 3.00264C16.9696 3.00264 20.9974 7.03043 20.9974 12C20.9974 16.9689 16.9692 20.9974 12 20.9974C7.03081 20.9974 3.00264 16.9689 3.00264 12C3.00264 7.03043 7.03043 3.00264 12 3.00264ZM10.25 14.0003H7.792C7.41 14.0003 7.1 13.9041 7.1 13.7856V10.715C7.1 10.5965 7.41 10.5003 7.792 10.5003H10.25V7.942C10.25 7.56 10.3462 7.25 10.4647 7.25H13.5353C13.6538 7.25 13.75 7.56 13.75 7.942V10.5003H16.101C16.483 10.5003 16.793 10.5965 16.793 10.715V13.7856C16.793 13.9041 16.483 14.0003 16.101 14.0003H13.75V16.251C13.75 16.633 13.6538 16.943 13.5353 16.943H10.4647C10.3462 16.943 10.25 16.633 10.25 16.251V14.0003ZM11 8.57113C11 8.25585 11.055 8 11.1227 8H12.8773C12.945 8 13 8.25585 13 8.57113V11.2503H15.4289C15.7441 11.2503 16 11.3053 16 11.373V13.1276C16 13.1953 15.7441 13.2503 15.4289 13.2503H13V15.4289C13 15.7441 12.945 16 12.8773 16H11.1227C11.055 16 11 15.7441 11 15.4289V13.2503H8.57113C8.25585 13.2503 8 13.1953 8 13.1276V11.373C8 11.3053 8.25585 11.2503 8.57113 11.2503H11V8.57113Z" fill="currentcolor"/>
</svg>
