<svg width="24" height="24" viewBox="0 0 24 24" fill="none" xmlns="http://www.w3.org/2000/svg">
<path fill-rule="evenodd" clip-rule="evenodd" d="M18.5 13.5C17.671 13.5 17 12.829 17 12C17 11.171 17.671 10.5 18.5 10.5C19.329 10.5 20 11.171 20 12C20 12.829 19.329 13.5 18.5 13.5ZM12.0356 13.5C11.2076 13.5 10.5356 12.829 10.5356 12C10.5356 11.171 11.2076 10.5 12.0356 10.5C12.8646 10.5 13.5356 11.171 13.5356 12C13.5356 12.829 12.8646 13.5 12.0356 13.5ZM4 12C4 12.829 4.671 13.5 5.5 13.5C6.329 13.5 7 12.829 7 12C7 11.171 6.329 10.5 5.5 10.5C4.671 10.5 4 11.171 4 12Z" fill="currentcolor"/>
</svg>
