<svg width="24" height="24" viewBox="0 0 24 24" fill="none" xmlns="http://www.w3.org/2000/svg">
<path fill-rule="evenodd" clip-rule="evenodd" d="M18.5 13.5C17.671 13.5 17 12.829 17 12C17 11.171 17.671 10.5 18.5 10.5C19.329 10.5 20 11.171 20 12C20 12.829 19.329 13.5 18.5 13.5ZM12.0356 13.5C11.2076 13.5 10.5356 12.829 10.5356 12C10.5356 11.171 11.2076 10.5 12.0356 10.5C12.8646 10.5 13.5356 11.171 13.5356 12C13.5356 12.829 12.8646 13.5 12.0356 13.5ZM4 12C4 12.829 4.671 13.5 5.5 13.5C6.329 13.5 7 12.829 7 12C7 11.171 6.329 10.5 5.5 10.5C4.671 10.5 4 11.171 4 12Z" fill="currentcolor"/>
<path d="M16.5 12C16.5 13.1051 17.3949 14 18.5 14V13C17.9471 13 17.5 12.5529 17.5 12H16.5ZM18.5 10C17.3949 10 16.5 10.8949 16.5 12H17.5C17.5 11.4471 17.9471 11 18.5 11V10ZM20.5 12C20.5 10.8949 19.6051 10 18.5 10V11C19.0529 11 19.5 11.4471 19.5 12H20.5ZM18.5 14C19.6051 14 20.5 13.1051 20.5 12H19.5C19.5 12.5529 19.0529 13 18.5 13V14ZM10.0356 12C10.0356 13.1054 10.9317 14 12.0356 14V13C11.4835 13 11.0356 12.5526 11.0356 12H10.0356ZM12.0356 10C10.9317 10 10.0356 10.8946 10.0356 12H11.0356C11.0356 11.4474 11.4835 11 12.0356 11V10ZM14.0356 12C14.0356 10.8949 13.1407 10 12.0356 10V11C12.5885 11 13.0356 11.4471 13.0356 12H14.0356ZM12.0356 14C13.1407 14 14.0356 13.1051 14.0356 12H13.0356C13.0356 12.5529 12.5885 13 12.0356 13V14ZM5.5 13C4.94714 13 4.5 12.5529 4.5 12H3.5C3.5 13.1051 4.39486 14 5.5 14V13ZM6.5 12C6.5 12.5529 6.05286 13 5.5 13V14C6.60514 14 7.5 13.1051 7.5 12H6.5ZM5.5 11C6.05286 11 6.5 11.4471 6.5 12H7.5C7.5 10.8949 6.60514 10 5.5 10V11ZM4.5 12C4.5 11.4471 4.94714 11 5.5 11V10C4.39486 10 3.5 10.8949 3.5 12H4.5Z" fill="currentcolor"/>
</svg>
