<svg width="24" height="24" viewBox="0 0 24 24" fill="none" xmlns="http://www.w3.org/2000/svg">
<path fill-rule="evenodd" clip-rule="evenodd" d="M13.5 5.5C13.5 6.329 12.829 7 12 7C11.171 7 10.5 6.329 10.5 5.5C10.5 4.671 11.171 4 12 4C12.829 4 13.5 4.671 13.5 5.5ZM13.5 11.9644C13.5 12.7924 12.829 13.4644 12 13.4644C11.171 13.4644 10.5 12.7924 10.5 11.9644C10.5 11.1354 11.171 10.4644 12 10.4644C12.829 10.4644 13.5 11.1354 13.5 11.9644ZM12 20C12.829 20 13.5 19.329 13.5 18.5C13.5 17.671 12.829 17 12 17C11.171 17 10.5 17.671 10.5 18.5C10.5 19.329 11.171 20 12 20Z" fill="currentcolor"/>
<path d="M12 7.5C13.1051 7.5 14 6.60514 14 5.5H13C13 6.05286 12.5529 6.5 12 6.5V7.5ZM10 5.5C10 6.60514 10.8949 7.5 12 7.5V6.5C11.4471 6.5 11 6.05286 11 5.5H10ZM12 3.5C10.8949 3.5 10 4.39486 10 5.5H11C11 4.94714 11.4471 4.5 12 4.5V3.5ZM14 5.5C14 4.39486 13.1051 3.5 12 3.5V4.5C12.5529 4.5 13 4.94714 13 5.5H14ZM12 13.9644C13.1054 13.9644 14 13.0683 14 11.9644H13C13 12.5165 12.5526 12.9644 12 12.9644V13.9644ZM10 11.9644C10 13.0683 10.8946 13.9644 12 13.9644V12.9644C11.4474 12.9644 11 12.5165 11 11.9644H10ZM12 9.9644C10.8949 9.9644 10 10.8593 10 11.9644H11C11 11.4115 11.4471 10.9644 12 10.9644V9.9644ZM14 11.9644C14 10.8593 13.1051 9.9644 12 9.9644V10.9644C12.5529 10.9644 13 11.4115 13 11.9644H14ZM13 18.5C13 19.0529 12.5529 19.5 12 19.5V20.5C13.1051 20.5 14 19.6051 14 18.5H13ZM12 17.5C12.5529 17.5 13 17.9471 13 18.5H14C14 17.3949 13.1051 16.5 12 16.5V17.5ZM11 18.5C11 17.9471 11.4471 17.5 12 17.5V16.5C10.8949 16.5 10 17.3949 10 18.5H11ZM12 19.5C11.4471 19.5 11 19.0529 11 18.5H10C10 19.6051 10.8949 20.5 12 20.5V19.5Z" fill="currentcolor"/>
</svg>
