<svg width="24" height="24" viewBox="0 0 24 24" fill="none" xmlns="http://www.w3.org/2000/svg">
<path fill-rule="evenodd" clip-rule="evenodd" d="M5 7.49988C4.72386 7.49988 4.5 7.27602 4.5 6.99988C4.5 6.72374 4.72386 6.49988 5 6.49988H19C19.2761 6.49988 19.5 6.72374 19.5 6.99988C19.5 7.27602 19.2761 7.49988 19 7.49988H5ZM5 12.4999C4.72386 12.4999 4.5 12.276 4.5 11.9999C4.5 11.7237 4.72386 11.4999 5 11.4999H19C19.2761 11.4999 19.5 11.7237 19.5 11.9999C19.5 12.276 19.2761 12.4999 19 12.4999H5ZM4.5 16.9999C4.5 17.276 4.72386 17.4999 5 17.4999H19C19.2761 17.4999 19.5 17.276 19.5 16.9999C19.5 16.7237 19.2761 16.4999 19 16.4999H5C4.72386 16.4999 4.5 16.7237 4.5 16.9999Z" fill="currentcolor"/>
</svg>
