<svg width="24" height="24" viewBox="0 0 24 24" fill="none" xmlns="http://www.w3.org/2000/svg">
<path fill-rule="evenodd" clip-rule="evenodd" d="M13.5 5.5C13.5 6.329 12.829 7 12 7C11.171 7 10.5 6.329 10.5 5.5C10.5 4.671 11.171 4 12 4C12.829 4 13.5 4.671 13.5 5.5ZM13.5 11.9644C13.5 12.7924 12.829 13.4644 12 13.4644C11.171 13.4644 10.5 12.7924 10.5 11.9644C10.5 11.1354 11.171 10.4644 12 10.4644C12.829 10.4644 13.5 11.1354 13.5 11.9644ZM12 20C12.829 20 13.5 19.329 13.5 18.5C13.5 17.671 12.829 17 12 17C11.171 17 10.5 17.671 10.5 18.5C10.5 19.329 11.171 20 12 20Z" fill="currentcolor"/>
</svg>
