<svg width="24" height="24" viewBox="0 0 24 24" fill="none" xmlns="http://www.w3.org/2000/svg">
<path fill-rule="evenodd" clip-rule="evenodd" d="M5 7.49988C4.72386 7.49988 4.5 7.27602 4.5 6.99988C4.5 6.72374 4.72386 6.49988 5 6.49988H19C19.2761 6.49988 19.5 6.72374 19.5 6.99988C19.5 7.27602 19.2761 7.49988 19 7.49988H5ZM5 12.4999C4.72386 12.4999 4.5 12.276 4.5 11.9999C4.5 11.7237 4.72386 11.4999 5 11.4999H19C19.2761 11.4999 19.5 11.7237 19.5 11.9999C19.5 12.276 19.2761 12.4999 19 12.4999H5ZM4.5 16.9999C4.5 17.276 4.72386 17.4999 5 17.4999H19C19.2761 17.4999 19.5 17.276 19.5 16.9999C19.5 16.7237 19.2761 16.4999 19 16.4999H5C4.72386 16.4999 4.5 16.7237 4.5 16.9999Z" fill="currentcolor"/>
<path d="M4 6.99988C4 7.55216 4.44772 7.99988 5 7.99988V6.99988H4ZM5 5.99988C4.44772 5.99988 4 6.44759 4 6.99988H5V5.99988ZM19 5.99988H5V6.99988H19V5.99988ZM20 6.99988C20 6.44759 19.5523 5.99988 19 5.99988V6.99988H20ZM19 7.99988C19.5523 7.99988 20 7.55216 20 6.99988H19V7.99988ZM5 7.99988H19V6.99988H5V7.99988ZM4 11.9999C4 12.5522 4.44772 12.9999 5 12.9999V11.9999H4ZM5 10.9999C4.44772 10.9999 4 11.4476 4 11.9999H5V10.9999ZM19 10.9999H5V11.9999H19V10.9999ZM20 11.9999C20 11.4476 19.5523 10.9999 19 10.9999V11.9999H20ZM19 12.9999C19.5523 12.9999 20 12.5522 20 11.9999H19V12.9999ZM5 12.9999H19V11.9999H5V12.9999ZM5 16.9999H4C4 17.5522 4.44772 17.9999 5 17.9999V16.9999ZM19 16.9999H5V17.9999H19V16.9999ZM19 16.9999V17.9999C19.5523 17.9999 20 17.5522 20 16.9999H19ZM19 16.9999H20C20 16.4476 19.5523 15.9999 19 15.9999V16.9999ZM5 16.9999H19V15.9999H5V16.9999ZM5 16.9999V15.9999C4.44772 15.9999 4 16.4476 4 16.9999H5Z" fill="currentcolor"/>
</svg>
