<svg width="24" height="24" viewBox="0 0 24 24" fill="none" xmlns="http://www.w3.org/2000/svg">
<path d="M8.4839 11.979C9.03618 11.979 9.4839 11.5313 9.4839 10.979V10.946C9.4839 10.3937 9.03618 9.946 8.4839 9.946C7.93162 9.946 7.4839 10.3937 7.4839 10.946V10.979C7.4839 11.5313 7.93162 11.979 8.4839 11.979Z" fill="currentcolor"/>
<path d="M11.9839 11.979C12.5362 11.979 12.9839 11.5313 12.9839 10.979V10.946C12.9839 10.3937 12.5362 9.946 11.9839 9.946C11.4316 9.946 10.9839 10.3937 10.9839 10.946V10.979C10.9839 11.5313 11.4316 11.979 11.9839 11.979Z" fill="currentcolor"/>
<path d="M16.4839 10.979C16.4839 11.5313 16.0362 11.979 15.4839 11.979C14.9316 11.979 14.4839 11.5313 14.4839 10.979V10.946C14.4839 10.3937 14.9316 9.946 15.4839 9.946C16.0362 9.946 16.4839 10.3937 16.4839 10.946V10.979Z" fill="currentcolor"/>
<path fill-rule="evenodd" clip-rule="evenodd" d="M13.7669 16.8541C13.1921 16.9508 12.6002 17 12 17C7.6092 17 4 14.3534 4 11C4 7.64657 7.6092 5 12 5C16.3908 5 20 7.64657 20 11C20 12.6598 19.1061 14.1954 17.5771 15.3087L17.9596 18.1626C18.0174 18.5938 17.5349 18.888 17.178 18.6391L14.4265 16.7202C14.2122 16.771 13.9925 16.8156 13.7669 16.8541ZM16.5454 15.1394C16.5201 14.9502 16.6047 14.763 16.7636 14.657C18.1886 13.7067 19 12.3915 19 11C19 8.2778 15.8937 6 12 6C8.10629 6 5 8.2778 5 11C5 13.7222 8.10629 16 12 16C12.5448 16 13.0811 15.9554 13.5999 15.8681C13.8761 15.821 14.1425 15.7638 14.3989 15.6964C14.5407 15.6592 14.6918 15.686 14.812 15.7699L16.8174 17.1685L16.5454 15.1394Z" fill="currentcolor"/>
<path fill-rule="evenodd" clip-rule="evenodd" d="M6.05479 6.34147C7.60075 5.19003 9.7081 4.5 12 4.5C14.2919 4.5 16.3992 5.19003 17.9452 6.34147C19.4921 7.49359 20.5 9.13034 20.5 11C20.5 12.7594 19.5985 14.3583 18.1113 15.5311L18.4551 18.0962C18.5707 18.9587 17.6058 19.547 16.892 19.0492L14.3214 17.2565C14.167 17.2896 14.0103 17.3198 13.8511 17.3469L13.8499 17.3471C13.2471 17.4485 12.6275 17.5 12 17.5C9.7081 17.5 7.60075 16.81 6.05479 15.6585C4.5079 14.5064 3.5 12.8697 3.5 11C3.5 9.13034 4.5079 7.49359 6.05479 6.34147ZM6.65212 7.14346C5.31258 8.14115 4.51875 9.48433 4.50033 10.9479C4.51954 9.43393 5.37461 8.0897 6.67294 7.12801C6.66598 7.13315 6.65904 7.1383 6.65212 7.14346ZM17.327 7.12794C18.6154 8.08228 19.4674 9.41336 19.4991 10.9132C19.4687 9.46311 18.6768 8.13326 17.3479 7.14346C17.3409 7.13828 17.334 7.13311 17.327 7.12794ZM7.33205 7.88492C6.1607 8.72843 5.5 9.84194 5.5 11C5.5 12.1581 6.1607 13.2716 7.33205 14.1151C8.5015 14.9572 10.1467 15.5 12 15.5C12.5173 15.5 13.0258 15.4576 13.5163 15.3752C13.7789 15.3303 14.0307 15.2762 14.2719 15.2128C14.5555 15.1383 14.8575 15.192 15.098 15.3598L16.1708 16.1079L16.0499 15.2058C15.9991 14.8273 16.1684 14.4529 16.4862 14.241C17.811 13.3576 18.5 12.1825 18.5 11C18.5 9.84194 17.8393 8.72843 16.668 7.88492C15.4985 7.04276 13.8533 6.5 12 6.5C10.1467 6.5 8.5015 7.04276 7.33205 7.88492ZM8.4839 10.446C8.20776 10.446 7.9839 10.6699 7.9839 10.946V10.979C7.9839 11.2551 8.20776 11.479 8.4839 11.479C8.76004 11.479 8.9839 11.2551 8.9839 10.979V10.946C8.9839 10.6699 8.76004 10.446 8.4839 10.446ZM6.9839 10.946C6.9839 10.1176 7.65547 9.446 8.4839 9.446C9.31233 9.446 9.9839 10.1176 9.9839 10.946V10.979C9.9839 11.8074 9.31233 12.479 8.4839 12.479C7.65547 12.479 6.9839 11.8074 6.9839 10.979V10.946ZM11.9839 10.446C11.7078 10.446 11.4839 10.6699 11.4839 10.946V10.979C11.4839 11.2551 11.7078 11.479 11.9839 11.479C12.26 11.479 12.4839 11.2551 12.4839 10.979V10.946C12.4839 10.6699 12.26 10.446 11.9839 10.446ZM10.4839 10.946C10.4839 10.1176 11.1555 9.446 11.9839 9.446C12.8123 9.446 13.4839 10.1176 13.4839 10.946V10.979C13.4839 11.8074 12.8123 12.479 11.9839 12.479C11.1555 12.479 10.4839 11.8074 10.4839 10.979V10.946ZM13.9839 10.946C13.9839 10.1176 14.6555 9.446 15.4839 9.446C16.3123 9.446 16.9839 10.1176 16.9839 10.946V10.979C16.9839 11.8074 16.3123 12.479 15.4839 12.479C14.6555 12.479 13.9839 11.8074 13.9839 10.979V10.946ZM15.4839 10.446C15.2078 10.446 14.9839 10.6699 14.9839 10.946V10.979C14.9839 11.2551 15.2078 11.479 15.4839 11.479C15.76 11.479 15.9839 11.2551 15.9839 10.979V10.946C15.9839 10.6699 15.76 10.446 15.4839 10.446ZM6.67321 14.8722C5.37722 13.9123 4.52281 12.5713 4.50045 11.0608C4.52189 12.521 5.31524 13.8608 6.65212 14.8565C6.65913 14.8618 6.66616 14.867 6.67321 14.8722ZM19.1959 12.5552C18.8046 13.5303 18.053 14.3981 17.041 15.073L17.0419 15.0799L17.2828 14.9045C18.1932 14.2416 18.8437 13.4338 19.1959 12.5552ZM14.526 16.18C14.4556 16.1985 14.3846 16.2162 14.313 16.2332L14.5289 16.182L14.526 16.18Z" fill="currentcolor"/>
</svg>
