<svg width="24" height="24" viewBox="0 0 24 24" fill="none" xmlns="http://www.w3.org/2000/svg">
<path d="M8.0002 8.50003C7.72406 8.50003 7.5002 8.27618 7.5002 8.00003C7.5002 7.72389 7.72406 7.50003 8.0002 7.50003H15.0002C15.2763 7.50003 15.5002 7.72389 15.5002 8.00003C15.5002 8.27618 15.2763 8.50003 15.0002 8.50003H8.0002Z" fill="currentcolor"/>
<path d="M7.5002 11C7.5002 11.2762 7.72406 11.5 8.0002 11.5H12.0002C12.2763 11.5 12.5002 11.2762 12.5002 11C12.5002 10.7239 12.2763 10.5 12.0002 10.5H8.0002C7.72406 10.5 7.5002 10.7239 7.5002 11Z" fill="currentcolor"/>
<path fill-rule="evenodd" clip-rule="evenodd" d="M3.5 13.6066C3.5 15.3746 4.93267 16.8076 6.7 16.8076H7.193V19.8686C7.193 20.3321 7.71825 20.5979 8.09209 20.326L12.7817 16.8076H17.3C19.0673 16.8076 20.5 15.3746 20.5 13.6066V6.70063C20.5 4.93267 19.0673 3.49963 17.3 3.49963H6.7C4.93267 3.49963 3.5 4.93267 3.5 6.70063V13.6066ZM17.3 15.8076H12.4483L8.193 19.0002V15.8076H6.7C5.48502 15.8076 4.5 14.8224 4.5 13.6066V6.70063C4.5 5.4849 5.48502 4.49963 6.7 4.49963H17.3C18.515 4.49963 19.5 5.4849 19.5 6.70063V13.6066C19.5 14.8224 18.515 15.8076 17.3 15.8076Z" fill="currentcolor"/>
</svg>
