<svg width="24" height="24" viewBox="0 0 24 24" fill="none" xmlns="http://www.w3.org/2000/svg">
<path fill-rule="evenodd" clip-rule="evenodd" d="M3.5 13.6066C3.5 15.3746 4.93267 16.8076 6.7 16.8076H7.193V19.8686C7.193 20.3321 7.71825 20.5979 8.09209 20.326L12.7817 16.8076H17.3C19.0673 16.8076 20.5 15.3746 20.5 13.6066V6.70063C20.5 4.93267 19.0673 3.49963 17.3 3.49963H6.7C4.93267 3.49963 3.5 4.93267 3.5 6.70063V13.6066ZM17.3 15.8076H12.4483L8.193 19.0002V15.8076H6.7C5.48502 15.8076 4.5 14.8224 4.5 13.6066V6.70063C4.5 5.4849 5.48502 4.49963 6.7 4.49963H17.3C18.515 4.49963 19.5 5.4849 19.5 6.70063V13.6066C19.5 14.8224 18.515 15.8076 17.3 15.8076Z" fill="currentcolor"/>
<path d="M13.0596 6.60059V13.5H11.8389V8.62207H10.2275V7.67969H11.1504C11.6419 7.67969 11.8877 7.45996 11.8877 7.02051V6.60059H13.0596Z" fill="currentcolor"/>
</svg>
