<svg width="24" height="24" viewBox="0 0 24 24" fill="none" xmlns="http://www.w3.org/2000/svg">
<path fill-rule="evenodd" clip-rule="evenodd" d="M3.5 13.6066C3.5 15.3746 4.93267 16.8076 6.7 16.8076H7.193V19.8686C7.193 20.3321 7.71825 20.5979 8.09209 20.326L12.7817 16.8076H17.3C19.0673 16.8076 20.5 15.3746 20.5 13.6066V6.70063C20.5 4.93267 19.0673 3.49963 17.3 3.49963H6.7C4.93267 3.49963 3.5 4.93267 3.5 6.70063V13.6066ZM17.3 15.8076H12.4483L8.193 19.0002V15.8076H6.7C5.48502 15.8076 4.5 14.8224 4.5 13.6066V6.70063C4.5 5.4849 5.48502 4.49963 6.7 4.49963H17.3C18.515 4.49963 19.5 5.4849 19.5 6.70063V13.6066C19.5 14.8224 18.515 15.8076 17.3 15.8076Z" fill="currentcolor"/>
<path d="M7.193 16.8076H7.693V16.3076H7.193V16.8076ZM8.09209 20.326L8.3862 20.7304L8.39215 20.726L8.09209 20.326ZM12.7817 16.8076V16.3076H12.615L12.4816 16.4077L12.7817 16.8076ZM12.4483 15.8076V15.3076H12.2816L12.1482 15.4077L12.4483 15.8076ZM8.193 19.0002H7.693V20.0004L8.49307 19.4002L8.193 19.0002ZM8.193 15.8076H8.693V15.3076H8.193V15.8076ZM6.7 16.3076C5.20896 16.3076 4 15.0986 4 13.6066H3C3 15.6506 4.65639 17.3076 6.7 17.3076V16.3076ZM7.193 16.3076H6.7V17.3076H7.193V16.3076ZM7.693 19.8686V16.8076H6.693V19.8686H7.693ZM7.798 19.9216C7.78304 19.9325 7.77214 19.9348 7.76412 19.9353C7.75417 19.9359 7.74157 19.9338 7.72871 19.9272C7.71586 19.9207 7.70692 19.9119 7.70173 19.9038C7.6976 19.8974 7.693 19.8874 7.693 19.8686H6.693C6.693 20.7425 7.68328 21.2416 8.38617 20.7304L7.798 19.9216ZM12.4816 16.4077L7.79202 19.926L8.39215 20.726L13.0818 17.2076L12.4816 16.4077ZM17.3 16.3076H12.7817V17.3076H17.3V16.3076ZM20 13.6066C20 15.0986 18.791 16.3076 17.3 16.3076V17.3076C19.3436 17.3076 21 15.6506 21 13.6066H20ZM20 6.70063V13.6066H21V6.70063H20ZM17.3 3.99963C18.791 3.99963 20 5.20868 20 6.70063H21C21 4.65667 19.3436 2.99963 17.3 2.99963V3.99963ZM6.7 3.99963H17.3V2.99963H6.7V3.99963ZM4 6.70063C4 5.20868 5.20896 3.99963 6.7 3.99963V2.99963C4.65639 2.99963 3 4.65667 3 6.70063H4ZM4 13.6066V6.70063H3V13.6066H4ZM12.4483 16.3076H17.3V15.3076H12.4483V16.3076ZM8.49307 19.4002L12.7484 16.2076L12.1482 15.4077L7.89293 18.6003L8.49307 19.4002ZM7.693 15.8076V19.0002H8.693V15.8076H7.693ZM6.7 16.3076H8.193V15.3076H6.7V16.3076ZM4 13.6066C4 15.0983 5.20869 16.3076 6.7 16.3076V15.3076C5.76134 15.3076 5 14.5464 5 13.6066H4ZM4 6.70063V13.6066H5V6.70063H4ZM6.7 3.99963C5.20869 3.99963 4 5.20895 4 6.70063H5C5 5.76086 5.76134 4.99963 6.7 4.99963V3.99963ZM17.3 3.99963H6.7V4.99963H17.3V3.99963ZM20 6.70063C20 5.20895 18.7913 3.99963 17.3 3.99963V4.99963C18.2387 4.99963 19 5.76086 19 6.70063H20ZM20 13.6066V6.70063H19V13.6066H20ZM17.3 16.3076C18.7913 16.3076 20 15.0983 20 13.6066H19C19 14.5464 18.2387 15.3076 17.3 15.3076V16.3076Z" fill="currentcolor"/>
<path d="M13.0596 6.60059V13.5H11.8389V8.62207H10.2275V7.67969H11.1504C11.6419 7.67969 11.8877 7.45996 11.8877 7.02051V6.60059H13.0596Z" fill="currentcolor"/>
</svg>
