<svg width="24" height="24" viewBox="0 0 24 24" fill="none" xmlns="http://www.w3.org/2000/svg">
<path fill-rule="evenodd" clip-rule="evenodd" d="M12 6.04039L11.2715 6.81488C10.7383 7.38179 10.1032 7.66667 9.37504 7.66667H8.00008L8 9.89793C8 12.4614 9.48145 14.7756 11.7076 15.4563L12 15.5457L12.2924 15.4563C14.5185 14.7756 16 12.4614 16 9.89793V8.6667V7.66667H14.6254C13.8973 7.66667 13.2616 7.38179 12.7284 6.81489L12 6.04039ZM14 9.62532V9.89793C14 11.6125 13.0971 12.9397 12 13.4334C10.9029 12.9397 10 11.6125 10 9.89793L10 9.62492C10.7364 9.52504 11.4095 9.24864 12 8.8253C12.5905 9.24865 13.2636 9.52544 14 9.62532Z" fill="currentcolor"/>
<path fill-rule="evenodd" clip-rule="evenodd" d="M23 2H1V20H6V23.3042L11.2868 20H23V2ZM21 4V18H10.7132L8 19.6958V18H3V4H21Z" fill="currentcolor"/>
</svg>
