<svg width="24" height="24" viewBox="0 0 24 24" fill="none" xmlns="http://www.w3.org/2000/svg">
<path d="M8.4839 11.979C9.03618 11.979 9.4839 11.5313 9.4839 10.979V10.946C9.4839 10.3937 9.03618 9.946 8.4839 9.946C7.93162 9.946 7.4839 10.3937 7.4839 10.946V10.979C7.4839 11.5313 7.93162 11.979 8.4839 11.979Z" fill="currentcolor"/>
<path d="M11.9839 11.979C12.5362 11.979 12.9839 11.5313 12.9839 10.979V10.946C12.9839 10.3937 12.5362 9.946 11.9839 9.946C11.4316 9.946 10.9839 10.3937 10.9839 10.946V10.979C10.9839 11.5313 11.4316 11.979 11.9839 11.979Z" fill="currentcolor"/>
<path d="M16.4839 10.979C16.4839 11.5313 16.0362 11.979 15.4839 11.979C14.9316 11.979 14.4839 11.5313 14.4839 10.979V10.946C14.4839 10.3937 14.9316 9.946 15.4839 9.946C16.0362 9.946 16.4839 10.3937 16.4839 10.946V10.979Z" fill="currentcolor"/>
<path fill-rule="evenodd" clip-rule="evenodd" d="M13.7669 16.8541C13.1921 16.9508 12.6002 17 12 17C7.6092 17 4 14.3534 4 11C4 7.64657 7.6092 5 12 5C16.3908 5 20 7.64657 20 11C20 12.6598 19.1061 14.1954 17.5771 15.3087L17.9596 18.1626C18.0174 18.5938 17.5349 18.888 17.178 18.6391L14.4265 16.7202C14.2122 16.771 13.9925 16.8156 13.7669 16.8541ZM16.5454 15.1394C16.5201 14.9502 16.6047 14.763 16.7636 14.657C18.1886 13.7067 19 12.3915 19 11C19 8.2778 15.8937 6 12 6C8.10629 6 5 8.2778 5 11C5 13.7222 8.10629 16 12 16C12.5448 16 13.0811 15.9554 13.5999 15.8681C13.8761 15.821 14.1425 15.7638 14.3989 15.6964C14.5407 15.6592 14.6918 15.686 14.812 15.7699L16.8174 17.1685L16.5454 15.1394Z" fill="currentcolor"/>
</svg>
