<svg width="24" height="24" viewBox="0 0 24 24" fill="none" xmlns="http://www.w3.org/2000/svg">
<path fill-rule="evenodd" clip-rule="evenodd" d="M12.0369 2C13.1074 2 14.0805 2.4248 14.7852 3.1084C15.4899 3.79199 15.9279 4.736 15.9279 5.77441V10.6572C15.9279 11.6956 15.4899 12.6396 14.7852 13.3232C14.0805 14.0068 13.1074 14.4316 12.0369 14.4316C10.9664 14.4316 9.99329 14.0068 9.28859 13.3232C8.58389 12.6396 8.14597 11.6956 8.14597 10.6572V5.77441C8.14597 4.736 8.58389 3.79199 9.28859 3.1084C9.99329 2.4248 10.9664 2 12.0369 2ZM12.557 17.5355V21.4596C12.557 21.7575 12.307 22 12 22C11.693 22 11.443 21.7575 11.443 21.4596V17.5355C9.73826 17.4036 8.20134 16.6729 7.05705 15.5628C5.78691 14.3324 5 12.6348 5 10.7679C5 10.4701 5.25 10.2275 5.55705 10.2275C5.86409 10.2275 6.11409 10.4701 6.11409 10.7679C6.11409 12.3369 6.77685 13.7643 7.84396 14.7995C8.91107 15.8346 10.3826 16.4775 12 16.4775C13.6174 16.4775 15.0889 15.8346 16.156 14.7995C17.2232 13.7643 17.8859 12.3369 17.8859 10.7679C17.8859 10.4701 18.1359 10.2275 18.443 10.2275C18.75 10.2275 19 10.4701 19 10.7679C19 12.6364 18.2131 14.334 16.9446 15.5645C15.7987 16.6745 14.2617 17.4036 12.557 17.5355ZM12.0369 3.08236C12.7987 3.08236 13.4933 3.38509 13.9966 3.87337C14.5 4.36165 14.8138 5.03385 14.8121 5.77441V10.6572C14.8121 11.3962 14.5 12.07 13.9966 12.5583C13.4933 13.0465 12.8003 13.3493 12.0369 13.3493C11.2752 13.3493 10.5805 13.0465 10.0772 12.5583C9.57383 12.07 9.26174 11.3978 9.26174 10.6572V5.77441C9.26174 5.03548 9.57383 4.36165 10.0772 3.87337C10.5805 3.38509 11.2735 3.08236 12.0369 3.08236Z" fill="currentcolor" stroke="currentcolor"/>
</svg>
