<svg width="24" height="24" viewBox="0 0 24 24" fill="none" xmlns="http://www.w3.org/2000/svg">
<path fill-rule="evenodd" clip-rule="evenodd" d="M6.20717 15.9016L8.85727 17.8378L7.82668 20.9874C7.82502 20.9925 7.8235 20.9976 7.82211 21.0028L7.81591 21.0258C7.81449 21.0311 7.81321 21.0364 7.81208 21.0418C7.71987 21.4783 8.21681 21.8244 8.59684 21.5511L11.2831 19.6197L13.9696 21.5512C13.9739 21.5543 13.9783 21.5573 13.9828 21.5602L14.0029 21.573L14.0085 21.5765L14.017 21.5815C14.4052 21.8013 14.8853 21.4323 14.7397 20.9874L13.7158 17.8588L16.3947 15.9016L16.4007 15.8971L16.4079 15.8913L16.4271 15.8756C16.4316 15.8719 16.4359 15.8682 16.4401 15.8643C16.7672 15.5633 16.5659 14.9942 16.0985 14.9942L12.7784 14.994L11.9445 12.4455L15.9803 9.60429C16.1139 9.51027 16.1934 9.35714 16.1934 9.19381V2.502C16.1934 2.22475 15.9686 2 15.6913 2H6.83961C6.56236 2 6.33761 2.22476 6.33761 2.502V9.19381C6.33761 9.35715 6.41707 9.51027 6.55063 9.60429L10.6153 12.4658L9.78773 14.994L6.5033 14.9942C6.49774 14.9942 6.49217 14.9944 6.48661 14.9947L6.46178 14.9961C6.45607 14.9964 6.45038 14.9969 6.44471 14.9975C6.00298 15.0476 5.82982 15.6259 6.20717 15.9016ZM11.7675 11.3421V3.00398H13.242V10.304L11.7675 11.3421ZM10.7635 3.00398V11.3424L9.35988 10.3542V3.00398H10.7635ZM8.35587 3.00398V9.6473L7.34146 8.93311V3.00398H8.35587ZM10.6289 15.6524L11.2831 13.653L11.9375 15.6524C11.9394 15.6585 11.9416 15.6645 11.944 15.6704L11.9536 15.6945C11.956 15.7004 11.9586 15.7063 11.9613 15.7121C12.0437 15.8852 12.2191 15.9982 12.4146 15.9982L14.5604 15.9981L12.8293 17.2631C12.8235 17.2673 12.8179 17.2716 12.8125 17.2762L12.7905 17.2948C12.7851 17.2994 12.7798 17.3042 12.7747 17.3092C12.6393 17.4414 12.5882 17.6408 12.6483 17.8245L13.3072 19.8385L11.5763 18.5939C11.5706 18.5898 11.5647 18.5859 11.5587 18.5822L11.5344 18.5672C11.5283 18.5635 11.5222 18.56 11.5159 18.5567C11.3495 18.4696 11.1459 18.482 10.9902 18.5939L9.259 19.8385L9.92493 17.8037C9.92714 17.797 9.92911 17.7901 9.93083 17.7833L9.93783 17.7553C9.93956 17.7484 9.94104 17.7414 9.94227 17.7344C9.97502 17.548 9.90007 17.3563 9.74398 17.2423L8.04121 15.9981L10.1518 15.9982C10.3689 15.9982 10.5614 15.8587 10.6289 15.6524ZM15.1891 8.93311L14.246 9.59712V3.00398H15.1891V8.93311Z" fill="currentcolor"/>
</svg>
