<svg width="24" height="24" viewBox="0 0 24 24" fill="none" xmlns="http://www.w3.org/2000/svg">
<path fill-rule="evenodd" clip-rule="evenodd" d="M3.27178 11.7752C2.85089 11.9914 2.93782 12.617 3.4017 12.7102L9.944 14.0248L11.2701 20.5792C11.3639 21.0426 11.989 21.129 12.205 20.7084L20.925 3.72842C21.147 3.29611 20.6841 2.83322 20.2518 3.05523L3.27178 11.7752ZM10.4667 13.1098L5.00069 12.0115L19.3247 4.65547L11.9673 18.9822L10.8583 13.5009C10.8183 13.3036 10.664 13.1495 10.4667 13.1098Z" fill="currentcolor"/>
<path d="M3.4017 12.7102L3.3032 13.2004H3.3032L3.4017 12.7102ZM3.27178 11.7752L3.50019 12.22H3.50019L3.27178 11.7752ZM9.944 14.0248L10.4341 13.9256L10.3682 13.6L10.0425 13.5346L9.944 14.0248ZM11.2701 20.5792L11.7602 20.48L11.2701 20.5792ZM12.205 20.7084L12.6497 20.9368V20.9368L12.205 20.7084ZM20.925 3.72842L21.3698 3.95684V3.95684L20.925 3.72842ZM20.2518 3.05523L20.0234 2.61045V2.61045L20.2518 3.05523ZM5.00069 12.0115L4.77228 11.5667L3.50019 12.22L4.9022 12.5017L5.00069 12.0115ZM10.4667 13.1098L10.5652 12.6196H10.5652L10.4667 13.1098ZM19.3247 4.65547L19.7695 4.88388L20.4802 3.50001L19.0963 4.21069L19.3247 4.65547ZM11.9673 18.9822L11.4772 19.0814L11.7602 20.48L12.4121 19.2107L11.9673 18.9822ZM10.8583 13.5009L11.3483 13.4017L11.3483 13.4017L10.8583 13.5009ZM3.5002 12.22L3.50019 12.22L3.04337 11.3305C2.20159 11.7627 2.37545 13.014 3.3032 13.2004L3.5002 12.22ZM10.0425 13.5346L3.50019 12.22L3.3032 13.2004L9.84551 14.515L10.0425 13.5346ZM11.7602 20.48L10.4341 13.9256L9.45393 14.1239L10.7801 20.6783L11.7602 20.48ZM11.7602 20.48V20.48L10.7801 20.6783C10.9676 21.6052 12.2178 21.778 12.6497 20.9368L11.7602 20.48ZM20.4802 3.50001L11.7602 20.48L12.6497 20.9368L21.3698 3.95684L20.4802 3.50001ZM20.4802 3.50001V3.50001L21.3698 3.95684C21.8138 3.09221 20.888 2.16643 20.0234 2.61045L20.4802 3.50001ZM3.50019 12.22L20.4802 3.50001L20.0234 2.61045L3.04337 11.3305L3.50019 12.22ZM4.9022 12.5017L10.3682 13.6L10.5652 12.6196L5.09919 11.5213L4.9022 12.5017ZM19.0963 4.21069L4.77228 11.5667L5.22911 12.4563L19.5531 5.10025L19.0963 4.21069ZM12.4121 19.2107L19.7695 4.88388L18.88 4.42705L11.5225 18.7538L12.4121 19.2107ZM10.3682 13.6L11.4772 19.0814L12.4574 18.8831L11.3483 13.4017L10.3682 13.6ZM10.3682 13.6L10.3682 13.6L11.3483 13.4017C11.2685 13.0071 10.9599 12.6989 10.5652 12.6196L10.3682 13.6Z" fill="currentcolor"/>
</svg>
