<svg width="24" height="24" viewBox="0 0 24 24" fill="none" xmlns="http://www.w3.org/2000/svg">
<path fill-rule="evenodd" clip-rule="evenodd" d="M19.5 13.126C19.2239 13.126 19 13.3499 19 13.626V18.495C19 18.7739 18.7739 19 18.495 19H5.505C5.22614 19 5 18.7739 5 18.495V5.505C5 5.22614 5.22614 5 5.505 5H10.533C10.8091 5 11.033 4.77614 11.033 4.5C11.033 4.22386 10.8091 4 10.533 4H5.505C4.67386 4 4 4.67386 4 5.505V18.495C4 19.3261 4.67386 20 5.505 20H18.495C19.3261 20 20 19.3261 20 18.495V13.626C20 13.3499 19.7761 13.126 19.5 13.126ZM12.8536 11.8536L19 5.70711L20 4.50098V4.5L19.9999 4.49077C19.9976 4.3659 19.9488 4.24173 19.8536 4.14645C19.8056 4.09851 19.7504 4.06234 19.6914 4.03794C19.6324 4.01349 19.5678 4 19.5 4H14.5C14.2239 4 14 4.22386 14 4.5C14 4.77614 14.2239 5 14.5 5H18.2929L12.1464 11.1464C11.9512 11.3417 11.9512 11.6583 12.1464 11.8536C12.3417 12.0488 12.6583 12.0488 12.8536 11.8536Z" fill="currentcolor"/>
</svg>
