<svg width="24" height="24" viewBox="0 0 24 24" fill="none" xmlns="http://www.w3.org/2000/svg">
<path fill-rule="evenodd" clip-rule="evenodd" d="M19.5 13.126C19.2239 13.126 19 13.3499 19 13.626V18.495C19 18.7739 18.7739 19 18.495 19H5.505C5.22614 19 5 18.7739 5 18.495V5.505C5 5.22614 5.22614 5 5.505 5H10.533C10.8091 5 11.033 4.77614 11.033 4.5C11.033 4.22386 10.8091 4 10.533 4H5.505C4.67386 4 4 4.67386 4 5.505V18.495C4 19.3261 4.67386 20 5.505 20H18.495C19.3261 20 20 19.3261 20 18.495V13.626C20 13.3499 19.7761 13.126 19.5 13.126ZM12.8536 11.8536L19 5.70711L20 4.50098V4.5L19.9999 4.49077C19.9976 4.3659 19.9488 4.24173 19.8536 4.14645C19.8056 4.09851 19.7504 4.06234 19.6914 4.03794C19.6324 4.01349 19.5678 4 19.5 4H14.5C14.2239 4 14 4.22386 14 4.5C14 4.77614 14.2239 5 14.5 5H18.2929L12.1464 11.1464C11.9512 11.3417 11.9512 11.6583 12.1464 11.8536C12.3417 12.0488 12.6583 12.0488 12.8536 11.8536Z" fill="currentcolor"/>
<path d="M19 5.70711H19.5V4.5L18.6464 5.35355L19 5.70711ZM12.8536 11.8536L13.2071 12.2071L13.2071 12.2071L12.8536 11.8536ZM19.9621 4.30861L19.5 4.49977L19.5002 4.50013L19.9621 4.30861ZM19.8536 4.14645L19.5 4.5V4.5L19.8536 4.14645ZM19.6914 4.03794L19.4999 4.4998L19.5002 4.49996L19.6914 4.03794ZM18.2929 5L18.6464 5.35355L19.5 4.5H18.2929V5ZM12.1464 11.1464L12.5 11.5L12.1464 11.1464ZM12.1464 11.8536L11.7929 12.2071L11.7929 12.2071L12.1464 11.8536ZM19.5 13.626V12.626C18.9477 12.626 18.5 13.0737 18.5 13.626H19.5ZM19.5 18.495V13.626H18.5V18.495H19.5ZM18.495 19.5C19.05 19.5 19.5 19.05 19.5 18.495H18.5C18.5 18.496 18.4999 18.4964 18.4999 18.4965C18.4999 18.4966 18.4999 18.4967 18.4998 18.4967C18.4997 18.497 18.4993 18.4977 18.4985 18.4985C18.4977 18.4993 18.497 18.4997 18.4967 18.4998C18.4967 18.4999 18.4966 18.4999 18.4965 18.4999C18.4964 18.4999 18.496 18.5 18.495 18.5V19.5ZM5.505 19.5H18.495V18.5H5.505V19.5ZM4.5 18.495C4.5 19.05 4.95 19.5 5.505 19.5V18.5C5.50402 18.5 5.50357 18.4999 5.5035 18.4999C5.5034 18.4999 5.50334 18.4999 5.50326 18.4998C5.50302 18.4997 5.50231 18.4993 5.50148 18.4985C5.50065 18.4977 5.50028 18.497 5.50018 18.4967C5.50014 18.4967 5.50013 18.4966 5.50011 18.4965C5.50009 18.4964 5.5 18.496 5.5 18.495H4.5ZM4.5 5.505V18.495H5.5V5.505H4.5ZM5.505 4.5C4.95 4.5 4.5 4.95 4.5 5.505H5.5C5.5 5.50402 5.50009 5.50357 5.50011 5.5035C5.50013 5.5034 5.50014 5.50334 5.50018 5.50326C5.50028 5.50302 5.50065 5.50231 5.50148 5.50148C5.50231 5.50065 5.50302 5.50028 5.50326 5.50018C5.50334 5.50014 5.5034 5.50013 5.5035 5.50011C5.50357 5.50009 5.50402 5.5 5.505 5.5V4.5ZM10.533 4.5H5.505V5.5H10.533V4.5ZM10.533 4.5V5.5C11.0853 5.5 11.533 5.05228 11.533 4.5H10.533ZM10.533 4.5H11.533C11.533 3.94772 11.0853 3.5 10.533 3.5V4.5ZM5.505 4.5H10.533V3.5H5.505V4.5ZM4.5 5.505C4.5 4.95 4.95 4.5 5.505 4.5V3.5C4.39772 3.5 3.5 4.39772 3.5 5.505H4.5ZM4.5 18.495V5.505H3.5V18.495H4.5ZM5.505 19.5C4.95 19.5 4.5 19.05 4.5 18.495H3.5C3.5 19.6023 4.39772 20.5 5.505 20.5V19.5ZM18.495 19.5H5.505V20.5H18.495V19.5ZM19.5 18.495C19.5 19.05 19.05 19.5 18.495 19.5V20.5C19.6023 20.5 20.5 19.6023 20.5 18.495H19.5ZM19.5 13.626V18.495H20.5V13.626H19.5ZM19.5 13.626H20.5C20.5 13.0737 20.0523 12.626 19.5 12.626V13.626ZM18.6464 5.35355L12.5 11.5L13.2071 12.2071L19.3536 6.06066L18.6464 5.35355ZM19.5 9.5V5.70711H18.5V9.5H19.5ZM19.5 9.5H18.5C18.5 10.0523 18.9477 10.5 19.5 10.5V9.5ZM19.5 9.5V10.5C20.0523 10.5 20.5 10.0523 20.5 9.5H19.5ZM19.5 4.5V9.5H20.5V4.5H19.5ZM19.5002 4.50013L19.5 4.5H20.5C20.5 4.36533 20.4731 4.23568 20.4239 4.11708L19.5002 4.50013ZM19.5 4.5L19.5 4.49977L20.4241 4.11745C20.375 3.99881 20.3023 3.88812 20.2071 3.79289L19.5 4.5ZM19.5002 4.49996L19.5 4.5L20.2071 3.79289C20.1119 3.69767 20.0012 3.62501 19.8825 3.57592L19.5002 4.49996ZM19.5 4.5L19.4999 4.4998L19.8829 3.57607C19.7643 3.52689 19.6347 3.5 19.5 3.5V4.5ZM14.5 4.5H19.5V3.5H14.5V4.5ZM14.5 4.5V3.5C13.9477 3.5 13.5 3.94772 13.5 4.5H14.5ZM14.5 4.5H13.5C13.5 5.05228 13.9477 5.5 14.5 5.5V4.5ZM18.2929 4.5H14.5V5.5H18.2929V4.5ZM12.5 11.5L18.6464 5.35355L17.9393 4.64645L11.7929 10.7929L12.5 11.5ZM12.5 11.5L11.7929 10.7929C11.4024 11.1834 11.4024 11.8166 11.7929 12.2071L12.5 11.5ZM12.5 11.5H12.5L11.7929 12.2071C12.1834 12.5976 12.8166 12.5976 13.2071 12.2071L12.5 11.5Z" fill="currentcolor"/>
</svg>
