<svg width="24" height="24" viewBox="0 0 24 24" fill="none" xmlns="http://www.w3.org/2000/svg">
<path fill-rule="evenodd" clip-rule="evenodd" d="M4.12216 18.8272C4.30302 19.0358 4.6188 19.0584 4.82747 18.8775L8.10618 16.036H19.5C19.7761 16.036 20 15.8121 20 15.536V12.536C20 12.2599 19.7761 12.036 19.5 12.036H15.5145L15.5 12.0358L15.4855 12.036H12.7216L16.4797 8.77899C16.809 8.91593 17.0525 9.10579 17.225 9.3358C17.4317 9.61143 17.5 9.88454 17.5 10.0358C17.5 10.3119 17.7239 10.5358 18 10.5358C18.2761 10.5358 18.5 10.3119 18.5 10.0358C18.5 9.68707 18.3808 9.21017 18.025 8.7358C17.8309 8.47694 17.5871 8.25496 17.2921 8.07486L19.8275 5.87755C20.0361 5.69669 20.0587 5.38092 19.8779 5.17224C19.697 4.96356 19.3812 4.941 19.1725 5.12186L16.2408 7.66271C15.8725 7.5794 15.4594 7.5358 15 7.5358C13.8373 7.5358 13.1439 7.2276 12.775 6.7358C12.5683 6.46017 12.5 6.18707 12.5 6.0358C12.5 5.75966 12.2761 5.5358 12 5.5358C11.7239 5.5358 11.5 5.75966 11.5 6.0358C11.5 6.38454 11.6192 6.86143 11.975 7.3358C12.5437 8.09401 13.5377 8.5358 15 8.5358C15.0783 8.5358 15.1545 8.5372 15.2286 8.53996L11.1947 12.036H4.50001C4.22387 12.036 4.00001 12.2599 4.00001 12.536V15.536C4.00001 15.8121 4.22387 16.036 4.50001 16.036H6.5793L4.17254 18.1219C3.96386 18.3027 3.94131 18.6185 4.12216 18.8272ZM11.5677 13.036H15V15.036H9.26002L11.5677 13.036ZM16 13.036V15.036H19V13.036H16ZM10.0408 13.036L7.73314 15.036H5.00001V13.036H10.0408Z" fill="currentcolor"/>
<path d="M4.82747 18.8775L5.15494 19.2554H5.15494L4.82747 18.8775ZM4.12216 18.8272L3.74432 19.1546L4.12216 18.8272ZM8.10618 16.036V15.536H7.91966L7.77871 15.6582L8.10618 16.036ZM15.5145 12.036L15.5074 12.536H15.5145V12.036ZM15.5 12.0358L15.5071 11.5358L15.5 11.5357L15.4929 11.5358L15.5 12.0358ZM15.4855 12.036V12.5361L15.4926 12.536L15.4855 12.036ZM12.7216 12.036L12.3941 11.6582L11.3812 12.536H12.7216V12.036ZM16.4797 8.77899L16.6716 8.31732L16.386 8.19853L16.1522 8.40114L16.4797 8.77899ZM17.225 9.3358L17.625 9.0358L17.625 9.0358L17.225 9.3358ZM18.025 8.7358L17.625 9.0358V9.0358L18.025 8.7358ZM17.2921 8.07486L16.9647 7.69701L16.4476 8.14511L17.0316 8.50161L17.2921 8.07486ZM19.8275 5.87755L20.1549 6.25539V6.25539L19.8275 5.87755ZM19.8779 5.17224L19.5 5.4997V5.4997L19.8779 5.17224ZM19.1725 5.12186L18.8451 4.74401V4.74401L19.1725 5.12186ZM16.2408 7.66271L16.1305 8.15038L16.3771 8.20618L16.5683 8.04055L16.2408 7.66271ZM12.775 6.7358L12.375 7.0358L12.375 7.0358L12.775 6.7358ZM11.975 7.3358L12.375 7.0358L11.975 7.3358ZM15.2286 8.53996L15.556 8.9178L16.5141 8.08746L15.2472 8.0403L15.2286 8.53996ZM11.1947 12.036V12.536H11.3812L11.5221 12.4138L11.1947 12.036ZM6.5793 16.036L6.90676 16.4138L7.91966 15.536H6.5793V16.036ZM4.17254 18.1219L4.50001 18.4997H4.50001L4.17254 18.1219ZM15 13.036H15.5V12.536H15V13.036ZM11.5677 13.036V12.536H11.3812L11.2403 12.6582L11.5677 13.036ZM15 15.036V15.536H15.5V15.036H15ZM9.26002 15.036L8.93256 14.6582L7.91966 15.536H9.26002V15.036ZM16 15.036H15.5V15.536H16V15.036ZM16 13.036V12.536H15.5V13.036H16ZM19 15.036V15.536H19.5V15.036H19ZM19 13.036H19.5V12.536H19V13.036ZM7.73314 15.036V15.536H7.91966L8.06061 15.4138L7.73314 15.036ZM10.0408 13.036L10.3683 13.4138L11.3812 12.536H10.0408V13.036ZM5.00001 15.036H4.50001V15.536H5.00001V15.036ZM5.00001 13.036V12.536H4.50001V13.036H5.00001ZM4.50001 18.4997H4.50001L3.74432 19.1546C4.10603 19.572 4.73758 19.6171 5.15494 19.2554L4.50001 18.4997ZM7.77871 15.6582L4.50001 18.4997L5.15494 19.2554L8.43364 16.4138L7.77871 15.6582ZM19.5 15.536H8.10618V16.536H19.5V15.536ZM19.5 15.536V16.536C20.0523 16.536 20.5 16.0883 20.5 15.536H19.5ZM19.5 12.536V15.536H20.5V12.536H19.5ZM19.5 12.536H20.5C20.5 11.9837 20.0523 11.536 19.5 11.536V12.536ZM15.5145 12.536H19.5V11.536H15.5145V12.536ZM15.4929 12.5357L15.5074 12.536L15.5216 11.5361L15.5071 11.5358L15.4929 12.5357ZM15.4926 12.536L15.5071 12.5357L15.4929 11.5358L15.4784 11.5361L15.4926 12.536ZM12.7216 12.536H15.4855V11.536H12.7216V12.536ZM16.1522 8.40114L12.3941 11.6582L13.049 12.4138L16.8071 9.15683L16.1522 8.40114ZM17.625 9.0358C17.3932 8.72675 17.0744 8.48479 16.6716 8.31732L16.2877 9.24066C16.5436 9.34708 16.7118 9.48482 16.825 9.6358L17.625 9.0358ZM18 10.0358C18 9.76446 17.8891 9.38795 17.625 9.0358L16.825 9.6358C16.9743 9.83491 17 10.0046 17 10.0358H18ZM18 10.0358H17C17 10.5881 17.4477 11.0358 18 11.0358V10.0358ZM18 10.0358V11.0358C18.5523 11.0358 19 10.5881 19 10.0358H18ZM17.625 9.0358C17.9163 9.42417 18 9.79593 18 10.0358H19C19 9.5782 18.8453 8.99617 18.425 8.4358L17.625 9.0358ZM17.0316 8.50161C17.274 8.64963 17.47 8.82908 17.625 9.0358L18.425 8.4358C18.1918 8.12481 17.9002 7.86029 17.5526 7.6481L17.0316 8.50161ZM19.5 5.4997L16.9647 7.69701L17.6196 8.4527L20.1549 6.25539L19.5 5.4997ZM19.5 5.4997L19.5 5.4997L20.1549 6.25539C20.5723 5.89368 20.6174 5.26213 20.2557 4.84477L19.5 5.4997ZM19.5 5.4997V5.4997L20.2557 4.84477C19.894 4.42742 19.2624 4.38231 18.8451 4.74401L19.5 5.4997ZM16.5683 8.04055L19.5 5.4997L18.8451 4.74401L15.9133 7.28486L16.5683 8.04055ZM15 8.0358C15.4282 8.0358 15.8038 8.07648 16.1305 8.15038L16.3511 7.17503C15.9413 7.08232 15.4906 7.0358 15 7.0358V8.0358ZM12.375 7.0358C12.8787 7.70742 13.7625 8.0358 15 8.0358V7.0358C13.9122 7.0358 13.409 6.74777 13.175 6.4358L12.375 7.0358ZM12 6.0358C12 6.30715 12.1109 6.68365 12.375 7.0358L13.175 6.4358C13.0257 6.23669 13 6.06698 13 6.0358H12ZM12 6.0358H13C13 5.48352 12.5523 5.0358 12 5.0358V6.0358ZM12 6.0358V5.0358C11.4477 5.0358 11 5.48352 11 6.0358H12ZM12.375 7.0358C12.0837 6.64743 12 6.27567 12 6.0358H11C11 6.49341 11.1547 7.07543 11.575 7.6358L12.375 7.0358ZM15 8.0358C13.6343 8.0358 12.8179 7.62636 12.375 7.0358L11.575 7.6358C12.2694 8.56166 13.4411 9.0358 15 9.0358V8.0358ZM15.2472 8.0403C15.1666 8.03731 15.0843 8.0358 15 8.0358V9.0358C15.0724 9.0358 15.1423 9.03709 15.21 9.03961L15.2472 8.0403ZM11.5221 12.4138L15.556 8.9178L14.9011 8.16211L10.8672 11.6582L11.5221 12.4138ZM4.50001 12.536H11.1947V11.536H4.50001V12.536ZM4.50001 12.536V11.536C3.94772 11.536 3.50001 11.9837 3.50001 12.536H4.50001ZM4.50001 15.536V12.536H3.50001V15.536H4.50001ZM4.50001 15.536H3.50001C3.50001 16.0883 3.94772 16.536 4.50001 16.536V15.536ZM6.5793 15.536H4.50001V16.536H6.5793V15.536ZM4.50001 18.4997L6.90676 16.4138L6.25183 15.6582L3.84508 17.744L4.50001 18.4997ZM4.50001 18.4997L4.50001 18.4997L3.84508 17.744C3.42772 18.1057 3.38261 18.7373 3.74432 19.1546L4.50001 18.4997ZM15 12.536H11.5677V13.536H15V12.536ZM15.5 15.036V13.036H14.5V15.036H15.5ZM9.26002 15.536H15V14.536H9.26002V15.536ZM11.2403 12.6582L8.93256 14.6582L9.58749 15.4138L11.8952 13.4138L11.2403 12.6582ZM16.5 15.036V13.036H15.5V15.036H16.5ZM19 14.536H16V15.536H19V14.536ZM18.5 13.036V15.036H19.5V13.036H18.5ZM16 13.536H19V12.536H16V13.536ZM8.06061 15.4138L10.3683 13.4138L9.71337 12.6582L7.40568 14.6582L8.06061 15.4138ZM5.00001 15.536H7.73314V14.536H5.00001V15.536ZM4.50001 13.036V15.036H5.50001V13.036H4.50001ZM10.0408 12.536H5.00001V13.536H10.0408V12.536Z" fill="currentcolor"/>
</svg>
