<svg width="24" height="24" viewBox="0 0 24 24" fill="none" xmlns="http://www.w3.org/2000/svg">
<path fill-rule="evenodd" clip-rule="evenodd" d="M4.12216 18.8272C4.30302 19.0358 4.6188 19.0584 4.82747 18.8775L8.10618 16.036H19.5C19.7761 16.036 20 15.8121 20 15.536V12.536C20 12.2599 19.7761 12.036 19.5 12.036H16.5143L16.5 12.0358L16.4857 12.036H12.7216L16.4797 8.77899C16.809 8.91593 17.0525 9.10579 17.225 9.3358C17.4317 9.61143 17.5 9.88454 17.5 10.0358C17.5 10.3119 17.7239 10.5358 18 10.5358C18.2761 10.5358 18.5 10.3119 18.5 10.0358C18.5 9.68707 18.3808 9.21017 18.025 8.7358C17.8309 8.47694 17.5871 8.25496 17.2921 8.07486L19.8275 5.87755C20.0361 5.69669 20.0587 5.38092 19.8779 5.17224C19.697 4.96356 19.3812 4.941 19.1725 5.12186L16.2408 7.66271C15.8725 7.5794 15.4594 7.5358 15 7.5358C13.8373 7.5358 13.1439 7.2276 12.775 6.7358C12.5683 6.46017 12.5 6.18707 12.5 6.0358C12.5 5.75966 12.2761 5.5358 12 5.5358C11.7239 5.5358 11.5 5.75966 11.5 6.0358C11.5 6.38454 11.6192 6.86143 11.975 7.3358C12.5437 8.09401 13.5377 8.5358 15 8.5358C15.0783 8.5358 15.1545 8.5372 15.2286 8.53996L11.1947 12.036H4.50001C4.22387 12.036 4.00001 12.2599 4.00001 12.536V15.536C4.00001 15.8121 4.22387 16.036 4.50001 16.036H6.5793L4.17254 18.1219C3.96386 18.3027 3.94131 18.6185 4.12216 18.8272ZM11.5677 13.036H16V15.036H9.26002L11.5677 13.036ZM17 13.036V15.036H19V13.036H17ZM10.0408 13.036L7.73314 15.036H5.00001V13.036H10.0408Z" fill="currentcolor"/>
</svg>
