<svg width="24" height="24" viewBox="0 0 24 24" fill="none" xmlns="http://www.w3.org/2000/svg">
<path fill-rule="evenodd" clip-rule="evenodd" d="M8.6251 4C8.6251 3.72386 8.84896 3.5 9.1251 3.5C9.40124 3.5 9.6251 3.72386 9.6251 4V4.542H11.7501V4C11.7501 3.72386 11.974 3.5 12.2501 3.5C12.5262 3.5 12.7501 3.72386 12.7501 4V4.542H14.8751V4C14.8751 3.72386 15.099 3.5 15.3751 3.5C15.6512 3.5 15.8751 3.72386 15.8751 4V4.542H17.607C18.3764 4.542 19 5.16512 19 5.935V18.731C19 19.5016 18.3766 20.125 17.607 20.125H6.893C6.12336 20.125 5.5 19.5016 5.5 18.731V5.935C5.5 5.16512 6.1236 4.542 6.893 4.542H8.6251V4ZM8.6251 6.083V5.542H6.893C6.67571 5.542 6.5 5.71757 6.5 5.935V18.731C6.5 18.9494 6.67564 19.125 6.893 19.125H17.607C17.8244 19.125 18 18.9494 18 18.731V5.935C18 5.71757 17.8243 5.542 17.607 5.542H15.8751V6.083C15.8751 6.35914 15.6512 6.583 15.3751 6.583C15.099 6.583 14.8751 6.35914 14.8751 6.083V5.542H12.7501V6.083C12.7501 6.35914 12.5262 6.583 12.2501 6.583C11.974 6.583 11.7501 6.35914 11.7501 6.083V5.542H9.6251V6.083C9.6251 6.35914 9.40124 6.583 9.1251 6.583C8.84896 6.583 8.6251 6.35914 8.6251 6.083ZM15 14C15.276 14 15.5 13.776 15.5 13.5C15.5 13.224 15.276 13 15 13H12.5V10.5C12.5 10.224 12.276 10 12 10C11.724 10 11.5 10.224 11.5 10.5V13H9C8.724 13 8.5 13.224 8.5 13.5C8.5 13.776 8.724 14 9 14H11.5V16.5C11.5 16.776 11.724 17 12 17C12.276 17 12.5 16.776 12.5 16.5V14H15Z" fill="currentcolor"/>
</svg>
