<svg width="24" height="24" viewBox="0 0 24 24" fill="none" xmlns="http://www.w3.org/2000/svg">
<path fill-rule="evenodd" clip-rule="evenodd" d="M9.5 3.5C9.22386 3.5 9 3.72386 9 4V4.542H6.84141C6.1005 4.542 5.5 5.16512 5.5 5.935V18.731C5.5 19.5016 6.10027 20.125 6.84141 20.125H17.1586C17.8997 20.125 18.5 19.5016 18.5 18.731V5.935C18.5 5.16512 17.8995 4.542 17.1586 4.542H15V4C15 3.72386 14.7761 3.5 14.5 3.5C14.2239 3.5 14 3.72386 14 4V4.542H10V4C10 3.72386 9.77614 3.5 9.5 3.5ZM6.87591 5.542H9V6.083C9 6.35914 9.22386 6.583 9.5 6.583C9.77614 6.583 10 6.35914 10 6.083V5.542H14V6.083C14 6.35914 14.2239 6.583 14.5 6.583C14.7761 6.583 15 6.35914 15 6.083V5.542H17.1241C17.3319 5.542 17.5 5.71757 17.5 5.935V18.731C17.5 18.9494 17.332 19.125 17.1241 19.125H6.87591C6.66801 19.125 6.5 18.9494 6.5 18.731V5.935C6.5 5.71757 6.66807 5.542 6.87591 5.542ZM14.5714 13.4286C14.808 13.4286 15 13.2366 15 13C15 12.7634 14.808 12.5714 14.5714 12.5714H12.4286V10.4286C12.4286 10.192 12.2366 10 12 10C11.7634 10 11.5714 10.192 11.5714 10.4286V12.5714H9.42857C9.192 12.5714 9 12.7634 9 13C9 13.2366 9.192 13.4286 9.42857 13.4286H11.5714V15.5714C11.5714 15.808 11.7634 16 12 16C12.2366 16 12.4286 15.808 12.4286 15.5714V13.4286H14.5714Z" fill="currentcolor"/>
<path fill-rule="evenodd" clip-rule="evenodd" d="M8.5 4C8.5 3.44772 8.94772 3 9.5 3C10.0523 3 10.5 3.44772 10.5 4V4.042H13.5V4C13.5 3.44772 13.9477 3 14.5 3C15.0523 3 15.5 3.44772 15.5 4V4.042H17.1586C18.1931 4.042 19 4.90681 19 5.935V18.731C19 19.7596 18.1937 20.625 17.1586 20.625H6.84141C5.80628 20.625 5 19.7596 5 18.731V5.935C5 4.90681 5.80685 4.042 6.84141 4.042H8.5V4ZM6.84141 5.042C6.39415 5.042 6 5.42342 6 5.935C6 5.4625 6.37133 5.042 6.87591 5.042H6.84141ZM17.1586 5.042H17.1241C17.6287 5.042 18 5.4625 18 5.935C18 5.42342 17.6058 5.042 17.1586 5.042ZM7 6.042V18.625H17V6.042H15.5V6.083C15.5 6.63528 15.0523 7.083 14.5 7.083C13.9477 7.083 13.5 6.63528 13.5 6.083V6.042H10.5V6.083C10.5 6.63528 10.0523 7.083 9.5 7.083C8.94772 7.083 8.5 6.63528 8.5 6.083V6.042H7ZM11.0714 10.4286C11.0714 9.91586 11.4873 9.5 12 9.5C12.5127 9.5 12.9286 9.91586 12.9286 10.4286V12.0714H14.5714C15.0841 12.0714 15.5 12.4873 15.5 13C15.5 13.5127 15.0841 13.9286 14.5714 13.9286H12.9286V15.5714C12.9286 16.0841 12.5127 16.5 12 16.5C11.4873 16.5 11.0714 16.0841 11.0714 15.5714V13.9286H9.42857C8.91586 13.9286 8.5 13.5127 8.5 13C8.5 12.4873 8.91586 12.0714 9.42857 12.0714H11.0714V10.4286ZM6.87591 19.625C6.37034 19.625 6 19.2035 6 18.731C6 19.2437 6.39426 19.625 6.84141 19.625H6.87591ZM18 18.731C18 19.2035 17.6297 19.625 17.1241 19.625H17.1586C17.6057 19.625 18 19.2437 18 18.731Z" fill="currentcolor"/>
</svg>
