<svg width="24" height="24" viewBox="0 0 24 24" fill="none" xmlns="http://www.w3.org/2000/svg">
<path fill-rule="evenodd" clip-rule="evenodd" d="M9.5 3.5C9.22386 3.5 9 3.72386 9 4V4.542H6.84141C6.1005 4.542 5.5 5.16512 5.5 5.935V18.731C5.5 19.5016 6.10027 20.125 6.84141 20.125H17.1586C17.8997 20.125 18.5 19.5016 18.5 18.731V5.935C18.5 5.16512 17.8995 4.542 17.1586 4.542H15V4C15 3.72386 14.7761 3.5 14.5 3.5C14.2239 3.5 14 3.72386 14 4V4.542H10V4C10 3.72386 9.77614 3.5 9.5 3.5ZM6.87591 5.542H9V6.083C9 6.35914 9.22386 6.583 9.5 6.583C9.77614 6.583 10 6.35914 10 6.083V5.542H14V6.083C14 6.35914 14.2239 6.583 14.5 6.583C14.7761 6.583 15 6.35914 15 6.083V5.542H17.1241C17.3319 5.542 17.5 5.71757 17.5 5.935V18.731C17.5 18.9494 17.332 19.125 17.1241 19.125H6.87591C6.66801 19.125 6.5 18.9494 6.5 18.731V5.935C6.5 5.71757 6.66807 5.542 6.87591 5.542ZM10.719 14.8786L14.2515 11.1361C14.4227 10.9546 14.7004 10.9546 14.8716 11.1361C15.0428 11.3175 15.0428 11.6116 14.8716 11.793L11.0293 15.8639C10.858 16.0454 10.5804 16.0454 10.4092 15.8639L9.12842 14.507C8.95719 14.3256 8.95719 14.0314 9.12842 13.85C9.29964 13.6686 9.57725 13.6686 9.74848 13.85L10.719 14.8786Z" fill="currentcolor"/>
<path fill-rule="evenodd" clip-rule="evenodd" d="M8.5 4C8.5 3.44772 8.94772 3 9.5 3C10.0523 3 10.5 3.44772 10.5 4V4.042H13.5V4C13.5 3.44772 13.9477 3 14.5 3C15.0523 3 15.5 3.44772 15.5 4V4.042H17.1586C18.1931 4.042 19 4.90681 19 5.935V18.731C19 19.7596 18.1937 20.625 17.1586 20.625H6.84141C5.80628 20.625 5 19.7596 5 18.731V5.935C5 4.90681 5.80685 4.042 6.84141 4.042H8.5V4ZM6.84141 5.042C6.39415 5.042 6 5.42342 6 5.935C6 5.4625 6.37133 5.042 6.87591 5.042H6.84141ZM17.1586 5.042H17.1241C17.6287 5.042 18 5.4625 18 5.935C18 5.42342 17.6058 5.042 17.1586 5.042ZM7 6.042V18.625H17V6.042H15.5V6.083C15.5 6.63528 15.0523 7.083 14.5 7.083C13.9477 7.083 13.5 6.63528 13.5 6.083V6.042H10.5V6.083C10.5 6.63528 10.0523 7.083 9.5 7.083C8.94772 7.083 8.5 6.63528 8.5 6.083V6.042H7ZM13.8879 10.7929C14.2565 10.4024 14.8666 10.4024 15.2352 10.7929L14.8716 11.1361L15.2352 10.7929C15.5883 11.1669 15.5883 11.7621 15.2352 12.1362L11.3929 16.2071C11.0243 16.5976 10.4141 16.5976 10.0456 16.2071L8.7648 14.8502C8.41173 14.4761 8.41173 13.8809 8.7648 13.5068C9.13336 13.1163 9.74354 13.1163 10.1121 13.5068L10.1121 13.5069L10.7191 14.1501L13.8879 10.7929ZM6.87591 19.625C6.37034 19.625 6 19.2035 6 18.731C6 19.2437 6.39426 19.625 6.84141 19.625H6.87591ZM18 18.731C18 19.2035 17.6297 19.625 17.1241 19.625H17.1586C17.6057 19.625 18 19.2437 18 18.731Z" fill="currentcolor"/>
</svg>
