<svg width="24" height="24" viewBox="0 0 24 24" fill="none" xmlns="http://www.w3.org/2000/svg">
<path fill-rule="evenodd" clip-rule="evenodd" d="M8.6251 4C8.6251 3.72386 8.84896 3.5 9.1251 3.5C9.40124 3.5 9.6251 3.72386 9.6251 4V4.542H11.7501V4C11.7501 3.72386 11.974 3.5 12.2501 3.5C12.5262 3.5 12.7501 3.72386 12.7501 4V4.542H14.8751V4C14.8751 3.72386 15.099 3.5 15.3751 3.5C15.6512 3.5 15.8751 3.72386 15.8751 4V4.542H17.607C18.3764 4.542 19 5.16512 19 5.935V18.731C19 19.5016 18.3766 20.125 17.607 20.125H6.893C6.12336 20.125 5.5 19.5016 5.5 18.731V5.935C5.5 5.16512 6.1236 4.542 6.893 4.542H8.6251V4ZM8.6251 5.542H6.893C6.67571 5.542 6.5 5.71757 6.5 5.935V18.731C6.5 18.9494 6.67564 19.125 6.893 19.125H17.607C17.8244 19.125 18 18.9494 18 18.731V5.935C18 5.71757 17.8243 5.542 17.607 5.542H15.8751V6.083C15.8751 6.35914 15.6512 6.583 15.3751 6.583C15.099 6.583 14.8751 6.35914 14.8751 6.083V5.542H12.7501V6.083C12.7501 6.35914 12.5262 6.583 12.2501 6.583C11.974 6.583 11.7501 6.35914 11.7501 6.083V5.542H9.6251V6.083C9.6251 6.35914 9.40124 6.583 9.1251 6.583C8.84896 6.583 8.6251 6.35914 8.6251 6.083V5.542ZM8.2476 11.625C8.2476 11.9011 8.47146 12.125 8.7476 12.125H14.7476C15.0237 12.125 15.2476 11.9011 15.2476 11.625C15.2476 11.3489 15.0237 11.125 14.7476 11.125H8.7476C8.47146 11.125 8.2476 11.3489 8.2476 11.625ZM8.2476 14.625C8.2476 14.9011 8.47146 15.125 8.7476 15.125H13.7476C14.0237 15.125 14.2476 14.9011 14.2476 14.625C14.2476 14.3489 14.0237 14.125 13.7476 14.125H8.7476C8.47146 14.125 8.2476 14.3489 8.2476 14.625Z" fill="currentcolor"/>
</svg>
