<svg width="24" height="24" viewBox="0 0 24 24" fill="none" xmlns="http://www.w3.org/2000/svg">
<path fill-rule="evenodd" clip-rule="evenodd" d="M9 4C9 3.72386 9.22386 3.5 9.5 3.5C9.77614 3.5 10 3.72386 10 4V4.542H14V4C14 3.72386 14.2239 3.5 14.5 3.5C14.7761 3.5 15 3.72386 15 4V4.542H17.1586C17.8995 4.542 18.5 5.16512 18.5 5.935V18.731C18.5 19.5016 17.8997 20.125 17.1586 20.125H6.84141C6.10027 20.125 5.5 19.5016 5.5 18.731V5.935C5.5 5.16512 6.1005 4.542 6.84141 4.542H9V4ZM9 5.542H6.87591C6.66807 5.542 6.5 5.71757 6.5 5.935V18.731C6.5 18.9494 6.66801 19.125 6.87591 19.125H17.1241C17.332 19.125 17.5 18.9494 17.5 18.731V5.935C17.5 5.71757 17.3319 5.542 17.1241 5.542H15V6.083C15 6.35914 14.7761 6.583 14.5 6.583C14.2239 6.583 14 6.35914 14 6.083V5.542H10V6.083C10 6.35914 9.77614 6.583 9.5 6.583C9.22386 6.583 9 6.35914 9 6.083V5.542Z" fill="currentcolor"/>
<path fill-rule="evenodd" clip-rule="evenodd" d="M8.5 4C8.5 3.44772 8.94772 3 9.5 3C10.0523 3 10.5 3.44772 10.5 4V4.042H13.5V4C13.5 3.44772 13.9477 3 14.5 3C15.0523 3 15.5 3.44772 15.5 4V4.042H17.1586C18.1931 4.042 19 4.90681 19 5.935V18.731C19 19.7596 18.1937 20.625 17.1586 20.625H6.84141C5.80628 20.625 5 19.7596 5 18.731V5.935C5 4.90681 5.80685 4.042 6.84141 4.042H8.5V4ZM6.84141 5.042C6.39415 5.042 6 5.42342 6 5.935C6 5.4625 6.37133 5.042 6.87591 5.042H6.84141ZM17.1586 5.042H17.1241C17.6287 5.042 18 5.4625 18 5.935C18 5.42342 17.6058 5.042 17.1586 5.042ZM7 6.042V18.625H17V6.042H15.5V6.083C15.5 6.63528 15.0523 7.083 14.5 7.083C13.9477 7.083 13.5 6.63528 13.5 6.083V6.042H10.5V6.083C10.5 6.63528 10.0523 7.083 9.5 7.083C8.94772 7.083 8.5 6.63528 8.5 6.083V6.042H7ZM6.87591 19.625C6.37034 19.625 6 19.2035 6 18.731C6 19.2437 6.39426 19.625 6.84141 19.625H6.87591ZM18 18.731C18 19.2035 17.6297 19.625 17.1241 19.625H17.1586C17.6057 19.625 18 19.2437 18 18.731Z" fill="currentcolor"/>
<path d="M9.42857 12C9.19188 12 9 11.7761 9 11.5C9 11.2239 9.19188 11 9.42857 11H14.5714C14.8081 11 15 11.2239 15 11.5C15 11.7761 14.8081 12 14.5714 12H9.42857Z" fill="currentcolor" stroke="currentcolor"/>
<path d="M9.41667 16C9.18655 16 9 15.7761 9 15.5C9 15.2239 9.18655 15 9.41667 15H13.5833C13.8135 15 14 15.2239 14 15.5C14 15.7761 13.8135 16 13.5833 16H9.41667Z" fill="currentcolor" stroke="currentcolor"/>
</svg>
