<svg width="24" height="24" viewBox="0 0 24 24" fill="none" xmlns="http://www.w3.org/2000/svg">
<path d="M9 6H12V9H9V6Z" fill="currentcolor"/>
<path d="M14 7H17V10H14V7Z" fill="currentcolor"/>
<path d="M6 10H9V13H6V10Z" fill="currentcolor"/>
<path fill-rule="evenodd" clip-rule="evenodd" d="M1 12C1 5.92487 5.92487 1 12 1C18.0751 1 23 5.92487 23 12V16H16V23H12C5.92487 23 1 18.0751 1 12ZM12 3C7.02944 3 3 7.02944 3 12C3 16.9706 7.02944 21 12 21H14V14H21V12C21 7.02944 16.9706 3 12 3Z" fill="currentcolor"/>
</svg>
