<svg width="24" height="24" viewBox="0 0 24 24" fill="none" xmlns="http://www.w3.org/2000/svg">
<path d="M8.67636 13.0394C8.4959 13.2374 8.49502 13.5587 8.67446 13.7578C8.85419 13.9565 9.14613 13.9575 9.32675 13.7597L13.0449 9.69644C13.0497 9.69112 13.0544 9.6858 13.0591 9.68015L13.0594 9.68047C13.6275 8.99894 14.2505 8.82408 14.7346 8.97006C14.9093 9.02281 15.0665 9.11734 15.1953 9.24381C15.3213 9.36769 15.4207 9.52465 15.4833 9.70548C15.646 10.176 15.5471 10.8137 15.0128 11.4754L8.24849 18.9244C8.23926 18.9345 8.23062 18.9449 8.22241 18.9555C7.33663 19.9542 6.28254 20.1594 5.4391 19.8493C5.11449 19.7303 4.82079 19.5356 4.58042 19.2818C4.34136 19.0296 4.15503 18.7195 4.04312 18.3682C3.74678 17.4356 3.97017 16.1902 5.10336 14.8947L5.1038 14.8944C6.14265 13.7466 7.11999 12.5699 8.0856 11.407C9.99602 9.10669 11.8599 6.86254 14.2094 4.87116C15.1105 4.108 16.2352 3.88248 17.2619 4.08541C17.7105 4.17397 18.1394 4.34416 18.5215 4.58644C18.897 4.8247 19.2278 5.13393 19.4872 5.50495C19.9601 6.18165 20.1928 7.07337 20.0214 8.12544C19.7339 9.89099 18.8257 10.8893 17.7315 12.0924C17.6196 12.2153 17.5057 12.3403 17.3912 12.4679L13.9071 16.3416L12.7285 17.652C12.5489 17.851 12.5498 18.1725 12.7304 18.3703C12.9109 18.5682 13.203 18.5672 13.3826 18.3683L14.561 17.0577L18.0452 13.1841C18.1592 13.0572 18.2716 12.934 18.3819 12.8126C19.5881 11.4863 20.5894 10.3857 20.9283 8.30449C21.1502 6.94271 20.8413 5.77724 20.2171 4.88422C19.8843 4.40787 19.4609 4.01169 18.9804 3.70698C18.5062 3.40629 17.9765 3.19562 17.4244 3.08658C16.158 2.83638 14.7664 3.11803 13.6458 4.06767C11.2405 6.10615 9.34696 8.38612 7.40621 10.7227C6.45993 11.8622 5.50209 13.0154 4.44902 14.1789C4.44551 14.1827 4.44184 14.1865 4.43847 14.1906C3.02448 15.8069 2.77048 17.4389 3.17213 18.7023C3.3337 19.2101 3.6003 19.6546 3.94073 20.0142C4.27969 20.3718 4.69204 20.6456 5.14613 20.8125C6.29822 21.236 7.71793 20.9785 8.88202 19.6654C8.88891 19.6588 8.89565 19.6519 8.90224 19.6446L15.6683 12.1939L15.6678 12.1935C15.6735 12.1872 15.6791 12.1806 15.6845 12.174C16.4984 11.1802 16.6245 10.1467 16.3468 9.3435C16.2321 9.012 16.0465 8.721 15.8095 8.4879C15.5751 8.25755 15.2911 8.0864 14.9766 7.99139C14.1892 7.75378 13.215 7.99187 12.3815 8.99055L8.67636 13.0394V13.0394Z" fill="currentcolor"/>
</svg>
