<svg width="24" height="24" viewBox="0 0 24 24" fill="none" xmlns="http://www.w3.org/2000/svg">
<path d="M10.999 7C10.999 5.622 12.121 4.5 13.499 4.5C14.877 4.5 15.999 5.622 15.999 7C15.999 8.378 14.877 9.5 13.499 9.5C12.8462 9.5 12.2509 9.24823 11.8051 8.83675C11.9306 9.19447 12 9.58751 12 10C12 10.054 11.9988 10.1076 11.9965 10.1609C12.452 10.3782 12.9615 10.5 13.499 10.5C15.429 10.5 16.999 8.93 16.999 7C16.999 5.07 15.429 3.5 13.499 3.5C11.569 3.5 9.999 5.07 9.999 7C9.999 7.02 9.99917 7.03997 9.99951 7.05989C10.4107 7.15995 10.7852 7.3811 11.0962 7.69098C11.0329 7.47143 10.999 7.23958 10.999 7Z" fill="currentcolor"/>
<path d="M9.16828 12.9738C8.92292 13.1928 8.70531 13.4274 8.51233 13.6711L9.22728 13.5L9.9081 13.6507C10.7156 12.9772 11.8648 12.5 13.5003 12.5C17.9983 12.5 18.8183 16.137 18.9673 17.5H14.4582L14.8625 18.3083L14.9011 18.5H19.5003C19.7763 18.5 20.0003 18.276 20.0003 18C20.0003 17.935 19.9263 11.5 13.5003 11.5C12.768 11.5 12.1183 11.5836 11.5417 11.7317C11.0889 12.4991 10.3432 13 9.5 13C9.38754 13 9.27681 12.9911 9.16828 12.9738Z" fill="currentcolor"/>
<path fill-rule="evenodd" clip-rule="evenodd" d="M8.98163 13.0204C7.59432 12.7691 6.53736 11.5253 6.53736 10.0333C6.53736 8.36067 7.86582 7 9.4989 7C11.132 7 12.4604 8.36067 12.4604 10.0333C12.4604 11.5251 11.4038 12.7687 10.0168 13.0202C14.9414 13.4144 15 19.4371 15 19.5C15 19.776 14.8105 20 14.5769 20H4.42308C4.18869 20 4 19.776 4 19.5C4 19.4371 4.05857 13.4157 8.98163 13.0204ZM7.38352 10.0333C7.38352 8.83907 8.3329 7.86667 9.4989 7.86667C10.6649 7.86667 11.6143 8.83907 11.6143 10.0333C11.6143 11.2276 10.6649 12.2 9.4989 12.2C8.3329 12.2 7.38352 11.2276 7.38352 10.0333ZM9.50082 14C13.2025 14 13.8774 17.637 14 19H5C5.11933 17.637 5.78511 14 9.50082 14Z" fill="currentcolor"/>
</svg>
