<svg width="24" height="24" viewBox="0 0 24 24" fill="none" xmlns="http://www.w3.org/2000/svg">
<path d="M10.999 7C10.999 5.622 12.121 4.5 13.499 4.5C14.877 4.5 15.999 5.622 15.999 7C15.999 8.378 14.877 9.5 13.499 9.5C12.8462 9.5 12.2509 9.24823 11.8051 8.83675C11.9306 9.19447 12 9.58751 12 10C12 10.054 11.9988 10.1076 11.9965 10.1609C12.452 10.3782 12.9615 10.5 13.499 10.5C15.429 10.5 16.999 8.93 16.999 7C16.999 5.07 15.429 3.5 13.499 3.5C11.569 3.5 9.999 5.07 9.999 7C9.999 7.02 9.99917 7.03997 9.99951 7.05989C10.4107 7.15995 10.7852 7.3811 11.0962 7.69098C11.0329 7.47143 10.999 7.23958 10.999 7Z" fill="currentcolor"/>
<path d="M9.16828 12.9738C8.92292 13.1928 8.70531 13.4274 8.51233 13.6711L9.22728 13.5L9.9081 13.6507C10.7156 12.9772 11.8648 12.5 13.5003 12.5C17.9983 12.5 18.8183 16.137 18.9673 17.5H14.4582L14.8625 18.3083L14.9011 18.5H19.5003C19.7763 18.5 20.0003 18.276 20.0003 18C20.0003 17.935 19.9263 11.5 13.5003 11.5C12.768 11.5 12.1183 11.5836 11.5417 11.7317C11.0889 12.4991 10.3432 13 9.5 13C9.38754 13 9.27681 12.9911 9.16828 12.9738Z" fill="currentcolor"/>
<path fill-rule="evenodd" clip-rule="evenodd" d="M8.98163 13.0204C7.59432 12.7691 6.53736 11.5253 6.53736 10.0333C6.53736 8.36067 7.86582 7 9.4989 7C11.132 7 12.4604 8.36067 12.4604 10.0333C12.4604 11.5251 11.4038 12.7687 10.0168 13.0202C14.9414 13.4144 15 19.4371 15 19.5C15 19.776 14.8105 20 14.5769 20H4.42308C4.18869 20 4 19.776 4 19.5C4 19.4371 4.05857 13.4157 8.98163 13.0204ZM7.38352 10.0333C7.38352 8.83907 8.3329 7.86667 9.4989 7.86667C10.6649 7.86667 11.6143 8.83907 11.6143 10.0333C11.6143 11.2276 10.6649 12.2 9.4989 12.2C8.3329 12.2 7.38352 11.2276 7.38352 10.0333ZM9.50082 14C13.2025 14 13.8774 17.637 14 19H5C5.11933 17.637 5.78511 14 9.50082 14Z" fill="currentcolor"/>
<path fill-rule="evenodd" clip-rule="evenodd" d="M9.53006 6.50014C9.77668 4.52917 11.4621 3 13.499 3C15.7051 3 17.499 4.79386 17.499 7C17.499 9.20614 15.7051 11 13.499 11C13.2759 11 13.0568 10.9816 12.8433 10.9462C12.8365 10.9722 12.8294 10.998 12.822 11.0237C13.0406 11.0081 13.2662 11 13.499 11C13.4994 11 13.4999 11 13.5003 11C15.1945 11 16.5024 11.4256 17.5034 12.0899C18.5012 12.7521 19.1651 13.632 19.6058 14.4991C20.4799 16.2189 20.5003 17.9364 20.5003 18C20.5003 18.5521 20.0524 19 19.5003 19H15.4726C15.4983 19.2972 15.5 19.4813 15.5 19.5C15.5 19.9706 15.1616 20.5 14.5769 20.5H4.42308C3.83692 20.5 3.5 19.9699 3.5 19.5C3.5 19.4431 3.51583 17.8475 4.18094 16.1979C4.71218 14.8803 5.68162 13.4832 7.40935 12.8491C6.57419 12.2018 6.03736 11.1779 6.03736 10.0333C6.03736 8.09588 7.57846 6.5 9.4989 6.5C9.5093 6.5 9.51968 6.50005 9.53006 6.50014ZM7.79177 13.7756C7.65229 13.8255 7.51876 13.8815 7.39092 13.9429C7.51846 13.8825 7.6514 13.8273 7.78992 13.778L7.79177 13.7756ZM10.779 13.6491C11.1984 13.7533 11.5724 13.9082 11.9055 14.101C11.5752 13.9067 11.2026 13.7514 10.782 13.6474C10.781 13.6479 10.78 13.6485 10.779 13.6491ZM12.2042 13.1213C13.5539 13.8314 14.354 15.0448 14.8189 16.1974C14.9282 16.4686 15.02 16.7383 15.0971 17H18.3854C18.2593 16.3577 17.9979 15.5214 17.4604 14.7831C16.7686 13.8328 15.5894 13 13.5003 13C13.0213 13 12.591 13.0435 12.2042 13.1213ZM12.3148 12.0866C12.6831 12.0301 13.0777 12 13.5003 12C15.3932 12 16.7124 12.6087 17.6176 13.456C17.4171 13.2648 17.1954 13.0857 16.9504 12.9231C16.1302 12.3788 15.0191 12 13.5003 12C13.0738 12 12.6799 12.0299 12.3161 12.0847C12.3156 12.0853 12.3152 12.0859 12.3148 12.0866ZM12.9595 9.95147C13.1344 9.98334 13.3147 10 13.499 10C13.3149 10 13.1346 9.98329 12.9595 9.95134C12.9595 9.95138 12.9595 9.95142 12.9595 9.95147ZM12.764 8.85998C12.9917 8.9504 13.2397 9 13.499 9C14.6009 9 15.499 8.10186 15.499 7C15.499 5.89814 14.6009 5 13.499 5C12.3971 5 11.499 5.89814 11.499 7C11.499 7.05206 11.501 7.10362 11.5049 7.1546C12.0809 7.57422 12.525 8.16903 12.764 8.85998ZM9.4989 8.36667C8.62027 8.36667 7.88352 9.10385 7.88352 10.0333C7.88352 10.9628 8.62027 11.7 9.4989 11.7C10.3775 11.7 11.1143 10.9628 11.1143 10.0333C11.1143 9.10385 10.3775 8.36667 9.4989 8.36667ZM5.56469 18.5H13.4339C13.3299 17.8476 13.1126 16.9953 12.6636 16.2458C12.0916 15.2909 11.1475 14.5 9.50082 14.5C7.84643 14.5 6.90152 15.2916 6.33086 16.2456C5.8825 16.9951 5.66712 17.8476 5.56469 18.5Z" fill="currentcolor"/>
</svg>
