<svg width="24" height="24" viewBox="0 0 24 24" fill="none" xmlns="http://www.w3.org/2000/svg">
<path fill-rule="evenodd" clip-rule="evenodd" d="M15.781 6.00018C16.4242 6.00018 17.0158 6.34928 17.3264 6.91193L19.1317 10.1714L20.7999 10.833C21.4621 11.0982 21.897 11.7394 21.897 12.4532V14.7752C21.897 15.7391 21.1154 16.5212 20.152 16.5212H19.928C19.6164 17.6412 18.589 18.4633 17.3698 18.4633C16.1506 18.4633 15.1232 17.6412 14.8116 16.5212H9.2894C9.26402 16.5212 9.23907 16.5193 9.2147 16.5156C8.90503 17.6385 7.8762 18.4633 6.655 18.4633C5.43581 18.4633 4.40836 17.6412 4.09683 16.5212H3.617C2.72336 16.5212 2 15.7978 2 14.9052V12.2662C2 11.6559 2.39688 11.1181 2.97997 10.9383L6.0345 9.99855L8.18997 6.76583C8.50872 6.28772 9.04684 6.00018 9.622 6.00018H15.781ZM9.29463 15.5212H14.7302C14.8734 14.1908 16.0009 13.1543 17.3698 13.1543C18.7387 13.1543 19.8662 14.1908 20.0094 15.5212H20.152C20.563 15.5212 20.897 15.1869 20.897 14.7752V12.4532C20.897 12.1485 20.7113 11.8747 20.4297 11.762L18.5967 11.035C18.4891 10.9923 18.3997 10.9137 18.3436 10.8124L16.4513 7.39581C16.3163 7.15137 16.0601 7.00018 15.781 7.00018H9.622C9.38094 7.00018 9.15516 7.12083 9.02201 7.32056L6.8538 10.5724C6.73398 10.7532 6.55466 10.8874 6.35203 10.9471L3.27431 11.894C3.11089 11.9444 3 12.0947 3 12.2662V14.9052C3 15.2455 3.27564 15.5212 3.617 15.5212H4.01537C4.15864 14.1908 5.28609 13.1543 6.655 13.1543C8.02391 13.1543 9.15136 14.1908 9.29463 15.5212ZM8.31 15.8083C8.31 14.8953 7.56874 14.1543 6.655 14.1543C5.74126 14.1543 5 14.8953 5 15.8083C5 16.7221 5.74114 17.4633 6.655 17.4633C7.56886 17.4633 8.31 16.7221 8.31 15.8083ZM17.3698 14.1543C18.2835 14.1543 19.0248 14.8953 19.0248 15.8083C19.0248 16.7221 18.2837 17.4633 17.3698 17.4633C16.4559 17.4633 15.7148 16.7221 15.7148 15.8083C15.7148 14.8953 16.4561 14.1543 17.3698 14.1543Z" fill="currentcolor"/>
</svg>
