<svg width="24" height="24" viewBox="0 0 24 24" fill="none" xmlns="http://www.w3.org/2000/svg">
<path fill-rule="evenodd" clip-rule="evenodd" d="M15.781 6.00018C16.4242 6.00018 17.0158 6.34928 17.3264 6.91193L19.1317 10.1714L20.7999 10.833C21.4621 11.0982 21.897 11.7394 21.897 12.4532V14.7752C21.897 15.7391 21.1154 16.5212 20.152 16.5212H19.928C19.6164 17.6412 18.589 18.4633 17.3698 18.4633C16.1506 18.4633 15.1232 17.6412 14.8116 16.5212H9.2894C9.26402 16.5212 9.23907 16.5193 9.2147 16.5156C8.90503 17.6385 7.8762 18.4633 6.655 18.4633C5.43581 18.4633 4.40836 17.6412 4.09683 16.5212H3.617C2.72336 16.5212 2 15.7978 2 14.9052V12.2662C2 11.6559 2.39688 11.1181 2.97997 10.9383L6.0345 9.99855L8.18997 6.76583C8.50872 6.28772 9.04684 6.00018 9.622 6.00018H15.781ZM9.29463 15.5212H14.7302C14.8734 14.1908 16.0009 13.1543 17.3698 13.1543C18.7387 13.1543 19.8662 14.1908 20.0094 15.5212H20.152C20.563 15.5212 20.897 15.1869 20.897 14.7752V12.4532C20.897 12.1485 20.7113 11.8747 20.4297 11.762L18.5967 11.035C18.4891 10.9923 18.3997 10.9137 18.3436 10.8124L16.4513 7.39581C16.3163 7.15137 16.0601 7.00018 15.781 7.00018H9.622C9.38094 7.00018 9.15516 7.12083 9.02201 7.32056L6.8538 10.5724C6.73398 10.7532 6.55466 10.8874 6.35203 10.9471L3.27431 11.894C3.11089 11.9444 3 12.0947 3 12.2662V14.9052C3 15.2455 3.27564 15.5212 3.617 15.5212H4.01537C4.15864 14.1908 5.28609 13.1543 6.655 13.1543C8.02391 13.1543 9.15136 14.1908 9.29463 15.5212ZM8.31 15.8083C8.31 14.8953 7.56874 14.1543 6.655 14.1543C5.74126 14.1543 5 14.8953 5 15.8083C5 16.7221 5.74114 17.4633 6.655 17.4633C7.56886 17.4633 8.31 16.7221 8.31 15.8083ZM17.3698 14.1543C18.2835 14.1543 19.0248 14.8953 19.0248 15.8083C19.0248 16.7221 18.2837 17.4633 17.3698 17.4633C16.4559 17.4633 15.7148 16.7221 15.7148 15.8083C15.7148 14.8953 16.4561 14.1543 17.3698 14.1543Z" fill="currentcolor"/>
<path d="M17.3264 6.91193L16.8886 7.15355L16.889 7.15418L17.3264 6.91193ZM19.1317 10.1714L18.6943 10.4136L18.781 10.5702L18.9473 10.6362L19.1317 10.1714ZM20.7999 10.833L20.9857 10.3688L20.9842 10.3682L20.7999 10.833ZM19.928 16.5212V16.0212H19.5481L19.4463 16.3872L19.928 16.5212ZM14.8116 16.5212L15.2933 16.3872L15.1915 16.0212H14.8116V16.5212ZM9.2147 16.5156L9.28877 16.0212L8.85052 15.9555L8.7327 16.3827L9.2147 16.5156ZM4.09683 16.5212L4.57854 16.3872L4.47674 16.0212H4.09683V16.5212ZM2.97997 10.9383L2.83294 10.4604L2.83266 10.4605L2.97997 10.9383ZM6.0345 9.99855L6.18153 10.4764L6.35172 10.4241L6.45051 10.2759L6.0345 9.99855ZM8.18997 6.76583L8.60598 7.04321L8.606 7.04318L8.18997 6.76583ZM14.7302 15.5212V16.0212H15.1792L15.2273 15.5747L14.7302 15.5212ZM9.29463 15.5212L8.79751 15.5747L8.84559 16.0212H9.29463V15.5212ZM20.0094 15.5212L19.5123 15.5747L19.5604 16.0212H20.0094V15.5212ZM20.4297 11.762L20.6155 11.2978L20.614 11.2972L20.4297 11.762ZM18.5967 11.035L18.4123 11.4997L18.5967 11.035ZM18.3436 10.8124L17.9062 11.0547L17.9062 11.0547L18.3436 10.8124ZM16.4513 7.39581L16.0135 7.63743L16.0139 7.63806L16.4513 7.39581ZM9.02201 7.32056L9.43801 7.59794L9.43803 7.59791L9.02201 7.32056ZM6.8538 10.5724L6.43779 10.295L6.437 10.2962L6.8538 10.5724ZM6.35203 10.9471L6.21074 10.4674L6.205 10.4692L6.35203 10.9471ZM3.27431 11.894L3.12728 11.4161L3.127 11.4162L3.27431 11.894ZM4.01537 15.5212V16.0212H4.46441L4.51249 15.5747L4.01537 15.5212ZM17.7641 6.6703C17.3655 5.94813 16.6061 5.50018 15.781 5.50018V6.50018C16.2423 6.50018 16.6661 6.75043 16.8887 7.15355L17.7641 6.6703ZM19.5691 9.92913L17.7638 6.66967L16.889 7.15418L18.6943 10.4136L19.5691 9.92913ZM20.9842 10.3682L19.316 9.7066L18.9473 10.6362L20.6155 11.2978L20.9842 10.3682ZM22.397 12.4532C22.397 11.5346 21.8374 10.7099 20.9857 10.3688L20.614 11.2972C21.0869 11.4865 21.397 11.9441 21.397 12.4532H22.397ZM22.397 14.7752V12.4532H21.397V14.7752H22.397ZM20.152 17.0212C21.3918 17.0212 22.397 16.015 22.397 14.7752H21.397C21.397 15.4632 20.8389 16.0212 20.152 16.0212V17.0212ZM19.928 17.0212H20.152V16.0212H19.928V17.0212ZM17.3698 18.9633C18.8194 18.9633 20.0396 17.9858 20.4097 16.6552L19.4463 16.3872C19.1933 17.2965 18.3586 17.9633 17.3698 17.9633V18.9633ZM14.3299 16.6552C14.7 17.9858 15.9202 18.9633 17.3698 18.9633V17.9633C16.381 17.9633 15.5463 17.2965 15.2933 16.3872L14.3299 16.6552ZM9.2894 17.0212H14.8116V16.0212H9.2894V17.0212ZM9.14064 17.0101C9.18944 17.0174 9.23914 17.0212 9.2894 17.0212V16.0212L9.28877 16.0212L9.14064 17.0101ZM6.655 18.9633C8.10695 18.9633 9.32878 17.9826 9.69671 16.6486L8.7327 16.3827C8.48127 17.2943 7.64545 17.9633 6.655 17.9633V18.9633ZM3.61512 16.6552C3.98524 17.9858 5.20544 18.9633 6.655 18.9633V17.9633C5.66618 17.9633 4.83148 17.2965 4.57854 16.3872L3.61512 16.6552ZM3.617 17.0212H4.09683V16.0212H3.617V17.0212ZM1.5 14.9052C1.5 16.0742 2.44742 17.0212 3.617 17.0212V16.0212C2.9993 16.0212 2.5 15.5215 2.5 14.9052H1.5ZM1.5 12.2662V14.9052H2.5V12.2662H1.5ZM2.83266 10.4605C2.03981 10.7049 1.5 11.4366 1.5 12.2662H2.5C2.5 11.8752 2.75395 11.5312 3.12728 11.4161L2.83266 10.4605ZM5.88747 9.52065L2.83294 10.4604L3.12699 11.4162L6.18153 10.4764L5.88747 9.52065ZM7.77397 6.48845L5.6185 9.72117L6.45051 10.2759L8.60598 7.04321L7.77397 6.48845ZM9.622 5.50018C8.88002 5.50018 8.18562 5.87097 7.77395 6.48848L8.606 7.04318C8.83181 6.70447 9.21366 6.50018 9.622 6.50018V5.50018ZM15.781 5.50018H9.622V6.50018H15.781V5.50018ZM14.7302 15.0212H9.29463V16.0212H14.7302V15.0212ZM17.3698 12.6543C15.7428 12.6543 14.4034 13.8859 14.233 15.4676L15.2273 15.5747C15.3435 14.4956 16.259 13.6543 17.3698 13.6543V12.6543ZM20.5066 15.4676C20.3362 13.8859 18.9968 12.6543 17.3698 12.6543V13.6543C18.4806 13.6543 19.3961 14.4956 19.5123 15.5747L20.5066 15.4676ZM20.152 15.0212H20.0094V16.0212H20.152V15.0212ZM20.397 14.7752C20.397 14.9113 20.2863 15.0212 20.152 15.0212V16.0212C20.8396 16.0212 21.397 15.4626 21.397 14.7752H20.397ZM20.397 12.4532V14.7752H21.397V12.4532H20.397ZM20.2438 12.2261C20.3357 12.2629 20.397 12.3529 20.397 12.4532H21.397C21.397 11.9442 21.0869 11.4866 20.6155 11.2978L20.2438 12.2261ZM18.4123 11.4997L20.2453 12.2267L20.614 11.2972L18.781 10.5702L18.4123 11.4997ZM17.9062 11.0547C18.0183 11.2571 18.1972 11.4144 18.4123 11.4997L18.781 10.5702L18.781 10.5702L17.9062 11.0547ZM16.0139 7.63806L17.9062 11.0547L18.781 10.5702L16.8887 7.15355L16.0139 7.63806ZM15.781 7.50018C15.8781 7.50018 15.9666 7.55242 16.0135 7.63743L16.889 7.15418C16.6661 6.75033 16.2422 6.50018 15.781 6.50018V7.50018ZM9.622 7.50018H15.781V6.50018H9.622V7.50018ZM9.43803 7.59791C9.47809 7.53782 9.54747 7.50018 9.622 7.50018V6.50018C9.21442 6.50018 8.83223 6.70383 8.60598 7.04321L9.43803 7.59791ZM7.2698 10.8498L9.43801 7.59794L8.606 7.04318L6.43779 10.295L7.2698 10.8498ZM6.49331 11.4267C6.8127 11.3326 7.088 11.1241 7.27059 10.8486L6.437 10.2962C6.37997 10.3823 6.29661 10.4422 6.21075 10.4675L6.49331 11.4267ZM3.42134 12.3719L6.49906 11.425L6.205 10.4692L3.12728 11.4161L3.42134 12.3719ZM3.5 12.2662C3.5 12.3136 3.46832 12.3574 3.42163 12.3718L3.127 11.4162C2.75347 11.5313 2.5 11.8757 2.5 12.2662H3.5ZM3.5 14.9052V12.2662H2.5V14.9052H3.5ZM3.617 15.0212C3.55126 15.0212 3.5 14.9689 3.5 14.9052H2.5C2.5 15.5222 3.00003 16.0212 3.617 16.0212V15.0212ZM4.01537 15.0212H3.617V16.0212H4.01537V15.0212ZM6.655 12.6543C5.02802 12.6543 3.68857 13.8859 3.51824 15.4676L4.51249 15.5747C4.6287 14.4956 5.54416 13.6543 6.655 13.6543V12.6543ZM9.79176 15.4676C9.62143 13.8859 8.28198 12.6543 6.655 12.6543V13.6543C7.76584 13.6543 8.6813 14.4956 8.79751 15.5747L9.79176 15.4676ZM6.655 14.6543C7.29284 14.6543 7.81 15.1717 7.81 15.8083H8.81C8.81 14.6189 7.84464 13.6543 6.655 13.6543V14.6543ZM5.5 15.8083C5.5 15.1717 6.01716 14.6543 6.655 14.6543V13.6543C5.46536 13.6543 4.5 14.6189 4.5 15.8083H5.5ZM6.655 16.9633C6.01728 16.9633 5.5 16.446 5.5 15.8083H4.5C4.5 16.9983 5.465 17.9633 6.655 17.9633V16.9633ZM7.81 15.8083C7.81 16.446 7.29272 16.9633 6.655 16.9633V17.9633C7.845 17.9633 8.81 16.9983 8.81 15.8083H7.81ZM19.5248 15.8083C19.5248 14.6189 18.5594 13.6543 17.3698 13.6543V14.6543C18.0076 14.6543 18.5248 15.1717 18.5248 15.8083H19.5248ZM17.3698 17.9633C18.5598 17.9633 19.5248 16.9983 19.5248 15.8083H18.5248C18.5248 16.446 18.0075 16.9633 17.3698 16.9633V17.9633ZM15.2148 15.8083C15.2148 16.9983 16.1798 17.9633 17.3698 17.9633V16.9633C16.7321 16.9633 16.2148 16.446 16.2148 15.8083H15.2148ZM17.3698 13.6543C16.1802 13.6543 15.2148 14.6189 15.2148 15.8083H16.2148C16.2148 15.1717 16.732 14.6543 17.3698 14.6543V13.6543Z" fill="currentcolor"/>
</svg>
