<svg width="24" height="24" viewBox="0 0 24 24" fill="none" xmlns="http://www.w3.org/2000/svg">
<path fill-rule="evenodd" clip-rule="evenodd" d="M17.7027 6.59126L20.148 4.14617C20.3431 3.95106 20.6592 3.95131 20.854 4.14672C21.0489 4.34213 21.0486 4.65872 20.8535 4.85383L18.2064 7.50072L19.1317 9.17138L20.7999 9.83301C21.4621 10.0982 21.897 10.7394 21.897 11.4532V13.7752C21.897 14.7391 21.1154 15.5212 20.152 15.5212H19.928C19.6164 16.6412 18.589 17.4633 17.3698 17.4633C16.1506 17.4633 15.1232 16.6412 14.8116 15.5212H10.1852L4.85204 20.8538C4.65691 21.0489 4.34079 21.0487 4.14596 20.8533C3.95113 20.6579 3.95138 20.3413 4.14651 20.1462L6.8357 17.4572C6.77598 17.4612 6.71573 17.4633 6.655 17.4633C5.43581 17.4633 4.40836 16.6412 4.09683 15.5212H3.617C2.72336 15.5212 2 14.7978 2 13.9052V11.2662C2 10.6559 2.39688 10.1181 2.97997 9.93829L6.0345 8.99855L8.18997 5.76583C8.50872 5.28772 9.04684 5.00018 9.622 5.00018H15.781C16.4242 5.00018 17.0158 5.34928 17.3264 5.91193L17.7027 6.59126ZM16.967 7.32689L16.4513 6.39581C16.3163 6.15137 16.0601 6.00018 15.781 6.00018H9.622C9.38094 6.00018 9.15516 6.12083 9.02201 6.32056L6.8538 9.57237C6.73398 9.75318 6.55466 9.88739 6.35203 9.94708L3.27431 10.894C3.11089 10.9444 3 11.0947 3 11.2662V13.9052C3 14.2455 3.27564 14.5212 3.617 14.5212H4.01537C4.15864 13.1908 5.28609 12.1543 6.655 12.1543C8.02391 12.1543 9.15136 13.1908 9.29463 14.5212H9.77201L16.967 7.32689ZM11.1853 14.5212H14.7302C14.8734 13.1908 16.0009 12.1543 17.3698 12.1543C18.7387 12.1543 19.8662 13.1908 20.0094 14.5212H20.152C20.563 14.5212 20.897 14.1869 20.897 13.7752V11.4532C20.897 11.1485 20.7113 10.8747 20.4297 10.762L18.5967 10.035C18.4891 9.9923 18.3997 9.91366 18.3436 9.81244L17.4707 8.23635L11.1853 14.5212ZM6.655 13.1543C7.56874 13.1543 8.31 13.8953 8.31 14.8083C8.31 15.7221 7.56886 16.4633 6.655 16.4633C5.74114 16.4633 5 15.7221 5 14.8083C5 13.8953 5.74126 13.1543 6.655 13.1543ZM19.0248 14.8083C19.0248 13.8953 18.2835 13.1543 17.3698 13.1543C16.4561 13.1543 15.7148 13.8953 15.7148 14.8083C15.7148 15.7221 16.4559 16.4633 17.3698 16.4633C18.2837 16.4633 19.0248 15.7221 19.0248 14.8083Z" fill="currentcolor"/>
<path d="M20.148 4.14617L20.5015 4.49974L20.5015 4.49974L20.148 4.14617ZM17.7027 6.59126L17.2653 6.83352L17.5868 7.41414L18.0562 6.94483L17.7027 6.59126ZM20.854 4.14672L20.5 4.49974V4.49974L20.854 4.14672ZM20.8535 4.85383L21.207 5.2074L21.207 5.2074L20.8535 4.85383ZM18.2064 7.50072L17.8528 7.14715L17.5865 7.41347L17.769 7.74297L18.2064 7.50072ZM19.1317 9.17138L18.6943 9.41364L18.781 9.57018L18.9473 9.63616L19.1317 9.17138ZM20.7999 9.83301L20.9857 9.36884L20.9842 9.36823L20.7999 9.83301ZM19.928 15.5212V15.0212H19.5481L19.4463 15.3872L19.928 15.5212ZM14.8116 15.5212L15.2933 15.3872L15.1915 15.0212H14.8116V15.5212ZM10.1852 15.5212V15.0212H9.97807L9.83163 15.1676L10.1852 15.5212ZM4.85204 20.8538L5.20557 21.2074L5.20557 21.2074L4.85204 20.8538ZM4.14596 20.8533L4.50004 20.5003L4.14596 20.8533ZM4.14651 20.1462L4.50004 20.4997L4.50004 20.4997L4.14651 20.1462ZM6.8357 17.4572L7.18923 17.8108L8.13112 16.869L6.80215 16.9584L6.8357 17.4572ZM4.09683 15.5212L4.57854 15.3872L4.47674 15.0212H4.09683V15.5212ZM2.97997 9.93829L2.83294 9.4604L2.83266 9.46048L2.97997 9.93829ZM6.0345 8.99855L6.18153 9.47644L6.35172 9.42408L6.45051 9.27593L6.0345 8.99855ZM8.18997 5.76583L8.60598 6.04321L8.606 6.04318L8.18997 5.76583ZM17.3264 5.91193L16.8886 6.15355L16.889 6.15418L17.3264 5.91193ZM16.967 7.32689L17.3205 7.68046L17.5868 7.41414L17.4043 7.08464L16.967 7.32689ZM16.4513 6.39581L16.0135 6.63743L16.0139 6.63806L16.4513 6.39581ZM9.02201 6.32056L9.43801 6.59794L9.43803 6.59791L9.02201 6.32056ZM6.8538 9.57237L6.43779 9.29499L6.437 9.29618L6.8538 9.57237ZM6.35203 9.94708L6.21074 9.46742L6.205 9.46918L6.35203 9.94708ZM3.27431 10.894L3.12728 10.4161L3.127 10.4162L3.27431 10.894ZM4.01537 14.5212V15.0212H4.46441L4.51249 14.5747L4.01537 14.5212ZM9.29463 14.5212L8.79751 14.5747L8.84559 15.0212H9.29463V14.5212ZM9.77201 14.5212V15.0212H9.9791L10.1255 14.8748L9.77201 14.5212ZM11.1853 14.5212L10.8317 14.1676L9.97807 15.0212H11.1853V14.5212ZM14.7302 14.5212V15.0212H15.1792L15.2273 14.5747L14.7302 14.5212ZM20.0094 14.5212L19.5123 14.5747L19.5604 15.0212H20.0094V14.5212ZM20.4297 10.762L20.6155 10.2978L20.614 10.2972L20.4297 10.762ZM18.5967 10.035L18.4123 10.4997L18.5967 10.035ZM18.3436 9.81244L17.9062 10.0547L17.9062 10.0547L18.3436 9.81244ZM17.4707 8.23635L17.9081 7.99409L17.5865 7.41347L17.1171 7.88278L17.4707 8.23635ZM19.7944 3.7926L17.3491 6.23769L18.0562 6.94483L20.5015 4.49974L19.7944 3.7926ZM21.2081 3.7937C20.8181 3.40253 20.185 3.40204 19.7944 3.7926L20.5015 4.49974C20.5021 4.49913 20.5018 4.49953 20.501 4.49987C20.5005 4.50007 20.5004 4.5 20.5007 4.5C20.5011 4.5 20.501 4.50007 20.5005 4.49987C20.4996 4.49953 20.4993 4.49913 20.5 4.49974L21.2081 3.7937ZM21.207 5.2074C21.5972 4.81723 21.5977 4.18447 21.2081 3.7937L20.5 4.49974V4.50026L21.207 5.2074ZM18.5599 7.85428L21.207 5.2074L20.5 4.50026L17.8528 7.14715L18.5599 7.85428ZM17.769 7.74297L18.6943 9.41364L19.5691 8.92913L18.6438 7.25846L17.769 7.74297ZM18.9473 9.63616L20.6155 10.2978L20.9842 9.36823L19.316 8.7066L18.9473 9.63616ZM20.614 10.2972C21.0869 10.4865 21.397 10.9441 21.397 11.4532H22.397C22.397 10.5346 21.8374 9.70986 20.9857 9.36884L20.614 10.2972ZM21.397 11.4532V13.7752H22.397V11.4532H21.397ZM21.397 13.7752C21.397 14.4632 20.8389 15.0212 20.152 15.0212V16.0212C21.3918 16.0212 22.397 15.015 22.397 13.7752H21.397ZM20.152 15.0212H19.928V16.0212H20.152V15.0212ZM19.4463 15.3872C19.1933 16.2965 18.3586 16.9633 17.3698 16.9633V17.9633C18.8194 17.9633 20.0396 16.9858 20.4097 15.6552L19.4463 15.3872ZM17.3698 16.9633C16.381 16.9633 15.5463 16.2965 15.2933 15.3872L14.3299 15.6552C14.7 16.9858 15.9202 17.9633 17.3698 17.9633V16.9633ZM14.8116 15.0212H10.1852V16.0212H14.8116V15.0212ZM5.20557 21.2074L10.5387 15.8748L9.83163 15.1676L4.4985 20.5003L5.20557 21.2074ZM3.79188 21.2063C4.18187 21.5975 4.81497 21.598 5.20557 21.2074L4.4985 20.5003C4.49788 20.5009 4.49817 20.5005 4.49902 20.5001C4.49952 20.4999 4.49959 20.5 4.49927 20.5C4.49895 20.5 4.49902 20.4999 4.49953 20.5001C4.50037 20.5005 4.50066 20.5009 4.50004 20.5003L3.79188 21.2063ZM3.79297 19.7926C3.40277 20.1828 3.40228 20.8155 3.79188 21.2063L4.50004 20.5003L4.50004 20.4997L3.79297 19.7926ZM6.48216 17.1037L3.79297 19.7926L4.50004 20.4997L7.18923 17.8108L6.48216 17.1037ZM6.80215 16.9584C6.7536 16.9616 6.70453 16.9633 6.655 16.9633V17.9633C6.72693 17.9633 6.79837 17.9609 6.86924 17.9561L6.80215 16.9584ZM6.655 16.9633C5.66618 16.9633 4.83148 16.2965 4.57854 15.3872L3.61512 15.6552C3.98524 16.9858 5.20544 17.9633 6.655 17.9633V16.9633ZM4.09683 15.0212H3.617V16.0212H4.09683V15.0212ZM3.617 15.0212C2.9993 15.0212 2.5 14.5215 2.5 13.9052H1.5C1.5 15.0742 2.44742 16.0212 3.617 16.0212V15.0212ZM2.5 13.9052V11.2662H1.5V13.9052H2.5ZM2.5 11.2662C2.5 10.8752 2.75395 10.5312 3.12728 10.4161L2.83266 9.46048C2.03981 9.70493 1.5 10.4366 1.5 11.2662H2.5ZM3.12699 10.4162L6.18153 9.47644L5.88747 8.52065L2.83294 9.4604L3.12699 10.4162ZM6.45051 9.27593L8.60598 6.04321L7.77397 5.48845L5.6185 8.72117L6.45051 9.27593ZM8.606 6.04318C8.83181 5.70447 9.21366 5.50018 9.622 5.50018V4.50018C8.88002 4.50018 8.18562 4.87097 7.77395 5.48848L8.606 6.04318ZM9.622 5.50018H15.781V4.50018H9.622V5.50018ZM15.781 5.50018C16.2423 5.50018 16.6661 5.75043 16.8887 6.15355L17.7641 5.6703C17.3655 4.94813 16.6061 4.50018 15.781 4.50018V5.50018ZM16.889 6.15418L17.2653 6.83352L18.14 6.34901L17.7638 5.66967L16.889 6.15418ZM17.4043 7.08464L16.8887 6.15355L16.0139 6.63806L16.5296 7.56915L17.4043 7.08464ZM16.889 6.15418C16.6661 5.75033 16.2422 5.50018 15.781 5.50018V6.50018C15.8781 6.50018 15.9666 6.55242 16.0135 6.63743L16.889 6.15418ZM15.781 5.50018H9.622V6.50018H15.781V5.50018ZM9.622 5.50018C9.21442 5.50018 8.83223 5.70383 8.60598 6.04321L9.43803 6.59791C9.47809 6.53782 9.54747 6.50018 9.622 6.50018V5.50018ZM8.606 6.04318L6.43779 9.29499L7.2698 9.84975L9.43801 6.59794L8.606 6.04318ZM6.437 9.29618C6.37997 9.38225 6.29661 9.44216 6.21075 9.46745L6.49331 10.4267C6.8127 10.3326 7.088 10.1241 7.27059 9.84856L6.437 9.29618ZM6.205 9.46918L3.12728 10.4161L3.42134 11.3719L6.49906 10.425L6.205 9.46918ZM3.127 10.4162C2.75347 10.5313 2.5 10.8757 2.5 11.2662H3.5C3.5 11.3136 3.46832 11.3574 3.42163 11.3718L3.127 10.4162ZM2.5 11.2662V13.9052H3.5V11.2662H2.5ZM2.5 13.9052C2.5 14.5222 3.00003 15.0212 3.617 15.0212V14.0212C3.55126 14.0212 3.5 13.9689 3.5 13.9052H2.5ZM3.617 15.0212H4.01537V14.0212H3.617V15.0212ZM4.51249 14.5747C4.6287 13.4956 5.54416 12.6543 6.655 12.6543V11.6543C5.02802 11.6543 3.68857 12.8859 3.51824 14.4676L4.51249 14.5747ZM6.655 12.6543C7.76584 12.6543 8.6813 13.4956 8.79751 14.5747L9.79176 14.4676C9.62143 12.8859 8.28198 11.6543 6.655 11.6543V12.6543ZM9.29463 15.0212H9.77201V14.0212H9.29463V15.0212ZM16.6134 6.97332L9.41847 14.1676L10.1255 14.8748L17.3205 7.68046L16.6134 6.97332ZM11.1853 15.0212H14.7302V14.0212H11.1853V15.0212ZM15.2273 14.5747C15.3435 13.4956 16.259 12.6543 17.3698 12.6543V11.6543C15.7428 11.6543 14.4034 12.8859 14.233 14.4676L15.2273 14.5747ZM17.3698 12.6543C18.4806 12.6543 19.3961 13.4956 19.5123 14.5747L20.5066 14.4676C20.3362 12.8859 18.9968 11.6543 17.3698 11.6543V12.6543ZM20.0094 15.0212H20.152V14.0212H20.0094V15.0212ZM20.152 15.0212C20.8396 15.0212 21.397 14.4626 21.397 13.7752H20.397C20.397 13.9113 20.2863 14.0212 20.152 14.0212V15.0212ZM21.397 13.7752V11.4532H20.397V13.7752H21.397ZM21.397 11.4532C21.397 10.9442 21.0869 10.4866 20.6155 10.2978L20.2438 11.2261C20.3357 11.2629 20.397 11.3529 20.397 11.4532H21.397ZM20.614 10.2972L18.781 9.57018L18.4123 10.4997L20.2453 11.2267L20.614 10.2972ZM18.781 9.57018L18.781 9.57018L17.9062 10.0547C18.0183 10.2571 18.1972 10.4144 18.4123 10.4997L18.781 9.57018ZM18.781 9.57018L17.9081 7.99409L17.0333 8.4786L17.9062 10.0547L18.781 9.57018ZM11.5388 14.8748L17.8242 8.58992L17.1171 7.88278L10.8317 14.1676L11.5388 14.8748ZM8.81 14.8083C8.81 13.6189 7.84464 12.6543 6.655 12.6543V13.6543C7.29284 13.6543 7.81 14.1717 7.81 14.8083H8.81ZM6.655 16.9633C7.845 16.9633 8.81 15.9983 8.81 14.8083H7.81C7.81 15.446 7.29272 15.9633 6.655 15.9633V16.9633ZM4.5 14.8083C4.5 15.9983 5.465 16.9633 6.655 16.9633V15.9633C6.01728 15.9633 5.5 15.446 5.5 14.8083H4.5ZM6.655 12.6543C5.46536 12.6543 4.5 13.6189 4.5 14.8083H5.5C5.5 14.1717 6.01716 13.6543 6.655 13.6543V12.6543ZM17.3698 13.6543C18.0076 13.6543 18.5248 14.1717 18.5248 14.8083H19.5248C19.5248 13.6189 18.5594 12.6543 17.3698 12.6543V13.6543ZM16.2148 14.8083C16.2148 14.1717 16.732 13.6543 17.3698 13.6543V12.6543C16.1802 12.6543 15.2148 13.6189 15.2148 14.8083H16.2148ZM17.3698 15.9633C16.7321 15.9633 16.2148 15.446 16.2148 14.8083H15.2148C15.2148 15.9983 16.1798 16.9633 17.3698 16.9633V15.9633ZM18.5248 14.8083C18.5248 15.446 18.0075 15.9633 17.3698 15.9633V16.9633C18.5598 16.9633 19.5248 15.9983 19.5248 14.8083H18.5248Z" fill="currentcolor"/>
</svg>
