<svg width="24" height="24" viewBox="0 0 24 24" fill="none" xmlns="http://www.w3.org/2000/svg">
<path d="M5.09607 12.4508L6.79381 10.785C6.99092 10.5916 7.30748 10.5946 7.50089 10.7917C7.69429 10.9888 7.69129 11.3053 7.49419 11.4987L5.15019 13.7987C4.95308 13.9921 4.63652 13.9891 4.44311 13.792L2.14311 11.448C1.94971 11.2509 1.95271 10.9344 2.14981 10.741C2.34692 10.5476 2.66348 10.5506 2.85689 10.7477L4.09124 12.0056C4.15837 8.35213 6.68875 5.09908 10.3644 4.22374C14.7492 3.17975 19.1507 5.88886 20.1946 10.2745C21.2375 14.6602 18.5284 19.0617 14.1439 20.1046C10.7799 20.9048 7.31367 19.5 5.43992 16.6616C5.28779 16.4312 5.35128 16.121 5.58173 15.9689C5.81219 15.8167 6.12234 15.8802 6.27448 16.1107C7.91856 18.6011 10.9604 19.834 13.9125 19.1317C17.7597 18.2167 20.1369 14.3543 19.2218 10.5059C18.3058 6.65769 14.4435 4.28048 10.596 5.19654C7.22835 5.99854 4.95606 9.07563 5.09607 12.4508Z" fill="currentcolor"/>
<path d="M11.8623 7.84595V8.56702C10.6657 8.74713 9.8838 9.57306 9.8838 10.6134C9.8838 11.9385 10.5634 12.3461 12.2648 12.6864C13.5318 12.9397 13.8418 13.1258 13.8418 13.7794C13.8418 14.3809 13.3067 14.8624 12.3628 14.8624C11.8803 14.8624 11.4735 14.7403 11.136 14.5377C10.9407 14.4205 10.8167 14.3089 10.7679 14.2504C10.5911 14.0382 10.2758 14.0096 10.0637 14.1863C9.85157 14.3631 9.82291 14.6784 9.99969 14.8905C10.1159 15.0299 10.3219 15.2154 10.6214 15.3951C10.9833 15.6124 11.3979 15.7648 11.8626 15.8287L11.8623 15.8458V16.6378C11.8623 16.914 12.0862 17.1378 12.3623 17.1378C12.6384 17.1378 12.8623 16.914 12.8623 16.6378V15.8458C12.8623 15.8392 12.8622 15.8326 12.8619 15.826C14.0591 15.6462 14.8418 14.8196 14.8418 13.7794C14.8418 12.4539 14.162 12.046 12.4605 11.7057C11.1936 11.4524 10.8838 11.2665 10.8838 10.6134C10.8838 10.0114 11.4185 9.53045 12.3628 9.53045C12.8454 9.53045 13.2523 9.65243 13.5898 9.85479C13.7852 9.97189 13.9091 10.0833 13.9579 10.1418C14.1348 10.3538 14.4501 10.3823 14.6621 10.2054C14.8742 10.0284 14.9026 9.71314 14.7257 9.50111C14.6095 9.36186 14.4035 9.17662 14.104 8.9971C13.7419 8.78005 13.3272 8.62785 12.8623 8.56401V7.84595C12.8623 7.5698 12.6384 7.34595 12.3623 7.34595C12.0862 7.34595 11.8623 7.5698 11.8623 7.84595Z" fill="currentcolor"/>
</svg>
