<svg width="24" height="24" viewBox="0 0 24 24" fill="none" xmlns="http://www.w3.org/2000/svg">
<path fill-rule="evenodd" clip-rule="evenodd" d="M17.0003 23.4142L23.4146 17L20.0003 13.5858V6.21922L1.62598 1.62563L6.21957 20H13.5861L17.0003 23.4142ZM17.0003 20.5858L14.4146 18H7.78112L4.84612 6.25998L9.67273 11.0866C9.56156 11.3696 9.50035 11.6779 9.50035 12C9.50035 13.3807 10.6196 14.5 12.0003 14.5C13.3811 14.5 14.5003 13.3807 14.5003 12C14.5003 10.6193 13.3811 9.49999 12.0003 9.49999C11.6782 9.49999 11.37 9.5612 11.0869 9.67238L6.26033 4.84577L18.0003 7.78077V14.4142L20.5861 17L17.0003 20.5858ZM12.0003 12.5C11.7242 12.5 11.5003 12.2761 11.5003 12C11.5003 11.8616 11.5552 11.738 11.6468 11.6464C11.7384 11.5549 11.862 11.5 12.0003 11.5C12.2765 11.5 12.5003 11.7239 12.5003 12C12.5003 12.2761 12.2765 12.5 12.0003 12.5Z" fill="currentcolor"/>
</svg>
