<svg width="24" height="24" viewBox="0 0 24 24" fill="none" xmlns="http://www.w3.org/2000/svg">
<path fill-rule="evenodd" clip-rule="evenodd" d="M19 0.585785L23.4142 5L19.2077 9.20647C19.2075 9.20668 19.208 9.20626 19.2077 9.20647C19.2075 9.20668 19.2067 9.20753 19.2065 9.20774L5.41421 23H1L1 18.5858L14.7924 4.79339C14.7922 4.79356 14.7926 4.79323 14.7924 4.79339C14.7926 4.79323 14.7932 4.79256 14.7934 4.79239L19 0.585785ZM15.5 6.91421L3 19.4142L3 21H4.58579L17.0858 8.5L15.5 6.91421ZM18.5 7.08578L16.9142 5.5L19 3.41421L20.5858 5L18.5 7.08578Z" fill="currentcolor"/>
</svg>
