<svg width="24" height="24" viewBox="0 0 24 24" fill="none" xmlns="http://www.w3.org/2000/svg">
<path fill-rule="evenodd" clip-rule="evenodd" d="M14.0461 9.65985C12.8847 9.38204 12.2878 8.00069 12.6212 6.61501C12.9535 5.22876 14.1113 4.26934 15.2722 4.54838C16.4337 4.82726 17.03 6.20672 16.6977 7.59308C16.3654 8.98011 15.2077 9.93874 14.0461 9.65985ZM15.7252 7.36011C15.941 6.45972 15.5926 5.65375 15.0386 5.52072C14.4857 5.38782 13.8094 5.94824 13.5936 6.84853C13.3771 7.74807 13.7258 8.55503 14.2792 8.68738C14.8334 8.82046 15.5095 8.26064 15.7252 7.36011ZM16.3634 10.8724C16.03 12.2581 16.6269 13.6394 17.7883 13.9172C18.9497 14.1961 20.1075 13.2369 20.4399 11.8505C20.7722 10.4641 20.1759 9.08467 19.0144 8.80578C17.8535 8.52674 16.6957 9.48616 16.3634 10.8724ZM17.3358 11.1059C17.5516 10.2056 18.2279 9.64522 18.7808 9.77812C19.3348 9.91115 19.6832 10.7171 19.4674 11.6174C19.2516 12.5175 18.5753 13.0778 18.0214 12.9448C17.468 12.8124 17.1193 12.0055 17.3358 11.1059ZM17.1814 15.2763L14.6068 11.7314C13.4686 9.75288 10.5557 9.74512 9.3752 11.7518L6.84311 15.2323C5.64288 17.306 7.10775 19.8435 9.45143 19.8435C10.1832 19.8435 10.6827 19.759 11.1839 19.5897C11.2037 19.583 11.2533 19.5654 11.312 19.5445L11.3121 19.5445C11.4168 19.5074 11.5503 19.46 11.5944 19.4463C11.724 19.4058 11.8236 19.3885 11.9414 19.3885C12.0533 19.3885 12.1492 19.4042 12.271 19.4403C12.3161 19.4537 12.4526 19.5006 12.5653 19.5393C12.634 19.5629 12.6939 19.5835 12.7189 19.5916C13.2354 19.7591 13.7659 19.8435 14.5444 19.8435C16.8884 19.8435 18.354 17.3056 17.1814 15.2763ZM10.1988 12.3196L10.2275 12.2753C11.0141 10.9118 12.9827 10.9118 13.7693 12.2753L16.3441 15.8205C17.1028 17.1391 16.1186 18.8435 14.5444 18.8435C13.871 18.8435 13.4446 18.7756 13.0274 18.6404C13.0138 18.6359 12.9747 18.6225 12.924 18.605C12.8062 18.5645 12.6256 18.5025 12.5553 18.4816C12.3463 18.4196 12.1566 18.3885 11.9414 18.3885C11.7145 18.3885 11.5167 18.4229 11.2965 18.4917C11.2294 18.5126 11.0553 18.5744 10.9484 18.6124L10.9483 18.6124L10.948 18.6126C10.9058 18.6275 10.8741 18.6388 10.8637 18.6423C10.4643 18.7773 10.0727 18.8435 9.45143 18.8435C7.87756 18.8435 6.89375 17.1393 7.68046 15.7764L10.1988 12.3196ZM11.3758 6.61461C11.0436 5.22906 9.88493 4.26922 8.72464 4.54845C7.56336 4.82726 6.96708 6.20672 7.29939 7.59308C7.63163 8.98011 8.78934 9.93874 9.95136 9.65975C11.1123 9.38204 11.7092 8.00069 11.3758 6.61461ZM9.71831 8.68729C9.16363 8.82046 8.48757 8.26064 8.27186 7.36001C8.05604 6.45972 8.40442 5.65375 8.95836 5.52075C9.51076 5.38781 10.1878 5.94865 10.4034 6.84812C10.6199 7.74807 10.2712 8.55503 9.71831 8.68729ZM3.59141 11.8505C3.25906 10.4641 3.85534 9.08467 5.01677 8.80581C6.17777 8.52674 7.33554 9.48616 7.66776 10.872C8.00124 12.2581 7.40433 13.6394 6.24336 13.9172C5.0816 14.1961 3.92376 13.2369 3.59141 11.8505ZM4.56386 11.6174C4.77962 12.5175 5.456 13.0778 6.01031 12.9447C6.56322 12.8124 6.91193 12.0055 6.69541 11.1055C6.47969 10.2056 5.80339 9.64522 5.25036 9.77815C4.69642 9.91115 4.34804 10.7171 4.56386 11.6174Z" fill="currentcolor"/>
<path d="M12.6212 6.61501L13.1073 6.73197L13.1074 6.73157L12.6212 6.61501ZM14.0461 9.65985L14.1628 9.17366L14.1624 9.17357L14.0461 9.65985ZM15.2722 4.54838L15.1553 5.03454L15.1554 5.03457L15.2722 4.54838ZM16.6977 7.59308L16.2114 7.47653L16.2114 7.47661L16.6977 7.59308ZM15.0386 5.52072L14.9217 6.00687L14.9218 6.0069L15.0386 5.52072ZM15.7252 7.36011L15.239 7.24355L15.2389 7.24364L15.7252 7.36011ZM13.5936 6.84853L14.0797 6.96549L14.0798 6.96509L13.5936 6.84853ZM14.2792 8.68738L14.3959 8.2012L14.3955 8.2011L14.2792 8.68738ZM17.7883 13.9172L17.905 13.4311L17.9046 13.431L17.7883 13.9172ZM16.3634 10.8724L16.8495 10.9894L16.8496 10.989L16.3634 10.8724ZM20.4399 11.8505L20.9261 11.9671L20.4399 11.8505ZM19.0144 8.80578L18.8975 9.29194L18.8976 9.29197L19.0144 8.80578ZM18.7808 9.77812L18.6639 10.2643L18.664 10.2643L18.7808 9.77812ZM17.3358 11.1059L17.8219 11.2229L17.822 11.2225L17.3358 11.1059ZM19.4674 11.6174L18.9812 11.5009L19.4674 11.6174ZM18.0214 12.9448L18.1381 12.4586L18.1377 12.4585L18.0214 12.9448ZM14.6068 11.7314L14.1734 11.9807L14.1866 12.0037L14.2022 12.0252L14.6068 11.7314ZM17.1814 15.2763L17.6143 15.0262L17.6012 15.0036L17.5859 14.9825L17.1814 15.2763ZM9.3752 11.7518L9.77953 12.046L9.79383 12.0263L9.80616 12.0053L9.3752 11.7518ZM6.84311 15.2323L6.43878 14.9382L6.42343 14.9593L6.41036 14.9819L6.84311 15.2323ZM11.1839 19.5897L11.3439 20.0633L11.3439 20.0633L11.1839 19.5897ZM11.3119 19.5446L11.1476 19.0723L11.1447 19.0734L11.3119 19.5446ZM11.312 19.5446L11.4762 20.0168L11.4784 20.016L11.312 19.5446ZM11.3122 19.5445L11.1541 19.07L11.1458 19.073L11.3122 19.5445ZM11.3123 19.5444L11.4704 20.0189L11.4794 20.0157L11.3123 19.5444ZM11.5944 19.4463L11.4455 18.969L11.4455 18.969L11.5944 19.4463ZM12.271 19.4403L12.1288 19.9197H12.1288L12.271 19.4403ZM12.5653 19.5393L12.7277 19.0664H12.7277L12.5653 19.5393ZM12.7189 19.5916L12.5647 20.0672L12.7189 19.5916ZM10.2275 12.2753L10.6468 12.5477L10.654 12.5366L10.6606 12.5252L10.2275 12.2753ZM10.1988 12.3196L10.6029 12.614L10.6108 12.6032L10.6181 12.592L10.1988 12.3196ZM13.7693 12.2753L13.3362 12.5252L13.3493 12.5479L13.3648 12.5691L13.7693 12.2753ZM16.3441 15.8205L16.7774 15.5712L16.7642 15.5482L16.7486 15.5267L16.3441 15.8205ZM13.0274 18.6404L13.1817 18.1647L13.1817 18.1647L13.0274 18.6404ZM12.9252 18.6055L13.0877 18.1326L13.0874 18.1325L12.9252 18.6055ZM12.9246 18.6053L12.7618 19.078L12.7624 19.0782L12.9246 18.6053ZM12.924 18.605L13.0868 18.1323L13.0865 18.1322L12.924 18.605ZM12.5553 18.4816L12.6974 18.0022H12.6974L12.5553 18.4816ZM11.2965 18.4917L11.4455 18.969H11.4455L11.2965 18.4917ZM10.9481 18.6125L11.1138 19.0842L11.1155 19.0837L10.9481 18.6125ZM10.948 18.6126L10.7823 18.1408L10.7806 18.1414L10.948 18.6126ZM10.8637 18.6423L11.0238 19.116H11.0238L10.8637 18.6423ZM7.68046 15.7764L7.27633 15.482L7.2607 15.5035L7.24743 15.5265L7.68046 15.7764ZM8.72464 4.54845L8.84137 5.03463L8.84163 5.03457L8.72464 4.54845ZM11.3758 6.61461L10.8895 6.73117L10.8896 6.73157L11.3758 6.61461ZM7.29939 7.59308L7.78564 7.47661L7.78562 7.47653L7.29939 7.59308ZM9.95136 9.65975L9.83504 9.17347L9.83463 9.17357L9.95136 9.65975ZM8.27186 7.36001L8.7581 7.24355L8.75808 7.24345L8.27186 7.36001ZM9.71831 8.68729L9.60199 8.20101L9.60158 8.2011L9.71831 8.68729ZM8.95836 5.52075L9.07509 6.00693L9.07535 6.00687L8.95836 5.52075ZM10.4034 6.84812L9.91718 6.96468L9.91728 6.96508L10.4034 6.84812ZM5.01677 8.80581L5.1335 9.292L5.13363 9.29197L5.01677 8.80581ZM3.59141 11.8505L4.07763 11.734L3.59141 11.8505ZM7.66776 10.872L7.18153 10.9886L7.18163 10.989L7.66776 10.872ZM6.24336 13.9172L6.12704 13.4309L6.12663 13.431L6.24336 13.9172ZM6.01031 12.9447L5.89399 12.4584L5.89358 12.4585L6.01031 12.9447ZM4.56386 11.6174L4.07763 11.734L4.56386 11.6174ZM6.69541 11.1055L6.20918 11.2221L6.20928 11.2225L6.69541 11.1055ZM5.25036 9.77815L5.36709 10.2643L5.36722 10.2643L5.25036 9.77815ZM12.1351 6.49805C11.7654 8.03457 12.3952 9.77904 13.9298 10.1461L14.1624 9.17357C13.3743 8.98504 12.8102 7.96681 13.1073 6.73197L12.1351 6.49805ZM15.389 4.06223C13.8551 3.69352 12.5034 4.96153 12.135 6.49845L13.1074 6.73157C13.4036 5.49598 14.3675 4.84517 15.1553 5.03454L15.389 4.06223ZM17.1839 7.70963C17.5524 6.17246 16.923 4.43054 15.3889 4.0622L15.1554 5.03457C15.9444 5.22398 16.5076 6.24098 16.2114 7.47653L17.1839 7.70963ZM13.9294 10.146C15.4637 10.5144 16.8155 9.24765 17.1839 7.70955L16.2114 7.47661C15.9154 8.71258 14.9517 9.36307 14.1628 9.17367L13.9294 10.146ZM14.9218 6.0069C14.9897 6.02319 15.1135 6.10109 15.205 6.33483C15.2933 6.56072 15.3256 6.88212 15.239 7.24355L16.2114 7.47666C16.3406 6.9377 16.3066 6.40593 16.1362 5.97048C15.9689 5.54288 15.6415 5.15127 15.1553 5.03454L14.9218 6.0069ZM14.0798 6.96509C14.1664 6.60378 14.3409 6.33192 14.5221 6.17065C14.7097 6.00364 14.855 5.99082 14.9217 6.00687L15.1554 5.03457C14.6693 4.91771 14.1999 5.11866 13.8572 5.4237C13.5081 5.73449 13.2365 6.19299 13.1073 6.73197L14.0798 6.96509ZM14.3955 8.2011C14.3286 8.18511 14.2049 8.1077 14.1134 7.8736C14.025 7.6476 13.9929 7.32623 14.0797 6.96549L13.1074 6.73157C12.9778 7.27036 13.0118 7.80224 13.182 8.23769C13.3491 8.66505 13.6764 9.0573 14.1628 9.17366L14.3955 8.2011ZM15.2389 7.24364C15.1524 7.60507 14.978 7.87669 14.7969 8.03771C14.6096 8.2043 14.4639 8.21753 14.3959 8.2012L14.1624 9.17357C14.6487 9.29031 15.1182 9.09017 15.4614 8.78498C15.8109 8.47423 16.0823 8.01568 16.2114 7.47657L15.2389 7.24364ZM17.9046 13.431C17.1165 13.2424 16.5524 12.2242 16.8495 10.9894L15.8773 10.7554C15.5076 12.292 16.1374 14.0364 17.672 14.4035L17.9046 13.431ZM19.9536 11.734C19.6574 12.9695 18.6936 13.6204 17.905 13.4311L17.6716 14.4034C19.2057 14.7718 20.5576 13.5044 20.9261 11.9671L19.9536 11.734ZM18.8976 9.29197C19.6866 9.48139 20.2498 10.4984 19.9536 11.734L20.9261 11.9671C21.2946 10.4299 20.6653 8.68795 19.1311 8.3196L18.8976 9.29197ZM16.8496 10.989C17.1458 9.75338 18.1097 9.10257 18.8975 9.29194L19.1312 8.31963C17.5973 7.95092 16.2456 9.21893 15.8772 10.7559L16.8496 10.989ZM18.8976 9.29197C18.4115 9.17511 17.9421 9.37606 17.5994 9.6811C17.2503 9.99189 16.9787 10.4504 16.8495 10.9894L17.822 11.2225C17.9086 10.8612 18.0831 10.5893 18.2643 10.4281C18.4519 10.261 18.5972 10.2482 18.6639 10.2643L18.8976 9.29197ZM19.9536 11.734C20.0828 11.195 20.0488 10.6633 19.8784 10.2279C19.7111 9.80028 19.3837 9.40867 18.8975 9.29194L18.664 10.2643C18.7319 10.2806 18.8557 10.3585 18.9472 10.5922C19.0356 10.8181 19.0678 11.1395 18.9812 11.5009L19.9536 11.734ZM17.9046 13.431C18.3909 13.5477 18.8604 13.3472 19.2035 13.0421C19.5529 12.7314 19.8244 12.2729 19.9536 11.734L18.9812 11.5009C18.8946 11.862 18.7201 12.1337 18.5389 12.2949C18.3513 12.4617 18.2057 12.4748 18.1381 12.4586L17.9046 13.431ZM16.8496 10.989C16.72 11.5278 16.754 12.0596 16.9242 12.4951C17.0913 12.9225 17.4186 13.3147 17.905 13.4311L18.1377 12.4585C18.0708 12.4425 17.9471 12.3651 17.8556 12.131C17.7672 11.905 17.7351 11.5836 17.8219 11.2229L16.8496 10.989ZM14.2022 12.0252L16.7768 15.5701L17.5859 14.9825L15.0114 11.4376L14.2022 12.0252ZM9.80616 12.0053C10.7966 10.3218 13.2306 10.3419 14.1734 11.9807L15.0402 11.4821C13.7066 9.16384 10.3149 9.16844 8.94425 11.4983L9.80616 12.0053ZM7.24743 15.5265L9.77953 12.046L8.97088 11.4577L6.43878 14.9382L7.24743 15.5265ZM9.45143 19.3435C7.49976 19.3435 6.26511 17.2291 7.27585 15.4828L6.41036 14.9819C5.02066 17.3829 6.71575 20.3435 9.45143 20.3435V19.3435ZM11.0238 19.116C10.5819 19.2653 10.1375 19.3435 9.45143 19.3435V20.3435C10.2288 20.3435 10.7835 20.2527 11.3439 20.0633L11.0238 19.116ZM11.1447 19.0734C11.0834 19.0951 11.039 19.1108 11.0238 19.116L11.3439 20.0633C11.3683 20.0551 11.4231 20.0357 11.479 20.0158L11.1447 19.0734ZM11.1477 19.0723L11.1476 19.0723L11.4761 20.0168L11.4762 20.0168L11.1477 19.0723ZM11.1458 19.073L11.1456 19.0731L11.4784 20.016L11.4787 20.016L11.1458 19.073ZM11.1542 19.0701L11.1541 19.0701L11.4704 20.0188L11.4704 20.0188L11.1542 19.0701ZM11.4455 18.969C11.3894 18.9865 11.2426 19.0386 11.1452 19.0732L11.4794 20.0157C11.5913 19.976 11.7112 19.9336 11.7434 19.9236L11.4455 18.969ZM11.9414 18.8885C11.7632 18.8885 11.6128 18.9168 11.4455 18.969L11.7434 19.9236C11.8352 19.8949 11.884 19.8885 11.9414 19.8885V18.8885ZM12.4131 18.961C12.2543 18.9139 12.1101 18.8885 11.9414 18.8885V19.8885C11.9965 19.8885 12.044 19.8946 12.1288 19.9197L12.4131 18.961ZM12.7277 19.0664C12.6231 19.0305 12.4715 18.9783 12.4131 18.961L12.1288 19.9197C12.1606 19.9291 12.282 19.9707 12.4029 20.0122L12.7277 19.0664ZM12.8732 19.116C12.8534 19.1096 12.7994 19.091 12.7277 19.0664L12.4029 20.0122C12.4686 20.0348 12.5344 20.0574 12.5647 20.0672L12.8732 19.116ZM14.5444 19.3435C13.8077 19.3435 13.3306 19.2643 12.8732 19.116L12.5647 20.0672C13.1402 20.2538 13.7242 20.3435 14.5444 20.3435V19.3435ZM16.7484 15.5265C17.7283 17.2222 16.5037 19.3435 14.5444 19.3435V20.3435C17.2731 20.3435 18.9796 17.3891 17.6143 15.0262L16.7484 15.5265ZM9.80823 12.0029L9.77946 12.0472L10.6181 12.592L10.6468 12.5477L9.80823 12.0029ZM14.2024 12.0255C13.2234 10.3285 10.7734 10.3285 9.79443 12.0255L10.6606 12.5252C11.2548 11.4952 12.7421 11.4952 13.3362 12.5252L14.2024 12.0255ZM16.7486 15.5267L14.1739 11.9815L13.3648 12.5691L15.9395 16.1144L16.7486 15.5267ZM14.5444 19.3435C16.4927 19.3435 17.7332 17.2322 16.7774 15.5712L15.9107 16.0699C16.4724 17.0461 15.7446 18.3435 14.5444 18.3435V19.3435ZM12.8732 19.116C13.3512 19.271 13.8317 19.3435 14.5444 19.3435V18.3435C13.9103 18.3435 13.5379 18.2803 13.1817 18.1647L12.8732 19.116ZM12.7626 19.0783C12.8093 19.0943 12.8542 19.1098 12.8732 19.116L13.1817 18.1647C13.1818 18.1648 13.1811 18.1646 13.1794 18.164C13.1777 18.1634 13.1756 18.1627 13.1729 18.1618C13.1674 18.1599 13.1603 18.1575 13.1518 18.1546C13.1347 18.1488 13.1129 18.1413 13.0877 18.1326L12.7626 19.0783ZM12.7624 19.0782L12.7629 19.0784L13.0874 18.1325L13.0869 18.1323L12.7624 19.0782ZM12.7611 19.0778L12.7618 19.078L13.0875 18.1326L13.0868 18.1323L12.7611 19.0778ZM12.4131 18.961C12.4702 18.9779 12.6365 19.0349 12.7614 19.0779L13.0865 18.1322C12.9758 18.0942 12.781 18.027 12.6974 18.0022L12.4131 18.961ZM11.9414 18.8885C12.1023 18.8885 12.2441 18.9108 12.4131 18.961L12.6974 18.0022C12.4486 17.9284 12.2108 17.8885 11.9414 17.8885V18.8885ZM11.4455 18.969C11.6246 18.9131 11.772 18.8885 11.9414 18.8885V17.8885C11.6571 17.8885 11.4089 17.9328 11.1476 18.0144L11.4455 18.969ZM11.1155 19.0837C11.2287 19.0434 11.3902 18.9862 11.4455 18.969L11.1476 18.0144C11.0684 18.0391 10.8813 18.1056 10.7808 18.1413L11.1155 19.0837ZM11.1136 19.0843L11.1138 19.0842L10.7825 18.1407L10.7823 18.1408L11.1136 19.0843ZM11.0238 19.116C11.0389 19.1109 11.0763 19.0976 11.1153 19.0837L10.7806 18.1414C10.7594 18.1489 10.7413 18.1553 10.7272 18.1603C10.7202 18.1628 10.7145 18.1648 10.7101 18.1664C10.7052 18.1681 10.7035 18.1687 10.7037 18.1686L11.0238 19.116ZM9.45143 19.3435C10.116 19.3435 10.5632 19.2716 11.0238 19.116L10.7037 18.1686C10.3654 18.2829 10.0295 18.3435 9.45143 18.3435V19.3435ZM7.24743 15.5265C6.26832 17.2227 7.49265 19.3435 9.45143 19.3435V18.3435C8.26247 18.3435 7.51919 17.056 8.1135 16.0264L7.24743 15.5265ZM9.79462 12.0252L7.27633 15.482L8.0846 16.0708L10.6029 12.614L9.79462 12.0252ZM8.84163 5.03457C9.62883 4.84512 10.5935 5.49633 10.8895 6.73116L11.862 6.49805C11.4937 4.96179 10.141 3.69331 8.60766 4.06232L8.84163 5.03457ZM7.78562 7.47653C7.48944 6.24093 8.05273 5.22398 8.84137 5.03463L8.60791 4.06226C7.07398 4.43055 6.44471 6.1725 6.81317 7.70963L7.78562 7.47653ZM9.83463 9.17357C9.04529 9.36308 8.08167 8.71251 7.78564 7.47661L6.81315 7.70955C7.18158 9.24772 8.53338 10.5144 10.0681 10.1459L9.83463 9.17357ZM10.8896 6.73157C11.1869 7.96693 10.6227 8.98506 9.83504 9.17347L10.0677 10.146C11.602 9.77902 12.2316 8.03445 11.8619 6.49765L10.8896 6.73157ZM7.78561 7.47647C7.91474 8.01562 8.1862 8.47422 8.53575 8.78499C8.87909 9.09025 9.3487 9.29024 9.83504 9.17347L9.60158 8.2011C9.53325 8.21751 9.38749 8.20418 9.20019 8.03766C9.01911 7.87666 8.84468 7.60503 8.7581 7.24355L7.78561 7.47647ZM8.84163 5.03457C8.35544 5.1513 8.02808 5.54293 7.86081 5.97048C7.69046 6.4059 7.65644 6.93764 7.78563 7.47657L8.75808 7.24345C8.67145 6.88209 8.70371 6.5607 8.79208 6.33481C8.88354 6.10105 9.00734 6.0232 9.07509 6.00693L8.84163 5.03457ZM10.8896 6.73157C10.7605 6.19279 10.4887 5.73443 10.1395 5.42375C9.79697 5.11892 9.3275 4.91764 8.84137 5.03463L9.07535 6.00687C9.14163 5.99092 9.28687 6.00359 9.4748 6.17082C9.65615 6.33218 9.83071 6.60398 9.91718 6.96468L10.8896 6.73157ZM9.83463 9.17357C10.321 9.05722 10.6482 8.66486 10.8151 8.23754C10.9852 7.80207 11.0192 7.27012 10.8895 6.73117L9.91728 6.96508C10.0041 7.32607 9.97199 7.64758 9.88368 7.87364C9.79217 8.10784 9.6685 8.1851 9.60199 8.20101L9.83463 9.17357ZM4.90004 8.31963C3.36598 8.68795 2.73669 10.4299 3.10518 11.9671L4.07763 11.734C3.78144 10.4984 4.34471 9.48138 5.1335 9.292L4.90004 8.31963ZM8.15398 10.7554C7.78563 9.21885 6.4339 7.95093 4.89991 8.31966L5.13363 9.29197C5.92163 9.10255 6.88545 9.75346 7.18153 10.9886L8.15398 10.7554ZM6.35968 14.4034C7.89398 14.0364 8.52363 12.2919 8.15389 10.755L7.18163 10.989C7.47885 12.2243 6.91467 13.2425 6.12704 13.4309L6.35968 14.4034ZM3.10518 11.9671C3.47372 13.5044 4.82557 14.7718 6.36009 14.4033L6.12663 13.431C5.33763 13.6204 4.37379 12.9694 4.07763 11.734L3.10518 11.9671ZM5.89358 12.4585C5.82564 12.4748 5.67991 12.4616 5.49237 12.2948C5.31114 12.1337 5.13665 11.862 5.05008 11.5009L4.07763 11.734C4.20682 12.2729 4.47841 12.7314 4.82788 13.0421C5.17106 13.3473 5.64067 13.5476 6.12704 13.4309L5.89358 12.4585ZM6.20928 11.2225C6.29613 11.5835 6.26399 11.905 6.17568 12.131C6.08417 12.3652 5.9605 12.4425 5.89399 12.4584L6.12663 13.431C6.61303 13.3146 6.94016 12.9223 7.10711 12.4949C7.27725 12.0595 7.3112 11.5275 7.18153 10.9886L6.20928 11.2225ZM5.36722 10.2643C5.43409 10.2482 5.57937 10.2611 5.76698 10.428C5.94815 10.5893 6.12263 10.861 6.20918 11.2221L7.18163 10.989C7.05246 10.4501 6.78093 9.99174 6.43177 9.68101C6.08905 9.37603 5.61966 9.17514 5.1335 9.292L5.36722 10.2643ZM5.05008 11.5009C4.96345 11.1395 4.99571 10.8181 5.08408 10.5922C5.17554 10.3585 5.29934 10.2806 5.36709 10.2643L5.13363 9.29197C4.64744 9.4087 4.32008 9.80033 4.15281 10.2279C3.98246 10.6633 3.94844 11.195 4.07763 11.734L5.05008 11.5009Z" fill="currentcolor"/>
</svg>
