<svg width="24" height="24" viewBox="0 0 24 24" fill="none" xmlns="http://www.w3.org/2000/svg">
<path fill-rule="evenodd" clip-rule="evenodd" d="M14.0461 9.65985C12.8847 9.38204 12.2878 8.00069 12.6212 6.61501C12.9535 5.22876 14.1113 4.26934 15.2722 4.54838C16.4337 4.82726 17.03 6.20672 16.6977 7.59308C16.3654 8.98011 15.2077 9.93874 14.0461 9.65985ZM15.7252 7.36011C15.941 6.45972 15.5926 5.65375 15.0386 5.52072C14.4857 5.38782 13.8094 5.94824 13.5936 6.84853C13.3771 7.74807 13.7258 8.55503 14.2792 8.68738C14.8334 8.82046 15.5095 8.26064 15.7252 7.36011ZM16.3634 10.8724C16.03 12.2581 16.6269 13.6394 17.7883 13.9172C18.9497 14.1961 20.1075 13.2369 20.4399 11.8505C20.7722 10.4641 20.1759 9.08467 19.0144 8.80578C17.8535 8.52674 16.6957 9.48616 16.3634 10.8724ZM17.3358 11.1059C17.5516 10.2056 18.2279 9.64522 18.7808 9.77812C19.3348 9.91115 19.6832 10.7171 19.4674 11.6174C19.2516 12.5175 18.5753 13.0778 18.0214 12.9448C17.468 12.8124 17.1193 12.0055 17.3358 11.1059ZM17.1814 15.2763L14.6068 11.7314C13.4686 9.75288 10.5557 9.74512 9.3752 11.7518L6.84311 15.2323C5.64288 17.306 7.10775 19.8435 9.45143 19.8435C10.1832 19.8435 10.6827 19.759 11.1839 19.5897C11.2037 19.583 11.2533 19.5654 11.312 19.5445L11.3121 19.5445C11.4168 19.5074 11.5503 19.46 11.5944 19.4463C11.724 19.4058 11.8236 19.3885 11.9414 19.3885C12.0533 19.3885 12.1492 19.4042 12.271 19.4403C12.3161 19.4537 12.4526 19.5006 12.5653 19.5393C12.634 19.5629 12.6939 19.5835 12.7189 19.5916C13.2354 19.7591 13.7659 19.8435 14.5444 19.8435C16.8884 19.8435 18.354 17.3056 17.1814 15.2763ZM10.1988 12.3196L10.2275 12.2753C11.0141 10.9118 12.9827 10.9118 13.7693 12.2753L16.3441 15.8205C17.1028 17.1391 16.1186 18.8435 14.5444 18.8435C13.871 18.8435 13.4446 18.7756 13.0274 18.6404C13.0138 18.6359 12.9747 18.6225 12.924 18.605C12.8062 18.5645 12.6256 18.5025 12.5553 18.4816C12.3463 18.4196 12.1566 18.3885 11.9414 18.3885C11.7145 18.3885 11.5167 18.4229 11.2965 18.4917C11.2294 18.5126 11.0553 18.5744 10.9484 18.6124L10.9483 18.6124L10.948 18.6126C10.9058 18.6275 10.8741 18.6388 10.8637 18.6423C10.4643 18.7773 10.0727 18.8435 9.45143 18.8435C7.87756 18.8435 6.89375 17.1393 7.68046 15.7764L10.1988 12.3196ZM11.3758 6.61461C11.0436 5.22906 9.88493 4.26922 8.72464 4.54845C7.56336 4.82726 6.96708 6.20672 7.29939 7.59308C7.63163 8.98011 8.78934 9.93874 9.95136 9.65975C11.1123 9.38204 11.7092 8.00069 11.3758 6.61461ZM9.71831 8.68729C9.16363 8.82046 8.48757 8.26064 8.27186 7.36001C8.05604 6.45972 8.40442 5.65375 8.95836 5.52075C9.51076 5.38781 10.1878 5.94865 10.4034 6.84812C10.6199 7.74807 10.2712 8.55503 9.71831 8.68729ZM3.59141 11.8505C3.25906 10.4641 3.85534 9.08467 5.01677 8.80581C6.17777 8.52674 7.33554 9.48616 7.66776 10.872C8.00124 12.2581 7.40433 13.6394 6.24336 13.9172C5.0816 14.1961 3.92376 13.2369 3.59141 11.8505ZM4.56386 11.6174C4.77962 12.5175 5.456 13.0778 6.01031 12.9447C6.56322 12.8124 6.91193 12.0055 6.69541 11.1055C6.47969 10.2056 5.80339 9.64522 5.25036 9.77815C4.69642 9.91115 4.34804 10.7171 4.56386 11.6174Z" fill="currentcolor"/>
</svg>
