<svg width="24" height="24" viewBox="0 0 24 24" fill="none" xmlns="http://www.w3.org/2000/svg">
<path d="M15.8864 13.6905C16.03 13.5469 16.246 13.5044 16.4332 13.5828C17.7833 14.1484 19.2883 15.1582 20.3547 16.1956C20.4838 16.3213 20.5354 16.5067 20.4896 16.681C20.1455 17.9915 19.6852 19.0647 18.85 20.2888C18.7514 20.4334 18.5843 20.5159 18.4096 20.5063C15.739 20.3595 12.0653 18.7356 8.66749 15.3386C5.26985 11.941 3.64544 8.2656 3.50074 5.59607C3.49127 5.4215 3.57368 5.25466 3.71807 5.15608C4.94132 4.32089 6.01431 3.86057 7.32502 3.51641C7.49931 3.47064 7.68474 3.5222 7.81039 3.65136C8.84729 4.71722 9.85737 6.22209 10.4241 7.57254C10.5026 7.75974 10.4602 7.97586 10.3167 8.11945L8.96165 9.47534C9.26703 10.3245 10.0265 11.5167 11.2576 12.7485C12.4893 13.9802 13.6797 14.7384 14.5318 15.0452L15.8864 13.6905Z" fill="currentcolor"/>
</svg>
