<svg width="24" height="24" viewBox="0 0 24 24" fill="none" xmlns="http://www.w3.org/2000/svg">
<path fill-rule="evenodd" clip-rule="evenodd" d="M16.4332 13.5828C16.246 13.5044 16.03 13.5469 15.8864 13.6905L14.5318 15.0452C13.6797 14.7384 12.4893 13.9802 11.2576 12.7485C10.0265 11.5167 9.26703 10.3245 8.96165 9.47534L10.3167 8.11945C10.4602 7.97586 10.5026 7.75974 10.4241 7.57254C9.85737 6.22209 8.84729 4.71722 7.81039 3.65136C7.68474 3.5222 7.49931 3.47064 7.32502 3.51641C6.01431 3.86057 4.94132 4.32089 3.71807 5.15608C3.57368 5.25466 3.49127 5.4215 3.50074 5.59607C3.64544 8.2656 5.26985 11.941 8.66749 15.3386C12.0653 18.7356 15.739 20.3595 18.4096 20.5063C18.5843 20.5159 18.7514 20.4334 18.85 20.2888C19.6852 19.0647 20.1455 17.9915 20.4896 16.681C20.5354 16.5067 20.4838 16.3213 20.3547 16.1956C19.2883 15.1582 17.7833 14.1484 16.4332 13.5828ZM19.4445 16.7116C19.161 17.7053 18.7917 18.5507 18.1831 19.4865C15.7767 19.2562 12.4746 17.7307 9.37453 14.6314C6.27473 11.5316 4.74889 8.22816 4.52032 5.82296C5.45546 5.21438 6.30065 4.84509 7.29443 4.5615C8.0979 5.4386 8.87238 6.58959 9.36719 7.65487L8.04034 8.98257C7.91424 9.10875 7.86492 9.29254 7.9109 9.4649C8.18559 10.4945 9.06232 11.9666 10.5503 13.4555C12.0388 14.9439 13.5081 15.8188 14.5415 16.0959C14.7141 16.1422 14.8982 16.0929 15.0246 15.9666L16.3514 14.6397C17.4162 15.1337 18.5672 15.9079 19.4445 16.7116Z" fill="currentcolor"/>
</svg>
