<svg width="24" height="24" viewBox="0 0 24 24" fill="none" xmlns="http://www.w3.org/2000/svg">
<path fill-rule="evenodd" clip-rule="evenodd" d="M3.20071 19.4962H20.5726C21.6897 19.4962 22.5945 18.5908 22.5945 17.4743V5.78471C22.5945 4.79818 21.7974 4 20.8111 4H3.20071C2.26148 4 1.5 4.76094 1.5 5.69947V17.7955C1.5 18.7341 2.26156 19.4962 3.20071 19.4962ZM20.7876 18.4736C20.7183 18.4884 20.6464 18.4962 20.5726 18.4962H3.20071C3.04346 18.4962 2.89824 18.4442 2.78127 18.3566C2.87715 18.3221 2.9634 18.258 3.02505 18.1672L8.34757 10.3329L12.1952 16.4478C12.3544 16.7009 12.6986 16.7586 12.9316 16.5713L16.1251 14.0051L20.7876 18.4736ZM21.5387 17.8083L16.5 12.9794C16.3187 12.8056 16.0366 12.7933 15.8409 12.9506L12.7427 15.4402L8.7868 9.15327C8.59477 8.84809 8.15266 8.84032 7.95003 9.13858L2.5 17.1606V5.69947C2.5 5.31338 2.81361 5 3.20071 5H20.8111C21.2448 5 21.5945 5.35017 21.5945 5.78471V17.4743C21.5945 17.5913 21.5749 17.7037 21.5387 17.8083ZM17.5061 6.63235C18.7928 6.63078 19.8361 7.67363 19.8361 8.96059C19.8361 10.247 18.7935 11.2901 17.5085 11.2901C16.2207 11.2916 15.176 10.2489 15.176 8.96183C15.176 7.67497 16.2191 6.63235 17.5061 6.63235ZM17.5079 10.2901C18.2411 10.2901 18.8361 9.69478 18.8361 8.96059C18.8361 8.22623 18.2411 7.63146 17.5067 7.63235C16.7713 7.63235 16.176 8.22736 16.176 8.96183C16.176 9.69599 16.7721 10.291 17.5079 10.2901Z" fill="currentcolor"/>
<path d="M20.7876 18.4736L20.8922 18.9625L21.8145 18.7652L21.1335 18.1126L20.7876 18.4736ZM2.78127 18.3566L2.61186 17.8862L1.739 18.2005L2.48147 18.7567L2.78127 18.3566ZM3.02505 18.1672L2.61147 17.8863L3.02505 18.1672ZM8.34757 10.3329L8.77076 10.0666L8.36361 9.41956L7.93399 10.0519L8.34757 10.3329ZM12.1952 16.4478L11.772 16.7141L12.1952 16.4478ZM12.9316 16.5713L13.2448 16.9611L13.2448 16.9611L12.9316 16.5713ZM16.1251 14.0051L16.471 13.6441L16.1541 13.3404L15.8119 13.6154L16.1251 14.0051ZM21.5387 17.8083L21.1927 18.1693L21.7563 18.7094L22.0113 17.9717L21.5387 17.8083ZM16.5 12.9794L16.846 12.6184L16.5 12.9794ZM15.8409 12.9506L16.1541 13.3404L15.8409 12.9506ZM12.7427 15.4402L12.3195 15.7065L12.6184 16.1816L13.0559 15.83L12.7427 15.4402ZM8.7868 9.15327L9.20999 8.88699L8.7868 9.15327ZM7.95003 9.13858L8.36361 9.41956V9.41956L7.95003 9.13858ZM2.5 17.1606H2V18.7863L2.91358 17.4416L2.5 17.1606ZM17.5061 6.63235V7.13235L17.5067 7.13235L17.5061 6.63235ZM17.5085 11.2901V10.7901L17.5079 10.7901L17.5085 11.2901ZM17.5079 10.2901V9.79006L17.5073 9.79006L17.5079 10.2901ZM17.5067 7.63235V8.13236L17.5073 8.13235L17.5067 7.63235ZM20.5726 18.9962H3.20071V19.9962H20.5726V18.9962ZM22.0945 17.4743C22.0945 18.3147 21.4134 18.9962 20.5726 18.9962V19.9962C21.9659 19.9962 23.0945 18.8669 23.0945 17.4743H22.0945ZM22.0945 5.78471V17.4743H23.0945V5.78471H22.0945ZM20.8111 4.5C21.5208 4.5 22.0945 5.07391 22.0945 5.78471H23.0945C23.0945 4.52246 22.074 3.5 20.8111 3.5V4.5ZM3.20071 4.5H20.8111V3.5H3.20071V4.5ZM2 5.69947C2 5.03742 2.53728 4.5 3.20071 4.5V3.5C1.98568 3.5 1 4.48446 1 5.69947H2ZM2 17.7955V5.69947H1V17.7955H2ZM3.20071 18.9962C2.5378 18.9962 2 18.458 2 17.7955H1C1 19.0101 1.98531 19.9962 3.20071 19.9962V18.9962ZM20.5726 18.9962C20.6817 18.9962 20.7887 18.9846 20.8922 18.9625L20.683 17.9846C20.6478 17.9921 20.611 17.9962 20.5726 17.9962V18.9962ZM3.20071 18.9962H20.5726V17.9962H3.20071V18.9962ZM2.48147 18.7567C2.68181 18.9068 2.9315 18.9962 3.20071 18.9962V17.9962C3.15543 17.9962 3.11467 17.9816 3.08106 17.9564L2.48147 18.7567ZM2.95067 18.827C3.14256 18.7579 3.31566 18.6292 3.43863 18.4482L2.61147 17.8863L2.61186 17.8862L2.95067 18.827ZM3.43863 18.4482L8.76115 10.6139L7.93399 10.0519L2.61147 17.8863L3.43863 18.4482ZM7.92437 10.5992L11.772 16.7141L12.6184 16.1816L8.77076 10.0666L7.92437 10.5992ZM11.772 16.7141C12.0905 17.2202 12.7788 17.3356 13.2448 16.9611L12.6184 16.1816L12.6184 16.1816L11.772 16.7141ZM13.2448 16.9611L16.4383 14.3949L15.8119 13.6154L12.6184 16.1816L13.2448 16.9611ZM15.7791 14.3661L20.4416 18.8345L21.1335 18.1126L16.471 13.6441L15.7791 14.3661ZM21.8847 17.4473L16.846 12.6184L16.1541 13.3404L21.1927 18.1693L21.8847 17.4473ZM16.846 12.6184C16.4834 12.2709 15.9192 12.2463 15.5277 12.5609L16.1541 13.3404H16.1541L16.846 12.6184ZM15.5277 12.5609L12.4295 15.0505L13.0559 15.83L16.1541 13.3404L15.5277 12.5609ZM13.1659 15.174L9.20999 8.88699L8.36361 9.41956L12.3195 15.7065L13.1659 15.174ZM9.20999 8.88699C8.82593 8.27662 7.9417 8.26109 7.53644 8.8576L8.36361 9.41956V9.41956L9.20999 8.88699ZM7.53644 8.8576L2.08642 16.8796L2.91358 17.4416L8.36361 9.41956L7.53644 8.8576ZM2 5.69947V17.1606H3V5.69947H2ZM3.20071 4.5C2.53814 4.5 2 5.03656 2 5.69947H3C3 5.5902 3.08907 5.5 3.20071 5.5V4.5ZM20.8111 4.5H3.20071V5.5H20.8111V4.5ZM22.0945 5.78471C22.0945 5.07473 21.5217 4.5 20.8111 4.5V5.5C20.968 5.5 21.0945 5.62561 21.0945 5.78471H22.0945ZM22.0945 17.4743V5.78471H21.0945V17.4743H22.0945ZM22.0113 17.9717C22.0654 17.8151 22.0945 17.6476 22.0945 17.4743H21.0945C21.0945 17.5349 21.0844 17.5922 21.0661 17.645L22.0113 17.9717ZM20.3361 8.96059C20.3361 7.3975 19.0688 6.13045 17.5055 6.13235L17.5067 7.13235C18.5168 7.13112 19.3361 7.94976 19.3361 8.96059H20.3361ZM17.5085 11.7901C19.07 11.7901 20.3361 10.5228 20.3361 8.96059H19.3361C19.3361 9.97115 18.5171 10.7901 17.5085 10.7901V11.7901ZM14.676 8.96183C14.676 10.5256 15.9452 11.792 17.5091 11.7901L17.5079 10.7901C16.4961 10.7913 15.676 9.97222 15.676 8.96183H14.676ZM17.5061 6.13235C15.9431 6.13235 14.676 7.39867 14.676 8.96183H15.676C15.676 7.95127 16.4951 7.13235 17.5061 7.13235V6.13235ZM18.3361 8.96059C18.3361 9.41901 17.9646 9.79006 17.5079 9.79006V10.7901C18.5177 10.7901 19.3361 9.97055 19.3361 8.96059H18.3361ZM17.5073 8.13235C17.9651 8.1318 18.3361 8.5024 18.3361 8.96059H19.3361C19.3361 7.95005 18.5171 7.13112 17.5061 7.13236L17.5073 8.13235ZM16.676 8.96183C16.676 8.50387 17.047 8.13235 17.5067 8.13235V7.13235C16.4955 7.13235 15.676 7.95085 15.676 8.96183H16.676ZM17.5073 9.79006C17.0472 9.79062 16.676 9.41901 16.676 8.96183H15.676C15.676 9.97298 16.4969 10.7913 17.5085 10.7901L17.5073 9.79006Z" fill="currentcolor"/>
</svg>
