<svg width="24" height="24" viewBox="0 0 24 24" fill="none" xmlns="http://www.w3.org/2000/svg">
<path fill-rule="evenodd" clip-rule="evenodd" d="M3.20071 19.4962H20.5726C21.6897 19.4962 22.5945 18.5908 22.5945 17.4743V5.78471C22.5945 4.79818 21.7974 4 20.8111 4H3.20071C2.26148 4 1.5 4.76094 1.5 5.69947V17.7955C1.5 18.7341 2.26156 19.4962 3.20071 19.4962ZM20.7876 18.4736C20.7183 18.4884 20.6464 18.4962 20.5726 18.4962H3.20071C3.04346 18.4962 2.89824 18.4442 2.78127 18.3566C2.87715 18.3221 2.9634 18.258 3.02505 18.1672L8.34757 10.3329L12.1952 16.4478C12.3544 16.7009 12.6986 16.7586 12.9316 16.5713L16.1251 14.0051L20.7876 18.4736ZM21.5387 17.8083L16.5 12.9794C16.3187 12.8056 16.0366 12.7933 15.8409 12.9506L12.7427 15.4402L8.7868 9.15327C8.59477 8.84809 8.15266 8.84032 7.95003 9.13858L2.5 17.1606V5.69947C2.5 5.31338 2.81361 5 3.20071 5H20.8111C21.2448 5 21.5945 5.35017 21.5945 5.78471V17.4743C21.5945 17.5913 21.5749 17.7037 21.5387 17.8083ZM17.5061 6.63235C18.7928 6.63078 19.8361 7.67363 19.8361 8.96059C19.8361 10.247 18.7935 11.2901 17.5085 11.2901C16.2207 11.2916 15.176 10.2489 15.176 8.96183C15.176 7.67497 16.2191 6.63235 17.5061 6.63235ZM17.5079 10.2901C18.2411 10.2901 18.8361 9.69478 18.8361 8.96059C18.8361 8.22623 18.2411 7.63146 17.5067 7.63235C16.7713 7.63235 16.176 8.22736 16.176 8.96183C16.176 9.69599 16.7721 10.291 17.5079 10.2901Z" fill="currentcolor"/>
</svg>
