<svg width="24" height="24" viewBox="0 0 24 24" fill="none" xmlns="http://www.w3.org/2000/svg">
<path fill-rule="evenodd" clip-rule="evenodd" d="M17.8962 4C18.4763 4 19.0027 4.23375 19.3841 4.61381C19.7654 4.99387 20 5.51667 20 6.09658C20 6.6747 19.7637 7.19929 19.3841 7.57935C19.0027 7.95941 18.4781 8.19315 17.8962 8.19315C17.316 8.19315 16.7896 7.95941 16.4082 7.57935C16.0269 7.19929 15.7923 6.67648 15.7923 6.09658C15.7923 5.51846 16.0286 4.99387 16.4082 4.61381C16.7896 4.23375 17.316 4 17.8962 4ZM17.8962 9.90432C18.4763 9.90432 19.0027 10.1398 19.3841 10.5181C19.7654 10.8982 20 11.421 20 12.0009C20 12.5808 19.7637 13.1036 19.3841 13.4837C19.0027 13.8637 18.4781 14.0975 17.8962 14.0975C17.316 14.0975 16.7896 13.8619 16.4082 13.4837C16.0269 13.1036 15.7923 12.5808 15.7923 12.0009C15.7923 11.4228 16.0286 10.8982 16.4082 10.5181C16.7896 10.1381 17.316 9.90432 17.8962 9.90432ZM6.10385 15.8068C6.68397 15.8068 7.21039 16.0424 7.59176 16.4207C7.97314 16.8007 8.2077 17.3235 8.2077 17.9034C8.2077 18.4815 7.97135 19.0061 7.59176 19.3862C7.21039 19.7663 6.68577 20 6.10385 20C5.52372 20 4.99731 19.7645 4.61594 19.3862C4.23456 19.0061 4 18.4815 4 17.9034C4 17.3253 4.23456 16.8007 4.61594 16.4207C4.99731 16.0424 5.52193 15.8068 6.10385 15.8068ZM12 15.8068C12.5801 15.8068 13.1065 16.0424 13.4879 16.4207C13.8693 16.8007 14.1038 17.3235 14.1038 17.9034C14.1038 18.4815 13.8693 19.0061 13.4879 19.3862C13.1065 19.7663 12.5819 20 12 20C11.4199 20 10.8935 19.7645 10.5121 19.3862C10.1307 19.0061 9.89615 18.4833 9.89615 17.9034C9.89615 17.3253 10.1307 16.8007 10.5121 16.4207C10.8935 16.0424 11.4181 15.8068 12 15.8068ZM19.3841 16.4207C19.0027 16.0424 18.4763 15.8068 17.8962 15.8068C17.316 15.8068 16.7896 16.0424 16.4082 16.4207C16.0286 16.8007 15.7923 17.3253 15.7923 17.9034C15.7923 18.4833 16.0269 19.0061 16.4082 19.3862C16.7896 19.7645 17.316 20 17.8962 20C18.4781 20 19.0027 19.7663 19.3841 19.3862C19.7637 19.0061 20 18.4815 20 17.9034C20 17.3235 19.7654 16.8007 19.3841 16.4207ZM17.8962 16.6294C18.2489 16.6294 18.5694 16.7722 18.8004 17.0023C19.0313 17.2325 19.1746 17.5519 19.1746 17.9034C19.1746 18.2549 19.0313 18.5743 18.8004 18.8045C18.5694 19.0347 18.2489 19.1774 17.8962 19.1774C17.5434 19.1774 17.2229 19.0347 16.9919 18.8045C16.761 18.5743 16.6177 18.2549 16.6177 17.9034C16.6177 17.5519 16.761 17.2325 16.9919 17.0023C17.2229 16.7722 17.5434 16.6294 17.8962 16.6294ZM12 16.6294C12.3527 16.6294 12.6732 16.7722 12.9042 17.0023C13.1352 17.2325 13.2784 17.5519 13.2784 17.9034C13.2784 18.2549 13.1352 18.5743 12.9042 18.8045C12.6732 19.0347 12.3527 19.1774 12 19.1774C11.6473 19.1774 11.3268 19.0347 11.0958 18.8045C10.8648 18.5743 10.7216 18.2549 10.7216 17.9034C10.7216 17.5519 10.8648 17.2325 11.0958 17.0023C11.3268 16.7722 11.6473 16.6294 12 16.6294ZM6.10385 16.6294C6.45658 16.6294 6.77708 16.7722 7.00806 17.0023C7.23903 17.2325 7.38227 17.5519 7.38048 17.9034C7.38048 18.2549 7.23724 18.5743 7.00627 18.8045C6.77529 19.0347 6.45479 19.1774 6.10206 19.1774C5.74933 19.1774 5.42883 19.0347 5.19785 18.8045C4.96688 18.5743 4.82363 18.2549 4.82363 17.9034C4.82363 17.5519 4.96688 17.2325 5.19964 17.0023C5.43062 16.7722 5.75112 16.6294 6.10385 16.6294ZM17.8962 10.7251C18.2489 10.7251 18.5694 10.8678 18.8004 11.098C19.0313 11.33 19.1746 11.6476 19.1746 11.9991C19.1746 12.3506 19.0313 12.67 18.8004 12.9002C18.5694 13.1304 18.2489 13.2731 17.8962 13.2731C17.5434 13.2731 17.2229 13.1304 16.9919 12.9002C16.761 12.67 16.6177 12.3506 16.6177 11.9991C16.6177 11.6476 16.761 11.3282 16.9919 11.098C17.2229 10.8678 17.5434 10.7251 17.8962 10.7251ZM12 9.90432C12.5801 9.90432 13.1065 10.1398 13.4879 10.5181C13.8693 10.8982 14.1038 11.421 14.1038 12.0009C14.1038 12.5808 13.8693 13.1036 13.4879 13.4837C13.1065 13.8637 12.5819 14.0975 12 14.0975C11.4199 14.0975 10.8935 13.8619 10.5121 13.4837C10.1307 13.1036 9.89615 12.5808 9.89615 12.0009C9.89615 11.4228 10.1307 10.8982 10.5121 10.5181C10.8935 10.1381 11.4181 9.90432 12 9.90432ZM12 10.7251C12.3527 10.7251 12.6732 10.8678 12.9042 11.098C13.1352 11.33 13.2784 11.6476 13.2784 11.9991C13.2784 12.3506 13.1352 12.67 12.9042 12.9002C12.6732 13.1304 12.3527 13.2731 12 13.2731C11.6473 13.2731 11.3268 13.1304 11.0958 12.9002C10.8648 12.67 10.7216 12.3506 10.7216 11.9991C10.7216 11.6476 10.8648 11.3282 11.0958 11.098C11.3268 10.8678 11.6473 10.7251 12 10.7251ZM6.10385 9.90432C6.68397 9.90432 7.21039 10.1398 7.59176 10.5181C7.97314 10.8982 8.2077 11.421 8.2077 12.0009C8.2077 12.5808 7.97135 13.1036 7.59176 13.4837C7.21039 13.8637 6.68577 14.0975 6.10385 14.0975C5.52372 14.0975 4.99731 13.8619 4.61594 13.4837C4.23456 13.1018 4 12.579 4 11.9991C4 11.421 4.23456 10.8964 4.61594 10.5163C4.99731 10.1381 5.52193 9.90432 6.10385 9.90432ZM6.10385 10.7251C6.45658 10.7251 6.77708 10.8678 7.00806 11.098C7.23903 11.33 7.38227 11.6476 7.38048 11.9991C7.38048 12.3506 7.23724 12.67 7.00627 12.9002C6.77529 13.1304 6.45479 13.2731 6.10206 13.2731C5.74933 13.2731 5.42883 13.1304 5.19785 12.9002C4.96688 12.67 4.82363 12.3506 4.82363 11.9991C4.82363 11.6476 4.96688 11.33 5.19964 11.098C5.43062 10.8678 5.75112 10.7251 6.10385 10.7251ZM17.8962 4.82079C18.2489 4.82079 18.5694 4.96353 18.8004 5.19549C19.0313 5.42567 19.1746 5.74328 19.1746 6.09479C19.1746 6.4463 19.0313 6.7657 18.8004 6.99587C18.5694 7.22605 18.2489 7.3688 17.8962 7.3688C17.5434 7.3688 17.2229 7.22605 16.9919 6.99587C16.761 6.7657 16.6177 6.4463 16.6177 6.09479C16.6177 5.74328 16.761 5.42389 16.9919 5.19371C17.2229 4.96353 17.5434 4.82079 17.8962 4.82079ZM12 4C12.5801 4 13.1065 4.23375 13.4879 4.61381C13.8693 4.99387 14.1038 5.51667 14.1038 6.09658C14.1038 6.6747 13.8693 7.19929 13.4879 7.57935C13.1065 7.95941 12.5819 8.19315 12 8.19315C11.4199 8.19315 10.8935 7.95941 10.5121 7.57935C10.1307 7.19929 9.89615 6.67648 9.89615 6.09658C9.89615 5.51846 10.1307 4.99387 10.5121 4.61381C10.8935 4.23375 11.4181 4 12 4ZM12 4.82079C12.3527 4.82079 12.6732 4.96353 12.9042 5.19549C13.1352 5.42567 13.2784 5.74328 13.2784 6.09479C13.2784 6.4463 13.1352 6.7657 12.9042 6.99587C12.6732 7.22605 12.3527 7.3688 12 7.3688C11.6473 7.3688 11.3268 7.22605 11.0958 6.99587C10.8648 6.7657 10.7216 6.4463 10.7216 6.09479C10.7216 5.74328 10.8648 5.42389 11.0958 5.19371C11.3268 4.96353 11.6473 4.82079 12 4.82079ZM6.10385 4C6.68397 4 7.21039 4.23375 7.59176 4.61381C7.97314 4.99387 8.2077 5.51667 8.2077 6.09658C8.2077 6.6747 7.97135 7.19929 7.59176 7.57935C7.21039 7.95941 6.68577 8.19315 6.10385 8.19315C5.52372 8.19315 4.99731 7.95941 4.61594 7.57935C4.23456 7.19929 4 6.6747 4 6.09658C4 5.51667 4.23456 4.99387 4.61594 4.61381C4.99731 4.23375 5.52193 4 6.10385 4ZM6.10385 4.82079C6.45658 4.82079 6.77708 4.96353 7.00806 5.19549C7.23903 5.42567 7.38227 5.74328 7.38048 6.09658C7.38048 6.44809 7.23724 6.76748 7.00627 6.99766C6.77529 7.22784 6.45479 7.37058 6.10206 7.37058C5.74933 7.37058 5.42883 7.22784 5.19785 6.99766C4.96688 6.76748 4.82363 6.44809 4.82363 6.09658C4.82363 5.74328 4.96688 5.42567 5.19964 5.19549C5.43062 4.96353 5.74933 4.82079 6.10385 4.82079Z" fill="currentcolor"/>
<path d="M19.3841 4.61381L19.0311 4.96797V4.96797L19.3841 4.61381ZM19.3841 7.57935L19.737 7.93351L19.7378 7.93268L19.3841 7.57935ZM16.4082 7.57935L16.0553 7.93351V7.93351L16.4082 7.57935ZM16.4082 4.61381L16.0553 4.25964L16.0545 4.26047L16.4082 4.61381ZM19.3841 10.5181L19.737 10.164L19.7362 10.1631L19.3841 10.5181ZM19.3841 13.4837L19.737 13.8378L19.7378 13.837L19.3841 13.4837ZM16.4082 13.4837L16.0553 13.8378L16.0561 13.8387L16.4082 13.4837ZM16.4082 10.5181L16.0553 10.164L16.0545 10.1648L16.4082 10.5181ZM7.59176 16.4207L7.94471 16.0665L7.94387 16.0657L7.59176 16.4207ZM7.59176 19.3862L7.94471 19.7404L7.94554 19.7395L7.59176 19.3862ZM4.61594 19.3862L4.26299 19.7404L4.26383 19.7412L4.61594 19.3862ZM4.61594 16.4207L4.26383 16.0657L4.26299 16.0665L4.61594 16.4207ZM13.4879 16.4207L13.8409 16.0665L13.84 16.0657L13.4879 16.4207ZM13.4879 19.3862L13.135 19.032L13.4879 19.3862ZM10.5121 19.3862L10.1591 19.7404L10.16 19.7412L10.5121 19.3862ZM10.5121 16.4207L10.16 16.0657L10.1591 16.0665L10.5121 16.4207ZM19.3841 16.4207L19.737 16.0665L19.7362 16.0657L19.3841 16.4207ZM16.4082 16.4207L16.0561 16.0657L16.0545 16.0673L16.4082 16.4207ZM16.4082 19.3862L16.0553 19.7404L16.0561 19.7412L16.4082 19.3862ZM19.3841 19.3862L19.737 19.7404L19.7378 19.7395L19.3841 19.3862ZM18.8004 17.0023L18.4474 17.3565V17.3565L18.8004 17.0023ZM18.8004 18.8045L19.1533 19.1587L18.8004 18.8045ZM16.9919 18.8045L16.639 19.1587L16.9919 18.8045ZM16.9919 17.0023L17.3449 17.3565V17.3565L16.9919 17.0023ZM12.9042 17.0023L12.5513 17.3565V17.3565L12.9042 17.0023ZM12.9042 18.8045L13.2571 19.1587L12.9042 18.8045ZM11.0958 18.8045L10.7429 19.1587L10.7429 19.1587L11.0958 18.8045ZM11.0958 17.0023L10.7429 16.6482L10.7429 16.6482L11.0958 17.0023ZM7.00806 17.0023L6.65512 17.3565H6.65512L7.00806 17.0023ZM7.38048 17.9034L6.88048 17.9009V17.9034H7.38048ZM7.00627 18.8045L7.35921 19.1587H7.35921L7.00627 18.8045ZM5.19785 18.8045L4.84491 19.1587H4.84491L5.19785 18.8045ZM5.19964 17.0023L5.55121 17.3579L5.55258 17.3565L5.19964 17.0023ZM18.8004 11.098L19.1547 10.7452L19.1533 10.7439L18.8004 11.098ZM18.8004 12.9002L19.1533 13.2544L18.8004 12.9002ZM16.9919 12.9002L16.639 13.2544L16.9919 12.9002ZM16.9919 11.098L17.3449 11.4522L17.3449 11.4522L16.9919 11.098ZM13.4879 10.5181L13.8409 10.164L13.84 10.1631L13.4879 10.5181ZM13.4879 13.4837L13.135 13.1295L13.4879 13.4837ZM10.5121 13.4837L10.1591 13.8378L10.16 13.8387L10.5121 13.4837ZM10.5121 10.5181L10.1591 10.164L10.5121 10.5181ZM12.9042 11.098L13.2585 10.7452L13.2571 10.7439L12.9042 11.098ZM12.9042 12.9002L13.2571 13.2544L12.9042 12.9002ZM11.0958 12.9002L10.7429 13.2544L10.7429 13.2544L11.0958 12.9002ZM11.0958 11.098L10.7429 10.7439L10.7429 10.7439L11.0958 11.098ZM7.59176 10.5181L7.94471 10.164L7.94387 10.1631L7.59176 10.5181ZM7.59176 13.4837L7.94471 13.8378L7.94554 13.837L7.59176 13.4837ZM4.61594 13.4837L4.26216 13.837L4.26383 13.8387L4.61594 13.4837ZM4.61594 10.5163L4.26383 10.1613L4.26299 10.1622L4.61594 10.5163ZM7.00806 11.098L7.36237 10.7452L7.361 10.7439L7.00806 11.098ZM7.38048 11.9991L6.88048 11.9966V11.9991H7.38048ZM7.00627 12.9002L7.35921 13.2544H7.35921L7.00627 12.9002ZM5.19785 12.9002L4.84491 13.2544H4.84491L5.19785 12.9002ZM5.19964 11.098L5.55258 11.4522H5.55258L5.19964 11.098ZM18.8004 5.19549L18.446 5.5483L18.4474 5.54966L18.8004 5.19549ZM18.8004 6.99587L18.4474 6.64171L18.4474 6.64171L18.8004 6.99587ZM16.9919 6.99587L17.3449 6.64171L17.3449 6.64171L16.9919 6.99587ZM16.9919 5.19371L17.3449 5.54788L17.3449 5.54787L16.9919 5.19371ZM13.4879 4.61381L13.135 4.96797V4.96797L13.4879 4.61381ZM13.4879 7.57935L13.135 7.22518V7.22518L13.4879 7.57935ZM10.5121 7.57935L10.1591 7.93351V7.93351L10.5121 7.57935ZM10.5121 4.61381L10.1591 4.25964V4.25964L10.5121 4.61381ZM12.9042 5.19549L12.5499 5.5483L12.5513 5.54966L12.9042 5.19549ZM12.9042 6.99587L12.5513 6.64171L12.5513 6.64171L12.9042 6.99587ZM11.0958 6.99587L10.7429 7.35004L10.7429 7.35004L11.0958 6.99587ZM11.0958 5.19371L10.7429 4.83954V4.83955L11.0958 5.19371ZM7.59176 4.61381L7.9447 4.25964V4.25964L7.59176 4.61381ZM7.59176 7.57935L7.94471 7.93351L7.94554 7.93268L7.59176 7.57935ZM4.61594 7.57935L4.96888 7.22518L4.61594 7.57935ZM4.61594 4.61381L4.26299 4.25964L4.61594 4.61381ZM7.00806 5.19549L6.65375 5.5483L6.65512 5.54966L7.00806 5.19549ZM7.38048 6.09658L6.88048 6.09404V6.09658H7.38048ZM7.00627 6.99766L7.35921 7.35182L7.00627 6.99766ZM5.19785 6.99766L4.84491 7.35182H4.84491L5.19785 6.99766ZM5.19964 5.19549L5.55122 5.55103L5.55395 5.54829L5.19964 5.19549ZM19.737 4.25964C19.2652 3.78949 18.6132 3.5 17.8962 3.5V4.5C18.3394 4.5 18.7401 4.678 19.0311 4.96797L19.737 4.25964ZM20.5 6.09658C20.5 5.37839 20.2087 4.72966 19.737 4.25964L19.0311 4.96797C19.3222 5.25808 19.5 5.65495 19.5 6.09658H20.5ZM19.7378 7.93268C20.2064 7.46358 20.5 6.81371 20.5 6.09658H19.5C19.5 6.53568 19.3209 6.93499 19.0303 7.22601L19.7378 7.93268ZM17.8962 8.69315C18.6152 8.69315 19.2654 8.40349 19.737 7.93351L19.0311 7.22518C18.74 7.51532 18.3409 7.69315 17.8962 7.69315V8.69315ZM16.0553 7.93351C16.5271 8.40366 17.1791 8.69315 17.8962 8.69315V7.69315C17.4529 7.69315 17.0522 7.51515 16.7612 7.22518L16.0553 7.93351ZM15.2923 6.09658C15.2923 6.81476 15.5837 7.4635 16.0553 7.93351L16.7612 7.22518C16.4701 6.93508 16.2923 6.5382 16.2923 6.09658H15.2923ZM16.0545 4.26047C15.5859 4.72957 15.2923 5.37944 15.2923 6.09658H16.2923C16.2923 5.65747 16.4714 5.25816 16.762 4.96714L16.0545 4.26047ZM17.8962 3.5C17.1791 3.5 16.5271 3.78949 16.0553 4.25964L16.7612 4.96797C17.0522 4.678 17.4529 4.5 17.8962 4.5V3.5ZM19.7362 10.1631C19.2655 9.69626 18.6142 9.40432 17.8962 9.40432V10.4043C18.3384 10.4043 18.7399 10.5834 19.032 10.8731L19.7362 10.1631ZM20.5 12.0009C20.5 11.2827 20.2087 10.634 19.737 10.164L19.0311 10.8723C19.3222 11.1624 19.5 11.5593 19.5 12.0009H20.5ZM19.7378 13.837C20.2062 13.3681 20.5 12.72 20.5 12.0009H19.5C19.5 12.4416 19.3211 12.8391 19.0303 13.1303L19.7378 13.837ZM17.8962 14.5975C18.6152 14.5975 19.2654 14.3078 19.737 13.8378L19.0311 13.1295C18.74 13.4196 18.3409 13.5975 17.8962 13.5975V14.5975ZM16.0561 13.8387C16.5268 14.3055 17.1782 14.5975 17.8962 14.5975V13.5975C17.4539 13.5975 17.0524 13.4184 16.7603 13.1287L16.0561 13.8387ZM15.2923 12.0009C15.2923 12.7191 15.5837 13.3678 16.0553 13.8378L16.7612 13.1295C16.4701 12.8394 16.2923 12.4425 16.2923 12.0009H15.2923ZM16.0545 10.1648C15.5859 10.6339 15.2923 11.2838 15.2923 12.0009H16.2923C16.2923 11.5618 16.4714 11.1625 16.762 10.8715L16.0545 10.1648ZM17.8962 9.40432C17.1791 9.40432 16.5271 9.69381 16.0553 10.164L16.7612 10.8723C17.0522 10.5823 17.4529 10.4043 17.8962 10.4043V9.40432ZM7.94387 16.0657C7.47317 15.5988 6.82185 15.3068 6.10385 15.3068V16.3068C6.5461 16.3068 6.9476 16.486 7.23966 16.7756L7.94387 16.0657ZM8.7077 17.9034C8.7077 17.1852 8.41635 16.5365 7.9447 16.0665L7.23882 16.7748C7.52993 17.0649 7.7077 17.4618 7.7077 17.9034H8.7077ZM7.94554 19.7395C8.41405 19.2704 8.7077 18.6206 8.7077 17.9034H7.7077C7.7077 18.3425 7.52865 18.7418 7.23799 19.0329L7.94554 19.7395ZM6.10385 20.5C6.82291 20.5 7.47309 20.2103 7.9447 19.7404L7.23882 19.032C6.94768 19.3222 6.54862 19.5 6.10385 19.5V20.5ZM4.26383 19.7412C4.73453 20.2081 5.38585 20.5 6.10385 20.5V19.5C5.6616 19.5 5.2601 19.3209 4.96804 19.0312L4.26383 19.7412ZM3.5 17.9034C3.5 18.6196 3.79118 19.2702 4.26299 19.7404L4.96888 19.032C4.67793 18.7421 4.5 18.3435 4.5 17.9034H3.5ZM4.26299 16.0665C3.79118 16.5367 3.5 17.1872 3.5 17.9034H4.5C4.5 17.4634 4.67793 17.0648 4.96888 16.7748L4.26299 16.0665ZM6.10385 15.3068C5.38383 15.3068 4.73436 15.599 4.26383 16.0657L4.96804 16.7756C5.26027 16.4858 5.66003 16.3068 6.10385 16.3068V15.3068ZM13.84 16.0657C13.3693 15.5988 12.718 15.3068 12 15.3068V16.3068C12.4423 16.3068 12.8437 16.486 13.1358 16.7756L13.84 16.0657ZM14.6038 17.9034C14.6038 17.1852 14.3125 16.5365 13.8409 16.0665L13.135 16.7748C13.4261 17.0649 13.6038 17.4618 13.6038 17.9034H14.6038ZM13.8409 19.7404C14.3127 19.2702 14.6038 18.6196 14.6038 17.9034H13.6038C13.6038 18.3435 13.4259 18.7421 13.135 19.032L13.8409 19.7404ZM12 20.5C12.7191 20.5 13.3692 20.2103 13.8409 19.7404L13.135 19.032C12.8438 19.3222 12.4448 19.5 12 19.5V20.5ZM10.16 19.7412C10.6307 20.2081 11.282 20.5 12 20.5V19.5C11.5578 19.5 11.1563 19.3209 10.8642 19.0312L10.16 19.7412ZM9.39615 17.9034C9.39615 18.6216 9.6875 19.2703 10.1591 19.7404L10.865 19.032C10.5739 18.7419 10.3962 18.345 10.3962 17.9034H9.39615ZM10.1591 16.0665C9.68733 16.5367 9.39615 17.1872 9.39615 17.9034H10.3962C10.3962 17.4634 10.5741 17.0648 10.865 16.7748L10.1591 16.0665ZM12 15.3068C11.28 15.3068 10.6305 15.599 10.16 16.0657L10.8642 16.7756C11.1564 16.4858 11.5562 16.3068 12 16.3068V15.3068ZM17.8962 16.3068C18.3384 16.3068 18.7399 16.486 19.032 16.7756L19.7362 16.0657C19.2655 15.5988 18.6142 15.3068 17.8962 15.3068V16.3068ZM16.7603 16.7756C17.0524 16.486 17.4539 16.3068 17.8962 16.3068V15.3068C17.1782 15.3068 16.5268 15.5988 16.0561 16.0657L16.7603 16.7756ZM16.2923 17.9034C16.2923 17.4643 16.4714 17.065 16.762 16.774L16.0545 16.0673C15.5859 16.5364 15.2923 17.1863 15.2923 17.9034H16.2923ZM16.7612 19.032C16.4701 18.7419 16.2923 18.345 16.2923 17.9034H15.2923C15.2923 18.6216 15.5837 19.2703 16.0553 19.7404L16.7612 19.032ZM17.8962 19.5C17.4539 19.5 17.0524 19.3209 16.7603 19.0312L16.0561 19.7412C16.5268 20.2081 17.1782 20.5 17.8962 20.5V19.5ZM19.0311 19.032C18.74 19.3222 18.3409 19.5 17.8962 19.5V20.5C18.6152 20.5 19.2654 20.2103 19.737 19.7404L19.0311 19.032ZM19.5 17.9034C19.5 18.3425 19.3209 18.7418 19.0303 19.0329L19.7378 19.7395C20.2064 19.2704 20.5 18.6206 20.5 17.9034H19.5ZM19.0311 16.7748C19.3222 17.0649 19.5 17.4618 19.5 17.9034H20.5C20.5 17.1852 20.2087 16.5365 19.737 16.0665L19.0311 16.7748ZM19.1533 16.6482C18.8321 16.328 18.386 16.1294 17.8962 16.1294V17.1294C18.1118 17.1294 18.3067 17.2163 18.4474 17.3565L19.1533 16.6482ZM19.6746 17.9034C19.6746 17.4137 19.4746 16.9683 19.1533 16.6482L18.4474 17.3565C18.5881 17.4967 18.6746 17.6901 18.6746 17.9034H19.6746ZM19.1533 19.1587C19.4746 18.8385 19.6746 18.3932 19.6746 17.9034H18.6746C18.6746 18.1167 18.5881 18.3102 18.4474 18.4503L19.1533 19.1587ZM17.8962 19.6774C18.386 19.6774 18.8321 19.4788 19.1533 19.1587L18.4474 18.4503C18.3067 18.5906 18.1118 18.6774 17.8962 18.6774V19.6774ZM16.639 19.1587C16.9602 19.4788 17.4063 19.6774 17.8962 19.6774V18.6774C17.6805 18.6774 17.4856 18.5906 17.3449 18.4503L16.639 19.1587ZM16.1177 17.9034C16.1177 18.3932 16.3177 18.8385 16.639 19.1587L17.3449 18.4503C17.2042 18.3102 17.1177 18.1167 17.1177 17.9034H16.1177ZM16.639 16.6482C16.3177 16.9683 16.1177 17.4137 16.1177 17.9034H17.1177C17.1177 17.6901 17.2042 17.4967 17.3449 17.3565L16.639 16.6482ZM17.8962 16.1294C17.4063 16.1294 16.9602 16.328 16.639 16.6482L17.3449 17.3565C17.4856 17.2163 17.6805 17.1294 17.8962 17.1294V16.1294ZM13.2571 16.6482C12.9359 16.328 12.4898 16.1294 12 16.1294V17.1294C12.2156 17.1294 12.4106 17.2163 12.5513 17.3565L13.2571 16.6482ZM13.7784 17.9034C13.7784 17.4137 13.5784 16.9683 13.2571 16.6482L12.5513 17.3565C12.6919 17.4967 12.7784 17.6901 12.7784 17.9034H13.7784ZM13.2571 19.1587C13.5784 18.8385 13.7784 18.3932 13.7784 17.9034H12.7784C12.7784 18.1167 12.6919 18.3102 12.5513 18.4503L13.2571 19.1587ZM12 19.6774C12.4898 19.6774 12.9359 19.4788 13.2571 19.1587L12.5513 18.4503C12.4106 18.5906 12.2156 18.6774 12 18.6774V19.6774ZM10.7429 19.1587C11.0641 19.4788 11.5102 19.6774 12 19.6774V18.6774C11.7844 18.6774 11.5894 18.5906 11.4487 18.4503L10.7429 19.1587ZM10.2216 17.9034C10.2216 18.3932 10.4216 18.8385 10.7429 19.1587L11.4487 18.4503C11.3081 18.3102 11.2216 18.1167 11.2216 17.9034H10.2216ZM10.7429 16.6482C10.4216 16.9683 10.2216 17.4137 10.2216 17.9034H11.2216C11.2216 17.6901 11.3081 17.4967 11.4487 17.3565L10.7429 16.6482ZM12 16.1294C11.5102 16.1294 11.0641 16.328 10.7429 16.6482L11.4487 17.3565C11.5894 17.2163 11.7844 17.1294 12 17.1294V16.1294ZM7.361 16.6482C7.03975 16.328 6.59368 16.1294 6.10385 16.1294V17.1294C6.31948 17.1294 6.51441 17.2163 6.65512 17.3565L7.361 16.6482ZM7.88048 17.906C7.88298 17.4144 7.68222 16.9683 7.361 16.6482L6.65512 17.3565C6.79585 17.4968 6.88157 17.6894 6.88049 17.9009L7.88048 17.906ZM7.35921 19.1587C7.68049 18.8385 7.88048 18.3932 7.88048 17.9034H6.88048C6.88048 18.1167 6.794 18.3102 6.65333 18.4503L7.35921 19.1587ZM6.10206 19.6774C6.59189 19.6774 7.03796 19.4788 7.35921 19.1587L6.65333 18.4503C6.51262 18.5906 6.31769 18.6774 6.10206 18.6774V19.6774ZM4.84491 19.1587C5.16616 19.4788 5.61223 19.6774 6.10206 19.6774V18.6774C5.88642 18.6774 5.6915 18.5906 5.55079 18.4503L4.84491 19.1587ZM4.32363 17.9034C4.32363 18.3932 4.52363 18.8385 4.84491 19.1587L5.55079 18.4503C5.41012 18.3102 5.32363 18.1167 5.32363 17.9034H4.32363ZM4.84807 16.6468C4.52382 16.9675 4.32363 17.4135 4.32363 17.9034H5.32363C5.32363 17.6903 5.40993 17.4976 5.55121 17.3579L4.84807 16.6468ZM6.10385 16.1294C5.61402 16.1294 5.16795 16.328 4.8467 16.6482L5.55258 17.3565C5.69329 17.2163 5.88821 17.1294 6.10385 17.1294V16.1294ZM19.1533 10.7439C18.8321 10.4237 18.386 10.2251 17.8962 10.2251V11.2251C18.1118 11.2251 18.3067 11.312 18.4474 11.4522L19.1533 10.7439ZM19.6746 11.9991C19.6746 11.5083 19.4738 11.0658 19.1547 10.7452L18.4461 11.4508C18.5888 11.5942 18.6746 11.7869 18.6746 11.9991H19.6746ZM19.1533 13.2544C19.4746 12.9342 19.6746 12.4889 19.6746 11.9991H18.6746C18.6746 12.2124 18.5881 12.4058 18.4474 12.546L19.1533 13.2544ZM17.8962 13.7731C18.386 13.7731 18.8321 13.5745 19.1533 13.2544L18.4474 12.546C18.3067 12.6862 18.1118 12.7731 17.8962 12.7731V13.7731ZM16.639 13.2544C16.9602 13.5745 17.4063 13.7731 17.8962 13.7731V12.7731C17.6805 12.7731 17.4856 12.6862 17.3449 12.546L16.639 13.2544ZM16.1177 11.9991C16.1177 12.4889 16.3177 12.9342 16.639 13.2544L17.3449 12.546C17.2042 12.4058 17.1177 12.2124 17.1177 11.9991H16.1177ZM16.639 10.7439C16.3177 11.064 16.1177 11.5094 16.1177 11.9991H17.1177C17.1177 11.7858 17.2042 11.5924 17.3449 11.4522L16.639 10.7439ZM17.8962 10.2251C17.4063 10.2251 16.9602 10.4237 16.639 10.7439L17.3449 11.4522C17.4856 11.312 17.6805 11.2251 17.8962 11.2251V10.2251ZM13.84 10.1631C13.3693 9.69626 12.718 9.40432 12 9.40432V10.4043C12.4423 10.4043 12.8437 10.5834 13.1358 10.8731L13.84 10.1631ZM14.6038 12.0009C14.6038 11.2827 14.3125 10.634 13.8409 10.164L13.135 10.8723C13.4261 11.1624 13.6038 11.5593 13.6038 12.0009H14.6038ZM13.8409 13.8378C14.3125 13.3678 14.6038 12.7191 14.6038 12.0009H13.6038C13.6038 12.4425 13.4261 12.8394 13.135 13.1295L13.8409 13.8378ZM12 14.5975C12.7191 14.5975 13.3692 14.3078 13.8409 13.8378L13.135 13.1295C12.8438 13.4196 12.4448 13.5975 12 13.5975V14.5975ZM10.16 13.8387C10.6307 14.3055 11.282 14.5975 12 14.5975V13.5975C11.5578 13.5975 11.1563 13.4184 10.8642 13.1287L10.16 13.8387ZM9.39615 12.0009C9.39615 12.7191 9.6875 13.3678 10.1591 13.8378L10.865 13.1295C10.5739 12.8394 10.3962 12.4425 10.3962 12.0009H9.39615ZM10.1591 10.164C9.68733 10.6341 9.39615 11.2847 9.39615 12.0009H10.3962C10.3962 11.5608 10.5741 11.1622 10.865 10.8723L10.1591 10.164ZM12 9.40432C11.2809 9.40432 10.6308 9.69397 10.1591 10.164L10.865 10.8723C11.1562 10.5822 11.5552 10.4043 12 10.4043V9.40432ZM13.2571 10.7439C12.9359 10.4237 12.4898 10.2251 12 10.2251V11.2251C12.2156 11.2251 12.4106 11.312 12.5513 11.4522L13.2571 10.7439ZM13.7784 11.9991C13.7784 11.5083 13.5777 11.0658 13.2585 10.7452L12.5499 11.4508C12.6927 11.5942 12.7784 11.7869 12.7784 11.9991H13.7784ZM13.2571 13.2544C13.5784 12.9342 13.7784 12.4889 13.7784 11.9991H12.7784C12.7784 12.2124 12.6919 12.4058 12.5513 12.546L13.2571 13.2544ZM12 13.7731C12.4898 13.7731 12.9359 13.5745 13.2571 13.2544L12.5513 12.546C12.4106 12.6862 12.2156 12.7731 12 12.7731V13.7731ZM10.7429 13.2544C11.0641 13.5745 11.5102 13.7731 12 13.7731V12.7731C11.7844 12.7731 11.5894 12.6862 11.4487 12.546L10.7429 13.2544ZM10.2216 11.9991C10.2216 12.4889 10.4216 12.9342 10.7429 13.2544L11.4487 12.546C11.3081 12.4058 11.2216 12.2124 11.2216 11.9991H10.2216ZM10.7429 10.7439C10.4216 11.064 10.2216 11.5094 10.2216 11.9991H11.2216C11.2216 11.7858 11.3081 11.5924 11.4487 11.4522L10.7429 10.7439ZM12 10.2251C11.5102 10.2251 11.0641 10.4237 10.7429 10.7439L11.4487 11.4522C11.5894 11.312 11.7844 11.2251 12 11.2251V10.2251ZM7.94387 10.1631C7.47317 9.69626 6.82185 9.40432 6.10385 9.40432V10.4043C6.5461 10.4043 6.9476 10.5834 7.23966 10.8731L7.94387 10.1631ZM8.7077 12.0009C8.7077 11.2827 8.41635 10.634 7.9447 10.164L7.23882 10.8723C7.52993 11.1624 7.7077 11.5593 7.7077 12.0009H8.7077ZM7.94554 13.837C8.41389 13.3681 8.7077 12.72 8.7077 12.0009H7.7077C7.7077 12.4416 7.52882 12.8391 7.23799 13.1303L7.94554 13.837ZM6.10385 14.5975C6.82291 14.5975 7.47309 14.3078 7.9447 13.8378L7.23882 13.1295C6.94768 13.4196 6.54862 13.5975 6.10385 13.5975V14.5975ZM4.26383 13.8387C4.73453 14.3055 5.38585 14.5975 6.10385 14.5975V13.5975C5.6616 13.5975 5.2601 13.4184 4.96804 13.1287L4.26383 13.8387ZM3.5 11.9991C3.5 12.7175 3.79146 13.3657 4.26217 13.837L4.9697 13.1303C4.67765 12.8379 4.5 12.4405 4.5 11.9991H3.5ZM4.26299 10.1622C3.79118 10.6324 3.5 11.2829 3.5 11.9991H4.5C4.5 11.559 4.67793 11.1604 4.96888 10.8705L4.26299 10.1622ZM6.10385 9.40432C5.3849 9.40432 4.73515 9.69386 4.26383 10.1613L4.96804 10.8713C5.25948 10.5823 5.65897 10.4043 6.10385 10.4043V9.40432ZM7.361 10.7439C7.03975 10.4237 6.59368 10.2251 6.10385 10.2251V11.2251C6.31949 11.2251 6.51441 11.312 6.65512 11.4522L7.361 10.7439ZM7.88048 12.0017C7.88299 11.509 7.68149 11.0657 7.36236 10.7452L6.65375 11.4508C6.79658 11.5943 6.88156 11.7861 6.88049 11.9966L7.88048 12.0017ZM7.35921 13.2544C7.68049 12.9342 7.88048 12.4889 7.88048 11.9991H6.88048C6.88048 12.2124 6.794 12.4058 6.65333 12.546L7.35921 13.2544ZM6.10206 13.7731C6.59189 13.7731 7.03796 13.5745 7.35921 13.2544L6.65333 12.546C6.51262 12.6862 6.31769 12.7731 6.10206 12.7731V13.7731ZM4.84491 13.2544C5.16616 13.5745 5.61223 13.7731 6.10206 13.7731V12.7731C5.88642 12.7731 5.6915 12.6862 5.55079 12.546L4.84491 13.2544ZM4.32363 11.9991C4.32363 12.4889 4.52363 12.9342 4.84491 13.2544L5.55079 12.546C5.41012 12.4058 5.32363 12.2124 5.32363 11.9991H4.32363ZM4.8467 10.7439C4.52455 11.0649 4.32363 11.5081 4.32363 11.9991H5.32363C5.32363 11.7871 5.4092 11.5951 5.55258 11.4522L4.8467 10.7439ZM6.10385 10.2251C5.61402 10.2251 5.16795 10.4237 4.8467 10.7439L5.55258 11.4522C5.69329 11.312 5.88821 11.2251 6.10385 11.2251V10.2251ZM19.1547 4.8427C18.8329 4.51959 18.3862 4.32079 17.8962 4.32079V5.32079C18.1116 5.32079 18.3058 5.40747 18.4461 5.54829L19.1547 4.8427ZM19.6746 6.09479C19.6746 5.6043 19.474 5.16095 19.1533 4.84133L18.4474 5.54966C18.5886 5.69039 18.6746 5.88226 18.6746 6.09479H19.6746ZM19.1533 7.35004C19.4746 7.02987 19.6746 6.58454 19.6746 6.09479H18.6746C18.6746 6.30807 18.5881 6.50152 18.4474 6.64171L19.1533 7.35004ZM17.8962 7.8688C18.386 7.8688 18.8321 7.67018 19.1533 7.35004L18.4474 6.64171C18.3067 6.78193 18.1118 6.8688 17.8962 6.8688V7.8688ZM16.639 7.35004C16.9602 7.67018 17.4063 7.8688 17.8962 7.8688V6.8688C17.6805 6.8688 17.4856 6.78193 17.3449 6.64171L16.639 7.35004ZM16.1177 6.09479C16.1177 6.58454 16.3177 7.02987 16.639 7.35004L17.3449 6.64171C17.2042 6.50152 17.1177 6.30807 17.1177 6.09479H16.1177ZM16.639 4.83954C16.3177 5.15971 16.1177 5.60505 16.1177 6.09479H17.1177C17.1177 5.88151 17.2042 5.68806 17.3449 5.54788L16.639 4.83954ZM17.8962 4.32079C17.4063 4.32079 16.9602 4.51941 16.639 4.83955L17.3449 5.54787C17.4856 5.40766 17.6805 5.32079 17.8962 5.32079V4.32079ZM13.8409 4.25964C13.3691 3.78949 12.717 3.5 12 3.5V4.5C12.4432 4.5 12.844 4.678 13.135 4.96797L13.8409 4.25964ZM14.6038 6.09658C14.6038 5.37839 14.3125 4.72966 13.8409 4.25964L13.135 4.96797C13.4261 5.25808 13.6038 5.65495 13.6038 6.09658H14.6038ZM13.8409 7.93351C14.3127 7.46333 14.6038 6.81275 14.6038 6.09658H13.6038C13.6038 6.53664 13.4259 6.93524 13.135 7.22518L13.8409 7.93351ZM12 8.69315C12.7191 8.69315 13.3692 8.40349 13.8409 7.93351L13.135 7.22518C12.8438 7.51532 12.4448 7.69315 12 7.69315V8.69315ZM10.1591 7.93351C10.6309 8.40366 11.283 8.69315 12 8.69315V7.69315C11.5568 7.69315 11.156 7.51515 10.865 7.22518L10.1591 7.93351ZM9.39615 6.09658C9.39615 6.81476 9.6875 7.4635 10.1591 7.93351L10.865 7.22518C10.5739 6.93508 10.3962 6.5382 10.3962 6.09658H9.39615ZM10.1591 4.25964C9.68733 4.72982 9.39615 5.3804 9.39615 6.09658H10.3962C10.3962 5.65651 10.5741 5.25791 10.865 4.96797L10.1591 4.25964ZM12 3.5C11.2809 3.5 10.6308 3.78966 10.1591 4.25964L10.865 4.96797C11.1562 4.67783 11.5552 4.5 12 4.5V3.5ZM13.2585 4.8427C12.9368 4.51959 12.49 4.32079 12 4.32079V5.32079C12.2155 5.32079 12.4097 5.40747 12.5499 5.54829L13.2585 4.8427ZM13.7784 6.09479C13.7784 5.6043 13.5779 5.16095 13.2571 4.84133L12.5513 5.54966C12.6925 5.69039 12.7784 5.88226 12.7784 6.09479H13.7784ZM13.2571 7.35004C13.5784 7.02987 13.7784 6.58454 13.7784 6.09479H12.7784C12.7784 6.30807 12.6919 6.50152 12.5513 6.64171L13.2571 7.35004ZM12 7.8688C12.4898 7.8688 12.9359 7.67018 13.2571 7.35004L12.5513 6.64171C12.4106 6.78193 12.2156 6.8688 12 6.8688V7.8688ZM10.7429 7.35004C11.0641 7.67018 11.5102 7.8688 12 7.8688V6.8688C11.7844 6.8688 11.5894 6.78193 11.4487 6.64171L10.7429 7.35004ZM10.2216 6.09479C10.2216 6.58454 10.4216 7.02987 10.7429 7.35004L11.4487 6.64171C11.3081 6.50152 11.2216 6.30807 11.2216 6.09479H10.2216ZM10.7429 4.83955C10.4216 5.15971 10.2216 5.60505 10.2216 6.09479H11.2216C11.2216 5.88151 11.3081 5.68806 11.4487 5.54788L10.7429 4.83955ZM12 4.32079C11.5102 4.32079 11.0641 4.51941 10.7429 4.83954L11.4487 5.54788C11.5894 5.40766 11.7844 5.32079 12 5.32079V4.32079ZM7.9447 4.25964C7.47293 3.78949 6.82089 3.5 6.10385 3.5V4.5C6.54706 4.5 6.94784 4.678 7.23882 4.96797L7.9447 4.25964ZM8.7077 6.09658C8.7077 5.37839 8.41635 4.72966 7.9447 4.25964L7.23882 4.96797C7.52993 5.25808 7.7077 5.65495 7.7077 6.09658H8.7077ZM7.94554 7.93268C8.41405 7.46358 8.7077 6.81371 8.7077 6.09658H7.7077C7.7077 6.53568 7.52865 6.93499 7.23799 7.22601L7.94554 7.93268ZM6.10385 8.69315C6.82291 8.69315 7.47309 8.40349 7.9447 7.93351L7.23882 7.22518C6.94768 7.51532 6.54862 7.69315 6.10385 7.69315V8.69315ZM4.26299 7.93351C4.73477 8.40366 5.3868 8.69315 6.10385 8.69315V7.69315C5.66064 7.69315 5.25985 7.51515 4.96888 7.22518L4.26299 7.93351ZM3.5 6.09658C3.5 6.81275 3.79118 7.46333 4.26299 7.93351L4.96888 7.22518C4.67793 6.93524 4.5 6.53664 4.5 6.09658H3.5ZM4.26299 4.25964C3.79135 4.72966 3.5 5.37839 3.5 6.09658H4.5C4.5 5.65495 4.67776 5.25808 4.96888 4.96797L4.26299 4.25964ZM6.10385 3.5C5.38479 3.5 4.73461 3.78966 4.26299 4.25964L4.96888 4.96797C5.26002 4.67783 5.65908 4.5 6.10385 4.5V3.5ZM7.36236 4.84269C7.04063 4.51959 6.59386 4.32079 6.10385 4.32079V5.32079C6.31931 5.32079 6.51353 5.40747 6.65375 5.54829L7.36236 4.84269ZM7.88048 6.09911C7.88298 5.60541 7.68195 5.16117 7.361 4.84133L6.65512 5.54966C6.79612 5.69017 6.88157 5.88115 6.88049 6.09404L7.88048 6.09911ZM7.35921 7.35182C7.68049 7.03165 7.88048 6.58632 7.88048 6.09658H6.88048C6.88048 6.30986 6.794 6.50331 6.65333 6.64349L7.35921 7.35182ZM6.10206 7.87058C6.59188 7.87058 7.03796 7.67196 7.35921 7.35182L6.65333 6.64349C6.51262 6.78371 6.31769 6.87058 6.10206 6.87058V7.87058ZM4.84491 7.35182C5.16616 7.67196 5.61223 7.87058 6.10206 7.87058V6.87058C5.88642 6.87058 5.6915 6.78371 5.55079 6.64349L4.84491 7.35182ZM4.32363 6.09658C4.32363 6.58632 4.52363 7.03165 4.84491 7.35182L5.55079 6.64349C5.41012 6.50331 5.32363 6.30986 5.32363 6.09658H4.32363ZM4.84807 4.83997C4.5241 5.16034 4.32363 5.60449 4.32363 6.09658H5.32363C5.32363 5.88207 5.40965 5.691 5.55121 5.55102L4.84807 4.83997ZM6.10385 4.32079C5.61168 4.32079 5.16679 4.51987 4.84534 4.84269L5.55395 5.54829C5.69444 5.4072 5.88698 5.32079 6.10385 5.32079V4.32079Z" fill="currentcolor"/>
</svg>
