<svg width="24" height="24" viewBox="0 0 24 24" fill="none" xmlns="http://www.w3.org/2000/svg">
<path fill-rule="evenodd" clip-rule="evenodd" d="M14.667 10C14.667 11.3802 13.5471 12.5 12.167 12.5C10.7869 12.5 9.667 11.3802 9.667 10C9.667 8.61987 10.7869 7.50001 12.167 7.50001C13.5471 7.50001 14.667 8.61987 14.667 10ZM13.667 10C13.667 9.17215 12.9949 8.50001 12.167 8.50001C11.3391 8.50001 10.667 9.17215 10.667 10C10.667 10.8279 11.3391 11.5 12.167 11.5C12.9949 11.5 13.667 10.8279 13.667 10Z" fill="currentcolor"/>
<path fill-rule="evenodd" clip-rule="evenodd" d="M18.334 9.66651C18.334 10.8044 18.0091 12.1043 17.4108 13.5407C16.9121 14.7378 16.2352 16.0012 15.4245 17.2983C14.7966 18.3028 14.1245 19.2704 13.4524 20.1664C13.2171 20.4801 12.9983 20.7627 12.8018 21.0098C12.6831 21.1589 12.5977 21.2637 12.5511 21.3196C12.3512 21.5595 11.9828 21.5595 11.7829 21.3196C11.7363 21.2637 11.6509 21.1589 11.5322 21.0098C11.3357 20.7627 11.1169 20.4801 10.8816 20.1664C10.2095 19.2704 9.53744 18.3028 8.90952 17.2983C8.09875 16.0012 7.42192 14.7378 6.92321 13.5407C6.32487 12.1043 6 10.8044 6 9.66651C6 6.26104 8.76119 3.49951 12.167 3.49951C15.5728 3.49951 18.334 6.26104 18.334 9.66651ZM12.6525 19.5663C13.3086 18.6916 13.9648 17.7469 14.5765 16.7682C15.3604 15.5142 16.0123 14.2974 16.4877 13.1561C17.0395 11.8313 17.334 10.6531 17.334 9.66651C17.334 6.81329 15.0205 4.49951 12.167 4.49951C9.3135 4.49951 7 6.81329 7 9.66651C7 10.6531 7.29445 11.8313 7.84632 13.1561C8.32175 14.2974 8.97362 15.5142 9.75748 16.7682C10.3692 17.7469 11.0254 18.6916 11.6815 19.5663C11.8534 19.7955 12.016 20.0073 12.167 20.2C12.318 20.0073 12.4806 19.7955 12.6525 19.5663Z" fill="currentcolor"/>
</svg>
