<svg width="24" height="24" viewBox="0 0 24 24" fill="none" xmlns="http://www.w3.org/2000/svg">
<path fill-rule="evenodd" clip-rule="evenodd" d="M17.8962 4C18.4763 4 19.0027 4.23375 19.3841 4.61381C19.7654 4.99387 20 5.51667 20 6.09658C20 6.6747 19.7637 7.19929 19.3841 7.57935C19.0027 7.95941 18.4781 8.19315 17.8962 8.19315C17.316 8.19315 16.7896 7.95941 16.4082 7.57935C16.0269 7.19929 15.7923 6.67648 15.7923 6.09658C15.7923 5.51846 16.0286 4.99387 16.4082 4.61381C16.7896 4.23375 17.316 4 17.8962 4ZM17.8962 9.90432C18.4763 9.90432 19.0027 10.1398 19.3841 10.5181C19.7654 10.8982 20 11.421 20 12.0009C20 12.5808 19.7637 13.1036 19.3841 13.4837C19.0027 13.8637 18.4781 14.0975 17.8962 14.0975C17.316 14.0975 16.7896 13.8619 16.4082 13.4837C16.0269 13.1036 15.7923 12.5808 15.7923 12.0009C15.7923 11.4228 16.0286 10.8982 16.4082 10.5181C16.7896 10.1381 17.316 9.90432 17.8962 9.90432ZM6.10385 15.8068C6.68397 15.8068 7.21039 16.0424 7.59176 16.4207C7.97314 16.8007 8.2077 17.3235 8.2077 17.9034C8.2077 18.4815 7.97135 19.0061 7.59176 19.3862C7.21039 19.7663 6.68577 20 6.10385 20C5.52372 20 4.99731 19.7645 4.61594 19.3862C4.23456 19.0061 4 18.4815 4 17.9034C4 17.3253 4.23456 16.8007 4.61594 16.4207C4.99731 16.0424 5.52193 15.8068 6.10385 15.8068ZM12 15.8068C12.5801 15.8068 13.1065 16.0424 13.4879 16.4207C13.8693 16.8007 14.1038 17.3235 14.1038 17.9034C14.1038 18.4815 13.8693 19.0061 13.4879 19.3862C13.1065 19.7663 12.5819 20 12 20C11.4199 20 10.8935 19.7645 10.5121 19.3862C10.1307 19.0061 9.89615 18.4833 9.89615 17.9034C9.89615 17.3253 10.1307 16.8007 10.5121 16.4207C10.8935 16.0424 11.4181 15.8068 12 15.8068ZM19.3841 16.4207C19.0027 16.0424 18.4763 15.8068 17.8962 15.8068C17.316 15.8068 16.7896 16.0424 16.4082 16.4207C16.0286 16.8007 15.7923 17.3253 15.7923 17.9034C15.7923 18.4833 16.0269 19.0061 16.4082 19.3862C16.7896 19.7645 17.316 20 17.8962 20C18.4781 20 19.0027 19.7663 19.3841 19.3862C19.7637 19.0061 20 18.4815 20 17.9034C20 17.3235 19.7654 16.8007 19.3841 16.4207ZM17.8962 16.6294C18.2489 16.6294 18.5694 16.7722 18.8004 17.0023C19.0313 17.2325 19.1746 17.5519 19.1746 17.9034C19.1746 18.2549 19.0313 18.5743 18.8004 18.8045C18.5694 19.0347 18.2489 19.1774 17.8962 19.1774C17.5434 19.1774 17.2229 19.0347 16.9919 18.8045C16.761 18.5743 16.6177 18.2549 16.6177 17.9034C16.6177 17.5519 16.761 17.2325 16.9919 17.0023C17.2229 16.7722 17.5434 16.6294 17.8962 16.6294ZM12 16.6294C12.3527 16.6294 12.6732 16.7722 12.9042 17.0023C13.1352 17.2325 13.2784 17.5519 13.2784 17.9034C13.2784 18.2549 13.1352 18.5743 12.9042 18.8045C12.6732 19.0347 12.3527 19.1774 12 19.1774C11.6473 19.1774 11.3268 19.0347 11.0958 18.8045C10.8648 18.5743 10.7216 18.2549 10.7216 17.9034C10.7216 17.5519 10.8648 17.2325 11.0958 17.0023C11.3268 16.7722 11.6473 16.6294 12 16.6294ZM6.10385 16.6294C6.45658 16.6294 6.77708 16.7722 7.00806 17.0023C7.23903 17.2325 7.38227 17.5519 7.38048 17.9034C7.38048 18.2549 7.23724 18.5743 7.00627 18.8045C6.77529 19.0347 6.45479 19.1774 6.10206 19.1774C5.74933 19.1774 5.42883 19.0347 5.19785 18.8045C4.96688 18.5743 4.82363 18.2549 4.82363 17.9034C4.82363 17.5519 4.96688 17.2325 5.19964 17.0023C5.43062 16.7722 5.75112 16.6294 6.10385 16.6294ZM17.8962 10.7251C18.2489 10.7251 18.5694 10.8678 18.8004 11.098C19.0313 11.33 19.1746 11.6476 19.1746 11.9991C19.1746 12.3506 19.0313 12.67 18.8004 12.9002C18.5694 13.1304 18.2489 13.2731 17.8962 13.2731C17.5434 13.2731 17.2229 13.1304 16.9919 12.9002C16.761 12.67 16.6177 12.3506 16.6177 11.9991C16.6177 11.6476 16.761 11.3282 16.9919 11.098C17.2229 10.8678 17.5434 10.7251 17.8962 10.7251ZM12 9.90432C12.5801 9.90432 13.1065 10.1398 13.4879 10.5181C13.8693 10.8982 14.1038 11.421 14.1038 12.0009C14.1038 12.5808 13.8693 13.1036 13.4879 13.4837C13.1065 13.8637 12.5819 14.0975 12 14.0975C11.4199 14.0975 10.8935 13.8619 10.5121 13.4837C10.1307 13.1036 9.89615 12.5808 9.89615 12.0009C9.89615 11.4228 10.1307 10.8982 10.5121 10.5181C10.8935 10.1381 11.4181 9.90432 12 9.90432ZM12 10.7251C12.3527 10.7251 12.6732 10.8678 12.9042 11.098C13.1352 11.33 13.2784 11.6476 13.2784 11.9991C13.2784 12.3506 13.1352 12.67 12.9042 12.9002C12.6732 13.1304 12.3527 13.2731 12 13.2731C11.6473 13.2731 11.3268 13.1304 11.0958 12.9002C10.8648 12.67 10.7216 12.3506 10.7216 11.9991C10.7216 11.6476 10.8648 11.3282 11.0958 11.098C11.3268 10.8678 11.6473 10.7251 12 10.7251ZM6.10385 9.90432C6.68397 9.90432 7.21039 10.1398 7.59176 10.5181C7.97314 10.8982 8.2077 11.421 8.2077 12.0009C8.2077 12.5808 7.97135 13.1036 7.59176 13.4837C7.21039 13.8637 6.68577 14.0975 6.10385 14.0975C5.52372 14.0975 4.99731 13.8619 4.61594 13.4837C4.23456 13.1018 4 12.579 4 11.9991C4 11.421 4.23456 10.8964 4.61594 10.5163C4.99731 10.1381 5.52193 9.90432 6.10385 9.90432ZM6.10385 10.7251C6.45658 10.7251 6.77708 10.8678 7.00806 11.098C7.23903 11.33 7.38227 11.6476 7.38048 11.9991C7.38048 12.3506 7.23724 12.67 7.00627 12.9002C6.77529 13.1304 6.45479 13.2731 6.10206 13.2731C5.74933 13.2731 5.42883 13.1304 5.19785 12.9002C4.96688 12.67 4.82363 12.3506 4.82363 11.9991C4.82363 11.6476 4.96688 11.33 5.19964 11.098C5.43062 10.8678 5.75112 10.7251 6.10385 10.7251ZM17.8962 4.82079C18.2489 4.82079 18.5694 4.96353 18.8004 5.19549C19.0313 5.42567 19.1746 5.74328 19.1746 6.09479C19.1746 6.4463 19.0313 6.7657 18.8004 6.99587C18.5694 7.22605 18.2489 7.3688 17.8962 7.3688C17.5434 7.3688 17.2229 7.22605 16.9919 6.99587C16.761 6.7657 16.6177 6.4463 16.6177 6.09479C16.6177 5.74328 16.761 5.42389 16.9919 5.19371C17.2229 4.96353 17.5434 4.82079 17.8962 4.82079ZM12 4C12.5801 4 13.1065 4.23375 13.4879 4.61381C13.8693 4.99387 14.1038 5.51667 14.1038 6.09658C14.1038 6.6747 13.8693 7.19929 13.4879 7.57935C13.1065 7.95941 12.5819 8.19315 12 8.19315C11.4199 8.19315 10.8935 7.95941 10.5121 7.57935C10.1307 7.19929 9.89615 6.67648 9.89615 6.09658C9.89615 5.51846 10.1307 4.99387 10.5121 4.61381C10.8935 4.23375 11.4181 4 12 4ZM12 4.82079C12.3527 4.82079 12.6732 4.96353 12.9042 5.19549C13.1352 5.42567 13.2784 5.74328 13.2784 6.09479C13.2784 6.4463 13.1352 6.7657 12.9042 6.99587C12.6732 7.22605 12.3527 7.3688 12 7.3688C11.6473 7.3688 11.3268 7.22605 11.0958 6.99587C10.8648 6.7657 10.7216 6.4463 10.7216 6.09479C10.7216 5.74328 10.8648 5.42389 11.0958 5.19371C11.3268 4.96353 11.6473 4.82079 12 4.82079ZM6.10385 4C6.68397 4 7.21039 4.23375 7.59176 4.61381C7.97314 4.99387 8.2077 5.51667 8.2077 6.09658C8.2077 6.6747 7.97135 7.19929 7.59176 7.57935C7.21039 7.95941 6.68577 8.19315 6.10385 8.19315C5.52372 8.19315 4.99731 7.95941 4.61594 7.57935C4.23456 7.19929 4 6.6747 4 6.09658C4 5.51667 4.23456 4.99387 4.61594 4.61381C4.99731 4.23375 5.52193 4 6.10385 4ZM6.10385 4.82079C6.45658 4.82079 6.77708 4.96353 7.00806 5.19549C7.23903 5.42567 7.38227 5.74328 7.38048 6.09658C7.38048 6.44809 7.23724 6.76748 7.00627 6.99766C6.77529 7.22784 6.45479 7.37058 6.10206 7.37058C5.74933 7.37058 5.42883 7.22784 5.19785 6.99766C4.96688 6.76748 4.82363 6.44809 4.82363 6.09658C4.82363 5.74328 4.96688 5.42567 5.19964 5.19549C5.43062 4.96353 5.74933 4.82079 6.10385 4.82079Z" fill="currentcolor"/>
</svg>
