<svg width="24" height="24" viewBox="0 0 24 24" fill="none" xmlns="http://www.w3.org/2000/svg">
<path fill-rule="evenodd" clip-rule="evenodd" d="M12 22C17.523 22 22 17.5226 22 12C22 6.47669 17.5233 2 12 2C6.47739 2 2 6.47705 2 12C2 17.5223 6.47775 22 12 22ZM11.9999 3.00264C16.9695 3.00264 20.9973 7.03043 20.9973 12C20.9973 16.9689 16.9691 20.9974 11.9999 20.9974C7.03141 20.9974 3.00256 16.9685 3.00256 12C3.00256 7.03081 7.03104 3.00264 11.9999 3.00264ZM9.5 8C9.77614 8 10 8.22386 10 8.5V15.5C10 15.7761 9.77614 16 9.5 16C9.22386 16 9 15.7761 9 15.5V8.5C9 8.22386 9.22386 8 9.5 8ZM15 8.5C15 8.22386 14.7761 8 14.5 8C14.2239 8 14 8.22386 14 8.5V15.5C14 15.7761 14.2239 16 14.5 16C14.7761 16 15 15.7761 15 15.5V8.5Z" fill="currentcolor"/>
</svg>
