<svg width="24" height="24" viewBox="0 0 24 24" fill="none" xmlns="http://www.w3.org/2000/svg">
<path fill-rule="evenodd" clip-rule="evenodd" d="M22 12C22 17.5226 17.523 22 12 22C6.47775 22 2 17.5223 2 12C2 6.47705 6.47739 2 12 2C17.5233 2 22 6.47669 22 12ZM20.9973 12C20.9973 7.03043 16.9695 3.00264 11.9999 3.00264C7.03104 3.00264 3.00256 7.03081 3.00256 12C3.00256 16.9685 7.03141 20.9974 11.9999 20.9974C16.9691 20.9974 20.9973 16.9689 20.9973 12ZM14.0475 11.5552L14.0642 11.5655L14.3851 11.7634L14.724 11.9725C14.8507 12.0506 14.8507 12.2348 14.724 12.3129L14.3851 12.5219L14.0642 12.7198L14.0475 12.7301L10.9045 14.6686L10.8697 14.6901L10.4855 14.927L10.2095 15.0973C10.0763 15.1794 9.90454 15.0836 9.90454 14.927V14.6028V14.1514V14.1105V10.1749V10.134V9.68261V9.35833C9.90454 9.20178 10.0763 9.10592 10.2095 9.18811L10.4855 9.35833L10.8697 9.59529L10.9045 9.61676L14.0475 11.5552ZM10.7345 15.9484L15.2489 13.164C16.009 12.6953 16.009 11.5901 15.2489 11.1213L10.7345 8.33697C9.93499 7.84388 8.90454 8.41901 8.90454 9.35833V14.927C8.90454 15.8664 9.93499 16.4415 10.7345 15.9484Z" fill="currentcolor"/>
</svg>
