<svg width="24" height="24" viewBox="0 0 24 24" fill="none" xmlns="http://www.w3.org/2000/svg">
<path fill-rule="evenodd" clip-rule="evenodd" d="M22 12C22 17.5226 17.523 22 12 22C6.47775 22 2 17.5223 2 12C2 6.47705 6.47739 2 12 2C17.5233 2 22 6.47669 22 12ZM20.9973 12C20.9973 7.03043 16.9695 3.00264 11.9999 3.00264C7.03104 3.00264 3.00256 7.03081 3.00256 12C3.00256 16.9685 7.03141 20.9974 11.9999 20.9974C16.9691 20.9974 20.9973 16.9689 20.9973 12ZM14.0475 11.5552L14.0642 11.5655L14.3851 11.7634L14.724 11.9725C14.8507 12.0506 14.8507 12.2348 14.724 12.3129L14.3851 12.5219L14.0642 12.7198L14.0475 12.7301L10.9045 14.6686L10.8697 14.6901L10.4855 14.927L10.2095 15.0973C10.0763 15.1794 9.90454 15.0836 9.90454 14.927V14.6028V14.1514V14.1105V10.1749V10.134V9.68261V9.35833C9.90454 9.20178 10.0763 9.10592 10.2095 9.18811L10.4855 9.35833L10.8697 9.59529L10.9045 9.61676L14.0475 11.5552ZM10.7345 15.9484L15.2489 13.164C16.009 12.6953 16.009 11.5901 15.2489 11.1213L10.7345 8.33697C9.93499 7.84388 8.90454 8.41901 8.90454 9.35833V14.927C8.90454 15.8664 9.93499 16.4415 10.7345 15.9484Z" fill="currentcolor"/>
<path fill-rule="evenodd" clip-rule="evenodd" d="M1.5 12C1.5 6.20089 6.20126 1.5 12 1.5C17.7994 1.5 22.5 6.20055 22.5 12C22.5 17.7987 17.7991 22.5 12 22.5C6.2016 22.5 1.5 17.7984 1.5 12ZM12 2.5C6.75352 2.5 2.5 6.7532 2.5 12C2.5 17.2461 6.75389 21.5 12 21.5C17.2468 21.5 21.5 17.2465 21.5 12C21.5 6.75283 17.2472 2.5 12 2.5ZM11.9999 3.50264C7.30717 3.50264 3.50256 7.30696 3.50256 12C3.50256 16.6924 7.30756 20.4974 11.9999 20.4974C16.693 20.4974 20.4973 16.6928 20.4973 12C20.4973 7.30658 16.6933 3.50264 11.9999 3.50264ZM2.50256 12C2.50256 6.75465 6.75491 2.50264 11.9999 2.50264C17.2456 2.50264 21.4973 6.75429 21.4973 12C21.4973 17.245 17.2453 21.4974 11.9999 21.4974C6.75527 21.4974 2.50256 17.2447 2.50256 12ZM8.40454 9.35833C8.40454 8.02762 9.86435 7.21286 10.997 7.9114L15.5114 10.6958C16.5882 11.3599 16.5882 12.9255 15.5114 13.5896L10.997 16.374C9.86434 17.0725 8.40454 16.2577 8.40454 14.927V9.35833ZM10.4045 9.89583V14.3895L10.6073 14.2645L10.6421 14.243L13.8017 12.2943L14.0475 12.1427L13.8017 11.9911L10.4045 9.89583ZM9.94706 14.6717C9.94694 14.6718 9.94717 14.6716 9.94706 14.6717Z" fill="currentcolor"/>
</svg>
