<svg width="24" height="24" viewBox="0 0 24 24" fill="none" xmlns="http://www.w3.org/2000/svg">
<path fill-rule="evenodd" clip-rule="evenodd" d="M16.0224 11.6795L15.9917 11.662L8.82812 7.57102L8.80071 7.55536L8.43143 7.34447L8.12731 7.1708C7.99398 7.09465 7.82812 7.19093 7.82812 7.34447V7.69469V8.11995V8.15152V16.324V16.3555V16.7808V17.131C7.82812 17.2846 7.99398 17.3808 8.12731 17.3047L8.43143 17.131L8.80071 16.9201L8.82812 16.9045L15.9917 12.8135L16.0224 12.796L16.4015 12.5795L16.6958 12.4114C16.8303 12.3347 16.8303 12.1408 16.6958 12.0641L16.4015 11.896L16.0224 11.6795ZM17.1917 13.2798L8.62321 18.1731C7.82323 18.6299 6.82812 18.0523 6.82812 17.131V7.34447C6.82812 6.42322 7.82323 5.84557 8.62321 6.30242L17.1917 11.1957C17.9983 11.6563 17.9983 12.8192 17.1917 13.2798Z" fill="currentcolor"/>
</svg>
