<svg width="24" height="24" viewBox="0 0 24 24" fill="none" xmlns="http://www.w3.org/2000/svg">
<path fill-rule="evenodd" clip-rule="evenodd" d="M15.1818 10.9684L15.2083 10.9865L15.7189 11.334L16.258 11.7011C16.4595 11.8383 16.4595 12.1617 16.258 12.2989L15.7189 12.666L15.2083 13.0135L15.1818 13.0316L10.1817 16.4356L10.1264 16.4733L9.51515 16.8894L9.07606 17.1883C8.86408 17.3327 8.59087 17.1643 8.59087 16.8894V16.32V15.5273V15.4555V8.5445V8.47269V7.68002V7.11058C8.59087 6.83566 8.86408 6.66734 9.07606 6.81165L9.51514 7.11058L10.1264 7.52669L10.1817 7.56439L15.1818 10.9684ZM9.91119 18.683L17.0931 13.7936C18.3023 12.9703 18.3023 11.0297 17.0931 10.2065L9.91119 5.31703C8.63931 4.45114 7 5.46109 7 7.11058V16.8894C7 18.5389 8.63931 19.5489 9.91119 18.683Z" fill="currentcolor"/>
<path fill-rule="evenodd" clip-rule="evenodd" d="M6 7.84601C6 5.62175 8.39782 4.25989 10.2582 5.4275L17.6735 10.0815C19.4422 11.1915 19.4422 13.8085 17.6735 14.9185L10.2582 19.5725C8.39782 20.7401 6 19.3782 6 17.154V7.84601ZM9.28512 8.74443V16.2556L9.6181 16.0466L9.67528 16.0107L14.8652 12.7534L15.2689 12.5L14.8652 12.2466L9.28512 8.74443Z" fill="currentcolor"/>
</svg>
