<svg width="24" height="24" viewBox="0 0 24 24" fill="none" xmlns="http://www.w3.org/2000/svg">
<path fill-rule="evenodd" clip-rule="evenodd" d="M8.84939 11.3178C8.84939 10.4692 8.27875 9.75434 7.50039 9.5362L7.50039 5C7.50039 4.72386 7.27653 4.5 7.00039 4.5C6.72425 4.5 6.50039 4.72386 6.50039 5V9.53618C5.72172 9.7543 5.15039 10.4693 5.15039 11.3178C5.15039 12.1656 5.72179 12.8796 6.50039 13.0975V19C6.50039 19.2761 6.72425 19.5 7.00039 19.5C7.27653 19.5 7.50039 19.2761 7.50039 19V13.0975C8.27868 12.8796 8.84939 12.1656 8.84939 11.3178ZM5.99989 11.3175C5.99989 10.7645 6.4482 10.3168 7.00026 10.3168C7.55232 10.3168 7.99989 10.7645 7.99989 11.3175C7.99989 11.8698 7.55232 12.3168 7.00026 12.3168C6.4482 12.3168 5.99989 11.8698 5.99989 11.3175ZM13.8494 8.6185C13.8494 7.77062 13.2786 7.056 12.5004 6.8379V5C12.5004 4.72386 12.2765 4.5 12.0004 4.5C11.7242 4.5 11.5004 4.72386 11.5004 5V6.83788C10.7218 7.05596 10.1504 7.77065 10.1504 8.6185C10.1504 9.46635 10.7218 10.181 11.5004 10.3991V19C11.5004 19.2761 11.7242 19.5 12.0004 19.5C12.2765 19.5 12.5004 19.2761 12.5004 19V10.3991C13.2786 10.181 13.8494 9.46638 13.8494 8.6185ZM10.9999 8.6185C10.9999 8.06624 11.4482 7.6185 12.0003 7.6185C12.5523 7.6185 12.9999 8.06624 12.9999 8.6185C12.9999 9.17076 12.5523 9.6185 12.0003 9.6185C11.4482 9.6185 10.9999 9.17076 10.9999 8.6185ZM17.5004 12.9932C18.2787 13.2113 18.8494 13.9262 18.8494 14.7748C18.8494 15.6227 18.2786 16.3373 17.5004 16.5554V19C17.5004 19.2761 17.2765 19.5 17.0004 19.5C16.7242 19.5 16.5004 19.2761 16.5004 19V16.5554C15.7218 16.3373 15.1504 15.6227 15.1504 14.7748C15.1504 13.9263 15.7217 13.2113 16.5004 12.9932V5C16.5004 4.72386 16.7242 4.5 17.0004 4.5C17.2765 4.5 17.5004 4.72386 17.5004 5V12.9932ZM17.0003 13.7743C16.4482 13.7743 15.9999 14.2219 15.9999 14.7747C15.9999 15.3267 16.4482 15.7743 17.0003 15.7743C17.5523 15.7743 17.9999 15.3267 17.9999 14.7747C17.9999 14.2219 17.5523 13.7743 17.0003 13.7743Z" fill="currentcolor"/>
</svg>
