<svg width="24" height="24" viewBox="0 0 24 24" fill="none" xmlns="http://www.w3.org/2000/svg">
<path fill-rule="evenodd" clip-rule="evenodd" d="M12.6822 8.699C13.5308 8.699 14.2457 8.12836 14.4638 7.35H19C19.2761 7.35 19.5 7.12614 19.5 6.85C19.5 6.57386 19.2761 6.35 19 6.35H14.4638C14.2457 5.57133 13.5307 5 12.6822 5C11.8344 5 11.1204 5.5714 10.9025 6.35H5C4.72386 6.35 4.5 6.57386 4.5 6.85C4.5 7.12614 4.72386 7.35 5 7.35H10.9025C11.1204 8.12828 11.8344 8.699 12.6822 8.699ZM12.6988 5.35C13.5283 5.35 14.2 6.02247 14.2 6.85056C14.2 7.67864 13.5283 8.35 12.6988 8.35C11.8704 8.35 11.2 7.67864 11.2 6.85056C11.2 6.02247 11.8704 5.35 12.6988 5.35ZM15.3815 13.699C16.2294 13.699 16.944 13.1282 17.1621 12.35H19C19.2761 12.35 19.5 12.1261 19.5 11.85C19.5 11.5739 19.2761 11.35 19 11.35H17.1621C16.944 10.5714 16.2294 10 15.3815 10C14.5336 10 13.819 10.5714 13.6009 11.35H5C4.72386 11.35 4.5 11.5739 4.5 11.85C4.5 12.1261 4.72386 12.35 5 12.35H13.6009C13.819 13.1282 14.5336 13.699 15.3815 13.699ZM15.4 10.35C16.2284 10.35 16.9 11.0225 16.9 11.8506C16.9 12.6786 16.2284 13.35 15.4 13.35C14.5716 13.35 13.9 12.6786 13.9 11.8506C13.9 11.0225 14.5716 10.35 15.4 10.35ZM10.4638 17.35C10.2457 18.1284 9.53079 18.699 8.68223 18.699C7.8344 18.699 7.12042 18.1283 6.90255 17.35H5C4.72386 17.35 4.5 17.1261 4.5 16.85C4.5 16.5739 4.72386 16.35 5 16.35H6.90253C7.12038 15.5714 7.83443 15 8.68223 15C9.53076 15 10.2457 15.5713 10.4638 16.35H19C19.2761 16.35 19.5 16.5739 19.5 16.85C19.5 17.1261 19.2761 17.35 19 17.35H10.4638ZM10.2 16.8506C10.2 16.0225 9.52834 15.35 8.69884 15.35C7.87045 15.35 7.19995 16.0225 7.19995 16.8506C7.19995 17.6786 7.87045 18.35 8.69884 18.35C9.52834 18.35 10.2 17.6786 10.2 16.8506Z" fill="currentcolor"/>
<path d="M14.4638 7.35V6.85H14.0847L13.9823 7.21507L14.4638 7.35ZM14.4638 6.35L13.9824 6.48487L14.0846 6.85H14.4638V6.35ZM10.9025 6.35V6.85H11.2818L11.384 6.48473L10.9025 6.35ZM10.9025 7.35L11.384 7.21521L11.2818 6.85H10.9025V7.35ZM17.1621 12.35V11.85H16.783L16.6806 12.2151L17.1621 12.35ZM17.1621 11.35L16.6807 11.4849L16.7829 11.85H17.1621V11.35ZM13.6009 11.35V11.85H13.9801L14.0823 11.4849L13.6009 11.35ZM13.6009 12.35L14.0824 12.2151L13.98 11.85H13.6009V12.35ZM10.4638 17.35V16.85H10.0847L9.98238 17.2151L10.4638 17.35ZM6.90255 17.35L7.38404 17.2152L7.28181 16.85H6.90255V17.35ZM6.90253 16.35V16.85H7.28183L7.38404 16.4847L6.90253 16.35ZM10.4638 16.35L9.98238 16.4849L10.0847 16.85H10.4638V16.35ZM13.9823 7.21507C13.8232 7.78302 13.301 8.199 12.6822 8.199V9.199C13.7605 9.199 14.6681 8.47369 14.9452 7.48493L13.9823 7.21507ZM19 6.85H14.4638V7.85H19V6.85ZM19 6.85V6.85V7.85C19.5523 7.85 20 7.40229 20 6.85H19ZM19 6.85H20C20 6.29772 19.5523 5.85 19 5.85V6.85ZM14.4638 6.85H19V5.85H14.4638V6.85ZM12.6822 5.5C13.3006 5.5 13.8231 5.91636 13.9824 6.48487L14.9453 6.21513C14.6683 5.2263 13.7608 4.5 12.6822 4.5V5.5ZM11.384 6.48473C11.5431 5.91602 12.0649 5.5 12.6822 5.5V4.5C11.6039 4.5 10.6976 5.22679 10.421 6.21527L11.384 6.48473ZM5 6.85H10.9025V5.85H5V6.85ZM5 6.85V5.85C4.44772 5.85 4 6.29772 4 6.85H5ZM5 6.85V6.85H4C4 7.40229 4.44772 7.85 5 7.85V6.85ZM10.9025 6.85H5V7.85H10.9025V6.85ZM12.6822 8.199C12.0646 8.199 11.5431 7.78336 11.384 7.21521L10.421 7.48479C10.6977 8.47321 11.6042 9.199 12.6822 9.199V8.199ZM14.7 6.85056C14.7 5.7464 13.8046 4.85 12.6988 4.85V5.85C13.2521 5.85 13.7 6.29855 13.7 6.85056H14.7ZM12.6988 8.85C13.8041 8.85 14.7 7.9552 14.7 6.85056H13.7C13.7 7.40208 13.2526 7.85 12.6988 7.85V8.85ZM10.7 6.85056C10.7 7.95447 11.594 8.85 12.6988 8.85V7.85C12.1469 7.85 11.7 7.40281 11.7 6.85056H10.7ZM12.6988 4.85C11.5935 4.85 10.7 5.74712 10.7 6.85056H11.7C11.7 6.29782 12.1474 5.85 12.6988 5.85V4.85ZM16.6806 12.2151C16.5215 12.7831 15.9994 13.199 15.3815 13.199V14.199C16.4594 14.199 17.3665 13.4734 17.6435 12.4849L16.6806 12.2151ZM19 11.85H17.1621V12.85H19V11.85ZM19 11.85V12.85C19.5523 12.85 20 12.4023 20 11.85H19ZM19 11.85H20C20 11.2977 19.5523 10.85 19 10.85V11.85ZM17.1621 11.85H19V10.85H17.1621V11.85ZM15.3815 10.5C15.999 10.5 16.5214 10.9162 16.6807 11.4849L17.6436 11.2151C17.3667 10.2266 16.4597 9.5 15.3815 9.5V10.5ZM14.0823 11.4849C14.2416 10.9162 14.764 10.5 15.3815 10.5V9.5C14.3033 9.5 13.3963 10.2266 13.1194 11.2151L14.0823 11.4849ZM5 11.85H13.6009V10.85H5V11.85ZM5 11.85V10.85C4.44772 10.85 4 11.2977 4 11.85H5ZM5 11.85H4C4 12.4023 4.44772 12.85 5 12.85V11.85ZM13.6009 11.85H5V12.85H13.6009V11.85ZM15.3815 13.199C14.7636 13.199 14.2415 12.7831 14.0824 12.2151L13.1195 12.4849C13.3965 13.4734 14.3036 14.199 15.3815 14.199V13.199ZM17.4 11.8506C17.4 10.7466 16.5049 9.85 15.4 9.85V10.85C15.952 10.85 16.4 11.2983 16.4 11.8506H17.4ZM15.4 13.85C16.5044 13.85 17.4 12.955 17.4 11.8506H16.4C16.4 12.4023 15.9524 12.85 15.4 12.85V13.85ZM13.4 11.8506C13.4 12.955 14.2957 13.85 15.4 13.85V12.85C14.8476 12.85 14.4 12.4023 14.4 11.8506H13.4ZM15.4 9.85C14.2952 9.85 13.4 10.7466 13.4 11.8506H14.4C14.4 11.2983 14.8481 10.85 15.4 10.85V9.85ZM8.68223 19.199C9.76058 19.199 10.6682 18.4737 10.9453 17.4849L9.98238 17.2151C9.8232 17.783 9.301 18.199 8.68223 18.199V19.199ZM6.42106 17.4848C6.69776 18.4732 7.60421 19.199 8.68223 19.199V18.199C8.0646 18.199 7.54309 17.7834 7.38404 17.2152L6.42106 17.4848ZM5 17.85H6.90255V16.85H5V17.85ZM4 16.85C4 17.4023 4.44772 17.85 5 17.85V16.85H4ZM5 15.85C4.44772 15.85 4 16.2977 4 16.85H5V15.85ZM6.90253 15.85H5V16.85H6.90253V15.85ZM8.68223 14.5C7.60393 14.5 6.6976 15.2268 6.42102 16.2153L7.38404 16.4847C7.54316 15.916 8.06493 15.5 8.68223 15.5V14.5ZM10.9453 16.2151C10.6683 15.2263 9.76086 14.5 8.68223 14.5V15.5C9.30066 15.5 9.82313 15.9164 9.98238 16.4849L10.9453 16.2151ZM19 15.85H10.4638V16.85H19V15.85ZM20 16.85C20 16.2977 19.5523 15.85 19 15.85V16.85H20ZM19 17.85C19.5523 17.85 20 17.4023 20 16.85H19V17.85ZM10.4638 17.85H19V16.85H10.4638V17.85ZM8.69884 15.85C9.25213 15.85 9.69995 16.2986 9.69995 16.8506H10.7C10.7 15.7464 9.80455 14.85 8.69884 14.85V15.85ZM7.69995 16.8506C7.69995 16.2978 8.14738 15.85 8.69884 15.85V14.85C7.59351 14.85 6.69995 15.7471 6.69995 16.8506H7.69995ZM8.69884 17.85C8.1469 17.85 7.69995 17.4028 7.69995 16.8506H6.69995C6.69995 17.9545 7.594 18.85 8.69884 18.85V17.85ZM9.69995 16.8506C9.69995 17.4021 9.25262 17.85 8.69884 17.85V18.85C9.80407 18.85 10.7 17.9552 10.7 16.8506H9.69995Z" fill="currentcolor"/>
</svg>
