<svg width="24" height="24" viewBox="0 0 24 24" fill="none" xmlns="http://www.w3.org/2000/svg">
<path fill-rule="evenodd" clip-rule="evenodd" d="M12.6822 8.699C13.5308 8.699 14.2457 8.12836 14.4638 7.35H19C19.2761 7.35 19.5 7.12614 19.5 6.85C19.5 6.57386 19.2761 6.35 19 6.35H14.4638C14.2457 5.57133 13.5307 5 12.6822 5C11.8344 5 11.1204 5.5714 10.9025 6.35H5C4.72386 6.35 4.5 6.57386 4.5 6.85C4.5 7.12614 4.72386 7.35 5 7.35H10.9025C11.1204 8.12828 11.8344 8.699 12.6822 8.699ZM12.6825 5.8495C13.2355 5.8495 13.6832 6.29781 13.6832 6.84987C13.6832 7.40193 13.2355 7.8495 12.6825 7.8495C12.1302 7.8495 11.6832 7.40193 11.6832 6.84987C11.6832 6.29781 12.1302 5.8495 12.6825 5.8495ZM15.3815 13.699C16.2294 13.699 16.944 13.1282 17.1621 12.35H19C19.2761 12.35 19.5 12.1261 19.5 11.85C19.5 11.5739 19.2761 11.35 19 11.35H17.1621C16.944 10.5714 16.2294 10 15.3815 10C14.5336 10 13.819 10.5714 13.6009 11.35H5C4.72386 11.35 4.5 11.5739 4.5 11.85C4.5 12.1261 4.72386 12.35 5 12.35H13.6009C13.819 13.1282 14.5336 13.699 15.3815 13.699ZM15.3815 10.8495C15.9338 10.8495 16.3815 11.2978 16.3815 11.8499C16.3815 12.4019 15.9338 12.8495 15.3815 12.8495C14.8292 12.8495 14.3815 12.4019 14.3815 11.8499C14.3815 11.2978 14.8292 10.8495 15.3815 10.8495ZM11.0068 17.35C10.7887 18.1284 10.0738 18.699 9.2252 18.699C8.37732 18.699 7.6627 18.1282 7.4446 17.35H5C4.72386 17.35 4.5 17.1261 4.5 16.85C4.5 16.5739 4.72386 16.35 5 16.35H7.44458C7.66266 15.5714 8.37735 15 9.2252 15C10.0737 15 10.7887 15.5713 11.0068 16.35H19C19.2761 16.35 19.5 16.5739 19.5 16.85C19.5 17.1261 19.2761 17.35 19 17.35H11.0068ZM10.2257 16.8499C10.2257 16.2978 9.77813 15.8495 9.22533 15.8495C8.67327 15.8495 8.2257 16.2978 8.2257 16.8499C8.2257 17.4019 8.67327 17.8495 9.22533 17.8495C9.77813 17.8495 10.2257 17.4019 10.2257 16.8499Z" fill="currentcolor"/>
</svg>
