<svg width="24" height="24" viewBox="0 0 24 24" fill="none" xmlns="http://www.w3.org/2000/svg">
<path fill-rule="evenodd" clip-rule="evenodd" d="M8.84939 11.3178C8.84939 10.4692 8.27875 9.75434 7.50039 9.5362L7.50039 5C7.50039 4.72386 7.27653 4.5 7.00039 4.5C6.72425 4.5 6.50039 4.72386 6.50039 5V9.53618C5.72172 9.7543 5.15039 10.4693 5.15039 11.3178C5.15039 12.1656 5.72179 12.8796 6.50039 13.0975V19C6.50039 19.2761 6.72425 19.5 7.00039 19.5C7.27653 19.5 7.50039 19.2761 7.50039 19V13.0975C8.27868 12.8796 8.84939 12.1656 8.84939 11.3178ZM5.50039 11.3012C5.50039 10.4717 6.17286 9.80005 7.00095 9.80005C7.82903 9.80005 8.50039 10.4717 8.50039 11.3012C8.50039 12.1296 7.82903 12.8 7.00095 12.8C6.17286 12.8 5.50039 12.1296 5.50039 11.3012ZM13.8494 8.6185C13.8494 7.77062 13.2786 7.056 12.5004 6.8379V5C12.5004 4.72386 12.2765 4.5 12.0004 4.5C11.7242 4.5 11.5004 4.72386 11.5004 5V6.83788C10.7218 7.05596 10.1504 7.77065 10.1504 8.6185C10.1504 9.46635 10.7218 10.181 11.5004 10.3991V19C11.5004 19.2761 11.7242 19.5 12.0004 19.5C12.2765 19.5 12.5004 19.2761 12.5004 19V10.3991C13.2786 10.181 13.8494 9.46638 13.8494 8.6185ZM10.5004 8.59998C10.5004 7.77158 11.1729 7.09998 12.0009 7.09998C12.829 7.09998 13.5004 7.77158 13.5004 8.59998C13.5004 9.42837 12.829 10.1 12.0009 10.1C11.1729 10.1 10.5004 9.42837 10.5004 8.59998ZM17.5004 13.5362C18.2787 13.7543 18.8494 14.4692 18.8494 15.3178C18.8494 16.1656 18.2787 16.8796 17.5004 17.0974V19C17.5004 19.2761 17.2765 19.5 17.0004 19.5C16.7242 19.5 16.5004 19.2761 16.5004 19V17.0975C15.7218 16.8796 15.1504 16.1656 15.1504 15.3178C15.1504 14.4692 15.7217 13.7543 16.5004 13.5362V5C16.5004 4.72386 16.7242 4.5 17.0004 4.5C17.2765 4.5 17.5004 4.72386 17.5004 5V13.5362ZM17.001 13.8C16.1729 13.8 15.5004 14.4717 15.5004 15.3012C15.5004 16.1296 16.1729 16.8 17.001 16.8C17.829 16.8 18.5004 16.1296 18.5004 15.3012C18.5004 14.4717 17.829 13.8 17.001 13.8Z" fill="currentcolor"/>
<path d="M7.50039 9.5362H7.00039V9.91534L7.36546 10.0177L7.50039 9.5362ZM6.50039 9.53618L6.63526 10.0176L7.00039 9.91536V9.53618H6.50039ZM6.50039 13.0975H7.00039V12.7182L6.63512 12.616L6.50039 13.0975ZM7.50039 13.0975L7.3656 12.616L7.00039 12.7182V13.0975H7.50039ZM12.5004 6.8379H12.0004V7.21704L12.3655 7.31935L12.5004 6.8379ZM11.5004 6.83788L11.6353 7.31935L12.0004 7.21707V6.83788H11.5004ZM11.5004 10.3991H12.0004V10.0199L11.6353 9.91765L11.5004 10.3991ZM12.5004 10.3991L12.3655 9.91765L12.0004 10.02V10.3991H12.5004ZM17.5004 13.5362H17.0004V13.9153L17.3655 14.0176L17.5004 13.5362ZM17.5004 17.0974L17.3656 16.616L17.0004 16.7182V17.0974H17.5004ZM16.5004 17.0975H17.0004V16.7182L16.6351 16.616L16.5004 17.0975ZM16.5004 13.5362L16.6353 14.0176L17.0004 13.9153V13.5362H16.5004ZM7.36546 10.0177C7.93341 10.1768 8.34939 10.699 8.34939 11.3178H9.34939C9.34939 10.2395 8.62408 9.33186 7.63532 9.05475L7.36546 10.0177ZM7.00039 5V9.5362H8.00039V5H7.00039ZM7.00039 5H7.00039H8.00039C8.00039 4.44772 7.55268 4 7.00039 4V5ZM7.00039 5V4C6.44811 4 6.00039 4.44772 6.00039 5H7.00039ZM7.00039 9.53618V5H6.00039V9.53618H7.00039ZM5.65039 11.3178C5.65039 10.6994 6.06675 10.1769 6.63526 10.0176L6.36552 9.05471C5.37669 9.33171 4.65039 10.2392 4.65039 11.3178H5.65039ZM6.63512 12.616C6.06641 12.4569 5.65039 11.9351 5.65039 11.3178H4.65039C4.65039 12.3961 5.37718 13.3024 6.36566 13.579L6.63512 12.616ZM7.00039 19V13.0975H6.00039V19H7.00039ZM7.00039 19H6.00039C6.00039 19.5523 6.44811 20 7.00039 20V19ZM7.00039 19H7.00039V20C7.55268 20 8.00039 19.5523 8.00039 19H7.00039ZM7.00039 13.0975V19H8.00039V13.0975H7.00039ZM8.34939 11.3178C8.34939 11.9354 7.93375 12.4569 7.3656 12.616L7.63518 13.579C8.6236 13.3023 9.34939 12.3958 9.34939 11.3178H8.34939ZM7.00095 9.30005C5.89679 9.30005 5.00039 10.1954 5.00039 11.3012H6.00039C6.00039 10.7479 6.44894 10.3 7.00095 10.3V9.30005ZM9.00039 11.3012C9.00039 10.1959 8.10559 9.30005 7.00095 9.30005V10.3C7.55247 10.3 8.00039 10.7474 8.00039 11.3012H9.00039ZM7.00095 13.3C8.10486 13.3 9.00039 12.406 9.00039 11.3012H8.00039C8.00039 11.8531 7.5532 12.3 7.00095 12.3V13.3ZM5.00039 11.3012C5.00039 12.4065 5.89751 13.3 7.00095 13.3V12.3C6.44821 12.3 6.00039 11.8526 6.00039 11.3012H5.00039ZM12.3655 7.31935C12.9335 7.47855 13.3494 8.00063 13.3494 8.6185H14.3494C14.3494 7.54061 13.6238 6.63346 12.6353 6.35645L12.3655 7.31935ZM12.0004 5V6.8379H13.0004V5H12.0004ZM12.0004 5H13.0004C13.0004 4.44772 12.5527 4 12.0004 4V5ZM12.0004 5V4C11.4481 4 11.0004 4.44772 11.0004 5H12.0004ZM12.0004 6.83788V5H11.0004V6.83788H12.0004ZM10.6504 8.6185C10.6504 8.00097 11.0666 7.47862 11.6353 7.31935L11.3655 6.35641C10.377 6.6333 9.65039 7.54033 9.65039 8.6185H10.6504ZM11.6353 9.91765C11.0666 9.75838 10.6504 9.23603 10.6504 8.6185H9.65039C9.65039 9.69667 10.377 10.6037 11.3655 10.8806L11.6353 9.91765ZM12.0004 19V10.3991H11.0004V19H12.0004ZM12.0004 19H11.0004C11.0004 19.5523 11.4481 20 12.0004 20V19ZM12.0004 19V20C12.5527 20 13.0004 19.5523 13.0004 19H12.0004ZM12.0004 10.3991V19H13.0004V10.3991H12.0004ZM13.3494 8.6185C13.3494 9.23636 12.9335 9.75845 12.3655 9.91765L12.6353 10.8805C13.6238 10.6035 14.3494 9.69639 14.3494 8.6185H13.3494ZM12.0009 6.59998C10.897 6.59998 10.0004 7.49513 10.0004 8.59998H11.0004C11.0004 8.04803 11.4487 7.59998 12.0009 7.59998V6.59998ZM14.0004 8.59998C14.0004 7.49562 13.1053 6.59998 12.0009 6.59998V7.59998C12.5527 7.59998 13.0004 8.04755 13.0004 8.59998H14.0004ZM12.0009 10.6C13.1053 10.6 14.0004 9.70433 14.0004 8.59998H13.0004C13.0004 9.1524 12.5527 9.59998 12.0009 9.59998V10.6ZM10.0004 8.59998C10.0004 9.70482 10.897 10.6 12.0009 10.6V9.59998C11.4487 9.59998 11.0004 9.15192 11.0004 8.59998H10.0004ZM19.3494 15.3178C19.3494 14.2394 18.6241 13.3318 17.6353 13.0547L17.3655 14.0176C17.9334 14.1768 18.3494 14.699 18.3494 15.3178H19.3494ZM17.6352 17.5789C18.6236 17.3022 19.3494 16.3958 19.3494 15.3178H18.3494C18.3494 15.9354 17.9338 16.4569 17.3656 16.616L17.6352 17.5789ZM18.0004 19V17.0974H17.0004V19H18.0004ZM17.0004 20C17.5527 20 18.0004 19.5523 18.0004 19H17.0004V20ZM16.0004 19C16.0004 19.5523 16.4481 20 17.0004 20V19H16.0004ZM16.0004 17.0975V19H17.0004V17.0975H16.0004ZM14.6504 15.3178C14.6504 16.3961 15.3772 17.3024 16.3657 17.579L16.6351 16.616C16.0664 16.4568 15.6504 15.9351 15.6504 15.3178H14.6504ZM16.3655 13.0547C15.3767 13.3317 14.6504 14.2391 14.6504 15.3178H15.6504C15.6504 14.6993 16.0668 14.1769 16.6353 14.0176L16.3655 13.0547ZM16.0004 5V13.5362H17.0004V5H16.0004ZM17.0004 4C16.4481 4 16.0004 4.44772 16.0004 5H17.0004V4ZM18.0004 5C18.0004 4.44772 17.5527 4 17.0004 4V5H18.0004ZM18.0004 13.5362V5H17.0004V13.5362H18.0004ZM16.0004 15.3012C16.0004 14.7479 16.4489 14.3 17.001 14.3V13.3C15.8968 13.3 15.0004 14.1954 15.0004 15.3012H16.0004ZM17.001 16.3C16.4482 16.3 16.0004 15.8526 16.0004 15.3012H15.0004C15.0004 16.4065 15.8975 17.3 17.001 17.3V16.3ZM18.0004 15.3012C18.0004 15.8531 17.5532 16.3 17.001 16.3V17.3C18.1049 17.3 19.0004 16.406 19.0004 15.3012H18.0004ZM17.001 14.3C17.5525 14.3 18.0004 14.7474 18.0004 15.3012H19.0004C19.0004 14.1959 18.1056 13.3 17.001 13.3V14.3Z" fill="currentcolor"/>
</svg>
