<svg width="24" height="24" viewBox="0 0 24 24" fill="none" xmlns="http://www.w3.org/2000/svg">
<path fill-rule="evenodd" clip-rule="evenodd" d="M19.5 15.17C19.5 15.48 19.25 15.739 18.93 15.739H17.3V14.04C17.3 13.76 17.08 13.54 16.8 13.54H7.2C6.92 13.54 6.7 13.76 6.7 14.04V15.739H5.07C4.75 15.739 4.5 15.48 4.5 15.17V8.77C4.5 8.46 4.75 8.2 5.07 8.2H18.93C19.25 8.2 19.5 8.46 19.5 8.77V15.17ZM16.3 19.37C16.3 19.68 16.05 19.94 15.74 19.94H8.26C7.95 19.94 7.7 19.68 7.7 19.37V14.54H16.3V19.37ZM7.7 5.569C7.7 5.26 7.95 5 8.26 5H15.74C16.05 5 16.3 5.26 16.3 5.569V7.2H7.7V5.569ZM18.93 7.2H17.3V5.569C17.3 4.7 16.6 4 15.74 4H8.26C7.4 4 6.7 4.7 6.7 5.569V7.2H5.07C4.2 7.2 3.5 7.91 3.5 8.77V15.17C3.5 16.029 4.2 16.739 5.07 16.739H6.7V19.37C6.7 20.239 7.4 20.94 8.26 20.94H15.74C16.6 20.94 17.3 20.239 17.3 19.37V16.739H18.93C19.8 16.739 20.5 16.029 20.5 15.17V8.77C20.5 7.91 19.8 7.2 18.93 7.2ZM16.8662 11.336H15.5002C15.2232 11.336 15.0002 11.112 15.0002 10.836C15.0002 10.56 15.2232 10.336 15.5002 10.336H16.8662C17.1422 10.336 17.3662 10.56 17.3662 10.836C17.3662 11.112 17.1422 11.336 16.8662 11.336ZM13.7 17.75C13.971 17.75 14.2 17.53 14.2 17.25C14.2 16.979 13.971 16.75 13.7 16.75H10.5C10.221 16.75 10 16.979 10 17.25C10 17.53 10.221 17.75 10.5 17.75H13.7Z" fill="currentcolor"/>
<path d="M17.3 15.739H16.8V16.239H17.3V15.739ZM6.7 15.739V16.239H7.2V15.739H6.7ZM7.7 14.54V14.04H7.2V14.54H7.7ZM16.3 14.54H16.8V14.04H16.3V14.54ZM16.3 7.2V7.7H16.8V7.2H16.3ZM7.7 7.2H7.2V7.7H7.7V7.2ZM17.3 7.2H16.8V7.7H17.3V7.2ZM6.7 7.2V7.7H7.2V7.2H6.7ZM6.7 16.739H7.2V16.239H6.7V16.739ZM17.3 16.739V16.239H16.8V16.739H17.3ZM18.93 16.239C19.5307 16.239 20 15.7516 20 15.17H19C19 15.2084 18.9693 15.239 18.93 15.239V16.239ZM17.3 16.239H18.93V15.239H17.3V16.239ZM16.8 14.04V15.739H17.8V14.04H16.8ZM16.8 14.04H17.8C17.8 13.4839 17.3561 13.04 16.8 13.04V14.04ZM7.2 14.04H16.8V13.04H7.2V14.04ZM7.2 14.04V13.04C6.64386 13.04 6.2 13.4839 6.2 14.04H7.2ZM7.2 15.739V14.04H6.2V15.739H7.2ZM5.07 16.239H6.7V15.239H5.07V16.239ZM4 15.17C4 15.7516 4.46929 16.239 5.07 16.239V15.239C5.03071 15.239 5 15.2084 5 15.17H4ZM4 8.77V15.17H5V8.77H4ZM5.07 7.7C4.46816 7.7 4 8.18959 4 8.77H5C5 8.73041 5.03184 8.7 5.07 8.7V7.7ZM18.93 7.7H5.07V8.7H18.93V7.7ZM20 8.77C20 8.18959 19.5318 7.7 18.93 7.7V8.7C18.9682 8.7 19 8.73041 19 8.77H20ZM20 15.17V8.77H19V15.17H20ZM15.74 20.44C16.3376 20.44 16.8 19.9446 16.8 19.37H15.8C15.8 19.389 15.7924 19.4077 15.7784 19.422C15.765 19.4358 15.7515 19.44 15.74 19.44V20.44ZM8.26 20.44H15.74V19.44H8.26V20.44ZM7.2 19.37C7.2 19.9446 7.66243 20.44 8.26 20.44V19.44C8.24847 19.44 8.23503 19.4358 8.22159 19.422C8.20757 19.4077 8.2 19.389 8.2 19.37H7.2ZM7.2 14.54V19.37H8.2V14.54H7.2ZM16.3 14.04H7.7V15.04H16.3V14.04ZM16.8 19.37V14.54H15.8V19.37H16.8ZM8.26 4.5C7.66299 4.5 7.2 4.99485 7.2 5.569H8.2C8.2 5.5509 8.20727 5.5325 8.22138 5.51806C8.2349 5.50422 8.24844 5.5 8.26 5.5V4.5ZM15.74 4.5H8.26V5.5H15.74V4.5ZM16.8 5.569C16.8 4.99485 16.337 4.5 15.74 4.5V5.5C15.7516 5.5 15.7651 5.50422 15.7786 5.51806C15.7927 5.5325 15.8 5.5509 15.8 5.569H16.8ZM16.8 7.2V5.569H15.8V7.2H16.8ZM7.7 7.7H16.3V6.7H7.7V7.7ZM7.2 5.569V7.2H8.2V5.569H7.2ZM17.3 7.7H18.93V6.7H17.3V7.7ZM16.8 5.569V7.2H17.8V5.569H16.8ZM15.74 4.5C16.322 4.5 16.8 4.97427 16.8 5.569H17.8C17.8 4.42573 16.878 3.5 15.74 3.5V4.5ZM8.26 4.5H15.74V3.5H8.26V4.5ZM7.2 5.569C7.2 4.97427 7.67801 4.5 8.26 4.5V3.5C7.12199 3.5 6.2 4.42573 6.2 5.569H7.2ZM7.2 7.2V5.569H6.2V7.2H7.2ZM5.07 7.7H6.7V6.7H5.07V7.7ZM4 8.77C4 8.18407 4.47821 7.7 5.07 7.7V6.7C3.92179 6.7 3 7.63593 3 8.77H4ZM4 15.17V8.77H3V15.17H4ZM5.07 16.239C4.47801 16.239 4 15.7547 4 15.17H3C3 16.3033 3.92199 17.239 5.07 17.239V16.239ZM6.7 16.239H5.07V17.239H6.7V16.239ZM7.2 19.37V16.739H6.2V19.37H7.2ZM8.26 20.44C7.67843 20.44 7.2 19.9651 7.2 19.37H6.2C6.2 20.5129 7.12157 21.44 8.26 21.44V20.44ZM15.74 20.44H8.26V21.44H15.74V20.44ZM16.8 19.37C16.8 19.9651 16.3216 20.44 15.74 20.44V21.44C16.8784 21.44 17.8 20.5129 17.8 19.37H16.8ZM16.8 16.739V19.37H17.8V16.739H16.8ZM18.93 16.239H17.3V17.239H18.93V16.239ZM20 15.17C20 15.7547 19.522 16.239 18.93 16.239V17.239C20.078 17.239 21 16.3033 21 15.17H20ZM20 8.77V15.17H21V8.77H20ZM18.93 7.7C19.5218 7.7 20 8.18407 20 8.77H21C21 7.63593 20.0782 6.7 18.93 6.7V7.7ZM15.5002 11.836H16.8662V10.836H15.5002V11.836ZM14.5002 10.836C14.5002 11.3875 14.9464 11.836 15.5002 11.836V10.836H14.5002ZM15.5002 9.836C14.9464 9.836 14.5002 10.2845 14.5002 10.836H15.5002V9.836ZM16.8662 9.836H15.5002V10.836H16.8662V9.836ZM17.8662 10.836C17.8662 10.2839 17.4184 9.836 16.8662 9.836V10.836H17.8662ZM16.8662 11.836C17.4184 11.836 17.8662 11.3881 17.8662 10.836H16.8662V11.836ZM13.7 17.25V18.25C14.2413 18.25 14.7 17.812 14.7 17.25H13.7ZM13.7 17.25H14.7C14.7 16.7029 14.2471 16.25 13.7 16.25V17.25ZM10.5 17.25H13.7V16.25H10.5V17.25ZM10.5 17.25V16.25C9.93967 16.25 9.5 16.7081 9.5 17.25H10.5ZM10.5 17.25H9.5C9.5 17.8068 9.94551 18.25 10.5 18.25V17.25ZM13.7 17.25H10.5V18.25H13.7V17.25Z" fill="currentcolor"/>
</svg>
