<svg width="24" height="24" viewBox="0 0 24 24" fill="none" xmlns="http://www.w3.org/2000/svg">
<path fill-rule="evenodd" clip-rule="evenodd" d="M18.93 15.739C19.25 15.739 19.5 15.48 19.5 15.17V8.77C19.5 8.46 19.25 8.2 18.93 8.2H5.07C4.75 8.2 4.5 8.46 4.5 8.77V15.17C4.5 15.48 4.75 15.739 5.07 15.739H6.7V13.04C6.7 12.76 6.92 12.54 7.2 12.54H16.8C17.08 12.54 17.3 12.76 17.3 13.04V15.739H18.93ZM15.74 19.94C16.05 19.94 16.3 19.68 16.3 19.37V13.54H7.7V19.37C7.7 19.68 7.95 19.94 8.26 19.94H15.74ZM8.26 5C7.95 5 7.7 5.26 7.7 5.569V7.2H16.3V5.569C16.3 5.26 16.05 5 15.74 5H8.26ZM17.3 7.2H18.93C19.8 7.2 20.5 7.91 20.5 8.77V15.17C20.5 16.029 19.8 16.739 18.93 16.739H17.3V19.37C17.3 20.239 16.6 20.94 15.74 20.94H8.26C7.4 20.94 6.7 20.239 6.7 19.37V16.739H5.07C4.2 16.739 3.5 16.029 3.5 15.17V8.77C3.5 7.91 4.2 7.2 5.07 7.2H6.7V5.569C6.7 4.7 7.4 4 8.26 4H15.74C16.6 4 17.3 4.7 17.3 5.569V7.2ZM16.5002 10.336H17.8662C18.1422 10.336 18.3662 10.112 18.3662 9.836C18.3662 9.56 18.1422 9.336 17.8662 9.336H16.5002C16.2232 9.336 16.0002 9.56 16.0002 9.836C16.0002 10.112 16.2232 10.336 16.5002 10.336ZM15.1699 17.7999C15.1699 18.0799 14.9409 18.2999 14.6699 18.2999H11.4699C11.1909 18.2999 10.9699 18.0799 10.9699 17.7999C10.9699 17.5289 11.1909 17.2999 11.4699 17.2999H14.6699C14.9409 17.2999 15.1699 17.5289 15.1699 17.7999ZM15.1599 15.739C15.1699 15.72 15.1699 15.69 15.1699 15.67C15.1699 15.39 14.9409 15.17 14.6699 15.17H9.3299C9.0599 15.17 8.8299 15.39 8.8299 15.67C8.8299 15.69 8.8299 15.72 8.8399 15.739C8.8699 15.989 9.0799 16.17 9.3299 16.17H14.6699C14.9199 16.17 15.1299 15.989 15.1599 15.739Z" fill="currentcolor"/>
</svg>
