<svg width="24" height="24" viewBox="0 0 24 24" fill="none" xmlns="http://www.w3.org/2000/svg">
<path fill-rule="evenodd" clip-rule="evenodd" d="M16.073 5.659C16.073 4.78959 15.3324 4.094 14.439 4.094C14.2007 4.094 13.9733 4.14348 13.7679 4.23254C13.6076 3.52499 12.9463 3 12.171 3C11.2776 3 10.536 3.69562 10.536 4.565V5.08415C10.3404 5.00481 10.126 4.961 9.902 4.961C9.00966 4.961 8.268 5.65757 8.268 6.526V7.208C8.07245 7.12874 7.85803 7.085 7.634 7.085C6.74064 7.085 6 7.78059 6 8.65V15.823C6 18.5341 8.61648 20.946 12.167 20.946C15.7963 20.946 18.342 18.5884 18.342 15.823V10.662C18.342 9.79262 17.6004 9.097 16.707 9.097C16.483 9.097 16.2685 9.14074 16.073 9.22V5.659ZM12.171 4C12.525 4 12.805 4.26279 12.805 4.565V11.973C12.805 12.6397 13.805 12.6397 13.805 11.973V5.659C13.805 5.35639 14.0844 5.094 14.439 5.094C14.7936 5.094 15.073 5.35639 15.073 5.659V11.973C15.073 12.6397 16.073 12.6397 16.073 11.973V10.662C16.073 10.3594 16.3524 10.097 16.707 10.097C17.0619 10.097 17.342 10.3597 17.342 10.662V15.823C17.342 18.0183 15.2605 19.946 12.167 19.946C9.1514 19.946 7 17.9628 7 15.823V8.65C7 8.34739 7.27938 8.085 7.634 8.085C7.98862 8.085 8.268 8.34739 8.268 8.65V11.973C8.268 12.6397 9.268 12.6397 9.268 11.973V6.526C9.268 6.22436 9.54841 5.961 9.902 5.961C10.2562 5.961 10.536 6.22397 10.536 6.526V11.973C10.536 12.6397 11.536 12.6397 11.536 11.973V4.565C11.536 4.26271 11.8161 4 12.171 4Z" fill="currentcolor"/>
<path d="M13.7679 4.23254L13.5241 4.28781L13.5908 4.58186L13.8674 4.46191L13.7679 4.23254ZM10.536 5.08415L10.442 5.31581L10.786 5.45538V5.08415H10.536ZM8.268 7.208L8.17409 7.43969L8.518 7.57908V7.208H8.268ZM16.073 9.22H15.823V9.59108L16.1669 9.45169L16.073 9.22ZM14.439 4.344C15.206 4.344 15.823 4.93911 15.823 5.659H16.323C16.323 4.64006 15.4587 3.844 14.439 3.844V4.344ZM13.8674 4.46191C14.0419 4.38622 14.2355 4.344 14.439 4.344V3.844C14.1659 3.844 13.9047 3.90074 13.6685 4.00318L13.8674 4.46191ZM12.171 3.25C12.835 3.25 13.3907 3.69933 13.5241 4.28781L14.0118 4.17728C13.8244 3.35064 13.0577 2.75 12.171 2.75V3.25ZM10.786 4.565C10.786 3.84533 11.4037 3.25 12.171 3.25V2.75C11.1514 2.75 10.286 3.54591 10.286 4.565H10.786ZM10.786 5.08415V4.565H10.286V5.08415H10.786ZM9.902 5.211C10.0932 5.211 10.2758 5.24838 10.442 5.31581L10.63 4.85249C10.4051 4.76124 10.1588 4.711 9.902 4.711V5.211ZM8.518 6.526C8.518 5.8071 9.13599 5.211 9.902 5.211V4.711C8.88332 4.711 8.018 5.50805 8.018 6.526H8.518ZM8.518 7.208V6.526H8.018V7.208H8.518ZM7.634 7.335C7.82532 7.335 8.0079 7.37233 8.17409 7.43969L8.36191 6.97631C8.13701 6.88515 7.89073 6.835 7.634 6.835V7.335ZM6.25 8.65C6.25 7.93011 6.86697 7.335 7.634 7.335V6.835C6.61431 6.835 5.75 7.63106 5.75 8.65H6.25ZM6.25 15.823V8.65H5.75V15.823H6.25ZM12.167 20.696C8.71721 20.696 6.25 18.3614 6.25 15.823H5.75C5.75 18.7068 8.51574 21.196 12.167 21.196V20.696ZM18.092 15.823C18.092 18.4158 15.6956 20.696 12.167 20.696V21.196C15.8971 21.196 18.592 18.7611 18.592 15.823H18.092ZM18.092 10.662V15.823H18.592V10.662H18.092ZM16.707 9.347C17.4743 9.347 18.092 9.94233 18.092 10.662H18.592C18.592 9.64291 17.7266 8.847 16.707 8.847V9.347ZM16.1669 9.45169C16.3331 9.38433 16.5157 9.347 16.707 9.347V8.847C16.4503 8.847 16.204 8.89715 15.9791 8.98831L16.1669 9.45169ZM15.823 5.659V9.22H16.323V5.659H15.823ZM13.055 4.565C13.055 4.10199 12.6392 3.75 12.171 3.75V4.25C12.4108 4.25 12.555 4.42358 12.555 4.565H13.055ZM13.055 11.973V4.565H12.555V11.973H13.055ZM13.555 11.973C13.555 12.0718 13.5204 12.1276 13.4827 12.1611C13.4403 12.1988 13.3767 12.223 13.305 12.223C13.2333 12.223 13.1697 12.1988 13.1273 12.1611C13.0896 12.1276 13.055 12.0718 13.055 11.973H12.555C12.555 12.2075 12.6454 12.4018 12.7952 12.5349C12.9403 12.6639 13.1267 12.723 13.305 12.723C13.4833 12.723 13.6697 12.6639 13.8148 12.5349C13.9646 12.4018 14.055 12.2075 14.055 11.973H13.555ZM13.555 5.659V11.973H14.055V5.659H13.555ZM14.439 4.844C13.9701 4.844 13.555 5.19563 13.555 5.659H14.055C14.055 5.51715 14.1986 5.344 14.439 5.344V4.844ZM15.323 5.659C15.323 5.19563 14.9079 4.844 14.439 4.844V5.344C14.6794 5.344 14.823 5.51715 14.823 5.659H15.323ZM15.323 11.973V5.659H14.823V11.973H15.323ZM15.823 11.973C15.823 12.0718 15.7884 12.1276 15.7507 12.1611C15.7083 12.1988 15.6447 12.223 15.573 12.223C15.5013 12.223 15.4377 12.1988 15.3953 12.1611C15.3576 12.1276 15.323 12.0718 15.323 11.973H14.823C14.823 12.2075 14.9134 12.4018 15.0632 12.5349C15.2083 12.6639 15.3947 12.723 15.573 12.723C15.7513 12.723 15.9377 12.6639 16.0828 12.5349C16.2326 12.4018 16.323 12.2075 16.323 11.973H15.823ZM15.823 10.662V11.973H16.323V10.662H15.823ZM16.707 9.847C16.2381 9.847 15.823 10.1986 15.823 10.662H16.323C16.323 10.5201 16.4666 10.347 16.707 10.347V9.847ZM17.592 10.662C17.592 10.1986 17.1758 9.847 16.707 9.847V10.347C16.9481 10.347 17.092 10.5208 17.092 10.662H17.592ZM17.592 15.823V10.662H17.092V15.823H17.592ZM12.167 20.196C15.3541 20.196 17.592 18.197 17.592 15.823H17.092C17.092 17.8396 15.1669 19.696 12.167 19.696V20.196ZM6.75 15.823C6.75 18.1414 9.05763 20.196 12.167 20.196V19.696C9.24517 19.696 7.25 17.7843 7.25 15.823H6.75ZM6.75 8.65V15.823H7.25V8.65H6.75ZM7.634 7.835C7.16515 7.835 6.75 8.18663 6.75 8.65H7.25C7.25 8.50815 7.39362 8.335 7.634 8.335V7.835ZM8.518 8.65C8.518 8.18663 8.10285 7.835 7.634 7.835V8.335C7.87438 8.335 8.018 8.50815 8.018 8.65H8.518ZM8.518 11.973V8.65H8.018V11.973H8.518ZM9.018 11.973C9.018 12.0718 8.98343 12.1276 8.94566 12.1611C8.90329 12.1988 8.83973 12.223 8.768 12.223C8.69627 12.223 8.63271 12.1988 8.59034 12.1611C8.55257 12.1276 8.518 12.0718 8.518 11.973H8.018C8.018 12.2075 8.10843 12.4018 8.25816 12.5349C8.40329 12.6639 8.58973 12.723 8.768 12.723C8.94627 12.723 9.13271 12.6639 9.27784 12.5349C9.42757 12.4018 9.518 12.2075 9.518 11.973H9.018ZM9.018 6.526V11.973H9.518V6.526H9.018ZM9.902 5.711C9.43416 5.711 9.018 6.06362 9.018 6.526H9.518C9.518 6.38511 9.66266 6.211 9.902 6.211V5.711ZM10.786 6.526C10.786 6.06326 10.3705 5.711 9.902 5.711V6.211C10.1419 6.211 10.286 6.38467 10.286 6.526H10.786ZM10.786 11.973V6.526H10.286V11.973H10.786ZM11.286 11.973C11.286 12.0718 11.2514 12.1276 11.2137 12.1611C11.1713 12.1988 11.1077 12.223 11.036 12.223C10.9643 12.223 10.9007 12.1988 10.8583 12.1611C10.8206 12.1276 10.786 12.0718 10.786 11.973H10.286C10.286 12.2075 10.3764 12.4018 10.5262 12.5349C10.6713 12.6639 10.8577 12.723 11.036 12.723C11.2143 12.723 11.4007 12.6639 11.5458 12.5349C11.6956 12.4018 11.786 12.2075 11.786 11.973H11.286ZM11.286 4.565V11.973H11.786V4.565H11.286ZM12.171 3.75C11.7022 3.75 11.286 4.10163 11.286 4.565H11.786C11.786 4.42379 11.9299 4.25 12.171 4.25V3.75Z" fill="currentcolor"/>
</svg>
