<svg width="24" height="24" viewBox="0 0 24 24" fill="none" xmlns="http://www.w3.org/2000/svg">
<path fill-rule="evenodd" clip-rule="evenodd" d="M16.073 5.659C16.073 4.78959 15.3324 4.094 14.439 4.094C14.2007 4.094 13.9733 4.14348 13.7679 4.23254C13.6076 3.52499 12.9463 3 12.171 3C11.2776 3 10.536 3.69562 10.536 4.565V5.08415C10.3404 5.00481 10.126 4.961 9.902 4.961C9.00966 4.961 8.268 5.65757 8.268 6.526V7.208C8.07245 7.12874 7.85803 7.085 7.634 7.085C6.74064 7.085 6 7.78059 6 8.65V15.823C6 18.5341 8.61648 20.946 12.167 20.946C15.7963 20.946 18.342 18.5884 18.342 15.823V10.662C18.342 9.79262 17.6004 9.097 16.707 9.097C16.483 9.097 16.2685 9.14074 16.073 9.22V5.659ZM12.171 4C12.525 4 12.805 4.26279 12.805 4.565V11.973C12.805 12.6397 13.805 12.6397 13.805 11.973V5.659C13.805 5.35639 14.0844 5.094 14.439 5.094C14.7936 5.094 15.073 5.35639 15.073 5.659V11.973C15.073 12.6397 16.073 12.6397 16.073 11.973V10.662C16.073 10.3594 16.3524 10.097 16.707 10.097C17.0619 10.097 17.342 10.3597 17.342 10.662V15.823C17.342 18.0183 15.2605 19.946 12.167 19.946C9.1514 19.946 7 17.9628 7 15.823V8.65C7 8.34739 7.27938 8.085 7.634 8.085C7.98862 8.085 8.268 8.34739 8.268 8.65V11.973C8.268 12.6397 9.268 12.6397 9.268 11.973V6.526C9.268 6.22436 9.54841 5.961 9.902 5.961C10.2562 5.961 10.536 6.22397 10.536 6.526V11.973C10.536 12.6397 11.536 12.6397 11.536 11.973V4.565C11.536 4.26271 11.8161 4 12.171 4Z" fill="currentcolor"/>
</svg>
