<svg width="24" height="24" viewBox="0 0 24 24" fill="none" xmlns="http://www.w3.org/2000/svg">
<path d="M11.9302 14.3194C11.6542 14.3194 11.4302 14.0954 11.4302 13.8194C11.4302 12.6639 12.2465 12.0559 12.9673 11.5191L12.9708 11.5165C13.6447 11.0133 14.2272 10.5784 14.2272 9.7514C14.2272 8.4844 13.1972 7.4544 11.9302 7.4544C10.6632 7.4544 9.6332 8.4844 9.6332 9.7514C9.6332 10.0274 9.4092 10.2514 9.1332 10.2514C8.8572 10.2514 8.6332 10.0274 8.6332 9.7514C8.6332 7.9334 10.1122 6.4544 11.9302 6.4544C13.7482 6.4544 15.2272 7.9334 15.2272 9.7514C15.2272 11.0814 14.3052 11.7684 13.5652 12.3194C12.8622 12.8444 12.4302 13.1974 12.4302 13.8194C12.4302 14.0954 12.2062 14.3194 11.9302 14.3194Z" fill="currentcolor"/>
<path d="M11.1751 16.9761C11.1751 17.3901 11.5211 17.7261 11.9351 17.7261C12.3491 17.7261 12.6851 17.3801 12.6851 16.9661C12.6851 16.5521 12.3491 16.2161 11.9351 16.2161H11.9251C11.5111 16.2161 11.1751 16.5621 11.1751 16.9761Z" fill="currentcolor"/>
<path fill-rule="evenodd" clip-rule="evenodd" d="M12 22C17.523 22 22 17.5226 22 12C22 6.47669 17.5233 2 12 2C6.47669 2 2 6.47669 2 12C2 17.5226 6.47705 22 12 22ZM12 3.00264C16.9696 3.00264 20.9974 7.03043 20.9974 12C20.9974 16.9689 16.9692 20.9974 12 20.9974C7.03081 20.9974 3.00264 16.9689 3.00264 12C3.00264 7.03043 7.03043 3.00264 12 3.00264Z" fill="currentcolor"/>
<path d="M11.9302 14.3194C11.6542 14.3194 11.4302 14.0954 11.4302 13.8194C11.4302 12.6639 12.2465 12.0559 12.9673 11.5191L12.9708 11.5165C13.6447 11.0133 14.2272 10.5784 14.2272 9.7514C14.2272 8.4844 13.1972 7.4544 11.9302 7.4544C10.6632 7.4544 9.6332 8.4844 9.6332 9.7514C9.6332 10.0274 9.4092 10.2514 9.1332 10.2514C8.8572 10.2514 8.6332 10.0274 8.6332 9.7514C8.6332 7.9334 10.1122 6.4544 11.9302 6.4544C13.7482 6.4544 15.2272 7.9334 15.2272 9.7514C15.2272 11.0814 14.3052 11.7684 13.5652 12.3194C12.8622 12.8444 12.4302 13.1974 12.4302 13.8194C12.4302 14.0954 12.2062 14.3194 11.9302 14.3194Z" stroke="currentcolor"/>
<path d="M11.1751 16.9761C11.1751 17.3901 11.5211 17.7261 11.9351 17.7261C12.3491 17.7261 12.6851 17.3801 12.6851 16.9661C12.6851 16.5521 12.3491 16.2161 11.9351 16.2161H11.9251C11.5111 16.2161 11.1751 16.5621 11.1751 16.9761Z" stroke="currentcolor"/>
<path fill-rule="evenodd" clip-rule="evenodd" d="M12 22C17.523 22 22 17.5226 22 12C22 6.47669 17.5233 2 12 2C6.47669 2 2 6.47669 2 12C2 17.5226 6.47705 22 12 22ZM12 3.00264C16.9696 3.00264 20.9974 7.03043 20.9974 12C20.9974 16.9689 16.9692 20.9974 12 20.9974C7.03081 20.9974 3.00264 16.9689 3.00264 12C3.00264 7.03043 7.03043 3.00264 12 3.00264Z" stroke="currentcolor"/>
</svg>
