<svg width="24" height="24" viewBox="0 0 24 24" fill="none" xmlns="http://www.w3.org/2000/svg">
<path d="M12.0002 5C10.7427 5 9.66365 5.77394 9.21786 6.87521L8.84265 7.80215L6.98877 7.05172L7.36398 6.12479C8.10497 4.29423 9.90023 3 12.0002 3C14.7616 3 17.0002 5.23858 17.0002 8C17.0002 10.419 15.2824 12.4367 13.0001 12.9L12.9998 17.0001L10.9998 16.9999L11.0002 11.9999L12.0002 11C13.657 11 15.0002 9.65685 15.0002 8C15.0002 6.34315 13.657 5 12.0002 5Z" fill="currentcolor"/>
<path d="M10.9999 19H13.0099V21H10.9999V19Z" fill="currentcolor"/>
</svg>
