<svg width="24" height="24" viewBox="0 0 24 24" fill="none" xmlns="http://www.w3.org/2000/svg">
<path d="M4.75391 3.72382V2.00391H2.75391V7.00391H7.75391V5.00391H6.33764C7.88466 3.75007 9.85466 3 12 3C16.9706 3 21 7.02944 21 12C21 16.9706 16.9706 21 12 21C7.02944 21 3 16.9706 3 12V11H1V12C1 18.0751 5.92487 23 12 23C18.0751 23 23 18.0751 23 12C23 5.92487 18.0751 1 12 1C9.22426 1 6.68862 2.02874 4.75391 3.72382Z" fill="currentcolor"/>
<path d="M13 7V11.5858L16.4142 15L15 16.4142L11 12.4142V7H13Z" fill="currentcolor"/>
</svg>
