<svg width="24" height="24" viewBox="0 0 24 24" fill="none" xmlns="http://www.w3.org/2000/svg">
<path d="M7.13654 8.20001C7.13907 8.19728 7.14157 8.19451 7.14405 8.19171C8.36878 6.80731 10.1222 6.00041 12.0076 6.00041C15.5936 6.00041 18.5006 8.90677 18.5006 12.4924C18.5006 16.0783 15.5934 18.9854 12.0076 18.9854C9.12899 18.9854 6.61832 17.0953 5.79395 14.383C5.71365 14.1188 5.43437 13.9697 5.17016 14.05C4.90595 14.1303 4.75687 14.4096 4.83717 14.6738C5.7887 17.8045 8.68566 19.9854 12.0076 19.9854C16.1457 19.9854 19.5006 16.6306 19.5006 12.4924C19.5006 8.35444 16.1459 5.00041 12.0076 5.00041C9.88614 5.00041 7.90727 5.8871 6.50026 7.41266V4.70001C6.50026 4.42387 6.2764 4.20001 6.00026 4.20001C5.72412 4.20001 5.50026 4.42387 5.50026 4.70001V8.70001C5.50026 8.97615 5.72412 9.20001 6.00026 9.20001H10.0003C10.2764 9.20001 10.5003 8.97615 10.5003 8.70001C10.5003 8.42387 10.2764 8.20001 10.0003 8.20001H7.13654Z" fill="currentcolor"/>
</svg>
