<svg width="24" height="24" viewBox="0 0 24 24" fill="none" xmlns="http://www.w3.org/2000/svg">
<path d="M16.864 7.70001C16.8615 7.69728 16.859 7.69451 16.8565 7.69171C15.6318 6.30731 13.8784 5.50041 11.993 5.50041C8.40693 5.50041 5.5 8.40677 5.5 11.9924C5.5 15.5783 8.40714 18.4854 11.993 18.4854C14.8716 18.4854 17.3822 16.5953 18.2066 13.883C18.2869 13.6188 18.5662 13.4697 18.8304 13.55C19.0946 13.6303 19.2437 13.9096 19.1634 14.1738C18.2119 17.3045 15.3149 19.4854 11.993 19.4854C7.85486 19.4854 4.5 16.1306 4.5 11.9924C4.5 7.85444 7.85469 4.50041 11.993 4.50041C14.1144 4.50041 16.0933 5.3871 17.5003 6.91266V4.20001C17.5003 3.92387 17.7242 3.70001 18.0003 3.70001C18.2764 3.70001 18.5003 3.92387 18.5003 4.20001V8.20001C18.5003 8.47615 18.2764 8.70001 18.0003 8.70001H14.0003C13.7242 8.70001 13.5003 8.47615 13.5003 8.20001C13.5003 7.92387 13.7242 7.70001 14.0003 7.70001H16.864Z" fill="currentcolor" stroke="currentcolor"/>
</svg>
