<svg width="24" height="24" viewBox="0 0 24 24" fill="none" xmlns="http://www.w3.org/2000/svg">
<path fill-rule="evenodd" clip-rule="evenodd" d="M15.1323 4.92822H16.1175C16.7976 4.92822 17.3205 5.10069 17.3205 5.69734V6.84506H17.5585C18.3486 6.84506 19 7.50539 19 8.31831V20.5387C19 21.3516 18.3489 22 17.5585 22H6.45185C5.65429 22 5 21.3539 5 20.5387V8.31831C5 7.50307 5.6546 6.84506 6.45185 6.84506H6.68046V5.69734C6.68046 5.1005 7.20824 4.92822 7.88342 4.92822H8.87898V3.77887C8.87898 3.28251 9.31273 3 9.76046 3H14.2405C14.6964 3 15.1323 3.27845 15.1323 3.77887V4.92822ZM6.68046 7.92833H6.45185C6.21862 7.92833 6.03704 8.11086 6.03704 8.31831V20.5387C6.03704 20.7416 6.21441 20.9167 6.45185 20.9167H17.5585C17.7869 20.9167 17.963 20.7414 17.963 20.5387V8.31831C17.963 8.11104 17.7827 7.92833 17.5585 7.92833H17.3205V9.07714C17.3205 9.66618 16.7796 9.85709 16.1175 9.85709H7.88342C7.2266 9.85709 6.68046 9.66634 6.68046 9.07714V7.92833ZM16.1176 6.01149H14.6139C14.3275 6.01149 14.0953 5.76899 14.0953 5.46985V4.08327H9.91609V5.46985C9.91609 5.76899 9.68394 6.01149 9.39757 6.01149H7.8835C7.82469 6.01149 7.7684 6.01468 7.71757 6.02028V8.7637C7.76843 8.77013 7.82485 8.77382 7.8835 8.77382H16.1176C16.1769 8.77382 16.2331 8.77031 16.2835 8.76422V6.01984C16.2331 6.01452 16.177 6.01149 16.1176 6.01149ZM11.4503 5.40418C11.1466 5.72146 11.1466 6.23587 11.4503 6.55316C11.7541 6.87044 12.2465 6.87044 12.5503 6.55316C12.854 6.23587 12.854 5.72146 12.5503 5.40418C12.2465 5.08689 11.7541 5.08689 11.4503 5.40418ZM12.5173 11.2095C12.3271 10.8069 11.7775 10.8069 11.5873 11.2095L10.5862 13.3287L8.34797 13.669C7.92273 13.7336 7.753 14.2795 8.06073 14.5928L9.67984 16.2413L9.2979 18.5705C9.22533 19.013 9.67006 19.3503 10.0504 19.1413L12.0523 18.041L14.0541 19.1413C14.4346 19.3504 14.8794 19.0129 14.8066 18.5703L14.4238 16.2413L16.0437 14.5929C16.3516 14.2797 16.1819 13.7336 15.7566 13.669L13.5183 13.3287L12.5173 11.2095ZM11.0053 14.3597C11.1741 14.334 11.3201 14.2232 11.3956 14.0634L12.0523 12.6732L12.7089 14.0634C12.7844 14.2232 12.9304 14.334 13.0992 14.3597L14.5674 14.5829L13.5047 15.6642C13.3824 15.7887 13.3266 15.9681 13.3555 16.1439L13.6066 17.6712L12.2937 16.9496C12.1426 16.8666 11.962 16.8666 11.8108 16.9496L10.4975 17.6715L10.748 16.1436C10.7768 15.968 10.721 15.7887 10.5988 15.6643L9.53674 14.5829L11.0053 14.3597Z" fill="currentcolor"/>
<path fill-rule="evenodd" clip-rule="evenodd" d="M8.62898 3.77887C8.62898 3.09704 9.22739 2.75 9.76046 2.75H14.2405C14.5164 2.75 14.7966 2.83376 15.0131 3.00621C15.235 3.1829 15.3823 3.44798 15.3823 3.77887V4.67822H16.1175C16.4697 4.67822 16.8219 4.72127 17.0938 4.86958C17.234 4.94609 17.3566 5.0527 17.4429 5.19746C17.5292 5.34228 17.5705 5.51071 17.5705 5.69734V6.59511C18.4977 6.6017 19.25 7.37593 19.25 8.31831V20.5387C19.25 21.4877 18.4889 22.25 17.5585 22.25H6.45185C5.51607 22.25 4.75 21.4918 4.75 20.5387V8.31831C4.75 7.375 5.5022 6.60684 6.43046 6.5952V5.69734C6.43046 5.51026 6.47221 5.34162 6.55908 5.19678C6.64586 5.0521 6.76895 4.94569 6.90929 4.86935C7.18148 4.7213 7.53344 4.67822 7.88342 4.67822H8.62898V3.77887ZM9.76046 3.25C9.39807 3.25 9.12898 3.46798 9.12898 3.77887V5.17822H7.88342C7.55822 5.17822 7.3087 5.22128 7.1482 5.30858C7.0722 5.34992 7.02115 5.39848 6.98787 5.45397C6.95469 5.50929 6.93046 5.586 6.93046 5.69734V7.09506H6.45185C5.79542 7.09506 5.25 7.63838 5.25 8.31831V20.5387C5.25 21.216 5.7925 21.75 6.45185 21.75H17.5585C18.2089 21.75 18.75 21.2154 18.75 20.5387V8.31831C18.75 7.6389 18.2061 7.09506 17.5585 7.09506H17.0705V5.69734C17.0705 5.58564 17.0464 5.50877 17.0134 5.45345C16.9804 5.39807 16.9298 5.34969 16.8543 5.3085C16.6946 5.2214 16.4454 5.17822 16.1175 5.17822H14.8823V3.77887C14.8823 3.60934 14.8117 3.48498 14.7016 3.39734C14.5863 3.30546 14.4205 3.25 14.2405 3.25H9.76046ZM9.66609 3.83327H14.3453V5.46985C14.3453 5.64131 14.4757 5.76149 14.6139 5.76149H16.1176C16.1853 5.76149 16.2502 5.76493 16.3097 5.77122L16.5335 5.79484V8.98577L16.3136 9.0124C16.2528 9.01976 16.1865 9.02382 16.1176 9.02382H7.8835C7.81463 9.02382 7.74773 9.0195 7.68622 9.01172L7.46757 8.98409V5.79631L7.69019 5.77178C7.75044 5.76515 7.81588 5.76149 7.8835 5.76149H9.39757C9.53571 5.76149 9.66609 5.64131 9.66609 5.46985V3.83327ZM10.1661 4.33327V5.46985C10.1661 5.89667 9.83218 6.26149 9.39757 6.26149H7.96757V8.52382H16.0335V6.26149H14.6139C14.1793 6.26149 13.8453 5.89667 13.8453 5.46985V4.33327H10.1661ZM12.3697 5.57706C12.1644 5.3626 11.8362 5.3626 11.6309 5.57706C11.4197 5.79766 11.4197 6.15967 11.6309 6.38027C11.8362 6.59473 12.1644 6.59473 12.3697 6.38027C12.5809 6.15967 12.5809 5.79766 12.3697 5.57706ZM11.2698 5.23129C11.6719 4.81119 12.3287 4.81119 12.7309 5.23129C13.1272 5.64525 13.1272 6.31208 12.7309 6.72604C12.3287 7.14614 11.6719 7.14614 11.2698 6.72604C10.8735 6.31208 10.8735 5.64525 11.2698 5.23129ZM6.43046 8.17948C6.33885 8.18947 6.28704 8.26266 6.28704 8.31831V20.5387C6.28704 20.5877 6.33618 20.6667 6.45185 20.6667H17.5585C17.6603 20.6667 17.713 20.5922 17.713 20.5387V8.31831C17.713 8.25682 17.6551 8.18502 17.5705 8.17877V9.07714C17.5705 9.46753 17.3815 9.74352 17.0889 9.90644C16.816 10.0584 16.4647 10.1071 16.1175 10.1071H7.88342C7.53853 10.1071 7.18758 10.0583 6.91432 9.90666C6.62166 9.74424 6.43046 9.46858 6.43046 9.07714V8.17948ZM5.78704 8.31831C5.78704 7.96325 6.09028 7.67833 6.45185 7.67833H6.93046V9.07714C6.93046 9.27489 7.01233 9.38921 7.15695 9.46947C7.32096 9.5605 7.5715 9.60709 7.88342 9.60709H16.1175C16.4323 9.60709 16.6826 9.56037 16.8456 9.46958C16.989 9.38978 17.0705 9.27579 17.0705 9.07714V7.67833H17.5585C17.9159 7.67833 18.213 7.96812 18.213 8.31831V20.5387C18.213 20.8906 17.9136 21.1667 17.5585 21.1667H6.45185C6.09264 21.1667 5.78704 20.8954 5.78704 20.5387V8.31831ZM12.2912 11.3163C12.1912 11.1046 11.9133 11.1046 11.8133 11.3163L10.7554 13.5559L8.38555 13.9161C8.17657 13.9479 8.06379 14.2392 8.23909 14.4177L9.94707 16.1567L9.5446 18.611C9.50161 18.8731 9.75456 19.0186 9.93 18.9222L12.0523 17.7557L14.1746 18.9222C14.35 19.0186 14.603 18.873 14.5599 18.6108L14.1565 16.1567L15.8654 14.4177C16.0408 14.2393 15.928 13.9479 15.719 13.9161L13.3491 13.5559L12.2912 11.3163ZM11.3612 11.1027C11.6416 10.5091 12.4629 10.5091 12.7433 11.1027L13.6875 13.1016L15.7942 13.4218C16.4358 13.5194 16.6624 14.3201 16.222 14.7682L14.691 16.326L15.0533 18.5297C15.1557 19.1527 14.5191 19.6821 13.9337 19.3604L12.0523 18.3263L10.1708 19.3604C9.58556 19.682 8.94905 19.1529 9.05119 18.53L9.41261 16.326L7.88237 14.768C7.44221 14.3199 7.6689 13.5193 8.3104 13.4218L10.417 13.1016L11.3612 11.1027ZM12.0523 12.0879L12.935 13.9566C12.9764 14.0443 13.0536 14.0999 13.1368 14.1125L15.0886 14.4092L13.683 15.8394C13.618 15.9056 13.5859 16.0043 13.6022 16.1033L13.9367 18.1379L12.1733 17.1687C12.0971 17.1269 12.0074 17.1269 11.9312 17.1687L10.1676 18.1381L10.5013 16.1032C10.5175 16.0042 10.4854 15.9056 10.4205 15.8395L9.01575 14.4093L10.9677 14.1125C11.0509 14.0999 11.1281 14.0443 11.1696 13.9566L12.0523 12.0879ZM12.0523 13.2586L11.6217 14.1702C11.5121 14.4021 11.2974 14.5682 11.0429 14.6069L10.0577 14.7566L10.7772 15.4891C10.9566 15.6718 11.0361 15.9317 10.9947 16.1841L10.8273 17.2049L11.6904 16.7306C11.9165 16.6063 12.188 16.6063 12.4141 16.7306L13.2765 17.2045L13.1088 16.1844C13.0673 15.9319 13.1468 15.6717 13.3264 15.489L14.0462 14.7565L13.0617 14.6069C12.8071 14.5682 12.5924 14.4021 12.4829 14.1702L12.0523 13.2586Z" fill="currentcolor"/>
</svg>
