<svg width="24" height="24" viewBox="0 0 24 24" fill="none" xmlns="http://www.w3.org/2000/svg">
<path fill-rule="evenodd" clip-rule="evenodd" d="M15.1323 4.92822H16.1175C16.7976 4.92822 17.3205 5.10069 17.3205 5.69734V6.84506H17.5585C18.3486 6.84506 19 7.50539 19 8.31831V20.5387C19 21.3516 18.3489 22 17.5585 22H6.45185C5.65429 22 5 21.3539 5 20.5387V8.31831C5 7.50307 5.6546 6.84506 6.45185 6.84506H6.68046V5.69734C6.68046 5.1005 7.20824 4.92822 7.88342 4.92822H8.87898V3.77887C8.87898 3.28251 9.31273 3 9.76046 3H14.2405C14.6964 3 15.1323 3.27845 15.1323 3.77887V4.92822ZM6.68046 7.92833H6.45185C6.21862 7.92833 6.03704 8.11086 6.03704 8.31831V20.5387C6.03704 20.7416 6.21441 20.9167 6.45185 20.9167H17.5585C17.7869 20.9167 17.963 20.7414 17.963 20.5387V8.31831C17.963 8.11104 17.7827 7.92833 17.5585 7.92833H17.3205V9.07714C17.3205 9.66618 16.7796 9.85709 16.1175 9.85709H7.88342C7.2266 9.85709 6.68046 9.66634 6.68046 9.07714V7.92833ZM16.1176 6.01149H14.6139C14.3275 6.01149 14.0953 5.76899 14.0953 5.46985V4.08327H9.91609V5.46985C9.91609 5.76899 9.68394 6.01149 9.39757 6.01149H7.8835C7.82469 6.01149 7.7684 6.01468 7.71757 6.02028V8.7637C7.76843 8.77013 7.82485 8.77382 7.8835 8.77382H16.1176C16.1769 8.77382 16.2331 8.77031 16.2835 8.76422V6.01984C16.2331 6.01452 16.177 6.01149 16.1176 6.01149ZM11.4503 5.40417C11.1466 5.72146 11.1466 6.23587 11.4503 6.55315C11.7541 6.87044 12.2465 6.87044 12.5503 6.55315C12.854 6.23587 12.854 5.72146 12.5503 5.40417C12.2465 5.08689 11.7541 5.08689 11.4503 5.40417ZM12.5173 11.2095C12.3271 10.8069 11.7775 10.8069 11.5873 11.2095L10.5862 13.3287L8.34797 13.669C7.92273 13.7336 7.753 14.2795 8.06073 14.5928L9.67984 16.2413L9.2979 18.5705C9.22533 19.013 9.67006 19.3503 10.0504 19.1413L12.0523 18.041L14.0541 19.1413C14.4346 19.3504 14.8794 19.0129 14.8066 18.5703L14.4238 16.2413L16.0437 14.5929C16.3516 14.2797 16.1819 13.7336 15.7566 13.669L13.5183 13.3287L12.5173 11.2095ZM11.0053 14.3597C11.1741 14.334 11.3201 14.2232 11.3956 14.0634L12.0523 12.6732L12.7089 14.0634C12.7844 14.2232 12.9304 14.334 13.0992 14.3597L14.5674 14.5829L13.5047 15.6642C13.3824 15.7887 13.3266 15.9681 13.3555 16.1439L13.6066 17.6712L12.2937 16.9496C12.1426 16.8666 11.962 16.8666 11.8108 16.9496L10.4974 17.6715L10.748 16.1436C10.7768 15.968 10.721 15.7887 10.5988 15.6643L9.53674 14.5829L11.0053 14.3597Z" fill="currentcolor"/>
</svg>
