<svg width="24" height="24" viewBox="0 0 24 24" fill="none" xmlns="http://www.w3.org/2000/svg">
<path fill-rule="evenodd" clip-rule="evenodd" d="M17.7773 6.10056C18.4199 6.74291 18.8464 7.63957 18.916 8.73214L18.3259 8.25743C18.1568 8.12369 17.9126 8.15195 17.7791 8.3196C17.6457 8.48913 17.6739 8.73402 17.8411 8.86777L19.1527 9.91512C19.3181 10.047 19.5567 10.0225 19.692 9.8605L20.7687 8.57202C20.9059 8.40813 20.8852 8.16136 20.7199 8.02385C20.5564 7.88634 20.3102 7.90706 20.1731 8.07283L19.6883 8.65302C19.6018 7.37208 19.0907 6.31153 18.3259 5.54674C17.4992 4.72166 16.3774 4.24319 15.1691 4.20363L15.7629 3.67995C15.9226 3.53867 15.9396 3.29379 15.7986 3.13178C15.6577 2.97167 15.4134 2.95471 15.2518 3.09599L13.991 4.20551C13.8331 4.34491 13.8143 4.58603 13.9496 4.74803L15.0245 6.03839C15.1616 6.20416 15.4059 6.22488 15.5713 6.08737C15.7366 5.94986 15.7573 5.70497 15.6201 5.5392L15.1579 4.9835C16.1632 5.01929 17.0933 5.41676 17.7773 6.10056ZM10 3.71457C11.1046 3.71457 12 4.61 12 5.71457V10.7146H11V5.71457C11 5.16229 10.5523 4.71457 10 4.71457H4C3.44772 4.71457 3 5.16229 3 5.71457V19.7146C3 20.4755 3.28329 21.1702 3.75016 21.6991C2.7635 21.5762 2 20.7345 2 19.7146V5.71457C2 4.61 2.89543 3.71457 4 3.71457H10ZM5.5 5.71457C5.22386 5.71457 5 5.93843 5 6.21457C5 6.49072 5.22386 6.71457 5.5 6.71457H8.5C8.77614 6.71457 9 6.49072 9 6.21457C9 5.93843 8.77614 5.71457 8.5 5.71457H5.5ZM22 19.7146C22 20.8191 21.1046 21.7146 20 21.7146H6C4.89543 21.7146 4 20.8191 4 19.7146V13.7146C4 12.61 4.89543 11.7146 6 11.7146H20C21.1046 11.7146 22 12.61 22 13.7146V19.7146ZM21 19.7146C21 20.2669 20.5523 20.7146 20 20.7146H6C5.44772 20.7146 5 20.2669 5 19.7146V13.7146C5 13.1623 5.44772 12.7146 6 12.7146H20C20.5523 12.7146 21 13.1623 21 13.7146V19.7146ZM20 15.2146C20 14.9384 19.7761 14.7146 19.5 14.7146C19.2239 14.7146 19 14.9384 19 15.2146V18.2146C19 18.4907 19.2239 18.7146 19.5 18.7146C19.7761 18.7146 20 18.4907 20 18.2146V15.2146ZM7 16.2146V17.2146H6V16.2146H7Z" fill="currentcolor"/>
</svg>
