<svg width="24" height="24" viewBox="0 0 24 24" fill="none" xmlns="http://www.w3.org/2000/svg">
<path fill-rule="evenodd" clip-rule="evenodd" d="M17.7773 5.38596C18.4199 6.02831 18.8464 6.92497 18.916 8.01754L18.3259 7.54284C18.1568 7.40909 17.9126 7.43735 17.7791 7.605C17.6457 7.77454 17.6739 8.01942 17.8411 8.15317L19.1527 9.20052C19.3181 9.33239 19.5567 9.3079 19.692 9.1459L20.7687 7.85742C20.9059 7.69353 20.8852 7.44676 20.7199 7.30925C20.5564 7.17174 20.3102 7.19246 20.1731 7.35823L19.6883 7.93842C19.6018 6.65748 19.0907 5.59693 18.3259 4.83214C17.4992 4.00706 16.3774 3.52859 15.1691 3.48903L15.7629 2.96535C15.9226 2.82407 15.9396 2.57919 15.7986 2.41718C15.6577 2.25707 15.4134 2.24011 15.2518 2.38139L13.991 3.49092C13.8331 3.63031 13.8143 3.87143 13.9496 4.03343L15.0245 5.32379C15.1616 5.48956 15.4059 5.51028 15.5713 5.37277C15.7366 5.23526 15.7573 4.99037 15.6201 4.8246L15.1579 4.2689C16.1632 4.30469 17.0933 4.70216 17.7773 5.38596ZM10 2.99997C11.1046 2.99997 12 3.8954 12 4.99997V9.99997H11V4.99997C11 4.44769 10.5523 3.99997 10 3.99997H4C3.44772 3.99997 3 4.44769 3 4.99997V19C3 19.7609 3.28329 20.4556 3.75016 20.9845C2.7635 20.8616 2 20.0199 2 19V4.99997C2 3.8954 2.89543 2.99997 4 2.99997H10ZM5.5 4.99997C5.22386 4.99997 5 5.22383 5 5.49997C5 5.77612 5.22386 5.99997 5.5 5.99997H8.5C8.77614 5.99997 9 5.77612 9 5.49997C9 5.22383 8.77614 4.99997 8.5 4.99997H5.5ZM22 19C22 20.1045 21.1046 21 20 21H6C4.89543 21 4 20.1045 4 19V13C4 11.8954 4.89543 11 6 11H20C21.1046 11 22 11.8954 22 13V19ZM21 19C21 19.5523 20.5523 20 20 20H6C5.44772 20 5 19.5523 5 19V13C5 12.4477 5.44772 12 6 12H20C20.5523 12 21 12.4477 21 13V19ZM20 14.5C20 14.2238 19.7761 14 19.5 14C19.2239 14 19 14.2238 19 14.5V17.5C19 17.7761 19.2239 18 19.5 18C19.7761 18 20 17.7761 20 17.5V14.5ZM7 15.5V16.5H6V15.5H7Z" fill="currentcolor"/>
<path d="M18.916 8.01754L18.7593 8.21232L19.2015 8.56814L19.1655 8.00166L18.916 8.01754ZM17.7773 5.38596L17.6005 5.56276L17.6005 5.56277L17.7773 5.38596ZM18.3259 7.54284L18.4827 7.34804L18.481 7.34675L18.3259 7.54284ZM17.7791 7.605L17.5835 7.44933L17.5827 7.4504L17.7791 7.605ZM17.8411 8.15317L17.685 8.34841L17.6851 8.34852L17.8411 8.15317ZM19.1527 9.20052L18.9967 9.39588L18.9969 9.39599L19.1527 9.20052ZM19.692 9.1459L19.5002 8.98559L19.5001 8.98565L19.692 9.1459ZM20.7687 7.85742L20.577 7.69696L20.5769 7.69711L20.7687 7.85742ZM20.7199 7.30925L20.5589 7.50057L20.56 7.50147L20.7199 7.30925ZM20.1731 7.35823L20.3649 7.51853L20.3657 7.51761L20.1731 7.35823ZM19.6883 7.93842L19.4388 7.95525L19.4808 8.57665L19.8801 8.09872L19.6883 7.93842ZM18.3259 4.83214L18.5027 4.65536L18.5025 4.65518L18.3259 4.83214ZM15.1691 3.48903L15.0038 3.30153L14.5312 3.71828L15.161 3.7389L15.1691 3.48903ZM15.7629 2.96535L15.9283 3.15285L15.9286 3.15261L15.7629 2.96535ZM15.7986 2.41718L15.9872 2.2531L15.9863 2.25201L15.7986 2.41718ZM15.2518 2.38139L15.0873 2.19318L15.0867 2.19371L15.2518 2.38139ZM13.991 3.49091L13.8258 3.30323L13.8255 3.30353L13.991 3.49091ZM13.9496 4.03343L14.1417 3.87343L14.1415 3.87318L13.9496 4.03343ZM15.0245 5.32379L15.2171 5.16441L15.2165 5.16379L15.0245 5.32379ZM15.5713 5.37277L15.7311 5.56499V5.56499L15.5713 5.37277ZM15.6201 4.8246L15.8127 4.66522L15.8123 4.66473L15.6201 4.8246ZM15.1579 4.2689L15.1668 4.01906L14.6083 3.99918L14.9657 4.42877L15.1579 4.2689ZM12 9.99997V10.25H12.25V9.99997H12ZM11 9.99997H10.75V10.25H11V9.99997ZM3.75016 20.9845L3.71924 21.2326L4.37473 21.3143L3.93758 20.8191L3.75016 20.9845ZM7 16.5V16.75H7.25V16.5H7ZM7 15.5H7.25V15.25H7V15.5ZM6 16.5H5.75V16.75H6V16.5ZM6 15.5V15.25H5.75V15.5H6ZM19.1655 8.00166C19.0922 6.85091 18.6414 5.89626 17.954 5.20914L17.6005 5.56277C18.1984 6.16036 18.6006 6.99903 18.6665 8.03341L19.1655 8.00166ZM18.1692 7.73762L18.7593 8.21232L19.0727 7.82275L18.4827 7.34805L18.1692 7.73762ZM17.9748 7.76067C18.0221 7.70117 18.1095 7.69037 18.1709 7.73892L18.481 7.34675C18.2042 7.12781 17.803 7.17352 17.5835 7.44933L17.9748 7.76067ZM17.9973 7.95792C17.9378 7.91038 17.9267 7.82179 17.9756 7.7596L17.5827 7.4504C17.3648 7.72728 17.41 8.12847 17.685 8.34841L17.9973 7.95792ZM19.3087 9.00517L17.9972 7.95781L17.6851 8.34852L18.9967 9.39588L19.3087 9.00517ZM19.5001 8.98565C19.4518 9.04352 19.3676 9.05209 19.3086 9.00506L18.9969 9.39599C19.2686 9.61269 19.6616 9.57227 19.8839 9.30615L19.5001 8.98565ZM20.5769 7.69711L19.5002 8.98559L19.8839 9.3062L20.9605 8.01773L20.5769 7.69711ZM20.56 7.50147C20.6179 7.54964 20.6262 7.63816 20.577 7.69696L20.9604 8.01788C21.1855 7.74891 21.1525 7.34389 20.8797 7.11703L20.56 7.50147ZM20.3657 7.51761C20.4136 7.4597 20.5008 7.4517 20.5589 7.50057L20.8808 7.11794C20.6119 6.89177 20.2069 6.92522 19.9804 7.19885L20.3657 7.51761ZM19.8801 8.09872L20.3649 7.51853L19.9812 7.19793L19.4964 7.77812L19.8801 8.09872ZM18.1492 5.00891C18.8702 5.72997 19.3564 6.73328 19.4388 7.95525L19.9377 7.92159C19.8473 6.58168 19.3112 5.4639 18.5027 4.65536L18.1492 5.00891ZM15.161 3.7389C16.308 3.77645 17.369 4.23031 18.1494 5.0091L18.5025 4.65518C17.6294 3.78381 16.4467 3.28073 15.1773 3.23917L15.161 3.7389ZM15.5976 2.77785L15.0038 3.30153L15.3345 3.67653L15.9283 3.15285L15.5976 2.77785ZM15.61 2.58127C15.6606 2.63938 15.6545 2.72747 15.5973 2.7781L15.9286 3.15261C16.1908 2.92067 16.2185 2.51899 15.9872 2.2531L15.61 2.58127ZM15.4164 2.56961C15.4738 2.51938 15.5606 2.5252 15.611 2.58236L15.9863 2.25201C15.7547 1.98894 15.353 1.96085 15.0873 2.19318L15.4164 2.56961ZM14.1561 3.67859L15.417 2.56907L15.0867 2.19371L13.8258 3.30324L14.1561 3.67859ZM14.1415 3.87318C14.0932 3.81538 14.0998 3.72833 14.1565 3.6783L13.8255 3.30353C13.5664 3.5323 13.5354 3.92748 13.7577 4.19368L14.1415 3.87318ZM15.2165 5.16379L14.1417 3.87343L13.7575 4.19344L14.8324 5.4838L15.2165 5.16379ZM15.4114 5.18055C15.3506 5.23115 15.2645 5.2218 15.2171 5.16441L14.8318 5.48317C15.0587 5.75732 15.4612 5.78942 15.7311 5.56499L15.4114 5.18055ZM15.4275 4.98398C15.4784 5.04554 15.4688 5.13281 15.4114 5.18055L15.7311 5.56499C16.0044 5.33771 16.0361 4.9352 15.8127 4.66522L15.4275 4.98398ZM14.9657 4.42877L15.4279 4.98448L15.8123 4.66473L15.3501 4.10902L14.9657 4.42877ZM17.954 5.20916C17.2235 4.47887 16.2327 4.05701 15.1668 4.01906L15.149 4.51874C16.0937 4.55237 16.963 4.92544 17.6005 5.56276L17.954 5.20916ZM12.25 4.99997C12.25 3.75733 11.2426 2.74997 10 2.74997V3.24997C10.9665 3.24997 11.75 4.03348 11.75 4.99997H12.25ZM12.25 9.99997V4.99997H11.75V9.99997H12.25ZM11 10.25H12V9.74997H11V10.25ZM10.75 4.99997V9.99997H11.25V4.99997H10.75ZM10 4.24997C10.4142 4.24997 10.75 4.58576 10.75 4.99997H11.25C11.25 4.30962 10.6904 3.74997 10 3.74997V4.24997ZM4 4.24997H10V3.74997H4V4.24997ZM3.25 4.99997C3.25 4.58576 3.58579 4.24997 4 4.24997V3.74997C3.30964 3.74997 2.75 4.30962 2.75 4.99997H3.25ZM3.25 19V4.99997H2.75V19H3.25ZM3.93758 20.8191C3.50949 20.3341 3.25 19.6977 3.25 19H2.75C2.75 19.8241 3.0571 20.5772 3.56274 21.15L3.93758 20.8191ZM1.75 19C1.75 20.1476 2.609 21.0942 3.71924 21.2326L3.78107 20.7364C2.91801 20.6289 2.25 19.8923 2.25 19H1.75ZM1.75 4.99997V19H2.25V4.99997H1.75ZM4 2.74997C2.75736 2.74997 1.75 3.75733 1.75 4.99997H2.25C2.25 4.03348 3.0335 3.24997 4 3.24997V2.74997ZM10 2.74997H4V3.24997H10V2.74997ZM5.25 5.49997C5.25 5.3619 5.36193 5.24997 5.5 5.24997V4.74997C5.08579 4.74997 4.75 5.08576 4.75 5.49997H5.25ZM5.5 5.74997C5.36193 5.74997 5.25 5.63804 5.25 5.49997H4.75C4.75 5.91419 5.08579 6.24997 5.5 6.24997V5.74997ZM8.5 5.74997H5.5V6.24997H8.5V5.74997ZM8.75 5.49997C8.75 5.63804 8.63807 5.74997 8.5 5.74997V6.24997C8.91421 6.24997 9.25 5.91419 9.25 5.49997H8.75ZM8.5 5.24997C8.63807 5.24997 8.75 5.3619 8.75 5.49997H9.25C9.25 5.08576 8.91421 4.74997 8.5 4.74997V5.24997ZM5.5 5.24997H8.5V4.74997H5.5V5.24997ZM20 21.25C21.2426 21.25 22.25 20.2426 22.25 19H21.75C21.75 19.9665 20.9665 20.75 20 20.75V21.25ZM6 21.25H20V20.75H6V21.25ZM3.75 19C3.75 20.2426 4.75736 21.25 6 21.25V20.75C5.0335 20.75 4.25 19.9665 4.25 19H3.75ZM3.75 13V19H4.25V13H3.75ZM6 10.75C4.75736 10.75 3.75 11.7573 3.75 13H4.25C4.25 12.0335 5.0335 11.25 6 11.25V10.75ZM20 10.75H6V11.25H20V10.75ZM22.25 13C22.25 11.7573 21.2426 10.75 20 10.75V11.25C20.9665 11.25 21.75 12.0335 21.75 13H22.25ZM22.25 19V13H21.75V19H22.25ZM20 20.25C20.6904 20.25 21.25 19.6903 21.25 19H20.75C20.75 19.4142 20.4142 19.75 20 19.75V20.25ZM6 20.25H20V19.75H6V20.25ZM4.75 19C4.75 19.6903 5.30964 20.25 6 20.25V19.75C5.58579 19.75 5.25 19.4142 5.25 19H4.75ZM4.75 13V19H5.25V13H4.75ZM6 11.75C5.30964 11.75 4.75 12.3096 4.75 13H5.25C5.25 12.5858 5.58579 12.25 6 12.25V11.75ZM20 11.75H6V12.25H20V11.75ZM21.25 13C21.25 12.3096 20.6904 11.75 20 11.75V12.25C20.4142 12.25 20.75 12.5858 20.75 13H21.25ZM21.25 19V13H20.75V19H21.25ZM19.5 14.25C19.6381 14.25 19.75 14.3619 19.75 14.5H20.25C20.25 14.0858 19.9142 13.75 19.5 13.75V14.25ZM19.25 14.5C19.25 14.3619 19.3619 14.25 19.5 14.25V13.75C19.0858 13.75 18.75 14.0858 18.75 14.5H19.25ZM19.25 17.5V14.5H18.75V17.5H19.25ZM19.5 17.75C19.3619 17.75 19.25 17.638 19.25 17.5H18.75C18.75 17.9142 19.0858 18.25 19.5 18.25V17.75ZM19.75 17.5C19.75 17.638 19.6381 17.75 19.5 17.75V18.25C19.9142 18.25 20.25 17.9142 20.25 17.5H19.75ZM19.75 14.5V17.5H20.25V14.5H19.75ZM7.25 16.5V15.5H6.75V16.5H7.25ZM6 16.75H7V16.25H6V16.75ZM5.75 15.5V16.5H6.25V15.5H5.75ZM7 15.25H6V15.75H7V15.25Z" fill="currentcolor"/>
</svg>
