<svg width="24" height="24" viewBox="0 0 24 24" fill="none" xmlns="http://www.w3.org/2000/svg">
<path d="M2 2H9V4H4V9H2V2Z" fill="currentcolor"/>
<path d="M15 2H22V9H20V4H15V2Z" fill="currentcolor"/>
<path d="M2 11H4.01V13H2V11Z" fill="currentcolor"/>
<path d="M6.5 11H8.51V13H6.5V11Z" fill="currentcolor"/>
<path d="M11 11H13.01V13H11V11Z" fill="currentcolor"/>
<path d="M15.5 13V11H17.51V13H15.5Z" fill="currentcolor"/>
<path d="M20 11H22.01V13H20V11Z" fill="currentcolor"/>
<path d="M4 15V20H9V22H2V15H4Z" fill="currentcolor"/>
<path d="M22 15V22H15V20H20V15H22Z" fill="currentcolor"/>
</svg>
