<svg width="24" height="24" viewBox="0 0 24 24" fill="none" xmlns="http://www.w3.org/2000/svg">
<path fill-rule="evenodd" clip-rule="evenodd" d="M14.7401 14.9472C13.5542 16.2106 11.8691 17 10 17C6.41086 17 3.5 14.0891 3.5 10.5C3.5 6.91086 6.41086 4 10 4C13.5891 4 16.5 6.91086 16.5 10.5C16.5 11.8585 16.083 13.1198 15.37 14.1629L20.3536 19.1464C20.5488 19.3417 20.5488 19.6583 20.3536 19.8536C20.1583 20.0488 19.8417 20.0488 19.6464 19.8536L14.7401 14.9472ZM15.5 10.5C15.5 7.46314 13.0369 5 10 5C6.96314 5 4.5 7.46314 4.5 10.5C4.5 13.5369 6.96314 16 10 16C13.0369 16 15.5 13.5369 15.5 10.5Z" fill="currentcolor" stroke="currentcolor"/>
</svg>
