<svg width="24" height="24" viewBox="0 0 24 24" fill="none" xmlns="http://www.w3.org/2000/svg">
<g clip-path="url(#clip0_1718_1603)">
<path fill-rule="evenodd" clip-rule="evenodd" d="M12 -0.0397301L18.2098 11H5.79015L12 -0.0397301ZM9.20985 9H14.7902L12 4.03973L9.20985 9Z" fill="currentcolor"/>
<path fill-rule="evenodd" clip-rule="evenodd" d="M1 18C1 15.2386 3.23858 13 6 13C8.76142 13 11 15.2386 11 18C11 20.7614 8.76142 23 6 23C3.23858 23 1 20.7614 1 18ZM6 15C4.34315 15 3 16.3431 3 18C3 19.6569 4.34315 21 6 21C7.65685 21 9 19.6569 9 18C9 16.3431 7.65685 15 6 15Z" fill="currentcolor"/>
<path fill-rule="evenodd" clip-rule="evenodd" d="M13 13H23V23H13V13ZM15 15V21H21V15H15Z" fill="currentcolor"/>
</g>
<defs>
<clipPath id="clip0_1718_1603">
<rect width="24" height="24" fill="white"/>
</clipPath>
</defs>
</svg>
