<svg width="24" height="24" viewBox="0 0 24 24" fill="none" xmlns="http://www.w3.org/2000/svg">
<path fill-rule="evenodd" clip-rule="evenodd" d="M9.60205 7.16655C9.40679 7.36182 9.09021 7.36182 8.89495 7.16655C8.69968 6.97129 8.69968 6.65471 8.89495 6.45945L11.7079 3.64645C11.9032 3.45116 12.2199 3.45119 12.4151 3.64651L15.2271 6.45951C15.4223 6.65481 15.4223 6.97139 15.227 7.16662C15.0317 7.36184 14.7151 7.36179 14.5199 7.16649L12.5446 5.19053L12.561 14.3126C12.5615 14.5887 12.338 14.813 12.0619 14.8135C11.7858 14.814 11.5615 14.5905 11.561 14.3144L11.5447 5.22393L9.60205 7.16655ZM15.563 9.6255C15.563 9.90164 15.7869 10.1255 16.063 10.1255H18.126C18.3673 10.1255 18.563 10.3211 18.563 10.5625V19.0015C18.563 19.2429 18.3673 19.4385 18.126 19.4385H5.937C5.69514 19.4385 5.5 19.2434 5.5 19.0015V10.5625C5.5 10.3206 5.69514 10.1255 5.937 10.1255H8.063C8.33914 10.1255 8.563 9.90164 8.563 9.6255C8.563 9.34936 8.33914 9.1255 8.063 9.1255H5.937C5.14286 9.1255 4.5 9.76836 4.5 10.5625V19.0015C4.5 19.7956 5.14286 20.4385 5.937 20.4385H18.126C18.9194 20.4385 19.563 19.7954 19.563 19.0015V10.5625C19.563 9.76862 18.9194 9.1255 18.126 9.1255H16.063C15.7869 9.1255 15.563 9.34936 15.563 9.6255Z" fill="currentcolor"/>
<path d="M8.89495 7.16655L9.2485 6.813L9.2485 6.813L8.89495 7.16655ZM9.60205 7.16655L9.2485 6.813H9.2485L9.60205 7.16655ZM8.89495 6.45945L9.2485 6.813V6.813L8.89495 6.45945ZM11.7079 3.64645L12.0615 4L12.0615 4L11.7079 3.64645ZM12.4151 3.64651L12.7687 3.29302L12.7687 3.29302L12.4151 3.64651ZM15.2271 6.45951L14.8735 6.813L14.8735 6.813L15.2271 6.45951ZM15.227 7.16662L14.8735 6.813L14.8735 6.813L15.227 7.16662ZM14.5199 7.16649L14.8735 6.813V6.813L14.5199 7.16649ZM12.5446 5.19053L12.8982 4.83704L12.0424 3.98094L12.0446 5.19142L12.5446 5.19053ZM12.561 14.3126L12.061 14.3135V14.3135L12.561 14.3126ZM12.0619 14.8135L12.0628 15.3135H12.0628L12.0619 14.8135ZM11.561 14.3144L11.061 14.3153V14.3153L11.561 14.3144ZM11.5447 5.22393L12.0447 5.22303L12.0425 4.01898L11.1911 4.87037L11.5447 5.22393ZM8.54139 7.52011C8.93192 7.91063 9.56508 7.91063 9.95561 7.52011L9.2485 6.813H9.2485L8.54139 7.52011ZM8.54139 6.10589C8.15087 6.49642 8.15087 7.12958 8.54139 7.52011L9.2485 6.813V6.813L8.54139 6.10589ZM11.3544 3.29289L8.54139 6.10589L9.2485 6.813L12.0615 4L11.3544 3.29289ZM12.7687 3.29302C12.3782 2.90238 11.745 2.90232 11.3544 3.29289L12.0615 4V4L12.7687 3.29302ZM15.5807 6.10602L12.7687 3.29302L12.0615 4L14.8735 6.813L15.5807 6.10602ZM15.5805 7.52023C15.9711 7.12978 15.9712 6.49661 15.5807 6.10602L14.8735 6.813V6.813L15.5805 7.52023ZM14.1663 7.51998C14.5567 7.91057 15.1899 7.91069 15.5805 7.52023L14.8735 6.813L14.8735 6.813L14.1663 7.51998ZM12.191 5.54402L14.1663 7.51998L14.8735 6.813L12.8982 4.83704L12.191 5.54402ZM13.061 14.3117L13.0446 5.18963L12.0446 5.19142L12.061 14.3135L13.061 14.3117ZM12.0628 15.3135C12.6151 15.3125 13.062 14.864 13.061 14.3117L12.061 14.3135L12.061 14.3135L12.0628 15.3135ZM11.061 14.3153C11.062 14.8676 11.5105 15.3145 12.0628 15.3135L12.061 14.3135L12.061 14.3135L11.061 14.3153ZM11.0447 5.22482L11.061 14.3153L12.061 14.3135L12.0447 5.22303L11.0447 5.22482ZM9.95561 7.52011L11.8982 5.57748L11.1911 4.87037L9.2485 6.813L9.95561 7.52011ZM16.063 9.6255H15.063C15.063 10.1778 15.5107 10.6255 16.063 10.6255V9.6255ZM18.126 9.6255H16.063V10.6255H18.126V9.6255ZM19.063 10.5625C19.063 10.0448 18.6433 9.6255 18.126 9.6255V10.6255C18.0913 10.6255 18.063 10.5973 18.063 10.5625H19.063ZM19.063 19.0015V10.5625H18.063V19.0015H19.063ZM18.126 19.9385C18.6433 19.9385 19.063 19.5192 19.063 19.0015H18.063C18.063 18.9667 18.0913 18.9385 18.126 18.9385V19.9385ZM5.937 19.9385H18.126V18.9385H5.937V19.9385ZM5 19.0015C5 19.5195 5.419 19.9385 5.937 19.9385V18.9385C5.97128 18.9385 6 18.9672 6 19.0015H5ZM5 10.5625V19.0015H6V10.5625H5ZM5.937 9.6255C5.419 9.6255 5 10.0445 5 10.5625H6C6 10.5968 5.97128 10.6255 5.937 10.6255V9.6255ZM8.063 9.6255H5.937V10.6255H8.063V9.6255ZM8.063 9.6255H8.063V10.6255C8.61528 10.6255 9.063 10.1778 9.063 9.6255H8.063ZM8.063 9.6255H8.063H9.063C9.063 9.07321 8.61528 8.6255 8.063 8.6255V9.6255ZM5.937 9.6255H8.063V8.6255H5.937V9.6255ZM5 10.5625C5 10.0445 5.419 9.6255 5.937 9.6255V8.6255C4.86672 8.6255 4 9.49222 4 10.5625H5ZM5 19.0015V10.5625H4V19.0015H5ZM5.937 19.9385C5.419 19.9385 5 19.5195 5 19.0015H4C4 20.0718 4.86672 20.9385 5.937 20.9385V19.9385ZM18.126 19.9385H5.937V20.9385H18.126V19.9385ZM19.063 19.0015C19.063 19.5191 18.6434 19.9385 18.126 19.9385V20.9385C19.1954 20.9385 20.063 20.0716 20.063 19.0015H19.063ZM19.063 10.5625V19.0015H20.063V10.5625H19.063ZM18.126 9.6255C18.6434 9.6255 19.063 10.0449 19.063 10.5625H20.063C20.063 9.49237 19.1954 8.6255 18.126 8.6255V9.6255ZM16.063 9.6255H18.126V8.6255H16.063V9.6255ZM16.063 9.6255V8.6255C15.5107 8.6255 15.063 9.07322 15.063 9.6255H16.063Z" fill="currentcolor"/>
</svg>
