<svg width="24" height="24" viewBox="0 0 24 24" fill="none" xmlns="http://www.w3.org/2000/svg">
<path fill-rule="evenodd" clip-rule="evenodd" d="M9.60205 7.16655C9.40679 7.36182 9.09021 7.36182 8.89495 7.16655C8.69968 6.97129 8.69968 6.65471 8.89495 6.45945L11.7079 3.64645C11.9032 3.45116 12.2199 3.45119 12.4151 3.64651L15.2271 6.45951C15.4223 6.65481 15.4223 6.97139 15.227 7.16662C15.0317 7.36184 14.7151 7.36179 14.5199 7.16649L12.5446 5.19053L12.561 14.3126C12.5615 14.5887 12.338 14.813 12.0619 14.8135C11.7858 14.814 11.5615 14.5905 11.561 14.3144L11.5447 5.22393L9.60205 7.16655ZM15.563 9.6255C15.563 9.90164 15.7869 10.1255 16.063 10.1255H18.126C18.3673 10.1255 18.563 10.3211 18.563 10.5625V19.0015C18.563 19.2429 18.3673 19.4385 18.126 19.4385H5.937C5.69514 19.4385 5.5 19.2434 5.5 19.0015V10.5625C5.5 10.3206 5.69514 10.1255 5.937 10.1255H8.063C8.33914 10.1255 8.563 9.90164 8.563 9.6255C8.563 9.34936 8.33914 9.1255 8.063 9.1255H5.937C5.14286 9.1255 4.5 9.76836 4.5 10.5625V19.0015C4.5 19.7956 5.14286 20.4385 5.937 20.4385H18.126C18.9194 20.4385 19.563 19.7954 19.563 19.0015V10.5625C19.563 9.76862 18.9194 9.1255 18.126 9.1255H16.063C15.7869 9.1255 15.563 9.34936 15.563 9.6255Z" fill="currentcolor"/>
</svg>
