<svg width="24" height="24" viewBox="0 0 24 24" fill="none" xmlns="http://www.w3.org/2000/svg">
<path fill-rule="evenodd" clip-rule="evenodd" d="M11.9714 3C15.141 4.95005 18.0045 5.87262 20.4621 5.65452C20.8913 14.0801 17.6854 19.056 12.0042 21.1326C6.51791 19.1889 3.27282 14.4272 3.51349 5.52673C6.39841 5.67326 9.22874 5.06796 11.9714 3ZM8.63732 12.8536C8.45791 12.7045 8.43693 12.4424 8.59034 12.2682C8.74405 12.0939 9.01407 12.0737 9.19347 12.2226L10.941 13.6798L14.7693 9.59462C14.9285 9.42492 15.1993 9.41252 15.3743 9.56688C15.549 9.72123 15.5617 9.98404 15.4027 10.1539L11.2946 14.5377L11.2943 14.5374C11.1393 14.7028 10.8761 14.7198 10.6999 14.5734L8.63732 12.8536ZM11.9747 4.04106C14.7804 5.76711 17.3152 6.58388 19.4905 6.39072C19.8703 13.8487 17.0327 18.2534 12.004 20.0914C7.14765 18.371 4.2749 14.1563 4.48805 6.27754C7.04183 6.40739 9.54711 5.87159 11.9747 4.04106Z" fill="currentcolor"/>
</svg>
