<svg width="24" height="24" viewBox="0 0 24 24" fill="none" xmlns="http://www.w3.org/2000/svg">
<path d="M17.4129 8.9386L10.5 16.4799L6.58712 12.2113L8.06143 10.8599L10.5 13.5201L15.9386 7.58715L17.4129 8.9386Z" fill="currentcolor"/>
<path fill-rule="evenodd" clip-rule="evenodd" d="M12 0.585815L14.4142 3.00003H22V12.801C22 16.3577 19.9054 19.5808 16.6552 21.0253L12 23.0943L7.34475 21.0253C4.0946 19.5808 2 16.3577 2 12.801V3.00003H9.58579L12 0.585815ZM12 3.41424L10.4142 5.00003H4V12.801C4 15.5674 5.62914 18.0742 8.15703 19.1977L12 20.9057L15.843 19.1977C18.3709 18.0742 20 15.5674 20 12.801V5.00003H13.5858L12 3.41424Z" fill="currentcolor"/>
</svg>
