<svg width="24" height="24" viewBox="0 0 24 24" fill="none" xmlns="http://www.w3.org/2000/svg">
<path fill-rule="evenodd" clip-rule="evenodd" d="M16.667 18.5927C13.8921 17.6096 12 14.9855 12 12C12 9.01417 13.8924 6.38936 16.6668 5.40735C17.111 5.25013 17.1111 4.62201 16.6669 4.46469C15.8053 4.15949 14.9103 4 14 4C9.58186 4 6 7.58186 6 12C6 16.4181 9.58186 20 14 20C14.9124 20 15.8079 19.8407 16.6675 19.5351C17.1111 19.3774 17.1108 18.7499 16.667 18.5927ZM15.0069 5.07495C12.5749 6.47565 11 9.08732 11 12C11 14.9128 12.5751 17.5241 15.0078 18.9252C14.6751 18.9748 14.3388 19 14 19C10.1341 19 7 15.8659 7 12C7 8.13414 10.1341 5 14 5C14.3382 5 14.6742 5.02526 15.0069 5.07495Z" fill="currentcolor"/>
<path fill-rule="evenodd" clip-rule="evenodd" d="M5.5 12C5.5 7.30572 9.30572 3.5 14 3.5C14.9694 3.5 15.9207 3.66993 16.8339 3.99339C17.7221 4.30803 17.722 5.56426 16.8337 5.87869C14.2565 6.79089 12.5 9.22858 12.5 12C12.5 14.771 14.2561 17.2081 16.834 18.1214C17.7215 18.4359 17.7222 19.6908 16.835 20.0062C15.9233 20.3303 14.9713 20.5 14 20.5C9.30572 20.5 5.5 16.6943 5.5 12ZM15.092 4.58211C14.9667 4.5632 14.841 4.54753 14.7149 4.53512C14.8372 4.54716 14.9592 4.56228 15.0807 4.58043L15.092 4.58211ZM16.3432 4.8823L15.2564 5.50822C13.4034 6.57548 12.0817 8.392 11.6512 10.4998C12.173 7.94528 14.0036 5.81959 16.5 4.936C16.4478 4.91753 16.3956 4.89963 16.3432 4.8823ZM13.5095 5.51823C10.1489 5.76897 7.5 8.57528 7.5 12C7.5 15.4249 10.1492 18.2313 13.5101 18.4818C11.6481 16.9068 10.5 14.5636 10.5 12C10.5 9.43654 11.648 7.09308 13.5095 5.51823ZM11.8725 14.3338C12.447 16.083 13.653 17.5679 15.2573 18.492L16.3437 19.1177C16.396 19.1004 16.448 19.0825 16.5 19.064C14.2806 18.2777 12.5875 16.5108 11.8725 14.3338ZM15.0815 19.4198L15.0912 19.4183C15.0879 19.4188 15.0847 19.4193 15.0815 19.4198Z" fill="currentcolor"/>
</svg>
