<svg width="24" height="24" viewBox="0 0 24 24" fill="none" xmlns="http://www.w3.org/2000/svg">
<path fill-rule="evenodd" clip-rule="evenodd" d="M8 12C8 14.9855 9.89206 17.6096 12.667 18.5927C13.1108 18.7499 13.1111 19.3774 12.6675 19.5351C11.8079 19.8407 10.9124 20 10 20C5.58186 20 2 16.4181 2 12C2 7.58186 5.58186 4 10 4C10.9103 4 11.8053 4.15949 12.6669 4.46469C13.1111 4.62201 13.111 5.25013 12.6668 5.40735C9.8924 6.38936 8 9.01417 8 12ZM7 12C7 9.08732 8.57494 6.47565 11.0069 5.07495C10.6742 5.02526 10.3382 5 10 5C6.13414 5 3 8.13414 3 12C3 15.8659 6.13414 19 10 19C10.3388 19 10.6751 18.9748 11.0078 18.9252C8.57511 17.5241 7 14.9128 7 12ZM16.5 12C16.5 14.9855 18.3921 17.6096 21.167 18.5927C21.6108 18.7499 21.6111 19.3774 21.1675 19.5351C20.3079 19.8407 19.4124 20 18.5 20C14.0819 20 10.5 16.4181 10.5 12C10.5 7.58186 14.0819 4 18.5 4C19.4103 4 20.3053 4.15949 21.1669 4.46469C21.6111 4.62201 21.611 5.25013 21.1668 5.40735C18.3924 6.38936 16.5 9.01417 16.5 12ZM15.5 12C15.5 9.08732 17.0749 6.47565 19.5069 5.07495C19.1742 5.02526 18.8382 5 18.5 5C14.6341 5 11.5 8.13414 11.5 12C11.5 15.8659 14.6341 19 18.5 19C18.8388 19 19.1751 18.9748 19.5078 18.9252C17.0751 17.5241 15.5 14.9128 15.5 12Z" fill="currentcolor"/>
</svg>
