<svg width="24" height="24" viewBox="0 0 24 24" fill="none" xmlns="http://www.w3.org/2000/svg">
<path fill-rule="evenodd" clip-rule="evenodd" d="M16.667 18.5927C13.8921 17.6096 12 14.9855 12 12C12 9.01417 13.8924 6.38936 16.6668 5.40735C17.111 5.25013 17.1111 4.62201 16.6669 4.46469C15.8053 4.15949 14.9103 4 14 4C9.58186 4 6 7.58186 6 12C6 16.4181 9.58186 20 14 20C14.9124 20 15.8079 19.8407 16.6675 19.5351C17.1111 19.3774 17.1108 18.7499 16.667 18.5927ZM15.0069 5.07495C12.5749 6.47565 11 9.08732 11 12C11 14.9128 12.5751 17.5241 15.0078 18.9252C14.6751 18.9748 14.3388 19 14 19C10.1341 19 7 15.8659 7 12C7 8.13414 10.1341 5 14 5C14.3382 5 14.6742 5.02526 15.0069 5.07495Z" fill="currentcolor"/>
</svg>
