<svg width="24" height="24" viewBox="0 0 24 24" fill="none" xmlns="http://www.w3.org/2000/svg">
<path fill-rule="evenodd" clip-rule="evenodd" d="M7 12C7 14.9855 8.89206 17.6096 11.667 18.5927C12.1108 18.7499 12.1111 19.3774 11.6675 19.5351C10.8079 19.8407 9.91241 20 9 20C4.58186 20 1 16.4181 1 12C1 7.58186 4.58186 4 9 4C9.91031 4 10.8053 4.15949 11.6669 4.46469C12.1111 4.62201 12.111 5.25013 11.6668 5.40735C8.8924 6.38936 7 9.01417 7 12ZM6 12C6 9.08732 7.57494 6.47565 10.0069 5.07495C9.67417 5.02526 9.33818 5 9 5C5.13414 5 2 8.13414 2 12C2 15.8659 5.13414 19 9 19C9.33884 19 9.67513 18.9748 10.0078 18.9252C7.57511 17.5241 6 14.9128 6 12ZM17.5 12C17.5 14.9855 19.3921 17.6096 22.167 18.5927C22.6108 18.7499 22.6111 19.3774 22.1675 19.5351C21.3079 19.8407 20.4124 20 19.5 20C15.0819 20 11.5 16.4181 11.5 12C11.5 7.58186 15.0819 4 19.5 4C20.4103 4 21.3053 4.15949 22.1669 4.46469C22.6111 4.62201 22.611 5.25013 22.1668 5.40735C19.3924 6.38936 17.5 9.01417 17.5 12ZM16.5 12C16.5 9.08732 18.0749 6.47565 20.5069 5.07495C20.1742 5.02526 19.8382 5 19.5 5C15.6341 5 12.5 8.13414 12.5 12C12.5 15.8659 15.6341 19 19.5 19C19.8388 19 20.1751 18.9748 20.5078 18.9252C18.0751 17.5241 16.5 14.9128 16.5 12Z" fill="currentcolor"/>
<path fill-rule="evenodd" clip-rule="evenodd" d="M0.5 12C0.5 7.30572 4.30572 3.5 9 3.5C9.96937 3.5 10.9207 3.66993 11.8339 3.99339C12.7221 4.30803 12.722 5.56426 11.8337 5.87869C9.25647 6.79089 7.5 9.22858 7.5 12C7.5 14.771 9.25607 17.2081 11.834 18.1214C12.7215 18.4359 12.7222 19.6908 11.835 20.0062C10.9233 20.3303 9.97125 20.5 9 20.5C4.30572 20.5 0.5 16.6943 0.5 12ZM10.092 4.58211C9.96669 4.5632 9.84098 4.54753 9.71489 4.53512C9.83724 4.54716 9.95921 4.56228 10.0807 4.58043L10.092 4.58211ZM11.3432 4.8823L10.2564 5.50822C8.40343 6.57548 7.08172 8.392 6.65123 10.4998C7.17298 7.94528 9.00363 5.81959 11.5 4.936C11.4478 4.91753 11.3956 4.89963 11.3432 4.8823ZM11 12C11 7.30572 14.8057 3.5 19.5 3.5C20.4694 3.5 21.4207 3.66993 22.3339 3.99339C23.2221 4.30803 23.222 5.56426 22.3337 5.87869C19.7565 6.79089 18 9.22858 18 12C18 14.771 19.7561 17.2081 22.334 18.1214C23.2215 18.4359 23.2222 19.6908 22.335 20.0062C21.4233 20.3303 20.4713 20.5 19.5 20.5C14.8057 20.5 11 16.6943 11 12ZM21.8432 4.8823L20.7564 5.50822C19.1885 6.41129 18.001 7.85081 17.4119 9.54934C18.1485 7.42559 19.8205 5.70742 22 4.936C21.9478 4.91753 21.8956 4.89963 21.8432 4.8823ZM20.592 4.58212C20.5714 4.57901 20.5508 4.57598 20.5301 4.57305C20.547 4.57545 20.5639 4.57791 20.5807 4.58043L20.592 4.58212ZM8.50954 5.51823C5.1489 5.76897 2.5 8.57528 2.5 12C2.5 15.4249 5.1492 18.2313 8.5101 18.4818C6.64811 16.9068 5.5 14.5636 5.5 12C5.5 9.43654 6.64795 7.09308 8.50954 5.51823ZM19.0095 5.51823C15.6489 5.76897 13 8.57528 13 12C13 15.4249 15.6492 18.2313 19.0101 18.4818C17.1481 16.9068 16 14.5636 16 12C16 9.43654 17.148 7.09308 19.0095 5.51823ZM6.87247 14.3338C7.447 16.083 8.653 17.5679 10.2573 18.492L11.3437 19.1177C11.396 19.1004 11.448 19.0825 11.5 19.064C9.28057 18.2777 7.58755 16.5108 6.87247 14.3338ZM10.0815 19.4198L10.0912 19.4183C10.0879 19.4188 10.0847 19.4193 10.0815 19.4198ZM17.508 14.7118C18.1248 16.2964 19.2699 17.6353 20.7573 18.492L21.8437 19.1177C21.896 19.1004 21.948 19.0825 22 19.064C19.9105 18.3237 18.2876 16.7143 17.508 14.7118ZM20.5815 19.4198L20.5911 19.4183C20.5879 19.4188 20.5847 19.4193 20.5815 19.4198Z" fill="currentcolor"/>
</svg>
