<svg width="24" height="24" viewBox="0 0 24 24" fill="none" xmlns="http://www.w3.org/2000/svg">
<path fill-rule="evenodd" clip-rule="evenodd" d="M20.3115 11.3737C20.1421 7.00173 16.739 3.35833 12.3036 3.02474C7.53386 2.66592 3.3797 6.27197 3.02545 11.0756C2.66913 15.8785 6.24542 20.0651 11.0146 20.4239C14.1417 20.6591 17.102 19.1823 18.8299 16.6155C18.9841 16.3865 18.9234 16.0758 18.6943 15.9216C18.6019 15.8594 18.4962 15.8321 18.3929 15.8368C17.2895 15.3987 16.1815 14.8396 15.1077 14.1954C15.8892 11.4818 14.4884 9.57004 11.6393 8.86391C9.76494 8.40046 8.70341 7.93458 7.65951 6.95298L6.84374 6.18588L6.81714 7.30535C6.65553 14.1066 10.5535 17.6222 14.9078 16.413C15.1739 16.3391 15.3297 16.0635 15.2558 15.7974C15.1819 15.5314 14.9063 15.3756 14.6402 15.4495C11.1849 16.409 8.05862 13.8284 7.82602 8.38045C8.77854 9.05148 9.84741 9.45097 11.399 9.83461C13.6284 10.3872 14.6636 11.6736 14.2191 13.6381C12.9876 12.8317 11.818 11.9226 10.7728 10.969C10.5688 10.7828 10.2526 10.7973 10.0664 11.0013C9.88031 11.2053 9.8948 11.5216 10.0988 11.7077C12.2568 13.6767 14.9209 15.4597 17.6043 16.5942C16.0424 18.5323 13.6281 19.6176 11.0896 19.4267C6.87251 19.1095 3.70709 15.4039 4.02273 11.1493C4.33646 6.89517 8.01187 3.70471 12.2286 4.02192C16.1132 4.31409 19.1048 7.48031 19.3071 11.3032L18.5285 10.4311C18.3445 10.2251 18.0285 10.2073 17.8225 10.3912C17.6165 10.5751 17.5986 10.8912 17.7825 11.0971L19.4915 13.0111C19.694 13.2379 20.0504 13.233 20.2465 13.0007L21.8625 11.0867C22.0407 10.8757 22.0141 10.5602 21.8031 10.3821C21.5921 10.2039 21.2766 10.2306 21.0985 10.4416L20.3115 11.3737Z" fill="currentcolor"/>
<path d="M12.3036 3.02474L12.2848 3.27404L12.2848 3.27404L12.3036 3.02474ZM20.3115 11.3737L20.0617 11.3834L20.0866 12.0275L20.5025 11.535L20.3115 11.3737ZM3.02545 11.0756L3.27477 11.0941L3.27477 11.0939L3.02545 11.0756ZM11.0146 20.4239L10.9958 20.6732H10.9958L11.0146 20.4239ZM18.8299 16.6155L18.6225 16.4759H18.6225L18.8299 16.6155ZM18.6943 15.9216L18.5547 16.1289H18.5547L18.6943 15.9216ZM18.3929 15.8368L18.3006 16.0691L18.3505 16.089L18.4042 16.0865L18.3929 15.8368ZM15.1077 14.1954L14.8675 14.1263L14.8143 14.311L14.9791 14.4098L15.1077 14.1954ZM11.6393 8.86391L11.6994 8.62126L11.6993 8.62122L11.6393 8.86391ZM7.65951 6.95298L7.83077 6.77085L7.65951 6.95298ZM6.84374 6.18588L7.015 6.00376L6.60711 5.62021L6.59381 6.17995L6.84374 6.18588ZM6.81714 7.30535L7.06707 7.31129L6.81714 7.30535ZM14.9078 16.413L14.9747 16.6539L14.9078 16.413ZM15.2558 15.7974L15.4966 15.7305V15.7305L15.2558 15.7974ZM14.6402 15.4495L14.7071 15.6903L14.6402 15.4495ZM7.82602 8.38045L7.97 8.17607L7.55457 7.88342L7.57625 8.39112L7.82602 8.38045ZM11.399 9.83461L11.4591 9.59196L11.459 9.59192L11.399 9.83461ZM14.2191 13.6381L14.0821 13.8472L14.3834 14.0445L14.4629 13.6932L14.2191 13.6381ZM10.7728 10.969L10.6043 11.1537L10.7728 10.969ZM10.0664 11.0013L10.2511 11.1698L10.0664 11.0013ZM10.0988 11.7077L9.93028 11.8924L10.0988 11.7077ZM17.6043 16.5942L17.7989 16.7511L18.0069 16.493L17.7016 16.3639L17.6043 16.5942ZM11.0896 19.4267L11.0708 19.676H11.0708L11.0896 19.4267ZM4.02273 11.1493L4.27204 11.1678L4.27205 11.1677L4.02273 11.1493ZM12.2286 4.02192L12.2098 4.27122L12.2098 4.27122L12.2286 4.02192ZM19.3071 11.3032L19.1206 11.4697L19.5944 12.0002L19.5568 11.29L19.3071 11.3032ZM18.5285 10.4311L18.342 10.5976H18.342L18.5285 10.4311ZM17.7825 11.0971L17.5961 11.2637H17.5961L17.7825 11.0971ZM19.4915 13.0111L19.678 12.8446L19.4915 13.0111ZM20.2465 13.0007L20.0555 12.8394V12.8394L20.2465 13.0007ZM21.8625 11.0867L22.0536 11.248L21.8625 11.0867ZM21.8031 10.3821L21.6418 10.5731V10.5731L21.8031 10.3821ZM21.0985 10.4416L21.2895 10.6029L21.0985 10.4416ZM12.2848 3.27404C16.5906 3.59788 19.8971 7.13542 20.0617 11.3834L20.5613 11.364C20.3871 6.86805 16.8875 3.11879 12.3223 2.77544L12.2848 3.27404ZM3.27477 11.0939C3.61899 6.42645 7.65467 2.92572 12.2848 3.27404L12.3224 2.77544C7.41305 2.40613 3.14042 6.11748 2.77613 11.0572L3.27477 11.0939ZM11.0333 20.1746C6.40351 19.8263 2.92852 15.7612 3.27477 11.0941L2.77614 11.0571C2.40973 15.9959 6.08734 20.304 10.9958 20.6732L11.0333 20.1746ZM18.6225 16.4759C16.9439 18.9695 14.0692 20.4029 11.0333 20.1746L10.9958 20.6732C14.2143 20.9152 17.2602 19.395 19.0373 16.7552L18.6225 16.4759ZM18.5547 16.1289C18.6692 16.206 18.6996 16.3614 18.6225 16.4759L19.0373 16.7552C19.2686 16.4115 19.1775 15.9455 18.8339 15.7142L18.5547 16.1289ZM18.4042 16.0865C18.4558 16.0842 18.5083 16.0977 18.5547 16.1289L18.8339 15.7142C18.6956 15.621 18.5366 15.58 18.3816 15.587L18.4042 16.0865ZM14.9791 14.4098C16.0629 15.06 17.1831 15.6255 18.3006 16.0691L18.4851 15.6044C17.3959 15.172 16.3 14.6191 15.2363 13.9811L14.9791 14.4098ZM11.5791 9.10657C12.965 9.45005 13.9641 10.0782 14.5275 10.9163C15.0869 11.7485 15.2421 12.8253 14.8675 14.1263L15.348 14.2646C15.7548 12.8519 15.6003 11.616 14.9424 10.6374C14.2885 9.66464 13.1626 8.9839 11.6994 8.62126L11.5791 9.10657ZM7.48826 7.1351C8.57636 8.15827 9.68478 8.63817 11.5793 9.10661L11.6993 8.62122C9.84509 8.16275 8.83047 7.71089 7.83077 6.77085L7.48826 7.1351ZM6.67248 6.36801L7.48826 7.1351L7.83077 6.77085L7.015 6.00376L6.67248 6.36801ZM7.06707 7.31129L7.09367 6.19182L6.59381 6.17995L6.56721 7.29942L7.06707 7.31129ZM14.8409 16.1721C12.7513 16.7524 10.7841 16.2007 9.35027 14.6909C7.90986 13.1743 6.98734 10.6667 7.06707 7.31129L6.56721 7.29942C6.48533 10.7452 7.43097 13.3961 8.98771 15.0353C10.551 16.6813 12.71 17.2828 14.9747 16.6539L14.8409 16.1721ZM15.0149 15.8643C15.0518 15.9974 14.9739 16.1352 14.8409 16.1721L14.9747 16.6539C15.3738 16.543 15.6075 16.1297 15.4966 15.7305L15.0149 15.8643ZM14.7071 15.6903C14.8401 15.6534 14.9779 15.7313 15.0149 15.8643L15.4966 15.7305C15.3858 15.3314 14.9724 15.0977 14.5733 15.2086L14.7071 15.6903ZM7.57625 8.39112C7.69435 11.1574 8.54864 13.2334 9.85048 14.4971C11.1593 15.7676 12.8973 16.1929 14.7071 15.6903L14.5733 15.2086C12.9278 15.6655 11.3751 15.2803 10.1987 14.1384C9.01546 12.9897 8.19029 11.0514 8.07579 8.36979L7.57625 8.39112ZM11.459 9.59192C9.91967 9.21131 8.88552 8.82104 7.97 8.17607L7.68204 8.58483C8.67156 9.28192 9.77514 9.69063 11.339 10.0773L11.459 9.59192ZM14.4629 13.6932C14.6977 12.6554 14.5467 11.763 14.0111 11.0559C13.4817 10.3571 12.6043 9.87579 11.4591 9.59196L11.3388 10.0773C12.4231 10.346 13.178 10.7842 13.6125 11.3578C14.0407 11.9231 14.1849 12.6563 13.9752 13.5829L14.4629 13.6932ZM10.6043 11.1537C11.6594 12.1163 12.8395 13.0336 14.0821 13.8472L14.356 13.4289C13.1356 12.6298 11.9766 11.7289 10.9413 10.7843L10.6043 11.1537ZM10.2511 11.1698C10.3442 11.0678 10.5023 11.0606 10.6043 11.1537L10.9413 10.7843C10.6353 10.5051 10.1609 10.5268 9.88176 10.8328L10.2511 11.1698ZM10.2673 11.523C10.1653 11.4299 10.1581 11.2718 10.2511 11.1698L9.88176 10.8328C9.60257 11.1388 9.6243 11.6132 9.93028 11.8924L10.2673 11.523ZM17.7016 16.3639C15.0476 15.2419 12.4071 13.4754 10.2673 11.523L9.93028 11.8924C12.1066 13.878 14.7942 15.6776 17.5069 16.8245L17.7016 16.3639ZM11.0708 19.676C13.6932 19.8732 16.1866 18.7518 17.7989 16.7511L17.4096 16.4373C15.8982 18.3128 13.5631 19.362 11.1083 19.1774L11.0708 19.676ZM3.77341 11.1308C3.44771 15.521 6.71426 19.3483 11.0708 19.676L11.1083 19.1774C7.03076 18.8707 3.96647 15.2867 4.27204 11.1678L3.77341 11.1308ZM12.2473 3.77263C7.8909 3.4449 4.09716 6.74085 3.7734 11.1309L4.27205 11.1677C4.57576 7.04949 8.13283 3.96451 12.2098 4.27122L12.2473 3.77263ZM19.5568 11.29C19.348 7.34478 16.2605 4.07446 12.2473 3.77263L12.2098 4.27122C15.9658 4.55371 18.8616 7.61584 19.0575 11.3164L19.5568 11.29ZM19.4936 11.1367L18.7149 10.2646L18.342 10.5976L19.1206 11.4697L19.4936 11.1367ZM18.7149 10.2646C18.4391 9.95564 17.9649 9.92881 17.656 10.2047L17.989 10.5777C18.092 10.4857 18.25 10.4946 18.342 10.5976L18.7149 10.2646ZM17.656 10.2047C17.347 10.4806 17.3202 10.9547 17.5961 11.2637L17.969 10.9306C17.8771 10.8276 17.886 10.6696 17.989 10.5777L17.656 10.2047ZM17.5961 11.2637L19.3051 13.1777L19.678 12.8446L17.969 10.9306L17.5961 11.2637ZM19.3051 13.1777C19.6088 13.5178 20.1433 13.5104 20.4376 13.162L20.0555 12.8394C19.9574 12.9556 19.7793 12.958 19.678 12.8446L19.3051 13.1777ZM20.4376 13.162L22.0536 11.248L21.6715 10.9254L20.0555 12.8394L20.4376 13.162ZM22.0536 11.248C22.3208 10.9315 22.2808 10.4583 21.9643 10.1911L21.6418 10.5731C21.7473 10.6622 21.7606 10.8199 21.6715 10.9254L22.0536 11.248ZM21.9643 10.1911C21.6478 9.92385 21.1747 9.9638 20.9074 10.2803L21.2895 10.6029C21.3785 10.4974 21.5363 10.484 21.6418 10.5731L21.9643 10.1911ZM20.9074 10.2803L20.1204 11.2124L20.5025 11.535L21.2895 10.6029L20.9074 10.2803Z" fill="currentcolor"/>
</svg>
