<svg width="24" height="24" viewBox="0 0 24 24" fill="none" xmlns="http://www.w3.org/2000/svg">
<path fill-rule="evenodd" clip-rule="evenodd" d="M20.3115 11.3737C20.1421 7.00173 16.739 3.35833 12.3036 3.02474C7.53386 2.66592 3.3797 6.27197 3.02545 11.0756C2.66913 15.8785 6.24542 20.0651 11.0146 20.4239C14.1417 20.6591 17.102 19.1823 18.8299 16.6155C18.9841 16.3865 18.9234 16.0758 18.6943 15.9216C18.6019 15.8594 18.4962 15.8321 18.3929 15.8368C17.2895 15.3987 16.1815 14.8396 15.1077 14.1954C15.8892 11.4818 14.4884 9.57004 11.6393 8.86391C9.76494 8.40046 8.70341 7.93458 7.65951 6.95298L6.84374 6.18588L6.81714 7.30535C6.65553 14.1066 10.5535 17.6222 14.9078 16.413C15.1739 16.3391 15.3297 16.0635 15.2558 15.7974C15.1819 15.5314 14.9063 15.3756 14.6402 15.4495C11.1849 16.409 8.05862 13.8284 7.82602 8.38045C8.77854 9.05148 9.84741 9.45097 11.399 9.83461C13.6284 10.3872 14.6636 11.6736 14.2191 13.6381C12.9876 12.8317 11.818 11.9226 10.7728 10.969C10.5688 10.7828 10.2526 10.7973 10.0664 11.0013C9.88031 11.2053 9.8948 11.5216 10.0988 11.7077C12.2568 13.6767 14.9209 15.4597 17.6043 16.5942C16.0424 18.5323 13.6281 19.6176 11.0896 19.4267C6.87251 19.1095 3.70709 15.4039 4.02273 11.1493C4.33646 6.89517 8.01187 3.70471 12.2286 4.02192C16.1132 4.31409 19.1048 7.48031 19.3071 11.3032L18.5285 10.4311C18.3445 10.2251 18.0285 10.2073 17.8225 10.3912C17.6165 10.5751 17.5986 10.8912 17.7825 11.0971L19.4915 13.0111C19.694 13.2379 20.0504 13.233 20.2465 13.0007L21.8625 11.0867C22.0407 10.8757 22.0141 10.5602 21.8031 10.3821C21.5921 10.2039 21.2766 10.2306 21.0985 10.4416L20.3115 11.3737Z" fill="currentcolor"/>
</svg>
