<svg width="24" height="24" viewBox="0 0 24 24" fill="none" xmlns="http://www.w3.org/2000/svg">
<path fill-rule="evenodd" clip-rule="evenodd" d="M15 3C16.1046 3 17 3.89543 17 5V19C17 20.1046 16.1046 21 15 21H9C7.89543 21 7 20.1046 7 19V5C7 3.89543 7.89543 3 9 3H15ZM15 4C15.5523 4 16 4.44772 16 5V19C16 19.5523 15.5523 20 15 20H9C8.44772 20 8 19.5523 8 19V5C8 4.44772 8.44772 4 9 4H15ZM10.5 6C10.2239 6 10 6.22386 10 6.5C10 6.77614 10.2239 7 10.5 7H13.5C13.7761 7 14 6.77614 14 6.5C14 6.22386 13.7761 6 13.5 6H10.5Z" fill="currentcolor"/>
<path d="M17.5 5C17.5 3.61929 16.3807 2.5 15 2.5V3.5C15.8284 3.5 16.5 4.17157 16.5 5H17.5ZM17.5 19V5H16.5V19H17.5ZM15 21.5C16.3807 21.5 17.5 20.3807 17.5 19H16.5C16.5 19.8284 15.8284 20.5 15 20.5V21.5ZM9 21.5H15V20.5H9V21.5ZM6.5 19C6.5 20.3807 7.61929 21.5 9 21.5V20.5C8.17157 20.5 7.5 19.8284 7.5 19H6.5ZM6.5 5V19H7.5V5H6.5ZM9 2.5C7.61929 2.5 6.5 3.61929 6.5 5H7.5C7.5 4.17157 8.17157 3.5 9 3.5V2.5ZM15 2.5H9V3.5H15V2.5ZM16.5 5C16.5 4.17157 15.8284 3.5 15 3.5V4.5C15.2761 4.5 15.5 4.72386 15.5 5H16.5ZM16.5 19V5H15.5V19H16.5ZM15 20.5C15.8284 20.5 16.5 19.8284 16.5 19H15.5C15.5 19.2761 15.2761 19.5 15 19.5V20.5ZM9 20.5H15V19.5H9V20.5ZM7.5 19C7.5 19.8284 8.17157 20.5 9 20.5V19.5C8.72386 19.5 8.5 19.2761 8.5 19H7.5ZM7.5 5V19H8.5V5H7.5ZM9 3.5C8.17157 3.5 7.5 4.17157 7.5 5H8.5C8.5 4.72386 8.72386 4.5 9 4.5V3.5ZM15 3.5H9V4.5H15V3.5ZM10.5 6.5V5.5C9.94772 5.5 9.5 5.94772 9.5 6.5H10.5ZM10.5 6.5H9.5C9.5 7.05228 9.94772 7.5 10.5 7.5V6.5ZM13.5 6.5H10.5V7.5H13.5V6.5ZM13.5 6.5V7.5C14.0523 7.5 14.5 7.05228 14.5 6.5H13.5ZM13.5 6.5H14.5C14.5 5.94772 14.0523 5.5 13.5 5.5V6.5ZM10.5 6.5H13.5V5.5H10.5V6.5Z" fill="currentcolor"/>
</svg>
