<svg width="24" height="24" viewBox="0 0 24 24" fill="none" xmlns="http://www.w3.org/2000/svg">
<path fill-rule="evenodd" clip-rule="evenodd" d="M15 3C16.1046 3 17 3.89543 17 5V19C17 20.1046 16.1046 21 15 21H9C7.89543 21 7 20.1046 7 19V5C7 3.89543 7.89543 3 9 3H15ZM15 4C15.5523 4 16 4.44772 16 5V19C16 19.5523 15.5523 20 15 20H9C8.44772 20 8 19.5523 8 19V5C8 4.44772 8.44772 4 9 4H15ZM10.5 5C10.2239 5 10 5.22386 10 5.5C10 5.77614 10.2239 6 10.5 6H13.5C13.7761 6 14 5.77614 14 5.5C14 5.22386 13.7761 5 13.5 5H10.5Z" fill="currentcolor"/>
</svg>
