<svg width="24" height="24" viewBox="0 0 24 24" fill="none" xmlns="http://www.w3.org/2000/svg">
<path fill-rule="evenodd" clip-rule="evenodd" d="M15.6861 2.5L15.6146 2.50216L15.54 2.51605L15.4987 2.52893L15.4394 2.55515L15.3599 2.60749L10.2821 7.68158L10.2209 7.75737L10.1807 7.83496C10.1037 8.01985 10.142 8.22741 10.2821 8.36748L10.3581 8.42963L10.4425 8.47402C10.6176 8.54504 10.8259 8.50953 10.9679 8.36748L15.18 4.15553V13.0645L15.1879 13.1496L15.2127 13.2347C15.2857 13.4245 15.4625 13.5495 15.665 13.5495L15.7522 13.5417L15.8342 13.5192C16.0186 13.4505 16.15 13.2729 16.15 13.0645V4.15653L20.3621 8.36749L20.4378 8.42866L20.5154 8.46879C20.7003 8.54587 20.9079 8.50755 21.0479 8.36748C21.2374 8.17807 21.2374 7.87099 21.0479 7.68158L16.0079 2.64158L15.9439 2.58862L15.9007 2.56071L15.8433 2.53362L15.8195 2.52474L15.7347 2.50452L15.6861 2.5ZM8.50219 10.8174C8.46112 10.5911 8.2631 10.4195 8.025 10.4195L7.93782 10.4273L7.85577 10.4499C7.67136 10.5185 7.54 10.6962 7.54 10.9045V19.8125L3.32794 15.6016L3.25186 15.5394C3.06361 15.4151 2.80778 15.4359 2.64205 15.6016C2.45265 15.791 2.45265 16.0981 2.64205 16.2875L7.7199 21.3616L7.7783 21.4022L7.83205 21.4296L7.914 21.4566L7.95551 21.4646L8.0367 21.4692L8.11736 21.4606L8.19561 21.4386L8.24682 21.4157L8.29302 21.3874L8.288 21.3785L8.29541 21.387L8.3632 21.332L13.4079 16.2875L13.4701 16.2114C13.5944 16.0231 13.5737 15.7673 13.4079 15.6016L13.3319 15.5394L13.2475 15.495C13.0724 15.424 12.8641 15.4595 12.7221 15.6016L8.51 19.8115V10.9045L8.50219 10.8174Z" fill="currentcolor"/>
</svg>
