<svg width="24" height="24" viewBox="0 0 24 24" fill="none" xmlns="http://www.w3.org/2000/svg">
<path fill-rule="evenodd" clip-rule="evenodd" d="M18.2457 16.8576C16.7997 17.9536 14.8857 18.3056 13.1057 18.2776C13.3627 18.0206 14.2987 17.9616 14.6447 17.8176C15.3877 17.5096 16.0697 17.0626 16.6477 16.5036C18.0647 15.1346 18.7777 13.2496 18.7967 11.2976C19.1407 11.3276 20.5587 11.4006 20.7947 11.6996C21.0307 11.9996 20.6707 12.9656 20.5347 13.3856C20.1017 14.7196 19.3797 15.9976 18.2457 16.8576M12.6367 17.2976C12.1047 17.8326 12.1367 18.2486 11.5367 17.6076C10.6517 16.6636 9.88972 15.5846 9.41572 14.3746C8.21572 11.3106 9.82672 8.32261 11.9667 6.12761C13.3647 7.52561 14.6557 9.30161 14.9037 11.3186C15.1767 13.5386 14.0137 15.6466 12.6367 17.2976M5.67672 16.8576C4.54672 16.0006 3.81472 14.7186 3.38772 13.3856C3.30072 13.1116 2.84172 11.9586 3.00672 11.7376C3.23072 11.4356 4.59772 11.3476 4.92672 11.3076C4.94472 13.2386 5.64272 15.1106 7.05772 16.4556C7.60872 16.9796 8.25172 17.3996 8.94672 17.7056C9.18672 17.8116 10.6747 18.0746 10.7757 18.2776C9.00772 18.3046 7.10872 17.9566 5.67672 16.8576M5.94572 10.7576C6.01072 9.60961 6.28372 8.47661 6.67672 7.39761C7.06472 7.52961 8.85772 8.08061 8.96672 8.48761C9.02472 8.70861 8.39372 9.75661 8.30572 10.0496C8.18572 10.4406 8.09472 10.8386 8.03772 11.2436C7.75172 13.2876 8.49072 15.2556 9.66572 16.9076C7.09672 15.9636 5.78072 13.4056 5.94572 10.7576M17.0467 7.39761C18.3377 10.7786 18.0607 15.4116 14.1857 16.9276C15.2717 15.3846 16.0437 13.5336 15.9357 11.6176C15.8897 10.7736 15.6647 9.94161 15.3327 9.16661C15.2977 9.08461 15.0007 8.61261 15.0147 8.50461C15.0467 8.24761 15.2407 8.20461 15.5677 8.03561C16.0457 7.79161 16.5397 7.57361 17.0467 7.39761M21.6457 10.9276C20.8437 10.6866 20.0757 10.4366 19.2367 10.3296C18.7007 10.2606 18.9107 10.3696 18.7047 9.90761C18.5997 9.67161 18.6107 9.29561 18.5577 9.03561C18.4437 8.48261 18.2957 7.93661 18.1107 7.40261C17.8647 6.68861 17.7647 6.19261 16.9137 6.38661C16.5037 6.48061 16.0917 6.68861 15.7087 6.85961C15.4757 6.96361 15.2477 7.07361 15.0207 7.19061C14.8197 7.29461 14.6217 7.40361 14.4267 7.51761L14.2187 7.21261C13.5047 6.66761 13.1647 5.49761 12.3047 5.08061C11.6167 4.74761 11.1367 5.52261 10.7087 6.00261C10.3717 6.37961 10.0777 7.00061 9.68572 7.30261C9.61572 7.40761 9.54672 7.51261 9.47572 7.61761C9.26972 7.49361 9.06072 7.37561 8.84972 7.26261C8.60872 7.13561 8.36572 7.01761 8.11872 6.90461C7.53172 6.63661 6.46372 5.97061 5.93572 6.56761C5.47272 7.09261 5.29772 8.39861 5.16472 9.04961C5.11172 9.31061 5.12372 9.68961 5.01772 9.92561C4.80772 10.3936 4.99372 10.2816 4.44372 10.3646C3.88172 10.4496 3.32472 10.5796 2.78272 10.7526C1.94772 11.0186 1.93072 11.3946 2.05872 12.1706C2.22472 13.1596 2.52372 14.1366 2.96972 15.0376C4.01472 17.1526 5.85572 18.5186 8.14972 19.0216C9.78572 19.3796 11.5057 19.2536 13.1687 19.2756C15.7047 19.3096 18.3487 18.5776 19.9997 16.5416C20.7317 15.6396 21.2377 14.5666 21.5657 13.4576C21.6957 13.0206 22.3517 11.2246 21.6457 10.9276" fill="currentcolor"/>
<path d="M13.1057 18.2776L12.7522 17.9241L11.9172 18.759L13.0979 18.7775L13.1057 18.2776ZM14.6447 17.8176L14.4533 17.3557L14.4526 17.356L14.6447 17.8176ZM16.6477 16.5036L16.3003 16.144L16.3001 16.1442L16.6477 16.5036ZM18.7967 11.2976L18.8402 10.7995L18.302 10.7526L18.2967 11.2927L18.7967 11.2976ZM20.7947 11.6996L21.1877 11.3905L21.1872 11.3898L20.7947 11.6996ZM20.5347 13.3856L21.0103 13.54L21.0104 13.5396L20.5347 13.3856ZM11.5367 17.6076L11.9018 17.2659L11.9015 17.2656L11.5367 17.6076ZM9.41572 14.3746L8.95015 14.5569L8.95017 14.557L9.41572 14.3746ZM11.9667 6.12761L12.3203 5.77405L11.9622 5.41599L11.6087 5.77857L11.9667 6.12761ZM14.9037 11.3186L14.4075 11.3796L14.4075 11.3796L14.9037 11.3186ZM3.38772 13.3856L2.91117 13.5369L2.91156 13.5381L3.38772 13.3856ZM3.00672 11.7376L3.40738 12.0367L3.40831 12.0355L3.00672 11.7376ZM4.92672 11.3076L5.4267 11.3029L5.42149 10.7438L4.86638 10.8113L4.92672 11.3076ZM7.05772 16.4556L7.40229 16.0933L7.4022 16.0932L7.05772 16.4556ZM8.94672 17.7056L9.14873 17.2482L9.1482 17.248L8.94672 17.7056ZM10.7757 18.2776L10.7834 18.7775L11.5769 18.7654L11.2234 18.0549L10.7757 18.2776ZM6.67672 7.39761L6.83776 6.92425L6.37441 6.76662L6.20691 7.22649L6.67672 7.39761ZM8.96672 8.48761L9.45035 8.36068L9.4497 8.35826L8.96672 8.48761ZM8.30572 10.0496L8.78373 10.1963L8.78459 10.1934L8.30572 10.0496ZM8.03772 11.2436L7.5426 11.1739L7.54255 11.1743L8.03772 11.2436ZM9.66572 16.9076L9.49327 17.3769L11.0093 17.934L10.0732 16.6178L9.66572 16.9076ZM14.1857 16.9276L13.7768 16.6398L12.8205 17.9986L14.3679 17.3932L14.1857 16.9276ZM15.9357 11.6176L15.4365 11.6448L15.4365 11.6457L15.9357 11.6176ZM15.3327 9.16661L14.8729 9.36289L14.8731 9.3635L15.3327 9.16661ZM15.0147 8.50461L15.5106 8.56888L15.5109 8.56639L15.0147 8.50461ZM15.5677 8.03561L15.3404 7.59027L15.3382 7.59142L15.5677 8.03561ZM19.2367 10.3296L19.1729 10.8255L19.1735 10.8256L19.2367 10.3296ZM18.7047 9.90761L18.2479 10.1109L18.2481 10.1112L18.7047 9.90761ZM18.5577 9.03561L19.0476 8.93574L19.0474 8.93466L18.5577 9.03561ZM18.1107 7.40261L17.638 7.56548L17.6383 7.56628L18.1107 7.40261ZM16.9137 6.38661L16.8026 5.89911L16.802 5.89925L16.9137 6.38661ZM15.7087 6.85961L15.9125 7.31619L15.9126 7.31617L15.7087 6.85961ZM15.0207 7.19061L14.7916 6.74617L14.791 6.74653L15.0207 7.19061ZM14.4267 7.51761L14.0136 7.79932L14.2764 8.18465L14.6791 7.94926L14.4267 7.51761ZM14.2187 7.21261L14.6318 6.9309L14.5863 6.86417L14.5221 6.81516L14.2187 7.21261ZM12.3047 5.08061L12.5229 4.63071L12.5226 4.63055L12.3047 5.08061ZM10.7087 6.00261L11.0815 6.33583L11.0819 6.33537L10.7087 6.00261ZM9.68572 7.30261L9.38057 6.90652L9.31536 6.95676L9.2697 7.02526L9.68572 7.30261ZM9.47572 7.61761L9.21786 8.04599L9.62423 8.2906L9.88992 7.89768L9.47572 7.61761ZM8.84972 7.26261L9.08578 6.82183L9.08282 6.82027L8.84972 7.26261ZM8.11872 6.90461L8.32673 6.44993L8.32638 6.44977L8.11872 6.90461ZM5.93572 6.56761L5.56119 6.23636L5.56072 6.23689L5.93572 6.56761ZM5.16472 9.04961L4.67484 8.94952L4.67472 8.9501L5.16472 9.04961ZM5.01772 9.92561L4.56162 9.72075L4.56154 9.72091L5.01772 9.92561ZM4.44372 10.3646L4.36911 9.8702L4.36895 9.87023L4.44372 10.3646ZM2.78272 10.7526L2.93449 11.229L2.93476 11.2289L2.78272 10.7526ZM2.05872 12.1706L1.56539 12.252L1.56562 12.2534L2.05872 12.1706ZM2.96972 15.0376L3.41799 14.8161L3.41783 14.8158L2.96972 15.0376ZM8.14972 19.0216L8.04263 19.51L8.04284 19.51L8.14972 19.0216ZM13.1687 19.2756L13.1754 18.7757L13.1753 18.7757L13.1687 19.2756ZM19.9997 16.5416L19.6115 16.2265L19.6114 16.2267L19.9997 16.5416ZM21.5657 13.4576L21.0865 13.315L21.0863 13.3158L21.5657 13.4576ZM17.9437 16.4591C16.6222 17.4608 14.8364 17.8048 13.1136 17.7777L13.0979 18.7775C14.935 18.8064 16.9772 18.4465 18.5477 17.2561L17.9437 16.4591ZM13.4593 18.6312C13.4385 18.652 13.4526 18.6298 13.5668 18.591C13.6665 18.5571 13.7943 18.5261 13.9445 18.4946C14.0182 18.4791 14.0931 18.4644 14.17 18.4493C14.2456 18.4344 14.3238 18.419 14.3982 18.4032C14.5376 18.3736 14.7026 18.3351 14.8368 18.2792L14.4526 17.356C14.4138 17.3721 14.3321 17.395 14.1906 17.425C14.1247 17.439 14.0538 17.4529 13.9769 17.4681C13.9013 17.483 13.8202 17.4989 13.7392 17.5159C13.58 17.5493 13.404 17.5902 13.2451 17.6441C13.1007 17.6932 12.9015 17.7747 12.7522 17.9241L13.4593 18.6312ZM14.8362 18.2795C15.637 17.9475 16.372 17.4658 16.9953 16.863L16.3001 16.1442C15.7674 16.6594 15.1385 17.0717 14.4533 17.3557L14.8362 18.2795ZM16.9951 16.8632C18.5198 15.3901 19.2766 13.3716 19.2967 11.3025L18.2967 11.2927C18.2789 13.1276 17.6096 14.8791 16.3003 16.144L16.9951 16.8632ZM18.7533 11.7957C18.9452 11.8125 19.3572 11.8359 19.7674 11.893C19.9715 11.9213 20.1548 11.9556 20.2931 11.9954C20.3623 12.0153 20.4077 12.0331 20.4336 12.0459C20.4663 12.0621 20.4389 12.0558 20.4022 12.0094L21.1872 11.3898C21.0915 11.2686 20.9682 11.1947 20.8768 11.1495C20.7787 11.101 20.6719 11.0638 20.5696 11.0344C20.3649 10.9755 20.128 10.9335 19.9051 10.9025C19.4612 10.8408 18.9923 10.8128 18.8402 10.7995L18.7533 11.7957ZM20.4017 12.0087C20.3505 11.9436 20.375 11.9126 20.3729 12.0209C20.3712 12.1096 20.3527 12.2328 20.3174 12.3838C20.2462 12.6883 20.1338 13.0007 20.059 13.2316L21.0104 13.5396C21.0717 13.3505 21.2073 12.9699 21.2911 12.6114C21.3333 12.431 21.369 12.2301 21.3727 12.0402C21.376 11.8698 21.357 11.6056 21.1877 11.3905L20.4017 12.0087ZM20.0591 13.2312C19.6453 14.5062 18.9692 15.6814 17.9436 16.4592L18.5479 17.256C19.7902 16.3138 20.5581 14.933 21.0103 13.54L20.0591 13.2312ZM12.2822 16.945C12.1253 17.1029 12.0107 17.2515 11.9303 17.3546C11.8877 17.4093 11.8609 17.4432 11.8383 17.4688C11.8152 17.495 11.8144 17.4915 11.8311 17.4801C11.8535 17.4649 11.9036 17.4382 11.9745 17.4334C12.0436 17.4287 12.0901 17.4478 12.1022 17.4535C12.1107 17.4576 12.0975 17.4527 12.0582 17.4192C12.0203 17.3871 11.9695 17.3383 11.9018 17.2659L11.1717 17.9493C11.3243 18.1123 11.4898 18.2694 11.6716 18.3561C11.7734 18.4047 11.8992 18.4408 12.0418 18.4311C12.1863 18.4214 12.3042 18.3677 12.3933 18.3071C12.5399 18.2074 12.6568 18.0493 12.7192 17.9692C12.8013 17.8639 12.8822 17.7599 12.9913 17.6502L12.2822 16.945ZM11.9015 17.2656C11.047 16.3542 10.3261 15.3278 9.88128 14.1922L8.95017 14.557C9.45335 15.8415 10.2565 16.9731 11.172 17.9496L11.9015 17.2656ZM9.88129 14.1923C8.79222 11.4115 10.226 8.62932 12.3247 6.47665L11.6087 5.77857C9.42744 8.0159 7.63923 11.2097 8.95015 14.5569L9.88129 14.1923ZM11.6132 6.48116C12.984 7.85196 14.1799 9.5288 14.4075 11.3796L15.4 11.2576C15.1316 9.07441 13.7455 7.19926 12.3203 5.77405L11.6132 6.48116ZM14.4075 11.3796C14.6548 13.3909 13.6016 15.3601 12.2527 16.9774L13.0207 17.6179C14.4259 15.9331 15.6987 13.6863 15.4 11.2576L14.4075 11.3796ZM5.97886 16.4592C4.95635 15.6837 4.27101 14.504 3.86389 13.2331L2.91156 13.5381C3.35844 14.9332 4.1371 16.3175 5.37458 17.256L5.97886 16.4592ZM3.86428 13.2343C3.83951 13.1563 3.78851 13.016 3.74006 12.878C3.68817 12.7302 3.63081 12.562 3.58165 12.3981C3.53142 12.2306 3.49494 12.0844 3.47904 11.9768C3.47099 11.9222 3.47099 11.8953 3.47132 11.8894C3.47243 11.8702 3.47453 11.9468 3.40737 12.0367L2.60607 11.4385C2.49766 11.5837 2.47801 11.7447 2.47298 11.8318C2.46718 11.9324 2.47664 12.0339 2.48978 12.1229C2.51626 12.3021 2.56902 12.5027 2.6238 12.6854C2.67964 12.8716 2.74303 13.0569 2.79651 13.2092C2.85343 13.3713 2.89244 13.4779 2.91117 13.5369L3.86428 13.2343ZM3.40831 12.0355C3.37268 12.0835 3.34435 12.0916 3.37345 12.0762C3.39642 12.0641 3.43825 12.0464 3.50368 12.026C3.63452 11.9852 3.80918 11.9492 4.00518 11.9183C4.40973 11.8545 4.78324 11.8287 4.98707 11.804L4.86638 10.8113C4.7412 10.8265 4.26672 10.8647 3.84951 10.9305C3.63464 10.9643 3.40499 11.0093 3.20623 11.0713C3.10687 11.1022 3.00258 11.1412 2.90663 11.1919C2.81682 11.2393 2.69676 11.3162 2.60513 11.4397L3.40831 12.0355ZM4.42674 11.3123C4.44582 13.3585 5.18642 15.3667 6.71325 16.818L7.4022 16.0932C6.09902 14.8545 5.44363 13.1187 5.4267 11.3029L4.42674 11.3123ZM6.71316 16.8179C7.30815 17.3838 8.0002 17.8352 8.74524 18.1632L9.1482 17.248C8.50325 16.964 7.9093 16.5755 7.40229 16.0933L6.71316 16.8179ZM8.74472 18.163C8.8552 18.2118 9.04639 18.2591 9.20083 18.2969C9.38515 18.3419 9.58448 18.388 9.79129 18.4401C9.9964 18.4917 10.1813 18.5425 10.3166 18.5897C10.3855 18.6137 10.4259 18.6314 10.4446 18.6413C10.4538 18.6462 10.4462 18.6431 10.4303 18.6305C10.4191 18.6216 10.3679 18.5804 10.3281 18.5003L11.2234 18.0549C11.1709 17.9494 11.0962 17.8824 11.0521 17.8473C11.0031 17.8084 10.9529 17.7788 10.9114 17.7569C10.8284 17.7131 10.7341 17.6762 10.6456 17.6453C10.466 17.5827 10.2449 17.5231 10.0354 17.4704C9.82759 17.418 9.60361 17.3659 9.43827 17.3255C9.35203 17.3044 9.27997 17.2861 9.22387 17.2705C9.15953 17.2527 9.14187 17.2452 9.14873 17.2482L8.74472 18.163ZM10.7681 17.7777C9.05658 17.8038 7.28753 17.4636 5.98114 16.461L5.37231 17.2543C6.92991 18.4497 8.95886 18.8054 10.7834 18.7775L10.7681 17.7777ZM6.44492 10.7859C6.50655 9.6974 6.76613 8.61313 7.14653 7.56872L6.20691 7.22649C5.80131 8.34009 5.51489 9.52181 5.44652 10.7293L6.44492 10.7859ZM6.51568 7.87096C6.72555 7.94236 7.24628 8.10503 7.73989 8.30341C7.98698 8.40272 8.20691 8.50315 8.36484 8.59563C8.44441 8.64222 8.49304 8.67807 8.51819 8.70073C8.55301 8.73212 8.50744 8.70543 8.48374 8.61696L9.4497 8.35826C9.39876 8.16803 9.27331 8.03509 9.1877 7.95793C9.09241 7.87205 8.98005 7.79704 8.87014 7.73268C8.6491 7.60325 8.37609 7.48137 8.11281 7.37555C7.58567 7.16369 7.01589 6.98485 6.83776 6.92425L6.51568 7.87096ZM8.4831 8.61453C8.45724 8.51598 8.48085 8.45354 8.47192 8.49144C8.46773 8.50922 8.45683 8.54482 8.43464 8.60157C8.39071 8.71387 8.32282 8.85827 8.24287 9.01979C8.20359 9.09914 8.16302 9.1794 8.12263 9.25926C8.08266 9.33832 8.04257 9.41757 8.00604 9.49149C7.94013 9.62485 7.86324 9.78464 7.82685 9.90578L8.78459 10.1934C8.78445 10.1939 8.78496 10.1922 8.78649 10.1879C8.78799 10.1837 8.79014 10.1779 8.79312 10.1704C8.79915 10.1552 8.80738 10.1357 8.81816 10.1116C8.83989 10.0631 8.86828 10.0039 8.90253 9.93454C8.93663 9.86555 8.97451 9.79066 9.01503 9.71052C9.05515 9.63119 9.09761 9.5472 9.13908 9.46343C9.22062 9.29869 9.30511 9.12134 9.36593 8.96583C9.39611 8.88867 9.42569 8.80385 9.44525 8.72087C9.46006 8.65802 9.49071 8.51449 9.45035 8.36068L8.4831 8.61453ZM7.82773 9.90291C7.7006 10.3171 7.60355 10.7409 7.5426 11.1739L8.53284 11.3133C8.5859 10.9363 8.67085 10.5641 8.78372 10.1963L7.82773 9.90291ZM7.54255 11.1743C7.23324 13.3849 8.03659 15.4798 9.25827 17.1974L10.0732 16.6178C8.94486 15.0314 8.27021 13.1903 8.5329 11.3129L7.54255 11.1743ZM9.83818 16.4383C7.51721 15.5854 6.29062 13.2624 6.44476 10.7887L5.44669 10.7265C5.27083 13.5489 6.67623 16.3418 9.49327 17.3769L9.83818 16.4383ZM16.5796 7.57597C17.1975 9.1942 17.4324 11.0972 17.0653 12.7538C16.702 14.3934 15.7577 15.7757 14.0036 16.462L14.3679 17.3932C16.4887 16.5635 17.6204 14.8713 18.0416 12.9701C18.4591 11.0861 18.1869 8.98202 17.5138 7.21925L16.5796 7.57597ZM14.5946 17.2154C15.7189 15.6179 16.5515 13.6566 16.4349 11.5895L15.4365 11.6457C15.536 13.4106 14.8245 15.1513 13.7768 16.6398L14.5946 17.2154ZM16.435 11.5904C16.3852 10.6767 16.1425 9.78712 15.7923 8.96972L14.8731 9.3635C15.187 10.0961 15.3943 10.8705 15.4365 11.6448L16.435 11.5904ZM15.7926 8.97032C15.7774 8.93486 15.7577 8.89859 15.7473 8.87949C15.7337 8.85464 15.7175 8.82588 15.7014 8.79736C15.6677 8.73793 15.6306 8.6728 15.5949 8.60699C15.5584 8.53971 15.5297 8.48313 15.5121 8.44257C15.503 8.4218 15.5014 8.41549 15.5028 8.42024C15.5036 8.42293 15.5071 8.43523 15.51 8.4546C15.5125 8.47113 15.5178 8.51312 15.5106 8.56888L14.5189 8.44033C14.503 8.5624 14.5327 8.66586 14.5431 8.70115C14.5582 8.75271 14.5777 8.80163 14.5951 8.84158C14.6303 8.92245 14.6754 9.00926 14.7158 9.08372C14.757 9.15966 14.7998 9.23466 14.8312 9.29016C14.8726 9.36321 14.8782 9.37538 14.8729 9.36289L15.7926 8.97032ZM15.5109 8.56639C15.5111 8.56479 15.5077 8.58858 15.488 8.61895C15.4697 8.64717 15.4529 8.65663 15.4633 8.64953C15.4779 8.63952 15.5056 8.62366 15.5686 8.5927C15.622 8.56642 15.7101 8.52483 15.7973 8.47979L15.3382 7.59142C15.2618 7.63088 15.2031 7.65805 15.1272 7.69539C15.0608 7.72805 14.9767 7.7707 14.8979 7.82468C14.8149 7.88159 14.7232 7.96055 14.6493 8.07439C14.574 8.19038 14.5344 8.31593 14.5186 8.44283L15.5109 8.56639ZM15.795 8.48094C16.2565 8.24539 16.7292 8.0371 17.2107 7.86996L16.8828 6.92526C16.3502 7.11011 15.835 7.33782 15.3404 7.59027L15.795 8.48094ZM21.7896 10.4488C21.0045 10.2128 20.1898 9.9471 19.3 9.83362L19.1735 10.8256C19.9617 10.9261 20.683 11.1604 21.5018 11.4065L21.7896 10.4488ZM19.3006 9.8337C19.2271 9.82424 19.1665 9.81786 19.1174 9.81302C19.0632 9.80768 19.0376 9.80554 19.013 9.80273C18.9869 9.79977 19.0009 9.7999 19.0272 9.8076C19.0629 9.81799 19.1307 9.84448 19.1955 9.90745C19.2552 9.96551 19.2796 10.0235 19.2844 10.0352C19.2872 10.0419 19.2878 10.0444 19.2857 10.0381C19.2836 10.0315 19.281 10.0236 19.2761 10.008C19.2561 9.94467 19.224 9.84447 19.1614 9.70399L18.2481 10.1112C18.2884 10.2017 18.3074 10.2612 18.3227 10.3095C18.3287 10.3285 18.3428 10.3749 18.3601 10.4167C18.3793 10.4632 18.4186 10.5469 18.4985 10.6245C18.6591 10.7806 18.8671 10.7926 18.8999 10.7963C18.9941 10.807 19.0334 10.8076 19.1729 10.8255L19.3006 9.8337ZM19.1615 9.70436C19.1443 9.66551 19.1259 9.58394 19.1088 9.42644C19.0954 9.30403 19.0803 9.09595 19.0476 8.93574L18.0678 9.13548C18.0881 9.23526 18.094 9.34519 18.1147 9.53477C18.1315 9.68928 18.1602 9.9137 18.2479 10.1109L19.1615 9.70436ZM19.0474 8.93466C18.9293 8.36162 18.7757 7.79459 18.5832 7.23893L17.6383 7.56628C17.8158 8.07863 17.9582 8.6036 18.068 9.13656L19.0474 8.93466ZM18.5835 7.23973C18.5278 7.0781 18.4672 6.88885 18.4041 6.73045C18.3398 6.56886 18.2533 6.38557 18.1186 6.22857C17.9737 6.05965 17.7824 5.93185 17.5366 5.87568C17.3046 5.82264 17.0573 5.84105 16.8026 5.89911L17.0249 6.8741C17.1956 6.83517 17.28 6.84282 17.3138 6.85054C17.3338 6.85511 17.3424 6.85956 17.3596 6.87965C17.387 6.91164 17.4248 6.9741 17.475 7.10026C17.5265 7.22961 17.5707 7.37011 17.638 7.56548L18.5835 7.23973ZM16.802 5.89925C16.3301 6.00744 15.853 6.24761 15.5049 6.40305L15.9126 7.31617C16.3304 7.1296 16.6773 6.95377 17.0255 6.87396L16.802 5.89925ZM15.5049 6.40303C15.2629 6.51106 15.0265 6.62514 14.7917 6.74617L15.2498 7.63505C15.469 7.52207 15.6886 7.41616 15.9125 7.31619L15.5049 6.40303ZM14.791 6.74653C14.5823 6.85447 14.3768 6.96761 14.1744 7.08596L14.6791 7.94926C14.8666 7.8396 15.0571 7.73474 15.2505 7.63468L14.791 6.74653ZM14.8398 7.2359L14.6318 6.9309L13.8056 7.49432L14.0136 7.79932L14.8398 7.2359ZM14.5221 6.81516C14.2467 6.60493 14.0383 6.26915 13.7294 5.81671C13.4509 5.40862 13.0859 4.90373 12.5229 4.63071L12.0866 5.53051C12.3835 5.67448 12.6186 5.96309 12.9035 6.3805C13.1582 6.75356 13.4768 7.27528 13.9153 7.61005L14.5221 6.81516ZM12.5226 4.63055C12.253 4.50009 11.9789 4.46975 11.7157 4.52883C11.4646 4.58521 11.2571 4.71532 11.0928 4.84961C10.9284 4.98401 10.7839 5.14225 10.6626 5.28339C10.5248 5.44387 10.4437 5.54857 10.3355 5.66985L11.0819 6.33537C11.1878 6.21664 11.3272 6.04447 11.4212 5.93504C11.5318 5.80628 11.6306 5.70158 11.7257 5.62385C11.8209 5.54602 11.8891 5.51482 11.9348 5.50454C11.9686 5.49696 12.0124 5.49463 12.0869 5.53066L12.5226 4.63055ZM10.3359 5.66938C10.1392 5.88952 9.95255 6.18346 9.80546 6.39801C9.63906 6.64071 9.50669 6.80936 9.38057 6.90652L9.99087 7.69869C10.2568 7.49385 10.4674 7.201 10.6302 6.96346C10.8124 6.69776 10.9413 6.49269 11.0815 6.33583L10.3359 5.66938ZM9.2697 7.02526C9.19711 7.13414 9.13146 7.23412 9.06153 7.33753L9.88992 7.89768C9.96199 7.7911 10.0343 7.68108 10.1017 7.57996L9.2697 7.02526ZM9.73358 7.18923C9.51966 7.06046 9.30332 6.93834 9.08578 6.82184L8.61367 7.70338C8.81812 7.81287 9.01979 7.92675 9.21786 8.04599L9.73358 7.18923ZM9.08282 6.82027C8.83219 6.68819 8.58066 6.5661 8.32673 6.44993L7.91071 7.35928C8.15079 7.46912 8.38525 7.58302 8.61662 7.70495L9.08282 6.82027ZM8.32638 6.44977C8.09215 6.34283 7.59883 6.07165 7.1525 5.93395C6.71277 5.79829 6.03607 5.69942 5.56119 6.23636L6.31026 6.89885C6.36338 6.83879 6.48468 6.77443 6.85769 6.88951C7.22412 7.00256 7.5583 7.19839 7.91106 7.35944L8.32638 6.44977ZM5.56072 6.23689C5.24054 6.59994 5.05925 7.1682 4.94137 7.64021C4.82028 8.12507 4.73439 8.65803 4.67484 8.94952L5.6546 9.14969C5.72805 8.79019 5.79616 8.34464 5.91157 7.8825C6.0302 7.40751 6.1679 7.06027 6.31073 6.89832L5.56072 6.23689ZM4.67472 8.9501C4.64205 9.11103 4.62717 9.32073 4.61397 9.44351C4.5969 9.60211 4.57852 9.68312 4.56162 9.72075L5.47383 10.1305C5.56293 9.9321 5.59154 9.70561 5.60823 9.55046C5.62877 9.35949 5.6344 9.24919 5.65472 9.14911L4.67472 8.9501ZM4.56154 9.72091C4.50031 9.85738 4.46628 9.95603 4.44716 10.0083C4.43606 10.0387 4.43674 10.0343 4.44314 10.0217C4.45252 10.0032 4.48009 9.95428 4.536 9.90715C4.5927 9.85937 4.64724 9.83974 4.67198 9.83254C4.69042 9.82717 4.69715 9.82753 4.66937 9.83126C4.64184 9.83495 4.61366 9.83796 4.55771 9.84472C4.50663 9.85089 4.44422 9.85887 4.36911 9.8702L4.51833 10.859C4.65754 10.838 4.7093 10.8349 4.80245 10.8224C4.84703 10.8164 5.02895 10.7995 5.18044 10.6718C5.32559 10.5495 5.37757 10.3758 5.38641 10.3516C5.40867 10.2907 5.43014 10.2278 5.4739 10.1303L4.56154 9.72091ZM4.36895 9.87023C3.78083 9.95918 3.19799 10.0952 2.63069 10.2763L2.93476 11.2289C3.45146 11.064 3.98262 10.94 4.5185 10.859L4.36895 9.87023ZM2.63096 10.2762C2.16482 10.4247 1.77497 10.6497 1.59747 11.0795C1.44189 11.4561 1.5053 11.8877 1.56539 12.252L2.55206 12.0892C2.48414 11.6775 2.49206 11.5331 2.52173 11.4612C2.52947 11.4425 2.56563 11.3465 2.93449 11.229L2.63096 10.2762ZM1.56562 12.2534C1.73881 13.2852 2.05156 14.3098 2.52162 15.2594L3.41783 14.8158C2.99589 13.9634 2.71064 13.034 2.55183 12.0878L1.56562 12.2534ZM2.52145 15.2591C3.63785 17.5186 5.60959 18.9765 8.04263 19.51L8.25681 18.5332C6.10185 18.0607 4.39159 16.7866 3.41799 14.8161L2.52145 15.2591ZM8.04284 19.51C9.7448 19.8825 11.5592 19.7544 13.1621 19.7756L13.1753 18.7757C11.4523 18.7529 9.82665 18.8767 8.25661 18.5332L8.04284 19.51ZM13.162 19.7756C15.7807 19.8107 18.6036 19.0571 20.3881 16.8565L19.6114 16.2267C18.0938 18.0981 15.6288 18.8085 13.1754 18.7757L13.162 19.7756ZM20.388 16.8567C21.1705 15.8924 21.703 14.7563 22.0452 13.5994L21.0863 13.3158C20.7724 14.3769 20.2929 15.3868 19.6115 16.2265L20.388 16.8567ZM22.045 13.6002C22.1 13.4153 22.3134 12.8043 22.4121 12.224C22.4615 11.9341 22.4918 11.6038 22.4427 11.3055C22.3933 11.0059 22.2416 10.6358 21.8396 10.4667L21.4518 11.3885C21.4029 11.3679 21.4339 11.3337 21.456 11.4681C21.4783 11.6037 21.469 11.8053 21.4263 12.0562C21.341 12.5574 21.1615 13.0629 21.0865 13.315L22.045 13.6002Z" fill="currentcolor"/>
</svg>
