<svg width="24" height="24" viewBox="0 0 24 24" fill="none" xmlns="http://www.w3.org/2000/svg">
<path fill-rule="evenodd" clip-rule="evenodd" d="M18.2457 16.8576C16.7997 17.9536 14.8857 18.3056 13.1057 18.2776C13.3627 18.0206 14.2987 17.9616 14.6447 17.8176C15.3877 17.5096 16.0697 17.0626 16.6477 16.5036C18.0647 15.1346 18.7777 13.2496 18.7967 11.2976C19.1407 11.3276 20.5587 11.4006 20.7947 11.6996C21.0307 11.9996 20.6707 12.9656 20.5347 13.3856C20.1017 14.7196 19.3797 15.9976 18.2457 16.8576M12.6367 17.2976C12.1047 17.8326 12.1367 18.2486 11.5367 17.6076C10.6517 16.6636 9.88972 15.5846 9.41572 14.3746C8.21572 11.3106 9.82672 8.32261 11.9667 6.12761C13.3647 7.52561 14.6557 9.30161 14.9037 11.3186C15.1767 13.5386 14.0137 15.6466 12.6367 17.2976M5.67672 16.8576C4.54672 16.0006 3.81472 14.7186 3.38772 13.3856C3.30072 13.1116 2.84172 11.9586 3.00672 11.7376C3.23072 11.4356 4.59772 11.3476 4.92672 11.3076C4.94472 13.2386 5.64272 15.1106 7.05772 16.4556C7.60872 16.9796 8.25172 17.3996 8.94672 17.7056C9.18672 17.8116 10.6747 18.0746 10.7757 18.2776C9.00772 18.3046 7.10872 17.9566 5.67672 16.8576M5.94572 10.7576C6.01072 9.60961 6.28372 8.47661 6.67672 7.39761C7.06472 7.52961 8.85772 8.08061 8.96672 8.48761C9.02472 8.70861 8.39372 9.75661 8.30572 10.0496C8.18572 10.4406 8.09472 10.8386 8.03772 11.2436C7.75172 13.2876 8.49072 15.2556 9.66572 16.9076C7.09672 15.9636 5.78072 13.4056 5.94572 10.7576M17.0467 7.39761C18.3377 10.7786 18.0607 15.4116 14.1857 16.9276C15.2717 15.3846 16.0437 13.5336 15.9357 11.6176C15.8897 10.7736 15.6647 9.94161 15.3327 9.16661C15.2977 9.08461 15.0007 8.61261 15.0147 8.50461C15.0467 8.24761 15.2407 8.20461 15.5677 8.03561C16.0457 7.79161 16.5397 7.57361 17.0467 7.39761M21.6457 10.9276C20.8437 10.6866 20.0757 10.4366 19.2367 10.3296C18.7007 10.2606 18.9107 10.3696 18.7047 9.90761C18.5997 9.67161 18.6107 9.29561 18.5577 9.03561C18.4437 8.48261 18.2957 7.93661 18.1107 7.40261C17.8647 6.68861 17.7647 6.19261 16.9137 6.38661C16.5037 6.48061 16.0917 6.68861 15.7087 6.85961C15.4757 6.96361 15.2477 7.07361 15.0207 7.19061C14.8197 7.29461 14.6217 7.40361 14.4267 7.51761L14.2187 7.21261C13.5047 6.66761 13.1647 5.49761 12.3047 5.08061C11.6167 4.74761 11.1367 5.52261 10.7087 6.00261C10.3717 6.37961 10.0777 7.00061 9.68572 7.30261C9.61572 7.40761 9.54672 7.51261 9.47572 7.61761C9.26972 7.49361 9.06072 7.37561 8.84972 7.26261C8.60872 7.13561 8.36572 7.01761 8.11872 6.90461C7.53172 6.63661 6.46372 5.97061 5.93572 6.56761C5.47272 7.09261 5.29772 8.39861 5.16472 9.04961C5.11172 9.31061 5.12372 9.68961 5.01772 9.92561C4.80772 10.3936 4.99372 10.2816 4.44372 10.3646C3.88172 10.4496 3.32472 10.5796 2.78272 10.7526C1.94772 11.0186 1.93072 11.3946 2.05872 12.1706C2.22472 13.1596 2.52372 14.1366 2.96972 15.0376C4.01472 17.1526 5.85572 18.5186 8.14972 19.0216C9.78572 19.3796 11.5057 19.2536 13.1687 19.2756C15.7047 19.3096 18.3487 18.5776 19.9997 16.5416C20.7317 15.6396 21.2377 14.5666 21.5657 13.4576C21.6957 13.0206 22.3517 11.2246 21.6457 10.9276" fill="currentcolor"/>
</svg>
