<svg width="24" height="24" viewBox="0 0 24 24" fill="none" xmlns="http://www.w3.org/2000/svg">
<path d="M6.9 14.5667H10.9333C11.2095 14.5667 11.4333 14.3428 11.4333 14.0667V10.0333H15.4667C15.7428 10.0333 15.9667 9.80948 15.9667 9.53333V5.5H20C20.2761 5.5 20.5 5.27614 20.5 5C20.5 4.72386 20.2761 4.5 20 4.5H15.4667C15.1905 4.5 14.9667 4.72386 14.9667 5V9.03333H10.9333C10.6572 9.03333 10.4333 9.25719 10.4333 9.53333V13.5667H6.4C6.12386 13.5667 5.9 13.7905 5.9 14.0667V18.1H3C2.72386 18.1 2.5 18.3239 2.5 18.6C2.5 18.8761 2.72386 19.1 3 19.1H6.4C6.67614 19.1 6.9 18.8761 6.9 18.6V14.5667Z" fill="currentcolor"/>
</svg>
