<svg width="24" height="24" viewBox="0 0 24 24" fill="none" xmlns="http://www.w3.org/2000/svg">
<path fill-rule="evenodd" clip-rule="evenodd" d="M11.5532 3.77869L9.19654 8.55298L3.92867 9.31819C3.51855 9.37777 3.35477 9.88177 3.65154 10.171L7.46429 13.8875L6.56375 19.1354C6.49365 19.5439 6.9224 19.8554 7.28924 19.6626L12.0015 17.1849L16.7139 19.6626C17.0807 19.8554 17.5094 19.544 17.4394 19.1355L16.5398 13.8876L20.3526 10.171C20.6493 9.88176 20.4855 9.37776 20.0754 9.31819L14.8065 8.55297L12.4499 3.77869C12.2665 3.4071 11.7366 3.4071 11.5532 3.77869ZM9.9769 9.23131L12.0015 5.12962L14.0262 9.23131C14.099 9.37888 14.2398 9.48116 14.4027 9.50481L18.929 10.1622L15.6535 13.355C15.5357 13.4698 15.4819 13.6353 15.5097 13.7975L16.2826 18.306L12.2342 16.1774C12.0886 16.1009 11.9145 16.1009 11.7689 16.1774L7.72072 18.3059L8.49434 13.7976C8.52218 13.6354 8.46841 13.4698 8.35055 13.355L5.07507 10.1622L9.60042 9.50481C9.76328 9.48115 9.90406 9.37888 9.9769 9.23131Z" fill="currentcolor" stroke="currentcolor"/>
</svg>
