<svg width="24" height="24" viewBox="0 0 24 24" fill="none" xmlns="http://www.w3.org/2000/svg">
<path fill-rule="evenodd" clip-rule="evenodd" d="M20.4786 9.63681C20.4196 9.45581 20.2626 9.32381 20.0756 9.29681L14.8056 8.53081L12.4496 3.75681C12.2816 3.41481 11.7206 3.41481 11.5526 3.75681L9.1966 8.53081L3.9276 9.29681C3.7406 9.32381 3.5826 9.45581 3.5246 9.63681C3.4656 9.81781 3.5146 10.0158 3.6516 10.1488L7.4636 13.8658L6.5626 19.1128C6.5306 19.3008 6.6076 19.4898 6.7616 19.6018C6.8486 19.6648 6.9526 19.6978 7.0556 19.6978C7.1356 19.6978 7.2146 19.6788 7.2886 19.6398L12.0006 17.1628L16.7136 19.6398C16.8816 19.7278 17.0856 19.7138 17.2406 19.6018C17.3946 19.4898 17.4716 19.3008 17.4396 19.1128L16.5396 13.8658L20.3516 10.1488C20.4886 10.0158 20.5376 9.81781 20.4786 9.63681" fill="currentcolor"/>
</svg>
