<svg width="24" height="24" viewBox="0 0 24 24" fill="none" xmlns="http://www.w3.org/2000/svg">
<path d="M9.52693 2.99794C9.52579 3.27408 9.74872 3.49886 10.0249 3.5L13.9089 3.516C14.185 3.51713 14.4098 3.2942 14.4109 3.01806C14.4121 2.74192 14.1891 2.51714 13.913 2.516L10.029 2.5C9.75284 2.49887 9.52807 2.7218 9.52693 2.99794Z" fill="currentcolor"/>
<path d="M11.9849 8.5C11.7088 8.5 11.4849 8.72386 11.4849 9V13C11.4849 13.2761 11.7088 13.5 11.9849 13.5C12.2611 13.5 12.4849 13.2761 12.4849 13V9C12.4849 8.72386 12.2611 8.5 11.9849 8.5Z" fill="currentcolor"/>
<path fill-rule="evenodd" clip-rule="evenodd" d="M19.937 13.4687C19.937 17.8698 16.3692 21.4377 11.968 21.4377C7.56755 21.4377 3.99902 17.8695 3.99902 13.4687C3.99902 9.06789 7.56755 5.4997 11.968 5.4997C14.1291 5.4997 16.0892 6.35991 17.5247 7.75659C17.5435 7.72004 17.5671 7.68522 17.5956 7.65306L18.5356 6.59306C18.7188 6.38645 19.0349 6.36749 19.2415 6.55071C19.4481 6.73392 19.467 7.04994 19.2838 7.25654L18.3438 8.31654C18.2908 8.37635 18.2266 8.42043 18.1572 8.44844C19.2701 9.81875 19.937 11.5658 19.937 13.4687ZM18.937 13.4687C18.937 9.61984 15.8169 6.4997 11.968 6.4997C8.11981 6.4997 4.99902 9.6202 4.99902 13.4687C4.99902 17.3172 8.11981 20.4377 11.968 20.4377C15.8169 20.4377 18.937 17.3176 18.937 13.4687Z" fill="currentcolor"/>
<path d="M9.52693 2.99794C9.52579 3.27408 9.74872 3.49886 10.0249 3.5L13.9089 3.516C14.185 3.51713 14.4098 3.2942 14.4109 3.01806C14.4121 2.74192 14.1891 2.51714 13.913 2.516L10.029 2.5C9.75284 2.49887 9.52807 2.7218 9.52693 2.99794Z" stroke="currentcolor"/>
<path d="M11.9849 8.5C11.7088 8.5 11.4849 8.72386 11.4849 9V13C11.4849 13.2761 11.7088 13.5 11.9849 13.5C12.2611 13.5 12.4849 13.2761 12.4849 13V9C12.4849 8.72386 12.2611 8.5 11.9849 8.5Z" stroke="currentcolor"/>
<path fill-rule="evenodd" clip-rule="evenodd" d="M19.937 13.4687C19.937 17.8698 16.3692 21.4377 11.968 21.4377C7.56755 21.4377 3.99902 17.8695 3.99902 13.4687C3.99902 9.06789 7.56755 5.4997 11.968 5.4997C14.1291 5.4997 16.0892 6.35991 17.5247 7.75659C17.5435 7.72004 17.5671 7.68522 17.5956 7.65306L18.5356 6.59306C18.7188 6.38645 19.0349 6.36749 19.2415 6.55071C19.4481 6.73392 19.467 7.04994 19.2838 7.25654L18.3438 8.31654C18.2908 8.37635 18.2266 8.42043 18.1572 8.44844C19.2701 9.81875 19.937 11.5658 19.937 13.4687ZM18.937 13.4687C18.937 9.61984 15.8169 6.4997 11.968 6.4997C8.11981 6.4997 4.99902 9.6202 4.99902 13.4687C4.99902 17.3172 8.11981 20.4377 11.968 20.4377C15.8169 20.4377 18.937 17.3176 18.937 13.4687Z" stroke="currentcolor"/>
</svg>
