<svg width="24" height="24" viewBox="0 0 24 24" fill="none" xmlns="http://www.w3.org/2000/svg">
<path d="M13 8V15H11V8H13Z" fill="currentcolor"/>
<path fill-rule="evenodd" clip-rule="evenodd" d="M8 1H16V3H13V4.052C14.4982 4.20873 15.8928 4.71368 17.1013 5.48445L19.5 3.08579L20.9142 4.5L18.6745 6.73973C20.4189 8.46216 21.5 10.8548 21.5 13.5C21.5 18.7467 17.2467 23 12 23C6.75329 23 2.5 18.7467 2.5 13.5C2.5 8.59103 6.22334 4.5517 11 4.052V3H8V1ZM12 6C7.85786 6 4.5 9.35786 4.5 13.5C4.5 17.6421 7.85786 21 12 21C16.1421 21 19.5 17.6421 19.5 13.5C19.5 9.35786 16.1421 6 12 6Z" fill="currentcolor"/>
</svg>
