<svg width="24" height="24" viewBox="0 0 24 24" fill="none" xmlns="http://www.w3.org/2000/svg">
<path d="M19.4919 3.67457C19.442 3.40297 19.1814 3.22321 18.9098 3.27308C18.6856 3.31424 18.4683 3.35536 18.2573 3.39676L17.6428 3.52212C17.5434 3.54326 17.4454 3.56455 17.3489 3.58603L16.7861 3.71749C13.7783 4.45652 12.1718 5.48821 9.81464 8.24061L9.37731 8.76033L8.92056 9.31988C6.362 12.4952 4.56016 16.013 3.51746 19.8694C3.44538 20.136 3.60305 20.4105 3.86962 20.4826C4.13619 20.5547 4.41072 20.397 4.48279 20.1304C5.48914 16.4085 7.22714 13.0153 9.69923 9.9473C9.77523 9.85298 9.85023 9.76043 9.9243 9.66962L10.3579 9.14522C10.4285 9.06118 10.4983 8.97878 10.5673 8.89799L10.973 8.43221L11.364 8.00295C13.0308 6.21902 14.37 5.40642 16.5196 4.81804L17.0306 4.6859L17.5735 4.55968L18.1513 4.43734L18.7672 4.31684L19.0904 4.25664C19.362 4.20677 19.5418 3.94617 19.4919 3.67457Z" fill="currentcolor"/>
<path fill-rule="evenodd" clip-rule="evenodd" d="M15.5001 6.49995C13.8433 6.49995 12.5001 7.84309 12.5001 9.49995C12.5001 11.1568 13.8433 12.4999 15.5001 12.4999C17.157 12.4999 18.5001 11.1568 18.5001 9.49995C18.5001 7.84309 17.157 6.49995 15.5001 6.49995ZM15.5001 7.49995C16.6047 7.49995 17.5001 8.39538 17.5001 9.49995C17.5001 10.6045 16.6047 11.4999 15.5001 11.4999C14.3956 11.4999 13.5001 10.6045 13.5001 9.49995C13.5001 8.39538 14.3956 7.49995 15.5001 7.49995Z" fill="currentcolor"/>
<path d="M9.89665 10.7495C10.035 10.5105 10.3409 10.4289 10.5799 10.5672L11.2606 10.9655L11.9007 11.3489L12.5004 11.7177C12.597 11.7779 12.6919 11.8376 12.7852 11.8966L13.3246 12.2438L13.824 12.577C13.9039 12.6313 13.9821 12.6851 14.0587 12.7383L14.4983 13.0509L14.8983 13.3499C15.849 14.0809 16.4296 14.688 16.6512 15.188L17.1381 16.3011L17.2724 16.6187L17.5044 17.1852L17.6981 17.6806C18.2077 19.0182 18.3805 19.8023 18.12 20.251C17.9877 20.479 17.6585 20.6665 17.0972 20.8304L16.7971 20.9105C16.6372 20.9496 16.4625 20.9875 16.2723 21.0242L15.8713 21.0965L15.4282 21.1664L14.6825 21.268L13.8366 21.367L12.8873 21.465C12.7759 21.4759 12.6626 21.4868 12.5473 21.4977C12.2724 21.5238 12.0284 21.322 12.0024 21.0471C11.9763 20.7722 12.1781 20.5282 12.453 20.5022L13.0419 20.444L13.8627 20.3541L14.3664 20.2933L15.0536 20.2023L15.6554 20.1132L16.3178 20.0006L16.5864 19.9483L16.8116 19.8994L16.9923 19.8544L17.1273 19.8139C17.2017 19.7886 17.2449 19.7667 17.2552 19.7489C17.266 19.7304 17.2601 19.6645 17.2388 19.5592L17.1952 19.3727L17.1292 19.133L17.0416 18.8461L16.933 18.5179L16.8045 18.1545L16.6566 17.7617L16.4663 17.2858L16.2835 16.8469L15.8218 15.7847L15.737 15.5932C15.6186 15.3262 15.3007 14.973 14.7875 14.5404L14.4883 14.2966C14.4352 14.2547 14.3805 14.2121 14.3242 14.1689L13.9672 13.9019L13.5718 13.6197L13.1383 13.3227L12.6668 13.0109L12.1575 12.6847L11.6104 12.3443L11.0258 11.9899L10.4038 11.6218C10.2971 11.5593 10.1887 11.4963 10.0789 11.4327C9.83989 11.2943 9.7583 10.9884 9.89665 10.7495Z" fill="currentcolor"/>
<path d="M14.8544 16.1471C14.6595 15.9515 14.3429 15.9508 14.1473 16.1457L9.68204 20.5928L9.62404 20.6619C9.48865 20.8565 9.50739 21.126 9.6806 21.2999C9.87546 21.4956 10.192 21.4962 10.3877 21.3013L14.853 16.8542L14.911 16.7851C15.0463 16.5905 15.0276 16.321 14.8544 16.1471Z" fill="currentcolor"/>
<path d="M19.4919 3.67457C19.442 3.40297 19.1814 3.22321 18.9098 3.27308C18.6856 3.31424 18.4683 3.35536 18.2573 3.39676L17.6428 3.52212C17.5434 3.54326 17.4454 3.56455 17.3489 3.58603L16.7861 3.71749C13.7783 4.45652 12.1718 5.48821 9.81464 8.24061L9.37731 8.76033L8.92056 9.31988C6.362 12.4952 4.56016 16.013 3.51746 19.8694C3.44538 20.136 3.60305 20.4105 3.86962 20.4826C4.13619 20.5547 4.41072 20.397 4.48279 20.1304C5.48914 16.4085 7.22714 13.0153 9.69923 9.9473C9.77523 9.85298 9.85023 9.76043 9.9243 9.66962L10.3579 9.14522C10.4285 9.06118 10.4983 8.97878 10.5673 8.89799L10.973 8.43221L11.364 8.00295C13.0308 6.21902 14.37 5.40642 16.5196 4.81804L17.0306 4.6859L17.5735 4.55968L18.1513 4.43734L18.7672 4.31684L19.0904 4.25664C19.362 4.20677 19.5418 3.94617 19.4919 3.67457Z" stroke="currentcolor"/>
<path fill-rule="evenodd" clip-rule="evenodd" d="M15.5001 6.49995C13.8433 6.49995 12.5001 7.84309 12.5001 9.49995C12.5001 11.1568 13.8433 12.4999 15.5001 12.4999C17.157 12.4999 18.5001 11.1568 18.5001 9.49995C18.5001 7.84309 17.157 6.49995 15.5001 6.49995ZM15.5001 7.49995C16.6047 7.49995 17.5001 8.39538 17.5001 9.49995C17.5001 10.6045 16.6047 11.4999 15.5001 11.4999C14.3956 11.4999 13.5001 10.6045 13.5001 9.49995C13.5001 8.39538 14.3956 7.49995 15.5001 7.49995Z" stroke="currentcolor"/>
<path d="M9.89665 10.7495C10.035 10.5105 10.3409 10.4289 10.5799 10.5672L11.2606 10.9655L11.9007 11.3489L12.5004 11.7177C12.597 11.7779 12.6919 11.8376 12.7852 11.8966L13.3246 12.2438L13.824 12.577C13.9039 12.6313 13.9821 12.6851 14.0587 12.7383L14.4983 13.0509L14.8983 13.3499C15.849 14.0809 16.4296 14.688 16.6512 15.188L17.1381 16.3011L17.2724 16.6187L17.5044 17.1852L17.6981 17.6806C18.2077 19.0182 18.3805 19.8023 18.12 20.251C17.9877 20.479 17.6585 20.6665 17.0972 20.8304L16.7971 20.9105C16.6372 20.9496 16.4625 20.9875 16.2723 21.0242L15.8713 21.0965L15.4282 21.1664L14.6825 21.268L13.8366 21.367L12.8873 21.465C12.7759 21.4759 12.6626 21.4868 12.5473 21.4977C12.2724 21.5238 12.0284 21.322 12.0024 21.0471C11.9763 20.7722 12.1781 20.5282 12.453 20.5022L13.0419 20.444L13.8627 20.3541L14.3664 20.2933L15.0536 20.2023L15.6554 20.1132L16.3178 20.0006L16.5864 19.9483L16.8116 19.8994L16.9923 19.8544L17.1273 19.8139C17.2017 19.7886 17.2449 19.7667 17.2552 19.7489C17.266 19.7304 17.2601 19.6645 17.2388 19.5592L17.1952 19.3727L17.1292 19.133L17.0416 18.8461L16.933 18.5179L16.8045 18.1545L16.6566 17.7617L16.4663 17.2858L16.2835 16.8469L15.8218 15.7847L15.737 15.5932C15.6186 15.3262 15.3007 14.973 14.7875 14.5404L14.4883 14.2966C14.4352 14.2547 14.3805 14.2121 14.3242 14.1689L13.9672 13.9019L13.5718 13.6197L13.1383 13.3227L12.6668 13.0109L12.1575 12.6847L11.6104 12.3443L11.0258 11.9899L10.4038 11.6218C10.2971 11.5593 10.1887 11.4963 10.0789 11.4327C9.83989 11.2943 9.7583 10.9884 9.89665 10.7495Z" stroke="currentcolor"/>
<path d="M14.8544 16.1471C14.6595 15.9515 14.3429 15.9508 14.1473 16.1457L9.68204 20.5928L9.62404 20.6619C9.48865 20.8565 9.50739 21.126 9.6806 21.2999C9.87546 21.4956 10.192 21.4962 10.3877 21.3013L14.853 16.8542L14.911 16.7851C15.0463 16.5905 15.0276 16.321 14.8544 16.1471Z" stroke="currentcolor"/>
</svg>
