<svg width="24" height="24" viewBox="0 0 24 24" fill="none" xmlns="http://www.w3.org/2000/svg">
<path d="M12 0.585815L16.4142 5.00003L15 6.41424L13 4.41424V10H11V4.41424L9 6.41424L7.58579 5.00003L12 0.585815Z" fill="currentcolor"/>
<path d="M5 9.58582L7.41421 12L6 13.4142L3.58579 11L5 9.58582Z" fill="currentcolor"/>
<path d="M20.4142 11L18 13.4142L16.5858 12L19 9.58582L20.4142 11Z" fill="currentcolor"/>
<path fill-rule="evenodd" clip-rule="evenodd" d="M2 19V17H6.08296C6.55904 14.1623 9.027 12 12 12C14.973 12 17.441 14.1623 17.917 17H22V19H2ZM15.874 17C15.4299 15.2748 13.8638 14 12 14C10.1362 14 8.57006 15.2748 8.12602 17H15.874Z" fill="currentcolor"/>
<path d="M5 21H19V23H5V21Z" fill="currentcolor"/>
</svg>
