<svg width="24" height="24" viewBox="0 0 24 24" fill="none" xmlns="http://www.w3.org/2000/svg">
<path d="M13 1V6.58579L15 4.58579L16.4142 6L12 10.4142L7.58579 6L9 4.58579L11 6.58579V1H13Z" fill="currentcolor"/>
<path d="M5 9.58579L7.41421 12L6 13.4142L3.58579 11L5 9.58579Z" fill="currentcolor"/>
<path d="M20.4142 11L18 13.4142L16.5858 12L19 9.58579L20.4142 11Z" fill="currentcolor"/>
<path fill-rule="evenodd" clip-rule="evenodd" d="M2 19V17H6.08296C6.55904 14.1623 9.027 12 12 12C14.973 12 17.441 14.1623 17.917 17H22V19H2ZM15.874 17C15.4299 15.2748 13.8638 14 12 14C10.1362 14 8.57006 15.2748 8.12602 17H15.874Z" fill="currentcolor"/>
<path d="M5 21H19V23H5V21Z" fill="currentcolor"/>
</svg>
