<svg width="24" height="24" viewBox="0 0 24 24" fill="none" xmlns="http://www.w3.org/2000/svg">
<path d="M16.603 7.19574C17.9321 8.52492 18.6009 10.3281 18.4963 12.1631L16.5604 10.2272C16.3651 10.0319 16.0485 10.0319 15.8533 10.2272C15.658 10.4224 15.658 10.739 15.8533 10.9343L18.6817 13.7627C18.877 13.958 19.1936 13.958 19.3888 13.7627L22.2172 10.9343C22.4125 10.739 22.4125 10.4224 22.2172 10.2272C22.022 10.0319 21.7054 10.0319 21.5101 10.2272L19.4932 12.2441C19.6212 10.1196 18.849 8.02761 17.3101 6.48863C14.3811 3.5597 9.63239 3.5597 6.70346 6.48863C6.5082 6.68389 6.5082 7.00047 6.70346 7.19574C6.89872 7.391 7.21531 7.391 7.41057 7.19574C9.94898 4.65733 14.0645 4.65733 16.603 7.19574Z" fill="currentcolor"/>
<path d="M4.76881 12.0259L2.86039 13.9343C2.66513 14.1296 2.34854 14.1296 2.15328 13.9343C1.95802 13.739 1.95802 13.4224 2.15328 13.2272L4.98171 10.3988C5.17697 10.2035 5.49355 10.2035 5.68882 10.3988L8.51724 13.2272C8.71251 13.4224 8.71251 13.739 8.51724 13.9343C8.32198 14.1296 8.0054 14.1296 7.81014 13.9343L5.77074 11.8949C5.72725 13.6562 6.39473 15.3723 7.6727 16.6503C10.2111 19.1887 14.3267 19.1887 16.8651 16.6503C17.0603 16.455 17.3769 16.455 17.5722 16.6503C17.7675 16.8455 17.7675 17.1621 17.5722 17.3574C14.6433 20.2863 9.89453 20.2863 6.96559 17.3574C5.52913 15.9209 4.76074 14.0027 4.76881 12.0259Z" fill="currentcolor"/>
</svg>
