<svg width="24" height="24" viewBox="0 0 24 24" fill="none" xmlns="http://www.w3.org/2000/svg">
<path d="M16.603 7.1958C17.9321 8.52498 18.6009 10.3281 18.4963 12.1631L16.5604 10.2272C16.3651 10.032 16.0485 10.032 15.8533 10.2272C15.658 10.4225 15.658 10.7391 15.8533 10.9344L18.6817 13.7628C18.877 13.958 19.1936 13.958 19.3888 13.7628L22.2172 10.9344C22.4125 10.7391 22.4125 10.4225 22.2172 10.2272C22.022 10.032 21.7054 10.032 21.5101 10.2272L19.4932 12.2442C19.6212 10.1196 18.849 8.02767 17.3101 6.48869C14.3811 3.55976 9.63239 3.55976 6.70346 6.48869C6.5082 6.68395 6.5082 7.00054 6.70346 7.1958C6.89872 7.39106 7.21531 7.39106 7.41057 7.1958C9.94898 4.65739 14.0645 4.65739 16.603 7.1958Z" fill="currentcolor"/>
<path d="M4.76881 12.0259L2.86039 13.9344C2.66513 14.1296 2.34854 14.1296 2.15328 13.9344C1.95802 13.7391 1.95802 13.4225 2.15328 13.2272L4.98171 10.3988C5.17697 10.2036 5.49355 10.2036 5.68882 10.3988L8.51724 13.2272C8.71251 13.4225 8.71251 13.7391 8.51724 13.9344C8.32198 14.1296 8.0054 14.1296 7.81014 13.9344L5.77074 11.895C5.72725 13.6563 6.39473 15.3723 7.6727 16.6503C10.2111 19.1887 14.3267 19.1887 16.8651 16.6503C17.0603 16.4551 17.3769 16.4551 17.5722 16.6503C17.7675 16.8456 17.7675 17.1622 17.5722 17.3574C14.6433 20.2864 9.89453 20.2864 6.96559 17.3574C5.52913 15.921 4.76074 14.0027 4.76881 12.0259Z" fill="currentcolor"/>
<path d="M16.603 7.1958C17.9321 8.52498 18.6009 10.3281 18.4963 12.1631L16.5604 10.2272C16.3651 10.032 16.0485 10.032 15.8533 10.2272C15.658 10.4225 15.658 10.7391 15.8533 10.9344L18.6817 13.7628C18.877 13.958 19.1936 13.958 19.3888 13.7628L22.2172 10.9344C22.4125 10.7391 22.4125 10.4225 22.2172 10.2272C22.022 10.032 21.7054 10.032 21.5101 10.2272L19.4932 12.2442C19.6212 10.1196 18.849 8.02767 17.3101 6.48869C14.3811 3.55976 9.63239 3.55976 6.70346 6.48869C6.5082 6.68395 6.5082 7.00054 6.70346 7.1958C6.89872 7.39106 7.21531 7.39106 7.41057 7.1958C9.94898 4.65739 14.0645 4.65739 16.603 7.1958Z" stroke="currentcolor"/>
<path d="M4.76881 12.0259L2.86039 13.9344C2.66513 14.1296 2.34854 14.1296 2.15328 13.9344C1.95802 13.7391 1.95802 13.4225 2.15328 13.2272L4.98171 10.3988C5.17697 10.2036 5.49355 10.2036 5.68882 10.3988L8.51724 13.2272C8.71251 13.4225 8.71251 13.7391 8.51724 13.9344C8.32198 14.1296 8.0054 14.1296 7.81014 13.9344L5.77074 11.895C5.72725 13.6563 6.39473 15.3723 7.6727 16.6503C10.2111 19.1887 14.3267 19.1887 16.8651 16.6503C17.0603 16.4551 17.3769 16.4551 17.5722 16.6503C17.7675 16.8456 17.7675 17.1622 17.5722 17.3574C14.6433 20.2864 9.89453 20.2864 6.96559 17.3574C5.52913 15.921 4.76074 14.0027 4.76881 12.0259Z" stroke="currentcolor"/>
</svg>
