<svg width="24" height="24" viewBox="0 0 24 24" fill="none" xmlns="http://www.w3.org/2000/svg">
<path fill-rule="evenodd" clip-rule="evenodd" d="M16.3471 8.48564C16.4315 8.81694 16.3442 9.18287 16.0856 9.44155C15.6941 9.83502 15.0571 9.83502 14.6665 9.44245C14.2753 9.05119 14.2753 8.41661 14.6665 8.02535C14.9323 7.75958 15.3108 7.67434 15.6489 7.76961L17.669 5.74947L13.9197 5.16319C12.8126 4.98991 11.6907 5.35559 10.8986 6.14775L4.20708 12.8392L11.234 19.8671L17.9324 13.1686C18.721 12.3801 19.0865 11.2636 18.9168 10.1612L18.351 6.48173L16.3471 8.48564ZM19.2279 5.60482L19.9052 10.0091C20.1234 11.4263 19.6534 12.8619 18.6396 13.8758L11.5876 20.9278C11.3923 21.123 11.0757 21.123 10.8804 20.9277L3.14642 13.1927C2.95118 12.9975 2.95119 12.6809 3.14645 12.4856L10.1914 5.44065C11.2095 4.42259 12.6517 3.95254 14.0742 4.1752L18.5443 4.87419L20.272 3.14645C20.4673 2.95118 20.7839 2.95118 20.9792 3.14645C21.1744 3.34171 21.1744 3.65829 20.9792 3.85355L19.2279 5.60482Z" fill="currentcolor"/>
<path fill-rule="evenodd" clip-rule="evenodd" d="M19.9185 2.79289C20.309 2.40237 20.9422 2.40237 21.3327 2.79289C21.7232 3.18342 21.7232 3.81658 21.3327 4.20711L19.7606 5.77923L20.3994 9.93302C20.6418 11.5077 20.1195 13.1029 18.9931 14.2293L11.9411 21.2813C11.5506 21.6718 10.9174 21.6718 10.5268 21.2813L2.79285 13.5463C2.40237 13.1557 2.40239 12.5226 2.79289 12.1321L3.14645 12.4856L2.79289 12.1321L9.83789 5.08709C10.9689 3.95611 12.5711 3.43387 14.1515 3.68121C14.1515 3.68121 14.1515 3.68121 14.1516 3.68122L18.3705 4.34093L19.9185 2.79289ZM13.8424 5.65717C12.8931 5.50859 11.9313 5.8221 11.2521 6.50131L4.91417 12.8392L11.234 19.1599L17.5789 12.8151C18.2548 12.1392 18.5681 11.1822 18.4226 10.2373L18.4226 10.2372L18.0068 7.53304L16.8765 8.66333C16.8955 9.06972 16.7504 9.48353 16.4396 9.79466C15.8529 10.3838 14.8983 10.3843 14.3121 9.7951L14.6665 9.44245L14.313 9.79601C13.7265 9.20948 13.7265 8.25832 14.313 7.67179C14.6323 7.35252 15.0595 7.20761 15.4761 7.23531L16.6199 6.09149L13.8424 5.65718L13.8424 5.65717ZM15.5133 8.25087C15.3419 8.20259 15.1526 8.24641 15.0201 8.3789C14.8241 8.5749 14.8241 8.8929 15.0201 9.0889L15.021 9.0898C15.2158 9.28561 15.5348 9.28619 15.7311 9.0889L15.732 9.088C15.8606 8.95943 15.9053 8.7769 15.8626 8.60911L15.7923 8.33332L15.7953 8.33034L15.5133 8.25087Z" fill="currentcolor"/>
</svg>
