<svg width="24" height="24" viewBox="0 0 24 24" fill="none" xmlns="http://www.w3.org/2000/svg">
<path fill-rule="evenodd" clip-rule="evenodd" d="M16.3471 8.48564C16.4315 8.81694 16.3442 9.18287 16.0856 9.44155C15.6941 9.83502 15.0571 9.83502 14.6665 9.44245C14.2753 9.05119 14.2753 8.41661 14.6665 8.02535C14.9323 7.75958 15.3108 7.67434 15.6489 7.76961L17.669 5.74947L13.9197 5.16319C12.8126 4.98991 11.6907 5.35559 10.8986 6.14775L4.20708 12.8392L11.234 19.8671L17.9324 13.1686C18.721 12.3801 19.0865 11.2636 18.9168 10.1612L18.351 6.48173L16.3471 8.48564ZM19.2279 5.60482L19.9052 10.0091C20.1234 11.4263 19.6534 12.8619 18.6396 13.8758L11.5876 20.9278C11.3923 21.123 11.0757 21.123 10.8804 20.9277L3.14642 13.1927C2.95118 12.9975 2.95119 12.6809 3.14645 12.4856L10.1914 5.44065C11.2095 4.42259 12.6517 3.95254 14.0742 4.1752L18.5443 4.87419L20.272 3.14645C20.4673 2.95118 20.7839 2.95118 20.9792 3.14645C21.1744 3.34171 21.1744 3.65829 20.9792 3.85355L19.2279 5.60482Z" fill="currentcolor"/>
</svg>
