<svg width="24" height="24" viewBox="0 0 24 24" fill="none" xmlns="http://www.w3.org/2000/svg">
<path fill-rule="evenodd" clip-rule="evenodd" d="M8 5C8 2.79086 9.79086 1 12 1C14.2091 1 16 2.79086 16 5V14.999C16.6274 15.8345 17 16.8744 17 17.9993C17 20.7608 14.7614 22.9993 12 22.9993C9.23858 22.9993 7 20.7608 7 17.9993C7 16.8744 7.37256 15.8345 8 14.999V5ZM12 3C10.8954 3 10 3.89543 10 5V15.7317L9.74974 16.0152C9.28243 16.5447 9 17.2378 9 17.9993C9 19.6562 10.3431 20.9993 12 20.9993C13.6569 20.9993 15 19.6562 15 17.9993C15 17.2378 14.7176 16.5447 14.2503 16.0152L14 15.7317V5C14 3.89543 13.1046 3 12 3Z" fill="currentcolor"/>
</svg>
