<svg width="24" height="24" viewBox="0 0 24 24" fill="none" xmlns="http://www.w3.org/2000/svg">
<path d="M7 1V4H10V6H7V9H5V6H2V4H5V1H7Z" fill="currentcolor"/>
<path fill-rule="evenodd" clip-rule="evenodd" d="M13 5C13 2.79086 14.7909 1 17 1C19.2091 1 21 2.79086 21 5V14.999C21.6274 15.8345 22 16.8744 22 17.9993C22 20.7608 19.7614 22.9993 17 22.9993C14.2386 22.9993 12 20.7608 12 17.9993C12 16.8744 12.3726 15.8345 13 14.999V5ZM17 3C15.8954 3 15 3.89543 15 5V15.7317L14.7497 16.0152C14.2824 16.5447 14 17.2378 14 17.9993C14 19.6562 15.3431 20.9993 17 20.9993C18.6569 20.9993 20 19.6562 20 17.9993C20 17.2378 19.7176 16.5447 19.2503 16.0152L19 15.7317V5C19 3.89543 18.1046 3 17 3Z" fill="currentcolor"/>
</svg>
