<svg width="24" height="24" viewBox="0 0 24 24" fill="none" xmlns="http://www.w3.org/2000/svg">
<path d="M15.5 10V14H13.5V10H15.5Z" fill="currentcolor"/>
<path fill-rule="evenodd" clip-rule="evenodd" d="M1 3H23V9.5H22C20.6193 9.5 19.5 10.6193 19.5 12C19.5 13.3807 20.6193 14.5 22 14.5H23V21H1V14.5H2C3.38071 14.5 4.5 13.3807 4.5 12C4.5 10.6193 3.38071 9.5 2 9.5H1V3ZM15.5 19V16H13.5V19H3V16.3885C5.00399 15.9338 6.5 14.1416 6.5 12C6.5 9.85841 5.00399 8.06624 3 7.61151V5H13.5V8H15.5V5H21V7.61151C18.996 8.06624 17.5 9.85841 17.5 12C17.5 14.1416 18.996 15.9338 21 16.3885V19H15.5Z" fill="currentcolor"/>
</svg>
