<svg width="24" height="24" viewBox="0 0 24 24" fill="none" xmlns="http://www.w3.org/2000/svg">
<path d="M5 20V14.4564C5 11.7448 5.35514 9.75954 6.54647 8.34563C7.73779 6.93172 9.57977 6.30086 12.4527 6.40877V3.82997C12.4686 3.50071 12.5751 3.26736 12.7721 3.12994C13.2664 2.78684 13.7527 3.19496 14.1092 3.52561C15.1349 4.47882 18.5167 7.19735 19.0865 7.7037C19.1794 7.78023 19.2545 7.87775 19.3062 7.98893C19.3578 8.10011 19.3846 8.22207 19.3846 8.34563C19.3846 8.46919 19.3578 8.59114 19.3062 8.70233C19.2545 8.81351 19.1794 8.91103 19.0865 8.98756C18.5286 9.48284 15.2647 12.0782 14.2112 13.0771C13.8375 13.4271 13.3088 13.9404 12.7721 13.5669C12.5746 13.4285 12.4686 13.1961 12.4527 12.8668V9.96152C10.6306 9.87852 9.597 10.1123 9.10669 10.6948C8.57662 11.3284 8.41495 12.5915 8.41495 14.4523V19.9959L5 20Z" fill="currentcolor"/>
</svg>
