<svg width="24" height="24" viewBox="0 0 24 24" fill="none" xmlns="http://www.w3.org/2000/svg">
<path fill-rule="evenodd" clip-rule="evenodd" d="M13.4527 4.28061V7.44701L12.4152 7.40804C9.693 7.30579 8.22102 7.91015 7.3112 8.98995C6.36292 10.1154 6 11.7839 6 14.4564V18.9988L7.41495 18.997V14.4523C7.41495 13.5027 7.45546 12.656 7.57618 11.9457C7.69422 11.2513 7.90696 10.5704 8.33968 10.0531L8.34167 10.0507C8.77701 9.53359 9.39014 9.25104 10.0647 9.1021C10.7351 8.95407 11.5483 8.91926 12.4982 8.96254L13.4527 9.00602V12.4173C13.4712 12.4001 13.4904 12.3821 13.5103 12.3634L13.5254 12.3493C14.0844 11.8196 15.1938 10.8971 16.2 10.0707C16.5267 9.80242 16.8418 9.54472 17.1286 9.31027C17.6438 8.88899 18.0672 8.54281 18.3001 8.34541C18.0411 8.12474 17.5471 7.71825 16.9543 7.23051C16.6954 7.01746 16.4176 6.7889 16.1324 6.55356C15.1124 5.71199 14.0014 4.78731 13.4527 4.28061ZM13.0857 12.7083C13.0857 12.7083 13.0862 12.7081 13.0872 12.7078ZM13.8957 2.16005C14.296 2.33652 14.6177 2.63332 14.7892 2.79243C15.2753 3.24418 16.3507 4.14088 17.4052 5.01085C17.6666 5.22655 17.9274 5.44112 18.1759 5.64559C18.8904 6.23341 19.5034 6.73776 19.7387 6.94553C19.9416 7.1167 20.1026 7.3298 20.2131 7.56771C20.3265 7.81194 20.3846 8.07775 20.3846 8.34561C20.3846 8.61346 20.3265 8.87927 20.2131 9.1235C20.1026 9.36153 19.9414 9.57472 19.7384 9.74594C19.5199 9.93858 18.9755 10.3837 18.331 10.9107C18.0562 11.1354 17.7631 11.375 17.4694 11.6162C16.4422 12.4599 15.3944 13.3333 14.8993 13.8028L14.8948 13.8069C14.8837 13.8174 14.8715 13.8288 14.8585 13.8411C14.691 13.9991 14.3764 14.2959 14.0069 14.4842C13.5448 14.7198 12.8631 14.8485 12.2008 14.3876L12.1983 14.3858C11.6625 14.0104 11.4789 13.4318 11.4539 12.915L11.4527 12.8909V10.9505C11.0593 10.9634 10.7449 11.0001 10.4959 11.0551C10.0778 11.1474 9.92831 11.2721 9.87262 11.3377C9.77537 11.4547 9.64287 11.7222 9.5479 12.2809C9.45528 12.8258 9.41495 13.5411 9.41495 14.4523V20.9946L4 21.0012V14.4564C4 11.7057 4.34737 9.40362 5.78173 7.70126C7.08061 6.1597 8.95434 5.46637 11.4527 5.402V3.80582L11.4539 3.78171C11.4788 3.26597 11.6624 2.6847 12.2 2.30974L12.2019 2.30842C12.8017 1.89204 13.4311 1.95525 13.8957 2.16005Z" fill="currentcolor"/>
</svg>
