<svg width="24" height="24" viewBox="0 0 24 24" fill="none" xmlns="http://www.w3.org/2000/svg">
<path fill-rule="evenodd" clip-rule="evenodd" d="M13 1V3.05009C15.2849 3.27966 17.4329 4.29077 19.0711 5.92893C20.9464 7.8043 22 10.3478 22 13V14H13V19.4615C13 19.8744 13.1617 20.2674 13.4447 20.5548C13.7272 20.8417 14.1071 21 14.5 21C14.8929 21 15.2728 20.8417 15.5553 20.5548C15.8383 20.2674 16 19.8744 16 19.4615V18.4615H18V19.4615C18 20.3951 17.6349 21.2935 16.9803 21.9582C16.3251 22.6234 15.4332 23 14.5 23C13.5668 23 12.6749 22.6234 12.0197 21.9582C11.3651 21.2935 11 20.3951 11 19.4615V14H2V13C2 10.3478 3.05357 7.8043 4.92893 5.92893C6.5671 4.29077 8.71511 3.27966 11 3.05009V1H13ZM19.9373 12C19.7165 10.247 18.9195 8.60577 17.6569 7.34315C16.1566 5.84285 14.1217 5 12 5C9.87827 5 7.84344 5.84285 6.34315 7.34315C5.08052 8.60577 4.28353 10.247 4.06272 12H19.9373Z" fill="currentcolor"/>
</svg>
