<svg width="24" height="24" viewBox="0 0 24 24" fill="none" xmlns="http://www.w3.org/2000/svg">
<path fill-rule="evenodd" clip-rule="evenodd" d="M22 12C22 17.5226 17.523 22 12 22C6.47705 22 2 17.5226 2 12C2 6.47669 6.47669 2 12 2C17.5233 2 22 6.47669 22 12ZM20.9974 12C20.9974 7.03043 16.9696 3.00264 12 3.00264C7.03043 3.00264 3.00264 7.03043 3.00264 12C3.00264 16.9689 7.03081 20.9974 12 20.9974C16.9692 20.9974 20.9974 16.9689 20.9974 12ZM7 13.316C7 13.4175 7.31982 13.5 7.71392 13.5H16.2861C16.6802 13.5 17 13.4175 17 13.316V10.684C17 10.5825 16.6802 10.5 16.2861 10.5H7.71392C7.31982 10.5 7 10.5825 7 10.684V13.316Z" fill="currentcolor"/>
</svg>
