<svg width="24" height="24" viewBox="0 0 24 24" fill="none" xmlns="http://www.w3.org/2000/svg">
<path fill-rule="evenodd" clip-rule="evenodd" d="M22 12C22 17.5226 17.523 22 12 22C6.47705 22 2 17.5226 2 12C2 6.47669 6.47669 2 12 2C17.5233 2 22 6.47669 22 12ZM20.9974 12C20.9974 7.03043 16.9696 3.00264 12 3.00264C7.03043 3.00264 3.00264 7.03043 3.00264 12C3.00264 16.9689 7.03081 20.9974 12 20.9974C16.9692 20.9974 20.9974 16.9689 20.9974 12ZM7 13.316C7 13.4175 7.31982 13.5 7.71392 13.5H16.2861C16.6802 13.5 17 13.4175 17 13.316V10.684C17 10.5825 16.6802 10.5 16.2861 10.5H7.71392C7.31982 10.5 7 10.5825 7 10.684V13.316Z" fill="currentcolor"/>
<path d="M12 22.5C17.7991 22.5 22.5 17.7987 22.5 12H21.5C21.5 17.2465 17.2468 21.5 12 21.5V22.5ZM1.5 12C1.5 17.7987 6.20089 22.5 12 22.5V21.5C6.7532 21.5 2.5 17.2465 2.5 12H1.5ZM12 1.5C6.20055 1.5 1.5 6.20055 1.5 12H2.5C2.5 6.75283 6.75283 2.5 12 2.5V1.5ZM22.5 12C22.5 6.20055 17.7995 1.5 12 1.5V2.5C17.2472 2.5 21.5 6.75283 21.5 12H22.5ZM12 3.50264C16.6934 3.50264 20.4974 7.30657 20.4974 12H21.4974C21.4974 6.75429 17.2457 2.50264 12 2.50264V3.50264ZM3.50264 12C3.50264 7.30658 7.30658 3.50264 12 3.50264V2.50264C6.75429 2.50264 2.50264 6.75429 2.50264 12H3.50264ZM12 20.4974C7.30696 20.4974 3.50264 16.6928 3.50264 12H2.50264C2.50264 17.245 6.75465 21.4974 12 21.4974V20.4974ZM20.4974 12C20.4974 16.6928 16.693 20.4974 12 20.4974V21.4974C17.2453 21.4974 21.4974 17.245 21.4974 12H20.4974ZM7.71392 13C7.54642 13 7.41184 12.982 7.33398 12.9619C7.29129 12.9509 7.29244 12.9461 7.31622 12.9605C7.32856 12.9681 7.36675 12.9926 7.40597 13.042C7.44818 13.0951 7.5 13.1891 7.5 13.316H6.5C6.5 13.62 6.72946 13.7741 6.79604 13.8146C6.8921 13.8731 6.99784 13.9079 7.08436 13.9302C7.26494 13.9768 7.48731 14 7.71392 14V13ZM16.2861 13H7.71392V14H16.2861V13ZM16.5 13.316C16.5 13.1891 16.5518 13.0951 16.594 13.042C16.6333 12.9926 16.6714 12.9681 16.6838 12.9605C16.7076 12.9461 16.7087 12.9509 16.666 12.9619C16.5882 12.982 16.4536 13 16.2861 13V14C16.5127 14 16.7351 13.9768 16.9156 13.9302C17.0022 13.9079 17.1079 13.8731 17.204 13.8146C17.2705 13.7741 17.5 13.62 17.5 13.316H16.5ZM16.5 10.684V13.316H17.5V10.684H16.5ZM16.2861 11C16.4536 11 16.5882 11.018 16.666 11.0381C16.7087 11.0491 16.7076 11.0539 16.6838 11.0395C16.6714 11.0319 16.6333 11.0074 16.594 10.958C16.5518 10.9049 16.5 10.8109 16.5 10.684H17.5C17.5 10.38 17.2705 10.2259 17.204 10.1854C17.1079 10.1269 17.0022 10.0921 16.9156 10.0698C16.7351 10.0232 16.5127 10 16.2861 10V11ZM7.71392 11H16.2861V10H7.71392V11ZM7.5 10.684C7.5 10.8109 7.44818 10.9049 7.40597 10.958C7.36675 11.0074 7.32856 11.0319 7.31622 11.0395C7.29244 11.0539 7.29129 11.0491 7.33398 11.0381C7.41184 11.018 7.54642 11 7.71392 11V10C7.48731 10 7.26494 10.0232 7.08436 10.0698C6.99784 10.0921 6.8921 10.1269 6.79604 10.1854C6.72946 10.2259 6.5 10.38 6.5 10.684H7.5ZM7.5 13.316V10.684H6.5V13.316H7.5Z" fill="currentcolor"/>
</svg>
