<svg width="24" height="24" viewBox="0 0 24 24" fill="none" xmlns="http://www.w3.org/2000/svg">
<path fill-rule="evenodd" clip-rule="evenodd" d="M11.5 19.4998C11.5 19.776 11.7239 19.9998 12 19.9998C12.2761 19.9998 12.5 19.776 12.5 19.4998V7.70692L17.1464 12.3534C17.3417 12.5486 17.6583 12.5486 17.8536 12.3534C18.0488 12.1581 18.0488 11.8415 17.8536 11.6463L12.3536 6.14626C12.3056 6.09832 12.2504 6.06216 12.1914 6.03776C12.1324 6.01331 12.0678 5.99982 12 5.99982C11.9322 5.99982 11.8676 6.01331 11.8086 6.03776C11.7496 6.06216 11.6944 6.09832 11.6464 6.14626L6.14645 11.6463C5.95118 11.8415 5.95118 12.1581 6.14645 12.3534C6.34171 12.5486 6.65829 12.5486 6.85355 12.3534L11.5 7.70692V19.4998ZM6 4.49982C6 4.22367 6.22386 3.99982 6.5 3.99982H17.5C17.7761 3.99982 18 4.22367 18 4.49982C18 4.77596 17.7761 4.99982 17.5 4.99982H6.5C6.22386 4.99982 6 4.77596 6 4.49982Z" fill="currentcolor"/>
<path d="M12.5 7.70692H12V6.49982L12.8536 7.35337L12.5 7.70692ZM17.1464 12.3534L17.5 11.9998V11.9998L17.1464 12.3534ZM17.8536 12.3534L17.5 11.9998V11.9998L17.8536 12.3534ZM17.8536 11.6463L18.2071 11.2927L18.2071 11.2927L17.8536 11.6463ZM12.3536 6.14626L12 6.49982L12 6.49982L12.3536 6.14626ZM12.003 5.99983L12.0044 5.49983L12.006 5.49983L12.003 5.99983ZM12 5.99982L11.9986 5.49981L12.0014 5.49982L12 5.99982ZM11.997 5.99983L11.9941 5.49983L11.9956 5.49983L11.997 5.99983ZM11.8086 6.03776L12.0001 6.49962L11.9998 6.49977L11.8086 6.03776ZM11.6464 6.14626L12 6.49982L11.6464 6.14626ZM6.14645 11.6463L5.79289 11.2927L5.79289 11.2927L6.14645 11.6463ZM6.14645 12.3534L6.5 11.9998H6.5L6.14645 12.3534ZM6.85355 12.3534L6.5 11.9998H6.5L6.85355 12.3534ZM11.5 7.70692L11.1464 7.35337L12 6.49982V7.70692H11.5ZM12 20.4998C11.4477 20.4998 11 20.0521 11 19.4998H12V20.4998ZM13 19.4998C13 20.0521 12.5523 20.4998 12 20.4998V19.4998H13ZM13 7.70692V19.4998H12V7.70692H13ZM16.7929 12.7069L12.1464 8.06048L12.8536 7.35337L17.5 11.9998L16.7929 12.7069ZM18.2071 12.7069C17.8166 13.0974 17.1834 13.0974 16.7929 12.7069L17.5 11.9998L18.2071 12.7069ZM18.2071 11.2927C18.5976 11.6832 18.5976 12.3164 18.2071 12.7069L17.5 11.9998L17.5 11.9998L18.2071 11.2927ZM12.7071 5.79271L18.2071 11.2927L17.5 11.9998L12 6.49982L12.7071 5.79271ZM12.006 5.49983C12.2592 5.50134 12.5135 5.59908 12.7071 5.79271L12 6.49982L12 6.49982L12.006 5.49983ZM12.0014 5.49982L12.0044 5.49983L12.0016 6.49982L11.9986 6.49981L12.0014 5.49982ZM11.9956 5.49983L11.9986 5.49982L12.0014 6.49981L11.9984 6.49982L11.9956 5.49983ZM11.6171 5.57589C11.7339 5.52744 11.8615 5.50061 11.9941 5.49983L11.9999 6.49982L12.0001 6.49962L11.6171 5.57589ZM11.2929 5.79271C11.3881 5.69748 11.4988 5.62483 11.6175 5.57574L11.9998 6.49977L12 6.49982L11.2929 5.79271ZM5.79289 11.2927L11.2929 5.79271L12 6.49982L6.5 11.9998L5.79289 11.2927ZM5.79289 12.7069C5.40237 12.3164 5.40237 11.6832 5.79289 11.2927L6.5 11.9998L6.5 11.9998L5.79289 12.7069ZM7.20711 12.7069C6.81658 13.0974 6.18342 13.0974 5.79289 12.7069L6.5 11.9998H6.5L7.20711 12.7069ZM11.8536 8.06048L7.20711 12.7069L6.5 11.9998L11.1464 7.35337L11.8536 8.06048ZM11 19.4998V7.70692H12V19.4998H11ZM6.5 4.49982H5.5C5.5 3.94753 5.94772 3.49982 6.5 3.49982V4.49982ZM17.5 4.49982H6.5V3.49982H17.5V4.49982ZM17.5 4.49982V3.49982C18.0523 3.49982 18.5 3.94753 18.5 4.49982H17.5ZM17.5 4.49982H18.5C18.5 5.0521 18.0523 5.49982 17.5 5.49982V4.49982ZM6.5 4.49982H17.5V5.49982H6.5V4.49982ZM6.5 4.49982V5.49982C5.94772 5.49982 5.5 5.0521 5.5 4.49982H6.5Z" fill="currentcolor"/>
</svg>
