<svg width="24" height="24" viewBox="0 0 24 24" fill="none" xmlns="http://www.w3.org/2000/svg">
<path fill-rule="evenodd" clip-rule="evenodd" d="M11.5 19.4998C11.5 19.776 11.7239 19.9998 12 19.9998C12.2761 19.9998 12.5 19.776 12.5 19.4998V7.70692L17.1464 12.3534C17.3417 12.5486 17.6583 12.5486 17.8536 12.3534C18.0488 12.1581 18.0488 11.8415 17.8536 11.6463L12.3536 6.14626C12.3056 6.09832 12.2504 6.06216 12.1914 6.03776C12.1324 6.01331 12.0678 5.99982 12 5.99982C11.9322 5.99982 11.8676 6.01331 11.8086 6.03776C11.7496 6.06216 11.6944 6.09832 11.6464 6.14626L6.14645 11.6463C5.95118 11.8415 5.95118 12.1581 6.14645 12.3534C6.34171 12.5486 6.65829 12.5486 6.85355 12.3534L11.5 7.70692V19.4998ZM6 4.49982C6 4.22367 6.22386 3.99982 6.5 3.99982H17.5C17.7761 3.99982 18 4.22367 18 4.49982C18 4.77596 17.7761 4.99982 17.5 4.99982H6.5C6.22386 4.99982 6 4.77596 6 4.49982Z" fill="currentcolor"/>
</svg>
