<svg width="24" height="24" viewBox="0 0 24 24" fill="none" xmlns="http://www.w3.org/2000/svg">
<path fill-rule="evenodd" clip-rule="evenodd" d="M7 6C7 3.23858 9.23858 1 12 1C14.7614 1 17 3.23858 17 6C17 8.76142 14.7614 11 12 11C9.23858 11 7 8.76142 7 6ZM12 3C10.3431 3 9 4.34315 9 6C9 7.65685 10.3431 9 12 9C13.6569 9 15 7.65685 15 6C15 4.34315 13.6569 3 12 3Z" fill="currentcolor"/>
<path d="M4.06189 21C4.55399 17.0537 7.92038 14 12 14C13.1643 14 14.268 14.2481 15.2633 14.6934L16.1761 15.1018L16.9929 13.2762L16.0801 12.8678C14.8329 12.3098 13.4513 12 12 12C6.47715 12 2 16.4772 2 22V23H14.3542V21H4.06189Z" fill="currentcolor"/>
<path d="M20 15V18H23V20H20V23H18V20H15V18H18V15H20Z" fill="currentcolor"/>
</svg>
