<svg width="24" height="24" viewBox="0 0 24 24" fill="none" xmlns="http://www.w3.org/2000/svg">
<path fill-rule="evenodd" clip-rule="evenodd" d="M8.4987 8C8.4987 9.93 10.0687 11.5 11.9987 11.5C13.9287 11.5 15.4987 9.93 15.4987 8C15.4987 6.07 13.9287 4.5 11.9987 4.5C10.0687 4.5 8.4987 6.07 8.4987 8ZM9.4987 8C9.4987 6.622 10.6207 5.5 11.9987 5.5C13.3767 5.5 14.4987 6.622 14.4987 8C14.4987 9.378 13.3767 10.5 11.9987 10.5C10.6207 10.5 9.4987 9.378 9.4987 8Z" fill="currentcolor"/>
<path fill-rule="evenodd" clip-rule="evenodd" d="M6 19.5H18C18.276 19.5 18.5 19.276 18.5 19C18.5 18.935 18.426 12.5 12 12.5C5.574 12.5 5.5 18.935 5.5 19C5.5 19.276 5.723 19.5 6 19.5ZM17.467 18.5H6.531C6.676 17.137 7.485 13.5 12 13.5C16.498 13.5 17.318 17.137 17.467 18.5Z" fill="currentcolor"/>
</svg>
