<svg width="24" height="24" viewBox="0 0 24 24" fill="none" xmlns="http://www.w3.org/2000/svg">
<path d="M12.1012 6.37437C12.5601 5.8395 13.2407 5.5 13.9987 5.5C15.3767 5.5 16.4987 6.622 16.4987 8C16.4987 9.378 15.3767 10.5 13.9987 10.5C13.2407 10.5 12.5601 10.1605 12.1012 9.62563C11.9346 9.93506 11.7219 10.2053 11.4747 10.4225C12.112 11.0863 13.0079 11.5 13.9987 11.5C15.9287 11.5 17.4987 9.93 17.4987 8C17.4987 6.07 15.9287 4.5 13.9987 4.5C13.0079 4.5 12.112 4.91374 11.4747 5.57753C11.7219 5.79465 11.9346 6.06494 12.1012 6.37437Z" fill="currentcolor"/>
<path d="M19.467 18.5H15.6024L15.804 19.5L7.50303 18.9017C7.50034 18.9615 7.5 18.9956 7.5 19C7.5 19.276 7.723 19.5 8 19.5H15.804H20C20.276 19.5 20.5 19.276 20.5 19C20.5 18.935 20.426 12.5 14 12.5C13.0322 12.5 12.2085 12.646 11.5074 12.8941L12.0471 13.0136L12.6961 13.6136C13.0922 13.5401 13.5256 13.5 14 13.5C18.498 13.5 19.318 17.137 19.467 18.5Z" fill="currentcolor"/>
<path fill-rule="evenodd" clip-rule="evenodd" d="M6.4987 8C6.4987 9.93 8.0687 11.5 9.9987 11.5C11.9287 11.5 13.4987 9.93 13.4987 8C13.4987 6.07 11.9287 4.5 9.9987 4.5C8.0687 4.5 6.4987 6.07 6.4987 8ZM7.4987 8C7.4987 6.622 8.6207 5.5 9.9987 5.5C11.3767 5.5 12.4987 6.622 12.4987 8C12.4987 9.378 11.3767 10.5 9.9987 10.5C8.6207 10.5 7.4987 9.378 7.4987 8Z" fill="currentcolor"/>
<path fill-rule="evenodd" clip-rule="evenodd" d="M4 19.5H16C16.276 19.5 16.5 19.276 16.5 19C16.5 18.935 16.426 12.5 10 12.5C3.574 12.5 3.5 18.935 3.5 19C3.5 19.276 3.723 19.5 4 19.5ZM15.467 18.5H4.531C4.676 17.137 5.485 13.5 10 13.5C14.498 13.5 15.318 17.137 15.467 18.5Z" fill="currentcolor"/>
</svg>
