<svg width="24" height="24" viewBox="0 0 24 24" fill="none" xmlns="http://www.w3.org/2000/svg">
<path fill-rule="evenodd" clip-rule="evenodd" d="M14.999 11.5C16.929 11.5 18.499 9.93 18.499 8C18.499 6.07 16.929 4.5 14.999 4.5C13.069 4.5 11.499 6.07 11.499 8C11.499 9.93 13.069 11.5 14.999 11.5ZM14.999 5.5C16.377 5.5 17.499 6.622 17.499 8C17.499 9.378 16.377 10.5 14.999 10.5C13.621 10.5 12.499 9.378 12.499 8C12.499 6.622 13.621 5.5 14.999 5.5Z" fill="currentcolor"/>
<path fill-rule="evenodd" clip-rule="evenodd" d="M15.0002 12.5C8.5742 12.5 8.5002 18.935 8.5002 19C8.5002 19.276 8.7232 19.5 9.0002 19.5H21.0002C21.2762 19.5 21.5002 19.276 21.5002 19C21.5002 18.935 21.4262 12.5 15.0002 12.5ZM9.5312 18.5C9.6762 17.137 10.4852 13.5 15.0002 13.5C19.4982 13.5 20.3182 17.137 20.4672 18.5H9.5312Z" fill="currentcolor"/>
<path d="M9.5 11C9.5 11.276 9.276 11.5 9 11.5H6.5V14C6.5 14.276 6.276 14.5 6 14.5C5.724 14.5 5.5 14.276 5.5 14V11.5H3C2.724 11.5 2.5 11.276 2.5 11C2.5 10.724 2.724 10.5 3 10.5H5.5V8C5.5 7.724 5.724 7.5 6 7.5C6.276 7.5 6.5 7.724 6.5 8V10.5H9C9.276 10.5 9.5 10.724 9.5 11Z" fill="currentcolor"/>
<path fill-rule="evenodd" clip-rule="evenodd" d="M10.999 8C10.999 5.79386 12.7929 4 14.999 4C17.2051 4 18.999 5.79386 18.999 8C18.999 10.2061 17.2051 12 14.999 12C12.7929 12 10.999 10.2061 10.999 8ZM14.999 6C13.8971 6 12.999 6.89814 12.999 8C12.999 9.10186 13.8971 10 14.999 10C16.1009 10 16.999 9.10186 16.999 8C16.999 6.89814 16.1009 6 14.999 6ZM5 8C5 7.44786 5.44786 7 6 7C6.55214 7 7 7.44786 7 8V10H9C9.55214 10 10 10.4479 10 11C10 11.5521 9.55214 12 9 12H7V14C7 14.5521 6.55214 15 6 15C5.44786 15 5 14.5521 5 14V12H3C2.44786 12 2 11.5521 2 11C2 10.4479 2.44786 10 3 10H5V8ZM9.00022 18.9993C9.0002 19.0001 9.0002 19.0003 9.0002 19H8.97519L9.03401 18.4471C9.11056 17.7275 9.36347 16.3767 10.2225 15.1949C10.5384 14.7603 10.932 14.3547 11.4188 14.0133C10.6667 14.5488 10.1467 15.2429 9.78619 15.9522C9.40415 16.7039 9.20629 17.4635 9.10466 18.0433C9.07855 18.1922 9.05897 18.3283 9.04427 18.4482C9.00386 18.7779 9.00045 18.985 9.00022 18.9993ZM15.0002 13C13.4517 13 12.2871 13.4045 11.4188 14.0133C11.4618 13.9827 11.5056 13.9526 11.5501 13.9231C12.3703 13.3788 13.4814 13 15.0002 13ZM15.0002 13C16.8931 13 18.2123 13.6087 19.1176 14.456C19.5909 14.9072 19.9465 15.4255 20.2142 15.9522C20.5963 16.7039 20.7941 17.4635 20.8957 18.0433C20.9217 18.1915 20.9413 18.3271 20.9559 18.4466C20.9965 18.7772 20.9999 18.985 21.0002 18.9993C21.0002 19.0001 21.0002 19.0003 21.0002 19H21.0248L20.9642 18.4457C20.8856 17.726 20.6287 16.3759 19.7688 15.1946C19.5803 14.9357 19.3643 14.687 19.1176 14.456C18.917 14.2649 18.6954 14.0857 18.4503 13.9231C17.6301 13.3788 16.519 13 15.0002 13ZM14.999 12C14.9994 12 14.9998 12 15.0002 12C16.6944 12 18.0023 12.4256 19.0033 13.0899C20.0011 13.7521 20.665 14.632 21.1057 15.4991C21.9798 17.2189 22.0002 18.9364 22.0002 19C22.0002 19.5521 21.5523 20 21.0002 20H9.0002C8.44641 20 8.0002 19.5515 8.0002 19C8.0002 18.9364 8.02063 17.2189 8.89471 15.4991C9.33538 14.632 9.99932 13.7521 10.9971 13.0899C11.9979 12.4257 13.3054 12.0002 14.999 12ZM10.1114 18H19.8853C19.7592 17.3577 19.4978 16.5214 18.9603 15.7831C18.2685 14.8328 17.0893 14 15.0002 14C12.9019 14 11.7216 14.8333 11.0314 15.7829C10.4947 16.5212 10.2355 17.3577 10.1114 18Z" fill="currentcolor"/>
</svg>
