<svg width="24" height="24" viewBox="0 0 24 24" fill="none" xmlns="http://www.w3.org/2000/svg">
<path fill-rule="evenodd" clip-rule="evenodd" d="M7 6C7 3.23858 9.23858 1 12 1C14.7614 1 17 3.23858 17 6C17 8.76142 14.7614 11 12 11C9.23858 11 7 8.76142 7 6ZM12 3C10.3431 3 9 4.34315 9 6C9 7.65685 10.3431 9 12 9C13.6569 9 15 7.65685 15 6C15 4.34315 13.6569 3 12 3Z" fill="currentcolor"/>
<path d="M4.06189 21C4.55399 17.0537 7.92038 14 12 14C12.3138 14 12.6229 14.018 12.9266 14.053L13.92 14.1674L14.1488 12.1805L13.1554 12.0661C12.7759 12.0224 12.3904 12 12 12C6.47715 12 2 16.4772 2 22V23H13.2547V21H4.06189Z" fill="currentcolor"/>
<path fill-rule="evenodd" clip-rule="evenodd" d="M14 18C14 15.7909 15.7909 14 18 14C20.2091 14 22 15.7909 22 18C22 18.7418 21.7981 19.4365 21.4462 20.032L23.4142 22L22 23.4142L20.032 21.4462C19.4365 21.7981 18.7418 22 18 22C15.7909 22 14 20.2091 14 18ZM18 16C16.8954 16 16 16.8954 16 18C16 19.1046 16.8954 20 18 20C19.1046 20 20 19.1046 20 18C20 16.8954 19.1046 16 18 16Z" fill="currentcolor"/>
</svg>
