<svg width="24" height="24" viewBox="0 0 24 24" fill="none" xmlns="http://www.w3.org/2000/svg">
<path d="M12.1012 6.37437C12.5601 5.8395 13.2407 5.5 13.9987 5.5C15.3767 5.5 16.4987 6.622 16.4987 8C16.4987 9.378 15.3767 10.5 13.9987 10.5C13.2407 10.5 12.5601 10.1605 12.1012 9.62563C11.9346 9.93506 11.7219 10.2053 11.4747 10.4225C12.112 11.0863 13.0079 11.5 13.9987 11.5C15.9287 11.5 17.4987 9.93 17.4987 8C17.4987 6.07 15.9287 4.5 13.9987 4.5C13.0079 4.5 12.112 4.91374 11.4747 5.57753C11.7219 5.79465 11.9346 6.06494 12.1012 6.37437Z" fill="currentcolor"/>
<path d="M19.467 18.5H15.6024L15.804 19.5L7.50303 18.9017C7.50034 18.9615 7.5 18.9956 7.5 19C7.5 19.276 7.723 19.5 8 19.5H15.804H20C20.276 19.5 20.5 19.276 20.5 19C20.5 18.935 20.426 12.5 14 12.5C13.0322 12.5 12.2085 12.646 11.5074 12.8941L12.0471 13.0136L12.6961 13.6136C13.0922 13.5401 13.5256 13.5 14 13.5C18.498 13.5 19.318 17.137 19.467 18.5Z" fill="currentcolor"/>
<path fill-rule="evenodd" clip-rule="evenodd" d="M6.4987 8C6.4987 9.93 8.0687 11.5 9.9987 11.5C11.9287 11.5 13.4987 9.93 13.4987 8C13.4987 6.07 11.9287 4.5 9.9987 4.5C8.0687 4.5 6.4987 6.07 6.4987 8ZM7.4987 8C7.4987 6.622 8.6207 5.5 9.9987 5.5C11.3767 5.5 12.4987 6.622 12.4987 8C12.4987 9.378 11.3767 10.5 9.9987 10.5C8.6207 10.5 7.4987 9.378 7.4987 8Z" fill="currentcolor"/>
<path fill-rule="evenodd" clip-rule="evenodd" d="M4 19.5H16C16.276 19.5 16.5 19.276 16.5 19C16.5 18.935 16.426 12.5 10 12.5C3.574 12.5 3.5 18.935 3.5 19C3.5 19.276 3.723 19.5 4 19.5ZM15.467 18.5H4.531C4.676 17.137 5.485 13.5 10 13.5C14.498 13.5 15.318 17.137 15.467 18.5Z" fill="currentcolor"/>
<path fill-rule="evenodd" clip-rule="evenodd" d="M5.9987 8C5.9987 5.79386 7.79256 4 9.9987 4C10.7269 4 11.4101 4.19543 11.9988 4.53662C12.5873 4.19566 13.2706 4 13.9987 4C16.2048 4 17.9987 5.79386 17.9987 8C17.9987 10.2061 16.2048 12 13.9987 12C13.2706 12 12.5873 11.8043 11.9988 11.4634C11.4101 11.8046 10.7269 12 9.9987 12C7.79256 12 5.9987 10.2061 5.9987 8ZM12 12.2267C12.5985 12.0805 13.2626 12.0001 13.9987 12C13.9991 12 13.9996 12 14 12C15.6942 12 17.0021 12.4256 18.0031 13.0899C19.0009 13.7521 19.6648 14.632 20.1055 15.4991C20.9796 17.2189 21 18.9364 21 19C21 19.5521 20.5521 20 20 20H4C3.44621 20 3 19.5515 3 19C3 18.9364 3.02043 17.2189 3.89451 15.4991C4.33518 14.632 4.99912 13.7521 5.99693 13.0899C6.99768 12.4257 8.30515 12.0002 9.9987 12C9.99913 12 9.99957 12 10 12C10.7377 12 11.4022 12.0807 12 12.2267ZM9.69574 13.0052C8.3314 13.0523 7.31428 13.4158 6.54988 13.9231C6.50536 13.9526 6.46161 13.9827 6.41861 14.0133C7.22914 13.445 8.29744 13.0546 9.69574 13.0052ZM13.5708 14.0121C13.7679 14.1503 13.9497 14.2991 14.1173 14.456C13.9526 14.2989 13.7736 14.15 13.579 14.0117C13.5763 14.0118 13.5735 14.012 13.5708 14.0121ZM13.8651 13.001C13.8651 13.001 13.865 13.001 13.8651 13.001ZM15.1582 14.0961C15.5537 14.5421 15.8633 15.0226 16.1055 15.4991C16.5721 16.4171 16.7954 17.3345 16.9022 18H18.8851C18.759 17.3577 18.4976 16.5214 17.9601 15.7831C17.4081 15.0248 16.5457 14.3413 15.1582 14.0961ZM14.8851 18C14.759 17.3577 14.4976 16.5214 13.9601 15.7831C13.2683 14.8328 12.0891 14 10 14C7.90173 14 6.7214 14.8333 6.03119 15.7829C5.49448 16.5212 5.23534 17.3577 5.11118 18H14.8851ZM18.1173 14.456C17.2121 13.6087 15.8929 13 14 13C15.5188 13 16.6299 13.3788 17.4501 13.9231C17.6952 14.0857 17.9168 14.2648 18.1173 14.456ZM12.8721 10.7805C12.872 10.7805 12.8721 10.7805 12.8721 10.7805ZM13.4982 9.93653C13.6583 9.97798 13.826 10 13.9987 10C15.1006 10 15.9987 9.10186 15.9987 8C15.9987 6.89814 15.1006 6 13.9987 6C13.826 6 13.6583 6.02202 13.4982 6.06347C13.817 6.63753 13.9987 7.29789 13.9987 8C13.9987 8.70211 13.817 9.36247 13.4982 9.93653ZM12.8722 5.21963C12.8722 5.21967 12.8721 5.21959 12.8722 5.21963ZM9.9987 6C8.89684 6 7.9987 6.89814 7.9987 8C7.9987 9.10186 8.89684 10 9.9987 10C11.1006 10 11.9987 9.10186 11.9987 8C11.9987 6.89814 11.1006 6 9.9987 6Z" fill="currentcolor"/>
</svg>
