<svg width="24" height="24" viewBox="0 0 24 24" fill="none" xmlns="http://www.w3.org/2000/svg">
<path fill-rule="evenodd" clip-rule="evenodd" d="M8.4987 8C8.4987 9.93 10.0687 11.5 11.9987 11.5C13.9287 11.5 15.4987 9.93 15.4987 8C15.4987 6.07 13.9287 4.5 11.9987 4.5C10.0687 4.5 8.4987 6.07 8.4987 8ZM9.4987 8C9.4987 6.622 10.6207 5.5 11.9987 5.5C13.3767 5.5 14.4987 6.622 14.4987 8C14.4987 9.378 13.3767 10.5 11.9987 10.5C10.6207 10.5 9.4987 9.378 9.4987 8Z" fill="currentcolor"/>
<path fill-rule="evenodd" clip-rule="evenodd" d="M6 19.5H18C18.276 19.5 18.5 19.276 18.5 19C18.5 18.935 18.426 12.5 12 12.5C5.574 12.5 5.5 18.935 5.5 19C5.5 19.276 5.723 19.5 6 19.5ZM17.467 18.5H6.531C6.676 17.137 7.485 13.5 12 13.5C16.498 13.5 17.318 17.137 17.467 18.5Z" fill="currentcolor"/>
<path fill-rule="evenodd" clip-rule="evenodd" d="M7.9987 8C7.9987 5.79386 9.79256 4 11.9987 4C14.2048 4 15.9987 5.79386 15.9987 8C15.9987 10.2061 14.2048 12 11.9987 12C9.79256 12 7.9987 10.2061 7.9987 8ZM11.9987 6C10.8968 6 9.9987 6.89814 9.9987 8C9.9987 9.10186 10.8968 10 11.9987 10C13.1006 10 13.9987 9.10186 13.9987 8C13.9987 6.89814 13.1006 6 11.9987 6ZM6.00002 18.9993C6 19.0001 6 19.0003 6 19H5.97499L6.03381 18.4471C6.11036 17.7275 6.36327 16.3767 7.22231 15.1949C7.53819 14.7603 7.93182 14.3547 8.41861 14.0133C7.66653 14.5488 7.14647 15.2429 6.78599 15.9522C6.40395 16.7039 6.20609 17.4635 6.10446 18.0433C6.07835 18.1922 6.05877 18.3283 6.04407 18.4482C6.00366 18.7779 6.00025 18.985 6.00002 18.9993ZM12 13C10.4515 13 9.28686 13.4045 8.41861 14.0133C8.46161 13.9827 8.50536 13.9526 8.54988 13.9231C9.37006 13.3788 10.4812 13 12 13ZM12 13C13.8929 13 15.2121 13.6087 16.1173 14.456C16.5907 14.9072 16.9463 15.4255 17.214 15.9522C17.5961 16.7039 17.7939 17.4635 17.8955 18.0433C17.9215 18.1915 17.9411 18.3271 17.9557 18.4466C17.9963 18.7772 17.9997 18.985 18 18.9993C18 19.0001 18 19.0003 18 19H18.0246L17.964 18.4457C17.8854 17.726 17.6285 16.3759 16.7686 15.1946C16.5801 14.9357 16.3641 14.687 16.1173 14.456C15.9168 14.2648 15.6952 14.0857 15.4501 13.9231C14.6299 13.3788 13.5188 13 12 13ZM11.9987 12C11.9991 12 11.9996 12 12 12C13.6942 12 15.0021 12.4256 16.0031 13.0899C17.0009 13.7521 17.6648 14.632 18.1055 15.4991C18.9796 17.2189 19 18.9364 19 19C19 19.5521 18.5521 20 18 20H6C5.44621 20 5 19.5515 5 19C5 18.9364 5.02043 17.2189 5.89451 15.4991C6.33518 14.632 6.99912 13.7521 7.99693 13.0899C8.99768 12.4257 10.3051 12.0002 11.9987 12ZM7.11118 18H16.8851C16.759 17.3577 16.4976 16.5214 15.9601 15.7831C15.2683 14.8328 14.0891 14 12 14C9.90173 14 8.7214 14.8333 8.03119 15.7829C7.49448 16.5212 7.23534 17.3577 7.11118 18Z" fill="currentcolor"/>
</svg>
