<svg width="24" height="24" viewBox="0 0 24 24" fill="none" xmlns="http://www.w3.org/2000/svg">
<path fill-rule="evenodd" clip-rule="evenodd" d="M7 6C7 3.23858 9.23858 1 12 1C14.7614 1 17 3.23858 17 6C17 8.76142 14.7614 11 12 11C9.23858 11 7 8.76142 7 6ZM12 3C10.3431 3 9 4.34315 9 6C9 7.65685 10.3431 9 12 9C13.6569 9 15 7.65685 15 6C15 4.34315 13.6569 3 12 3Z" fill="currentcolor"/>
<path d="M4.06189 21C4.55399 17.0537 7.92038 14 12 14C13.6564 14 15.1924 14.5023 16.4678 15.3628L17.2968 15.922L18.4154 14.264L17.5864 13.7048C15.9909 12.6284 14.0673 12 12 12C6.47715 12 2 16.4772 2 22V23H18V21H4.06189Z" fill="currentcolor"/>
<path d="M21.9976 13.9976L22.0122 19.9976L20.0122 20.0024L19.9976 14.0024L21.9976 13.9976Z" fill="currentcolor"/>
<path d="M19.9998 21H22.0098V23H19.9998V21Z" fill="currentcolor"/>
</svg>
