<svg width="24" height="24" viewBox="0 0 24 24" fill="none" xmlns="http://www.w3.org/2000/svg">
<path fill-rule="evenodd" clip-rule="evenodd" d="M7 6C7 3.23858 9.23858 1 12 1C14.7614 1 17 3.23858 17 6C17 8.76142 14.7614 11 12 11C9.23858 11 7 8.76142 7 6ZM12 3C10.3431 3 9 4.34315 9 6C9 7.65685 10.3431 9 12 9C13.6569 9 15 7.65685 15 6C15 4.34315 13.6569 3 12 3Z" fill="currentcolor"/>
<path d="M4.06189 21C4.55399 17.0537 7.92038 14 12 14C13.9061 14 15.6541 14.6654 17.0283 15.7774L17.8057 16.4064L19.0637 14.8517L18.2864 14.2226C16.5691 12.833 14.3805 12 12 12C6.47715 12 2 16.4772 2 22V23H14.3542V21H4.06189Z" fill="currentcolor"/>
<path d="M15 18H23V20H15V18Z" fill="currentcolor"/>
</svg>
