<svg width="24" height="24" viewBox="0 0 24 24" fill="none" xmlns="http://www.w3.org/2000/svg">
<path fill-rule="evenodd" clip-rule="evenodd" d="M14.999 11.5C16.929 11.5 18.499 9.93 18.499 8C18.499 6.07 16.929 4.5 14.999 4.5C13.069 4.5 11.499 6.07 11.499 8C11.499 9.93 13.069 11.5 14.999 11.5ZM14.999 5.5C16.377 5.5 17.499 6.622 17.499 8C17.499 9.378 16.377 10.5 14.999 10.5C13.621 10.5 12.499 9.378 12.499 8C12.499 6.622 13.621 5.5 14.999 5.5Z" fill="currentcolor"/>
<path fill-rule="evenodd" clip-rule="evenodd" d="M15.0002 12.5C8.5742 12.5 8.5002 18.935 8.5002 19C8.5002 19.276 8.7232 19.5 9.0002 19.5H21.0002C21.2762 19.5 21.5002 19.276 21.5002 19C21.5002 18.935 21.4262 12.5 15.0002 12.5ZM9.5312 18.5C9.6762 17.137 10.4852 13.5 15.0002 13.5C19.4982 13.5 20.3182 17.137 20.4672 18.5H9.5312Z" fill="currentcolor"/>
<path d="M9.5 11C9.5 11.276 9.276 11.5 9 11.5H6.5V14C6.5 14.276 6.276 14.5 6 14.5C5.724 14.5 5.5 14.276 5.5 14V11.5H3C2.724 11.5 2.5 11.276 2.5 11C2.5 10.724 2.724 10.5 3 10.5H5.5V8C5.5 7.724 5.724 7.5 6 7.5C6.276 7.5 6.5 7.724 6.5 8V10.5H9C9.276 10.5 9.5 10.724 9.5 11Z" fill="currentcolor"/>
</svg>
