<svg width="24" height="24" viewBox="0 0 24 24" fill="none" xmlns="http://www.w3.org/2000/svg">
<path d="M9.8209 9.48871L11.664 11.3219C11.817 11.4741 11.817 11.7231 11.664 11.8753C11.511 12.0275 11.2606 12.0275 11.1076 11.8753L9.2645 10.0421L7.97783 11.3648L9.8209 13.1979C9.97391 13.3501 9.97391 13.5991 9.8209 13.7513C9.66789 13.9035 9.41751 13.9035 9.2645 13.7513L7.42144 11.9182L6.03306 13.2533L7.87612 15.0864C8.02913 15.2386 8.02913 15.4876 7.87612 15.6398C7.72311 15.792 7.47273 15.792 7.31972 15.6398L5.47666 13.8067L5.3473 13.9353C5.00094 14.2798 4.82846 14.7336 4.82846 15.1874C4.82846 15.6412 5.00094 16.0964 5.3473 16.4395L5.86336 16.9528C5.90648 16.9722 5.94682 16.9985 5.98298 17.0344C6.01776 17.0704 6.04558 17.1105 6.06505 17.1534L6.67709 17.7622C6.97893 18.0624 7.37675 18.2118 7.77597 18.2118C8.17518 18.2118 8.57301 18.061 8.87485 17.7622L14.7504 11.9182L11.0643 8.25184L9.8209 9.48871ZM11.3884 7.44248L11.7667 7.8188L13.8796 5.71723C13.6112 5.41009 13.4763 5.02547 13.4763 4.64085C13.4763 4.22026 13.6376 3.79967 13.9589 3.48008C14.2802 3.16049 14.7045 3 15.1274 3C15.5502 3 15.9731 3.16049 16.2944 3.48008L19.5187 6.68708C19.8386 7.00529 19.9986 7.42726 19.9986 7.84785H20C20 8.26844 19.8386 8.68903 19.5173 9.00863C19.196 9.32822 18.7731 9.48871 18.3503 9.48871C17.9872 9.48871 17.6256 9.37111 17.3265 9.13591L15.2094 11.243L15.5613 11.593C15.5892 11.6207 15.6114 11.6525 15.6281 11.6857L16.4154 12.4688C16.5684 12.621 16.5684 12.87 16.4154 13.0222C16.2624 13.1744 16.012 13.1744 15.859 13.0222L15.2359 12.4024L9.36031 18.2464C8.92354 18.6808 8.34906 18.898 7.77458 18.898C7.2001 18.898 6.62562 18.6808 6.18885 18.2464L5.75486 17.8147L3.67115 19.8859C3.51814 20.038 3.26777 20.038 3.11476 19.8859C2.96175 19.7337 2.96175 19.4846 3.11476 19.3325L5.19846 17.2599L4.86045 16.9237C4.38056 16.4464 4.13992 15.8169 4.13992 15.1874C4.13992 14.5579 4.38056 13.9284 4.86045 13.4511L10.5746 7.76761L10.0155 7.21143C9.86245 7.05925 9.86245 6.81021 10.0155 6.65803C10.1685 6.50584 10.4189 6.50584 10.5719 6.65803L11.2952 7.37746C11.3286 7.39268 11.3606 7.41481 11.3884 7.44248ZM16.6714 8.54238L14.4819 6.36472L12.4747 8.36114L14.6642 10.5388L16.6714 8.54238Z" fill="currentcolor" stroke="currentcolor"/>
</svg>
