<svg width="24" height="24" viewBox="0 0 24 24" fill="none" xmlns="http://www.w3.org/2000/svg">
<path d="M12.5528 4.65836L14.3416 5.55279L12.4472 9.34164L10.6584 8.44721L12.5528 4.65836Z" fill="currentcolor"/>
<path fill-rule="evenodd" clip-rule="evenodd" d="M17.6586 6C16.8349 3.66962 14.6124 2 12 2C9.38756 2 7.16508 3.66962 6.34141 6H1V22H23V6H17.6586ZM12 4C9.79086 4 8 5.79086 8 8C8 10.2091 9.79086 12 12 12C14.2091 12 16 10.2091 16 8C16 5.79086 14.2091 4 12 4ZM6 8H3V20H21V8H18C18 11.3137 15.3137 14 12 14C8.68629 14 6 11.3137 6 8Z" fill="currentcolor"/>
</svg>
