<svg width="24" height="24" viewBox="0 0 24 24" fill="none" xmlns="http://www.w3.org/2000/svg">
<path fill-rule="evenodd" clip-rule="evenodd" d="M5.64645 5.64654C5.45118 5.8418 5.45118 6.15838 5.64645 6.35364L11.258 11.9652L5.64665 17.5765C5.45138 17.7718 5.45138 18.0884 5.64665 18.2836C5.84191 18.4789 6.15849 18.4789 6.35375 18.2836L11.9651 12.6723L17.5764 18.2836C17.7717 18.4789 18.0883 18.4789 18.2836 18.2836C18.4788 18.0884 18.4788 17.7718 18.2836 17.5765L12.6722 11.9652L18.2838 6.35364C18.479 6.15838 18.479 5.8418 18.2838 5.64654C18.0885 5.45128 17.7719 5.45128 17.5766 5.64654L11.9651 11.2581L6.35355 5.64654C6.15829 5.45128 5.84171 5.45128 5.64645 5.64654Z" fill="currentcolor"/>
<path fill-rule="evenodd" clip-rule="evenodd" d="M5.29289 5.29298C5.68342 4.90246 6.31658 4.90246 6.70711 5.29298L11.9651 10.551L17.2231 5.29298C17.6136 4.90246 18.2468 4.90246 18.6373 5.29298C19.0278 5.68351 19.0278 6.31667 18.6373 6.7072L13.3793 11.9652L18.6371 17.223C19.0276 17.6135 19.0276 18.2467 18.6371 18.6372C18.2466 19.0277 17.6134 19.0277 17.2229 18.6372L11.9651 13.3794L6.70731 18.6372C6.31678 19.0277 5.68362 19.0277 5.29309 18.6372C4.90257 18.2467 4.90257 17.6135 5.29309 17.223L10.5509 11.9652L5.29289 6.7072C4.90237 6.31667 4.90237 5.68351 5.29289 5.29298Z" fill="currentcolor"/>
</svg>
