<svg width="24" height="24" viewBox="0 0 24 24" fill="none" xmlns="http://www.w3.org/2000/svg">
<path fill-rule="evenodd" clip-rule="evenodd" d="M5.64645 5.64654C5.45118 5.8418 5.45118 6.15838 5.64645 6.35364L11.258 11.9652L5.64665 17.5765C5.45138 17.7718 5.45138 18.0884 5.64665 18.2836C5.84191 18.4789 6.15849 18.4789 6.35375 18.2836L11.9651 12.6723L17.5764 18.2836C17.7717 18.4789 18.0883 18.4789 18.2836 18.2836C18.4788 18.0884 18.4788 17.7718 18.2836 17.5765L12.6722 11.9652L18.2838 6.35364C18.479 6.15838 18.479 5.8418 18.2838 5.64654C18.0885 5.45128 17.7719 5.45128 17.5766 5.64654L11.9651 11.2581L6.35355 5.64654C6.15829 5.45128 5.84171 5.45128 5.64645 5.64654Z" fill="currentcolor"/>
</svg>
